<svg width="24" height="24" viewBox="0 0 24 24" fill="none" xmlns="http://www.w3.org/2000/svg">
<g clip-path="url(#clip0_380_5886)">
<path d="M5.2373 21.9126C7.16321 23.2291 9.49182 23.9996 12.0008 23.9996C14.5097 23.9996 16.8384 23.2291 18.7642 21.9126L12.0008 20.8691L5.2373 21.9126Z" fill="#D80027"/>
<path d="M18.7642 2.08697C16.8384 0.770484 14.5097 0 12.0008 0C9.49182 0 7.16312 0.770484 5.2373 2.08697L12.0008 3.13045L18.7642 2.08697Z" fill="#D80027"/>
<path d="M5.2373 21.9126C7.16321 23.2291 9.49182 23.9996 12.0008 23.9996C14.5097 23.9996 16.8384 23.2291 18.7642 21.9126L12.0008 20.8691L5.2373 21.9126Z" fill="#D80027"/>
<path d="M18.7642 2.08697C16.8384 0.770484 14.5097 0 12.0008 0C9.49182 0 7.16312 0.770484 5.2373 2.08697L12.0008 3.13045L18.7642 2.08697Z" fill="#D80027"/>
<path d="M23.9706 11.2164C23.6863 7.5128 21.436 3.91205 18.7646 2.08594H5.2377C2.2782 4.10911 0.27068 7.42261 0.0263672 11.2164L12.0012 11.999L23.9706 11.2164Z" fill="#0052B4"/>
<path d="M0.0253906 12.7821C0.269703 16.576 2.27717 19.8894 5.23667 21.9126H18.7636C21.7232 19.8895 23.7306 16.576 23.9749 12.7821L12.0002 11.9995L0.0253906 12.7821Z" fill="#0052B4"/>
<path d="M23.9694 11.2176H12.7826V1.56543H11.2174V11.2176H0.0252656C0.008625 11.4763 0 11.7373 0 12.0002C0 12.2632 0.00857813 12.5241 0.0252187 12.7828H11.2174V22.435H12.7826V12.7828H23.9748C23.9914 12.5241 24 12.2632 24 12.0002C24 11.7392 23.9895 11.4781 23.9694 11.2176Z" fill="#D80027"/>
<path d="M4.69629 11.9992L12.0006 7.4082L19.305 11.9992L12.0006 16.5903L4.69629 11.9992Z" fill="#F0F0F0"/>
<path d="M7.82617 14.0875H17.2174L15.1305 10.957L14.087 12.0005L13.0435 11.4788L12.0001 13.044H9.91309L8.86961 12.0005L7.82617 14.0875Z" fill="#6DA544"/>
<path d="M12.0004 8.86914L12.2595 9.66625H13.0975L12.4195 10.159L12.6785 10.9561L12.0004 10.4635L11.3223 10.9561L11.5814 10.159L10.9033 9.66625H11.7414L12.0004 8.86914Z" fill="#FFDA44"/>
<path d="M12.0006 6.09668L2.60938 11.9995L12.0006 17.9022L21.392 11.9995L12.0006 6.09668ZM5.55069 11.9995L12.0006 7.94538L18.4507 11.9995L12.0006 16.0535L5.55069 11.9995Z" fill="#D80027"/>
</g>
<defs>
<clipPath id="clip0_380_5886">
<rect width="24" height="24" fill="white"/>
</clipPath>
</defs>
</svg>
