<svg width="16" height="16" viewBox="0 0 16 16" fill="none" xmlns="http://www.w3.org/2000/svg">
<path d="M1.62486 7.56758L8.37129 1.71222C8.42307 1.66758 8.48915 1.64258 8.55879 1.64258H10.1391C10.2713 1.64258 10.332 1.80686 10.232 1.89258L3.97843 7.32115H14.4284C14.507 7.32115 14.5713 7.38544 14.5713 7.46401V8.53544C14.5713 8.61401 14.507 8.67829 14.4284 8.67829H3.98022L10.2338 14.1069C10.3338 14.1944 10.2731 14.3569 10.1409 14.3569H8.507C8.47307 14.3569 8.43915 14.3444 8.41415 14.3212L1.62486 8.43186C1.56304 8.37811 1.51347 8.31171 1.47951 8.23716C1.44554 8.16261 1.42796 8.08164 1.42796 7.99972C1.42796 7.9178 1.44554 7.83683 1.47951 7.76228C1.51347 7.68773 1.56304 7.62133 1.62486 7.56758V7.56758Z" fill="currentColor"/>
</svg>
