<svg width="16" height="16" viewBox="0 0 16 16" fill="none" xmlns="http://www.w3.org/2000/svg">
<g clip-path="url(#clip0_380_3462)">
<path d="M12.0724 12.9173L12.7113 3.89664C12.7171 3.81506 12.7054 3.73317 12.6768 3.65654C12.6482 3.5799 12.6035 3.51031 12.5456 3.45247C12.4878 3.39464 12.4182 3.34991 12.3415 3.32132C12.2649 3.29273 12.183 3.28094 12.1014 3.28676L3.08205 3.92695C3.05483 3.92885 3.02873 3.93853 3.00686 3.95484C2.98499 3.97115 2.96826 3.9934 2.95868 4.01895C2.9491 4.0445 2.94707 4.07226 2.95282 4.09893C2.95857 4.1256 2.97187 4.15006 2.99113 4.16938L4.01391 5.19216C4.07199 5.25025 4.15281 5.28055 4.23614 5.2755L10.1859 4.85376L3.07573 11.964C3.02017 12.0195 3.02017 12.1104 3.07573 12.166L3.83335 12.9236C3.8889 12.9792 3.97982 12.9792 4.03538 12.9236L11.1456 5.81341L10.7238 11.7632C10.7175 11.8453 10.7478 11.9261 10.8072 11.9854L11.83 13.0082C11.9158 13.0941 12.0636 13.0398 12.0724 12.9173Z" fill="currentColor"/>
</g>
<defs>
<clipPath id="clip0_380_3462">
<rect width="16" height="16" fill="currentColor"/>
</clipPath>
</defs>
</svg>
