<svg width="40" height="40" viewBox="0 0 40 40" fill="none" xmlns="http://www.w3.org/2000/svg">
<path d="M6.66732 35.0002C5.75065 35.0002 4.96621 34.6741 4.31398 34.0218C3.66176 33.3696 3.3351 32.5846 3.33398 31.6668V13.3335C3.33398 12.4168 3.66065 11.6324 4.31398 10.9802C4.96732 10.3279 5.75176 10.0013 6.66732 10.0002H13.334V6.66683C13.334 5.75016 13.6607 4.96572 14.314 4.3135C14.9673 3.66127 15.7518 3.33461 16.6673 3.3335H23.334C24.2507 3.3335 25.0357 3.66016 25.689 4.3135C26.3423 4.96683 26.6684 5.75127 26.6673 6.66683V10.0002H33.334C34.2507 10.0002 35.0357 10.3268 35.689 10.9802C36.3423 11.6335 36.6684 12.4179 36.6673 13.3335V31.6668C36.6673 32.5835 36.3412 33.3685 35.689 34.0218C35.0368 34.6752 34.2518 35.0013 33.334 35.0002H6.66732ZM16.6673 10.0002H23.334V6.66683H16.6673V10.0002ZM33.7506 25.0002H25.0007V28.3335H15.0007V25.0002H6.25063V32.5002H33.7506V25.0002ZM17.5006 25.0002H22.5006V21.2502H17.5006V25.0002ZM6.25063 21.6668H15.0007V18.3335H25.0007V21.6668H33.7506V12.5002H6.25063V21.6668Z" fill="currentColor"/>
</svg>
