<svg width="24" height="24" viewBox="0 0 24 24" fill="none" xmlns="http://www.w3.org/2000/svg">
<path d="M16.2674 11.3018L7.74391 1.54731C7.72164 1.52162 7.69487 1.50565 7.66668 1.50125C7.6385 1.49684 7.61003 1.50417 7.58456 1.5224C7.55909 1.54062 7.53765 1.56901 7.52269 1.60429C7.50773 1.63957 7.49987 1.68031 7.5 1.72185V3.86333C7.5 3.99908 7.54349 4.12929 7.61534 4.2124L14.422 11.9999L7.61534 19.7874C7.5416 19.8705 7.5 20.0007 7.5 20.1364V22.2779C7.5 22.4635 7.64559 22.566 7.74391 22.4525L16.2674 12.698C16.3398 12.6152 16.3984 12.5093 16.4387 12.3883C16.479 12.2674 16.5 12.1345 16.5 11.9999C16.5 11.8653 16.479 11.7324 16.4387 11.6114C16.3984 11.4905 16.3398 11.3846 16.2674 11.3018Z" fill="currentColor"/>
</svg>
