<svg width="24" height="24" viewBox="0 0 24 24" fill="none" xmlns="http://www.w3.org/2000/svg">
<path d="M16.5 3.86385V1.7221C16.5 1.53647 16.3544 1.43395 16.2561 1.54755L7.73259 11.3032C7.66017 11.3857 7.60157 11.4914 7.56126 11.6121C7.52095 11.7329 7.5 11.8656 7.5 12C7.5 12.1344 7.52095 12.2671 7.56126 12.3879C7.60157 12.5086 7.66017 12.6143 7.73259 12.6968L16.2561 22.4524C16.3563 22.566 16.5 22.4635 16.5 22.2779V20.1361C16.5 20.0004 16.4565 19.8702 16.3847 19.787L9.57796 12.0014L16.3847 4.21296C16.4565 4.12984 16.5 3.99962 16.5 3.86385Z" fill="currentColor"/>
</svg>
