<svg width="24" height="24" viewBox="0 0 24 24" fill="none" xmlns="http://www.w3.org/2000/svg">
<path d="M18.7879 6.62213C18.905 6.50497 18.905 6.31503 18.7879 6.19787L17.8021 5.21213C17.685 5.09497 17.495 5.09497 17.3779 5.21213L12 10.59L6.62213 5.21213C6.50497 5.09497 6.31503 5.09497 6.19787 5.21213L5.21213 6.19787C5.09497 6.31503 5.09497 6.50497 5.21213 6.62213L10.59 12L5.21213 17.3779C5.09497 17.495 5.09497 17.685 5.21213 17.8021L6.19787 18.7879C6.31503 18.905 6.50497 18.905 6.62213 18.7879L12 13.41L17.3779 18.7879C17.495 18.905 17.685 18.905 17.8021 18.7879L18.7879 17.8021C18.905 17.685 18.905 17.495 18.7879 17.3779L13.41 12L18.7879 6.62213Z" fill="currentColor"/>
</svg>
