<svg width="36" height="36" viewBox="0 0 36 36" fill="none" xmlns="http://www.w3.org/2000/svg">
<path d="M34.2996 3.41317L32.5961 1.7096C32.5318 1.64531 32.4514 1.61719 32.367 1.61719C32.2827 1.61719 32.2023 1.64933 32.138 1.7096L29.0804 4.76719C27.7512 3.8666 26.182 3.38644 24.5764 3.38906C22.5193 3.38906 20.4621 4.17255 18.8911 5.74353L14.7969 9.83772C14.7371 9.89814 14.7036 9.97972 14.7036 10.0647C14.7036 10.1497 14.7371 10.2313 14.7969 10.2917L25.7135 21.2083C25.7778 21.2725 25.8581 21.3007 25.9425 21.3007C26.0228 21.3007 26.1072 21.2685 26.1715 21.2083L30.2657 17.1141C33.034 14.3417 33.3594 10.0547 31.242 6.9288L34.2996 3.87121C34.4242 3.74263 34.4242 3.53772 34.2996 3.41317ZM28.3291 15.1815L25.9425 17.5681L18.4371 10.0627L20.8237 7.67612C21.8242 6.67567 23.1581 6.12121 24.5764 6.12121C25.9947 6.12121 27.3246 6.67165 28.3291 7.67612C29.3295 8.67656 29.884 10.0105 29.884 11.4288C29.884 12.8471 29.3295 14.177 28.3291 15.1815ZM20.6871 19.4002C20.6267 19.3404 20.5451 19.3068 20.4601 19.3068C20.3751 19.3068 20.2935 19.3404 20.2331 19.4002L17.5572 22.0761L13.9291 18.448L16.609 15.7681C16.7336 15.6435 16.7336 15.4386 16.609 15.3141L15.1465 13.8516C15.0861 13.7917 15.0045 13.7582 14.9195 13.7582C14.8345 13.7582 14.7529 13.7917 14.6925 13.8516L12.0126 16.5315L10.2849 14.8038C10.2549 14.7738 10.2192 14.7501 10.1798 14.7342C10.1405 14.7184 10.0983 14.7106 10.0559 14.7114C9.97552 14.7114 9.89114 14.7435 9.82686 14.8038L5.73668 18.898C2.96838 21.6703 2.64293 25.9574 4.76034 29.0833L1.70275 32.1409C1.64293 32.2013 1.60937 32.2828 1.60938 32.3679C1.60938 32.4529 1.64293 32.5345 1.70275 32.5949L3.40632 34.2984C3.47061 34.3627 3.55096 34.3909 3.63534 34.3909C3.71971 34.3909 3.80007 34.3587 3.86436 34.2984L6.92195 31.2409C8.27596 32.1609 9.85097 32.619 11.426 32.619C13.4831 32.619 15.5403 31.8355 17.1112 30.2645L21.2054 26.1703C21.33 26.0458 21.33 25.8409 21.2054 25.7163L19.4778 23.9886L22.1577 21.3087C22.2822 21.1842 22.2822 20.9792 22.1577 20.8547L20.6871 19.4002ZM15.1746 28.3359C14.6829 28.8302 14.098 29.2221 13.4539 29.489C12.8098 29.7559 12.1192 29.8925 11.4219 29.8909C10.0036 29.8909 8.67373 29.3404 7.66927 28.3359C7.175 27.8442 6.78309 27.2594 6.5162 26.6152C6.24931 25.9711 6.11273 25.2805 6.11436 24.5833C6.11436 23.165 6.6648 21.835 7.66927 20.8306L10.0559 18.444L17.5612 25.9493L15.1746 28.3359Z" fill="currentColor"/>
</svg>
