<svg width="32" height="32" viewBox="0 0 32 32" fill="none" xmlns="http://www.w3.org/2000/svg">
<path d="M16 1C16.948 1 17.806 1.3015 18.3895 2.095C18.742 2.575 18.9385 3.148 18.988 3.7165L19 4C18.9999 4.44233 19.0976 4.87922 19.2862 5.27936C19.4747 5.6795 19.7494 6.03299 20.0906 6.31453C20.4317 6.59607 20.8309 6.79867 21.2596 6.90784C21.6882 7.01701 22.1357 7.03004 22.57 6.946L22.8415 6.8815C23.0928 6.80814 23.3577 6.79429 23.6153 6.84108C23.8729 6.88786 24.116 6.99398 24.3255 7.15102C24.5349 7.30807 24.7049 7.51174 24.822 7.74588C24.9391 7.98002 25 8.23821 25 8.5C24.9998 9.25686 25.2856 9.98585 25.8002 10.5408C26.3149 11.0958 27.0203 11.4357 27.775 11.4925L28 11.5C29.044 11.5 30.5875 12.118 30.8335 13.7575C30.9435 14.4905 30.999 15.238 31 16C31 24.2845 24.2845 31 16 31C7.7155 31 1 24.2845 1 16C1 7.7155 7.7155 1 16 1ZM16 4C13.5626 4.00023 11.183 4.74269 9.17799 6.12858C7.17293 7.51448 5.63744 9.4781 4.77585 11.7581C3.91426 14.0382 3.76741 16.5266 4.35485 18.8921C4.94228 21.2577 6.23615 23.3883 8.06428 25.0004C9.89242 26.6125 12.1681 27.6297 14.5886 27.9166C17.009 28.2035 19.4595 27.7465 21.6139 26.6065C23.7682 25.4664 25.5243 23.6974 26.6485 21.5347C27.7727 19.372 28.2117 16.9183 27.907 14.5C26.5922 14.4797 25.3204 14.0281 24.2873 13.2145C23.2542 12.4009 22.5169 11.2705 22.189 9.997C18.85 10.1005 16 7.342 16 4ZM12.25 19C12.8467 19 13.419 19.2371 13.841 19.659C14.2629 20.081 14.5 20.6533 14.5 21.25C14.5 21.8467 14.2629 22.419 13.841 22.841C13.419 23.2629 12.8467 23.5 12.25 23.5C11.6533 23.5 11.081 23.2629 10.659 22.841C10.2371 22.419 10 21.8467 10 21.25C10 20.6533 10.2371 20.081 10.659 19.659C11.081 19.2371 11.6533 19 12.25 19ZM21.25 16C21.8467 16 22.419 16.2371 22.841 16.659C23.2629 17.081 23.5 17.6533 23.5 18.25C23.5 18.8467 23.2629 19.419 22.841 19.841C22.419 20.2629 21.8467 20.5 21.25 20.5C20.6533 20.5 20.081 20.2629 19.659 19.841C19.2371 19.419 19 18.8467 19 18.25C19 17.6533 19.2371 17.081 19.659 16.659C20.081 16.2371 20.6533 16 21.25 16ZM12.25 10C12.8467 10 13.419 10.2371 13.841 10.659C14.2629 11.081 14.5 11.6533 14.5 12.25C14.5 12.8467 14.2629 13.419 13.841 13.841C13.419 14.2629 12.8467 14.5 12.25 14.5C11.6533 14.5 11.081 14.2629 10.659 13.841C10.2371 13.419 10 12.8467 10 12.25C10 11.6533 10.2371 11.081 10.659 10.659C11.081 10.2371 11.6533 10 12.25 10Z" fill="currentColor"/>
</svg>
