<svg width="25" height="24" viewBox="0 0 25 24" fill="none" xmlns="http://www.w3.org/2000/svg">
<g clip-path="url(#clip0_537_3080)">
<path d="M21.0713 0H6.71415C6.59629 0 6.49986 0.0964286 6.49986 0.214286V1.71429C6.49986 1.83214 6.59629 1.92857 6.71415 1.92857H19.9999V20.3571C19.9999 20.475 20.0963 20.5714 20.2141 20.5714H21.7141C21.832 20.5714 21.9284 20.475 21.9284 20.3571V0.857143C21.9284 0.383036 21.5454 0 21.0713 0ZM17.6427 3.42857H3.92843C3.45432 3.42857 3.07129 3.81161 3.07129 4.28571V18.5009C3.07129 18.7286 3.16236 18.9455 3.32307 19.1063L7.96504 23.7482C8.02397 23.8071 8.09093 23.8554 8.16325 23.8955V23.9464H8.27575C8.3695 23.9813 8.46861 24 8.5704 24H17.6427C18.1168 24 18.4999 23.617 18.4999 23.1429V4.28571C18.4999 3.81161 18.1168 3.42857 17.6427 3.42857ZM8.16058 21.2196L5.85433 18.9107H8.16058V21.2196ZM16.5713 22.0714H9.87486V18.2679C9.87486 17.6759 9.3954 17.1964 8.80343 17.1964H4.99986V5.35714H16.5713V22.0714Z" fill="currentColor"/>
</g>
<defs>
<clipPath id="clip0_537_3080">
<rect width="24" height="24" fill="currentColor" transform="translate(0.5)"/>
</clipPath>
</defs>
</svg>
