<svg width="40" height="40" viewBox="0 0 40 40" fill="none" xmlns="http://www.w3.org/2000/svg">
<path d="M38.5714 5H1.42857C0.638393 5 0 5.63839 0 6.42857V35C0 35.7902 0.638393 36.4286 1.42857 36.4286H38.5714C39.3616 36.4286 40 35.7902 40 35V6.42857C40 5.63839 39.3616 5 38.5714 5ZM3.21429 8.21429H36.7857V13.5714H3.21429V8.21429ZM36.7857 33.2143H3.21429V17.5H36.7857V33.2143ZM26.2054 30.3571H33.5714C33.7679 30.3571 33.9286 30.1964 33.9286 30V26.7857C33.9286 26.5893 33.7679 26.4286 33.5714 26.4286H26.2054C26.0089 26.4286 25.8482 26.5893 25.8482 26.7857V30C25.8482 30.1964 26.0089 30.3571 26.2054 30.3571Z" fill="currentColor"/>
</svg>
