<svg width="211" height="367" viewBox="0 0 211 367" fill="none" xmlns="http://www.w3.org/2000/svg">
<path d="M85.0951 314.317C64.0985 310.408 46.8804 303.567 33.4409 293.796C20.0482 283.773 10.6921 271.517 5.37277 257.026C0.0534203 242.536 -0.947723 226.383 2.36934 208.568L36.1139 214.851C34.5254 223.382 34.9133 232.411 37.2775 241.938C39.6884 251.214 45.0825 259.747 53.4597 267.537C61.8836 275.077 74.3442 280.383 90.8416 283.454C112.588 287.503 129.575 285.863 141.802 278.534C154.075 270.954 161.357 261.016 163.646 248.721C165.842 236.928 162.938 226.133 154.934 216.335C147.228 206.333 134.664 198.801 117.244 193.74L92.9186 186.874C69.7962 180.492 52.5057 169.874 41.0471 155.019C29.6353 139.913 26.0551 120.944 30.3066 98.1103C33.2499 82.3024 39.4987 69.5765 49.0532 59.9323C58.6543 50.0372 70.7411 43.4607 85.3134 40.2028C99.9325 36.694 116.366 36.6383 134.613 40.0358C152.86 43.4333 167.976 49.7527 179.963 58.9942C192.246 68.0312 200.844 79.4975 205.757 93.3931C210.67 107.289 211.468 123.144 208.151 140.959L174.406 134.676C176.041 125.894 175.732 117.139 173.477 108.412C171.27 99.4334 166.532 91.5417 159.264 84.7365C152.247 77.978 142.114 73.3654 128.866 70.8987C117.118 68.7113 106.621 68.8337 97.3748 71.266C88.4254 73.4939 81.0703 77.5764 75.3096 83.5135C69.8456 89.2461 66.3427 96.2526 64.801 104.533C62.7921 115.322 64.6645 125.407 70.4183 134.786C76.4221 144.211 86.931 150.971 101.945 155.064L126.27 161.93C151.799 169.28 171.199 181.07 184.47 197.3C197.788 213.28 202.345 232.561 198.14 255.144C195.244 270.701 188.698 283.631 178.504 293.935C168.356 303.988 155.301 310.903 139.339 314.681C123.423 318.208 105.342 318.087 85.0951 314.317ZM59.8625 360.244L70.094 305.293L102.339 311.297L92.1073 366.248L59.8625 360.244ZM115.126 55.1L125.358 0.149016L157.603 6.15277L147.371 61.1037L115.126 55.1Z" fill="currentColor"/>
</svg>
