<svg width="29" height="28" viewBox="0 0 29 28" fill="none" xmlns="http://www.w3.org/2000/svg">
<path d="M11.5 8.5759V7.14807C11.5 7.02431 11.4029 6.95597 11.3374 7.0317L5.65506 13.5354C5.60678 13.5905 5.56771 13.6609 5.54084 13.7414C5.51397 13.8219 5.5 13.9104 5.5 14C5.5 14.0896 5.51397 14.1781 5.54084 14.2586C5.56771 14.3391 5.60678 14.4095 5.65506 14.4646L11.3374 20.9683C11.4042 21.044 11.5 20.9757 11.5 20.8519V19.4241C11.5 19.3336 11.471 19.2468 11.4231 19.1914L6.88531 14.0009L11.4231 8.80864C11.471 8.75323 11.5 8.66641 11.5 8.5759Z" fill="currentColor"/>
<path d="M23.3449 13.5345L17.6626 7.03154C17.6478 7.01441 17.6299 7.00377 17.6111 7.00083C17.5923 6.99789 17.5734 7.00278 17.5564 7.01493C17.5394 7.02708 17.5251 7.046 17.5151 7.06952C17.5052 7.09304 17.4999 7.12021 17.5 7.1479V8.57556C17.5 8.66605 17.529 8.75286 17.5769 8.80827L22.1147 13.9999L17.5769 19.1916C17.5277 19.247 17.5 19.3338 17.5 19.4243V20.8519C17.5 20.9757 17.5971 21.044 17.6626 20.9683L23.3449 14.4653C23.3932 14.4101 23.4323 14.3395 23.4592 14.2589C23.486 14.1782 23.5 14.0897 23.5 13.9999C23.5 13.9102 23.486 13.8216 23.4592 13.741C23.4323 13.6603 23.3932 13.5897 23.3449 13.5345Z" fill="currentColor"/>
</svg>
