<svg width="25" height="24" viewBox="0 0 25 24" fill="none" xmlns="http://www.w3.org/2000/svg">
<path d="M21.125 7.14844H15.125V4.5C15.125 4.08516 14.7898 3.75 14.375 3.75H4.8125V2.8125C4.8125 2.70937 4.72812 2.625 4.625 2.625H3.3125C3.20937 2.625 3.125 2.70937 3.125 2.8125V21.1875C3.125 21.2906 3.20937 21.375 3.3125 21.375H4.625C4.72812 21.375 4.8125 21.2906 4.8125 21.1875V15H10.625V17.6484C10.625 18.0633 10.9602 18.3984 11.375 18.3984H21.125C21.5398 18.3984 21.875 18.0633 21.875 17.6484V7.89844C21.875 7.48359 21.5398 7.14844 21.125 7.14844Z" fill="currentColor"/>
</svg>
