<svg width="32" height="32" viewBox="0 0 32 32" fill="none" xmlns="http://www.w3.org/2000/svg">
<g clip-path="url(#clip0_594_4199)">
<path d="M25.4679 0.243312C24.2679 0.468312 23.3617 0.743312 21.9929 1.30581L21.2054 1.63081L20.4867 1.41206C15.7929 -0.00668825 10.7804 0.874562 6.81791 3.82456C6.09916 4.36206 4.48041 5.96206 3.95541 6.65581C1.31791 10.1558 0.267909 14.3371 0.974159 18.5308C1.08041 19.1558 1.45541 20.6433 1.58666 20.9683C1.66166 21.1496 1.66166 21.1996 1.54916 21.4433C0.949159 22.7558 0.442909 24.3558 0.236659 25.5308C0.0866586 26.4433 0.0991587 28.0308 0.274159 28.6558C0.724159 30.3058 1.95541 31.3996 3.76791 31.7746C4.38041 31.9058 5.71791 31.9058 6.49916 31.7808C7.66166 31.5933 9.08666 31.1433 10.2992 30.5933L10.8179 30.3558L11.4242 30.5558C11.7554 30.6621 12.4367 30.8371 12.9367 30.9371C16.3429 31.6183 19.7179 31.1871 22.7492 29.6808C27.1929 27.4746 30.1929 23.4496 31.0679 18.5308C31.2554 17.4621 31.3054 15.3433 31.1617 14.1871C31.0429 13.1996 30.8179 12.1683 30.5617 11.3871L30.3742 10.8246L30.5617 10.3996C31.1117 9.18081 31.6617 7.33081 31.8117 6.21206C31.9117 5.46206 31.8617 3.85581 31.7179 3.34331C31.6617 3.13706 31.4992 2.73081 31.3617 2.43706C30.8804 1.43081 29.8617 0.618312 28.6554 0.280812C28.0679 0.112062 26.2742 0.0933118 25.4679 0.243312ZM27.9679 2.03081C29.5429 2.36831 30.2429 3.55581 30.0554 5.58706C29.9929 6.24956 29.7304 7.41831 29.4867 8.13706L29.3429 8.55581L28.9867 7.98081C27.7742 5.99956 25.9617 4.19331 23.9929 2.99956C23.3992 2.64331 23.3617 2.69956 24.4617 2.36831C25.7992 1.96831 27.0867 1.84331 27.9679 2.03081ZM15.1242 5.46831V8.18706H10.6992L10.8179 7.85581C11.0679 7.19332 11.7679 5.82456 12.1742 5.21831C12.6492 4.49956 13.3679 3.72456 13.9117 3.33706C14.2929 3.06831 14.8992 2.74956 15.0492 2.74956C15.1054 2.74956 15.1242 3.33706 15.1242 5.46831ZM17.5054 2.95581C18.5242 3.46831 19.3929 4.37456 20.2304 5.80581C20.5367 6.32456 21.1679 7.66831 21.2804 8.04331L21.3179 8.18706H16.9367V5.46831C16.9367 3.33706 16.9554 2.74956 17.0179 2.74956C17.0554 2.74956 17.2804 2.84331 17.5054 2.95581ZM10.7742 3.97456C10.0992 4.91831 9.38666 6.33081 8.90541 7.69956L8.73041 8.18706H6.91791C5.48041 8.18706 5.11791 8.16831 5.16791 8.10581C6.63666 6.16831 8.48041 4.67456 10.5617 3.74331C10.8554 3.61206 11.0992 3.49956 11.1054 3.49956C11.1117 3.49956 10.9679 3.71206 10.7742 3.97456ZM21.9054 3.96206C23.3054 4.64331 24.5867 5.57456 25.6617 6.69332C26.1617 7.21206 26.8742 8.06831 26.8742 8.14956C26.8742 8.16831 26.0679 8.18081 25.0867 8.17456L23.2992 8.15581L22.9929 7.34331C22.5992 6.29956 21.9867 5.06831 21.4867 4.31206C21.2679 3.98706 21.0742 3.68081 21.0429 3.63706C20.9554 3.50581 21.0617 3.54956 21.9054 3.96206ZM15.1242 15.0621H9.42416L9.46791 14.5121C9.57416 13.0871 9.73666 11.9308 10.0054 10.6371L10.1429 9.99956H15.1242V15.0621ZM28.2117 10.3808L28.3742 10.7621L27.9617 11.5246C27.4367 12.4746 26.8742 13.3871 26.2304 14.3246L25.7304 15.0621H24.4492L24.4179 14.6683C24.2554 12.6683 24.0804 11.3246 23.8367 10.1996L23.7992 9.99956H28.0429L28.2117 10.3808ZM8.08666 10.7996C7.89291 11.7933 7.76791 12.7871 7.67416 14.0246L7.59916 15.0621H2.61791L2.66166 14.7308C2.84916 13.1058 3.21166 11.7558 3.78041 10.5121L3.99291 10.0621H8.23041L8.08666 10.7996ZM21.9554 10.2621C21.9742 10.3746 22.0617 10.8058 22.1492 11.2183C22.3367 12.1371 22.4867 13.3121 22.5492 14.3121L22.5929 15.0621H16.9367V10.0621H21.9179L21.9554 10.2621ZM29.3617 14.5621L29.4117 15.0621H28.0117L28.4867 14.2871C28.7554 13.8621 29.0117 13.4496 29.0617 13.3683C29.1492 13.2246 29.1554 13.2308 29.2304 13.6433C29.2742 13.8746 29.3304 14.2871 29.3617 14.5621ZM7.68041 17.9621C7.74916 19.0371 7.96791 20.7058 8.14291 21.5121L8.23666 21.9371H3.99916L3.85541 21.6371C3.28666 20.5058 2.81791 18.7996 2.66166 17.2621L2.61791 16.8746H7.59916L7.68041 17.9621ZM15.1242 21.9371H10.1367L10.0054 21.3871C9.76791 20.3683 9.56791 18.9371 9.46166 17.4496L9.41791 16.8746H15.1242V21.9371ZM22.5804 17.1996C22.5679 17.3808 22.5242 17.8933 22.4867 18.3371L22.4179 19.1496L19.6679 21.9371H16.9367V16.8746H22.6054L22.5804 17.1996ZM29.4117 17.0746C29.3929 17.1871 29.3617 17.4496 29.3429 17.6558C29.2304 18.6996 28.7992 20.2621 28.3179 21.3621L28.0804 21.9058L25.9367 21.9246L23.7992 21.9371L23.8367 21.7996C23.8554 21.7183 23.9367 21.2808 24.0179 20.8246L24.1554 19.9871L24.8492 19.1871C25.2304 18.7433 25.8054 18.0433 26.1304 17.6308L26.7179 16.8746H29.4429L29.4117 17.0746ZM3.32416 24.4308C3.96166 25.3933 4.47416 26.0183 5.29291 26.8246C6.12416 27.6558 7.01791 28.3683 7.85541 28.8871C8.20541 29.1058 8.47416 29.2996 8.44916 29.3246C8.42416 29.3496 8.08041 29.4621 7.68041 29.5871C4.85541 30.4371 2.93666 30.1058 2.26791 28.6433C1.83041 27.6933 1.86166 26.2808 2.34916 24.5746C2.43666 24.2746 2.54916 23.9058 2.60541 23.7558C2.69916 23.5121 2.71791 23.4933 2.77416 23.5933C2.81166 23.6558 3.06166 24.0371 3.32416 24.4308ZM8.90541 24.2621C9.30541 25.4308 9.99916 26.8558 10.6304 27.7996C10.9929 28.3308 10.9429 28.4183 10.4179 28.1808C9.03666 27.5558 7.65541 26.5871 6.52416 25.4558C6.01166 24.9433 5.12416 23.8933 5.12416 23.7996C5.12416 23.7683 5.93666 23.7496 6.92416 23.7496H8.73041L8.90541 24.2621ZM15.1242 25.6746L14.2992 26.2371C13.3742 26.8558 12.6492 27.3121 12.5742 27.3121C12.3929 27.3121 11.1679 25.0808 10.8179 24.1058L10.6867 23.7496H15.1242V25.6746ZM17.3117 23.9996C17.1554 24.1308 17.0117 24.2433 16.9867 24.2496C16.9554 24.2496 16.9367 24.1371 16.9367 23.9996V23.7496H17.5929L17.3117 23.9996ZM21.2492 24.0433C20.2804 26.5683 18.9179 28.3808 17.4679 29.0683C17.2617 29.1683 17.0554 29.2496 17.0179 29.2496C16.9554 29.2496 16.9367 28.9433 16.9367 27.9433V26.6308L17.2054 26.4246C18.2304 25.6121 19.0679 24.9183 19.6867 24.3808L20.4054 23.7496H21.3617L21.2492 24.0433ZM26.8429 23.9183C26.1867 24.9371 24.4179 26.5746 23.0554 27.4183C22.6429 27.6808 21.6054 28.2121 21.1617 28.3996L20.9242 28.4996L21.0242 28.3558C21.7804 27.3246 22.4867 26.0058 22.9992 24.6371L23.3367 23.7496H26.9492L26.8429 23.9183ZM15.0992 29.2371C15.0492 29.2871 14.5492 29.0808 14.2179 28.8683L13.9242 28.6808L14.5054 28.3121L15.0929 27.9371L15.1117 28.5746C15.1179 28.9183 15.1117 29.2183 15.0992 29.2371Z" fill="currentColor"/>
</g>
<defs>
<clipPath id="clip0_594_4199">
<rect width="32" height="32" fill="currentColor"/>
</clipPath>
</defs>
</svg>
