<svg width="32" height="32" viewBox="0 0 32 32" fill="none" xmlns="http://www.w3.org/2000/svg">
<path d="M28.7959 4.10042L16.5477 0.0730355C16.3999 0.0243451 16.2016 0 16.0034 0C15.8051 0 15.6069 0.0243451 15.4591 0.0730355L3.21079 4.10042C2.91161 4.1978 2.6665 4.53168 2.6665 4.83774V21.615C2.6665 21.9211 2.87196 22.3245 3.12068 22.5158L15.5456 31.8574C15.6717 31.9513 15.8339 32 15.9998 32C16.1656 32 16.3314 31.9513 16.4539 31.8574L28.8788 22.5158C29.1276 22.328 29.333 21.9246 29.333 21.615V4.83774C29.3402 4.53168 29.0951 4.20128 28.7959 4.10042ZM26.7449 20.9473L16.0034 29.0229L5.26178 20.9473V6.07586L16.0034 2.54233L26.7449 6.07586V20.9473Z" fill="currentColor"/>
<path fill-rule="evenodd" clip-rule="evenodd" d="M12 7.9C12 7.40294 12.4029 7 12.9 7H19.4C19.8971 7 20.3 7.40294 20.3 7.9V12.5H21.4C21.8971 12.5 22.3 12.9029 22.3 13.4V19.4C22.3 19.8971 21.8971 20.3 21.4 20.3H10.9C10.4029 20.3 10 19.8971 10 19.4V13.4C10 12.9029 10.4029 12.5 10.9 12.5H12V7.9ZM13.8 12.5H18.5V8.8H13.8V12.5ZM11.8 14.3V18.5H20.5V14.3H11.8Z" fill="currentColor"/>
</svg>
