<svg width="180" height="38" viewBox="0 0 180 38" fill="none" xmlns="http://www.w3.org/2000/svg">
<path d="M2.35619 10.0736C4.94768 5.52658 9.3491 4.76874 11.2259 4.9582C12.4599 5.47245 15.3753 6.79324 17.1647 7.96247C19.4014 9.42401 21.4067 15.1078 21.561 18.8428C21.7152 22.5779 20.7897 26.3941 18.0131 30.6975C15.2365 35.0009 10.4546 36.2189 7.98651 36.9497C5.51842 37.6804 3.3591 35.7095 3.59023 33.9454C3.89874 31.5907 4.51576 29.3172 4.51576 27.4497C4.51576 25.9556 3.07605 23.038 2.35619 21.7659C1.2764 19.763 -0.235301 14.6206 2.35619 10.0736Z" fill="#F5F5F5"/>
<path fill-rule="evenodd" clip-rule="evenodd" d="M1.69484 9.65585C4.48035 4.76842 9.21533 3.93956 11.2995 4.14996L11.4082 4.16093L11.5098 4.20325C12.7506 4.72033 15.7201 6.0629 17.5715 7.27261C18.2632 7.72462 18.881 8.46045 19.4151 9.30324C19.9558 10.1563 20.4438 11.1718 20.8582 12.2441C21.6838 14.3804 22.2498 16.8274 22.3315 18.8076C22.4937 22.7342 21.5115 26.7206 18.6511 31.1538C15.8457 35.5018 11.1352 36.8742 8.59661 37.6138C8.45596 37.6548 8.32197 37.6938 8.19535 37.7313C6.72075 38.1679 5.32289 37.799 4.32515 37.0418C3.35227 36.3034 2.66002 35.1028 2.82621 33.8344C2.94437 32.9326 3.10806 32.0346 3.26196 31.1903C3.31318 30.9093 3.36331 30.6342 3.41032 30.367C3.60278 29.2729 3.7445 28.3021 3.7445 27.4497C3.7445 27.1945 3.67965 26.8215 3.542 26.3476C3.40754 25.8845 3.21753 25.3715 3.00012 24.8519C2.56507 23.8122 2.04046 22.7944 1.6936 22.1815L1.68944 22.1741L1.68544 22.1667C0.536427 20.0355 -1.09886 14.5577 1.69484 9.65585ZM11.0472 5.75725C9.31768 5.62743 5.36615 6.37056 3.01757 10.4914C0.631319 14.6783 2.01289 19.4785 3.02313 21.358C3.39609 22.0178 3.94878 23.0908 4.41176 24.1972C4.64427 24.7528 4.85918 25.3288 5.01715 25.8728C5.17195 26.4058 5.28706 26.9578 5.28706 27.4497C5.28706 28.4648 5.12027 29.5645 4.92709 30.6627C4.87625 30.9517 4.82361 31.2405 4.7709 31.5298C4.61898 32.3634 4.46641 33.2006 4.35429 34.0563C4.28935 34.552 4.56119 35.219 5.22721 35.7244C5.86838 36.211 6.78422 36.4622 7.77771 36.168C7.89064 36.1346 8.00749 36.1003 8.12791 36.065C10.6991 35.311 14.8987 34.0794 17.3751 30.2413C20.068 26.0676 20.9368 22.4215 20.7904 18.8781C20.718 17.1232 20.2041 14.8608 19.4294 12.8561C19.0436 11.8579 18.6012 10.945 18.132 10.2045C17.6562 9.45385 17.1846 8.93113 16.758 8.65237C15.0782 7.55474 12.3261 6.29608 11.0472 5.75725Z" fill="#0D0F10"/>
<path d="M17.0109 14.7015C13.4939 12.8827 12.4089 6.82541 12.846 4.47071C15.6226 2.68439 21.8699 5.20148 24.0295 7.1502C27.346 10.1429 27.4745 14.7285 28.1173 17.5434C25.5206 17.0562 20.5279 16.5203 17.0109 14.7015Z" fill="#FDB602"/>
<path fill-rule="evenodd" clip-rule="evenodd" d="M18.879 3.62852C21.126 4.2984 23.3402 5.45901 24.5312 6.53366C26.3418 8.16753 27.2638 10.2235 27.8153 12.1827C28.0905 13.1604 28.2762 14.1244 28.4318 15.0042C28.4697 15.2187 28.5055 15.4264 28.5403 15.6275C28.6506 16.2666 28.7494 16.839 28.8669 17.3535C28.9277 17.6199 28.8568 17.9007 28.6784 18.1001C28.4999 18.2995 28.2379 18.3908 27.9817 18.3427C27.5394 18.2597 26.9974 18.171 26.3911 18.0717C25.3158 17.8957 24.0386 17.6867 22.7582 17.418C20.7245 16.9913 18.5193 16.3863 16.6705 15.4302C14.6434 14.3819 13.3989 12.1698 12.715 10.0479C12.0305 7.92417 11.8368 5.67244 12.0887 4.31495C12.1302 4.09146 12.259 3.89657 12.4435 3.77783C13.3098 3.22049 14.385 3.03342 15.4719 3.04981C16.568 3.06633 17.7459 3.29073 18.879 3.62852ZM13.627 7.08419C13.7275 7.8481 13.9055 8.68766 14.1758 9.52611C14.8043 11.4762 15.8607 13.2021 17.3507 13.9726C19.0189 14.8354 21.0686 15.4077 23.0597 15.8254C24.3265 16.0912 25.5061 16.2836 26.5473 16.4534C26.7477 16.486 26.9429 16.5179 27.1327 16.5492C27.0937 16.331 27.0554 16.1086 27.0167 15.8845C26.9833 15.6909 26.9497 15.496 26.9152 15.3013C26.7623 14.436 26.5881 13.5388 26.3363 12.6441C25.8337 10.8587 25.0331 9.12544 23.5273 7.76664C22.5586 6.89257 20.5694 5.82028 18.4587 5.19101C17.4129 4.87923 16.3734 4.6875 15.4498 4.67357C14.9203 4.66559 14.4508 4.7163 14.0482 4.82304C14.2285 5.09604 14.4079 5.37809 14.5914 5.66636C16.2038 8.20033 18.1221 11.2149 23.5394 12.7817C23.9501 12.9005 24.1916 13.3474 24.0788 13.7798C23.9659 14.2122 23.5415 14.4664 23.1308 14.3476C17.5728 12.7402 15.228 9.57683 13.627 7.08419Z" fill="#0D0F10"/>
<path d="M11.0719 0.817073C9.2208 0.687158 9.68357 3.09058 10.1463 4.30853H12.4602C12.7687 3.19884 12.9229 0.946987 11.0719 0.817073Z" fill="#F5F5F5"/>
<path fill-rule="evenodd" clip-rule="evenodd" d="M10.6951 3.49641H11.8385C11.8891 3.12181 11.8972 2.71584 11.8238 2.37437C11.769 2.11917 11.6795 1.94969 11.5756 1.84336C11.4822 1.74776 11.325 1.64844 11.0208 1.62709C10.7234 1.60622 10.6477 1.6881 10.6338 1.70316C10.6336 1.70333 10.6335 1.70349 10.6333 1.70364C10.5981 1.74156 10.5315 1.8538 10.5103 2.12407C10.479 2.5227 10.5648 3.03241 10.6951 3.49641ZM9.52964 0.569117C9.93629 0.130679 10.4985 -0.0371045 11.1234 0.00675168C11.7447 0.0503586 12.2623 0.281234 12.651 0.679074C13.0292 1.06619 13.2289 1.55338 13.3283 2.01609C13.5223 2.91888 13.3749 3.90945 13.2006 4.53645L13.0383 5.12034H9.62437L9.43044 4.60993C9.18122 3.95402 8.90072 2.9107 8.97298 1.99032C9.00961 1.52373 9.14543 0.983356 9.52964 0.569117ZM17.8398 24.2328C18.2494 24.356 18.4866 24.8054 18.3695 25.2366C18.1991 25.8644 17.8372 26.8639 17.2916 27.8968C16.7486 28.9249 15.9947 30.0418 15.0193 30.8485C13.232 32.3269 11.252 33.4201 10.462 33.7929C10.0734 33.9763 9.617 33.7933 9.44276 33.3841C9.26851 32.9749 9.44236 32.4945 9.83106 32.311C10.5323 31.9801 12.3983 30.9514 14.0663 29.5716C14.8186 28.9493 15.453 28.0363 15.9435 27.1076C16.4315 26.1836 16.7482 25.2993 16.8863 24.7904C17.0034 24.3593 17.4302 24.1096 17.8398 24.2328Z" fill="#0D0F10"/>
<g clip-path="url(#clip0_2011_2209)">
<path d="M37.7706 5.81818H40.8182L43.4034 12.1222H43.5227L46.108 5.81818H49.1555V16H46.7592V9.74574H46.6747L44.2287 15.9354H42.6974L40.2514 9.71094H40.1669V16H37.7706V5.81818ZM52.8929 16H50.248L53.6834 5.81818H56.9597L60.3951 16H57.7502L55.3588 8.38352H55.2793L52.8929 16ZM52.54 11.9929H58.0684V13.8622H52.54V11.9929ZM70.1568 5.81818V16H68.0687L64.0169 10.1236H63.9522V16H61.4913V5.81818H63.6092L67.6163 11.6847H67.7008V5.81818H70.1568ZM78.386 9.14418C78.3297 8.93537 78.2468 8.75142 78.1374 8.59233C78.0281 8.42992 77.8938 8.29238 77.7347 8.17969C77.5756 8.067 77.3933 7.98248 77.1879 7.92614C76.9824 7.86648 76.757 7.83665 76.5117 7.83665C76.0179 7.83665 75.5903 7.95597 75.229 8.1946C74.8711 8.43324 74.5943 8.78125 74.3988 9.23864C74.2032 9.69271 74.1055 10.2446 74.1055 10.8942C74.1055 11.5471 74.1999 12.1039 74.3888 12.5646C74.5778 13.0253 74.8512 13.3767 75.2092 13.6186C75.5671 13.8606 76.0013 13.9815 76.5117 13.9815C76.9625 13.9815 77.3436 13.9086 77.6552 13.7628C77.9701 13.6136 78.2087 13.4032 78.3711 13.1314C78.5335 12.8596 78.6147 12.5398 78.6147 12.1719L79.0721 12.2266H76.5962V10.4318H80.9862V11.7791C80.9862 12.6906 80.7923 13.4711 80.4045 14.1207C80.02 14.7704 79.4897 15.2692 78.8136 15.6172C78.1407 15.9652 77.3668 16.1392 76.4918 16.1392C75.5207 16.1392 74.6673 15.9287 73.9315 15.5078C73.1957 15.0869 72.6223 14.487 72.2113 13.7081C71.8003 12.9259 71.5948 11.9979 71.5948 10.924C71.5948 10.0888 71.7191 9.34801 71.9677 8.7017C72.2163 8.05208 72.5626 7.50189 73.0067 7.05114C73.4542 6.60038 73.9712 6.259 74.5579 6.02699C75.1478 5.79498 75.7826 5.67898 76.462 5.67898C77.052 5.67898 77.6005 5.76349 78.1076 5.93253C78.618 6.10156 79.0688 6.3402 79.4599 6.64844C79.8543 6.95668 80.1741 7.32292 80.4194 7.74716C80.6647 8.1714 80.8171 8.63707 80.8768 9.14418H78.386ZM92.0467 10.9091C92.0467 12.0294 91.8313 12.9789 91.4004 13.7578C90.9695 14.5367 90.3862 15.1283 89.6504 15.5327C88.9179 15.937 88.0959 16.1392 87.1845 16.1392C86.2697 16.1392 85.4461 15.9354 84.7136 15.5277C83.9811 15.12 83.3994 14.5284 82.9686 13.7528C82.541 12.974 82.3272 12.026 82.3272 10.9091C82.3272 9.78883 82.541 8.83925 82.9686 8.06037C83.3994 7.28149 83.9811 6.68987 84.7136 6.28551C85.4461 5.88115 86.2697 5.67898 87.1845 5.67898C88.0959 5.67898 88.9179 5.88115 89.6504 6.28551C90.3862 6.68987 90.9695 7.28149 91.4004 8.06037C91.8313 8.83925 92.0467 9.78883 92.0467 10.9091ZM89.5311 10.9091C89.5311 10.2462 89.4366 9.68608 89.2477 9.22869C89.0621 8.77131 88.7936 8.42495 88.4423 8.18963C88.0943 7.95431 87.675 7.83665 87.1845 7.83665C86.6973 7.83665 86.278 7.95431 85.9267 8.18963C85.5753 8.42495 85.3052 8.77131 85.1163 9.22869C84.9307 9.68608 84.8379 10.2462 84.8379 10.9091C84.8379 11.572 84.9307 12.1321 85.1163 12.5895C85.3052 13.0469 85.5753 13.3932 85.9267 13.6286C86.278 13.8639 86.6973 13.9815 87.1845 13.9815C87.675 13.9815 88.0943 13.8639 88.4423 13.6286C88.7936 13.3932 89.0621 13.0469 89.2477 12.5895C89.4366 12.1321 89.5311 11.572 89.5311 10.9091ZM96.4913 16V5.81818H100.697C101.46 5.81818 102.117 5.96733 102.671 6.26562C103.228 6.56061 103.657 6.97325 103.959 7.50355C104.26 8.03054 104.411 8.6437 104.411 9.34304C104.411 10.0457 104.257 10.6605 103.949 11.1875C103.644 11.7112 103.208 12.1172 102.641 12.4055C102.074 12.6939 101.402 12.8381 100.623 12.8381H98.0275V10.8991H100.165C100.537 10.8991 100.846 10.8345 101.095 10.7053C101.347 10.576 101.537 10.3954 101.667 10.1634C101.796 9.92803 101.861 9.65459 101.861 9.34304C101.861 9.02817 101.796 8.75639 101.667 8.5277C101.537 8.29569 101.347 8.11671 101.095 7.99077C100.843 7.86482 100.533 7.80185 100.165 7.80185H98.9522V16H96.4913ZM105.624 16V5.81818H109.83C110.592 5.81818 111.25 5.95573 111.804 6.23082C112.361 6.5026 112.79 6.8937 113.091 7.40412C113.393 7.91122 113.544 8.51278 113.544 9.20881C113.544 9.91477 113.39 10.5147 113.081 11.0085C112.773 11.4991 112.336 11.8736 111.769 12.1321C111.202 12.3873 110.531 12.5149 109.756 12.5149H107.096V10.576H109.298C109.669 10.576 109.979 10.5279 110.228 10.4318C110.48 10.3324 110.67 10.1832 110.8 9.98438C110.929 9.7822 110.993 9.52367 110.993 9.20881C110.993 8.89394 110.929 8.63376 110.8 8.42827C110.67 8.21946 110.48 8.06368 110.228 7.96094C109.976 7.85488 109.666 7.80185 109.298 7.80185H108.085V16H105.624ZM111.356 11.3466L113.892 16H111.207L108.721 11.3466H111.356ZM124.504 10.9091C124.504 12.0294 124.288 12.9789 123.857 13.7578C123.427 14.5367 122.843 15.1283 122.107 15.5327C121.375 15.937 120.553 16.1392 119.642 16.1392C118.727 16.1392 117.903 15.9354 117.171 15.5277C116.438 15.12 115.856 14.5284 115.426 13.7528C114.998 12.974 114.784 12.026 114.784 10.9091C114.784 9.78883 114.998 8.83925 115.426 8.06037C115.856 7.28149 116.438 6.68987 117.171 6.28551C117.903 5.88115 118.727 5.67898 119.642 5.67898C120.553 5.67898 121.375 5.88115 122.107 6.28551C122.843 6.68987 123.427 7.28149 123.857 8.06037C124.288 8.83925 124.504 9.78883 124.504 10.9091ZM121.988 10.9091C121.988 10.2462 121.894 9.68608 121.705 9.22869C121.519 8.77131 121.251 8.42495 120.899 8.18963C120.551 7.95431 120.132 7.83665 119.642 7.83665C119.154 7.83665 118.735 7.95431 118.384 8.18963C118.032 8.42495 117.762 8.77131 117.573 9.22869C117.388 9.68608 117.295 10.2462 117.295 10.9091C117.295 11.572 117.388 12.1321 117.573 12.5895C117.762 13.0469 118.032 13.3932 118.384 13.6286C118.735 13.8639 119.154 13.9815 119.642 13.9815C120.132 13.9815 120.551 13.8639 120.899 13.6286C121.251 13.3932 121.519 13.0469 121.705 12.5895C121.894 12.1321 121.988 11.572 121.988 10.9091ZM127.857 5.81818L129.716 9.0348H129.796L131.675 5.81818H134.43L131.357 10.9091L134.529 16H131.705L129.796 12.7486H129.716L127.807 16H125.003L128.16 10.9091L125.083 5.81818H127.857ZM135.195 5.81818H137.944L140.097 10.0788H140.187L142.339 5.81818H145.089L141.365 12.5994V16H138.919V12.5994L135.195 5.81818Z" fill="currentColor"/>
<path d="M38.233 33V22.8182H41.6733C42.4721 22.8182 43.125 22.9624 43.6321 23.2507C44.1425 23.5357 44.5204 23.9219 44.7656 24.4091C45.0109 24.8963 45.1335 25.4399 45.1335 26.0398C45.1335 26.6397 45.0109 27.1849 44.7656 27.6754C44.5237 28.166 44.1491 28.5571 43.642 28.8487C43.1349 29.1371 42.4853 29.2812 41.6932 29.2812H39.2273V28.1875H41.6534C42.2003 28.1875 42.6394 28.093 42.9709 27.9041C43.3023 27.7152 43.5426 27.46 43.6918 27.1385C43.8442 26.8137 43.9205 26.4474 43.9205 26.0398C43.9205 25.6321 43.8442 25.2675 43.6918 24.946C43.5426 24.6245 43.3007 24.3726 42.9659 24.1903C42.6312 24.0047 42.187 23.9119 41.6335 23.9119H39.4659V33H38.233ZM46.9606 33V25.3636H48.0941V26.517H48.1737C48.3129 26.1392 48.5647 25.8326 48.9293 25.5973C49.2939 25.362 49.7049 25.2443 50.1623 25.2443C50.2485 25.2443 50.3562 25.246 50.4854 25.2493C50.6147 25.2526 50.7125 25.2576 50.7788 25.2642V26.4574C50.739 26.4474 50.6478 26.4325 50.5053 26.4126C50.3661 26.3894 50.2186 26.3778 50.0629 26.3778C49.6916 26.3778 49.3602 26.4557 49.0685 26.6115C48.7802 26.764 48.5515 26.9761 48.3825 27.2479C48.2167 27.5163 48.1339 27.8229 48.1339 28.1676V33H46.9606ZM52.1696 33V25.3636H53.3429V33H52.1696ZM52.7662 24.0909C52.5375 24.0909 52.3403 24.013 52.1745 23.8572C52.0121 23.7015 51.9309 23.5142 51.9309 23.2955C51.9309 23.0767 52.0121 22.8894 52.1745 22.7337C52.3403 22.5779 52.5375 22.5 52.7662 22.5C52.9949 22.5 53.1904 22.5779 53.3528 22.7337C53.5185 22.8894 53.6014 23.0767 53.6014 23.2955C53.6014 23.5142 53.5185 23.7015 53.3528 23.8572C53.1904 24.013 52.9949 24.0909 52.7662 24.0909ZM61.7362 25.3636L58.9123 33H57.7191L54.8952 25.3636H56.168L58.2759 31.4489H58.3555L60.4634 25.3636H61.7362ZM65.2995 33.179C64.8156 33.179 64.3765 33.0878 63.9821 32.9055C63.5877 32.7199 63.2744 32.4531 63.0424 32.1051C62.8104 31.7538 62.6944 31.3295 62.6944 30.8324C62.6944 30.3949 62.7806 30.0402 62.9529 29.7685C63.1253 29.4934 63.3556 29.2779 63.644 29.1222C63.9324 28.9664 64.2505 28.8504 64.5985 28.7741C64.9499 28.6946 65.3029 28.6316 65.6575 28.5852C66.1215 28.5256 66.4977 28.4808 66.786 28.451C67.0777 28.4179 67.2898 28.3632 67.4224 28.2869C67.5583 28.2107 67.6262 28.0781 67.6262 27.8892V27.8494C67.6262 27.3589 67.492 26.9777 67.2235 26.706C66.9584 26.4342 66.5557 26.2983 66.0154 26.2983C65.4553 26.2983 65.0162 26.4209 64.698 26.6662C64.3798 26.9115 64.1561 27.1733 64.0268 27.4517L62.9132 27.054C63.112 26.59 63.3772 26.2287 63.7086 25.9702C64.0434 25.7083 64.408 25.526 64.8024 25.4233C65.2001 25.3172 65.5912 25.2642 65.9757 25.2642C66.2209 25.2642 66.5027 25.294 66.8208 25.3537C67.1423 25.41 67.4522 25.5277 67.7505 25.7067C68.0521 25.8857 68.3024 26.1558 68.5012 26.517C68.7001 26.8783 68.7995 27.3622 68.7995 27.9688V33H67.6262V31.9659H67.5666C67.487 32.1316 67.3545 32.3089 67.1689 32.4979C66.9833 32.6868 66.7363 32.8475 66.4281 32.9801C66.1199 33.1127 65.7437 33.179 65.2995 33.179ZM65.4785 32.125C65.9425 32.125 66.3336 32.0339 66.6518 31.8516C66.9733 31.6693 67.2153 31.4339 67.3777 31.1456C67.5434 30.8572 67.6262 30.554 67.6262 30.2358V29.1619C67.5765 29.2216 67.4672 29.2763 67.2981 29.326C67.1324 29.3724 66.9402 29.4138 66.7214 29.4503C66.506 29.4834 66.2955 29.5133 66.09 29.5398C65.8878 29.563 65.7238 29.5829 65.5978 29.5994C65.2929 29.6392 65.0079 29.7038 64.7427 29.7933C64.4809 29.8795 64.2688 30.0104 64.1064 30.1861C63.9473 30.3584 63.8677 30.5937 63.8677 30.892C63.8677 31.2997 64.0185 31.608 64.3201 31.8168C64.6251 32.0223 65.0112 32.125 65.4785 32.125ZM74.2621 25.3636V26.358H70.3047V25.3636H74.2621ZM71.4581 23.5341H72.6314V30.8125C72.6314 31.1439 72.6795 31.3925 72.7756 31.5582C72.875 31.7206 73.0009 31.83 73.1534 31.8864C73.3092 31.9394 73.4732 31.9659 73.6456 31.9659C73.7749 31.9659 73.8809 31.9593 73.9638 31.946C74.0466 31.9295 74.1129 31.9162 74.1626 31.9062L74.4013 32.9602C74.3217 32.9901 74.2107 33.0199 74.0682 33.0497C73.9257 33.0829 73.745 33.0994 73.5263 33.0994C73.1948 33.0994 72.87 33.0282 72.5518 32.8857C72.237 32.7431 71.9751 32.526 71.7663 32.2344C71.5608 31.9427 71.4581 31.5748 71.4581 31.1307V23.5341ZM79.1467 33.1591C78.4109 33.1591 77.7762 32.9967 77.2425 32.6719C76.7122 32.3438 76.3029 31.8864 76.0146 31.2997C75.7295 30.7098 75.587 30.0237 75.587 29.2415C75.587 28.4593 75.7295 27.7699 76.0146 27.1733C76.3029 26.5734 76.704 26.1061 77.2177 25.7713C77.7347 25.4332 78.3379 25.2642 79.0273 25.2642C79.4251 25.2642 79.8178 25.3305 80.2056 25.4631C80.5934 25.5956 80.9464 25.8111 81.2646 26.1094C81.5827 26.4044 81.8363 26.7955 82.0252 27.2827C82.2141 27.7699 82.3086 28.3698 82.3086 29.0824V29.5795H76.4222V28.5653H81.1154C81.1154 28.1345 81.0292 27.75 80.8569 27.4119C80.6879 27.0739 80.4459 26.8071 80.131 26.6115C79.8195 26.416 79.4516 26.3182 79.0273 26.3182C78.56 26.3182 78.1557 26.4342 77.8143 26.6662C77.4762 26.8949 77.216 27.1932 77.0337 27.5611C76.8514 27.929 76.7603 28.3234 76.7603 28.7443V29.4205C76.7603 29.9972 76.8597 30.486 77.0586 30.8871C77.2608 31.2848 77.5408 31.5881 77.8988 31.7969C78.2567 32.0024 78.6727 32.1051 79.1467 32.1051C79.4549 32.1051 79.7333 32.062 79.9819 31.9759C80.2338 31.8864 80.4509 31.7538 80.6332 31.5781C80.8155 31.3991 80.9563 31.1771 81.0558 30.9119L82.1893 31.2301C82.07 31.6146 81.8694 31.9527 81.5877 32.2443C81.306 32.5327 80.958 32.758 80.5437 32.9205C80.1294 33.0795 79.6637 33.1591 79.1467 33.1591ZM88.0309 35.8636V25.3636H89.1644V26.5767H89.3036C89.3898 26.4441 89.5091 26.2751 89.6616 26.0696C89.8174 25.8608 90.0394 25.6752 90.3278 25.5128C90.6194 25.3471 91.0138 25.2642 91.511 25.2642C92.154 25.2642 92.7208 25.425 93.2113 25.7464C93.7018 26.0679 94.0846 26.5237 94.3597 27.1136C94.6348 27.7036 94.7724 28.3996 94.7724 29.2017C94.7724 30.0104 94.6348 30.7114 94.3597 31.3047C94.0846 31.8946 93.7035 32.352 93.2163 32.6768C92.729 32.9983 92.1673 33.1591 91.5309 33.1591C91.0404 33.1591 90.6476 33.0779 90.3526 32.9155C90.0576 32.7498 89.8306 32.5625 89.6715 32.3537C89.5124 32.1416 89.3898 31.9659 89.3036 31.8267H89.2042V35.8636H88.0309ZM89.1843 29.1818C89.1843 29.7585 89.2688 30.2673 89.4379 30.7081C89.6069 31.1456 89.8538 31.4886 90.1786 31.7372C90.5034 31.9825 90.9012 32.1051 91.3718 32.1051C91.8623 32.1051 92.2717 31.9759 92.5998 31.7173C92.9312 31.4555 93.1798 31.1042 93.3455 30.6634C93.5146 30.2192 93.5991 29.7254 93.5991 29.1818C93.5991 28.6449 93.5162 28.161 93.3505 27.7301C93.1881 27.2959 92.9412 26.9529 92.6097 26.701C92.2816 26.4458 91.869 26.3182 91.3718 26.3182C90.8945 26.3182 90.4935 26.4392 90.1687 26.6811C89.8439 26.9197 89.5986 27.2545 89.4329 27.6854C89.2672 28.1129 89.1843 28.6117 89.1843 29.1818ZM96.5621 33V25.3636H97.6957V26.517H97.7752C97.9144 26.1392 98.1663 25.8326 98.5309 25.5973C98.8955 25.362 99.3065 25.2443 99.7638 25.2443C99.85 25.2443 99.9577 25.246 100.087 25.2493C100.216 25.2526 100.314 25.2576 100.38 25.2642V26.4574C100.341 26.4474 100.249 26.4325 100.107 26.4126C99.9677 26.3894 99.8202 26.3778 99.6644 26.3778C99.2932 26.3778 98.9618 26.4557 98.6701 26.6115C98.3817 26.764 98.1531 26.9761 97.984 27.2479C97.8183 27.5163 97.7354 27.8229 97.7354 28.1676V33H96.5621ZM104.641 33.1591C103.952 33.1591 103.347 32.995 102.826 32.6669C102.309 32.3388 101.905 31.8797 101.613 31.2898C101.325 30.6998 101.181 30.0104 101.181 29.2216C101.181 28.4261 101.325 27.7318 101.613 27.1385C101.905 26.5452 102.309 26.0845 102.826 25.7564C103.347 25.4283 103.952 25.2642 104.641 25.2642C105.33 25.2642 105.934 25.4283 106.451 25.7564C106.971 26.0845 107.375 26.5452 107.664 27.1385C107.955 27.7318 108.101 28.4261 108.101 29.2216C108.101 30.0104 107.955 30.6998 107.664 31.2898C107.375 31.8797 106.971 32.3388 106.451 32.6669C105.934 32.995 105.33 33.1591 104.641 33.1591ZM104.641 32.1051C105.165 32.1051 105.596 31.9709 105.934 31.7024C106.272 31.4339 106.522 31.081 106.684 30.6435C106.847 30.206 106.928 29.732 106.928 29.2216C106.928 28.7112 106.847 28.2356 106.684 27.7947C106.522 27.3539 106.272 26.9976 105.934 26.7259C105.596 26.4541 105.165 26.3182 104.641 26.3182C104.117 26.3182 103.686 26.4541 103.348 26.7259C103.01 26.9976 102.76 27.3539 102.598 27.7947C102.435 28.2356 102.354 28.7112 102.354 29.2216C102.354 29.732 102.435 30.206 102.598 30.6435C102.76 31.081 103.01 31.4339 103.348 31.7024C103.686 31.9709 104.117 32.1051 104.641 32.1051ZM110.453 25.3636L112.282 28.4858L114.112 25.3636H115.464L112.998 29.1818L115.464 33H114.112L112.282 30.0369L110.453 33H109.1L111.527 29.1818L109.1 25.3636H110.453ZM117.894 35.8636C117.695 35.8636 117.518 35.8471 117.362 35.8139C117.206 35.7841 117.099 35.7543 117.039 35.7244L117.337 34.6903C117.622 34.7633 117.874 34.7898 118.093 34.7699C118.312 34.75 118.506 34.6522 118.675 34.4766C118.847 34.3042 119.004 34.0241 119.147 33.6364L119.366 33.0398L116.542 25.3636H117.814L119.922 31.4489H120.002L122.11 25.3636H123.383L120.141 34.1136C119.995 34.508 119.815 34.8345 119.599 35.093C119.384 35.3549 119.134 35.5488 118.849 35.6747C118.567 35.8007 118.249 35.8636 117.894 35.8636ZM134.278 27.0739L133.224 27.3722C133.158 27.1965 133.06 27.0258 132.931 26.8601C132.805 26.6911 132.632 26.5518 132.414 26.4425C132.195 26.3331 131.915 26.2784 131.573 26.2784C131.106 26.2784 130.717 26.3861 130.405 26.6016C130.097 26.8137 129.943 27.0838 129.943 27.4119C129.943 27.7036 130.049 27.9339 130.261 28.103C130.473 28.272 130.804 28.4129 131.255 28.5256L132.389 28.804C133.071 28.9697 133.58 29.2232 133.915 29.5646C134.25 29.9027 134.417 30.3385 134.417 30.8722C134.417 31.3097 134.291 31.7008 134.039 32.0455C133.791 32.3902 133.443 32.6619 132.995 32.8608C132.548 33.0597 132.027 33.1591 131.434 33.1591C130.655 33.1591 130.011 32.9901 129.5 32.652C128.99 32.3139 128.667 31.8201 128.531 31.1705L129.644 30.892C129.75 31.303 129.951 31.6113 130.246 31.8168C130.544 32.0223 130.934 32.125 131.414 32.125C131.961 32.125 132.395 32.009 132.717 31.777C133.042 31.5417 133.204 31.2599 133.204 30.9318C133.204 30.6667 133.111 30.4446 132.926 30.2656C132.74 30.0833 132.455 29.9474 132.07 29.858L130.798 29.5597C130.098 29.3939 129.585 29.1371 129.257 28.7891C128.932 28.4377 128.769 27.9986 128.769 27.4716C128.769 27.0407 128.89 26.6596 129.132 26.3281C129.378 25.9967 129.711 25.7365 130.132 25.5476C130.556 25.3587 131.036 25.2642 131.573 25.2642C132.329 25.2642 132.922 25.4299 133.353 25.7614C133.787 26.0928 134.096 26.5303 134.278 27.0739ZM139.286 33.1591C138.596 33.1591 137.991 32.995 137.471 32.6669C136.954 32.3388 136.549 31.8797 136.258 31.2898C135.969 30.6998 135.825 30.0104 135.825 29.2216C135.825 28.4261 135.969 27.7318 136.258 27.1385C136.549 26.5452 136.954 26.0845 137.471 25.7564C137.991 25.4283 138.596 25.2642 139.286 25.2642C139.975 25.2642 140.578 25.4283 141.095 25.7564C141.616 26.0845 142.02 26.5452 142.308 27.1385C142.6 27.7318 142.746 28.4261 142.746 29.2216C142.746 30.0104 142.6 30.6998 142.308 31.2898C142.02 31.8797 141.616 32.3388 141.095 32.6669C140.578 32.995 139.975 33.1591 139.286 33.1591ZM139.286 32.1051C139.809 32.1051 140.24 31.9709 140.578 31.7024C140.916 31.4339 141.166 31.081 141.329 30.6435C141.491 30.206 141.572 29.732 141.572 29.2216C141.572 28.7112 141.491 28.2356 141.329 27.7947C141.166 27.3539 140.916 26.9976 140.578 26.7259C140.24 26.4541 139.809 26.3182 139.286 26.3182C138.762 26.3182 138.331 26.4541 137.993 26.7259C137.655 26.9976 137.405 27.3539 137.242 27.7947C137.08 28.2356 136.999 28.7112 136.999 29.2216C136.999 29.732 137.08 30.206 137.242 30.6435C137.405 31.081 137.655 31.4339 137.993 31.7024C138.331 31.9709 138.762 32.1051 139.286 32.1051ZM145.71 22.8182V33H144.537V22.8182H145.71ZM152.672 29.8778V25.3636H153.845V33H152.672V31.7074H152.592C152.413 32.0952 152.135 32.425 151.757 32.6967C151.379 32.9652 150.902 33.0994 150.325 33.0994C149.848 33.0994 149.423 32.995 149.052 32.7862C148.681 32.5741 148.389 32.2559 148.177 31.8317C147.965 31.4041 147.859 30.8655 147.859 30.2159V25.3636H149.032V30.1364C149.032 30.6932 149.188 31.1373 149.5 31.4688C149.815 31.8002 150.216 31.9659 150.703 31.9659C150.994 31.9659 151.291 31.8913 151.593 31.7422C151.898 31.593 152.153 31.3643 152.358 31.0561C152.567 30.7479 152.672 30.3551 152.672 29.8778ZM159.315 25.3636V26.358H155.357V25.3636H159.315ZM156.511 23.5341H157.684V30.8125C157.684 31.1439 157.732 31.3925 157.828 31.5582C157.928 31.7206 158.054 31.83 158.206 31.8864C158.362 31.9394 158.526 31.9659 158.698 31.9659C158.828 31.9659 158.934 31.9593 159.017 31.946C159.099 31.9295 159.166 31.9162 159.215 31.9062L159.454 32.9602C159.374 32.9901 159.263 33.0199 159.121 33.0497C158.978 33.0829 158.798 33.0994 158.579 33.0994C158.248 33.0994 157.923 33.0282 157.605 32.8857C157.29 32.7431 157.028 32.526 156.819 32.2344C156.614 31.9427 156.511 31.5748 156.511 31.1307V23.5341ZM161.08 33V25.3636H162.253V33H161.08ZM161.676 24.0909C161.448 24.0909 161.25 24.013 161.085 23.8572C160.922 23.7015 160.841 23.5142 160.841 23.2955C160.841 23.0767 160.922 22.8894 161.085 22.7337C161.25 22.5779 161.448 22.5 161.676 22.5C161.905 22.5 162.101 22.5779 162.263 22.7337C162.429 22.8894 162.512 23.0767 162.512 23.2955C162.512 23.5142 162.429 23.7015 162.263 23.8572C162.101 24.013 161.905 24.0909 161.676 24.0909ZM167.504 33.1591C166.815 33.1591 166.21 32.995 165.69 32.6669C165.173 32.3388 164.768 31.8797 164.477 31.2898C164.188 30.6998 164.044 30.0104 164.044 29.2216C164.044 28.4261 164.188 27.7318 164.477 27.1385C164.768 26.5452 165.173 26.0845 165.69 25.7564C166.21 25.4283 166.815 25.2642 167.504 25.2642C168.194 25.2642 168.797 25.4283 169.314 25.7564C169.834 26.0845 170.239 26.5452 170.527 27.1385C170.819 27.7318 170.964 28.4261 170.964 29.2216C170.964 30.0104 170.819 30.6998 170.527 31.2898C170.239 31.8797 169.834 32.3388 169.314 32.6669C168.797 32.995 168.194 33.1591 167.504 33.1591ZM167.504 32.1051C168.028 32.1051 168.459 31.9709 168.797 31.7024C169.135 31.4339 169.385 31.081 169.548 30.6435C169.71 30.206 169.791 29.732 169.791 29.2216C169.791 28.7112 169.71 28.2356 169.548 27.7947C169.385 27.3539 169.135 26.9976 168.797 26.7259C168.459 26.4541 168.028 26.3182 167.504 26.3182C166.981 26.3182 166.55 26.4541 166.212 26.7259C165.874 26.9976 165.623 27.3539 165.461 27.7947C165.299 28.2356 165.217 28.7112 165.217 29.2216C165.217 29.732 165.299 30.206 165.461 30.6435C165.623 31.081 165.874 31.4339 166.212 31.7024C166.55 31.9709 166.981 32.1051 167.504 32.1051ZM173.929 28.4062V33H172.756V25.3636H173.889V26.5568H173.988C174.167 26.169 174.439 25.8575 174.804 25.6222C175.168 25.3835 175.639 25.2642 176.216 25.2642C176.733 25.2642 177.185 25.3703 177.573 25.5824C177.961 25.7912 178.262 26.1094 178.478 26.5369C178.693 26.9612 178.801 27.4981 178.801 28.1477V33H177.628V28.2273C177.628 27.6274 177.472 27.16 177.16 26.8253C176.849 26.4872 176.421 26.3182 175.878 26.3182C175.503 26.3182 175.168 26.3994 174.873 26.5618C174.582 26.7242 174.351 26.9612 174.182 27.2727C174.013 27.5843 173.929 27.9621 173.929 28.4062Z" fill="#939393"/>
</g>
<defs>
<clipPath id="clip0_2011_2209">
<rect width="143" height="34" fill="white" transform="translate(37 2)"/>
</clipPath>
</defs>
</svg>
