<svg width="32" height="32" viewBox="0 0 32 32" fill="none" xmlns="http://www.w3.org/2000/svg">
<path d="M28.2363 8.04152C27.5639 6.49109 26.5945 5.08731 25.3827 3.90937C24.167 2.7208 22.7337 1.77744 21.1613 1.1308C19.5256 0.452232 17.7898 0.109375 16.0006 0.109375C14.2113 0.109375 12.4756 0.452232 10.8398 1.12723C9.2577 1.7808 7.83984 2.71652 6.61842 3.9058C5.40742 5.0844 4.43811 6.48802 3.76484 8.03795C3.06841 9.64509 2.71484 11.3522 2.71484 13.1094C2.71484 15.6308 3.31842 18.1415 4.50413 20.5629C5.4577 22.5094 6.78984 24.4058 8.46842 26.2094C11.3363 29.2879 14.3434 31.1701 15.197 31.6737C15.4393 31.8168 15.7156 31.892 15.997 31.8915C16.2756 31.8915 16.5506 31.8201 16.797 31.6737C17.6506 31.1701 20.6577 29.2879 23.5256 26.2094C25.2041 24.4094 26.5363 22.5094 27.4898 20.5629C28.6827 18.1451 29.2863 15.6379 29.2863 13.1129C29.2863 11.3558 28.9327 9.64866 28.2363 8.04152ZM16.0006 29.1522C13.647 27.6558 5.28627 21.7308 5.28627 13.1129C5.28627 10.3308 6.39699 7.71652 8.41484 5.74509C10.4398 3.77009 13.1327 2.6808 16.0006 2.6808C18.8684 2.6808 21.5613 3.77009 23.5863 5.74866C25.6041 7.71652 26.7148 10.3308 26.7148 13.1129C26.7148 21.7308 18.3541 27.6558 16.0006 29.1522ZM16.0006 7.10938C12.5291 7.10938 9.71484 9.92366 9.71484 13.3951C9.71484 16.8665 12.5291 19.6808 16.0006 19.6808C19.472 19.6808 22.2863 16.8665 22.2863 13.3951C22.2863 9.92366 19.472 7.10938 16.0006 7.10938ZM18.8291 16.2237C18.4581 16.5957 18.0172 16.8908 17.5318 17.0918C17.0464 17.2928 16.526 17.3959 16.0006 17.3951C14.9327 17.3951 13.9291 16.9772 13.172 16.2237C12.7999 15.8527 12.5049 15.4118 12.3039 14.9263C12.1028 14.4409 11.9997 13.9205 12.0006 13.3951C12.0006 12.3272 12.4184 11.3237 13.172 10.5665C13.9291 9.80937 14.9327 9.39509 16.0006 9.39509C17.0684 9.39509 18.072 9.80937 18.8291 10.5665C19.5863 11.3237 20.0006 12.3272 20.0006 13.3951C20.0006 14.4629 19.5863 15.4665 18.8291 16.2237Z" fill="currentColor"/>
</svg>
