<svg width="56" height="56" viewBox="0 0 56 56" fill="none" xmlns="http://www.w3.org/2000/svg">
<g clip-path="url(#clip0_726_7815)">
<path d="M48.1145 19.7163C45.6645 8.93634 36.2612 4.08301 28.0012 4.08301C28.0012 4.08301 28.0012 4.08301 27.9779 4.08301C19.7412 4.08301 10.3145 8.91301 7.86453 19.693C5.13453 31.733 12.5079 41.9297 19.1812 48.3463C21.6545 50.7263 24.8279 51.9163 28.0012 51.9163C31.1745 51.9163 34.3479 50.7263 36.7979 48.3463C43.4712 41.9297 50.8445 31.7563 48.1145 19.7163ZM28.0012 31.4063C23.9412 31.4063 20.6512 28.1163 20.6512 24.0563C20.6512 19.9963 23.9412 16.7063 28.0012 16.7063C32.0612 16.7063 35.3512 19.9963 35.3512 24.0563C35.3512 28.1163 32.0612 31.4063 28.0012 31.4063Z" fill="currentColor"/>
</g>
<defs>
<clipPath id="clip0_726_7815">
<rect width="56" height="56" fill="white"/>
</clipPath>
</defs>
</svg>
