<svg width="40" height="40" viewBox="0 0 40 40" fill="none" xmlns="http://www.w3.org/2000/svg">
<path d="M34.6463 7.16477L32.8395 5.35795C32.7754 5.29451 32.6889 5.25892 32.5987 5.25892C32.5086 5.25892 32.422 5.29451 32.358 5.35795L5.35369 32.3537C5.29025 32.4178 5.25466 32.5043 5.25466 32.5945C5.25466 32.6846 5.29025 32.7712 5.35369 32.8352L7.16051 34.642C7.29261 34.7741 7.50994 34.7741 7.64205 34.642L34.642 7.64205C34.7784 7.5142 34.7784 7.29688 34.6463 7.16477ZM11.1364 17.2727C14.5199 17.2727 17.2727 14.5199 17.2727 11.1364C17.2727 7.75284 14.5199 5 11.1364 5C7.75284 5 5 7.75284 5 11.1364C5 14.5199 7.75284 17.2727 11.1364 17.2727ZM11.1364 8.06818C12.8281 8.06818 14.2045 9.4446 14.2045 11.1364C14.2045 12.8281 12.8281 14.2045 11.1364 14.2045C9.4446 14.2045 8.06818 12.8281 8.06818 11.1364C8.06818 9.4446 9.4446 8.06818 11.1364 8.06818ZM28.8636 22.7273C25.4801 22.7273 22.7273 25.4801 22.7273 28.8636C22.7273 32.2472 25.4801 35 28.8636 35C32.2472 35 35 32.2472 35 28.8636C35 25.4801 32.2472 22.7273 28.8636 22.7273ZM28.8636 31.9318C27.1719 31.9318 25.7955 30.5554 25.7955 28.8636C25.7955 27.1719 27.1719 25.7955 28.8636 25.7955C30.5554 25.7955 31.9318 27.1719 31.9318 28.8636C31.9318 30.5554 30.5554 31.9318 28.8636 31.9318Z" fill="currentColor"/>
</svg>
