<svg width="24" height="24" viewBox="0 0 24 24" fill="none" xmlns="http://www.w3.org/2000/svg">
<path d="M12.8372 5H11.1628C11.0543 5 11 5.05785 11 5.17355V11H5.16279C5.05426 11 5 11.0579 5 11.1736V12.8244C5 12.9401 5.05426 12.9979 5.16279 12.9979H11V18.8264C11 18.9421 11.0543 19 11.1628 19H12.8372C12.9457 19 13 18.9421 13 18.8264V12.9979H18.8372C18.9457 12.9979 19 12.9401 19 12.8244V11.1736C19 11.0579 18.9457 11 18.8372 11H13V5.17355C13 5.05785 12.9457 5 12.8372 5Z" fill="currentColor"/>
</svg>
