<svg width="40" height="40" viewBox="0 0 40 40" fill="none" xmlns="http://www.w3.org/2000/svg">
<path d="M35.7137 30.0056C35.7137 25.0234 32.7941 20.7199 28.5709 18.7154V11.3136C28.5709 10.6395 28.3343 9.98772 27.8968 9.47433L21.0932 1.40737C20.8075 1.06808 20.4012 0.898438 19.9994 0.898438C19.5977 0.898438 19.1914 1.06808 18.9057 1.40737L12.1021 9.47433C11.6676 9.98877 11.4288 10.6402 11.428 11.3136V18.7154C7.2048 20.7199 4.28516 25.0234 4.28516 30.0056H11.2718C11.1691 30.327 11.1155 30.6752 11.1155 31.0681C11.1155 32.0547 11.4548 33.019 12.0709 33.7824C12.5737 34.4067 13.2397 34.8796 13.995 35.1484C15.0262 37.5592 17.37 39.1127 19.9994 39.1127C21.2986 39.1127 22.5575 38.7288 23.6334 38.0056C24.6869 37.3002 25.5039 36.3136 25.9994 35.1484C26.7544 34.8812 27.4204 34.4099 27.9236 33.7868C28.5404 33.0165 28.8773 32.0594 28.8789 31.0725C28.8789 30.6975 28.8298 30.3404 28.7405 30.01H35.7137V30.0056ZM31.1736 24.8895C31.5932 25.5413 31.9325 26.2422 32.178 26.9699H28.3923V22.0904C29.5061 22.8172 30.4538 23.7711 31.1736 24.8895ZM14.4637 18.7154V11.3806L19.9994 4.81808L25.5352 11.3806V26.9699H14.4637V18.7154ZM7.82087 26.9699C8.06641 26.2422 8.40569 25.5413 8.82534 24.8895C9.55301 23.7645 10.4994 22.8136 11.6066 22.0904V26.9699H7.82087ZM25.1825 32.1574C24.9503 32.2913 24.6825 32.3449 24.4191 32.3092L23.5486 32.202L23.4236 33.0681C23.1825 34.76 21.7093 36.0368 19.9994 36.0368C18.2896 36.0368 16.8164 34.76 16.5753 33.0681L16.4503 32.1975L15.5798 32.3092C15.3151 32.3407 15.0474 32.2859 14.8164 32.1529C14.428 31.9297 14.1869 31.5145 14.1869 31.0636C14.1869 30.5904 14.4503 30.1975 14.8387 30.0011H25.1646C25.5575 30.202 25.8164 30.5949 25.8164 31.0636C25.8119 31.519 25.5709 31.9386 25.1825 32.1574ZM17.8566 15.0056C17.8566 15.5739 18.0824 16.1189 18.4842 16.5208C18.8861 16.9227 19.4311 17.1484 19.9994 17.1484C20.5678 17.1484 21.1128 16.9227 21.5147 16.5208C21.9165 16.1189 22.1423 15.5739 22.1423 15.0056C22.1423 14.4373 21.9165 13.8922 21.5147 13.4904C21.1128 13.0885 20.5678 12.8627 19.9994 12.8627C19.4311 12.8627 18.8861 13.0885 18.4842 13.4904C18.0824 13.8922 17.8566 14.4373 17.8566 15.0056Z" fill="currentColor"/>
</svg>
