<svg width="25" height="24" viewBox="0 0 25 24" fill="none" xmlns="http://www.w3.org/2000/svg">
<path d="M19.1487 2.84994L19.7587 6.70994L23.2687 8.49994L21.4987 11.9999L23.2787 15.4999L19.7387 17.2899L19.1287 21.1499L15.2387 20.5399L12.4687 23.2999L9.68875 20.4999L5.82875 21.1399L5.20875 17.2499L1.71875 15.4699L3.49875 11.9699L1.72875 8.49994L5.23875 6.68994L5.84875 2.85994L9.71875 3.49994L12.4987 0.689941L15.2687 3.45994L19.1487 2.84994ZM9.99875 6.99994C9.60092 6.99994 9.21939 7.15798 8.93809 7.43928C8.65678 7.72059 8.49875 8.10212 8.49875 8.49994C8.49875 8.89777 8.65678 9.2793 8.93809 9.5606C9.21939 9.84191 9.60092 9.99994 9.99875 9.99994C10.3966 9.99994 10.7781 9.84191 11.0594 9.5606C11.3407 9.2793 11.4987 8.89777 11.4987 8.49994C11.4987 8.10212 11.3407 7.72059 11.0594 7.43928C10.7781 7.15798 10.3966 6.99994 9.99875 6.99994ZM14.9987 13.9999C14.6009 13.9999 14.2194 14.158 13.9381 14.4393C13.6568 14.7206 13.4987 15.1021 13.4987 15.4999C13.4987 15.8978 13.6568 16.2793 13.9381 16.5606C14.2194 16.8419 14.6009 16.9999 14.9987 16.9999C15.3966 16.9999 15.7781 16.8419 16.0594 16.5606C16.3407 16.2793 16.4987 15.8978 16.4987 15.4999C16.4987 15.1021 16.3407 14.7206 16.0594 14.4393C15.7781 14.158 15.3966 13.9999 14.9987 13.9999ZM8.90875 16.9999L17.4987 8.40994L16.0887 6.99994L7.49875 15.5899L8.90875 16.9999Z" fill="currentColor"/>
</svg>
