<svg width="40" height="40" viewBox="0 0 40 40" fill="none" xmlns="http://www.w3.org/2000/svg">
<g clip-path="url(#clip0_366_2879)">
<path d="M38.5714 7.13449H31.4286V4.63449C31.4286 4.43806 31.2679 4.27734 31.0714 4.27734H28.5714C28.375 4.27734 28.2143 4.43806 28.2143 4.63449V7.13449H21.6071V4.63449C21.6071 4.43806 21.4464 4.27734 21.25 4.27734H18.75C18.5536 4.27734 18.3929 4.43806 18.3929 4.63449V7.13449H11.7857V4.63449C11.7857 4.43806 11.625 4.27734 11.4286 4.27734H8.92857C8.73214 4.27734 8.57143 4.43806 8.57143 4.63449V7.13449H1.42857C0.638393 7.13449 0 7.77288 0 8.56306V34.2773C0 35.0675 0.638393 35.7059 1.42857 35.7059H38.5714C39.3616 35.7059 40 35.0675 40 34.2773V8.56306C40 7.77288 39.3616 7.13449 38.5714 7.13449ZM36.7857 32.4916H3.21429V10.3488H8.57143V12.8488C8.57143 13.0452 8.73214 13.2059 8.92857 13.2059H11.4286C11.625 13.2059 11.7857 13.0452 11.7857 12.8488V10.3488H18.3929V12.8488C18.3929 13.0452 18.5536 13.2059 18.75 13.2059H21.25C21.4464 13.2059 21.6071 13.0452 21.6071 12.8488V10.3488H28.2143V12.8488C28.2143 13.0452 28.375 13.2059 28.5714 13.2059H31.0714C31.2679 13.2059 31.4286 13.0452 31.4286 12.8488V10.3488H36.7857V32.4916ZM15.7143 19.2773H7.5C7.30357 19.2773 7.14286 19.4381 7.14286 19.6345V21.7773C7.14286 21.9738 7.30357 22.1345 7.5 22.1345H15.7143C15.9107 22.1345 16.0714 21.9738 16.0714 21.7773V19.6345C16.0714 19.4381 15.9107 19.2773 15.7143 19.2773ZM15.7143 25.3488H7.5C7.30357 25.3488 7.14286 25.5095 7.14286 25.7059V27.8488C7.14286 28.0452 7.30357 28.2059 7.5 28.2059H15.7143C15.9107 28.2059 16.0714 28.0452 16.0714 27.8488V25.7059C16.0714 25.5095 15.9107 25.3488 15.7143 25.3488ZM29.4732 17.4291L24.8482 23.8443L22.4911 20.5809C22.3571 20.3934 22.1429 20.2863 21.9152 20.2863H19.4643C19.1741 20.2863 19.0045 20.6166 19.1741 20.8532L24.2679 27.9157C24.3336 28.007 24.4201 28.0813 24.5203 28.1326C24.6204 28.1839 24.7313 28.2106 24.8438 28.2106C24.9562 28.2106 25.0671 28.1839 25.1672 28.1326C25.2674 28.0813 25.3539 28.007 25.4196 27.9157L32.7857 17.7059C32.9554 17.4693 32.7857 17.139 32.4955 17.139H30.0446C29.8214 17.1345 29.6071 17.2461 29.4732 17.4291Z" fill="currentColor"/>
</g>
<defs>
<clipPath id="clip0_366_2879">
<rect width="40" height="40" fill="currentColor"/>
</clipPath>
</defs>
</svg>
