<svg width="40" height="40" viewBox="0 0 40 40" fill="none" xmlns="http://www.w3.org/2000/svg">
<path d="M36.125 15.0625C35.2465 12.9832 33.973 11.0942 32.375 9.5C30.7808 7.90199 28.8918 6.62845 26.8125 5.75C24.6523 4.83594 22.3633 4.375 20 4.375C17.6367 4.375 15.3477 4.83594 13.1875 5.75C11.1082 6.62845 9.21917 7.90199 7.625 9.5C6.02699 11.0942 4.75345 12.9832 3.875 15.0625C2.96094 17.2227 2.5 19.5117 2.5 21.875C2.5 27.0586 4.77734 31.9414 8.74609 35.2773L8.8125 35.332C9.03906 35.5195 9.32422 35.625 9.61719 35.625H30.3867C30.6797 35.625 30.9648 35.5195 31.1914 35.332L31.2578 35.2773C35.2227 31.9414 37.5 27.0586 37.5 21.875C37.5 19.5117 37.0352 17.2227 36.125 15.0625ZM29.7422 32.6562H10.2578C8.74842 31.2953 7.54206 29.6322 6.71702 27.7748C5.89197 25.9174 5.46668 23.9074 5.46875 21.875C5.46875 17.9922 6.98047 14.3438 9.72656 11.6016C12.4727 8.85547 16.1211 7.34375 20 7.34375C23.8828 7.34375 27.5312 8.85547 30.2734 11.6016C33.0195 14.3477 34.5312 17.9961 34.5312 21.875C34.5312 26 32.793 29.9023 29.7422 32.6562ZM24.3555 16.4648C24.2967 16.4067 24.2174 16.3741 24.1348 16.3741C24.0521 16.3741 23.9728 16.4067 23.9141 16.4648L20.6133 19.7656C19.8828 19.5703 19.0742 19.7578 18.5 20.332C18.2966 20.535 18.1353 20.7761 18.0252 21.0416C17.9151 21.307 17.8584 21.5915 17.8584 21.8789C17.8584 22.1663 17.9151 22.4508 18.0252 22.7162C18.1353 22.9817 18.2966 23.2228 18.5 23.4258C18.703 23.6292 18.9441 23.7905 19.2095 23.9006C19.475 24.0107 19.7595 24.0674 20.0469 24.0674C20.3342 24.0674 20.6188 24.0107 20.8842 23.9006C21.1496 23.7905 21.3907 23.6292 21.5938 23.4258C21.8658 23.1545 22.0614 22.8163 22.1609 22.4452C22.2603 22.0742 22.2601 21.6834 22.1602 21.3125L25.4609 18.0117C25.582 17.8906 25.582 17.6914 25.4609 17.5703L24.3555 16.4648ZM19.1406 12.5H20.8594C21.0312 12.5 21.1719 12.3594 21.1719 12.1875V9.0625C21.1719 8.89062 21.0312 8.75 20.8594 8.75H19.1406C18.9688 8.75 18.8281 8.89062 18.8281 9.0625V12.1875C18.8281 12.3594 18.9688 12.5 19.1406 12.5ZM29.2969 21.0156V22.7344C29.2969 22.9062 29.4375 23.0469 29.6094 23.0469H32.7344C32.9062 23.0469 33.0469 22.9062 33.0469 22.7344V21.0156C33.0469 20.8438 32.9062 20.7031 32.7344 20.7031H29.6094C29.4375 20.7031 29.2969 20.8438 29.2969 21.0156ZM29.793 13.3125L28.5781 12.0977C28.5194 12.0395 28.4401 12.0069 28.3574 12.0069C28.2748 12.0069 28.1955 12.0395 28.1367 12.0977L25.9258 14.3086C25.8676 14.3673 25.835 14.4466 25.835 14.5293C25.835 14.612 25.8676 14.6913 25.9258 14.75L27.1406 15.9648C27.2617 16.0859 27.4609 16.0859 27.582 15.9648L29.793 13.7539C29.9141 13.6328 29.9141 13.4336 29.793 13.3125ZM11.8789 12.0977C11.8202 12.0395 11.7409 12.0069 11.6582 12.0069C11.5755 12.0069 11.4962 12.0395 11.4375 12.0977L10.2227 13.3125C10.1645 13.3712 10.1319 13.4505 10.1319 13.5332C10.1319 13.6159 10.1645 13.6952 10.2227 13.7539L12.4336 15.9648C12.5547 16.0859 12.7539 16.0859 12.875 15.9648L14.0898 14.75C14.2109 14.6289 14.2109 14.4297 14.0898 14.3086L11.8789 12.0977ZM10.2344 20.7031H7.10938C6.9375 20.7031 6.79688 20.8438 6.79688 21.0156V22.7344C6.79688 22.9062 6.9375 23.0469 7.10938 23.0469H10.2344C10.4062 23.0469 10.5469 22.9062 10.5469 22.7344V21.0156C10.5469 20.8438 10.4062 20.7031 10.2344 20.7031Z" fill="currentColor"/>
</svg>
