<svg width="48" height="48" viewBox="0 0 48 48" fill="none" xmlns="http://www.w3.org/2000/svg">
<rect x="2.25" y="8.25" width="44.25" height="33.75" fill="#FDB602"/>
<path d="M45.5893 6H2.41071C1.49213 6 0.75 6.74648 0.75 7.67045V41.0795C0.75 42.0035 1.49213 42.75 2.41071 42.75H45.5893C46.5079 42.75 47.25 42.0035 47.25 41.0795V7.67045C47.25 6.74648 46.5079 6 45.5893 6ZM3.65625 8.9233H44.3438V16.0227L3.65625 15.8661V8.9233ZM44.3438 39.6179H3.65625V19.1548H44.3438V39.6179ZM31.2137 35.6506H39.7768C40.0051 35.6506 40.192 35.4626 40.192 35.233V31.4744C40.192 31.2447 40.0051 31.0568 39.7768 31.0568H31.2137C30.9854 31.0568 30.7985 31.2447 30.7985 31.4744V35.233C30.7985 35.4626 30.9854 35.6506 31.2137 35.6506Z" fill="#0D0D0D"/>
</svg>
