<svg width="64" height="64" viewBox="0 0 64 64" fill="none" xmlns="http://www.w3.org/2000/svg">
<g clip-path="url(#clip0_472_2846)">
<circle cx="32" cy="20" r="19" fill="#FDB602"/>
<path d="M14.6657 47.9998H49.3324V61.3332H14.6657V47.9998Z" fill="#FDB602"/>
<path d="M29.3749 0.0873229C28.2124 0.237323 26.3999 0.662323 25.2374 1.07482C11.1249 5.96232 6.6499 23.6248 16.6999 34.7248C19.5249 37.8373 23.4624 40.0873 27.7999 41.0248C28.8999 41.2748 29.4249 41.2998 31.9999 41.2998C34.5749 41.2998 35.0999 41.2748 36.1999 41.0248C44.9624 39.1123 51.3999 32.1748 52.5749 23.3873C53.7374 14.6373 49.1499 6.01232 41.2749 2.12482C39.7749 1.38732 37.8624 0.712323 36.2749 0.362323C35.3124 0.149823 34.5249 0.0998229 32.4374 0.0623229C30.9999 0.0373229 29.6124 0.0498229 29.3749 0.0873229ZM29.9999 11.6248V18.7498H24.3749V18.4623C24.3749 18.3123 24.4624 17.4748 24.5624 16.6248C25.0374 12.7498 26.1874 9.27482 27.7749 6.87482C28.2374 6.16232 29.7624 4.49982 29.9374 4.49982C29.9749 4.49982 29.9999 7.69982 29.9999 11.6248ZM35.5999 6.03732C37.7124 8.69982 39.0999 12.8373 39.5749 17.8373L39.6624 18.7498H33.9999V4.47482L34.4874 4.87482C34.7624 5.08732 35.2624 5.61232 35.5999 6.03732ZM23.2124 7.01232C21.8624 9.83732 20.9624 13.3498 20.5999 17.1498L20.4499 18.7498H15.2374L15.3249 18.1498C15.9749 13.5998 18.7874 9.23732 22.7749 6.58732C23.2749 6.26232 23.6749 5.99982 23.6874 5.99982C23.6874 5.99982 23.4749 6.44982 23.2124 7.01232ZM41.3624 6.67482C44.9999 9.11232 47.6374 12.9998 48.4999 17.2373C48.6374 17.9248 48.7499 18.5373 48.7499 18.6123C48.7499 18.7123 47.9499 18.7498 46.1499 18.7498H43.5499L43.3999 17.1498C43.0499 13.4248 42.1999 10.0748 40.8874 7.21232C40.6124 6.61232 40.4124 6.12482 40.4624 6.12482C40.4999 6.12482 40.8999 6.37482 41.3624 6.67482ZM20.5999 24.2248C20.9624 28.0248 21.8624 31.5373 23.2124 34.3498L23.6874 35.3623L23.2499 35.0998C21.1124 33.8248 18.9249 31.6248 17.5874 29.4123C16.4749 27.5623 15.5999 25.1748 15.3249 23.2123L15.2374 22.6248H20.4499L20.5999 24.2248ZM29.9999 36.8998L29.5124 36.4998C29.2374 36.2873 28.7374 35.7623 28.3999 35.3373C26.2874 32.6748 24.8999 28.5373 24.4249 23.5248L24.3374 22.6248H29.9999V36.8998ZM39.5749 23.5248C39.0999 28.5373 37.7124 32.6748 35.5999 35.3373C35.2624 35.7623 34.7624 36.2873 34.4874 36.4998L33.9999 36.8998V22.6248H39.6624L39.5749 23.5248ZM48.6749 23.2123C48.0249 27.7248 45.2749 32.0373 41.3374 34.7123C40.9124 34.9998 40.5249 35.2498 40.4749 35.2498C40.4249 35.2498 40.5874 34.8123 40.8374 34.2748C42.1874 31.3248 43.0499 27.9748 43.3999 24.2248L43.5499 22.6248H48.7624L48.6749 23.2123Z" fill="#0D0D0D"/>
<path d="M4.8124 24.8623C3.6124 25.5873 1.6124 28.5623 0.862397 30.7248C0.237397 32.4873 0.099897 33.2748 0.037397 35.4373C-0.012603 37.1123 0.0123971 37.7998 0.187397 38.6873C0.587397 40.8373 1.3749 42.7998 2.5499 44.5498C2.8624 45.0248 3.1249 45.4248 3.1249 45.4373C3.1249 45.4498 2.8374 45.4998 2.4874 45.5373C1.2874 45.6873 0.624897 46.3873 0.624897 47.5248C0.624897 48.1748 0.962397 48.7748 1.5249 49.1373C1.9249 49.3873 2.0499 49.3873 4.9874 49.3123C8.3874 49.2248 8.6374 49.1748 9.1999 48.4373C9.43575 48.1283 9.57 47.7537 9.58415 47.3652L9.6749 44.8748C9.7749 42.0623 9.7624 41.7498 9.5624 41.3248C8.8999 39.9248 6.8124 39.8998 6.1374 41.2873C5.9874 41.5873 5.8749 41.9623 5.8749 42.1373C5.8624 42.4373 5.8624 42.4373 5.6749 42.1873C5.3499 41.7623 4.7249 40.4748 4.4249 39.5873C3.9999 38.3498 3.8499 37.3623 3.8499 35.8623C3.8624 32.9998 4.8499 30.5123 6.9249 28.1623C7.7999 27.1623 7.9374 26.5623 7.4874 25.6623C7.2874 25.2873 7.0374 24.9998 6.7499 24.8498C6.1874 24.5623 5.2999 24.5623 4.8124 24.8623Z" fill="#0D0D0D"/>
<path d="M57.1249 33.4873C55.5499 33.5748 55.2999 33.6623 54.7874 34.3373C54.5599 34.6299 54.4301 34.9866 54.4166 35.357L54.3249 37.8748C54.2249 40.6873 54.2374 40.9998 54.4374 41.4248C55.1124 42.8373 57.1999 42.8373 57.8749 41.4373C58.0124 41.1498 58.1249 40.7873 58.1249 40.6123C58.1374 40.3123 58.1374 40.3123 58.3249 40.5623C58.6624 40.9873 59.3374 42.4123 59.6124 43.2373C60.2499 45.1873 60.3374 47.5373 59.8249 49.5248C59.2999 51.5748 58.7624 52.5248 56.5749 55.1873C55.9749 55.9248 56.3499 57.4248 57.2499 57.8998C57.7624 58.1748 58.6374 58.1873 59.0999 57.9498C59.9249 57.5123 61.4249 55.5873 62.3499 53.7748C63.5124 51.4998 63.9999 49.4248 63.9999 46.7248C63.9999 43.4998 63.1874 40.7998 61.4499 38.1998C61.1374 37.7248 60.8749 37.3248 60.8749 37.3123C60.8749 37.2998 61.1624 37.2498 61.5124 37.2123C62.7124 37.0623 63.3749 36.3623 63.3749 35.2248C63.3749 34.5748 63.0374 33.9623 62.4749 33.6248C62.1124 33.3998 61.8624 33.3748 60.3124 33.3998C59.3499 33.4123 57.9124 33.4498 57.1249 33.4873Z" fill="#0D0D0D"/>
<path d="M16.3874 45.4498C15.1749 45.8748 14.0999 46.8748 13.5249 48.0998C13.3027 48.569 13.1874 49.0816 13.1874 49.6007V59.6489C13.1874 60.168 13.3027 60.6807 13.5249 61.1498C13.9624 62.0998 14.8874 63.0623 15.8124 63.5498C16.3052 63.8045 16.8519 63.9373 17.4066 63.9373H46.6268C47.1599 63.9373 47.6856 63.8132 48.1624 63.5748C49.0624 63.1123 50.0374 62.0998 50.4749 61.1623C50.6972 60.6848 50.8124 60.1644 50.8124 59.6376V49.612C50.8124 49.0853 50.6972 48.5649 50.4749 48.0873C50.0374 47.1498 49.0624 46.1373 48.1624 45.6748C47.6856 45.4364 47.1599 45.3119 46.6268 45.311L32.1874 45.2873C18.6624 45.2623 16.8749 45.2873 16.3874 45.4498ZM46.6999 49.4123C46.8935 49.6382 46.9999 49.9258 46.9999 50.2233V59.0547C46.9999 59.3339 46.9 59.6038 46.7184 59.8158C46.5162 60.0516 46.2211 60.1873 45.9105 60.1873H18.0609C17.7683 60.1873 17.4903 60.0595 17.2999 59.8373C17.1063 59.6115 16.9999 59.3238 16.9999 59.0263V54.6373C16.9999 49.9623 17.0124 49.7748 17.2499 49.4623C17.3874 49.2873 17.6249 49.1123 17.7874 49.0873C17.9374 49.0623 24.4374 49.0373 32.2249 49.0498L45.9389 49.0619C46.2315 49.0622 46.5095 49.1902 46.6999 49.4123Z" fill="#0D0D0D"/>
<path d="M21.4874 53.0373C20.6874 53.5748 20.4124 54.6248 20.8499 55.4998C21.5249 56.8498 23.5999 56.8498 24.2749 55.4998C24.9374 54.1873 24.0374 52.7498 22.5624 52.7498C22.0999 52.7498 21.7874 52.8248 21.4874 53.0373Z" fill="#0D0D0D"/>
<path d="M29.0749 52.9873C28.4999 53.3748 28.2499 53.8498 28.2499 54.6248C28.2499 55.3998 28.4999 55.8748 29.0749 56.2623C29.4124 56.4873 29.7749 56.4998 35.7624 56.4998H41.5743C41.9087 56.4998 42.2354 56.3997 42.5124 56.2123C42.7499 56.0623 43.0374 55.7373 43.1499 55.4998C43.5874 54.6248 43.3124 53.5748 42.5124 53.0373C42.2354 52.85 41.9087 52.7498 41.5743 52.7498H35.7624C29.7749 52.7498 29.4124 52.7623 29.0749 52.9873Z" fill="#0D0D0D"/>
</g>
<defs>
<clipPath id="clip0_472_2846">
<rect width="64" height="64" fill="white"/>
</clipPath>
</defs>
</svg>
