<svg width="65" height="64" viewBox="0 0 65 64" fill="none" xmlns="http://www.w3.org/2000/svg">
<path d="M7.35817 8.59096C23.1372 1.77511 41.0397 1.77511 56.8187 8.59096V55.8987C40.7326 61.0273 23.4443 61.0273 7.35817 55.8987V8.59096Z" fill="#FDB602"/>
<path d="M25.3701 2.10703C14.3705 2.83389 7.35478 5.24895 5.63904 8.89499L5.3335 9.53979V54.4412L5.63904 55.086C7.37829 58.7789 14.4175 61.1706 25.6639 61.8857C28.0965 62.0381 35.5823 62.0381 38.0619 61.8857C44.9954 61.4402 50.2954 60.3734 53.7974 58.7203C55.9009 57.7121 57.3934 56.4342 58.028 55.086L58.3335 54.4412V9.53979L58.028 8.89499C56.2887 5.19033 49.3435 2.83389 38.0031 2.0953C35.9231 1.96634 27.4854 1.96634 25.3701 2.10703ZM37.7681 5.74134C45.912 6.21029 52.4342 7.86332 54.3144 9.95012C54.9373 10.6301 54.9138 11.0052 54.1734 11.7204C52.0464 13.7603 46.0413 15.2726 37.8974 15.8119C36.875 15.8823 34.1486 15.9409 31.8335 15.9409C29.5184 15.9409 26.792 15.8823 25.7696 15.8119C17.614 15.2726 11.6206 13.7603 9.48183 11.7087C8.70622 10.9583 8.70622 10.5832 9.48183 9.83288C11.4679 7.93366 16.7914 6.47993 24.1362 5.83513C27.4501 5.55377 33.749 5.50687 37.7681 5.74134ZM9.98715 16.3278C13.3951 17.9339 18.7774 19.0007 25.6639 19.4462C28.0965 19.5986 35.5823 19.5986 38.0619 19.4462C44.9013 19.0125 50.2719 17.9339 53.6798 16.3278C54.2792 16.0464 54.808 15.8119 54.8315 15.8119C54.855 15.8119 54.8668 17.1132 54.8433 18.7077C54.7962 22.0958 54.8433 21.9903 53.4095 22.9282C50.0016 25.1908 41.7636 26.5976 31.8335 26.5976C21.8681 26.5976 13.6772 25.2025 10.2457 22.9282C8.82374 21.9903 8.87075 22.0958 8.82374 18.7077C8.80024 17.1132 8.81199 15.8119 8.83549 15.8119C8.85899 15.8119 9.38782 16.0464 9.98715 16.3278ZM11.6206 27.6176C14.8053 28.7782 19.3062 29.5872 24.9 30.0209C27.4501 30.2202 36.2169 30.2202 38.767 30.0209C45.5947 29.4934 50.8124 28.3914 53.9501 26.8204L54.8668 26.3632V29.1182C54.8668 32.2601 54.8315 32.4008 54.0324 33.0925C51.7291 35.0621 45.8062 36.5158 37.8974 37.0316C35.5 37.1958 28.167 37.1958 25.7696 37.0316C17.8608 36.5158 11.9497 35.0621 9.6346 33.0925C8.83549 32.4008 8.80024 32.2601 8.80024 29.1182V26.3632L9.64636 26.7852C10.1164 27.0197 10.9978 27.3948 11.6206 27.6176ZM9.98715 37.5475C13.3951 39.1536 18.7774 40.2205 25.6639 40.666C28.0965 40.8184 35.5823 40.8184 38.0619 40.666C44.9013 40.2322 50.2719 39.1536 53.6798 37.5475C54.2792 37.2661 54.808 37.0316 54.8315 37.0316C54.855 37.0316 54.8668 38.333 54.8433 39.9274C54.7962 43.3155 54.8433 43.21 53.4095 44.1479C50.0016 46.4105 41.7636 47.8174 31.8335 47.8174C21.8681 47.8174 13.6772 46.4223 10.2457 44.1479C8.82374 43.21 8.87075 43.3155 8.82374 39.9274C8.80024 38.333 8.81199 37.0316 8.83549 37.0316C8.85899 37.0316 9.38782 37.2661 9.98715 37.5475ZM11.6206 48.8373C14.8053 49.998 19.3062 50.8069 24.9 51.2407C27.4501 51.44 36.2169 51.44 38.767 51.2407C45.5947 50.7131 50.8124 49.6111 53.9501 48.0401L54.8668 47.5829V50.3379C54.8668 53.4799 54.8315 53.6206 54.0324 54.3122C51.7291 56.2818 45.8062 57.7355 37.8974 58.2514C35.5 58.4155 28.167 58.4155 25.7696 58.2514C17.8608 57.7355 11.9497 56.2818 9.6346 54.3122C8.83549 53.6206 8.80024 53.4799 8.80024 50.3379V47.5829L9.64636 48.0049C10.1164 48.2394 10.9978 48.6146 11.6206 48.8373Z" fill="black"/>
</svg>
