<svg width="40" height="40" viewBox="0 0 40 40" fill="none" xmlns="http://www.w3.org/2000/svg">
<path d="M5 29.0001H34V37.0001H5V29.0001Z" fill="#FDB602"/>
<path d="M4.5551 27.6837C4.42134 27.7579 4.24076 27.9264 4.15382 28.068C4.05317 28.2357 4 28.4275 4 28.6231V32.7745C4 37.1438 4 37.2314 4.14045 37.4607C4.21401 37.5888 4.37452 37.7641 4.50159 37.845C4.64522 37.9459 4.81649 38.0001 4.99203 38.0001H34.508C34.6835 38.0001 34.8548 37.9459 34.9984 37.845C35.1255 37.7641 35.286 37.5888 35.3595 37.4607C35.5 37.2314 35.5 37.1438 35.5 32.7745V28.6023C35.5 28.4206 35.449 28.2425 35.3529 28.0882C35.2726 27.9534 35.0853 27.7781 34.9449 27.6972C34.7694 27.5999 34.5721 27.5488 34.3715 27.5488H19.7433C5.11688 27.5556 4.79586 27.5556 4.5551 27.6837ZM33.7888 36.2105H5.72841V29.2936H33.7888V36.2105Z" fill="black"/>
<path d="M22.9601 31.6079C22.6591 31.6888 22.318 32.026 22.2177 32.3227C22.0572 32.8081 22.3046 33.415 22.7661 33.651C23.0136 33.7858 23.5218 33.7791 23.8027 33.6442C23.9432 33.5768 24.1037 33.415 24.2107 33.2329C24.3511 32.9902 24.3779 32.8756 24.3511 32.5789C24.291 31.8507 23.6623 31.4057 22.9601 31.6079Z" fill="black"/>
<path d="M26.5717 31.6079C25.8561 31.8102 25.5551 32.7272 26.0099 33.3341C26.2573 33.6577 26.5248 33.7724 26.9729 33.7387C27.421 33.7049 27.7086 33.5296 27.8758 33.1723C28.0229 32.8486 27.9828 32.2687 27.7955 32.0125C27.528 31.6484 27.0131 31.4798 26.5717 31.6079Z" fill="black"/>
<path d="M30.1694 31.6079C29.815 31.7023 29.4672 32.1069 29.4137 32.498C29.3736 32.7474 29.3937 32.8688 29.5207 33.125C29.728 33.5498 30.0357 33.7521 30.4637 33.7521C31.1526 33.7521 31.5338 33.3947 31.5739 32.707C31.594 32.3699 31.5739 32.262 31.4401 32.0732C31.1659 31.6619 30.6643 31.4731 30.1694 31.6079Z" fill="black"/>
<path d="M8.5808 31.8709C8.16615 32.0394 7.91201 32.444 7.91201 32.9295C7.91201 33.2936 8.07921 33.6038 8.40023 33.8465C8.58749 33.9881 8.6343 33.9881 12.5601 33.9881C16.4859 33.9881 16.5327 33.9881 16.72 33.8465C17.0477 33.6038 17.2082 33.2936 17.2082 32.9227C17.2082 32.471 17.0009 32.1069 16.6397 31.9316C16.3722 31.8035 16.2318 31.7967 12.5534 31.8034C10.1926 31.8034 8.68781 31.8304 8.5808 31.8709Z" fill="black"/>
<path d="M5.92064 21.2497H32.6191V28.1389H5.92064V21.2497Z" fill="#FDB602"/>
<path d="M5.51104 20.1161C5.3879 20.18 5.22166 20.3252 5.14161 20.4471C5.04915 20.5912 5 20.7587 5 20.9299V24.5C5 28.2626 5 28.3381 5.1293 28.5355C5.19703 28.6458 5.3448 28.7968 5.46178 28.8665L5.66497 29H33.335L33.5382 28.8665C33.6552 28.7968 33.803 28.6458 33.8707 28.5355C34 28.3381 34 28.2626 34 24.5V20.912C34 20.7527 33.9529 20.597 33.8645 20.4645C33.7907 20.3484 33.6183 20.1974 33.489 20.1277C33.3271 20.0438 33.1475 20 32.9652 20H19.4938C6.02824 20.0058 5.7327 20.0058 5.51104 20.1161ZM32.4246 27.4589H6.59124V21.5025H32.4246V27.4589Z" fill="black"/>
<path d="M22.4553 23.4955C22.1782 23.5651 21.8642 23.8555 21.7719 24.1109C21.6241 24.529 21.8519 25.0516 22.2767 25.2548C22.5046 25.3709 22.9725 25.3651 23.2311 25.249C23.3604 25.1909 23.5082 25.0516 23.6067 24.8948C23.736 24.6858 23.7606 24.5871 23.736 24.3316C23.6806 23.7045 23.1018 23.3213 22.4553 23.4955Z" fill="black"/>
<path d="M25.7803 23.4955C25.1215 23.6697 24.8444 24.4593 25.2631 24.9819C25.4909 25.2606 25.7372 25.3593 26.1497 25.3303C26.5622 25.3013 26.827 25.1503 26.9809 24.8426C27.1164 24.5639 27.0794 24.0645 26.907 23.8439C26.6607 23.5303 26.1866 23.3851 25.7803 23.4955Z" fill="black"/>
<path d="M29.0925 23.4954C28.7662 23.5767 28.446 23.9251 28.3968 24.2619C28.3598 24.4767 28.3783 24.5813 28.4953 24.8019C28.6861 25.1677 28.9694 25.3419 29.3634 25.3419C29.9976 25.3419 30.3486 25.0342 30.3855 24.4419C30.404 24.1516 30.3855 24.0587 30.2624 23.8961C30.0099 23.5419 29.5481 23.3793 29.0925 23.4954Z" fill="black"/>
<path d="M9.21725 23.7219C8.83551 23.8671 8.60153 24.2154 8.60153 24.6335C8.60153 24.9471 8.75546 25.2141 9.051 25.4232C9.2234 25.5451 9.2665 25.5451 12.8807 25.5451C16.495 25.5451 16.5381 25.5451 16.7105 25.4232C17.0122 25.2141 17.1599 24.9471 17.1599 24.6277C17.1599 24.2387 16.9691 23.9251 16.6366 23.7741C16.3903 23.6638 16.261 23.658 12.8746 23.6638C10.7011 23.6638 9.31576 23.6871 9.21725 23.7219Z" fill="black"/>
<path d="M26.9499 7.35761C26.1129 3.84638 22.9004 2.26557 20.0786 2.26557C20.0786 2.26557 20.0786 2.26557 20.0706 2.26557C17.2567 2.26557 14.0363 3.83878 13.1993 7.35001C12.2666 11.2716 14.7856 14.5929 17.0654 16.6829C17.9103 17.4581 18.9944 17.8457 20.0786 17.8457C21.1627 17.8457 22.2468 17.4581 23.0838 16.6829C25.3636 14.5929 27.8825 11.2792 26.9499 7.35761Z" fill="#FDB602"/>
<path fill-rule="evenodd" clip-rule="evenodd" d="M18.0205 15.9262C18.6009 16.4768 19.3396 16.7489 20.0786 16.7489C20.8187 16.7489 21.5543 16.4762 22.124 15.9306L22.1265 15.9282L22.129 15.9258C24.3336 13.8359 26.3669 10.8811 25.6054 7.56815C24.9451 4.70391 22.4226 3.36235 20.0786 3.36235H20.0706C17.7308 3.36235 15.2034 4.69902 14.5438 7.56029C13.7821 10.8739 15.8168 13.8371 18.0205 15.9262ZM13.1993 7.25777C14.0363 3.62684 17.2567 2 20.0706 2H20.0786C22.9004 2 26.1129 3.6347 26.9499 7.26563C27.8825 11.321 25.3636 14.7475 23.0838 16.9088C22.2468 17.7104 21.1627 18.1113 20.0786 18.1113C18.9944 18.1113 17.9103 17.7104 17.0654 16.9088C14.7856 14.7475 12.2666 11.3131 13.1993 7.25777ZM17.5676 8.72743C17.5676 10.0949 18.6915 11.2031 20.0786 11.2031C21.4656 11.2031 22.5895 10.0949 22.5895 8.72743C22.5895 7.35994 21.4656 6.2518 20.0786 6.2518C18.6915 6.2518 17.5676 7.35994 17.5676 8.72743Z" fill="#0D0D0D"/>
</svg>
