<svg width="40" height="40" viewBox="0 0 40 40" fill="none" xmlns="http://www.w3.org/2000/svg">
<rect x="3.33301" y="6.6665" width="33.3333" height="26.6667" fill="#FDB602"/>
<path d="M2.55835 12.6666C2.39267 12.6666 2.25836 12.5322 2.25836 12.3666V8.83328C2.25836 7.77913 2.6061 6.87703 3.30158 6.12698C3.99707 5.37694 4.83212 5.00128 5.80675 5H34.1939C35.1697 5 36.0053 5.37566 36.7008 6.12698C37.3963 6.87831 37.7434 7.7804 37.7423 8.83328V12.3666C37.7423 12.5322 37.6079 12.6666 37.4423 12.6666H35.0853C34.9196 12.6666 34.7853 12.5322 34.7853 12.3666V7.99996H5.21535V12.3666C5.21535 12.5322 5.08103 12.6666 4.91535 12.6666H2.55835ZM12.9035 34.9996H5.95459C5.78851 34.9996 5.5933 34.9996 5.38004 34.9996C3.65621 34.9996 2.26032 33.5818 2.25836 31.833V28.2997C2.25836 28.134 2.39267 27.9997 2.55836 27.9997H4.91535C5.08103 27.9997 5.21535 28.134 5.21535 28.2997V31.9996H34.7853V28.2997C34.7853 28.134 34.9196 27.9997 35.0853 27.9997H37.4423C37.6079 27.9997 37.7423 28.134 37.7423 28.2997V31.833C37.7423 33.5821 36.3449 35.0007 34.6209 35C34.3976 34.9999 34.2001 34.9998 34.046 34.9996H27.0971H12.9035Z" fill="#0D0D0D"/>
<path fill-rule="evenodd" clip-rule="evenodd" d="M31.5159 13.542C31.3067 13.7069 31.2369 13.9509 31.2369 14.1422V15.4744C31.2369 15.6775 31.2986 15.9178 31.4653 16.1054L31.467 16.1072L35.6284 20.7501L31.4653 25.3949C31.2986 25.5824 31.2369 25.8227 31.2369 26.0258V27.358C31.2369 27.5484 31.3062 27.7944 31.5181 27.9597C31.6303 28.0473 31.7923 28.1151 31.9824 28.0967C32.1729 28.0782 32.3187 27.9805 32.4132 27.8746L32.4153 27.8722L38.0263 21.6132C38.256 21.3579 38.3337 21.0224 38.3337 20.7499C38.3337 20.4768 38.2564 20.1426 38.0278 19.8869L32.4102 13.6205C32.3131 13.5134 32.1646 13.4176 31.9738 13.402C31.7855 13.3866 31.6262 13.4551 31.5159 13.542Z" fill="#0D0D0D"/>
<path fill-rule="evenodd" clip-rule="evenodd" d="M8.48477 13.542C8.69397 13.7069 8.76377 13.9509 8.76377 14.1422V15.4744C8.76377 15.6775 8.70205 15.9178 8.53537 16.1054L8.53369 16.1072L4.37222 20.7501L8.53538 25.3949C8.70206 25.5824 8.76377 25.8227 8.76377 26.0258V27.358C8.76377 27.5484 8.69443 27.7944 8.48257 27.9597C8.37031 28.0473 8.20836 28.1151 8.01823 28.0967C7.82779 28.0782 7.68193 27.9805 7.58743 27.8746L7.58534 27.8722L1.97438 21.6132C1.74463 21.3579 1.66699 21.0224 1.66699 20.7499C1.66699 20.4768 1.74427 20.1426 1.97283 19.8869L7.59047 13.6205C7.68755 13.5134 7.83602 13.4176 8.02689 13.402C8.21511 13.3866 8.37441 13.4551 8.48477 13.542Z" fill="#0D0D0D"/>
</svg>
