<svg width="40" height="40" viewBox="0 0 40 40" fill="none" xmlns="http://www.w3.org/2000/svg">
<circle cx="25.5" cy="27.5" r="5.5" fill="#FDB602"/>
<path d="M5 14C5 12.3431 6.34315 11 8 11H30.5C31.0523 11 31.5 11.4477 31.5 12L31.8267 22.1167C31.8267 22.669 30.8142 22.3115 30.2619 22.3115L21.9177 22.9541L20.601 35.1123L13 35C8.58172 35 5 31.4183 5 27V14Z" fill="#FDB602"/>
<path d="M17.0524 3.08402C15.4095 3.39684 13.7907 4.32074 12.7569 5.54292C12.0357 6.3868 11.4346 7.67445 11.3225 8.59836C11.2984 8.80933 11.2583 9.12215 11.2343 9.28219L11.1942 9.58046L9.41515 9.62411C7.45175 9.66776 7.12318 9.71869 6.25768 10.1552C5.31204 10.6353 4.55874 11.4865 4.18209 12.5122C4.03784 12.8905 4.02982 13.3925 4.00578 21.3876C3.98975 27.2729 4.00578 30.0519 4.06989 30.4811C4.17407 31.2086 4.54271 32.2489 4.88731 32.7945C5.74479 34.1549 7.25942 35.2534 8.91028 35.7117C9.83187 35.9664 11.042 36.0173 15.8663 35.9955C20.306 35.9736 20.4102 35.9736 20.6266 35.8209C21.3478 35.3335 21.3879 34.5405 20.7147 34.0895C20.4903 33.9367 20.3862 33.9367 15.2653 33.9003C10.5211 33.8639 10.0002 33.8494 9.59947 33.7257C7.97265 33.2456 6.77057 32.0525 6.43399 30.5902C6.25768 29.8264 6.25768 13.5889 6.43399 13.0506C6.58625 12.5923 7.00297 12.1412 7.49182 11.923C7.74533 11.8079 8.02052 11.7484 8.29892 11.7484H28.6983C29.0237 11.7484 29.3445 11.8257 29.6342 11.9739C30.1631 12.2431 30.5397 12.7087 30.668 13.2397C30.7241 13.4798 30.7561 15.0657 30.7561 17.8302C30.7561 21.4967 30.7721 22.0787 30.8763 22.2678C31.253 22.9153 32.423 22.9444 32.8397 22.3115C32.992 22.0859 33 21.9113 33 17.5101V13.5295C33 13.1404 32.9322 12.7544 32.7997 12.3886C32.3188 11.1009 31.2209 10.1479 29.7864 9.77689C29.4819 9.69686 28.8168 9.65321 27.5826 9.62411L25.8116 9.58046L25.7635 8.95483C25.6913 8.13277 25.483 7.47076 24.9941 6.58323C24.0966 4.94638 22.4537 3.71693 20.4983 3.20041C19.729 2.99672 17.8538 2.93124 17.0524 3.08402ZM19.697 5.17918C19.8973 5.22283 20.3621 5.38287 20.7307 5.54292C21.2677 5.77571 21.5321 5.95031 22.013 6.39408C22.8945 7.19431 23.3272 7.99455 23.4475 9.06395L23.5116 9.60229H13.5102L13.5583 9.18035C13.6946 8.13277 14.1353 7.25251 14.8966 6.51775C16.1709 5.2883 17.9018 4.80088 19.697 5.17918Z" fill="black"/>
<path d="M12.4713 13.1539C12.3423 13.2305 12.1845 13.4144 12.1129 13.5524C11.8333 14.1194 12.0985 15.9356 12.629 17.0698C13.5681 19.0545 15.0734 20.3419 17.095 20.8707C17.7545 21.0469 19.267 21.0393 19.9337 20.8707C22.0699 20.3036 23.7975 18.702 24.5788 16.5563C24.9731 15.4605 25.1237 14.0198 24.8871 13.5294C24.543 12.8244 23.4391 12.8244 23.095 13.5294C23.0376 13.6597 22.9588 14.0811 22.9158 14.4719C22.8154 15.5141 22.4928 16.3494 21.9193 17.0851C20.2347 19.2384 17.2455 19.407 15.396 17.4452C14.6003 16.6023 14.2132 15.7287 14.0842 14.4949C14.0484 14.1118 13.9695 13.6903 13.9121 13.5524C13.7043 13.0389 12.9587 12.832 12.4713 13.1539Z" fill="black"/>
<path fill-rule="evenodd" clip-rule="evenodd" d="M25.5833 23.5C23.3282 23.5 21.5 25.3282 21.5 27.5834C21.5 29.8385 23.3282 31.6667 25.5833 31.6667C27.8385 31.6667 29.6667 29.8385 29.6667 27.5834C29.6667 25.3282 27.8385 23.5 25.5833 23.5ZM19 27.5834C19 23.9475 21.9474 21 25.5833 21C29.2192 21 32.1667 23.9475 32.1667 27.5834C32.1667 31.2192 29.2192 34.1667 25.5833 34.1667C21.9474 34.1667 19 31.2192 19 27.5834Z" fill="#0C0507"/>
<path fill-rule="evenodd" clip-rule="evenodd" d="M29.3661 31.3661C29.8543 30.878 30.6457 30.878 31.1339 31.3661L32.8006 33.0328C33.2887 33.5209 33.2887 34.3124 32.8006 34.8006C32.3124 35.2887 31.5209 35.2887 31.0328 34.8006L29.3661 33.1339C28.878 32.6457 28.878 31.8543 29.3661 31.3661Z" fill="#0C0507"/>
</svg>
