<svg width="64" height="64" viewBox="0 0 64 64" fill="none" xmlns="http://www.w3.org/2000/svg">
<g clip-path="url(#clip0_473_1749)">
<path d="M62 31C62 55.5 59.5 31 32 35C27.2745 35.6873 22.0957 39.0897 19 43C11.6139 52.3296 9.04657 63.4142 2 31C2 14.9837 15.4315 2 32 2C48.5685 2 62 14.9837 62 31Z" fill="#FDB602"/>
<path d="M38.4615 44.0599C32.3967 44.4367 26.7896 47.5393 23.1786 52.4883C21.8309 54.3348 20.3942 57.6132 20.089 59.5225L20 59.9998L29.3333 60.6665L40.6667 59.9998L44 55.3331C48.2339 50.4469 48 51.3331 48.3471 50.8442C49.0973 50.9196 49.6949 51.3341 50 51.9998C50.2924 52.653 50.3052 53.1554 50.0127 53.7207C49.8347 54.0724 46.4336 58.1533 45.1621 59.5225L44.6667 59.9998H60L59.911 59.5225C59.6059 57.6132 58.1691 54.3348 56.8214 52.4883C53.808 48.3558 49.5995 45.6049 44.5645 44.4995C43.7508 44.3237 42.5429 44.1478 41.8945 44.1101C41.2333 44.0725 40.534 44.0222 40.3179 44.0097C40.1144 43.9845 39.2753 44.0097 38.4615 44.0599Z" fill="#FDB602"/>
<path d="M27.9375 0.187305C20.3 1.18731 13.525 4.71231 8.275 10.4373C3.8375 15.2623 1.0625 21.2623 0.1875 27.9123C-0.0625 29.8623 -0.0625 33.8873 0.1875 35.8373C1.0875 42.6873 4.1 48.9873 8.9125 54.0873C9.5 54.6998 10.15 55.2623 10.4375 55.3873C11.7 55.9623 12.875 55.3998 13.2375 54.0498C13.4625 53.1873 13.25 52.7498 11.85 51.2748C9.9125 49.2123 8.1125 46.6998 7.0125 44.5123C5.5625 41.6498 4.4 37.7623 4.175 34.9998L4.0875 33.9998H15.7125L15.8 35.6373C15.9875 39.1248 16.4875 42.4623 16.9375 43.1373C17.7375 44.3748 19.6625 44.1748 20.2625 42.7998L20.5125 42.2373L20.2 40.0248C20.0375 38.8123 19.8625 37.2998 19.8125 36.6873C19.775 36.0623 19.7125 35.2123 19.675 34.7748L19.6 33.9998H30V34.3373C30.0125 34.8873 30.4375 35.6873 30.8875 36.0123C31.4875 36.4373 32.5125 36.4373 33.1125 36.0123C33.5625 35.6873 33.9875 34.8873 34 34.3373V33.9998H44.375V34.2873C44.375 34.6998 44.925 35.4373 45.4125 35.6748C46.5375 36.1998 47.925 35.5498 48.1875 34.3748L48.275 33.9998H60L59.95 34.2748C59.9125 34.4373 59.85 34.8998 59.8125 35.3123C59.7 36.4248 59.2875 38.3998 58.8625 39.8248C58.4375 41.3123 58.4125 41.6623 58.7375 42.2498C59.275 43.2873 60.625 43.6873 61.5 43.0873C62.1375 42.6623 62.3625 42.2748 62.75 40.9248C63.6375 37.9248 64 35.2873 64 31.8748C64 26.6498 63 22.2998 60.7375 17.7623C55.925 8.09981 46.6625 1.5123 36 0.187305C34.1 -0.0376956 29.7375 -0.0376956 27.9375 0.187305ZM30 10.1873V15.9998H25.9375C23.7 15.9998 21.875 15.9748 21.875 15.9373C21.875 15.7873 22.7875 13.4123 23.25 12.3748C24.775 8.91231 27.125 5.89981 29.2 4.78731C29.6 4.56231 29.95 4.37481 29.975 4.37481C29.9875 4.37481 30 6.98731 30 10.1873ZM36.5375 6.12481C38.625 8.07481 40.2875 10.8498 41.7 14.7248C41.9375 15.3623 42.125 15.9123 42.125 15.9373C42.125 15.9748 40.3 15.9998 38.0625 15.9998H34V4.3623L34.775 4.77481C35.1875 4.99981 35.9875 5.59981 36.5375 6.12481ZM21.8875 6.73731C20.5 8.86231 19 12.1123 18.1625 14.8373L17.8125 15.9998H8.9875L9.2625 15.5873C11.0875 12.9623 14.1875 10.0873 17.25 8.16231C18.6375 7.29981 21.9875 5.67481 22.4625 5.63731C22.55 5.62481 22.2875 6.12481 21.8875 6.73731ZM43.175 6.28731C46.6125 7.78731 50.2 10.3123 52.55 12.9248C53.4375 13.9123 55 15.8373 55 15.9498C55 15.9748 53.0125 15.9998 50.5875 15.9998H46.175L46.025 15.4373C45.3875 13.0623 43.5125 8.88731 42.1375 6.77481C41.725 6.14981 41.4375 5.62481 41.5 5.62481C41.575 5.62481 42.325 5.92481 43.175 6.28731ZM16.75 20.0998C16.75 20.1498 16.6125 21.0998 16.4375 22.1998C16.1 24.3373 15.75 27.9373 15.75 29.2123V29.9998H4L4.05 29.7123C4.0875 29.5623 4.15 29.0373 4.1875 28.5623C4.4125 26.1998 5.2 23.3123 6.425 20.4623L6.625 19.9998H11.6875C14.475 19.9998 16.75 20.0498 16.75 20.0998ZM30 29.9998H19.6L19.6875 28.7748C19.8375 26.3998 20.1375 23.7873 20.4375 22.0248C20.6125 21.0373 20.75 20.1873 20.75 20.1248C20.75 20.0498 22.5125 19.9998 25.375 19.9998H30V29.9998ZM43.25 20.0998C43.25 20.1623 43.3875 21.0248 43.5625 22.0373C43.875 23.8748 44.1625 26.5248 44.3125 28.7748L44.3875 29.9998H34V19.9998H38.625C41.175 19.9998 43.25 20.0498 43.25 20.0998ZM57.6875 20.7123C58.75 23.0373 59.6125 26.3623 59.925 29.3373L59.9875 29.9998H48.3L48.15 27.7123C48 25.2623 47.725 22.9998 47.3875 21.1498L47.1625 19.9998H57.3625L57.6875 20.7123Z" fill="#0D0D0D"/>
<path d="M38.5625 40.0748C38.3625 40.0998 37.6 40.1873 36.875 40.2623C34.4 40.5373 31.35 41.4498 28.9625 42.6373C24.3375 44.9623 20.5 48.8248 18.2625 53.4248C17.65 54.6748 16.8165 56.9194 16.6665 57.3331C16.2194 58.5668 16 60.3258 16 61.7248C16 62.8248 16.225 63.3373 16.9 63.7498C17.3125 63.9998 17.5875 63.9998 40 63.9998C62.4125 63.9998 62.6875 63.9998 63.1 63.7498C63.7625 63.3373 64 62.8248 64 61.7498C64 58.5873 62.625 54.3498 60.5125 50.9998C59.7625 49.7998 57.9375 47.4998 57.7375 47.4998C57.7 47.4998 57.275 47.1373 56.8 46.6873C53.2375 43.3123 48.5625 41.0498 43.6875 40.3123C42.45 40.1248 39.25 39.9748 38.5625 40.0748ZM44.025 44.3623C46.45 44.8623 48.825 45.7873 50.8125 47.0373C55.275 49.8123 58.3625 54.0373 59.5625 58.9748C59.675 59.4748 59.75 59.9123 59.725 59.9498C59.6875 59.9748 56.375 59.9873 52.35 59.9748L45.0375 59.9373L47.4625 57.1248C48.8 55.5748 50.0625 54.0623 50.2625 53.7623C50.8875 52.8123 50.6625 51.6623 49.75 51.0248C49.225 50.6748 48.225 50.6498 47.6875 50.9873C47.4875 51.1123 45.625 53.1873 43.5625 55.5998L39.8125 59.9873H30.0375C22.2875 59.9998 20.25 59.9623 20.25 59.8373C20.25 59.5498 20.85 57.4498 21.175 56.5623C21.65 55.3248 22.6375 53.4998 23.4625 52.3498C26.6125 47.9623 31.3625 45.0998 36.9875 44.1873C38.5375 43.9248 42.4125 44.0248 44.025 44.3623Z" fill="#0D0D0D"/>
</g>
<defs>
<clipPath id="clip0_473_1749">
<rect width="64" height="64" fill="white"/>
</clipPath>
</defs>
</svg>
