<svg width="64" height="64" viewBox="0 0 64 64" fill="none" xmlns="http://www.w3.org/2000/svg">
<g clip-path="url(#clip0_549_3382)">
<path d="M60.3748 32.2501C60.3748 48.4044 47.7268 61.5001 32.1248 61.5001C16.5227 61.5001 3.87476 48.4044 3.87476 32.2501C3.87476 16.0958 16.5227 3.0001 32.1248 3.0001C47.7268 3.0001 60.3748 16.0958 60.3748 32.2501Z" fill="#FDB602"/>
<path d="M50.9373 0.4876C48.5373 0.9376 46.7248 1.4876 43.9873 2.6126L42.4123 3.2626L40.9748 2.8251C31.5873 -0.0123999 21.5623 1.7501 13.6373 7.6501C12.1998 8.7251 8.96228 11.9251 7.91228 13.3126C2.63728 20.3126 0.537282 28.6751 1.94978 37.0626C2.16228 38.3126 2.91228 41.2876 3.17478 41.9376C3.32478 42.3001 3.32478 42.4001 3.09978 42.8876C1.89978 45.5126 0.887282 48.7126 0.474782 51.0626C0.174782 52.8876 0.199782 56.0626 0.549782 57.3126C1.44978 60.6126 3.91228 62.8001 7.53728 63.5501C8.76228 63.8126 11.4373 63.8126 12.9998 63.5626C15.3248 63.1876 18.1748 62.2876 20.5998 61.1876L21.6373 60.7126L22.8498 61.1126C23.5123 61.3251 24.8748 61.6751 25.8748 61.8751C32.6873 63.2376 39.4373 62.3751 45.4998 59.3626C54.3873 54.9501 60.3873 46.9001 62.1373 37.0626C62.5123 34.9251 62.6123 30.6876 62.3248 28.3751C62.0873 26.4001 61.6373 24.3376 61.1248 22.7751L60.7498 21.6501L61.1248 20.8001C62.2248 18.3626 63.3248 14.6626 63.6248 12.4251C63.8248 10.9251 63.7248 7.7126 63.4373 6.6876C63.3248 6.2751 62.9998 5.4626 62.7248 4.8751C61.7623 2.8626 59.7248 1.2376 57.3123 0.5626C56.1373 0.2251 52.5498 0.1876 50.9373 0.4876ZM55.9373 4.0626C59.0873 4.7376 60.4873 7.1126 60.1123 11.1751C59.9873 12.5001 59.4623 14.8376 58.9748 16.2751L58.6873 17.1126L57.9748 15.9626C55.5498 12.0001 51.9248 8.3876 47.9873 6.0001C46.7998 5.2876 46.7248 5.4001 48.9248 4.7376C51.5998 3.9376 54.1748 3.6876 55.9373 4.0626ZM30.2498 10.9376V16.3751H21.3998L21.6373 15.7126C22.1373 14.3876 23.5373 11.6501 24.3498 10.4376C25.2998 9.0001 26.7373 7.4501 27.8248 6.6751C28.5873 6.1376 29.7998 5.5001 30.0998 5.5001C30.2123 5.5001 30.2498 6.6751 30.2498 10.9376ZM35.0123 5.9126C37.0498 6.9376 38.7873 8.7501 40.4623 11.6126C41.0748 12.6501 42.3373 15.3376 42.5623 16.0876L42.6373 16.3751H33.8748V10.9376C33.8748 6.6751 33.9123 5.5001 34.0373 5.5001C34.1123 5.5001 34.5623 5.6876 35.0123 5.9126ZM21.5498 7.9501C20.1998 9.8376 18.7748 12.6626 17.8123 15.4001L17.4623 16.3751H13.8373C10.9623 16.3751 10.2373 16.3376 10.3373 16.2126C13.2748 12.3376 16.9623 9.3501 21.1248 7.4876C21.7123 7.2251 22.1998 7.0001 22.2123 7.0001C22.2248 7.0001 21.9373 7.4251 21.5498 7.9501ZM43.8123 7.9251C46.6123 9.2876 49.1748 11.1501 51.3248 13.3876C52.3248 14.4251 53.7498 16.1376 53.7498 16.3001C53.7498 16.3376 52.1373 16.3626 50.1748 16.3501L46.5998 16.3126L45.9873 14.6876C45.1998 12.6001 43.9748 10.1376 42.9748 8.6251C42.5373 7.9751 42.1498 7.3626 42.0873 7.2751C41.9123 7.0126 42.1248 7.1001 43.8123 7.9251ZM30.2498 30.1251H18.8498L18.9373 29.0251C19.1498 26.1751 19.4748 23.8626 20.0123 21.2751L20.2873 20.0001H30.2498V30.1251ZM56.4248 20.7626L56.7498 21.5251L55.9248 23.0501C54.8748 24.9501 53.7498 26.7751 52.4623 28.6501L51.4623 30.1251H48.8998L48.8373 29.3376C48.5123 25.3376 48.1623 22.6501 47.6748 20.4001L47.5998 20.0001H56.0873L56.4248 20.7626ZM16.1748 21.6001C15.7873 23.5876 15.5373 25.5751 15.3498 28.0501L15.1998 30.1251H5.23728L5.32478 29.4626C5.69978 26.2126 6.42478 23.5126 7.56228 21.0251L7.98728 20.1251H16.4623L16.1748 21.6001ZM43.9123 20.5251C43.9498 20.7501 44.1248 21.6126 44.2998 22.4376C44.6748 24.2751 44.9748 26.6251 45.0998 28.6251L45.1873 30.1251H33.8748V20.1251H43.8373L43.9123 20.5251ZM58.7248 29.1251L58.8248 30.1251H56.0248L56.9748 28.5751C57.5123 27.7251 58.0248 26.9001 58.1248 26.7376C58.2998 26.4501 58.3123 26.4626 58.4623 27.2876C58.5498 27.7501 58.6623 28.5751 58.7248 29.1251ZM15.3623 35.9251C15.4998 38.0751 15.9373 41.4126 16.2873 43.0251L16.4748 43.8751H7.99978L7.71228 43.2751C6.57478 41.0126 5.63728 37.6001 5.32478 34.5251L5.23728 33.7501H15.1998L15.3623 35.9251ZM30.2498 43.8751H20.2748L20.0123 42.7751C19.5373 40.7376 19.1373 37.8751 18.9248 34.9001L18.8373 33.7501H30.2498V43.8751ZM45.1623 34.4001C45.1373 34.7626 45.0498 35.7876 44.9748 36.6751L44.8373 38.3001L39.3373 43.8751H33.8748V33.7501H45.2123L45.1623 34.4001ZM58.8248 34.1501C58.7873 34.3751 58.7248 34.9001 58.6873 35.3126C58.4623 37.4001 57.5998 40.5251 56.6373 42.7251L56.1623 43.8126L51.8748 43.8501L47.5998 43.8751L47.6748 43.6001C47.7123 43.4376 47.8748 42.5626 48.0373 41.6501L48.3123 39.9751L49.6998 38.3751C50.4623 37.4876 51.6123 36.0876 52.2623 35.2626L53.4373 33.7501H58.8873L58.8248 34.1501ZM6.64978 48.8626C7.92478 50.7876 8.94978 52.0376 10.5873 53.6501C12.2498 55.3126 14.0373 56.7376 15.7123 57.7751C16.4123 58.2126 16.9498 58.6001 16.8998 58.6501C16.8498 58.7001 16.1623 58.9251 15.3623 59.1751C9.71228 60.8751 5.87478 60.2126 4.53728 57.2876C3.66228 55.3876 3.72478 52.5626 4.69978 49.1501C4.87478 48.5501 5.09978 47.8126 5.21228 47.5126C5.39978 47.0251 5.43728 46.9876 5.54978 47.1876C5.62478 47.3126 6.12478 48.0751 6.64978 48.8626ZM17.8123 48.5251C18.6123 50.8626 19.9998 53.7126 21.2623 55.6001C21.9873 56.6626 21.8873 56.8376 20.8373 56.3626C18.0748 55.1126 15.3123 53.1751 13.0498 50.9126C12.0248 49.8876 10.2498 47.7876 10.2498 47.6001C10.2498 47.5376 11.8748 47.5001 13.8498 47.5001H17.4623L17.8123 48.5251ZM30.2498 51.3501L28.5998 52.4751C26.7498 53.7126 25.2998 54.6251 25.1498 54.6251C24.7873 54.6251 22.3373 50.1626 21.6373 48.2126L21.3748 47.5001H30.2498V51.3501ZM34.6248 48.0001C34.3123 48.2626 34.0248 48.4876 33.9748 48.5001C33.9123 48.5001 33.8748 48.2751 33.8748 48.0001V47.5001H35.1873L34.6248 48.0001ZM42.4998 48.0876C40.5623 53.1376 37.8373 56.7626 34.9373 58.1376C34.5248 58.3376 34.1123 58.5001 34.0373 58.5001C33.9123 58.5001 33.8748 57.8876 33.8748 55.8876V53.2626L34.4123 52.8501C36.4623 51.2251 38.1373 49.8376 39.3748 48.7626L40.8123 47.5001H42.7248L42.4998 48.0876ZM53.6873 47.8376C52.3748 49.8751 48.8373 53.1501 46.1123 54.8376C45.2873 55.3626 43.2123 56.4251 42.3248 56.8001L41.8498 57.0001L42.0498 56.7126C43.5623 54.6501 44.9748 52.0126 45.9998 49.2751L46.6748 47.5001H53.8998L53.6873 47.8376ZM30.1998 58.4751C30.0998 58.5751 29.0998 58.1626 28.4373 57.7376L27.8498 57.3626L29.0123 56.6251L30.1873 55.8751L30.2248 57.1501C30.2373 57.8376 30.2248 58.4376 30.1998 58.4751Z" fill="black"/>
</g>
<defs>
<clipPath id="clip0_549_3382">
<rect width="64" height="64" fill="white"/>
</clipPath>
</defs>
</svg>
