<svg width="64" height="64" viewBox="0 0 64 64" fill="none" xmlns="http://www.w3.org/2000/svg">
<path d="M14.6658 47.9998H49.3325V61.3332H14.6658V47.9998Z" fill="#FDB602"/>
<path d="M4.81252 24.8623C3.61252 25.5873 1.61252 28.5623 0.862519 30.7248C0.237519 32.4873 0.100019 33.2748 0.0375191 35.4373C-0.0124809 37.1123 0.0125191 37.7998 0.187519 38.6873C0.587519 40.8373 1.37502 42.7998 2.55002 44.5498C2.86252 45.0248 3.12502 45.4248 3.12502 45.4373C3.12502 45.4498 2.83752 45.4998 2.48752 45.5373C1.28752 45.6873 0.625019 46.3873 0.625019 47.5248C0.625019 48.1748 0.962519 48.7748 1.52502 49.1373C1.92502 49.3873 2.05002 49.3873 4.98752 49.3123C8.38752 49.2248 8.63752 49.1748 9.20002 48.4373C9.43587 48.1283 9.57012 47.7537 9.58428 47.3652L9.67502 44.8748C9.77502 42.0623 9.76252 41.7498 9.56252 41.3248C8.90002 39.9248 6.81252 39.8998 6.13752 41.2873C5.98752 41.5873 5.87502 41.9623 5.87502 42.1373C5.86252 42.4373 5.86252 42.4373 5.67502 42.1873C5.35002 41.7623 4.72502 40.4748 4.42502 39.5873C4.00002 38.3498 3.85002 37.3623 3.85002 35.8623C3.86252 32.9998 4.85002 30.5123 6.92502 28.1623C7.80002 27.1623 7.93752 26.5623 7.48752 25.6623C7.28752 25.2873 7.03752 24.9998 6.75002 24.8498C6.18752 24.5623 5.30002 24.5623 4.81252 24.8623Z" fill="#0D0D0D"/>
<path d="M57.125 33.4873C55.55 33.5748 55.3 33.6623 54.7875 34.3373C54.56 34.6299 54.4303 34.9867 54.4168 35.357L54.325 37.8748C54.225 40.6873 54.2375 40.9998 54.4375 41.4248C55.1125 42.8373 57.2 42.8373 57.875 41.4373C58.0125 41.1498 58.125 40.7873 58.125 40.6123C58.1375 40.3123 58.1375 40.3123 58.325 40.5623C58.6625 40.9873 59.3375 42.4123 59.6125 43.2373C60.25 45.1873 60.3375 47.5373 59.825 49.5248C59.3 51.5748 58.7625 52.5248 56.575 55.1873C55.975 55.9248 56.35 57.4248 57.25 57.8998C57.7625 58.1748 58.6375 58.1873 59.1 57.9498C59.925 57.5123 61.425 55.5873 62.35 53.7748C63.5125 51.4998 64 49.4248 64 46.7248C64 43.4998 63.1875 40.7998 61.45 38.1998C61.1375 37.7248 60.875 37.3248 60.875 37.3123C60.875 37.2998 61.1625 37.2498 61.5125 37.2123C62.7125 37.0623 63.375 36.3623 63.375 35.2248C63.375 34.5748 63.0375 33.9623 62.475 33.6248C62.1125 33.3998 61.8625 33.3748 60.3125 33.3998C59.35 33.4123 57.9125 33.4498 57.125 33.4873Z" fill="#0D0D0D"/>
<path d="M16.3875 45.4498C15.175 45.8748 14.1 46.8748 13.525 48.0998C13.3028 48.569 13.1875 49.0816 13.1875 49.6007V59.6489C13.1875 60.168 13.3028 60.6807 13.525 61.1498C13.9625 62.0998 14.8875 63.0623 15.8125 63.5498C16.3053 63.8045 16.852 63.9373 17.4067 63.9373H46.6269C47.16 63.9373 47.6857 63.8132 48.1625 63.5748C49.0625 63.1123 50.0375 62.0998 50.475 61.1623C50.6973 60.6848 50.8125 60.1644 50.8125 59.6376V49.612C50.8125 49.0853 50.6973 48.5649 50.475 48.0873C50.0375 47.1498 49.0625 46.1373 48.1625 45.6748C47.6857 45.4364 47.1601 45.3119 46.6269 45.311L32.1875 45.2873C18.6625 45.2623 16.875 45.2873 16.3875 45.4498ZM45.9991 47.9998C47.1037 47.9998 47.9991 48.8953 47.9991 49.9998V58.9999C47.9991 60.1044 47.1037 60.9999 45.9991 60.9999H17.9991C16.8946 60.9999 15.9991 60.1044 15.9991 58.9999V54.4999C15.9991 52.3051 15.9991 50.7385 15.9991 49.6939C15.9991 48.7163 16.7117 47.989 17.6894 47.9871C20.4821 47.9816 26.3139 47.9907 31.9991 47.9998H45.9991Z" fill="#0D0D0D"/>
<path d="M21.4875 53.0373C20.6875 53.5748 20.4125 54.6248 20.85 55.4998C21.525 56.8498 23.6 56.8498 24.275 55.4998C24.9375 54.1873 24.0375 52.7498 22.5625 52.7498C22.1 52.7498 21.7875 52.8248 21.4875 53.0373Z" fill="#0D0D0D"/>
<path d="M29.075 52.9873C28.5 53.3748 28.25 53.8498 28.25 54.6248C28.25 55.3998 28.5 55.8748 29.075 56.2623C29.4125 56.4873 29.775 56.4998 35.7625 56.4998H41.5744C41.9088 56.4998 42.2355 56.3997 42.5125 56.2123C42.75 56.0623 43.0375 55.7373 43.15 55.4998C43.5875 54.6248 43.3125 53.5748 42.5125 53.0373C42.2355 52.85 41.9088 52.7498 41.5744 52.7498H35.7625C29.775 52.7498 29.4125 52.7623 29.075 52.9873Z" fill="#0D0D0D"/>
<path fill-rule="evenodd" clip-rule="evenodd" d="M32 34.5C38.9036 34.5 44.5 28.9036 44.5 22C44.5 15.0964 38.9036 9.5 32 9.5C25.0964 9.5 19.5 15.0964 19.5 22C19.5 28.9036 25.0964 34.5 32 34.5ZM31.6875 40.75C33.0881 40.75 35.4375 41.0625 36.0625 38.3828C37.774 37.9598 39.3825 37.2756 40.8433 36.375C42.9375 37.625 44.7321 36.2067 45.75 35.125C46.4736 34.356 47.625 33.5625 46.2376 31.0625C47.2621 29.4562 48.0223 27.665 48.4568 25.75C50.75 25.75 51.375 23.2889 51.375 22C51.375 20.5994 50.75 18.25 48.3828 17.9375C47.9688 16.2624 47.3046 14.6859 46.4321 13.25C47.3125 10.75 46.1031 9.53133 45.125 8.5625C44.211 7.65722 43.25 6.375 40.8433 7.625C39.4148 6.7443 37.8451 6.07059 36.1759 5.64567C36.0625 3.56251 33.4413 3.5625 32 3.5625C30.6628 3.5625 28.25 3.25001 28.1145 5.57449C26.3369 5.99339 24.6678 6.69339 23.1567 7.625C20.75 6.375 19.5058 7.92266 18.5625 8.875C17.6572 9.78896 16.0625 11.6875 17.625 13.1567C16.6918 14.6703 15.9911 16.3424 15.5724 18.1234C13.25 18.25 12.9375 20.666 12.9375 22C12.9375 23.4398 13.25 25.75 15.6446 26.1716C16.0694 27.8423 16.7435 29.4136 17.625 30.8433C16.375 32.9375 17.738 33.9518 18.5625 34.8125C19.4958 35.7868 21.6875 37.9375 22.9375 36.2376C24.4561 37.2062 26.14 37.9385 27.9375 38.3828C28.25 40.75 30.2869 40.75 31.6875 40.75Z" fill="#FDB602"/>
<path d="M28.2031 2.15625C27.9062 2.35156 27.8203 2.51563 27.2422 3.99219L26.7891 5.16406L26.0156 5.44531C25.5859 5.60156 24.9297 5.86719 24.5469 6.04687C24.1641 6.22656 23.8203 6.375 23.7812 6.375C23.7422 6.375 23.1406 6.125 22.4609 5.82812C21.1797 5.26562 20.7812 5.17969 20.4141 5.36719C20.1719 5.49219 15.5312 10.1172 15.3906 10.375C15.1797 10.7812 15.25 11.1406 15.8281 12.4531C16.1328 13.1328 16.375 13.7344 16.375 13.7734C16.375 13.8203 16.2266 14.1641 16.0469 14.5469C15.8672 14.9297 15.6016 15.5938 15.4453 16.0156L15.1641 16.7969L13.9922 17.2422C12.5234 17.8125 12.3438 17.9063 12.1562 18.2109C12.0078 18.4531 12 18.6172 12 22C12 25.3828 12.0078 25.5469 12.1562 25.7891C12.3438 26.0937 12.5234 26.1875 13.9922 26.7578L15.1641 27.2031L15.4453 27.9844C15.6016 28.4062 15.8672 29.0703 16.0469 29.4531C16.2266 29.8359 16.375 30.1797 16.375 30.2266C16.375 30.2656 16.1328 30.8672 15.8281 31.5469C15.2656 32.8203 15.1797 33.2187 15.3672 33.5859C15.4922 33.8281 20.1172 38.4688 20.375 38.6094C20.7812 38.8203 21.1406 38.75 22.4609 38.1719C23.1406 37.875 23.7422 37.625 23.7812 37.625C23.8203 37.625 24.1641 37.7734 24.5469 37.9531C24.9297 38.1328 25.5859 38.3984 26.0156 38.5547L26.7891 38.8359L27.2422 40.0078C27.8203 41.4922 27.9063 41.6562 28.2109 41.8438C28.4531 41.9922 28.6172 42 32 42C35.3828 42 35.5469 41.9922 35.7891 41.8438C36.0937 41.6562 36.1875 41.4766 36.7578 40.0078L37.2109 38.8359L37.9844 38.5547C38.4141 38.3984 39.0703 38.1328 39.4531 37.9531C39.8359 37.7734 40.1797 37.625 40.2266 37.625C40.2656 37.625 40.8672 37.8672 41.5469 38.1719C42.8594 38.75 43.2187 38.8203 43.625 38.6094C43.8828 38.4688 48.5078 33.8281 48.6328 33.5859C48.8203 33.2187 48.7344 32.8203 48.1719 31.5391C47.875 30.8594 47.625 30.2578 47.625 30.2187C47.625 30.1797 47.7734 29.8359 47.9531 29.4531C48.1328 29.0703 48.3984 28.4141 48.5547 27.9844L48.8359 27.2109L50.0078 26.7578C51.4766 26.1875 51.6562 26.0937 51.8438 25.7891C51.9922 25.5469 52 25.3828 52 22C52 18.6172 51.9922 18.4531 51.8438 18.2109C51.6562 17.9063 51.4766 17.8125 50.0078 17.2422L48.8359 16.7891L48.5547 16.0156C48.3984 15.5859 48.1328 14.9297 47.9531 14.5469C47.7734 14.1641 47.625 13.8203 47.625 13.7812C47.625 13.7422 47.875 13.1406 48.1719 12.4609C48.75 11.1406 48.8203 10.7812 48.6094 10.375C48.4688 10.1172 43.8281 5.49219 43.5859 5.36719C43.2187 5.17969 42.8203 5.26562 41.5469 5.82812C40.8672 6.125 40.2656 6.375 40.2266 6.375C40.1797 6.375 39.8359 6.22656 39.4531 6.04687C39.0703 5.86719 38.4141 5.60156 37.9844 5.44531L37.2109 5.16406L36.7578 3.99219C36.1875 2.52344 36.0937 2.34375 35.7891 2.15625C35.5469 2.00781 35.3906 2 31.9922 2C28.5938 2 28.4375 2.00781 28.2031 2.15625ZM34.7734 5.61719C35.0391 6.28906 35.3359 6.92969 35.4375 7.03906C35.5469 7.15625 35.9609 7.33594 36.6328 7.55469C37.1953 7.74219 38.1406 8.13281 38.7422 8.42187C40.1406 9.10937 40.1484 9.10937 41.6562 8.44531L42.8125 7.92969L44.4375 9.5625L46.0703 11.1875L45.5547 12.3437C44.8906 13.8516 44.8906 13.8594 45.5781 15.2578C45.8672 15.8594 46.2578 16.8047 46.4453 17.3672C46.6641 18.0391 46.8438 18.4531 46.9609 18.5625C47.0703 18.6641 47.7109 18.9609 48.3828 19.2266L49.6172 19.7187V24.2813L48.3828 24.7734C47.7109 25.0391 47.0703 25.3359 46.9688 25.4297C46.8438 25.5469 46.6641 25.9531 46.4531 26.5937C46.2734 27.1406 45.8828 28.0937 45.5859 28.7109C45.1797 29.5547 45.0469 29.9141 45.0469 30.1641C45.0469 30.4062 45.1875 30.8281 45.5547 31.6562L46.0703 32.8125L44.4375 34.4375L42.8125 36.0703L41.6562 35.5547C40.1484 34.8906 40.1406 34.8906 38.7422 35.5781C38.1406 35.8672 37.1953 36.2578 36.6328 36.4453C35.9609 36.6641 35.5469 36.8438 35.4375 36.9609C35.3359 37.0703 35.0391 37.7109 34.7734 38.3828L34.2813 39.6172H29.7188L29.2266 38.3828C28.9609 37.7109 28.6641 37.0703 28.5625 36.9609C28.4453 36.8359 28.0547 36.6641 27.3984 36.4531C26.8594 36.2734 25.9062 35.8828 25.2891 35.5859C24.4453 35.1797 24.0859 35.0469 23.8359 35.0469C23.5938 35.0469 23.1719 35.1875 22.3438 35.5547L21.1875 36.0703L17.9297 32.8125L18.4453 31.6641C19.1094 30.1641 19.1094 30.1484 18.4219 28.7422C18.1328 28.1406 17.7422 27.1953 17.5547 26.6328C17.3359 25.9609 17.1562 25.5469 17.0391 25.4375C16.9297 25.3359 16.2891 25.0391 15.6172 24.7734L14.3828 24.2813V19.7187L15.6172 19.2266C16.2891 18.9609 16.9297 18.6641 17.0391 18.5625C17.1562 18.4531 17.3359 18.0391 17.5547 17.3672C17.7422 16.8047 18.1328 15.8594 18.4219 15.2578C19.1094 13.8516 19.1094 13.8359 18.4453 12.3359L17.9297 11.1875L21.1875 7.92969L22.3438 8.44531C23.1719 8.8125 23.5938 8.95312 23.8359 8.95312C24.0859 8.95312 24.4453 8.82031 25.2891 8.41406C25.9062 8.11719 26.8594 7.71875 27.4141 7.53906C28.1797 7.28906 28.4531 7.16406 28.5938 6.99219C28.6953 6.875 28.9453 6.34375 29.1562 5.8125C29.3594 5.28125 29.5703 4.73437 29.6328 4.59375L29.7344 4.34375L32.0078 4.35937L34.2813 4.38281L34.7734 5.61719Z" fill="#0D0D0D"/>
<path d="M30.3984 9.15625C28.2891 9.47656 26.3984 10.1875 24.7734 11.2891C21.9766 13.1641 20.0937 15.9766 19.3281 19.3984C19.1719 20.0703 19.1562 20.3906 19.1562 22C19.1562 23.6094 19.1719 23.9297 19.3281 24.6016C20.0937 28.0234 21.9766 30.8359 24.7734 32.7109C26.125 33.6328 27.5 34.2188 29.2344 34.625C29.2838 34.6368 29.3364 34.6484 29.3915 34.6597C31.1055 35.0109 32.9043 35.0638 34.6094 34.6719C39.7656 33.5156 43.5156 29.7656 44.6719 24.6094C44.8281 23.9297 44.8437 23.6094 44.8437 22C44.8437 20.3906 44.8281 20.0703 44.6719 19.3984C43.5234 14.2422 39.7656 10.4766 34.6406 9.33594C34.0625 9.20313 33.5781 9.17188 32.2734 9.14844C31.375 9.13281 30.5312 9.14062 30.3984 9.15625ZM33.7344 11.6563C37.5312 12.2813 40.8047 15.1172 41.9922 18.8125C42.3359 19.9063 42.4687 20.7656 42.4687 22C42.4687 23.7656 42.125 25.2109 41.3281 26.7656C36.0625 35.125 25.75 32.7109 22.7109 26.8437C21.8594 25.1641 21.6016 24.1797 21.5547 22.3516C21.5078 20.8359 21.6094 20.0781 22.0078 18.8203C23.3047 14.7734 27.0469 11.8125 31.2187 11.5391C32.1562 11.4766 32.875 11.5078 33.7344 11.6563Z" fill="#0D0D0D"/>
</svg>
