<svg width="40" height="40" viewBox="0 0 40 40" fill="none" xmlns="http://www.w3.org/2000/svg">
<path fill-rule="evenodd" clip-rule="evenodd" d="M26.3316 25.246C28.3638 22.1688 29.8109 19.4274 29.8109 16.603C29.8109 11.4212 25.1134 6.77674 20.3722 6.77674C15.2431 6.77674 10.1887 11.2382 10.1887 16.603C10.1887 19.2674 11.453 21.7401 13.6681 24.8702C15.9772 28.1333 19.0677 27.9684 20.3722 27.9684C21.5826 27.9684 24.2092 28.4598 26.3316 25.246ZM20.3722 36.5194C27.2672 34.2887 34.8981 24.9045 34.8981 16.603C34.8981 8.30149 28.6003 1.57178 20.3722 1.57178C12.1442 1.57178 5.10156 8.30149 5.10156 16.603C5.10156 24.9045 13.0957 34.2887 20.3722 36.5194Z" fill="#FDB602"/>
<path d="M18.3214 1.26532C16.1578 1.5805 14.7681 1.99097 13.0917 2.82657C10.1759 4.27787 7.66138 6.78467 6.14978 9.74592C4.00059 13.9312 3.79283 18.9815 5.58383 23.5772C7.29603 27.9825 10.8422 32.3951 15.5848 36.016L16.2868 36.5511H13.6792C11.0858 36.5511 11.0714 36.5511 10.8278 36.7197C10.1831 37.1594 10.1831 38.1417 10.8278 38.5814L11.0714 38.75H28.9384L29.182 38.5814C29.8124 38.1562 29.8339 37.1961 29.225 36.7417C29.0316 36.595 28.9098 36.5877 26.4023 36.5511L23.7803 36.5144L24.4538 35.994C30.2853 31.5008 34.0893 26.1501 35.2643 20.7846C35.6296 19.1207 35.7299 16.8045 35.5078 15.06C34.7054 8.68308 30.0273 3.26636 23.9594 1.70511C22.541 1.33862 22.0538 1.27998 20.2557 1.25799C19.31 1.24333 18.4432 1.25066 18.3214 1.26532ZM21.0795 3.5229C22.5338 3.60353 24.3607 4.10929 25.8364 4.84227C29.3826 6.60876 32.0619 9.9585 33.0076 13.8287C33.3371 15.1553 33.4231 16.0716 33.3801 17.6402C33.3514 18.7909 33.3013 19.2527 33.1508 19.9857C32.5777 22.793 31.2023 25.6077 29.0674 28.3417C28.1933 29.4704 25.8651 31.8747 24.6615 32.8862C23.4723 33.8977 22.1183 34.9238 20.9578 35.7008L20.0049 36.3385L19.0592 35.7008C17.8916 34.9238 16.5376 33.8977 15.3483 32.8862C14.1448 31.8747 11.8165 29.4704 10.9425 28.3417C8.81475 25.615 7.43214 22.7857 6.85902 19.9857C6.70857 19.2527 6.65842 18.7909 6.62977 17.6402C6.58679 16.0716 6.67276 15.1553 7.0023 13.8287C8.256 8.71242 12.4183 4.70301 17.5047 3.70615C18.2784 3.55955 19.7184 3.42762 20.184 3.47159C20.3058 3.47892 20.707 3.50092 21.0795 3.5229Z" fill="#0D0D0D"/>
<path d="M18.2139 5.72197C15.9287 6.13244 13.9872 7.11463 12.3323 8.68325C8.22733 12.5827 7.5969 19.0476 10.8565 23.7753C11.4368 24.6109 12.6332 25.835 13.4857 26.4507C14.7107 27.3376 16.1865 27.9973 17.7626 28.3564C18.3644 28.4957 18.6867 28.5177 20.0049 28.5177C21.3302 28.5177 21.6455 28.4957 22.2472 28.3564C24.4752 27.8507 26.3379 26.8245 27.8853 25.2633C29.8267 23.2988 30.9443 20.8507 31.1951 18.0288C31.3312 16.4895 31.1234 14.7963 30.622 13.3157C29.662 10.479 27.6704 8.15547 25.0556 6.82877C24.0382 6.30835 23.3577 6.05914 22.3476 5.83191C21.5022 5.63401 19.0522 5.57537 18.2139 5.72197ZM21.5452 8.00887C23.9093 8.40467 26.123 9.89267 27.4913 11.9889C29.8697 15.6392 29.4256 20.4109 26.4167 23.5261C25.1988 24.7868 23.8878 25.5564 22.0825 26.0548C21.4592 26.2308 21.2802 26.2454 20.0049 26.2454C18.7297 26.2454 18.5507 26.2308 17.9274 26.0548C16.9531 25.7837 16.165 25.4612 15.4916 25.0433C10.9568 22.2507 9.63149 16.4308 12.5186 11.9889C14.5102 8.93242 17.9703 7.40782 21.5452 8.00887Z" fill="#0D0D0D"/>
<path d="M15.6849 12.5971C15.5274 12.6924 15.3626 12.8756 15.2766 13.0662C15.1334 13.3594 15.1334 13.484 15.1476 17.8452C15.1691 22.2358 15.1691 22.3238 15.3196 22.5216C15.5417 22.8369 15.7996 22.9981 16.122 23.042C16.5303 23.1007 16.9888 22.8589 17.1965 22.485C17.3542 22.1991 17.3542 22.1918 17.3542 17.7426C17.3542 13.6379 17.347 13.2568 17.2252 13.0295C17.0461 12.663 16.7739 12.4871 16.3369 12.4578C16.036 12.4359 15.8999 12.4651 15.6849 12.5971Z" fill="#0D0D0D"/>
<path d="M20.006 12.5973C19.8771 12.6926 19.698 12.8612 19.6192 12.9711C19.4688 13.1764 19.4688 13.2277 19.4688 17.7429V22.3094L19.6765 22.5805C20.0418 23.0716 20.5362 23.1815 21.0806 22.8957C21.6107 22.6245 21.6537 22.456 21.6537 20.814V19.3994H22.4848C23.7814 19.3994 24.548 19.1282 25.2644 18.4172C27.1987 16.4895 26.2458 13.0958 23.5952 12.5167C23.3874 12.4727 22.5492 12.436 21.7325 12.436C20.3069 12.436 20.2352 12.4434 20.006 12.5973ZM23.3731 14.8475C23.5092 14.9209 23.717 15.1041 23.8316 15.2507C24.0107 15.4706 24.0465 15.5879 24.0465 15.9104C24.0537 16.2475 24.0178 16.3502 23.8316 16.592C23.4877 17.0319 23.237 17.1271 22.3917 17.1271H21.6537V14.7083H22.3917C22.9719 14.7083 23.1797 14.7376 23.3731 14.8475Z" fill="#0D0D0D"/>
</svg>
