<svg width="40" height="40" viewBox="0 0 40 40" fill="none" xmlns="http://www.w3.org/2000/svg">
<path d="M5 29.0001H34V37.0001H5V29.0001Z" fill="#FDB602"/>
<path d="M4.5551 27.6837C4.42134 27.7579 4.24076 27.9264 4.15382 28.068C4.05317 28.2357 4 28.4275 4 28.6231V32.7745C4 37.1438 4 37.2314 4.14045 37.4607C4.21401 37.5888 4.37452 37.7641 4.50159 37.845C4.64522 37.9459 4.81649 38.0001 4.99203 38.0001H34.508C34.6835 38.0001 34.8548 37.9459 34.9984 37.845C35.1255 37.7641 35.286 37.5888 35.3595 37.4607C35.5 37.2314 35.5 37.1438 35.5 32.7745V28.6023C35.5 28.4206 35.449 28.2425 35.3529 28.0882C35.2726 27.9534 35.0853 27.7781 34.9449 27.6972C34.7694 27.5999 34.5721 27.5488 34.3715 27.5488H19.7433C5.11688 27.5556 4.79586 27.5556 4.5551 27.6837ZM33.7888 36.2105H5.72841V29.2936H33.7888V36.2105Z" fill="black"/>
<path d="M22.9601 31.6079C22.6591 31.6888 22.318 32.026 22.2177 32.3227C22.0572 32.8081 22.3046 33.415 22.7661 33.651C23.0136 33.7858 23.5218 33.7791 23.8027 33.6442C23.9432 33.5768 24.1037 33.415 24.2107 33.2329C24.3511 32.9902 24.3779 32.8756 24.3511 32.5789C24.291 31.8507 23.6623 31.4057 22.9601 31.6079Z" fill="black"/>
<path d="M26.5717 31.6079C25.8561 31.8102 25.5551 32.7272 26.0099 33.3341C26.2573 33.6577 26.5248 33.7724 26.9729 33.7387C27.421 33.7049 27.7086 33.5296 27.8758 33.1723C28.0229 32.8486 27.9828 32.2687 27.7955 32.0125C27.528 31.6484 27.0131 31.4798 26.5717 31.6079Z" fill="black"/>
<path d="M30.1694 31.6079C29.815 31.7023 29.4672 32.1069 29.4137 32.498C29.3736 32.7474 29.3937 32.8688 29.5207 33.125C29.728 33.5498 30.0357 33.7521 30.4637 33.7521C31.1526 33.7521 31.5338 33.3947 31.5739 32.707C31.594 32.3699 31.5739 32.262 31.4401 32.0732C31.1659 31.6619 30.6643 31.4731 30.1694 31.6079Z" fill="black"/>
<path d="M8.5808 31.8709C8.16615 32.0394 7.91201 32.444 7.91201 32.9295C7.91201 33.2936 8.07921 33.6038 8.40023 33.8465C8.58749 33.9881 8.6343 33.9881 12.5601 33.9881C16.4859 33.9881 16.5327 33.9881 16.72 33.8465C17.0477 33.6038 17.2082 33.2936 17.2082 32.9227C17.2082 32.471 17.0009 32.1069 16.6397 31.9316C16.3722 31.8035 16.2318 31.7967 12.5534 31.8034C10.1926 31.8034 8.68781 31.8304 8.5808 31.8709Z" fill="black"/>
<path d="M23.2427 5.24952L18.1354 4.74165L14.7813 15.6413L20.1936 16.8133L19.66 23.2593L26.2157 12.3597L21.4895 11.1486L23.2427 5.24952Z" fill="#FDB602"/>
<path d="M18.3298 4.06188C17.6285 4.21424 16.9501 4.7729 16.6642 5.43703C16.6146 5.55033 15.9934 7.59743 15.2883 9.98831L14 14.3325V14.8209C14 15.2154 14.0152 15.36 14.0839 15.5827C14.3163 16.3328 14.9186 16.9578 15.658 17.2157C15.8981 17.2977 15.9705 17.3016 17.6514 17.3133C18.608 17.3211 19.3932 17.3329 19.3932 17.3446C19.3932 17.3563 19.0997 18.3642 18.7414 19.5792C18.2841 21.1262 18.082 21.8724 18.0668 22.0482C18.0058 22.9272 18.5775 23.7086 19.458 23.943C20.0411 24.0992 20.6357 23.9312 21.0931 23.4781C21.3027 23.271 21.661 22.6967 24.0088 18.8252C25.48 16.3953 26.7302 14.3052 26.7874 14.1763C27.1304 13.4027 27.0542 12.5042 26.5892 11.7932C26.3529 11.4299 26.0556 11.1564 25.6821 10.9533C25.2056 10.6993 25.0646 10.6798 23.7115 10.6798C22.7396 10.6798 22.5186 10.672 22.5186 10.629C22.5186 10.5978 22.8197 9.75 23.1894 8.74208C23.5591 7.73416 23.8869 6.82 23.9135 6.71452C23.9822 6.46449 23.9898 5.9449 23.9288 5.67534C23.7497 4.87447 23.0865 4.21424 22.2975 4.04235C21.985 3.97594 18.6461 3.99156 18.3298 4.06188ZM22.1946 5.80817C22.4423 6.0621 22.4728 5.94099 21.4361 8.78115C20.7844 10.5665 20.4985 11.3947 20.4985 11.5041C20.4985 11.8049 20.6814 12.0979 20.9635 12.2464C21.0969 12.3167 21.2074 12.3206 22.854 12.3206C24.2833 12.3206 24.6339 12.3323 24.7902 12.3792C25.2056 12.5042 25.4686 12.9886 25.339 13.391C25.3162 13.4731 24.0965 15.5084 22.6367 17.9189C20.5214 21.4036 19.9611 22.3061 19.8925 22.3139C19.7896 22.3295 19.6981 22.2592 19.6981 22.1654C19.6981 22.1303 20.0602 20.8723 20.5023 19.3682C21.2303 16.9031 21.3065 16.6179 21.2913 16.4187C21.2722 16.157 21.1388 15.9265 20.9216 15.7858L20.7844 15.6999L18.4975 15.6803C16.2487 15.6608 16.2068 15.6608 16.0582 15.5749C15.7685 15.4147 15.6199 15.1725 15.6199 14.8521C15.6199 14.6607 16.1306 12.8793 18.0439 6.42933C18.1507 6.06601 18.2955 5.86286 18.5356 5.75347C18.6766 5.68706 18.8253 5.67925 20.3765 5.67925H22.0688L22.1946 5.80817Z" fill="black"/>
</svg>
