<svg width="64" height="64" viewBox="0 0 64 64" fill="none" xmlns="http://www.w3.org/2000/svg">
<g clip-path="url(#clip0_481_2035)">
<rect x="14" y="3" width="36" height="58" fill="#FDB602"/>
<path d="M15.875 0.862694C14.9125 1.17519 14.4375 1.43769 13.7875 2.03769C13.0625 2.71269 12.6 3.38769 12.2625 4.28769C12.0375 4.91269 12 5.27519 12 7.05019V9.0877L10.5125 9.23769C6.12502 9.67519 3.13752 11.2377 1.58752 13.8752C0.287517 16.1002 0.150017 18.9752 1.20002 22.2127C1.95002 24.5502 3.83752 27.8252 5.93752 30.4252C6.48752 31.1002 6.98752 31.7377 7.06252 31.8252C7.20002 32.0252 7.27502 31.9127 5.96252 33.5752C3.18752 37.1127 1.47502 40.4377 0.800017 43.6252C0.525017 44.9502 0.612517 47.6502 0.975017 48.6627C1.46252 49.9877 2.03752 50.9127 3.00002 51.8752C4.76252 53.6377 7.21252 54.5752 10.7125 54.8127L11.975 54.9002L12.025 57.1127C12.0625 59.3127 12.0625 59.3127 12.475 60.1627C13.1875 61.6002 14.475 62.6502 16.0625 63.0752C16.9875 63.3252 46.8875 63.3252 47.8125 63.0752C49.6625 62.5877 51.0875 61.2627 51.625 59.5502C51.825 58.8627 51.875 58.3752 51.875 56.7502V54.7752L52.7875 54.6877C55.4 54.4502 57.125 54.0127 58.75 53.1752C64.5125 50.2127 64.9125 43.5752 59.7625 35.9252C59.2125 35.1002 58.3875 33.9627 57.9125 33.4002C56.7625 31.9877 56.7875 32.0252 56.9375 31.8252C57.0125 31.7252 57.45 31.1752 57.9125 30.6002C59.975 28.1002 62.0875 24.4377 62.7875 22.1877C63.3125 20.4752 63.425 19.7502 63.425 18.0627C63.4125 16.6502 63.375 16.3002 63.0875 15.4252C62.65 14.1127 62.0125 13.1377 60.9 12.1127C59.075 10.4252 56.5625 9.50019 52.975 9.18769L52.025 9.10019L51.975 6.8252L51.9375 4.56269L51.525 3.7127C50.8 2.25019 49.4 1.11269 47.8625 0.762695C47.5125 0.675194 41.8625 0.637695 31.9375 0.637695C17.5625 0.637695 16.5125 0.650192 15.875 0.862694ZM47.2625 5.03769C48.0125 5.53769 48 5.4002 47.975 15.0127L47.9375 23.7377L47.0625 23.0752C46.5875 22.7127 45.2 21.7252 44 20.8877C37.4 16.2627 28.9125 12.2877 21.5625 10.3752C20.175 10.0127 16.4375 9.25019 16.0375 9.25019C15.9375 9.25019 16.025 6.25019 16.125 5.85019C16.2 5.60019 16.425 5.25019 16.6375 5.0752L17.025 4.75019H31.925H46.8375L47.2625 5.03769ZM12 20.2377V27.2252L11.1 28.0502C10.6 28.5127 10.15 28.8627 10.1 28.8502C9.92502 28.7752 8.58752 27.0377 7.68752 25.6877C6.58752 24.0502 5.65002 22.2002 5.17502 20.7502C4.88752 19.8752 4.82502 19.4502 4.82502 18.3752C4.81252 17.2002 4.85002 16.9877 5.15002 16.3502C6.00002 14.5252 8.40002 13.3377 11.4125 13.2627L12 13.2502V20.2377ZM54.6125 13.5877C58.9125 14.4377 60.25 17.2627 58.475 21.7502C58.0375 22.8627 57.1625 24.5127 56.4625 25.5627C55.8375 26.5002 53.9875 28.8752 53.8875 28.8752C53.85 28.8752 53.4125 28.4627 52.9125 27.9752L52 27.0752V20.1502V13.2252L52.85 13.3127C53.3125 13.3627 54.1 13.4877 54.6125 13.5877ZM18 13.8877C23.125 14.8502 29.6125 17.3627 35.4375 20.6252C39.4 22.8502 42.6125 25.0252 46.6625 28.2252L48 29.2877V32.1252V34.9627L47.0375 35.7752C40.3625 41.3377 31.775 46.1502 23.875 48.7252C21.275 49.5752 19.075 50.1127 16.35 50.5627L16 50.6127V32.0752V13.5377L16.35 13.5877C16.5375 13.6252 17.275 13.7502 18 13.8877ZM11.075 35.9627L12 36.7877V43.7752C12 47.6127 11.9625 50.7502 11.9 50.7502C11.85 50.7502 11.325 50.6877 10.75 50.6252C7.73752 50.2502 5.87502 49.2377 5.10002 47.5627C4.85002 47.0252 4.81252 46.7377 4.82502 45.6252C4.82502 44.5502 4.88752 44.1252 5.17502 43.2502C5.65002 41.7877 6.58752 39.9502 7.68752 38.3127C8.52502 37.0627 9.98752 35.1252 10.1 35.1252C10.125 35.1252 10.5625 35.5002 11.075 35.9627ZM54.6875 36.0627C56.5 38.3252 58.1375 41.1752 58.825 43.2502C59.1125 44.1252 59.175 44.5502 59.175 45.6252C59.1875 46.7377 59.15 47.0252 58.9 47.5627C58.125 49.2377 56.2625 50.2502 53.25 50.6252C52.675 50.6877 52.15 50.7502 52.1 50.7502C52.0375 50.7502 52 47.6127 52 43.7752V36.8127L52.9 35.9752C53.4 35.5127 53.85 35.1502 53.9 35.1627C53.95 35.1752 54.3 35.5752 54.6875 36.0627ZM47.9375 57.8627C47.875 58.2627 47.7375 58.5377 47.4375 58.8377L47.025 59.2502H32.025H17.025L16.6375 58.9252C16.125 58.5002 16 57.9627 16 56.2252V54.7627L16.4125 54.7002C22.85 53.6627 27.375 52.1877 33.8125 49.0002C38.225 46.8127 43.475 43.6252 46.9375 41.0252L47.9375 40.2627L47.975 48.7877C48 53.4752 47.975 57.5627 47.9375 57.8627Z" fill="black"/>
<path d="M27.2496 9.8125V9.875C27.2496 10.9796 28.145 11.875 29.2496 11.875H31.9996H34.7496C35.8541 11.875 36.7496 10.9796 36.7496 9.875V9.8125V9.75C36.7496 8.64543 35.8541 7.75 34.7496 7.75H31.9996H29.2496C28.145 7.75 27.2496 8.64543 27.2496 9.75V9.8125Z" fill="black"/>
<path d="M29.625 54C29.625 55.1046 30.5204 56 31.625 56H31.9375H32.25C33.3546 56 34.25 55.1046 34.25 54C34.25 52.8954 33.3546 52 32.25 52H31.9375H31.625C30.5204 52 29.625 52.8954 29.625 54Z" fill="black"/>
</g>
<defs>
<clipPath id="clip0_481_2035">
<rect width="64" height="64" fill="white"/>
</clipPath>
</defs>
</svg>
