<svg width="40" height="40" viewBox="0 0 40 40" fill="none" xmlns="http://www.w3.org/2000/svg">
<path d="M8.57576 5.6H27.4848V12.4L31.0303 15.2L32.2121 19.6L30.6364 23.2L27.4848 25.6V34.4H8.57576V5.6Z" fill="#FDB602"/>
<path fill-rule="evenodd" clip-rule="evenodd" d="M10.2832 5.80942C9.4794 5.80942 8.82777 6.45451 8.82777 7.25026V32.7497C8.82777 33.5455 9.4794 34.1906 10.2832 34.1906H25.4808C26.2846 34.1906 26.9362 33.5455 26.9362 32.7497V28.5278C26.9362 28.0281 27.3454 27.623 27.8501 27.623C28.3548 27.623 28.764 28.0281 28.764 28.5278V32.7497C28.764 34.5448 27.2941 36 25.4808 36H10.2832C8.46995 36 7 34.5448 7 32.7497V7.25026C7 5.45519 8.46995 4 10.2832 4H25.3792C27.1925 4 28.6625 5.45519 28.6625 7.25026V9.93089C28.6625 10.4305 28.2533 10.8356 27.7486 10.8356C27.2439 10.8356 26.8347 10.4305 26.8347 9.93089V7.25026C26.8347 6.45451 26.1831 5.80942 25.3792 5.80942H10.2832ZM10.2832 8.52356C10.2832 7.72781 10.9348 7.08272 11.7387 7.08272H24.6007C25.4046 7.08272 26.0562 7.72781 26.0562 8.52356V9.72984C26.0562 10.2295 25.647 10.6346 25.1423 10.6346C24.6376 10.6346 24.2284 10.2295 24.2284 9.72984V8.89215H12.111V29.2984H23.9238V28.5278C23.9238 28.0281 24.333 27.623 24.8377 27.623C25.3424 27.623 25.7516 28.0281 25.7516 28.5278V29.667C25.7516 30.4628 25.0999 31.1079 24.2961 31.1079H11.7387C10.9348 31.1079 10.2832 30.4628 10.2832 29.667V8.52356ZM25.1214 11.3717H25.1423C28.9872 11.3717 31.6342 14.1969 32.4208 16.1263C33.2826 18.24 33.1758 20.3571 32.1464 22.2417C30.9766 24.3836 28.6852 26.5173 25.1423 26.5173C23.0452 26.5173 21.5095 25.9351 20.3647 25.0664C19.2381 24.2116 18.5546 23.1272 18.0745 22.2378C17.0706 20.378 16.9361 17.9568 17.8542 16.072L17.8671 16.0456L17.8816 16.0202C18.4958 14.943 19.2622 13.8136 20.4135 12.9372C21.5823 12.0476 23.0864 11.4641 25.1004 11.3727L25.1214 11.3717ZM22.9355 13.2632C22.5936 13.4276 21.658 13.8975 21.3851 14.1053C20.9375 14.4459 20.3442 15.1134 20 15.5602H21.4196C21.7011 14.9499 22.5362 13.8169 22.9355 13.2632ZM20.7962 17.3696H19.1613C18.8057 18.4606 18.6995 19.7105 19.1613 20.8421L20.752 20.9067C20.59 20.1571 20.5427 19.3958 20.6009 18.6372C20.6337 18.21 20.6997 17.7867 20.7962 17.3696ZM22.6348 20.9067C22.4312 20.1952 22.3694 19.4777 22.4234 18.7743C22.4595 18.3038 22.548 17.8335 22.6844 17.3696H27.3442C27.3858 17.5237 27.4221 17.6797 27.4524 17.8377C27.6293 18.7583 27.6142 19.7862 27.2476 20.9067H22.6348ZM21.3851 22.7161H20C20.2658 23.0469 20.8984 23.9376 21.2581 24.2105C21.7649 24.5951 22.6457 24.4882 22.9355 24.6316C22.5917 24.1799 21.6199 23.1922 21.3851 22.7161ZM26.9362 25.0664C29.2258 24.6316 29.6896 23.3684 30.0645 22.7161H28.4689C28.2212 23.2113 27.2976 24.5614 26.9362 25.0664ZM26.3755 22.7161H23.4913C23.8881 23.2995 24.44 24.5293 25.0904 25.0664C25.6284 24.4878 26.0278 23.2617 26.3755 22.7161ZM29.1485 20.9067H31.3226C31.7915 19.8087 31.7023 18.6179 31.3226 17.3696H29.2219C29.231 17.4128 29.2396 17.4562 29.248 17.4996C29.4555 18.5794 29.4483 19.7213 29.1485 20.9067ZM28.629 15.5602H30.4839C29.9137 14.864 29.2258 13.6842 27.2476 13.2632C27.6412 13.8232 28.3293 14.8907 28.629 15.5602ZM25.1423 12.9372C24.5017 13.5511 23.9046 14.8321 23.4762 15.5602H26.5856C26.1554 14.803 25.6783 13.5264 25.1423 12.9372Z" fill="#0D0D0D"/>
<path d="M19.6061 32.64C19.6061 33.3028 19.0769 33.84 18.4242 33.84C17.7715 33.84 17.2424 33.3028 17.2424 32.64C17.2424 31.9773 17.7715 31.44 18.4242 31.44C19.0769 31.44 19.6061 31.9773 19.6061 32.64Z" fill="#0D0D0D"/>
</svg>
