<svg width="64" height="64" viewBox="0 0 64 64" fill="none" xmlns="http://www.w3.org/2000/svg">
<path fill-rule="evenodd" clip-rule="evenodd" d="M18 7C18 3.68629 20.6863 1 24 1H52C55.3137 1 58 3.68629 58 7V57C58 60.3137 55.3137 63 52 63H24C20.6863 63 18 60.3137 18 57V7ZM24 5C22.8954 5 22 5.89543 22 7V57C22 58.1046 22.8954 59 24 59H52C53.1046 59 54 58.1046 54 57V7C54 5.89543 53.1046 5 52 5H24Z" fill="black"/>
<path d="M22.001 7.00003C22.001 5.89545 22.8964 5 24.001 5L52 5C53.1046 5 54 5.89543 54 7V57C54 58.1046 53.1046 59 52 59H24C22.8954 59 22 58.1046 22 57C22.0007 55.2237 22.0015 53.0338 22.0018 51.2851C22.0019 50.7802 21.8109 50.2944 21.4673 49.9244L9.35938 36.8878C9.12333 36.6336 8.95744 36.3225 8.878 35.9848L5.4448 21.3937C5.19674 20.3395 5.83292 19.2793 6.8799 19.0022L20.5129 15.3939C21.3901 15.1617 22.0011 14.368 22.0011 13.4605L22.001 7.00003Z" fill="#FDB602"/>
<path fill-rule="evenodd" clip-rule="evenodd" d="M5.05911 17.3725C9.68161 16.712 13.5267 15.4572 17.1827 13.4098C18.8636 12.4852 19.9562 12.0008 20.4604 12.0008C20.9857 11.9788 22.0363 12.3971 23.8222 13.2777C26.9109 14.8408 30.6719 16.1837 33.6766 16.8221C34.8742 17.0863 36.0088 17.3725 36.1979 17.4826C37.2275 18.055 37.2695 20.7848 36.303 25.8263C35.0213 32.4528 32.2688 38.661 28.4237 43.5703C26.9529 45.4416 23.7172 48.7439 22.0573 50.0428C19.8931 51.7599 19.0737 51.4297 14.5773 46.8726C10.1649 42.4035 7.24429 37.8244 5.24821 32.2326C3.88248 28.402 3.02101 23.8009 3 20.4106C3 19.0456 3.06303 18.7594 3.52528 18.165C3.94551 17.6587 4.3027 17.4826 5.05911 17.3725ZM8.57462 20.1327C12.1095 19.6246 15.0498 18.6594 17.8456 17.0845C19.131 16.3732 19.9665 16.0006 20.3521 16.0006C20.7538 15.9837 21.5572 16.3055 22.9229 16.9828C25.2848 18.1852 28.1609 19.2182 30.4585 19.7093C31.3744 19.9125 32.242 20.1327 32.3867 20.2174C33.174 20.6577 33.2061 22.7575 32.467 26.6356C31.4869 31.7329 29.382 36.5085 26.4417 40.2849C25.3169 41.7243 22.8426 44.2645 21.5732 45.2637C19.9183 46.5846 19.2916 46.3305 15.8532 42.8251C12.479 39.3873 10.2456 35.8649 8.71922 31.5636C7.67483 28.6169 7.01607 25.0776 7 22.4697C7 21.4197 7.0482 21.1996 7.40169 20.7423C7.72304 20.3528 7.99618 20.2174 8.57462 20.1327Z" fill="#0D0D0D"/>
<path d="M22.9061 26.1153C22.745 26.2061 21.7494 27.1746 20.6807 28.2643L18.7481 30.2317L17.9282 29.4599C17.1961 28.7637 17.0204 28.6729 16.4641 28.6729C15.4831 28.6729 15 29.1723 15 30.1863C15 30.6808 15.1948 31.1554 15.5422 31.5074L16.4641 32.4412C17.0225 33.0015 17.5421 33.3607 17.9737 33.5909C18.6923 33.9741 19.5064 33.6873 20.0963 33.1257C21.6193 31.6757 24.5193 28.8761 24.8094 28.3097C25.3218 27.3411 24.7508 26.1758 23.6967 26.0093C23.4185 25.9791 23.0671 26.0245 22.9061 26.1153Z" fill="#0D0D0D"/>
<path d="M33 9C33 10.1046 33.8954 11 35 11H41C42.1046 11 43 10.1046 43 9C43 7.89543 42.1046 7 41 7H35C33.8954 7 33 7.89543 33 9Z" fill="black"/>
<path d="M36.7141 52.4398C35.3063 53.6897 36.1134 56 37.9717 56C38.9103 56 39.3607 55.7538 39.7174 55.0532C40.1867 54.1252 40.074 53.3867 39.3607 52.6671C38.5724 51.8717 37.4837 51.777 36.7141 52.4398Z" fill="#0D0D0D"/>
</svg>
