<svg width="48" height="48" viewBox="0 0 48 48" fill="none" xmlns="http://www.w3.org/2000/svg">
<g clip-path="url(#clip0_679_8080)">
<path d="M12.2836 30.9375L23.3586 36.7456L17.9454 47.0676L14.9531 39.9375L6.8704 41.2595L12.2836 30.9375Z" fill="#FDB602"/>
<path d="M24.9862 36.9545L35.9101 31.4215L41.1626 41.7915L33.7357 40.0475L30.2387 47.3245L24.9862 36.9545Z" fill="#FDB602"/>
<path d="M41.8125 18.2812C41.8125 28.1188 33.8376 36.0937 24 36.0937C14.1624 36.0937 6.1875 28.1188 6.1875 18.2812C6.1875 8.44367 14.1624 0.468744 24 0.468744C33.8376 0.468744 41.8125 8.44367 41.8125 18.2812Z" fill="#FDB602"/>
<path d="M23.3063 0.24375C23.1094 0.440625 23.0625 0.58125 23.0625 0.9375C23.0625 1.29375 23.1094 1.43437 23.3063 1.63125C23.5031 1.82812 23.6438 1.875 24 1.875C24.3563 1.875 24.4969 1.82812 24.6938 1.63125C24.8906 1.43437 24.9375 1.29375 24.9375 0.9375C24.9375 0.58125 24.8906 0.440625 24.6938 0.24375C24.4969 0.046875 24.3563 0 24 0C23.6438 0 23.5031 0.046875 23.3063 0.24375Z" fill="black"/>
<path d="M18.2156 0.890627C15.2812 1.86563 12.4031 3.70313 10.4625 5.84063C7.22813 9.40313 5.53125 13.7156 5.53125 18.3656C5.53125 23.2219 7.29375 27.6188 10.6969 31.2563L11.2781 31.8844L10.9031 32.6063C6.0375 41.8031 6.0375 41.7938 6.57187 42.3375C7.0125 42.7781 7.25625 42.7406 10.9219 41.7375C13.1813 41.1188 14.3156 40.8469 14.3531 40.9125C14.3906 40.9688 14.9344 42.4875 15.5719 44.2781C16.3687 46.5187 16.8094 47.6156 16.9594 47.775C17.2781 48.0938 17.9719 48.0938 18.2906 47.7656C18.4125 47.6437 19.7344 45.1969 21.2344 42.3281C22.725 39.4688 23.9719 37.125 24 37.125C24.0375 37.125 25.275 39.4688 26.775 42.3281C28.2656 45.1969 29.5875 47.6437 29.7094 47.7656C30.0281 48.0938 30.7219 48.0938 31.0406 47.775C31.1906 47.6156 31.6313 46.5187 32.4281 44.2781C33.0656 42.4875 33.6094 40.9688 33.6469 40.9125C33.6844 40.8375 34.8 41.1094 37.0781 41.7375C40.7438 42.7406 40.9875 42.7781 41.4281 42.3375C41.925 41.8406 41.8781 41.7 39.6 37.3594C38.4562 35.1937 37.35 33.075 37.125 32.6438L36.7313 31.875L37.3125 31.2469C40.1625 28.2094 41.8688 24.6 42.3281 20.625C42.975 15.1406 41.3063 9.99375 37.5375 5.84063C35.5875 3.68438 32.7094 1.85625 29.7844 0.890627C28.2469 0.384377 27.9375 0.365627 27.5531 0.740627C27.3375 0.965627 27.2812 1.09688 27.2812 1.43438C27.2812 2.09063 27.4406 2.22188 28.9781 2.71875C32.4188 3.84375 35.1469 5.78438 37.2188 8.57813C38.8688 10.8094 39.8156 13.0594 40.3312 15.9375C40.4906 16.8563 40.4906 19.9688 40.3219 20.9062C40.0219 22.6406 39.5719 24.0469 38.8594 25.5469C36.5063 30.4594 31.9781 33.825 26.4844 34.7438C25.2281 34.9594 22.7719 34.9594 21.5156 34.7438C14.8313 33.6281 9.6 28.8375 7.9875 22.3594C7.63125 20.9344 7.54688 20.2219 7.54688 18.4219C7.54688 16.1156 7.84687 14.4375 8.59687 12.525C10.4812 7.725 14.2312 4.21875 19.0781 2.7C20.5031 2.25938 20.7188 2.09063 20.7188 1.44375C20.7188 1.09688 20.6625 0.965627 20.4469 0.740627C20.0625 0.365627 19.725 0.384377 18.2156 0.890627ZM15.8906 35.0156C16.5656 35.3438 17.5594 35.7656 18.1125 35.9437C19.0688 36.2625 21.2156 36.75 21.6469 36.75C21.75 36.75 21.8438 36.7687 21.8438 36.7969C21.8438 36.8719 17.9063 44.3813 17.8313 44.4563C17.7938 44.4938 17.3906 43.4531 16.9312 42.1594C16.4719 40.8563 16.0125 39.5906 15.9094 39.3469C15.7125 38.8781 15.3844 38.625 14.9813 38.625C14.8594 38.625 13.5469 38.9625 12.0469 39.375C10.5562 39.7781 9.31875 40.0969 9.3 40.0781C9.2625 40.05 11.175 36.3375 12.3938 34.0594L12.8531 33.1969L13.7625 33.8063C14.2594 34.1437 15.225 34.6875 15.8906 35.0156ZM36.9844 36.6844C37.95 38.5312 38.7281 40.0594 38.7094 40.0781C38.6906 40.0969 37.4531 39.7781 35.9531 39.3656C34.4625 38.9625 33.1406 38.625 33.0188 38.625C32.8969 38.625 32.6812 38.6906 32.5312 38.7656C32.2312 38.925 32.175 39.0563 30.975 42.4406C30.5625 43.5844 30.2063 44.4938 30.1688 44.4563C30.1031 44.3813 26.1562 36.8719 26.1562 36.8063C26.1562 36.7875 26.4188 36.7406 26.7469 36.7031C27.6 36.6094 29.6437 36.0656 30.6656 35.6719C31.8937 35.1844 33.1687 34.5187 34.2188 33.8156C34.7062 33.4781 35.1375 33.2344 35.175 33.2719C35.2031 33.3 36.0187 34.8375 36.9844 36.6844Z" fill="black"/>
<path d="M21.75 4.81875C16.0219 5.85 11.7094 10.0031 10.4813 15.6844C10.2 16.9781 10.1813 19.6781 10.4344 20.9531C10.8281 22.8844 11.5406 24.6 12.6094 26.2031C13.35 27.3094 15.0656 29.0344 16.2 29.8031C21.6281 33.4688 28.7719 32.9062 33.4875 28.425C36.3938 25.65 37.9125 21.9094 37.7531 17.9063C37.6031 14.3063 36.2531 11.2219 33.75 8.71875C31.7719 6.74063 29.5781 5.54063 26.8125 4.92188C25.8563 4.70625 22.7344 4.65 21.75 4.81875ZM26.0156 6.80625C28.8844 7.275 31.6125 8.94375 33.4031 11.325C36.9844 16.0969 36.525 22.5656 32.3063 26.7656C29.9906 29.0625 27.2063 30.225 24 30.225C20.8031 30.225 18 29.0531 15.6938 26.7656C14.2969 25.3687 13.425 23.9625 12.7875 22.0781C10.7719 16.05 14.0344 9.46875 20.1094 7.28438C21.9375 6.6375 23.9625 6.46875 26.0156 6.80625Z" fill="black"/>
<path d="M23.4 13.0406C23.2688 13.1438 23.0156 13.5375 22.8375 13.9031C22.6688 14.2781 22.2188 15.1969 21.8531 15.9469L21.1969 17.3156L18.9281 16.8094C17.5688 16.5 16.575 16.3219 16.4344 16.3594C16.3125 16.3875 16.0969 16.5187 15.975 16.6406C15.5906 17.025 15.6656 17.4094 16.5938 19.8094C17.0625 21 17.4375 22.0125 17.4375 22.05C17.4375 22.0875 17.3344 22.125 17.2125 22.125C17.0906 22.125 16.8844 22.2375 16.7438 22.3688C16.5469 22.5656 16.5 22.7062 16.5 23.0625C16.5 23.5781 16.7813 23.9437 17.2594 24.0375C17.6438 24.1125 30.3563 24.1125 30.7406 24.0375C31.2188 23.9437 31.5 23.5781 31.5 23.0625C31.5 22.7062 31.4531 22.5656 31.2563 22.3688C31.1156 22.2375 30.9094 22.125 30.7875 22.125C30.6656 22.125 30.5625 22.0875 30.5625 22.05C30.5625 22.0031 30.9375 21 31.4063 19.8187C32.3438 17.4375 32.4188 17.0344 32.025 16.6406C31.9031 16.5187 31.6875 16.3875 31.5563 16.35C31.4156 16.3219 30.4969 16.4813 29.1844 16.7812C28.0125 17.0438 26.9906 17.2688 26.925 17.2781C26.85 17.2875 26.4188 16.5 25.8281 15.2812C25.2563 14.0906 24.7594 13.1813 24.6094 13.0594C24.2906 12.7781 23.7375 12.7688 23.4 13.0406ZM24.75 17.6344C25.1344 18.4125 25.5469 19.125 25.6688 19.2281C25.9969 19.4813 26.4 19.4531 28.0781 19.0687C28.8844 18.8812 29.5688 18.75 29.5969 18.7781C29.625 18.8062 29.3625 19.575 29.0063 20.475L28.3781 22.125H19.6219L19.125 20.8312C18.8531 20.1281 18.5531 19.35 18.4594 19.1156L18.3 18.6844L19.8469 19.05C21.6281 19.4531 22.0031 19.4813 22.3313 19.2188C22.4719 19.1156 22.8656 18.4312 23.2594 17.625C23.6344 16.8563 23.9625 16.2188 24 16.2188C24.0281 16.2188 24.3656 16.8563 24.75 17.6344Z" fill="black"/>
</g>
<defs>
<clipPath id="clip0_679_8080">
<rect width="48" height="48" fill="white"/>
</clipPath>
</defs>
</svg>
