<svg width="64" height="64" viewBox="0 0 64 64" fill="none" xmlns="http://www.w3.org/2000/svg">
<path d="M36.112 53.2748C36.6917 53.8082 37.3975 54.25 38.1872 54.25H52.7377C53.9871 54.25 55 55.2573 55 56.5C55 57.7426 53.9871 58.75 52.7377 58.75H38.1872C37.3975 58.75 36.6917 59.1918 36.112 59.7252C35.2548 60.5141 34.0842 61 32.7935 61C31.5029 61 30.3322 60.5141 29.475 59.7252C28.8954 59.1918 28.1895 58.75 27.3998 58.75H11.2623C10.0129 58.75 9 57.7426 9 56.5C9 55.2573 10.0129 54.25 11.2623 54.25H27.3998C28.1895 54.25 28.8954 53.8082 29.475 53.2748C29.6724 53.0931 29.8864 52.9275 30.1148 52.7801C30.1148 51.9999 30.1148 51.2499 30.1148 50.4999C30.7716 50.4999 34.2623 50.5003 35.3934 50.4999C35.3934 51.2502 35.3934 52.3753 35.3934 52.7304C35.6514 52.8898 35.8921 53.0723 36.112 53.2748Z" fill="#0D0D0D"/>
<path d="M19.5574 7.62199C19.5574 6.37935 20.5702 5.37198 21.8197 5.37198H44.4426C45.6921 5.37198 46.7049 6.37935 46.7049 7.62199V46.6222C46.7049 47.8649 45.6921 48.8723 44.4426 48.8723H21.8197C20.5702 48.8723 19.5574 47.8649 19.5574 46.6222V7.62199Z" fill="#FDB602"/>
<path fill-rule="evenodd" clip-rule="evenodd" d="M17.2951 7.75002C17.2951 5.67894 18.9832 4 21.0656 4H43.6885C45.7709 4 47.459 5.67894 47.459 7.75002V46.7503C47.459 48.8214 45.7709 50.5003 43.6885 50.5003H21.0656C18.9832 50.5003 17.2951 48.8214 17.2951 46.7503V7.75002ZM21.0656 7.00002C20.6491 7.00002 20.3115 7.33581 20.3115 7.75002V46.7503C20.3115 47.1645 20.6491 47.5003 21.0656 47.5003H43.6885C44.105 47.5003 44.4426 47.1645 44.4426 46.7503V7.75002C44.4426 7.33581 44.105 7.00002 43.6885 7.00002H21.0656Z" fill="#0D0D0D"/>
<path d="M28.6066 10C28.6066 10.8285 29.2818 11.5 30.1148 11.5H34.6393C35.4723 11.5 36.1475 10.8285 36.1475 10C36.1475 9.17161 35.4723 8.50003 34.6393 8.50003H30.1148C29.2818 8.50003 28.6066 9.17161 28.6066 10Z" fill="black"/>
<path d="M31.3279 42.5C30.2663 43.4374 30.8279 45 31.8279 45.5C32.4955 45.8338 34 45.6557 34.3279 45C34.8279 44 34.5379 43.1198 34 42.5801C33.4055 41.9836 31.9082 42.0029 31.3279 42.5Z" fill="#0D0D0D"/>
<rect x="23" y="14" width="19" height="2" rx="1" fill="#0D0D0D"/>
<rect x="23" y="19" width="19" height="2" rx="1" fill="#0D0D0D"/>
<rect x="23" y="24" width="14" height="2" rx="1" fill="#0D0D0D"/>
<rect x="23" y="29" width="16" height="2" rx="1" fill="#0D0D0D"/>
<rect x="23" y="34" width="9" height="2" rx="1" fill="#0D0D0D"/>
</svg>
