<svg width="40" height="40" viewBox="0 0 40 40" fill="none" xmlns="http://www.w3.org/2000/svg">
<path d="M22.1684 3.39339C23.1163 3.73889 24.1493 4.8001 24.5017 5.77492C24.842 6.70039 24.842 7.93435 24.5017 8.87215C24.1493 9.83464 23.092 10.8958 22.1319 11.266C21.1597 11.6362 19.7378 11.5869 18.8628 11.1426C18 10.7231 17.0521 9.69891 16.7483 8.85982C16.408 7.93435 16.408 6.70039 16.7483 5.76258C17.0885 4.83711 18.158 3.73889 19.0573 3.39339C19.9688 3.03554 21.2448 3.03554 22.1684 3.39339ZM21.8646 14.2037C22.8247 14.2901 24.4167 14.9071 25.3646 15.5488C27.941 17.2763 29.3628 20.028 29.375 23.2363V24.3592L28.0747 25.0379C25.9358 26.1361 24.0642 26.679 21.8889 26.8271C18.6927 27.0492 16.0191 26.5063 13.1875 25.0379L11.875 24.3592V23.2363C11.8872 19.2753 14.1354 15.956 17.7083 14.6356C18.6684 14.2778 20.1753 14.0186 20.8681 14.0927C21.0382 14.1174 21.4878 14.1667 21.8646 14.2037Z" fill="#FDB602"/>
<path fill-rule="evenodd" clip-rule="evenodd" d="M31.0413 25.3695L28.8356 26.5207C26.5175 27.711 24.4271 28.3249 22.0029 28.49C18.5075 28.7327 15.5284 28.1294 12.4211 26.5182C12.4207 26.518 12.4203 26.5178 12.4199 26.5176L10.208 25.3739V23.2314C10.2222 18.614 12.8683 14.6485 17.1281 13.0733C17.4911 12.9381 17.8975 12.8201 18.3064 12.7231C18.2438 12.6954 18.182 12.6662 18.121 12.6355C17.46 12.3114 16.851 11.8076 16.3727 11.2912C15.8973 10.7777 15.4348 10.1263 15.1823 9.43138C14.706 8.13279 14.709 6.49563 15.1812 5.19427L15.1836 5.18758C15.4596 4.43694 15.9729 3.73759 16.4991 3.19756C17.0217 2.66117 17.7069 2.1282 18.4534 1.84001C19.7531 1.33159 21.4504 1.33321 22.755 1.83358C23.5223 2.11694 24.2146 2.63582 24.7497 3.18311C25.2902 3.73581 25.7899 4.43976 26.0672 5.20401C26.5434 6.50254 26.5403 8.13954 26.0681 9.44079L26.0665 9.44539C25.7851 10.2138 25.2716 10.9167 24.7277 11.4651C24.2435 11.9533 23.6402 12.4146 22.9812 12.7159C23.4005 12.8211 23.8244 12.9613 24.2181 13.113C24.9355 13.3894 25.6897 13.7571 26.2954 14.1666C29.3547 16.2194 31.0272 19.5005 31.0413 23.2302L31.0414 23.2365L31.0413 25.3695ZM21.8643 14.2039C22.8243 14.2903 24.4163 14.9073 25.3643 15.5489C27.9407 17.2765 29.3625 20.0282 29.3747 23.2365V24.3594L28.0743 25.038C25.9354 26.1363 24.0639 26.6792 21.8886 26.8273C18.6924 27.0494 16.0188 26.5065 13.1872 25.038L11.8747 24.3594V23.2365C11.8868 19.2755 14.1351 15.9561 17.708 14.6358C18.6681 14.2779 20.175 14.0188 20.8677 14.0928C21.0379 14.1175 21.4875 14.1669 21.8643 14.2039ZM24.5014 5.77508C24.149 4.80026 23.116 3.73906 22.1681 3.39355C21.2445 3.0357 19.9684 3.0357 19.057 3.39355C18.1577 3.73906 17.0882 4.83728 16.7479 5.76274C16.4077 6.70055 16.4077 7.93451 16.7479 8.85998C17.0518 9.69907 17.9997 10.7233 18.8625 11.1428C19.7375 11.587 21.1594 11.6364 22.1316 11.2662C23.0917 10.896 24.149 9.8348 24.5014 8.87232C24.8417 7.93451 24.8417 6.70055 24.5014 5.77508Z" fill="#0D0D0D"/>
<path fill-rule="evenodd" clip-rule="evenodd" d="M4.375 19.375H35.625V27.7961H33.4698V30.9539H35.625V39.375H4.375V30.9539H6.53017V27.7961H4.375V19.375Z" fill="#FDB602"/>
<path fill-rule="evenodd" clip-rule="evenodd" d="M4.5367 39.792C4.31064 39.6654 4.10266 39.4394 3.96702 39.1952C3.75904 38.7973 3.75904 38.7883 3.75904 35.2707C3.75904 31.8707 3.76809 31.7261 3.94894 31.3463C4.22926 30.7585 4.58192 30.5596 5.35957 30.5144L6.01968 30.4872V28.2447H5.45904C4.71755 28.2447 4.25638 27.9915 3.96702 27.4309L3.75 27.033L3.80426 19.7809L4.03936 19.4101C4.175 19.2112 4.41915 18.9851 4.58191 18.9037C4.86223 18.7681 6.15532 18.75 20.3069 18.75H35.7245L36.0771 18.958C36.3032 19.0846 36.5112 19.3106 36.6468 19.5548C36.8548 19.9527 36.8548 19.9617 36.8548 23.4973C36.8548 27.033 36.8548 27.042 36.6468 27.4399C36.3574 27.9915 35.8963 28.2447 35.1638 28.2447H34.5942V30.5053H35.1638C35.8963 30.5053 36.3574 30.7585 36.6468 31.3101C36.8548 31.708 36.8548 31.717 36.8548 35.2527C36.8548 38.7883 36.8548 38.7973 36.6468 39.1952C36.5112 39.4394 36.3032 39.6654 36.0771 39.792L35.7245 40H4.88936L4.5367 39.792ZM23.4085 35.9309H35.408V37.1787C35.408 38.0287 35.3718 38.4628 35.2995 38.5351C35.2181 38.6165 31.7729 38.6436 20.3431 38.6436C12.1777 38.6436 5.43192 38.6165 5.35053 38.5894C5.22394 38.5441 5.20585 38.1644 5.20585 35.2527C5.20585 32.7117 5.23298 31.9612 5.3234 31.925C5.37766 31.8979 12.1234 31.8707 20.3069 31.8707C31.7729 31.8617 35.2181 31.8888 35.2995 31.9702C35.3718 32.0426 35.408 32.4766 35.408 33.3266V34.5745H23.3904L23.2005 34.7734C22.9654 35.0356 22.9654 35.4606 23.2186 35.7229L23.4085 35.9309ZM23.4085 24.1755H35.408V25.4234C35.408 26.2734 35.3718 26.7074 35.2995 26.7798C35.2181 26.8612 31.7729 26.7798 20.3431 26.7798C12.1777 26.7798 5.54043 26.8069 5.45904 26.7798C5.33245 26.7346 5.45904 26.409 5.45904 23.4973C5.45904 20.9564 5.45904 20.1633 5.3234 20.1697C5.37766 20.1426 12.1234 20.1154 20.3069 20.1154C31.7729 20.1064 35.2181 20.1335 35.2995 20.2149C35.3718 20.2872 35.408 20.7213 35.408 21.5713V22.8191H23.3904L23.2005 23.0181C22.9654 23.2803 22.9654 23.7053 23.2186 23.9676L23.4085 24.1755ZM7.46649 30.5053V28.2447H33.1473V30.5053H7.46649Z" fill="#0D0D0D"/>
<path d="M7.56484 21.1642C7.40208 21.2456 7.15793 21.4717 7.02229 21.6706C6.79623 22.0232 6.78718 22.0956 6.76006 23.3977C6.73293 24.6908 6.74197 24.7812 6.94995 25.1701C7.08559 25.4232 7.29357 25.6493 7.51963 25.7759C7.84516 25.9658 7.98984 25.9839 9.27389 25.9839C10.5579 25.9839 10.7026 25.9658 11.0281 25.7759C11.2542 25.6493 11.4622 25.4232 11.5978 25.1791C11.7877 24.8174 11.8058 24.6637 11.8058 23.4972C11.8058 22.3307 11.7877 22.177 11.5978 21.8153C11.4622 21.5711 11.2542 21.3451 11.0281 21.2185C10.7026 21.0286 10.5579 21.0105 9.27389 21.0105C8.15261 21.0105 7.80899 21.0467 7.56484 21.1642ZM10.2505 22.4754C10.3952 22.6201 10.3952 24.3743 10.2505 24.519C10.1329 24.6365 8.59569 24.6727 8.33346 24.5732C8.21591 24.528 8.18878 24.3472 8.18878 23.4972C8.18878 22.7647 8.22495 22.4573 8.30633 22.4302C8.55048 22.3307 10.142 22.3669 10.2505 22.4754Z" fill="#0D0D0D"/>
<path d="M14.7992 21.1642C14.6365 21.2456 14.3923 21.4717 14.2567 21.6706C14.0306 22.0232 14.0216 22.0956 13.9944 23.3977C13.9673 24.6908 13.9763 24.7812 14.1843 25.1701C14.32 25.4232 14.5279 25.6493 14.754 25.7759C15.0795 25.9658 15.2242 25.9839 16.5083 25.9839C17.7923 25.9839 17.937 25.9658 18.2625 25.7759C18.4886 25.6493 18.6966 25.4232 18.8322 25.1791C19.0221 24.8174 19.0402 24.6637 19.0402 23.4972C19.0402 22.3307 19.0221 22.177 18.8322 21.8153C18.6966 21.5711 18.4886 21.3451 18.2625 21.2185C17.937 21.0286 17.7923 21.0105 16.5083 21.0105C15.387 21.0105 15.0434 21.0467 14.7992 21.1642ZM17.4849 22.4754C17.6295 22.6201 17.6295 24.3743 17.4849 24.519C17.3673 24.6365 15.8301 24.6727 15.5678 24.5732C15.4503 24.528 15.4232 24.3472 15.4232 23.4972C15.4232 22.7647 15.4593 22.4573 15.5407 22.4302C15.7849 22.3307 17.3763 22.3669 17.4849 22.4754Z" fill="#0D0D0D"/>
<path d="M7.56484 32.9196C7.40208 33.001 7.15793 33.227 7.02229 33.426C6.79623 33.7786 6.78718 33.851 6.76006 35.1531C6.73293 36.4462 6.74197 36.5366 6.94995 36.9254C7.08559 37.1786 7.29357 37.4047 7.51963 37.5313C7.84516 37.7212 7.98984 37.7393 9.27389 37.7393C10.5579 37.7393 10.7026 37.7212 11.0281 37.5313C11.2542 37.4047 11.4622 37.1786 11.5978 36.9345C11.7877 36.5728 11.8058 36.419 11.8058 35.2526C11.8058 34.0861 11.7877 33.9323 11.5978 33.5706C11.4622 33.3265 11.2542 33.1004 11.0281 32.9738C10.7026 32.7839 10.5579 32.7659 9.27389 32.7659C8.15261 32.7659 7.80899 32.802 7.56484 32.9196ZM10.2505 34.2307C10.3952 34.3754 10.3952 36.1297 10.2505 36.2744C10.1329 36.3919 8.59569 36.4281 8.33346 36.3286C8.21591 36.2834 8.18878 36.1026 8.18878 35.2526C8.18878 34.5201 8.22495 34.2127 8.30633 34.1855C8.55048 34.0861 10.142 34.1222 10.2505 34.2307Z" fill="#0D0D0D"/>
<path d="M14.7992 32.9196C14.6365 33.001 14.3923 33.227 14.2567 33.426C14.0306 33.7786 14.0216 33.851 13.9944 35.1531C13.9673 36.4462 13.9763 36.5366 14.1843 36.9254C14.32 37.1786 14.5279 37.4047 14.754 37.5313C15.0795 37.7212 15.2242 37.7393 16.5083 37.7393C17.7923 37.7393 17.937 37.7212 18.2625 37.5313C18.4886 37.4047 18.6966 37.1786 18.8322 36.9345C19.0221 36.5728 19.0402 36.419 19.0402 35.2526C19.0402 34.0861 19.0221 33.9323 18.8322 33.5706C18.6966 33.3265 18.4886 33.1004 18.2625 32.9738C17.937 32.7839 17.7923 32.7659 16.5083 32.7659C15.387 32.7659 15.0434 32.802 14.7992 32.9196ZM17.4849 34.2307C17.6295 34.3754 17.6295 36.1297 17.4849 36.2744C17.3673 36.3919 15.8301 36.4281 15.5678 36.3286C15.4503 36.2834 15.4232 36.1026 15.4232 35.2526C15.4232 34.5201 15.4593 34.2127 15.5407 34.1855C15.7849 34.0861 17.3763 34.1222 17.4849 34.2307Z" fill="#0D0D0D"/>
</svg>
