<svg width="40" height="40" viewBox="0 0 40 40" fill="none" xmlns="http://www.w3.org/2000/svg">
<path d="M1 6L13.5 6.5L20.5 9L26.5 6.5L39 6V31L20.5 33L1 31V6Z" fill="#FDB602"/>
<path d="M37.6429 5H27.9393C25.8569 5 23.8212 5.60205 22.0696 6.73783L20 8.0743L17.9304 6.73783C16.1805 5.60227 14.1426 4.99888 12.0607 5H2.35714C1.60647 5 1 5.61059 1 6.36636V30.6191C1 31.3749 1.60647 31.9855 2.35714 31.9855H12.0607C14.1431 31.9855 16.1788 32.5875 17.9304 33.7233L19.8134 34.9445C19.8685 34.9787 19.9321 35 19.9958 35C20.0594 35 20.123 34.9829 20.1781 34.9445L22.0612 33.7233C23.817 32.5875 25.8569 31.9855 27.9393 31.9855H37.6429C38.3935 31.9855 39 31.3749 39 30.6191V6.36636C39 5.61059 38.3935 5 37.6429 5ZM12.0607 28.9112H4.05357V8.0743H12.0607C13.5621 8.0743 15.021 8.50555 16.2806 9.32109L18.3502 10.6576L18.6429 10.8497V30.5764C16.6241 29.4833 14.3679 28.9112 12.0607 28.9112ZM35.9464 28.9112H27.9393C25.6321 28.9112 23.3759 29.4833 21.3571 30.5764V10.8497L21.6498 10.6576L23.7194 9.32109C24.979 8.50555 26.4379 8.0743 27.9393 8.0743H35.9464V28.9112ZM15.1185 13.5397H7.23862C7.07321 13.5397 6.9375 13.6849 6.9375 13.86V15.7814C6.9375 15.9564 7.07321 16.1016 7.23862 16.1016H15.1143C15.2797 16.1016 15.4154 15.9564 15.4154 15.7814V13.86C15.4196 13.6849 15.2839 13.5397 15.1185 13.5397ZM24.5804 13.86V15.7814C24.5804 15.9564 24.7161 16.1016 24.8815 16.1016H32.7571C32.9225 16.1016 33.0583 15.9564 33.0583 15.7814V13.86C33.0583 13.6849 32.9225 13.5397 32.7571 13.5397H24.8815C24.7161 13.5397 24.5804 13.6849 24.5804 13.86ZM15.1185 19.5175H7.23862C7.07321 19.5175 6.9375 19.6627 6.9375 19.8377V21.7592C6.9375 21.9342 7.07321 22.0794 7.23862 22.0794H15.1143C15.2797 22.0794 15.4154 21.9342 15.4154 21.7592V19.8377C15.4196 19.6627 15.2839 19.5175 15.1185 19.5175ZM32.7614 19.5175H24.8815C24.7161 19.5175 24.5804 19.6627 24.5804 19.8377V21.7592C24.5804 21.9342 24.7161 22.0794 24.8815 22.0794H32.7571C32.9225 22.0794 33.0583 21.9342 33.0583 21.7592V19.8377C33.0625 19.6627 32.9268 19.5175 32.7614 19.5175Z" fill="#0D0D0D"/>
</svg>
