<svg width="40" height="40" viewBox="0 0 40 40" fill="none" xmlns="http://www.w3.org/2000/svg">
<path d="M18.9499 7.02411C18.1129 3.51289 14.9004 1.93207 12.0786 1.93207C12.0786 1.93207 12.0786 1.93207 12.0706 1.93207C9.25669 1.93207 6.03626 3.50529 5.19927 7.01651C4.26662 10.9381 6.78557 14.2594 9.06538 16.3494C9.91034 17.1246 10.9944 17.5122 12.0786 17.5122C13.1627 17.5122 14.2468 17.1246 15.0838 16.3494C17.3636 14.2594 19.8825 10.9457 18.9499 7.02411Z" fill="#FDB602"/>
<path d="M12.6121 26.6481L22.1046 17.5302L31.7761 26.6481V35.6775C31.7761 36.8508 30.8139 37.802 29.6269 37.802H24.1195V31.3841H19.7762V37.802H14.7614C13.5744 37.802 12.6121 36.8508 12.6121 35.6775V26.6481Z" fill="#FDB602"/>
<path fill-rule="evenodd" clip-rule="evenodd" d="M27.612 18.9984L22.098 13.7386L9.93003 25.5291L11.6226 27.2359L22.1112 17.0727L32.7725 27.2425L34.4514 25.5225L30.0299 21.3048V13.5466H27.612V18.9984Z" fill="#FDB602"/>
<path d="M21.2696 12.8606C21.1079 12.9156 20.8552 13.0405 20.7137 13.1305C20.5772 13.2254 17.9898 15.7489 14.9727 18.7371C10.2526 23.4142 9.46926 24.2137 9.35303 24.4536C9.15088 24.8783 9.10035 25.1482 9.12562 25.6878C9.14078 26.1226 9.16099 26.2125 9.33282 26.5623C9.67647 27.2819 10.3132 27.7616 11.1067 27.9015C11.2936 27.9315 11.5514 27.9465 11.6727 27.9265L11.895 27.8965V31.949C11.895 36.4213 11.8849 36.3014 12.2134 36.916C12.552 37.5506 13.3404 38.1452 14.0327 38.2902C14.2096 38.3251 15.2204 38.3401 17.1357 38.3301L19.9708 38.3151L20.1073 38.1902C20.3953 37.9254 20.3852 38.0353 20.3852 34.8672V31.944H23.7206V34.8672C23.7206 38.0353 23.7105 37.9254 23.9986 38.1902L24.135 38.3151L26.9701 38.3301C28.8855 38.3401 29.8962 38.3251 30.0731 38.2902C30.7655 38.1452 31.5538 37.5506 31.8924 36.916C32.2209 36.3014 32.2108 36.4213 32.2108 31.949V27.8965L32.4332 27.9265C32.9537 28.0014 33.7421 27.7366 34.1918 27.3468C35.0762 26.5773 35.2632 25.1931 34.6113 24.2287C34.5153 24.0888 33.7572 23.2993 32.9183 22.4748L31.4022 20.9757V17.138C31.4022 12.9806 31.4174 13.1754 31.1243 12.9056L30.9878 12.7807L27.1268 12.7507L26.9499 12.8656C26.6164 13.0905 26.6012 13.1605 26.6012 14.7795V16.2286L25.075 14.7195C24.2311 13.895 23.4477 13.1605 23.3315 13.0905C22.7756 12.7457 21.8963 12.6508 21.2696 12.8606ZM29.8356 19.4266L28.1679 17.7776V14.2548H29.8356V19.4266ZM22.3915 14.3547C22.5734 14.4247 33.2468 24.9683 33.3479 25.1781C33.449 25.388 33.4439 25.7128 33.3378 25.9327C33.2468 26.1276 32.979 26.3224 32.7313 26.3724C32.3422 26.4524 32.4736 26.5673 27.3593 21.5254C24.7061 18.907 22.4774 16.7383 22.4117 16.7033C22.346 16.6683 22.1843 16.6433 22.0529 16.6433C21.9215 16.6433 21.7598 16.6683 21.6941 16.7033C21.6284 16.7383 19.3997 18.907 16.7466 21.5254C11.6322 26.5673 11.7636 26.4524 11.3745 26.3724C11.1269 26.3224 10.859 26.1276 10.7681 25.9327C10.6619 25.7128 10.6569 25.388 10.758 25.1781C10.854 24.9833 21.5273 14.4247 21.6992 14.3597C21.871 14.2948 22.2146 14.2948 22.3915 14.3547ZM26.3586 22.7846L30.6442 27.022V35.8716L30.5128 36.1315C30.3713 36.4113 30.1843 36.5812 29.8558 36.7261C29.6789 36.8061 29.4414 36.8161 27.4755 36.8311L25.2923 36.846L25.2772 33.8729C25.262 30.9596 25.262 30.8997 25.1559 30.7647C25.1003 30.6898 24.9891 30.5799 24.9133 30.5249C24.7768 30.42 24.7213 30.42 22.0529 30.42C19.3846 30.42 19.329 30.42 19.1925 30.5249C19.1167 30.5799 19.0056 30.6898 18.95 30.7647C18.8438 30.8997 18.8438 30.9596 18.8287 33.8729L18.8135 36.846L16.6303 36.8311C14.6644 36.8161 14.4269 36.8061 14.25 36.7261C13.9216 36.5812 13.7346 36.4113 13.5931 36.1315L13.4617 35.8716V27.022L17.7421 22.7896C20.1022 20.456 22.0378 18.5522 22.0529 18.5522C22.0681 18.5522 24.0036 20.456 26.3586 22.7846Z" fill="#0D0D0D"/>
<path fill-rule="evenodd" clip-rule="evenodd" d="M10.0205 15.5927C10.6009 16.1433 11.3396 16.4154 12.0786 16.4154C12.8187 16.4154 13.5543 16.1427 14.124 15.5971L14.1265 15.5947L14.129 15.5923C16.3336 13.5024 18.3669 10.5476 17.6054 7.23466C16.9451 4.37041 14.4226 3.02885 12.0786 3.02885H12.0706C9.73083 3.02885 7.20336 4.36552 6.54378 7.2268C5.78208 10.5404 7.81681 13.5036 10.0205 15.5927ZM5.19927 6.92428C6.03626 3.29335 9.25669 1.6665 12.0706 1.6665H12.0786C14.9004 1.6665 18.1129 3.30121 18.9499 6.93214C19.8825 10.9875 17.3636 14.414 15.0838 16.5753C14.2468 17.3769 13.1627 17.7778 12.0786 17.7778C10.9944 17.7778 9.91034 17.3769 9.06538 16.5753C6.78557 14.414 4.26662 10.9796 5.19927 6.92428ZM9.56757 8.39394C9.56757 9.76143 10.6915 10.8696 12.0786 10.8696C13.4656 10.8696 14.5895 9.76143 14.5895 8.39394C14.5895 7.02645 13.4656 5.91831 12.0786 5.91831C10.6915 5.91831 9.56757 7.02645 9.56757 8.39394Z" fill="#0D0D0D"/>
</svg>
