<svg width="65" height="64" viewBox="0 0 65 64" fill="none" xmlns="http://www.w3.org/2000/svg">
<path d="M9.41061 8.46351H21.1937L22.4635 3.62558H42.3729L44.1505 8.46351H56.8478V61.7815H9.41061V8.46351Z" fill="#FDB602"/>
<path d="M24.2006 1.1663C22.3417 1.60978 20.6351 3.00069 19.7412 4.80483L19.4264 5.41965L15.8203 5.45997C12.2244 5.50028 12.2041 5.50028 11.3915 5.77242C9.56307 6.37716 8.14097 7.58664 7.32834 9.22952C6.61729 10.6809 6.66808 8.74573 6.66808 34.7698C6.66808 61.0055 6.60713 58.7578 7.39944 60.3705C7.9886 61.5699 9.11612 62.6887 10.3249 63.2732C11.94 64.0594 10.071 63.9989 32.6722 63.9989C55.2633 63.9989 53.4044 64.0594 55.0195 63.2732C56.2283 62.6887 57.3558 61.5699 57.945 60.3705C58.7474 58.7578 58.6763 61.0357 58.656 34.5077L58.6256 10.7313L58.3919 10.0762C57.6402 7.99988 56.0759 6.47795 53.9529 5.77242C53.1403 5.50028 53.1301 5.50028 49.5241 5.45997L45.9181 5.41965L45.6032 4.80483C44.689 2.96037 43.0129 1.60978 41.1032 1.1663C40.1586 0.944565 25.1249 0.944565 24.2006 1.1663ZM40.0976 5.65147C40.6055 5.81273 41.1642 6.26629 41.4384 6.78032C41.6416 7.1734 41.6619 7.34474 41.6619 8.86668C41.6619 10.691 41.5807 11.0034 40.9306 11.6082C40.2906 12.2129 40.5547 12.1928 32.6722 12.1928C24.7897 12.1928 25.0538 12.2129 24.4139 11.6082C23.7841 11.0135 23.6927 10.6809 23.6825 8.96747C23.6825 7.90917 23.7231 7.28427 23.8146 7.02222C24.0583 6.34692 24.5967 5.86313 25.3585 5.63131C25.7953 5.50028 39.6507 5.52044 40.0976 5.65147ZM19.0607 10.3987C19.0708 11.0337 19.3654 12.1524 19.7514 12.9487C20.4625 14.4101 21.6408 15.5491 23.1441 16.2143C24.4342 16.7888 24.2513 16.7787 32.6722 16.7787C41.3369 16.7787 40.9306 16.8089 42.4949 16.0631C44.0998 15.2971 45.3391 13.8961 45.9282 12.1625C46.0704 11.7291 46.2228 11.0841 46.2533 10.7212L46.3142 10.0762H52.3378L52.8965 10.3483C53.3028 10.56 53.5161 10.7515 53.7498 11.1244L54.0545 11.6182L54.085 34.548C54.0951 50.5837 54.0748 57.5887 53.9936 57.8709C53.9428 58.0926 53.7091 58.4655 53.4857 58.7074C52.7238 59.5238 54.5116 59.4634 32.6925 59.4634C17.5878 59.4634 13.1488 59.4331 12.8237 59.3424C12.2549 59.1711 11.4931 58.4252 11.3509 57.891C11.2696 57.5887 11.2493 50.9667 11.2594 34.548L11.2899 11.6182L11.5946 11.1345C11.8181 10.7716 12.0517 10.56 12.4479 10.3584L12.9863 10.0762H19.0607V10.3987Z" fill="black"/>
<path d="M42.9418 25.9607C42.4238 26.2228 42.18 26.5352 36.2071 34.4573C32.7941 38.9828 29.9702 42.7221 29.9296 42.7624C29.889 42.8128 28.6903 42.0871 27.2784 41.1498C25.8563 40.2124 24.5459 39.386 24.3529 39.3255C23.3067 38.9626 22.108 39.4565 21.5798 40.4442C21.2446 41.0792 21.2649 42.0367 21.6408 42.6717C21.8846 43.095 22.2909 43.3873 25.582 45.5745C27.6034 46.9049 29.4014 48.064 29.5842 48.1345C30.2648 48.4168 31.372 48.2555 31.9002 47.7919C32.2354 47.4996 45.9993 29.2061 46.1415 28.8534C46.2228 28.672 46.2838 28.289 46.2838 27.9967C46.2736 26.2731 44.496 25.1947 42.9418 25.9607Z" fill="black"/>
</svg>
