<svg width="40" height="40" viewBox="0 0 40 40" fill="none" xmlns="http://www.w3.org/2000/svg">
<circle cx="31.5" cy="24.5" r="5.5" fill="#FDB602"/>
<path d="M2.19247 6.93048H35.5816V15.0722H2.19247V6.93048Z" fill="#FDB602"/>
<path d="M2.19247 15.0722H35.5816L35.5029 23.8488V33.8194L2.19247 33.6043V15.0722Z" fill="#FDB602"/>
<path fill-rule="evenodd" clip-rule="evenodd" d="M1 6.93048C1 6.41659 1.42711 6 1.95397 6H35.8996C36.4264 6 36.8536 6.41659 36.8536 6.93048V15.0431C36.8536 15.557 36.4264 15.9736 35.8996 15.9736H2.90795V32.5187H36C36.5269 32.5187 36.954 32.9353 36.954 33.4492C36.954 33.9631 36.5269 34.3797 36 34.3797H1.95397C1.42711 34.3797 1 33.9631 1 33.4492V6.93048ZM2.90795 14.1126H34.9456V7.86096H2.90795V14.1126ZM24.3153 10.8559C24.3153 10.3421 24.7424 9.92547 25.2692 9.92547H31.2544C31.7813 9.92547 32.2084 10.3421 32.2084 10.8559C32.2084 11.3698 31.7813 11.7864 31.2544 11.7864H25.2692C24.7424 11.7864 24.3153 11.3698 24.3153 10.8559ZM6.09184 11.0304C6.09184 10.5165 6.51895 10.0999 7.04582 10.0999H7.13515C7.66201 10.0999 8.08912 10.5165 8.08912 11.0304C8.08912 11.5443 7.66201 11.9609 7.13515 11.9609H7.04582C6.51895 11.9609 6.09184 11.5443 6.09184 11.0304ZM10.2904 11.0304C10.2904 10.5165 10.7175 10.0999 11.2444 10.0999H11.3337C11.8605 10.0999 12.2877 10.5165 12.2877 11.0304C12.2877 11.5443 11.8605 11.9609 11.3337 11.9609H11.2444C10.7175 11.9609 10.2904 11.5443 10.2904 11.0304ZM5.91318 19.8409C5.91318 19.327 6.34029 18.9104 6.86715 18.9104H18.3015C18.8283 18.9104 19.2554 19.327 19.2554 19.8409C19.2554 20.3548 18.8283 20.7714 18.3015 20.7714H6.86715C6.34029 20.7714 5.91318 20.3548 5.91318 19.8409ZM5.91318 24.2025C5.91318 23.6887 6.34029 23.2721 6.86715 23.2721H18.3015C18.8283 23.2721 19.2554 23.6887 19.2554 24.2025C19.2554 24.7164 18.8283 25.133 18.3015 25.133H6.86715C6.34029 25.133 5.91318 24.7164 5.91318 24.2025ZM5.91318 28.3897C5.91318 27.8758 6.34029 27.4592 6.86715 27.4592H18.3015C18.8283 27.4592 19.2554 27.8758 19.2554 28.3897C19.2554 28.9036 18.8283 29.3202 18.3015 29.3202H6.86715C6.34029 29.3202 5.91318 28.9036 5.91318 28.3897Z" fill="black"/>
<path fill-rule="evenodd" clip-rule="evenodd" d="M31.5833 20.5C29.3282 20.5 27.5 22.3282 27.5 24.5834C27.5 26.8385 29.3282 28.6667 31.5833 28.6667C33.8385 28.6667 35.6667 26.8385 35.6667 24.5834C35.6667 22.3282 33.8385 20.5 31.5833 20.5ZM25 24.5834C25 20.9475 27.9474 18 31.5833 18C35.2192 18 38.1667 20.9475 38.1667 24.5834C38.1667 28.2192 35.2192 31.1667 31.5833 31.1667C27.9474 31.1667 25 28.2192 25 24.5834Z" fill="#0C0507"/>
<path fill-rule="evenodd" clip-rule="evenodd" d="M35.3661 28.3661C35.8543 27.878 36.6457 27.878 37.1339 28.3661L38.8006 30.0328C39.2887 30.5209 39.2887 31.3124 38.8006 31.8006C38.3124 32.2887 37.5209 32.2887 37.0328 31.8006L35.3661 30.1339C34.878 29.6457 34.878 28.8543 35.3661 28.3661Z" fill="#0C0507"/>
</svg>
