<svg width="40" height="40" viewBox="0 0 40 40" fill="none" xmlns="http://www.w3.org/2000/svg">
<circle cx="24.5" cy="29.5" r="5.5" fill="#FDB602"/>
<path d="M35.9996 18.4573C34.4996 31 35.6663 22.868 20.9996 25C18.4794 25.3664 19.1507 27.9158 17.4996 30C11.9996 33.5 3.49961 29.5 3.99961 18.4573C3.99961 9.92045 11.1631 3 19.9996 3C28.8362 3 37.0133 9.98085 35.9996 18.4573Z" fill="#FDB602"/>
<path d="M17.8418 2.09106C13.7844 2.6307 10.1852 4.53293 7.39609 7.62236C5.03867 10.2261 3.56445 13.464 3.09961 17.0525C2.9668 18.1048 2.9668 20.2769 3.09961 21.3292C3.57773 25.0257 5.17813 28.4254 7.73477 31.1776C8.04688 31.5081 8.39219 31.8117 8.54492 31.8791C9.21563 32.1894 9.83984 31.8859 10.0324 31.1574C10.152 30.6919 10.0391 30.4558 9.29531 29.6599C8.26602 28.5469 7.30977 27.191 6.72539 26.0105C5.95508 24.4658 5.3375 22.368 5.21797 20.8772L5.17148 20.3376H11.3473L11.3938 21.2213C11.4934 23.1032 12.2238 26.6357 12.4629 27C12.8879 27.6678 13.9105 27.5599 14.2293 26.8179L14.3621 26.5143L13.7313 23.5889C13.6449 22.9346 13.552 22.1184 13.5254 21.7879C13.5055 21.4506 13.4723 20.9919 13.4523 20.7558L13.4125 20.3376H18.9375V20.5197C18.9441 20.8165 19.1699 21.2482 19.409 21.4236C19.7277 21.653 20.2723 21.653 20.591 21.4236C20.8301 21.2482 21.0559 20.8165 21.0625 20.5197V20.3376H26.5742V20.4927C26.5742 20.7153 26.8664 21.1133 27.1254 21.2415C27.723 21.5248 28.4602 21.174 28.5996 20.54L28.6461 20.3376H34.875L34.8484 20.486C34.8285 20.5737 34.7953 20.8233 34.7754 21.0459C34.7156 21.6462 34.4965 22.712 34.2707 23.481C34.0449 24.2837 34.0316 24.4726 34.2043 24.7896C34.4898 25.3495 35.207 25.5653 35.6719 25.2416C36.0105 25.0122 36.1301 24.8031 36.3359 24.0746C36.8074 22.4557 37 21.0324 37 19.1909C37 16.3713 36.4688 14.0238 35.2668 11.5752C32.7102 6.36096 27.7895 2.80608 22.125 2.09106C21.1156 1.96965 18.798 1.96965 17.8418 2.09106ZM18.9375 7.48745V10.6241H16.7793C15.5906 10.6241 14.6211 10.6106 14.6211 10.5904C14.6211 10.5094 15.1059 9.22779 15.3516 8.66791C16.1617 6.79941 17.4102 5.17375 18.5125 4.5734C18.725 4.45198 18.9109 4.3508 18.9242 4.3508C18.9309 4.3508 18.9375 5.76061 18.9375 7.48745ZM22.4105 5.29517C23.5195 6.34747 24.4027 7.84496 25.1531 9.93606C25.2793 10.2801 25.3789 10.5769 25.3789 10.5904C25.3789 10.6106 24.4094 10.6241 23.2207 10.6241H21.0625V4.34405L21.4742 4.56666C21.6934 4.68808 22.1184 5.01186 22.4105 5.29517ZM14.6277 5.6257C13.8906 6.77243 13.0938 8.52626 12.6488 9.99677L12.4629 10.6241H7.77461L7.9207 10.4015C8.89023 8.98495 10.5371 7.43349 12.1641 6.39468C12.9012 5.92925 14.6809 5.05233 14.9332 5.0321C14.9797 5.02535 14.8402 5.29517 14.6277 5.6257ZM25.9367 5.38286C27.7629 6.19232 29.6688 7.55491 30.9172 8.96471C31.3887 9.49761 32.2188 10.5364 32.2188 10.5971C32.2188 10.6106 31.1629 10.6241 29.8746 10.6241H27.5305L27.4508 10.3206C27.1121 9.03891 26.116 6.78592 25.3855 5.64594C25.1664 5.30866 25.0137 5.02535 25.0469 5.02535C25.0867 5.02535 25.4852 5.18724 25.9367 5.38286ZM11.8984 12.8366C11.8984 12.8636 11.8254 13.3763 11.7324 13.9699C11.5531 15.1233 11.3672 17.066 11.3672 17.7541V18.179H5.125L5.15156 18.0239C5.17148 17.9429 5.20469 17.6596 5.22461 17.4033C5.34414 16.1284 5.7625 14.5702 6.41328 13.0322L6.51953 12.7827H9.20898C10.6898 12.7827 11.8984 12.8096 11.8984 12.8366ZM18.9375 18.179H13.4125L13.459 17.518C13.5387 16.2363 13.698 14.8265 13.8574 13.8754C13.9504 13.3425 14.0234 12.8838 14.0234 12.8501C14.0234 12.8096 14.9598 12.7827 16.4805 12.7827H18.9375V18.179ZM25.9766 12.8366C25.9766 12.8703 26.0496 13.3358 26.1426 13.8822C26.3086 14.8738 26.4613 16.3038 26.541 17.518L26.5809 18.179H21.0625V12.7827H23.5195C24.8742 12.7827 25.9766 12.8096 25.9766 12.8366ZM33.6465 13.1671C34.2109 14.4218 34.6691 16.2161 34.8352 17.8215L34.8684 18.179H28.6594L28.5797 16.9446C28.5 15.6225 28.3539 14.4016 28.1746 13.4032L28.0551 12.7827H33.4738L33.6465 13.1671Z" fill="#0D0D0D"/>
<path fill-rule="evenodd" clip-rule="evenodd" d="M28.2253 30.3635C28.8055 28.1843 27.5093 25.9473 25.33 25.367C23.1508 24.7868 20.9138 26.083 20.3335 28.2623C19.7533 30.4415 21.0496 32.6785 23.2288 33.2587C25.4081 33.839 27.6451 32.5427 28.2253 30.3635ZM25.9732 22.9512C29.4867 23.8867 31.5766 27.4932 30.6411 31.0067C29.7057 34.5202 26.0991 36.61 22.5856 35.6746C19.0721 34.7391 16.9822 31.1325 17.9177 27.619C18.8532 24.1056 22.4598 22.0157 25.9732 22.9512Z" fill="#0C0507"/>
<path fill-rule="evenodd" clip-rule="evenodd" d="M19.6507 31.995C19.9969 32.5924 19.7932 33.3572 19.1959 33.7033L17.1565 34.885C16.5592 35.2312 15.7944 35.0275 15.4483 34.4302C15.1021 33.8329 15.3058 33.0681 15.9031 32.722L17.9425 31.5402C18.5398 31.1941 19.3046 31.3977 19.6507 31.995Z" fill="#0C0507"/>
</svg>
