<svg width="40" height="40" viewBox="0 0 40 40" fill="none" xmlns="http://www.w3.org/2000/svg">
<path d="M30 13.5C30 19.299 25.299 24 19.5 24C13.701 24 9 19.299 9 13.5C9 7.70101 13.701 3 19.5 3C25.299 3 30 7.70101 30 13.5Z" fill="#FDB602"/>
<path d="M5 29H34V37H5V29Z" fill="#FDB602"/>
<path d="M4.5551 27.6836C4.42134 27.7578 4.24076 27.9263 4.15382 28.0679C4.05317 28.2356 4 28.4275 4 28.623V32.7744C4 37.1437 4 37.2313 4.14045 37.4606C4.21401 37.5887 4.37452 37.764 4.50159 37.8449C4.64522 37.9458 4.81649 38 4.99203 38H34.508C34.6835 38 34.8548 37.9458 34.9984 37.8449C35.1255 37.764 35.286 37.5887 35.3595 37.4606C35.5 37.2313 35.5 37.1437 35.5 32.7744V28.6023C35.5 28.4205 35.449 28.2424 35.3529 28.0882C35.2726 27.9533 35.0853 27.778 34.9449 27.6971C34.7694 27.5998 34.5721 27.5487 34.3715 27.5487H19.7433C5.11688 27.5555 4.79586 27.5555 4.5551 27.6836ZM33.7888 36.2104H5.72841V29.2935H33.7888V36.2104Z" fill="black"/>
<path d="M22.9601 31.6078C22.6591 31.6888 22.318 32.0259 22.2177 32.3226C22.0572 32.808 22.3046 33.4149 22.7661 33.6509C23.0136 33.7857 23.5218 33.779 23.8027 33.6441C23.9432 33.5767 24.1037 33.4149 24.2107 33.2328C24.3511 32.9901 24.3779 32.8755 24.3511 32.5788C24.291 31.8506 23.6623 31.4056 22.9601 31.6078Z" fill="black"/>
<path d="M26.5717 31.6078C25.8561 31.8101 25.5551 32.7271 26.0099 33.334C26.2573 33.6576 26.5248 33.7723 26.9729 33.7386C27.421 33.7048 27.7086 33.5295 27.8758 33.1722C28.0229 32.8485 27.9828 32.2686 27.7955 32.0124C27.528 31.6483 27.0131 31.4797 26.5717 31.6078Z" fill="black"/>
<path d="M30.1694 31.6078C29.815 31.7022 29.4672 32.1068 29.4137 32.4979C29.3736 32.7473 29.3937 32.8687 29.5207 33.1249C29.728 33.5497 30.0357 33.752 30.4637 33.752C31.1526 33.752 31.5338 33.3947 31.5739 32.7069C31.594 32.3698 31.5739 32.2619 31.4401 32.0731C31.1659 31.6618 30.6643 31.473 30.1694 31.6078Z" fill="black"/>
<path d="M8.5808 31.8708C8.16615 32.0394 7.91201 32.4439 7.91201 32.9294C7.91201 33.2935 8.07921 33.6037 8.40023 33.8464C8.58749 33.988 8.6343 33.988 12.5601 33.988C16.4859 33.988 16.5327 33.988 16.72 33.8464C17.0477 33.6037 17.2082 33.2935 17.2082 32.9226C17.2082 32.4709 17.0009 32.1068 16.6397 31.9315C16.3722 31.8034 16.2318 31.7966 12.5534 31.8034C10.1926 31.8034 8.68781 31.8303 8.5808 31.8708Z" fill="black"/>
<path d="M27.2314 2.01106C27.1672 2.02031 26.9609 2.05266 26.7729 2.08039C26.0349 2.18669 24.976 2.51021 24.0133 2.92617L23.5274 3.13415L23.1973 3.02322C21.2995 2.37156 19.0257 2.29761 16.9812 2.81525C15.5051 3.18961 13.9465 3.9753 12.7225 4.96435C11.5994 5.87021 10.5084 7.21514 9.82078 8.5462C9.02773 10.0852 8.63349 11.6243 8.58765 13.3852C8.55098 14.7486 8.68392 15.7931 9.05523 17.0271L9.22026 17.5678L9.01397 18.0624C8.41345 19.4951 8.13382 20.5766 8.08339 21.6488C8.01005 23.2803 8.58306 24.4219 9.78869 25.0227C10.4534 25.3555 10.7972 25.4294 11.714 25.4294C12.3879 25.434 12.5713 25.4155 13.0755 25.3092C13.7907 25.1567 14.5516 24.9071 15.3309 24.5698C15.9177 24.3156 15.9177 24.3156 16.1102 24.3803C16.5457 24.5374 17.5313 24.7777 18.1318 24.8656C18.9524 24.995 20.4377 25.0042 21.194 24.8887C23.1836 24.5929 24.9118 23.8673 26.4933 22.6748C27.0663 22.2404 28.1757 21.1219 28.602 20.5488C29.8306 18.8896 30.5274 17.1704 30.8116 15.1091C30.8895 14.5498 30.8895 12.9137 30.8116 12.336C30.7291 11.726 30.6007 11.1159 30.4127 10.4781C30.3256 10.1777 30.2569 9.90961 30.2569 9.88188C30.2569 9.85415 30.3302 9.66466 30.4219 9.45668C30.6832 8.85585 31.0637 7.6542 31.2012 6.99792C31.3112 6.47104 31.3296 6.29541 31.3296 5.58829C31.325 4.90427 31.3112 4.72402 31.2287 4.41437C31.0545 3.78119 30.8391 3.39758 30.3944 2.9539C29.7435 2.29299 29.0833 2.03879 27.9648 2.00644C27.6256 1.9972 27.2955 1.9972 27.2314 2.01106ZM28.6158 3.39758C29.0146 3.49464 29.2988 3.66102 29.5601 3.94295C30.1698 4.62234 30.234 5.81475 29.748 7.51093C29.6747 7.76975 29.5876 8.04243 29.5555 8.12562L29.4913 8.27352L29.2667 7.88991C28.4324 6.45717 27.0984 5.11225 25.5673 4.13706C25.2189 3.91984 25.1777 3.87825 25.2464 3.83665C25.361 3.77657 26.3604 3.4854 26.695 3.41607C27.346 3.28204 28.1161 3.2728 28.6158 3.39758ZM19.0716 5.93492V7.99159H15.8077L15.8398 7.86218C15.8902 7.6542 16.2248 6.88237 16.4449 6.46642C16.8987 5.6114 17.5038 4.84419 18.0722 4.40512C18.3014 4.22488 18.9386 3.87825 19.0349 3.87825C19.0532 3.87825 19.0716 4.80259 19.0716 5.93492ZM20.8411 4.05849C21.6662 4.47445 22.3905 5.2925 23.0369 6.52188C23.2569 6.9517 23.5503 7.61723 23.6328 7.88991L23.6603 7.99159L22.0192 7.98235L20.3781 7.96848L20.3643 5.92105C20.3551 4.19715 20.3643 3.87825 20.4193 3.87825C20.4514 3.87825 20.6439 3.96144 20.8411 4.05849ZM16.1515 4.49294C16.1331 4.52529 16.0185 4.68705 15.9039 4.85343C15.3722 5.59291 14.7992 6.78532 14.4187 7.93151C14.4049 7.97773 14.0886 7.99159 13.0434 7.99159C12.3008 7.99159 11.6911 7.97772 11.6911 7.96386C11.6911 7.88067 12.3879 7.07186 12.8463 6.62356C13.7677 5.7177 14.5975 5.1446 15.7206 4.63621C16.2202 4.40512 16.2019 4.41437 16.1515 4.49294ZM23.9308 4.7194C25.2877 5.34334 26.695 6.51263 27.6623 7.81596L27.7906 7.99159H26.4108C25.4848 7.99159 25.031 7.97772 25.031 7.94537C25.031 7.86218 24.7101 7.03027 24.4946 6.53574C24.2471 5.97651 23.8253 5.23241 23.5182 4.80259C23.3898 4.63159 23.289 4.47907 23.289 4.46521C23.289 4.43285 23.4311 4.49294 23.9308 4.7194ZM14.029 9.34114C14.029 9.37349 13.9786 9.66004 13.919 9.97894C13.7723 10.7369 13.6669 11.5734 13.6348 12.239C13.621 12.5348 13.6027 12.8444 13.5889 12.923L13.566 13.0755H9.9033V12.886C9.9033 12.6087 10.0317 11.8323 10.1554 11.3192C10.2975 10.7508 10.4534 10.2932 10.6918 9.73398L10.8843 9.28568H12.4567C13.6852 9.28568 14.029 9.29954 14.029 9.34114ZM19.0716 13.0755H14.8863L14.9183 12.4932C14.9642 11.5688 15.1659 10.1869 15.3538 9.47979L15.4089 9.28568H19.0716V13.0755ZM24.0912 9.41046C24.2883 10.2054 24.4946 11.615 24.5542 12.5579L24.5863 13.0755L22.4822 13.0663L20.3781 13.0524L20.3643 11.1667L20.3551 9.28568H24.0591L24.0912 9.41046ZM28.6754 9.52601C28.7395 9.66004 28.79 9.80331 28.79 9.84028C28.79 9.96969 28.0152 11.3239 27.4331 12.2112L26.86 13.0801L25.879 13.0524L25.824 12.2667C25.7965 11.8323 25.7461 11.3054 25.7186 11.0882C25.6636 10.6398 25.4573 9.46592 25.416 9.35962C25.3931 9.29492 25.5581 9.28568 26.9746 9.28568H28.5653L28.6754 9.52601ZM29.4959 12.3406C29.5372 12.6133 29.5693 12.886 29.5693 12.9553V13.0755H28.4599L28.5562 12.923C28.6112 12.8444 28.8129 12.5116 29.01 12.1881C29.4134 11.5134 29.3767 11.4995 29.4959 12.3406ZM13.5889 14.4713C13.6027 14.5313 13.6165 14.707 13.6165 14.8687C13.6165 15.4372 13.7998 16.9208 13.9648 17.7111C14.0015 17.8867 14.029 18.0577 14.029 18.0947C14.029 18.1502 13.8044 18.1594 12.4612 18.1502L10.8889 18.1363L10.7376 17.822C10.3296 16.9531 9.9033 15.2986 9.9033 14.5591V14.3696H13.5614L13.5889 14.4713ZM19.0716 18.1594L17.2288 18.1502L15.3859 18.1363L15.3034 17.7666C15.1017 16.8515 14.9596 15.8162 14.9138 14.9565L14.8863 14.3696H19.0716V18.1594ZM24.5726 14.5175C24.5726 14.7208 24.49 15.6868 24.4534 15.9132C24.4259 16.075 24.3067 16.2183 23.4128 17.1288L22.4043 18.1594H20.401V14.3696H24.5726V14.5175ZM29.5693 14.4944C29.5647 14.7208 29.4363 15.562 29.3355 16.0011C29.2163 16.5187 28.9275 17.3737 28.7212 17.822L28.5653 18.1594H27.0113C26.1587 18.1594 25.4481 18.1502 25.439 18.1363C25.4252 18.1271 25.4619 17.8821 25.5169 17.5956C25.5719 17.309 25.6315 16.9762 25.6452 16.8607C25.6727 16.6758 25.7415 16.5742 26.1953 16.0427C26.4796 15.7053 26.8967 15.1969 27.1213 14.9057L27.5293 14.3742L28.5516 14.3696H29.5693V14.4944ZM10.4167 19.911C10.8706 20.6043 11.251 21.0757 11.8241 21.6581C12.4979 22.3375 13.3735 23.0261 14.1115 23.4559C14.1895 23.5021 14.2582 23.553 14.2582 23.5715C14.2582 23.6177 13.3047 23.895 12.7455 24.0105C12.1587 24.1307 11.3244 24.1584 10.9026 24.0706C10.1325 23.9042 9.65117 23.4236 9.46322 22.6148C9.36695 22.2034 9.39904 21.2282 9.53198 20.632C9.6145 20.2484 9.88038 19.3472 9.93997 19.2501C9.95372 19.2224 9.98581 19.2409 10.0133 19.2871C10.0408 19.3333 10.2196 19.6153 10.4167 19.911ZM14.6066 20.0312C14.8679 20.7476 15.363 21.7644 15.7206 22.3097C15.8764 22.5454 16.0002 22.7534 16.0002 22.7765C16.0002 23.0446 14.5287 22.2681 13.5706 21.4963C13.1259 21.1358 12.4108 20.4102 12.0303 19.9342C11.8424 19.7031 11.6911 19.4997 11.6911 19.4812C11.6911 19.4674 12.3008 19.4581 13.048 19.4627L14.4049 19.4766L14.6066 20.0312ZM19.0716 20.9232L18.3519 21.4085C17.4442 22.0139 17.1921 22.1618 17.1554 22.1064C16.862 21.6858 16.6236 21.3068 16.4724 21.0249C16.2753 20.6644 15.8856 19.7678 15.8352 19.569L15.8077 19.4535H19.0716V20.9232ZM20.7448 19.6153C20.4239 19.9018 20.401 19.9018 20.401 19.6615V19.4535H20.9282L20.7448 19.6153ZM23.6328 19.5552C23.5549 19.814 23.2615 20.4888 23.0414 20.9186C22.4134 22.1295 21.6708 22.966 20.8456 23.382C20.6439 23.4837 20.4514 23.5668 20.4193 23.5668C20.3643 23.5668 20.3551 23.3912 20.3551 22.5778V21.5841L20.5523 21.4316C21.4187 20.7337 21.9183 20.3178 22.3722 19.9203L22.8993 19.4535H23.2798C23.6557 19.4535 23.6603 19.4535 23.6328 19.5552ZM27.7815 19.4766C27.7815 19.4858 27.621 19.6984 27.4193 19.948C26.7088 20.84 25.6911 21.7274 24.7147 22.3097C24.3479 22.527 23.3486 23.0122 23.2707 23.0122C23.2569 23.0122 23.3623 22.8505 23.5044 22.6517C23.8299 22.1896 24.1141 21.7135 24.3754 21.1635C24.5909 20.7106 24.953 19.8048 25.008 19.5783L25.0401 19.4535H26.4108C27.1626 19.4535 27.7815 19.4627 27.7815 19.4766ZM19.0578 23.553C19.0074 23.5992 18.1502 23.1786 18.1548 23.1047C18.1548 23.0908 18.3565 22.9522 18.604 22.795L19.0487 22.5085L19.0624 23.0215C19.067 23.3034 19.067 23.5391 19.0578 23.553Z" fill="black"/>
</svg>
