<svg width="40" height="40" viewBox="0 0 40 40" fill="none" xmlns="http://www.w3.org/2000/svg">
<g clip-path="url(#clip0_2011_484)">
<path d="M13.125 28.7688C13.125 27.0236 14.1037 23.1636 18.0186 21.6854C19.255 21.3924 20.1627 21.1692 20.8365 20.9907C19.1962 20.555 17.6636 20.2376 17.1011 19.5295C15.8777 17.9897 15.8777 11.8302 20.7713 13.3701C25.6649 14.9099 23.8298 19.2216 23.2181 19.8375C22.7518 20.307 22.9964 20.4186 20.8365 20.9907C22.7634 21.5025 24.8388 22.1776 25.6649 23.8412C27.1941 26.921 27.5 27.8448 27.5 28.7688C27.5 29.6927 24.4415 32.1565 20.4654 31.8485C17.2846 31.6022 14.2465 29.6927 13.125 28.7688Z" fill="#FDB602"/>
<path fill-rule="evenodd" clip-rule="evenodd" d="M20 32.5C26.9036 32.5 32.5 26.9036 32.5 20C32.5 13.0964 26.9036 7.49999 20 7.49999C13.0964 7.49999 7.5 13.0964 7.5 20C7.5 26.9036 13.0964 32.5 20 32.5ZM19.6875 38.75C21.0881 38.75 23.4375 39.0625 24.0625 36.3828C25.774 35.9598 27.3825 35.2756 28.8433 34.375C30.9375 35.625 32.7321 34.2067 33.75 33.125C34.4736 32.356 35.625 31.5625 34.2376 29.0625C35.2621 27.4562 36.0223 25.665 36.4568 23.75C38.75 23.75 39.375 21.2888 39.375 20C39.375 18.5994 38.75 16.25 36.3828 15.9375C35.9688 14.2624 35.3046 12.6859 34.4321 11.25C35.3125 8.74999 34.1031 7.53132 33.125 6.56249C32.211 5.65721 31.25 4.37499 28.8433 5.625C27.4148 4.74429 25.8451 4.07058 24.1759 3.64567C24.0625 1.5625 21.4413 1.56249 20 1.56249C18.6628 1.56249 16.25 1.25 16.1145 3.57448C14.3369 3.99338 12.6678 4.69338 11.1567 5.62499C8.75 4.37499 7.50579 5.92266 6.5625 6.87499C5.65722 7.78896 4.0625 9.68749 5.625 11.1566C4.69184 12.6703 3.99107 14.3424 3.57241 16.1234C1.25 16.25 0.9375 18.666 0.9375 20C0.9375 21.4397 1.25 23.75 3.64457 24.1716C4.06941 25.8423 4.74353 27.4136 5.625 28.8433C4.375 30.9375 5.73798 31.9518 6.5625 32.8125C7.49584 33.7868 9.6875 35.9375 10.9375 34.2376C12.4561 35.2062 14.14 35.9385 15.9375 36.3828C16.25 38.75 18.2869 38.75 19.6875 38.75Z" fill="#FDB602"/>
<path d="M16.2031 0.15625C15.9062 0.351562 15.8203 0.515625 15.2422 1.99219L14.7891 3.16406L14.0156 3.44531C13.5859 3.60156 12.9297 3.86719 12.5469 4.04687C12.1641 4.22656 11.8203 4.375 11.7812 4.375C11.7422 4.375 11.1406 4.125 10.4609 3.82812C9.17969 3.26562 8.78125 3.17969 8.41406 3.36719C8.17188 3.49219 3.53125 8.11719 3.39062 8.375C3.17969 8.78125 3.25 9.14062 3.82812 10.4531C4.13281 11.1328 4.375 11.7344 4.375 11.7734C4.375 11.8203 4.22656 12.1641 4.04688 12.5469C3.86719 12.9297 3.60156 13.5938 3.44531 14.0156L3.16406 14.7969L1.99219 15.2422C0.523438 15.8125 0.34375 15.9062 0.15625 16.2109C0.0078125 16.4531 0 16.6172 0 20C0 23.3828 0.0078125 23.5469 0.15625 23.7891C0.34375 24.0938 0.523438 24.1875 1.99219 24.7578L3.16406 25.2031L3.44531 25.9844C3.60156 26.4062 3.86719 27.0703 4.04688 27.4531C4.22656 27.8359 4.375 28.1797 4.375 28.2266C4.375 28.2656 4.13281 28.8672 3.82812 29.5469C3.26562 30.8203 3.17969 31.2188 3.36719 31.5859C3.49219 31.8281 8.11719 36.4688 8.375 36.6094C8.78125 36.8203 9.14062 36.75 10.4609 36.1719C11.1406 35.875 11.7422 35.625 11.7812 35.625C11.8203 35.625 12.1641 35.7734 12.5469 35.9531C12.9297 36.1328 13.5859 36.3984 14.0156 36.5547L14.7891 36.8359L15.2422 38.0078C15.8203 39.4922 15.9062 39.6562 16.2109 39.8438C16.4531 39.9922 16.6172 40 20 40C23.3828 40 23.5469 39.9922 23.7891 39.8438C24.0938 39.6562 24.1875 39.4766 24.7578 38.0078L25.2109 36.8359L25.9844 36.5547C26.4141 36.3984 27.0703 36.1328 27.4531 35.9531C27.8359 35.7734 28.1797 35.625 28.2266 35.625C28.2656 35.625 28.8672 35.8672 29.5469 36.1719C30.8594 36.75 31.2188 36.8203 31.625 36.6094C31.8828 36.4688 36.5078 31.8281 36.6328 31.5859C36.8203 31.2188 36.7344 30.8203 36.1719 29.5391C35.875 28.8594 35.625 28.2578 35.625 28.2188C35.625 28.1797 35.7734 27.8359 35.9531 27.4531C36.1328 27.0703 36.3984 26.4141 36.5547 25.9844L36.8359 25.2109L38.0078 24.7578C39.4766 24.1875 39.6562 24.0938 39.8438 23.7891C39.9922 23.5469 40 23.3828 40 20C40 16.6172 39.9922 16.4531 39.8438 16.2109C39.6562 15.9062 39.4766 15.8125 38.0078 15.2422L36.8359 14.7891L36.5547 14.0156C36.3984 13.5859 36.1328 12.9297 35.9531 12.5469C35.7734 12.1641 35.625 11.8203 35.625 11.7812C35.625 11.7422 35.875 11.1406 36.1719 10.4609C36.75 9.14062 36.8203 8.78125 36.6094 8.375C36.4688 8.11719 31.8281 3.49219 31.5859 3.36719C31.2188 3.17969 30.8203 3.26562 29.5469 3.82812C28.8672 4.125 28.2656 4.375 28.2266 4.375C28.1797 4.375 27.8359 4.22656 27.4531 4.04687C27.0703 3.86719 26.4141 3.60156 25.9844 3.44531L25.2109 3.16406L24.7578 1.99219C24.1875 0.523436 24.0938 0.34375 23.7891 0.15625C23.5469 0.00781298 23.3906 0 19.9922 0C16.5938 0 16.4375 0.00781298 16.2031 0.15625ZM22.7734 3.61719C23.0391 4.28906 23.3359 4.92969 23.4375 5.03906C23.5469 5.15625 23.9609 5.33594 24.6328 5.55469C25.1953 5.74219 26.1406 6.13281 26.7422 6.42187C28.1406 7.10938 28.1484 7.10938 29.6562 6.44531L30.8125 5.92969L32.4375 7.5625L34.0703 9.1875L33.5547 10.3438C32.8906 11.8516 32.8906 11.8594 33.5781 13.2578C33.8672 13.8594 34.2578 14.8047 34.4453 15.3672C34.6641 16.0391 34.8438 16.4531 34.9609 16.5625C35.0703 16.6641 35.7109 16.9609 36.3828 17.2266L37.6172 17.7188V22.2812L36.3828 22.7734C35.7109 23.0391 35.0703 23.3359 34.9688 23.4297C34.8438 23.5469 34.6641 23.9531 34.4531 24.5938C34.2734 25.1406 33.8828 26.0938 33.5859 26.7109C33.1797 27.5547 33.0469 27.9141 33.0469 28.1641C33.0469 28.4062 33.1875 28.8281 33.5547 29.6562L34.0703 30.8125L32.4375 32.4375L30.8125 34.0703L29.6562 33.5547C28.1484 32.8906 28.1406 32.8906 26.7422 33.5781C26.1406 33.8672 25.1953 34.2578 24.6328 34.4453C23.9609 34.6641 23.5469 34.8438 23.4375 34.9609C23.3359 35.0703 23.0391 35.7109 22.7734 36.3828L22.2812 37.6172H17.7188L17.2266 36.3828C16.9609 35.7109 16.6641 35.0703 16.5625 34.9609C16.4453 34.8359 16.0547 34.6641 15.3984 34.4531C14.8594 34.2734 13.9062 33.8828 13.2891 33.5859C12.4453 33.1797 12.0859 33.0469 11.8359 33.0469C11.5938 33.0469 11.1719 33.1875 10.3438 33.5547L9.1875 34.0703L5.92969 30.8125L6.44531 29.6641C7.10938 28.1641 7.10938 28.1484 6.42188 26.7422C6.13281 26.1406 5.74219 25.1953 5.55469 24.6328C5.33594 23.9609 5.15625 23.5469 5.03906 23.4375C4.92969 23.3359 4.28906 23.0391 3.61719 22.7734L2.38281 22.2812V17.7188L3.61719 17.2266C4.28906 16.9609 4.92969 16.6641 5.03906 16.5625C5.15625 16.4531 5.33594 16.0391 5.55469 15.3672C5.74219 14.8047 6.13281 13.8594 6.42188 13.2578C7.10938 11.8516 7.10938 11.8359 6.44531 10.3359L5.92969 9.1875L9.1875 5.92969L10.3438 6.44531C11.1719 6.8125 11.5938 6.95312 11.8359 6.95312C12.0859 6.95312 12.4453 6.82031 13.2891 6.41406C13.9062 6.11719 14.8594 5.71875 15.4141 5.53906C16.1797 5.28906 16.4531 5.16406 16.5938 4.99219C16.6953 4.875 16.9453 4.34375 17.1562 3.8125C17.3594 3.28125 17.5703 2.73438 17.6328 2.59375L17.7344 2.34375L20.0078 2.35937L22.2812 2.38281L22.7734 3.61719Z" fill="#0D0D0D"/>
<path d="M18.3984 7.15625C16.2891 7.47656 14.3984 8.1875 12.7734 9.28906C9.97656 11.1641 8.09375 13.9766 7.32812 17.3984C7.17187 18.0703 7.15625 18.3906 7.15625 20C7.15625 21.6094 7.17187 21.9297 7.32812 22.6016C8.09375 26.0234 9.97656 28.8359 12.7734 30.7109C14.125 31.6328 15.5 32.2188 17.2344 32.625C18.1172 32.8359 18.2578 32.8516 20 32.8438C21.6094 32.8438 21.9297 32.8281 22.6094 32.6719C27.7656 31.5156 31.5156 27.7656 32.6719 22.6094C32.8281 21.9297 32.8437 21.6094 32.8437 20C32.8437 18.3906 32.8281 18.0703 32.6719 17.3984C31.5234 12.2422 27.7656 8.47656 22.6406 7.33594C22.0625 7.20313 21.5781 7.17188 20.2734 7.14844C19.375 7.13281 18.5312 7.14062 18.3984 7.15625ZM21.7344 9.65625C25.5312 10.2813 28.8047 13.1172 29.9922 16.8125C30.3359 17.9062 30.4687 18.7656 30.4687 20C30.4687 21.7656 30.125 23.2109 29.3281 24.7656C28.9766 25.4609 28.0547 26.8281 27.9922 26.7656C27.9766 26.7578 27.8828 26.3984 27.7734 25.9688C27.2734 24 25.8906 22.1406 24.1641 21.125L23.6797 20.8438L24.0234 20.4297C24.7344 19.5547 25.0781 18.5156 25.0781 17.2656C25.0781 15.7578 24.6484 14.7266 23.5937 13.6719C22.5391 12.6172 21.5078 12.1875 20 12.1875C18.4922 12.1875 17.4609 12.6172 16.4062 13.6719C15.3516 14.7266 14.9219 15.7578 14.9219 17.2656C14.9219 18.5156 15.2656 19.5547 15.9766 20.4297L16.3203 20.8438L15.8125 21.1406C14.1094 22.1328 12.7187 24.0078 12.2266 25.9688C12.1172 26.3984 12.0234 26.7578 12.0078 26.7656C11.9453 26.8281 11.0391 25.4766 10.7109 24.8438C9.85937 23.1641 9.60156 22.1797 9.55469 20.3516C9.50781 18.8359 9.60937 18.0781 10.0078 16.8203C11.3047 12.7734 15.0469 9.8125 19.2187 9.53906C20.1562 9.47656 20.875 9.50781 21.7344 9.65625ZM20.9922 14.7813C21.6016 15 22.2656 15.6719 22.4922 16.2891C22.7109 16.875 22.7109 17.6563 22.4922 18.25C22.2656 18.8594 21.5859 19.5313 20.9687 19.7656C20.3437 20 19.4297 19.9688 18.8672 19.6875C18.3125 19.4219 17.7031 18.7734 17.5078 18.2422C17.2891 17.6563 17.2891 16.875 17.5078 16.2812C17.7266 15.6953 18.4141 15 18.9922 14.7813C19.5781 14.5547 20.3984 14.5547 20.9922 14.7813ZM20.7969 22.4609C21.4141 22.5156 22.4375 22.9063 23.0469 23.3125C24.7031 24.4063 25.6172 26.1484 25.625 28.1797V28.8906L24.7891 29.3203C23.4141 30.0156 22.2109 30.3594 20.8125 30.4531C18.7578 30.5938 17.0391 30.25 15.2187 29.3203L14.375 28.8906V28.1797C14.3828 25.6719 15.8281 23.5703 18.125 22.7344C18.7422 22.5078 19.7109 22.3438 20.1562 22.3906C20.2656 22.4062 20.5547 22.4375 20.7969 22.4609Z" fill="#0D0D0D"/>
</g>
<defs>
<clipPath id="clip0_2011_484">
<rect width="40" height="40" fill="white"/>
</clipPath>
</defs>
</svg>
