<svg width="64" height="64" viewBox="0 0 64 64" fill="none" xmlns="http://www.w3.org/2000/svg">
<g clip-path="url(#clip0_472_2987)">
<path d="M21 46.03C21 43.2377 22.566 37.0618 28.8298 34.6966C30.8079 34.2279 32.2604 33.8707 33.3384 33.5851C30.714 32.888 28.2618 32.3802 27.3617 31.2473C25.4043 28.7835 25.4043 18.9283 33.234 21.3921C41.0638 23.8559 38.1277 30.7545 37.1489 31.74C36.4029 32.4912 36.7942 32.6698 33.3384 33.5851C36.4214 34.404 39.7421 35.4842 41.0638 38.146C43.5106 43.0735 44 44.5517 44 46.03C44 47.5084 39.1064 51.4504 32.7447 50.9577C27.6553 50.5635 22.7943 47.5083 21 46.03Z" fill="#FDB602"/>
<path fill-rule="evenodd" clip-rule="evenodd" d="M32 52C43.0457 52 52 43.0457 52 32C52 20.9543 43.0457 12 32 12C20.9543 12 12 20.9543 12 32C12 43.0457 20.9543 52 32 52ZM31.5 62C33.7409 62 37.5 62.5 38.5 58.2124C41.2383 57.5357 43.812 56.441 46.1494 55C49.5 57 52.3713 54.7307 54 53C55.1578 51.7697 57 50.5 54.7801 46.5C56.4194 43.93 57.6357 41.0639 58.331 38C62 38 63 34.0622 63 32C63 29.7591 62 26 58.2124 25.5C57.55 22.8199 56.4873 20.2975 55.0914 18C56.5 14 54.565 12.0501 53 10.5C51.5377 9.05154 50 6.99999 46.1494 8.99999C43.8637 7.59087 41.3521 6.51293 38.6815 5.83307C38.5 2.5 34.3061 2.49999 32 2.49999C29.8605 2.49999 26 2 25.7832 5.71917C22.939 6.38941 20.2684 7.50941 17.8506 8.99999C14 6.99999 12.0093 9.47625 10.5 11C9.05155 12.4623 6.5 15.5 9 17.8506C7.50695 20.2724 6.38571 22.9479 5.71585 25.7974C2 26 1.5 29.8655 1.5 32C1.5 34.3036 2 38 5.83131 38.6745C6.51106 41.3477 7.58965 43.8617 9 46.1493C7 49.5 9.18077 51.1228 10.5 52.5C11.9933 54.0589 15.5 57.5 17.5 54.7801C19.9297 56.3299 22.624 57.5016 25.5 58.2124C26 62 29.2591 62 31.5 62Z" fill="#FDB602"/>
<path d="M25.925 0.25C25.45 0.5625 25.3125 0.825001 24.3875 3.1875L23.6625 5.0625L22.425 5.5125C21.7375 5.7625 20.6875 6.1875 20.075 6.475C19.4625 6.7625 18.9125 7 18.85 7C18.7875 7 17.825 6.6 16.7375 6.125C14.6875 5.225 14.05 5.0875 13.4625 5.3875C13.075 5.5875 5.65 12.9875 5.425 13.4C5.0875 14.05 5.2 14.625 6.125 16.725C6.6125 17.8125 7 18.775 7 18.8375C7 18.9125 6.7625 19.4625 6.475 20.075C6.1875 20.6875 5.7625 21.75 5.5125 22.425L5.0625 23.675L3.1875 24.3875C0.8375 25.3 0.55 25.45 0.25 25.9375C0.0125 26.325 0 26.5875 0 32C0 37.4125 0.0125 37.675 0.25 38.0625C0.55 38.55 0.8375 38.7 3.1875 39.6125L5.0625 40.325L5.5125 41.575C5.7625 42.25 6.1875 43.3125 6.475 43.925C6.7625 44.5375 7 45.0875 7 45.1625C7 45.225 6.6125 46.1875 6.125 47.275C5.225 49.3125 5.0875 49.95 5.3875 50.5375C5.5875 50.925 12.9875 58.35 13.4 58.575C14.05 58.9125 14.625 58.8 16.7375 57.875C17.825 57.4 18.7875 57 18.85 57C18.9125 57 19.4625 57.2375 20.075 57.525C20.6875 57.8125 21.7375 58.2375 22.425 58.4875L23.6625 58.9375L24.3875 60.8125C25.3125 63.1875 25.45 63.45 25.9375 63.75C26.325 63.9875 26.5875 64 32 64C37.4125 64 37.675 63.9875 38.0625 63.75C38.55 63.45 38.7 63.1625 39.6125 60.8125L40.3375 58.9375L41.575 58.4875C42.2625 58.2375 43.3125 57.8125 43.925 57.525C44.5375 57.2375 45.0875 57 45.1625 57C45.225 57 46.1875 57.3875 47.275 57.875C49.375 58.8 49.95 58.9125 50.6 58.575C51.0125 58.35 58.4125 50.925 58.6125 50.5375C58.9125 49.95 58.775 49.3125 57.875 47.2625C57.4 46.175 57 45.2125 57 45.15C57 45.0875 57.2375 44.5375 57.525 43.925C57.8125 43.3125 58.2375 42.2625 58.4875 41.575L58.9375 40.3375L60.8125 39.6125C63.1625 38.7 63.45 38.55 63.75 38.0625C63.9875 37.675 64 37.4125 64 32C64 26.5875 63.9875 26.325 63.75 25.9375C63.45 25.45 63.1625 25.3 60.8125 24.3875L58.9375 23.6625L58.4875 22.425C58.2375 21.7375 57.8125 20.6875 57.525 20.075C57.2375 19.4625 57 18.9125 57 18.85C57 18.7875 57.4 17.825 57.875 16.7375C58.8 14.625 58.9125 14.05 58.575 13.4C58.35 12.9875 50.925 5.5875 50.5375 5.3875C49.95 5.0875 49.3125 5.225 47.275 6.125C46.1875 6.6 45.225 7 45.1625 7C45.0875 7 44.5375 6.7625 43.925 6.475C43.3125 6.1875 42.2625 5.7625 41.575 5.5125L40.3375 5.0625L39.6125 3.1875C38.7 0.837498 38.55 0.549999 38.0625 0.25C37.675 0.0125008 37.425 0 31.9875 0C26.55 0 26.3 0.0125008 25.925 0.25ZM36.4375 5.7875C36.8625 6.8625 37.3375 7.8875 37.5 8.0625C37.675 8.25 38.3375 8.5375 39.4125 8.8875C40.3125 9.1875 41.825 9.8125 42.7875 10.275C45.025 11.375 45.0375 11.375 47.45 10.3125L49.3 9.4875L51.9 12.1L54.5125 14.7L53.6875 16.55C52.625 18.9625 52.625 18.975 53.725 21.2125C54.1875 22.175 54.8125 23.6875 55.1125 24.5875C55.4625 25.6625 55.75 26.325 55.9375 26.5C56.1125 26.6625 57.1375 27.1375 58.2125 27.5625L60.1875 28.35V35.65L58.2125 36.4375C57.1375 36.8625 56.1125 37.3375 55.95 37.4875C55.75 37.675 55.4625 38.325 55.125 39.35C54.8375 40.225 54.2125 41.75 53.7375 42.7375C53.0875 44.0875 52.875 44.6625 52.875 45.0625C52.875 45.45 53.1 46.125 53.6875 47.45L54.5125 49.3L51.9 51.9L49.3 54.5125L47.45 53.6875C45.0375 52.625 45.025 52.625 42.7875 53.725C41.825 54.1875 40.3125 54.8125 39.4125 55.1125C38.3375 55.4625 37.675 55.75 37.5 55.9375C37.3375 56.1125 36.8625 57.1375 36.4375 58.2125L35.65 60.1875H28.35L27.5625 58.2125C27.1375 57.1375 26.6625 56.1125 26.5 55.9375C26.3125 55.7375 25.6875 55.4625 24.6375 55.125C23.775 54.8375 22.25 54.2125 21.2625 53.7375C19.9125 53.0875 19.3375 52.875 18.9375 52.875C18.55 52.875 17.875 53.1 16.55 53.6875L14.7 54.5125L9.4875 49.3L10.3125 47.4625C11.375 45.0625 11.375 45.0375 10.275 42.7875C9.8125 41.825 9.1875 40.3125 8.8875 39.4125C8.5375 38.3375 8.25 37.675 8.0625 37.5C7.8875 37.3375 6.8625 36.8625 5.7875 36.4375L3.8125 35.65V28.35L5.7875 27.5625C6.8625 27.1375 7.8875 26.6625 8.0625 26.5C8.25 26.325 8.5375 25.6625 8.8875 24.5875C9.1875 23.6875 9.8125 22.175 10.275 21.2125C11.375 18.9625 11.375 18.9375 10.3125 16.5375L9.4875 14.7L14.7 9.4875L16.55 10.3125C17.875 10.9 18.55 11.125 18.9375 11.125C19.3375 11.125 19.9125 10.9125 21.2625 10.2625C22.25 9.7875 23.775 9.15 24.6625 8.8625C25.8875 8.4625 26.325 8.2625 26.55 7.9875C26.7125 7.8 27.1125 6.95 27.45 6.1C27.775 5.25 28.1125 4.375 28.2125 4.15L28.375 3.75L32.0125 3.775L35.65 3.8125L36.4375 5.7875Z" fill="#0D0D0D"/>
<path d="M29.4375 11.45C26.0625 11.9625 23.0375 13.1 20.4375 14.8625C15.9625 17.8625 12.95 22.3625 11.725 27.8375C11.475 28.9125 11.45 29.425 11.45 32C11.45 34.575 11.475 35.0875 11.725 36.1625C12.95 41.6375 15.9625 46.1375 20.4375 49.1375C22.6 50.6125 24.8 51.55 27.575 52.2C28.9875 52.5375 29.2125 52.5625 32 52.55C34.575 52.55 35.0875 52.525 36.175 52.275C44.425 50.425 50.425 44.425 52.275 36.175C52.525 35.0875 52.55 34.575 52.55 32C52.55 29.425 52.525 28.9125 52.275 27.8375C50.4375 19.5875 44.425 13.5625 36.225 11.7375C35.3 11.525 34.525 11.475 32.4375 11.4375C31 11.4125 29.65 11.425 29.4375 11.45ZM34.775 15.45C40.85 16.45 46.0875 20.9875 47.9875 26.9C48.5375 28.65 48.75 30.025 48.75 32C48.75 34.825 48.2 37.1375 46.925 39.625C46.3625 40.7375 44.8875 42.925 44.7875 42.825C44.7625 42.8125 44.6125 42.2375 44.4375 41.55C43.6375 38.4 41.425 35.425 38.6625 33.8L37.8875 33.35L38.4375 32.6875C39.575 31.2875 40.125 29.625 40.125 27.625C40.125 25.2125 39.4375 23.5625 37.75 21.875C36.0625 20.1875 34.4125 19.5 32 19.5C29.5875 19.5 27.9375 20.1875 26.25 21.875C24.5625 23.5625 23.875 25.2125 23.875 27.625C23.875 29.625 24.425 31.2875 25.5625 32.6875L26.1125 33.35L25.3 33.825C22.575 35.4125 20.35 38.4125 19.5625 41.55C19.3875 42.2375 19.2375 42.8125 19.2125 42.825C19.1125 42.925 17.6625 40.7625 17.1375 39.75C15.775 37.0625 15.3625 35.4875 15.2875 32.5625C15.2125 30.1375 15.375 28.925 16.0125 26.9125C18.0875 20.4375 24.075 15.7 30.75 15.2625C32.25 15.1625 33.4 15.2125 34.775 15.45ZM33.5875 23.65C34.5625 24 35.625 25.075 35.9875 26.0625C36.3375 27 36.3375 28.25 35.9875 29.2C35.625 30.175 34.5375 31.25 33.55 31.625C32.55 32 31.0875 31.95 30.1875 31.5C29.3 31.075 28.325 30.0375 28.0125 29.1875C27.6625 28.25 27.6625 27 28.0125 26.05C28.3625 25.1125 29.4625 24 30.3875 23.65C31.325 23.2875 32.6375 23.2875 33.5875 23.65ZM33.275 35.9375C34.2625 36.025 35.9 36.65 36.875 37.3C39.525 39.05 40.9875 41.8375 41 45.0875V46.225L39.6625 46.9125C37.4625 48.025 35.5375 48.575 33.3 48.725C30.0125 48.95 27.2625 48.4 24.35 46.9125L23 46.225V45.0875C23.0125 41.075 25.325 37.7125 29 36.375C29.9875 36.0125 31.5375 35.75 32.25 35.825C32.425 35.85 32.8875 35.9 33.275 35.9375Z" fill="#0D0D0D"/>
</g>
<defs>
<clipPath id="clip0_472_2987">
<rect width="64" height="64" fill="white"/>
</clipPath>
</defs>
</svg>
