<svg width="49" height="48" viewBox="0 0 49 48" fill="none" xmlns="http://www.w3.org/2000/svg">
<g clip-path="url(#clip0_684_7407)">
<path d="M44.2617 20.2498C44.2617 15.0035 42.1431 9.9721 38.3718 6.26239C34.6006 2.55269 29.4857 0.468599 24.1523 0.468598C18.819 0.468598 13.7041 2.55269 9.93287 6.26239C6.16163 9.97209 4.04297 15.0035 4.04297 20.2498L7.15205 20.2498C7.15205 15.8147 8.94315 11.5611 12.1313 8.42497C15.3195 5.28882 19.6436 3.52695 24.1523 3.52695C28.6611 3.52695 32.9852 5.28882 36.1734 8.42497C39.3615 11.5611 41.1526 15.8147 41.1526 20.2498H44.2617Z" fill="#FDB602"/>
<path d="M3.51865 24.2333C3.03157 22.9783 3.65409 21.5661 4.90908 21.079L5.49773 20.8505C6.75272 20.3635 8.16495 20.986 8.65202 22.241L13.4009 34.4767C13.8879 35.7317 13.2654 37.1439 12.0104 37.631L11.4218 37.8595C10.1668 38.3465 8.75458 37.724 8.2675 36.469L3.51865 24.2333Z" fill="#FDB602"/>
<path d="M1.05457 26.951C0.7371 26.133 1.14285 25.2125 1.96085 24.895C2.77884 24.5776 3.69933 24.9833 4.0168 25.8013L9.29488 39.4007C9.61236 40.2187 9.2066 41.1392 8.38861 41.4566C7.57061 41.7741 6.65013 41.3683 6.33265 40.5504L1.05457 26.951Z" fill="#FDB602"/>
<path d="M40.3736 22.2809C40.7996 21.0038 42.1801 20.3139 43.4572 20.7399L44.0561 20.9397C45.3332 21.3657 46.0231 22.7462 45.5971 24.0232L41.444 36.4738C41.0181 37.7509 39.6375 38.4408 38.3605 38.0148L37.7615 37.815C36.4845 37.389 35.7946 36.0085 36.2205 34.7315L40.3736 22.2809Z" fill="#FDB602"/>
<path d="M44.5405 25.9194C44.8347 25.0374 45.7883 24.5609 46.6703 24.8551C47.5523 25.1493 48.0288 26.1028 47.7346 26.9848L44.7575 35.9098C44.4633 36.7918 43.5098 37.2684 42.6278 36.9742C41.7458 36.6799 41.2693 35.7264 41.5635 34.8444L44.5405 25.9194Z" fill="#FDB602"/>
<path d="M28.5117 45.703C28.5117 46.7644 26.8957 47.6248 24.9023 47.6248C22.9089 47.6248 21.293 46.7644 21.293 45.703C21.293 44.6416 22.9089 43.7811 24.9023 43.7811C26.8957 43.7811 28.5117 44.6416 28.5117 45.703Z" fill="#FDB602"/>
<path d="M21.2367 0.177968C16.5773 0.909218 12.668 2.88734 9.37734 6.17797C7.51172 8.04359 6.25547 9.82484 5.16797 12.1311C4.00547 14.5873 3.19922 17.9248 3.19922 20.2686C3.19922 20.878 3.15234 21.1592 2.94609 21.6467C2.78672 22.0592 2.68359 22.5092 2.65547 22.9873C2.61797 23.5967 2.58047 23.7186 2.43047 23.7748C2.10234 23.878 1.26797 24.7967 0.986719 25.3592C0.733594 25.8748 0.714844 26.0061 0.714844 26.953V27.9842L3.13359 34.5936C4.53984 38.4092 5.65547 41.3342 5.79609 41.5123C6.17109 42.0186 6.70547 42.3092 7.31484 42.3561L7.84922 42.3936L8.14922 42.9748C8.80547 44.2311 9.92109 45.2998 11.2148 45.8905C12.4617 46.4717 12.7242 46.4998 16.6617 46.5092H20.2148L20.4961 46.9498C20.6555 47.1842 20.9648 47.5123 21.1805 47.6717L21.593 47.953L24.4617 47.9811C26.393 47.9998 27.4617 47.9811 27.6961 47.9061C28.1555 47.7748 28.7742 47.2123 28.9898 46.7342C29.2055 46.2655 29.2242 45.3092 29.018 44.8311C28.8305 44.3717 28.3617 43.8936 27.9023 43.678C27.5648 43.5186 27.2555 43.4998 24.668 43.4998C22.0992 43.4998 21.7711 43.5186 21.4336 43.678C21.0398 43.8561 20.5148 44.3905 20.3273 44.7842L20.2242 45.0186L16.7461 44.9811C12.9492 44.9342 12.8742 44.9248 11.6836 44.3248C10.9992 43.978 10.0055 42.9936 9.58359 42.253C9.30234 41.7655 9.2836 41.6905 9.41484 41.5498C9.93047 40.9592 10.0523 39.9655 9.71484 39.0842C9.67734 38.9811 9.83672 38.953 10.6336 38.953C11.5242 38.953 11.6367 38.9342 12.2086 38.653C12.9492 38.2873 13.5211 37.6967 13.868 36.9561C14.093 36.478 14.1211 36.3092 14.1211 35.3905V34.3592L13.6242 33.2342C12.1805 29.9905 11.0273 26.8123 10.0898 23.4936C9.79922 22.4623 9.46172 21.4498 9.33047 21.2248C9.06797 20.7748 8.38359 20.1186 8.01797 19.9498C7.77422 19.8373 7.77422 19.8186 7.83047 19.2186C7.91484 18.4311 8.29922 16.6873 8.58047 15.8717C10.2211 11.0998 13.8773 7.34984 18.593 5.58734C20.4398 4.90297 22.2023 4.59359 24.3961 4.59359C30.7711 4.58422 36.5086 8.21234 39.293 13.9967C40.1648 15.7873 40.7086 17.6998 40.8586 19.4436L40.9148 20.1561L40.5492 20.5498C39.9398 21.2155 39.7992 21.5342 39.2555 23.4373C38.393 26.503 37.4273 29.2498 36.3211 31.8092C35.1305 34.5748 35.1398 34.5186 35.1867 35.5311C35.2148 36.2436 35.2711 36.5248 35.468 36.9561C35.7961 37.6686 36.3492 38.2498 37.0617 38.6342C37.5867 38.9155 37.7461 38.953 38.543 38.9811C39.2836 39.0092 39.518 38.9811 39.9773 38.8123C40.5867 38.5873 41.3555 38.0155 41.5898 37.6123C41.7492 37.3498 41.7586 37.3405 42.4711 37.3873C43.3805 37.4342 44.0367 37.2655 44.7305 36.778C45.6305 36.1498 45.8086 35.7748 47.318 31.5467L48.6867 27.703L48.6492 26.8123C48.6211 26.053 48.5742 25.828 48.3398 25.3592C48.068 24.7873 47.2336 23.878 46.8867 23.7655C46.7273 23.7186 46.6992 23.6248 46.6992 23.1748C46.6992 22.6217 46.5305 21.8623 46.3242 21.4686C46.2586 21.3373 46.0523 21.0186 45.8555 20.7655C45.5273 20.3155 45.5086 20.2405 45.3961 19.1717C44.4398 9.59046 37.3898 1.97797 27.9023 0.271718C26.2711 -0.0189072 22.8398 -0.0657822 21.2367 0.177968ZM26.8711 1.74359C31.2305 2.34359 35.0086 4.22797 38.1305 7.34984C39.7711 8.99047 40.8305 10.4623 41.843 12.478C42.8648 14.5311 43.5398 16.8467 43.8117 19.2655L43.8492 19.5467L43.1742 19.5186L42.4992 19.4811L42.443 18.9561C41.5898 11.578 36.1336 5.34359 28.9336 3.52484C27.1711 3.08422 26.0461 2.97172 23.8242 3.02797C22.1461 3.06547 21.6211 3.11234 20.6836 3.31859C16.9711 4.10609 13.8773 5.80297 11.3086 8.44672C10.7367 9.03734 10.0805 9.76859 9.8461 10.078C7.98984 12.5061 6.66797 15.6842 6.28359 18.628L6.16172 19.4998H5.83359C5.64609 19.5092 5.33672 19.5655 5.14922 19.6311L4.79297 19.7623L4.84922 19.228C5.24297 15.628 6.50859 12.3561 8.64609 9.44047C9.51797 8.24984 11.3086 6.44047 12.4992 5.54984C16.7086 2.39984 21.8086 1.04984 26.8711 1.74359ZM7.14609 21.3092C7.78359 21.6467 8.06484 22.153 8.48672 23.7186C9.25547 26.6061 10.5492 30.2436 11.9273 33.3936C12.4711 34.6405 12.5742 34.9405 12.5742 35.3905C12.5742 36.6092 11.6742 37.4623 10.4555 37.3873C9.96797 37.3592 9.79922 37.303 9.50859 37.0686C9.02109 36.6748 8.84297 36.3842 8.21484 34.9967C7.34297 33.0655 6.50859 30.9373 5.82422 28.8748C5.07422 26.6342 4.23047 23.6061 4.23047 23.1561C4.23047 22.3967 4.68984 21.628 5.33672 21.2811C5.83359 21.0186 6.62109 21.0373 7.14609 21.3092ZM44.1867 21.4311C44.6555 21.7498 45.1055 22.5467 45.1055 23.0342C45.1055 24.1311 43.2586 29.9811 41.8805 33.253C40.8492 35.7092 40.3898 36.5811 39.9492 36.9655C39.0117 37.7623 37.6055 37.4811 37.0055 36.3842C36.6023 35.6248 36.6492 35.0998 37.2867 33.6655C38.7773 30.3186 40.1367 26.4655 40.9898 23.2123C41.3836 21.6842 42.0586 21.0467 43.2023 21.1123C43.6617 21.1405 43.8773 21.2061 44.1867 21.4311ZM4.23047 29.203C4.81172 30.9561 5.60859 33.0561 6.28359 34.6311C6.54609 35.2405 6.76172 35.7561 6.76172 35.7748C6.76172 35.7936 6.65859 35.8123 6.52734 35.8123C5.97422 35.8123 5.21484 35.3155 4.92422 34.753C4.84922 34.6123 4.22109 32.9061 3.52734 30.9655C2.49609 28.0967 2.26172 27.3373 2.26172 26.9342C2.26172 26.3905 2.43047 25.978 2.80547 25.5655L3.04922 25.3123L3.38672 26.503C3.57422 27.1686 3.95859 28.378 4.23047 29.203ZM46.8961 26.0811C47.2617 26.7936 47.1867 27.1217 45.8086 30.9655C45.1148 32.9061 44.4867 34.6123 44.4117 34.753C44.1211 35.3155 43.3617 35.8123 42.8086 35.8123C42.6773 35.8123 42.5742 35.7936 42.5742 35.7748C42.5742 35.7561 42.7898 35.2405 43.0523 34.6311C44.1023 32.1842 45.593 27.9467 46.0898 25.9967L46.268 25.3123L46.493 25.528C46.6148 25.6405 46.8023 25.8936 46.8961 26.0811ZM6.74297 37.4061H7.37109L7.85859 38.7655C8.25234 39.8436 8.33672 40.1717 8.26172 40.3498C8.11172 40.753 7.53984 40.9123 7.20234 40.6592C7.10859 40.603 6.87422 40.1061 6.67734 39.5623C6.47109 39.0186 6.19922 38.2873 6.06797 37.9311C5.87109 37.4155 5.85234 37.303 5.97422 37.3498C6.05859 37.378 6.40547 37.4061 6.74297 37.4061ZM27.1523 45.1311C27.7242 45.3748 27.7242 46.1248 27.1523 46.3686C26.6836 46.5561 22.6523 46.5561 22.1836 46.3686C21.6211 46.1342 21.6117 45.3748 22.1648 45.1405C22.6055 44.9436 26.693 44.9436 27.1523 45.1311Z" fill="black"/>
</g>
<defs>
<clipPath id="clip0_684_7407">
<rect width="48" height="48" fill="white" transform="translate(0.667969)"/>
</clipPath>
</defs>
</svg>
