<svg width="64" height="64" viewBox="0 0 64 64" fill="none" xmlns="http://www.w3.org/2000/svg">
<circle cx="31" cy="48" r="6" fill="#FDB602"/>
<circle cx="47" cy="48" r="6" fill="#FDB602"/>
<path d="M62 30C62 54.5 59.5 30 32 34C27.2745 34.6873 22.0957 38.0897 19 42C11.6139 51.3296 9.04657 62.4142 2 30C2 13.9837 15.4315 1 32 1C48.5685 1 62 13.9837 62 30Z" fill="#FDB602"/>
<path d="M28.501 1.16695C20.9828 2.15629 14.3137 5.64371 9.1457 11.3077C4.77754 16.0812 2.0459 22.0172 1.18457 28.5963C0.938477 30.5255 0.938477 34.5076 1.18457 36.4368C2.07051 43.2138 5.03594 49.4466 9.77324 54.4922C10.3516 55.0982 10.9914 55.6547 11.2744 55.7784C12.5172 56.3473 13.6738 55.7908 14.0307 54.4551C14.2521 53.6018 14.043 53.169 12.6648 51.7097C10.7576 49.6692 8.98574 47.1835 7.90293 45.0193C6.47559 42.1874 5.33125 38.3413 5.10977 35.6083L5.02363 34.6189H16.467L16.5531 36.239C16.7377 39.6893 17.2299 42.9912 17.6729 43.659C18.4604 44.8833 20.3553 44.6854 20.9459 43.3251L21.192 42.7686L20.8844 40.5797C20.7244 39.3801 20.5521 37.8837 20.5029 37.2778C20.466 36.6594 20.4045 35.8185 20.3676 35.3857L20.2938 34.6189H30.5312V34.9528C30.5436 35.497 30.9619 36.2884 31.4049 36.61C31.9955 37.0304 33.0045 37.0304 33.5951 36.61C34.0381 36.2884 34.4564 35.497 34.4688 34.9528V34.6189H44.6816V34.9034C44.6816 35.3115 45.2231 36.0411 45.7029 36.2761C46.8104 36.7955 48.1762 36.1524 48.4346 34.9899L48.5207 34.6189H60.0625L60.0133 34.891C59.9764 35.0518 59.9148 35.5093 59.8779 35.9174C59.7672 37.0181 59.3611 38.972 58.9428 40.3818C58.5244 41.8535 58.4998 42.1997 58.8197 42.781C59.3488 43.8074 60.6777 44.2031 61.5391 43.6095C62.1666 43.1891 62.3881 42.8057 62.7695 41.4701C63.6432 38.5021 64 35.8927 64 32.5166C64 27.3473 63.0156 23.0437 60.7885 18.5546C56.0512 8.99509 46.9334 2.47782 36.4375 1.16695C34.5672 0.94435 30.2729 0.94435 28.501 1.16695ZM30.5312 11.0603V16.8109H26.5322C24.3297 16.8109 22.5332 16.7861 22.5332 16.749C22.5332 16.6006 23.4314 14.2509 23.8867 13.2245C25.3879 9.79892 27.7012 6.81855 29.7438 5.71791C30.1375 5.4953 30.482 5.3098 30.5066 5.3098C30.5189 5.3098 30.5312 7.89445 30.5312 11.0603ZM36.9666 7.04114C39.0215 8.97035 40.658 11.7158 42.0484 15.5494C42.2822 16.1802 42.4668 16.7243 42.4668 16.749C42.4668 16.7861 40.6703 16.8109 38.4678 16.8109H34.4688V5.29743L35.2316 5.70554C35.6377 5.92814 36.4252 6.52174 36.9666 7.04114ZM22.5455 7.64712C21.1797 9.74946 19.7031 12.9648 18.8787 15.6607L18.5342 16.8109H9.84707L10.1178 16.4028C11.9143 13.8057 14.9658 10.9614 17.9805 9.05692C19.3463 8.20362 22.6439 6.59594 23.1115 6.55884C23.1977 6.54647 22.9393 7.04114 22.5455 7.64712ZM43.5004 7.20191C46.8842 8.68592 50.4156 11.184 52.7289 13.7686C53.6025 14.7456 55.1406 16.6501 55.1406 16.7614C55.1406 16.7861 53.1842 16.8109 50.7971 16.8109H46.4535L46.3059 16.2544C45.6783 13.9047 43.8326 9.77419 42.4791 7.68422C42.0731 7.06588 41.79 6.54647 41.8516 6.54647C41.9254 6.54647 42.6637 6.84328 43.5004 7.20191ZM17.4883 20.8671C17.4883 20.9166 17.3529 21.8565 17.1807 22.9447C16.8484 25.0595 16.5039 28.6211 16.5039 29.8825V30.6616H4.9375L4.98672 30.3771C5.02363 30.2287 5.08516 29.7093 5.12207 29.2394C5.34355 26.9021 6.11875 24.0454 7.32461 21.2258L7.52148 20.7682H12.5049C15.2488 20.7682 17.4883 20.8177 17.4883 20.8671ZM30.5312 30.6616H20.2938L20.3799 29.4496C20.5275 27.1 20.8229 24.5153 21.1182 22.7716C21.2904 21.7946 21.4258 20.9537 21.4258 20.8919C21.4258 20.8177 23.1607 20.7682 25.9785 20.7682H30.5312V30.6616ZM43.5742 20.8671C43.5742 20.929 43.7096 21.7823 43.8818 22.784C44.1895 24.6019 44.4725 27.2236 44.6201 29.4496L44.694 30.6616H34.4688V20.7682H39.0215C41.5316 20.7682 43.5742 20.8177 43.5742 20.8671ZM57.7861 21.4731C58.832 23.7733 59.6811 27.0629 59.9887 30.0061L60.0502 30.6616H48.5453L48.3977 28.3985C48.25 25.9746 47.9793 23.7362 47.6471 21.9059L47.4256 20.7682H57.4662L57.7861 21.4731Z" fill="#0D0D0D"/>
<path d="M55 48C55.0002 49.5822 54.5462 51.1289 53.6953 52.4445C52.8445 53.7601 51.6352 54.7855 50.2202 55.3911C48.8052 55.9966 47.2482 56.155 45.746 55.8462C44.2439 55.5375 42.8641 54.7755 41.7812 53.6567L41.718 53.586L33.993 44.5751C33.3399 43.9127 32.512 43.4644 31.6131 43.2864C30.7143 43.1084 29.7846 43.2086 28.9407 43.5744C28.0967 43.9403 27.3762 44.5555 26.8695 45.3428C26.3628 46.1301 26.0925 47.0545 26.0925 48C26.0925 48.9455 26.3628 49.8699 26.8695 50.6572C27.3762 51.4445 28.0967 52.0597 28.9407 52.4256C29.7846 52.7914 30.7143 52.8916 31.6131 52.7136C32.512 52.5356 33.3399 52.0873 33.993 51.4249L34.3905 50.961C34.5253 50.8034 34.6888 50.6748 34.8717 50.5825C35.0547 50.4903 35.2534 50.4361 35.4566 50.4232C35.6597 50.4102 35.8634 50.4388 36.0559 50.5071C36.2484 50.5755 36.426 50.6824 36.5785 50.8217C36.7311 50.9609 36.8555 51.1299 36.9449 51.3188C37.0342 51.5078 37.0866 51.7131 37.0991 51.923C37.1116 52.1329 37.084 52.3433 37.0178 52.5422C36.9517 52.741 36.8482 52.9245 36.7134 53.0821L36.2811 53.586L36.2178 53.6567C35.1349 54.7752 33.7552 55.5369 32.2532 55.8454C30.7512 56.154 29.1944 55.9955 27.7796 55.39C26.3648 54.7846 25.1556 53.7593 24.3049 52.4439C23.4541 51.1285 23 49.582 23 48C23 46.418 23.4541 44.8715 24.3049 43.5561C25.1556 42.2407 26.3648 41.2155 27.7796 40.61C29.1944 40.0045 30.7512 39.846 32.2532 40.1546C33.7552 40.4631 35.1349 41.2248 36.2178 42.3433L36.2811 42.414L44.0061 51.4249C44.6592 52.0873 45.4871 52.5356 46.386 52.7136C47.2848 52.8916 48.2145 52.7914 49.0584 52.4256C49.9023 52.0597 50.6228 51.4445 51.1296 50.6572C51.6363 49.8699 51.9066 48.9455 51.9066 48C51.9066 47.0545 51.6363 46.1301 51.1296 45.3428C50.6228 44.5555 49.9023 43.9403 49.0584 43.5744C48.2145 43.2086 47.2848 43.1084 46.386 43.2864C45.4871 43.4644 44.6592 43.9127 44.0061 44.5751L43.6086 45.039C43.4738 45.1966 43.3103 45.3252 43.1273 45.4175C42.9444 45.5097 42.7457 45.5639 42.5425 45.5768C42.3393 45.5898 42.1357 45.5612 41.9432 45.4929C41.7507 45.4245 41.5731 45.3176 41.4205 45.1783C41.268 45.0391 41.1435 44.8701 41.0542 44.6812C40.9649 44.4922 40.9125 44.2869 40.8999 44.077C40.8874 43.8671 40.915 43.6567 40.9812 43.4578C41.0474 43.259 41.1509 43.0755 41.2857 42.9179L41.718 42.414L41.7812 42.3433C42.8641 41.2245 44.2439 40.4625 45.746 40.1538C47.2482 39.845 48.8052 40.0034 50.2202 40.6089C51.6352 41.2145 52.8445 42.2399 53.6953 43.5555C54.5462 44.8711 55.0002 46.4178 55 48Z" fill="#0D0D0D"/>
</svg>
