<svg width="64" height="64" viewBox="0 0 64 64" fill="none" xmlns="http://www.w3.org/2000/svg">
<circle cx="30" cy="17" r="6" fill="#FDB602"/>
<circle cx="46" cy="17" r="6" fill="#FDB602"/>
<path fill-rule="evenodd" clip-rule="evenodd" d="M24 53L24.8017 53.7748C25.5113 54.4605 26.3224 55.1382 25.616 55.8268L21.8981 59.451C21.1606 60.1699 19.9331 60.1847 19.1759 59.4838L4.56265 45.9571C3.81888 45.2686 3.81157 44.1499 4.5463 43.453L8.62633 39.5833C9.37846 38.8699 10.6143 38.8753 11.3592 39.5952L12.0564 40.269L16.1159 36.4245C16.7239 35.7221 17.7697 34.7525 19.0731 33.9519C20.4016 33.1359 22.1439 32.4065 24.0502 32.4705C26.5201 32.5536 26.8887 32.5275 27.283 32.4996C27.4909 32.4849 27.7059 32.4697 28.2398 32.4697H28.2593C28.9193 32.4697 29.6336 32.4696 30.634 32.7427C31.5304 32.9873 32.612 33.437 34.1385 34.2237H44.4613L44.4889 34.2247C45.2679 34.2528 46.4113 34.4783 47.4181 35.1C48.0798 35.5086 48.6791 36.0908 49.0559 36.8661L54.4167 31.2891C54.792 30.8921 55.4369 30.4136 56.2675 30.1655C57.158 29.8994 58.2661 29.9047 59.3451 30.552C60.705 31.3678 61.0467 32.5672 60.9951 33.524C60.9485 34.3868 60.591 35.0829 60.5075 35.2455L60.5037 35.2528C60.449 35.3595 60.3598 35.4847 60.3363 35.5178C60.3343 35.5205 60.3318 35.5241 60.3318 35.5241C60.2821 35.5948 60.2151 35.6882 60.1347 35.7994C59.9732 36.0227 59.747 36.3321 59.4726 36.7056C58.9233 37.4532 58.1741 38.4667 57.3476 39.5821C55.706 41.7972 53.7553 44.4197 52.4483 46.1741C51.4826 47.6782 48.8562 51.0444 44.1765 51.0444H28.4969C27.2437 51.0444 26.5477 51.1659 26 51.5C25.5972 51.7457 24.449 52.5723 24 53Z" fill="#FDB602"/>
<path fill-rule="evenodd" clip-rule="evenodd" d="M58.4515 30.5433C58.1836 30.6293 57.9459 30.8198 57.8443 30.9358L57.8389 30.942L49.5094 40.2447C49.3185 40.5046 49.1025 40.7387 48.8665 40.9474C47.5243 42.1347 45.7631 42.3115 45.1211 42.3115H35.6835V39.3115H45.1211C45.2382 39.3115 45.5536 39.2892 45.9216 39.186C46.2629 39.0903 46.579 38.945 46.8229 38.7477L47.1497 38.3827C47.1887 38.3201 47.2237 38.2527 47.2542 38.18C47.3444 37.9653 47.4162 37.6552 47.3975 37.2054C47.3664 36.457 47.0336 36.0355 46.5944 35.7444C46.1038 35.4191 45.4856 35.2771 45.0881 35.2569H33.5373L33.1944 35.0637C31.4752 34.095 30.48 33.6669 29.8014 33.468C29.1758 33.2847 28.7835 33.2816 28.1334 33.2816C27.8137 33.2816 27.6275 33.2939 27.4219 33.3074C26.9367 33.3394 26.343 33.3785 23.6302 33.2807C22.502 33.2399 21.2962 33.7119 20.1687 34.4554C19.0533 35.1909 18.1647 36.0942 17.7152 36.6626L17.6649 36.7262L13.2392 41.2259L22.4502 50.7821C22.9827 50.2442 23.5401 49.7317 24.1578 49.3272C25.3069 48.5747 26.6168 48.2003 28.4031 48.2003H44.8515C48.0932 48.2003 50.0783 45.6535 50.9764 44.1383L51.0038 44.0921L51.0344 44.048C52.4047 42.0733 54.4668 39.0973 56.1994 36.5873C57.0659 35.332 57.8491 34.1946 58.4219 33.3577C58.7086 32.9388 58.9409 32.5976 59.1041 32.3553C59.1861 32.2336 59.2479 32.1408 59.2897 32.0772C59.2944 32.0699 59.2988 32.0632 59.3027 32.0572C59.37 31.9071 59.4833 31.6191 59.4985 31.3183C59.5065 31.159 59.4835 31.0445 59.4463 30.9614C59.4152 30.8919 59.3456 30.7769 59.1395 30.6442C58.9833 30.5436 58.8623 30.5124 58.7728 30.5033C58.6774 30.4936 58.5715 30.5049 58.4515 30.5433ZM24.5339 52.9439L25.375 53.8164C26.1193 54.5887 26.122 55.8106 25.381 56.5861L21.4808 60.6677C20.7071 61.4773 19.4194 61.494 18.625 60.7046L3.29532 45.471C2.51507 44.6956 2.50741 43.4357 3.27816 42.6509L7.55824 38.2929C8.34726 37.4895 9.64368 37.4956 10.4251 38.3063L11.1565 39.0652L15.415 34.7355C16.0529 33.9444 17.15 32.8525 18.5172 31.9509C19.9108 31.0319 21.7386 30.2104 23.7383 30.2826C26.3294 30.3761 26.716 30.3467 27.1297 30.3153C27.3478 30.2988 27.5734 30.2816 28.1334 30.2816H28.1538C28.8463 30.2816 29.5955 30.2816 30.645 30.5891C31.5853 30.8646 32.72 31.371 34.3213 32.2569H45.1502L45.1792 32.2581C45.9964 32.2897 47.1959 32.5437 48.2521 33.2439C48.9462 33.7041 49.5748 34.3596 49.9701 35.2328L55.5938 28.952C55.9875 28.505 56.664 27.9661 57.5353 27.6867C58.4695 27.387 59.6319 27.393 60.7639 28.122C62.1904 29.0407 62.5489 30.3915 62.4947 31.469C62.4458 32.4407 62.0708 33.2246 61.9832 33.4077L61.9793 33.4159C61.9218 33.5361 61.8283 33.6772 61.8036 33.7144C61.8015 33.7175 61.7989 33.7214 61.7989 33.7214C61.7467 33.8011 61.6765 33.9063 61.5922 34.0315C61.4227 34.283 61.1854 34.6314 60.8976 35.052C60.3213 35.8941 59.5354 37.0354 58.6683 38.2915C56.9463 40.7862 54.9 43.7395 53.5289 45.7154C52.5158 47.4093 49.7607 51.2003 44.8515 51.2003H28.4031C27.0884 51.2003 26.3759 51.4607 25.8013 51.837C25.3788 52.1137 25.005 52.4621 24.5339 52.9439ZM6.11513 44.0438L20.0163 57.8578L22.549 55.2074L8.97844 41.1283L6.11513 44.0438Z" fill="#0D0D0D"/>
<path d="M54 17C54.0002 18.5822 53.5462 20.1289 52.6954 21.4445C51.8446 22.7601 50.6352 23.7855 49.2202 24.3911C47.8053 24.9966 46.2482 25.155 44.7461 24.8462C43.244 24.5375 41.8642 23.7755 40.7813 22.6567L40.7181 22.586L32.993 13.5751C32.3399 12.9127 31.512 12.4644 30.6132 12.2864C29.7143 12.1084 28.7846 12.2086 27.9407 12.5744C27.0968 12.9403 26.3763 13.5555 25.8696 14.3428C25.3629 15.1301 25.0926 16.0545 25.0926 17C25.0926 17.9455 25.3629 18.8699 25.8696 19.6572C26.3763 20.4445 27.0968 21.0597 27.9407 21.4256C28.7846 21.7914 29.7143 21.8916 30.6132 21.7136C31.512 21.5356 32.3399 21.0873 32.993 20.4249L33.3905 19.961C33.5253 19.8034 33.6889 19.6748 33.8718 19.5825C34.0547 19.4903 34.2534 19.4361 34.4566 19.4232C34.6598 19.4102 34.8635 19.4388 35.056 19.5071C35.2485 19.5755 35.4261 19.6824 35.5786 19.8217C35.7311 19.9609 35.8556 20.1299 35.9449 20.3188C36.0342 20.5078 36.0867 20.7131 36.0992 20.923C36.1117 21.1329 36.0841 21.3433 36.0179 21.5422C35.9517 21.741 35.8483 21.9245 35.7134 22.0821L35.2811 22.586L35.2179 22.6567C34.1349 23.7752 32.7552 24.5369 31.2533 24.8454C29.7513 25.154 28.1945 24.9955 26.7797 24.39C25.3649 23.7845 24.1557 22.7593 23.3049 21.4439C22.4541 20.1285 22.0001 18.582 22.0001 17C22.0001 15.418 22.4541 13.8715 23.3049 12.5561C24.1557 11.2407 25.3649 10.2155 26.7797 9.60998C28.1945 9.00451 29.7513 8.84603 31.2533 9.15456C32.7552 9.4631 34.1349 10.2248 35.2179 11.3433L35.2811 11.414L43.0061 20.4249C43.6592 21.0873 44.4872 21.5356 45.386 21.7136C46.2848 21.8916 47.2146 21.7914 48.0585 21.4256C48.9024 21.0597 49.6229 20.4445 50.1296 19.6572C50.6363 18.8699 50.9066 17.9455 50.9066 17C50.9066 16.0545 50.6363 15.1301 50.1296 14.3428C49.6229 13.5555 48.9024 12.9403 48.0585 12.5744C47.2146 12.2086 46.2848 12.1084 45.386 12.2864C44.4872 12.4644 43.6592 12.9127 43.0061 13.5751L42.6087 14.039C42.4739 14.1966 42.3103 14.3252 42.1274 14.4175C41.9445 14.5097 41.7457 14.5639 41.5426 14.5768C41.3394 14.5898 41.1357 14.5612 40.9432 14.4929C40.7507 14.4245 40.5731 14.3176 40.4206 14.1783C40.2681 14.0391 40.1436 13.8701 40.0543 13.6812C39.9649 13.4922 39.9125 13.2869 39.9 13.077C39.8875 12.8671 39.9151 12.6567 39.9813 12.4578C40.0475 12.259 40.1509 12.0755 40.2857 11.9179L40.7181 11.414L40.7813 11.3433C41.8642 10.2245 43.244 9.46248 44.7461 9.15376C46.2482 8.84503 47.8053 9.00344 49.2202 9.60895C50.6352 10.2145 51.8446 11.2399 52.6954 12.5555C53.5462 13.8711 54.0002 15.4178 54 17Z" fill="#0D0D0D"/>
</svg>
