<svg width="64" height="64" viewBox="0 0 64 64" fill="none" xmlns="http://www.w3.org/2000/svg">
<g clip-path="url(#clip0_472_2816)">
<rect x="3" y="9" width="58" height="49" fill="#FDB602"/>
<path d="M6.01237 5.43513C5.31871 5.60632 4.71497 6.10279 4.17546 6.90741C3.55888 7.84898 3.39189 8.568 3.31481 10.5881L3.25058 12.437H60.8756L60.8114 10.571C60.7343 8.37969 60.4774 7.52371 59.6553 6.53078C58.5762 5.21258 61.171 5.33241 32.3842 5.31529C18.1899 5.29817 6.32066 5.34953 6.01237 5.43513Z" fill="#FDB602"/>
<path d="M7.28637 2.76157C6.03262 2.76186 4.77461 2.98079 3.70228 3.63042C2.63934 4.27436 1.3607 5.25108 0.775585 6.47452C-0.0494156 8.19952 0.000584367 6.39952 0.000584367 31.962V54.1388C0.000584367 54.8252 0.105979 55.5076 0.313084 56.162C1.10058 58.637 3.25059 60.587 5.81309 61.1245C7.12559 61.3995 56.8756 61.3995 58.1881 61.1245C60.7506 60.587 62.9006 58.637 63.6881 56.162C63.8952 55.5076 64.0006 54.8252 64.0006 54.1388V31.962C64.0006 11.537 63.9756 8.64951 63.8131 8.01201C63.2882 5.95299 61.6674 4.53881 60.3595 3.69919C59.2144 2.96409 57.8412 2.74968 56.4804 2.75L7.28637 2.76157ZM55.4023 6.61504C56.8989 6.63805 58.5304 6.82009 59.4142 8.02818C59.4675 8.10109 59.5174 8.17503 59.5631 8.24952C59.9131 8.82452 59.9381 8.93702 59.9881 10.3995L60.0256 11.937H3.97558L4.01308 10.3995C4.06309 8.93702 4.08809 8.82452 4.43809 8.24952C4.87559 7.53702 5.52559 6.98702 6.20059 6.74952C7.37549 6.49952 10.7881 6.57452 31.9381 6.56202C44.7297 6.56202 51.9537 6.56202 55.4023 6.61504ZM59.9756 35.337C59.9381 53.987 59.9256 54.8995 59.7131 55.337C59.3881 55.987 58.6756 56.6745 58.0131 56.987C57.6342 57.16 57.2225 57.2495 56.806 57.2495H7.18382C6.77497 57.2495 6.37108 57.1599 6.00059 56.987C5.33809 56.6745 4.61309 55.962 4.28808 55.3245C4.07558 54.8995 4.06309 53.9245 4.02559 35.337L4.00059 15.812H60.0006L59.9756 35.337Z" fill="#0D0D0D"/>
<path d="M15.6506 21.562C15.4256 21.6995 15.1381 21.987 15.0006 22.212C14.7506 22.612 14.7506 22.812 14.7756 28.462L14.8092 33.6896C14.8117 34.081 14.9654 34.4563 15.2381 34.737C16.0131 35.537 17.0006 35.6245 17.8631 34.9745C18.5756 34.4245 18.6256 34.1495 18.6256 30.912V27.9995L30.0006 39.3745V45.437C30.0006 51.487 30.0006 51.512 30.2881 52.062C30.6881 52.8495 31.1131 53.1245 31.9756 53.1245C32.8506 53.1245 33.4131 52.7745 33.7631 52.012C33.9756 51.537 34.0006 51.0745 34.0006 44.9995C34.0006 40.737 33.9506 38.3245 33.8631 37.9995C33.7506 37.5745 32.8256 36.587 27.5881 31.337L21.4381 25.187H24.3506C27.5506 25.187 27.8256 25.137 28.4006 24.462C29.0631 23.6745 28.9756 22.5745 28.1756 21.7995C27.8948 21.5268 27.5196 21.3731 27.1282 21.3706L21.9006 21.337C16.2506 21.312 16.0506 21.312 15.6506 21.562Z" fill="#0D0D0D"/>
<path d="M37.3751 21.3765C36.7272 21.3898 36.0904 21.6122 35.647 22.0849C35.4558 22.2887 35.2886 22.4978 35.2381 22.6495C35.0631 23.212 35.1881 23.8995 35.5881 24.4245C36.1381 25.137 36.4131 25.187 39.6506 25.187H42.5631L39.1631 28.587C37.3006 30.462 35.6756 32.187 35.5631 32.4245C34.8006 33.962 36.6006 35.762 38.1381 34.9995C38.3756 34.887 40.1006 33.262 41.9756 31.3995L45.3756 27.9995V30.912C45.3756 34.1745 45.4256 34.4245 46.1881 35.012C46.5631 35.287 46.7881 35.362 47.3131 35.362C48.0631 35.3745 48.5006 35.137 48.9756 34.437C49.1549 34.168 49.2506 33.852 49.2506 33.5288V28.3245C49.2506 22.862 49.2381 22.612 49.0006 22.212C48.8631 21.987 48.5756 21.6995 48.3506 21.562C47.9506 21.3245 47.7131 21.312 42.2506 21.3245C40.276 21.3245 38.4511 21.3545 37.3751 21.3765Z" fill="#0D0D0D"/>
</g>
<defs>
<clipPath id="clip0_472_2816">
<rect width="64" height="64" fill="white"/>
</clipPath>
</defs>
</svg>
