<svg width="96" height="64" viewBox="0 0 96 64" fill="none" xmlns="http://www.w3.org/2000/svg">
<path d="M18.7656 2H42.6824C46.021 2 48.0974 4.72138 47.3189 8.07125L36.1836 55.8781C35.398 59.2164 32.0549 61.94 28.7144 61.94H4.79951C1.46576 61.94 -0.615486 59.2164 0.163389 55.8781L11.3031 8.07125C12.082 4.72138 15.4229 2 18.7656 2Z" fill="#E21836"/>
<path d="M40.6935 2H68.1975C71.5354 2 70.0305 4.72138 69.2453 8.07125L58.1115 55.8781C57.3308 59.2164 57.5742 61.94 54.2292 61.94H26.7255C23.3805 61.94 21.3105 59.2164 22.0962 55.8781L33.2288 8.07125C34.0193 4.72138 37.3534 2 40.6935 2Z" fill="#00447C"/>
<path d="M67.1066 2H91.0234C94.3669 2 96.4433 4.72138 95.6584 8.07125L84.5246 55.8781C83.739 59.2164 80.394 61.94 77.0509 61.94H53.1454C49.8004 61.94 47.7255 59.2164 48.5093 55.8781L59.6441 8.07125C60.423 4.72138 63.7616 2 67.1066 2Z" fill="#007B84"/>
<path d="M25.0111 17.3207C22.5519 17.3458 21.8255 17.3207 21.5934 17.266C21.5041 17.6897 19.8444 25.3457 19.8399 25.3521C19.4825 26.9008 19.2226 28.0052 18.3391 28.7181C17.8381 29.1325 17.2528 29.3327 16.574 29.3327C15.4835 29.3327 14.8479 28.7908 14.7414 27.7637L14.7208 27.4112C14.7208 27.4112 15.053 25.3363 15.053 25.3247C15.053 25.3247 16.7949 18.3478 17.1069 17.4257C17.1234 17.3732 17.1279 17.3458 17.132 17.3207C13.7416 17.3507 13.1405 17.3207 13.0992 17.266C13.0764 17.341 12.9924 17.7737 12.9924 17.7737L11.2138 25.6375L11.0611 26.3042L10.7656 28.4856C10.7656 29.1325 10.8928 29.6608 11.1455 30.1075C11.9559 31.5235 14.2674 31.7357 15.575 31.7357C17.2595 31.7357 18.8401 31.3776 19.9081 30.724C21.7618 29.629 22.247 27.9167 22.6794 26.395L22.88 25.6146C22.88 25.6146 24.6744 18.3685 24.9792 17.4257C24.9905 17.3732 24.9954 17.3458 25.0111 17.3207ZM31.1161 23.1662C30.6837 23.1662 29.8936 23.2712 29.1834 23.6192C28.9257 23.7516 28.682 23.9042 28.4248 24.0565L28.6569 23.2187L28.5298 23.0777C27.0241 23.3826 26.687 23.4235 25.2961 23.6192L25.1799 23.6968C25.0183 25.0356 24.8746 26.0425 24.2761 28.6746C24.0468 29.6482 23.8128 30.6207 23.5741 31.5921L23.6379 31.7147C25.0636 31.6397 25.496 31.6397 26.735 31.66L26.8351 31.5512C26.9926 30.745 27.0129 30.556 27.3616 28.9228C27.5255 28.1488 27.8671 26.4478 28.0355 25.8422C28.3449 25.6986 28.6505 25.5576 28.9419 25.5576C29.6364 25.5576 29.5516 26.1632 29.525 26.4047C29.495 26.8097 29.2423 28.1331 28.9827 29.2693L28.8095 30.0025C28.6891 30.5443 28.5568 31.0705 28.436 31.6075L28.4885 31.7147C29.8933 31.6397 30.3219 31.6397 31.5215 31.66L31.6625 31.5512C31.8796 30.292 31.943 29.9548 32.3278 28.1215L32.5212 27.2792C32.8974 25.6303 33.0864 24.7945 32.8018 24.1135C32.501 23.3503 31.7787 23.1662 31.1161 23.1662ZM37.937 24.8923C37.19 25.036 36.7137 25.1312 36.2405 25.1931C35.7714 25.2681 35.3135 25.3367 34.592 25.4368L34.5346 25.4886L34.4821 25.5298C34.4071 26.0676 34.3546 26.5322 34.2549 27.0786C34.1705 27.6433 34.0404 28.2853 33.8289 29.2075C33.665 29.9132 33.5806 30.1592 33.4873 30.4075C33.3961 30.6561 33.296 30.8976 33.1119 31.5917L33.155 31.6558L33.191 31.7147C33.8656 31.6828 34.307 31.66 34.7604 31.6558C35.2134 31.6397 35.6829 31.6558 36.4089 31.6596L36.4726 31.6082L36.5409 31.5508C36.6459 30.9246 36.6612 30.7562 36.7254 30.451C36.7891 30.1232 36.8986 29.6698 37.1675 28.4582C37.2946 27.8893 37.436 27.322 37.568 26.7415C37.7049 26.1632 37.8481 25.594 37.9846 25.0247L37.9644 24.9561L37.937 24.8923ZM37.9528 22.5651C37.274 22.1646 36.0834 22.2917 35.2816 22.8448C34.4825 23.3871 34.3914 24.1566 35.0679 24.5623C35.7346 24.9516 36.9301 24.8357 37.7248 24.2777C38.5224 23.7238 38.6221 22.9615 37.9528 22.5651ZM42.0564 31.8403C43.4292 31.8403 44.8366 31.4616 45.896 30.3392C46.7109 29.4287 47.0848 28.0738 47.2141 27.5158C47.6353 25.6667 47.3071 24.8035 46.8954 24.2777C46.2691 23.476 45.1625 23.2187 44.0146 23.2187C43.3246 23.2187 41.6806 23.287 40.3962 24.4712C39.4737 25.3251 39.0478 26.4842 38.7909 27.595C38.5314 28.7275 38.2329 30.7652 40.1071 31.5238C40.6854 31.7721 41.519 31.8403 42.0564 31.8403ZM41.9491 27.6797C42.2656 26.2795 42.6395 25.1042 43.5931 25.1042C44.3405 25.1042 44.3949 25.9787 44.0626 27.3835C44.003 27.6955 43.7304 28.855 43.3614 29.3485C43.1034 29.713 42.7989 29.9338 42.4614 29.9338C42.3613 29.9338 41.765 29.9338 41.7556 29.0485C41.7511 28.6112 41.8404 28.1646 41.9491 27.6797ZM50.6458 31.6603L50.753 31.5512C50.9053 30.745 50.9304 30.5556 51.2671 28.9232C51.4359 28.1488 51.7846 26.4482 51.9481 25.8422C52.2583 25.6982 52.5586 25.5572 52.8594 25.5572C53.549 25.5572 53.465 26.1628 53.4376 26.4043C53.4125 26.8101 53.1594 28.1327 52.8954 29.269L52.7315 30.0021C52.6063 30.5443 52.4697 31.0701 52.349 31.6078L52.4015 31.7151C53.8115 31.6401 54.2233 31.6401 55.43 31.6603L55.5759 31.5512C55.7874 30.2912 55.8447 29.9545 56.2411 28.1215L56.4298 27.2788C56.8078 25.63 56.999 24.7948 56.7189 24.1138C56.4095 23.3507 55.6831 23.1666 55.0295 23.1666C54.5964 23.1666 53.8021 23.2708 53.096 23.6196C52.8436 23.7516 52.5905 23.9038 52.3422 24.0568L52.5586 23.2191L52.4424 23.0773C50.9371 23.3826 50.5936 23.4235 49.2043 23.6196L49.0974 23.6968C48.929 25.036 48.7921 26.0421 48.1936 28.675C47.9642 29.6484 47.7303 30.6208 47.492 31.5921L47.5558 31.7151C48.9834 31.6401 49.4094 31.6401 50.6458 31.6603ZM61.0025 31.7147C61.091 31.282 61.6175 28.7185 61.622 28.7185C61.622 28.7185 62.0701 26.8371 62.0979 26.7688C62.0979 26.7688 62.2389 26.5731 62.3799 26.4955H62.5873C64.5455 26.4955 66.7569 26.4955 68.4897 25.2205C69.6691 24.346 70.4754 23.0548 70.835 21.4855C70.9284 21.1007 70.997 20.6432 70.997 20.1857C70.997 19.5846 70.8766 18.9898 70.5279 18.5252C69.644 17.2888 67.8841 17.266 65.8524 17.2566L64.8511 17.266C62.2505 17.2982 61.2076 17.2888 60.779 17.2363C60.743 17.4257 60.6748 17.7628 60.6748 17.7628C60.6748 17.7628 59.7432 22.0802 59.7432 22.087L57.4089 31.699C59.6795 31.6716 60.6106 31.6716 61.0025 31.7147ZM62.7286 24.0452C62.7286 24.0452 63.7186 19.7365 63.7141 19.753L63.7464 19.5317L63.7603 19.3637L64.1562 19.4042C64.1562 19.4042 66.1989 19.5797 66.2465 19.5842C67.0528 19.8962 67.385 20.7002 67.1533 21.7495C66.9414 22.7087 66.3196 23.515 65.5201 23.9042C64.862 24.2342 64.0557 24.2616 63.2251 24.2616H62.6878L62.7286 24.0452ZM68.8951 27.7596C68.6334 28.8752 68.3326 30.9133 70.1975 31.6397C70.7923 31.8925 71.3251 31.9678 71.8662 31.9405C72.4385 31.9097 72.9684 31.6228 73.4593 31.21L73.3261 31.7196L73.4109 31.8283C74.7523 31.7721 75.1685 31.7721 76.6216 31.7833L76.7536 31.6828C76.9655 30.4352 77.1657 29.224 77.7174 26.8371C77.9859 25.6941 78.254 24.562 78.5296 23.4235L78.4865 23.2982C76.9861 23.5761 76.5853 23.6357 75.1415 23.8401L75.032 23.9293C75.0174 24.0456 75.002 24.157 74.9881 24.2683C74.7639 23.9057 74.4384 23.596 73.9366 23.4032C73.2946 23.1505 71.7871 23.476 70.4915 24.6557C69.5806 25.4983 69.1434 26.6526 68.8951 27.7596ZM72.0466 27.8278C72.368 26.4523 72.7366 25.2891 73.6929 25.2891C74.2974 25.2891 74.6157 25.8467 74.5509 26.7981C74.4955 27.0553 74.438 27.312 74.3784 27.5683C74.2827 27.9771 74.1793 28.3821 74.0784 28.7878C73.9756 29.0653 73.856 29.3271 73.7251 29.5015C73.4791 29.8502 72.8937 30.0662 72.5566 30.0662C72.461 30.0662 71.8711 30.0662 71.8509 29.1962C71.846 28.7635 71.9353 28.3176 72.0466 27.8278ZM88.5039 23.2866L88.3876 23.1542C86.903 23.455 86.6341 23.503 85.2703 23.6871L85.1698 23.7872C85.1653 23.8037 85.1611 23.8285 85.154 23.8513L85.1495 23.8288C84.134 26.1718 84.1636 25.6663 83.3371 27.5106C83.3322 27.4266 83.3322 27.3745 83.3277 27.2852L83.1207 23.2866L82.991 23.1542C81.4355 23.455 81.3988 23.503 79.9625 23.6871L79.8504 23.7872C79.8346 23.8352 79.8346 23.8877 79.8252 23.9447L79.8346 23.9653C80.0142 24.8826 79.9711 24.6778 80.1511 26.1261C80.2351 26.8367 80.3472 27.5515 80.4309 28.2535C80.5726 29.428 80.6521 30.0062 80.825 31.7991C79.8553 33.3996 79.6254 34.0056 78.6913 35.4103L78.698 35.4242L78.0402 36.4645C77.9652 36.5739 77.897 36.649 77.8014 36.6812C77.6964 36.733 77.5599 36.7423 77.3705 36.7423H77.006L76.4645 38.5438L78.3226 38.5757C79.4131 38.5712 80.0986 38.0612 80.4676 37.3757L81.6361 35.3736H81.6174L81.7404 35.2326C82.5264 33.541 88.5039 23.2866 88.5039 23.2866ZM68.8951 46.9446H68.1069L71.0244 37.2958H71.9919L72.2994 36.3021L72.3286 37.4072C72.2926 38.0905 72.83 38.6961 74.2419 38.5959H75.875L76.4367 36.7382H75.8225C75.4693 36.7382 75.305 36.649 75.3256 36.4577L75.296 35.3331H72.2724V35.3391C71.2948 35.3593 68.375 35.4328 67.784 35.5903C67.0689 35.7741 66.3151 36.3167 66.3151 36.3167L66.6114 35.3215H63.7827L63.1933 37.2958L60.2371 47.092H59.6634L59.1009 48.9366H64.7345L64.5459 49.5516H67.3216L67.5061 48.9366H68.2846L68.8951 46.9446ZM66.5836 39.2563C66.1306 39.3816 65.288 39.7618 65.288 39.7618L66.0376 37.2958H68.2846L67.7427 39.0925C67.7427 39.0925 67.0482 39.1337 66.584 39.2563M66.6271 42.7791C66.6271 42.7791 65.9214 42.868 65.4567 42.9726C64.9992 43.1113 64.1409 43.5486 64.1409 43.5486L64.9152 40.9825H67.1739L66.6271 42.7791ZM65.3679 46.9671H63.1138L63.7674 44.8015H66.0144L65.3679 46.9671ZM70.7968 40.9825H74.0461L73.5792 42.4948H70.2867L69.7925 44.1478H72.6736L70.4919 47.2195C70.3392 47.4452 70.2024 47.5251 70.0501 47.5884C69.8975 47.6661 69.6969 47.7572 69.4651 47.7572H68.6656L68.1166 49.5677H70.2069C71.2936 49.5677 71.9356 49.0735 72.4092 48.4247L73.9055 46.3772L74.2265 48.4562C74.2948 48.8455 74.5745 49.0734 74.7639 49.1619C74.9731 49.2669 75.1895 49.4469 75.4951 49.4739C75.8225 49.4878 76.0591 49.4991 76.2166 49.4991H77.2441L77.8606 47.4726H77.4556C77.2231 47.4726 76.8223 47.4336 76.7544 47.3608C76.6858 47.272 76.6858 47.1358 76.6494 46.9281L76.3231 44.8446H74.9889L75.5742 44.1478H78.8604L79.3659 42.4948H76.3235L76.7971 40.9825H79.8305L80.393 39.1176H71.3502L70.7968 40.9825ZM43.3524 47.3882L44.1106 44.8652H47.228L47.7972 42.9887H44.6772L45.1535 41.4358H48.2023L48.7674 39.6186H41.1388L40.5856 41.4358H42.3189L41.8565 42.9883H40.1188L39.5427 44.8971H41.2752L40.2643 48.2353C40.1281 48.6771 40.3284 48.8455 40.4555 49.051C40.5856 49.2508 40.7173 49.3832 41.0135 49.4582C41.3191 49.5265 41.5284 49.5673 41.8126 49.5673H45.3268L45.953 47.4883L44.3952 47.7024C44.0945 47.7024 43.2612 47.6665 43.3524 47.3882ZM43.7097 35.3102L42.92 36.7378C42.7513 37.0495 42.5986 37.2433 42.4618 37.3322C42.341 37.4072 42.1017 37.4391 41.7556 37.4391H41.3435L40.7926 39.2653H42.1614C42.8199 39.2653 43.325 39.0242 43.5665 38.9035C43.826 38.7647 43.8942 38.8438 44.0945 38.6503L44.5569 38.2498H48.8311L49.3985 36.3486H46.2695L46.8159 35.3098L43.7097 35.3102ZM50.0199 47.425C49.9471 47.32 49.9996 47.1351 50.111 46.7503L51.2791 42.8837H55.4352C56.0409 42.8751 56.4778 42.868 56.7628 42.8477C57.068 42.8155 57.4002 42.7063 57.7621 42.5106C58.136 42.3054 58.3272 42.0891 58.4885 41.8408C58.6685 41.5933 58.958 41.0507 59.2062 40.2148L60.6748 35.3215L56.3622 35.3466C56.3622 35.3466 55.034 35.5423 54.4494 35.7591C53.8595 36.0002 53.0165 36.6741 53.0165 36.6741L53.4058 35.3327H50.7418L47.012 47.7024C46.8796 48.1824 46.7907 48.5312 46.7705 48.7408C46.7638 48.9662 47.0551 49.1897 47.2441 49.3581C47.4673 49.5265 47.7972 49.4991 48.1137 49.5264C48.4467 49.5516 48.92 49.5673 49.5736 49.5673H51.6211L52.2492 47.4452L50.4166 47.6185C50.2205 47.6185 50.0791 47.5135 50.0199 47.425ZM52.0329 40.2722H56.3979L56.1204 41.1418C56.0818 41.1621 55.9884 41.0987 55.544 41.1512H51.764L52.0329 40.2722ZM52.9074 37.3547H57.3095L56.9926 38.4025C56.9926 38.4025 54.9181 38.3822 54.5859 38.4433C53.1234 38.6965 52.2695 39.4776 52.2695 39.4776L52.9074 37.3547ZM56.2186 44.0545C56.1823 44.1846 56.1249 44.2637 56.0454 44.3233C55.9565 44.3803 55.8129 44.4006 55.5991 44.4006H54.9774L55.0141 43.3416H52.4266L52.3216 48.52C52.3179 48.8935 52.3539 49.1098 52.6273 49.2831C52.901 49.4991 53.7433 49.5268 54.8773 49.5268H56.4984L57.0834 47.5881L55.6722 47.6657L55.2028 47.6931C55.139 47.6657 55.0775 47.6406 55.0092 47.5727C54.95 47.5138 54.8495 47.5498 54.866 47.1763L54.8773 45.8488L56.357 45.7877C57.1565 45.7877 57.4981 45.5275 57.7895 45.28C58.0674 45.0426 58.1585 44.77 58.2635 44.4006L58.5118 43.2253H56.4777L56.2186 44.0545Z" fill="#FEFEFE"/>
</svg>
