<svg width="64" height="64" viewBox="0 0 64 64" fill="none" xmlns="http://www.w3.org/2000/svg">
<path fill-rule="evenodd" clip-rule="evenodd" d="M11.7174 4.43652L0.0479757 28.9482C0.00357011 29.0394 -0.0105017 29.1424 0.00781802 29.2421C0.0261378 29.3418 0.0758881 29.4331 0.149793 29.5025L31.6662 59.7028C31.7557 59.7887 31.8749 59.8366 31.9989 59.8366C32.123 59.8366 32.2422 59.7887 32.3317 59.7028L63.8481 29.5044C63.922 29.435 63.9718 29.3437 63.9901 29.244C64.0084 29.1442 63.9943 29.0413 63.9499 28.9501L52.2805 4.43841C52.2428 4.35609 52.1823 4.28635 52.106 4.23753C52.0298 4.18872 51.9411 4.16288 51.8506 4.16312H12.1511C12.0601 4.16199 11.9708 4.1872 11.8938 4.23571C11.8169 4.28423 11.7556 4.35397 11.7174 4.43652Z" fill="#50AF95"/>
<path fill-rule="evenodd" clip-rule="evenodd" d="M36.051 31.4649C35.8247 31.4818 34.6557 31.5516 32.048 31.5516C29.9739 31.5516 28.5014 31.4894 27.9847 31.4649C19.9694 31.1123 13.9867 29.717 13.9867 28.0464C13.9867 26.3759 19.9694 24.9825 27.9847 24.6242V30.0752C28.5089 30.113 30.0098 30.2016 32.0838 30.2016C34.5727 30.2016 35.819 30.0979 36.0434 30.0771V24.628C44.0418 24.9844 50.0113 26.3796 50.0113 28.0464C50.0113 29.7132 44.0436 31.1085 36.0434 31.463L36.051 31.4649ZM36.051 24.0642V19.1864H47.2132V11.748H16.8225V19.1864H27.9828V24.0623C18.9116 24.479 12.0898 26.2759 12.0898 28.4292C12.0898 30.5824 18.9116 32.3775 27.9828 32.796V48.4269H36.0491V32.7904C45.0995 32.3737 51.91 30.5787 51.91 28.4273C51.91 26.2759 45.1052 24.4809 36.0491 24.0623L36.051 24.0642Z" fill="white"/>
</svg>
