<svg width="64" height="64" viewBox="0 0 64 64" fill="none" xmlns="http://www.w3.org/2000/svg">
<g clip-path="url(#clip0_679_8983)">
<path d="M0 32C0 14.3264 14.3264 0 32 0C49.6736 0 64 14.3264 64 32C64 49.6736 49.6736 64 32 64C14.3264 64 0 49.6736 0 32Z" fill="#F7931A"/>
<path d="M44.7248 27.5934C45.3248 23.7278 42.2736 21.6494 38.104 20.2622L39.456 15.0238L36.1536 14.2286L34.8368 19.3294C33.968 19.1214 33.0768 18.923 32.1904 18.7278L33.5168 13.595L30.216 12.7998L28.8624 18.0366C28.1424 17.8766 27.4384 17.7214 26.752 17.5566L26.7568 17.5406L22.2016 16.443L21.3216 19.8494C21.3216 19.8494 23.7728 20.3902 23.7216 20.4254C25.0592 20.7454 25.3008 21.6014 25.2608 22.2782L21.5536 36.6286C21.3904 37.0206 20.976 37.6094 20.04 37.3854C20.072 37.4318 17.64 36.8078 17.64 36.8078L16 40.4558L20.2976 41.491C21.0976 41.6846 21.8816 41.8878 22.6528 42.0782L21.2864 47.3758L24.5856 48.171L25.9392 42.9294C26.8384 43.1641 27.7157 43.3838 28.5712 43.5886L27.2224 48.8046L30.5248 49.5998L31.8928 44.3118C37.5248 45.3406 41.76 44.9262 43.5408 40.0078C44.9792 36.0494 43.4704 33.7646 40.5072 32.275C42.6656 31.795 44.2912 30.4254 44.7248 27.5934ZM37.1776 37.8094C36.1568 41.7694 29.2512 39.6286 27.0128 39.0926L28.8256 32.0734C31.0656 32.6126 38.2448 33.6798 37.1776 37.8094ZM38.2 27.5374C37.2688 31.1374 31.52 29.3086 29.656 28.8606L31.3008 22.4926C33.1648 22.9422 39.1696 23.7806 38.2 27.5374Z" fill="white"/>
</g>
<defs>
<clipPath id="clip0_679_8983">
<rect width="64" height="64" fill="white"/>
</clipPath>
</defs>
</svg>
