<svg width="96" height="64" viewBox="0 0 96 64" fill="none" xmlns="http://www.w3.org/2000/svg">
<g clip-path="url(#clip0_679_8975)">
<path d="M0 6.4C0 4.70261 0.674284 3.07475 1.87452 1.87452C3.07475 0.674284 4.70261 0 6.4 0L89.6 0C91.2974 0 92.9252 0.674284 94.1255 1.87452C95.3257 3.07475 96 4.70261 96 6.4V57.6C96 59.2974 95.3257 60.9253 94.1255 62.1255C92.9252 63.3257 91.2974 64 89.6 64H6.4C4.70261 64 3.07475 63.3257 1.87452 62.1255C0.674284 60.9253 0 59.2974 0 57.6V6.4Z" fill="#016FD0"/>
<path d="M12.1632 19.2018L8 28.8818H10.7104L11.4784 26.9442H15.9456L16.7088 28.8818H19.48L15.32 19.2018H12.1632ZM13.704 21.4546L15.064 24.8418H12.3408L13.704 21.4546ZM19.7664 28.8802V19.2002L23.6176 19.2146L25.8576 25.4546L28.048 19.2002H31.8688V28.8802H29.448V21.7474L26.8832 28.8802H24.76L22.1888 21.7474V28.8802H19.7664ZM33.5232 28.8802V19.2002H41.4208V21.365H35.968V23.021H41.2928V25.0594H35.968V26.7794H41.4208V28.8802H33.5232ZM42.8224 19.2018V28.8818H45.2416V25.4418H46.2608L49.1632 28.8818H52.12L48.936 25.3154C49.6704 25.2422 50.3507 24.8962 50.8424 24.3458C51.3342 23.7954 51.6016 23.0806 51.592 22.3426C51.592 20.3058 49.992 19.2018 48.208 19.2018H42.8224ZM45.2416 21.3666H48.0096C48.672 21.3666 49.1552 21.8866 49.1552 22.3858C49.1552 23.029 48.5296 23.405 48.0448 23.405H45.2416V21.3666ZM55.0496 28.8802H52.5792V19.2002H55.0496V28.8802ZM60.9088 28.8802H60.376C57.7952 28.8802 56.2272 26.8482 56.2272 24.0802C56.2272 21.245 57.7776 19.2002 61.0368 19.2002H63.712V21.493H60.9392C59.616 21.493 58.68 22.525 58.68 24.1042C58.68 25.9794 59.7504 26.7666 61.2912 26.7666H61.928L60.9088 28.8802ZM66.176 19.2018L62.0112 28.8818H64.7232L65.4912 26.9442H69.9568L70.7216 28.8818H73.4912L69.3312 19.2018H66.176ZM67.7152 21.4546L69.0768 24.8418H66.352L67.7152 21.4546ZM73.7744 28.8802V19.2002H76.8512L80.7808 25.2818V19.2002H83.2V28.8802H80.224L76.1936 22.6402V28.8802H73.7744ZM22.4 44.941V35.2002H30.3472V37.3794H24.8608V39.045H30.2192V41.0962H24.8608V42.8258H30.3472V44.941H22.4ZM61.3376 44.941V35.2002H69.2848V37.3794H63.8V39.045H69.1312V41.0962H63.7984V42.8258H69.2848V44.941H61.3376ZM30.656 44.941L34.5248 40.1314L30.5632 35.2002H33.6304L35.9904 38.2482L38.3584 35.2002H41.3056L37.3952 40.0706L41.272 44.941H38.2048L35.9136 41.941L33.6784 44.941H30.656ZM41.5616 35.2018V44.9426H44.0608V41.8674H46.624C48.7936 41.8674 50.4368 40.7154 50.4368 38.4786C50.4368 36.6242 49.1472 35.2018 46.9408 35.2018H41.5616ZM44.0608 37.405H46.76C47.4608 37.405 47.9616 37.8338 47.9616 38.525C47.9616 39.1762 47.464 39.6482 46.752 39.6482H44.0608V37.405ZM51.4944 35.2002V44.941H53.9296V41.4802H54.9552L57.8752 44.941H60.8512L57.6464 41.3522C58.3855 41.2785 59.0701 40.9303 59.5648 40.3763C60.0596 39.8223 60.3285 39.1029 60.3184 38.3602C60.3184 36.3106 58.7104 35.2002 56.9136 35.2002H51.4944ZM53.9296 37.3794H56.7136C57.3808 37.3794 57.8672 37.901 57.8672 38.4034C57.8672 39.0514 57.2384 39.4306 56.7504 39.4306H53.9296V37.3794ZM70.4128 44.941V42.8258H75.2864C76.0064 42.8258 76.32 42.437 76.32 42.0098C76.32 41.6002 76.008 41.1858 75.2864 41.1858H73.0848C71.1696 41.1858 70.104 40.0194 70.104 38.269C70.104 36.7058 71.08 35.2002 73.9248 35.2002H78.6672L77.6416 37.3922H73.5408C72.7568 37.3922 72.5152 37.8034 72.5152 38.1954C72.5152 38.6002 72.8128 39.045 73.4112 39.045H75.7184C77.8528 39.045 78.7792 40.2562 78.7792 41.8418C78.7792 43.5458 77.7472 44.941 75.6032 44.941H70.4128ZM79.3504 44.941V42.8258H84.224C84.944 42.8258 85.2576 42.437 85.2576 42.0098C85.2576 41.6002 84.9472 41.1858 84.224 41.1858H82.0224C80.1072 41.1858 79.0416 40.0194 79.0416 38.269C79.0416 36.7058 80.0176 35.2002 82.8624 35.2002H87.6048L86.5808 37.3922H82.4784C81.6944 37.3922 81.4528 37.8034 81.4528 38.1954C81.4528 38.6002 81.7504 39.045 82.3488 39.045H84.656C86.7904 39.045 87.7168 40.2562 87.7168 41.8418C87.7168 43.5458 86.6848 44.941 84.5408 44.941H79.3504Z" fill="white"/>
</g>
<defs>
<clipPath id="clip0_679_8975">
<rect width="96" height="64" fill="white"/>
</clipPath>
</defs>
</svg>
