<svg width="96" height="64" viewBox="0 0 96 64" fill="none" xmlns="http://www.w3.org/2000/svg">
<g clip-path="url(#clip0_679_8970)">
<path d="M0 6.4C0 4.70261 0.674284 3.07475 1.87452 1.87452C3.07475 0.674284 4.70261 0 6.4 0L89.6 0C91.2974 0 92.9252 0.674284 94.1255 1.87452C95.3257 3.07475 96 4.70261 96 6.4V57.6C96 59.2974 95.3257 60.9253 94.1255 62.1255C92.9252 63.3257 91.2974 64 89.6 64H6.4C4.70261 64 3.07475 63.3257 1.87452 62.1255C0.674284 60.9253 0 59.2974 0 57.6V6.4Z" fill="#1E1E1E"/>
<path d="M55.3648 18.165H39.9648V45.8386H55.3648V18.165Z" fill="#FF5F00"/>
<path d="M40.9527 32.0004C40.9504 29.3351 41.5545 26.7042 42.7193 24.307C43.8841 21.9097 45.5791 19.8089 47.6759 18.1636C45.0796 16.1227 41.9614 14.8535 38.6778 14.5009C35.3942 14.1484 32.0777 14.7269 29.1073 16.1702C26.137 17.6135 23.6326 19.8634 21.8805 22.6628C20.1284 25.4621 19.1992 28.6979 19.1992 32.0004C19.1992 35.3029 20.1284 38.5387 21.8805 41.338C23.6326 44.1374 26.137 46.3873 29.1073 47.8306C32.0777 49.2739 35.3942 49.8524 38.6778 49.4999C41.9614 49.1473 45.0796 47.8781 47.6759 45.8372C45.5791 44.1919 43.8841 42.0911 42.7193 39.6938C41.5545 37.2966 40.9504 34.6657 40.9527 32.0004Z" fill="#EB001B"/>
<path d="M76.1393 31.9999C76.139 35.3021 75.2098 38.5376 73.4578 41.3367C71.7057 44.1358 69.2016 46.3855 66.2315 47.8287C63.2614 49.272 59.9451 49.8506 56.6618 49.4983C53.3784 49.146 50.2604 47.8772 47.6641 45.8367C49.7586 44.1895 51.4518 42.0882 52.6161 39.6913C53.7804 37.2945 54.3854 34.6646 54.3854 31.9999C54.3854 29.3352 53.7804 26.7053 52.6161 24.3085C51.4518 21.9116 49.7586 19.8103 47.6641 18.1631C50.2604 16.1231 53.3783 14.8547 56.6614 14.5027C59.9445 14.1506 63.2604 14.7293 66.2302 16.1725C69.2 17.6157 71.704 19.8652 73.4559 22.664C75.2079 25.4628 76.1388 28.698 76.1393 31.9999Z" fill="#F79E1B"/>
</g>
<defs>
<clipPath id="clip0_679_8970">
<rect width="96" height="64" fill="white"/>
</clipPath>
</defs>
</svg>
