<svg width="64" height="64" viewBox="0 0 64 64" fill="none" xmlns="http://www.w3.org/2000/svg">
<g clip-path="url(#clip0_679_8989)">
<path d="M0 32C0 14.3264 14.3264 0 32 0C49.6736 0 64 14.3264 64 32C64 49.6736 49.6736 64 32 64C14.3264 64 0 49.6736 0 32Z" fill="white"/>
<path d="M31.9949 8L31.6797 9.0688V40.0816L31.9949 40.3952L46.3901 31.8864L31.9949 8Z" fill="#343434"/>
<path d="M31.9968 8L17.6016 31.8864L31.9968 40.3952V8Z" fill="#8C8C8C"/>
<path d="M31.9963 43.1199L31.8203 43.3359V54.3839L31.9963 54.9023L46.4011 34.6143L31.9963 43.1199Z" fill="#3C3C3B"/>
<path d="M31.9968 54.9026V43.1202L17.6016 34.6162L31.9968 54.9026Z" fill="#8C8C8C"/>
<path d="M31.9961 40.3952L46.3913 31.8848L31.9961 25.3408V40.3952Z" fill="#141414"/>
<path d="M17.6016 31.8842L31.9968 40.3946V25.3418L17.6016 31.8842Z" fill="#393939"/>
</g>
<defs>
<clipPath id="clip0_679_8989">
<rect width="64" height="64" fill="white"/>
</clipPath>
</defs>
</svg>
