<svg width="64" height="64" viewBox="0 0 64 64" fill="none" xmlns="http://www.w3.org/2000/svg">
<g clip-path="url(#clip0_679_8997)">
<path d="M0 32C0 14.3264 14.3264 0 32 0C49.6736 0 64 14.3264 64 32C64 49.6736 49.6736 64 32 64C14.3264 64 0 49.6736 0 32Z" fill="#F3BA2F"/>
<path d="M32.0016 19.7244L23.3008 28.4252L18.2384 23.3628L32.0016 9.59961L45.768 23.366L40.7056 28.4284L32.0016 19.7244ZM14.664 26.9356L9.60156 31.9996L14.664 37.0604L19.7264 31.9996L14.664 26.9356ZM32.0016 44.2748L23.3008 35.5756L18.232 40.63L32.0016 54.3996L45.768 40.6332L45.7712 40.63L40.7056 35.5708L32.0016 44.2748ZM49.3392 26.9388L44.2768 32.0012L49.3392 37.0636L54.4016 32.0012L49.3392 26.9388Z" fill="white"/>
<path d="M37.1346 31.9973L37.1378 32.0005L37.1362 32.0037L31.9986 37.1397L26.8658 32.0069L26.8594 31.9989L26.8658 31.9925L31.9986 26.8613L37.1346 31.9973Z" fill="white"/>
</g>
<defs>
<clipPath id="clip0_679_8997">
<rect width="64" height="64" fill="white"/>
</clipPath>
</defs>
</svg>
