<svg width="96" height="64" viewBox="0 0 96 64" fill="none" xmlns="http://www.w3.org/2000/svg">
<g clip-path="url(#clip0_679_8967)">
<path d="M0 6.4C0 4.70261 0.674284 3.07475 1.87452 1.87452C3.07475 0.674284 4.70261 0 6.4 0L89.6 0C91.2974 0 92.9252 0.674284 94.1255 1.87452C95.3257 3.07475 96 4.70261 96 6.4V57.6C96 59.2974 95.3257 60.9253 94.1255 62.1255C92.9252 63.3257 91.2974 64 89.6 64H6.4C4.70261 64 3.07475 63.3257 1.87452 62.1255C0.674284 60.9253 0 59.2974 0 57.6V6.4Z" fill="#1434CB"/>
<path fill-rule="evenodd" clip-rule="evenodd" d="M64.1453 21.7824C64.1133 21.6864 63.3821 21.4272 62.5549 21.232C60.8541 20.8272 58.0157 20.68 56.5069 20.9056C51.8541 21.6352 48.7901 24.2624 48.5309 27.7648C48.3357 30.52 49.8909 32.352 54.1725 34.4272C56.1837 35.4 56.9133 36.0816 56.9133 36.9728C56.9133 37.5072 56.7997 37.752 56.3773 38.1728C55.6493 38.9024 54.7405 39.1296 52.6973 39.1136C50.8973 39.0816 48.8397 38.6112 47.4925 37.9296C47.0061 37.6704 46.8445 37.6544 46.7805 37.8016C46.6829 38.1408 46.0509 42.08 46.0509 42.4384C46.0509 42.6816 46.2765 42.8112 47.2349 43.0864C49.0333 43.6208 50.4765 43.8 52.7789 43.8C57.9837 43.8 61.6317 41.9344 62.9277 38.6272C63.4461 37.2672 63.4461 35.256 62.9277 34.072C62.3117 32.6944 60.7885 31.4128 58.1613 30.0832C55.9085 28.9472 55.0333 28.2848 54.8701 27.6352C54.7261 27.0352 55.2109 26.3232 56.0541 25.9168C56.7357 25.576 57.0605 25.528 58.6973 25.544C60.3181 25.544 60.7389 25.608 61.9725 26.0304C63.2045 26.4528 63.4141 26.4848 63.4797 26.2736C63.6573 25.6256 64.2093 21.9776 64.1453 21.7824ZM21.9261 22.3184C21.7789 22.0592 21.3741 21.7184 21.0509 21.5392C20.4989 21.248 20.0445 21.232 15.0029 21.232C8.77887 21.232 8.48607 21.312 11.3389 22.1888C12.3117 22.48 13.7389 23.032 14.5325 23.4048L15.9597 24.0848L18.6349 33.7168L21.3245 43.3648L24.5837 43.4128L27.8589 43.4448L28.5085 41.952L33.2925 30.8304L37.4269 21.232L34.1677 21.264L30.9085 21.312L27.9741 28.8032C26.3677 32.904 25.0381 36.2608 25.0221 36.2448C25.0061 36.2288 24.3581 33.1968 23.5965 29.5008C22.8173 25.8048 22.0717 22.5776 21.9261 22.3168M42.2253 43.1488C42.4509 42.096 45.8893 21.7824 45.8893 21.5216C45.8893 21.2464 45.6461 21.2304 42.9053 21.2304C40.1981 21.2304 39.9069 21.2624 39.8253 21.5056C39.6813 21.992 36.1613 42.8912 36.1613 43.264C36.1613 43.6048 36.2093 43.6048 39.1437 43.6048H42.1277L42.2253 43.1488ZM82.2205 31.808C80.9581 26.0672 79.9373 21.4224 79.9373 21.344C79.9373 21.28 78.6061 21.2304 76.9693 21.2304C74.2125 21.2304 73.9533 21.2624 73.2893 21.5872C72.8029 21.8464 72.4445 22.1712 72.2013 22.608C71.9437 23.0944 63.3981 42.3072 62.9613 43.3936C62.8973 43.5568 63.5773 43.6048 66.0573 43.6048H69.2189L69.4461 43.1504C69.5741 42.9072 69.8845 42.1456 70.1261 41.448L70.5805 40.2H78.4141L78.7053 41.6096C78.8301 42.2864 78.9773 42.9408 79.0381 43.2096L79.0621 43.312C79.1421 43.5712 79.4189 43.6032 81.9805 43.6032C83.5357 43.6032 84.8013 43.5872 84.8013 43.5552C84.8013 43.5232 83.7149 38.5456 82.3693 32.4832L82.2205 31.808ZM72.5437 35.2864C72.5917 35.0928 73.2733 33.2768 74.0509 31.2496C74.8301 29.2064 75.5101 27.5536 75.5581 27.5536C75.6237 27.5536 76.8733 33.0656 77.3101 35.2864L77.3741 35.6608H72.4461L72.5437 35.2864Z" fill="white"/>
</g>
<defs>
<clipPath id="clip0_679_8967">
<rect width="96" height="64" fill="white"/>
</clipPath>
</defs>
</svg>
