<svg width="40" height="40" viewBox="0 0 40 40" fill="none" xmlns="http://www.w3.org/2000/svg">
<g clip-path="url(#clip0_2011_4455)">
<path d="M20 40C31.0457 40 40 31.0457 40 20C40 8.9543 31.0457 0 20 0C8.9543 0 0 8.9543 0 20C0 31.0457 8.9543 40 20 40Z" fill="#6DA544"/>
<path d="M20.0002 7.82666L36.522 20.0006L20.0002 32.1745L3.47852 20.0006L20.0002 7.82666Z" fill="#FFDA44"/>
<path d="M20.0004 26.9564C23.8424 26.9564 26.9569 23.8419 26.9569 19.9999C26.9569 16.158 23.8424 13.0435 20.0004 13.0435C16.1585 13.0435 13.0439 16.158 13.0439 19.9999C13.0439 23.8419 16.1585 26.9564 20.0004 26.9564Z" fill="#F0F0F0"/>
<path d="M16.5219 19.5659C15.3122 19.5659 14.1448 19.7499 13.0459 20.0913C13.0946 23.8913 16.1886 26.9572 20.0002 26.9572C22.3571 26.9572 24.4386 25.784 25.697 23.991C23.5441 21.2959 20.2315 19.5659 16.5219 19.5659Z" fill="#0052B4"/>
<path d="M26.8276 21.3332C26.9113 20.9017 26.9566 20.4565 26.9566 20.0004C26.9566 16.1584 23.842 13.0439 20.0001 13.0439C17.1334 13.0439 14.6724 14.7784 13.6074 17.2548C14.5488 17.0597 15.5235 16.957 16.5219 16.957C20.5623 16.9569 24.2174 18.6364 26.8276 21.3332Z" fill="#0052B4"/>
</g>
<defs>
<clipPath id="clip0_2011_4455">
<rect width="40" height="40" fill="white"/>
</clipPath>
</defs>
</svg>
