<svg width="78" height="77" viewBox="0 0 78 77" fill="none" xmlns="http://www.w3.org/2000/svg">
<rect x="20.5" y="22" width="36" height="36" rx="18" fill="#262626"/>
<path d="M45.6437 34.25H44.3955C44.2205 34.25 44.0544 34.3304 43.9473 34.4679L36.5848 43.7946L33.0544 39.3214C33.001 39.2536 32.9329 39.1988 32.8553 39.1611C32.7777 39.1233 32.6925 39.1037 32.6062 39.1036H31.358C31.2383 39.1036 31.1723 39.2411 31.2455 39.3339L36.1366 45.5304C36.3651 45.8196 36.8044 45.8196 37.0348 45.5304L45.7562 34.4786C45.8294 34.3875 45.7633 34.25 45.6437 34.25Z" fill="#FDB602"/>
<circle cx="37.5" cy="10" r="6" fill="#1F1F1F"/>
<circle cx="58.5" cy="19" r="6" fill="#1F1F1F"/>
<circle cx="67.5" cy="40" r="6" fill="#1F1F1F"/>
<circle cx="58.5" cy="59" r="6" fill="#1F1F1F"/>
<circle cx="37.5" cy="69" r="6" fill="#1F1F1F"/>
<circle cx="17.5" cy="60" r="6" fill="#1F1F1F"/>
<circle cx="8.5" cy="39" r="6" fill="#1F1F1F"/>
<circle cx="17.5" cy="19" r="6" fill="#1F1F1F"/>
<circle cx="22" cy="3.5" r="3.5" fill="#1E1E1E"/>
<circle cx="52" cy="3.5" r="3.5" fill="#1E1E1E"/>
<circle cx="74" cy="23.5" r="3.5" fill="#1E1E1E"/>
<circle cx="74" cy="53.5" r="3.5" fill="#1E1E1E"/>
<circle cx="22" cy="73.5" r="3.5" fill="#1E1E1E"/>
<circle cx="4" cy="53.5" r="3.5" fill="#1E1E1E"/>
<circle cx="4" cy="23.5" r="3.5" fill="#1E1E1E"/>
<circle cx="52" cy="73.5" r="3.5" fill="#1E1E1E"/>
</svg>
