<svg width="40" height="40" viewBox="0 0 40 40" fill="none" xmlns="http://www.w3.org/2000/svg">
<g clip-path="url(#clip0_2011_4870)">
<path d="M1.24414 26.9583C4.07 34.5742 11.4009 40.0018 20.0002 40.0018C28.5995 40.0018 35.9303 34.5742 38.7562 26.9583L20.0002 25.2192L1.24414 26.9583Z" fill="#FFDA44"/>
<path d="M20.0002 0.00146484C11.4009 0.00146484 4.07 5.42897 1.24414 13.045L20.0002 14.784L38.7562 13.0449C35.9303 5.42896 28.5995 0.00146484 20.0002 0.00146484Z" fill="black"/>
<path d="M1.24398 13.043C0.440078 15.2096 0 17.553 0 19.9995C0 22.4459 0.440078 24.7893 1.24398 26.9559H38.7561C39.56 24.7893 40 22.4459 40 19.9995C40 17.553 39.56 15.2096 38.756 13.043H1.24398Z" fill="#D80027"/>
</g>
<defs>
<clipPath id="clip0_2011_4870">
<rect width="40" height="40" fill="white"/>
</clipPath>
</defs>
</svg>
