<svg width="48" height="48" viewBox="0 0 48 48" fill="none" xmlns="http://www.w3.org/2000/svg">
<path d="M18.1794 19.5346C17.736 18.5543 17.5373 17.411 17.876 16.3723C18.2146 15.3104 18.9732 14.4586 19.7317 13.665C21.8434 11.5527 24.4459 10.0008 26.5113 7.85381C27.6548 6.67509 28.5999 5.26312 28.9265 3.64097C29.195 2.45081 29.0667 1.22559 28.8218 0.046875C29.9187 1.29553 30.2804 3.08091 29.9652 4.69134C29.627 6.49997 28.6231 8.09859 27.4447 9.4755C26.4996 10.5843 25.4142 11.5644 24.2824 12.4748C22.9638 13.5367 21.6687 14.6802 20.8403 16.1739C20.1398 17.3873 19.9764 18.8811 20.455 20.1997C21.2369 22.4634 23.0571 24.1439 24.0492 26.2792C22.952 25.3106 21.8787 24.3071 20.8748 23.2454C19.825 22.1251 18.8329 20.935 18.1794 19.5346ZM24.1306 17.7607C23.9323 19.6162 24.9006 21.3666 26.0562 22.7437C26.616 23.362 27.0945 24.1206 27.1177 24.9842C27.1412 26.139 26.4881 27.213 25.6473 27.9712C25.846 27.9481 25.9859 27.7729 26.1493 27.6796C27.4096 26.8744 28.6229 25.8592 29.2414 24.4708C29.6499 23.5255 29.5566 22.4051 29.02 21.5298C28.3896 20.5029 27.5613 19.5927 27.0713 18.4726C26.8025 17.8425 26.7092 17.1074 26.931 16.4422C27.223 15.5438 27.853 14.8086 28.5182 14.1667C30.3501 12.4282 32.5672 11.1908 34.6911 9.83747C32.0071 10.6075 29.3583 11.6695 27.0945 13.3384C25.6591 14.4119 24.3291 15.9054 24.1306 17.7607ZM36.8852 26.5361C38.1572 26.6062 39.4054 27.5396 39.639 28.8233C39.8608 29.9319 39.3242 31.0287 38.6354 31.8688C37.5034 33.2224 35.9746 34.1911 34.4348 35.0197C34.2827 35.1126 34.1545 35.2294 34.0377 35.3579C36.0683 34.8443 38.0984 34.0746 39.744 32.7558C40.6539 31.9972 41.4591 30.9934 41.6343 29.7915C41.7977 28.7531 41.3662 27.6795 40.5958 26.9911C39.6621 26.1389 38.3439 25.8241 37.1066 25.9876C36.3948 26.0809 35.6131 26.2326 35.1231 26.8277C35.7068 26.7113 36.2781 26.4777 36.8852 26.5361ZM11.5514 29.8732C13.0798 30.2816 14.6553 30.3984 16.219 30.5035C17.6192 30.5968 19.0197 30.6203 20.4318 30.6085C24.0724 30.5505 27.7364 30.3052 31.3071 29.5117C31.6453 29.4302 32.0189 29.3718 32.3227 29.1618C32.9177 28.7765 33.5708 28.473 34.2129 28.1696C31.3071 28.6364 28.3898 29.0335 25.4493 29.2201C22.4737 29.4067 19.4745 29.5235 16.4875 29.3252C15.6357 29.2436 14.7603 29.1967 13.9669 28.8697C13.78 28.7882 13.5232 28.6252 13.6165 28.3797C13.7917 28.0646 14.1417 27.9131 14.4451 27.7497C15.7289 27.1429 17.1291 26.8046 18.4945 26.4079C16.1487 26.3726 13.8148 26.9677 11.6682 27.8897C11.1896 28.1232 10.6528 28.3098 10.2679 28.7066C10.1158 28.8697 10.1158 29.1502 10.2911 29.2899C10.6412 29.605 11.1077 29.745 11.5514 29.8732ZM30.4556 33.0825C28.4133 33.4443 26.3592 33.783 24.2937 33.8877C22.03 34.0394 19.7662 33.9109 17.5258 33.6776C17.0942 33.6192 16.6623 33.5494 16.2774 33.3511C16.079 33.2343 15.8807 33.0477 15.8924 32.8023C15.9156 32.4173 16.2421 32.1491 16.4757 31.8689C15.7525 32.1257 15.0288 32.3938 14.4221 32.8728C14.165 33.0712 13.9085 33.386 13.9783 33.736C14.0838 34.1444 14.4805 34.3895 14.8305 34.576C15.6938 35.0197 16.6624 35.2178 17.6079 35.393C19.9995 35.7783 22.4385 35.79 24.8423 35.6262C27.3867 35.4279 29.9187 35.008 32.3808 34.2844C31.6807 33.9696 31.0154 33.6074 30.4556 33.0825ZM17.6309 37.1204C16.9775 37.307 16.3122 37.5289 15.7756 37.9601C15.5067 38.1702 15.297 38.5324 15.4256 38.8707C15.589 39.3023 15.9974 39.5595 16.3821 39.7806C17.386 40.3294 18.5177 40.5858 19.6262 40.7844C22.1354 41.1809 24.714 41.1227 27.2113 40.6794C28.6932 40.3992 30.1752 40.0025 31.5521 39.3843C30.6536 39.0108 29.7786 38.5905 28.9385 38.1006C27.4798 38.3572 26.0092 38.6258 24.5156 38.7191C22.5438 38.8708 20.5482 38.7074 18.576 38.4624C18.1092 38.3573 17.5258 38.3107 17.2107 37.9022C17.0477 37.5635 17.4209 37.3184 17.6309 37.1204ZM33.5944 44.6233C35.2279 44.2854 36.8735 43.8997 38.367 43.1415C38.8335 42.8727 39.4054 42.581 39.5575 42.0212C39.639 41.4845 39.0789 41.2042 38.6821 40.9824C38.9271 41.263 39.0905 41.6712 38.8452 41.9977C38.4368 42.5465 37.737 42.7563 37.1184 42.9664C35.1815 43.5148 33.1741 43.7366 31.1788 43.9584C25.8927 44.4367 20.5714 44.5536 15.2856 44.1101C13.5118 43.9232 11.7027 43.7249 10.0108 43.0949C9.74272 42.9781 9.33425 42.8613 9.33425 42.4994C9.43897 42.185 9.74272 42.0094 10.0108 41.8577C11.2244 41.2394 12.5781 40.9008 13.9317 40.8192C13.5353 40.5857 13.0684 40.5625 12.6133 40.5742C11.4812 40.6092 10.3727 40.9008 9.29937 41.263C8.37744 41.6009 7.43225 41.9746 6.69687 42.6516C6.40522 42.908 6.13709 43.398 6.44009 43.7483C6.90697 44.2502 7.63062 44.3783 8.27197 44.53C11.8662 45.1487 15.5067 45.4983 19.148 45.6268C23.979 45.7672 28.8449 45.5571 33.5944 44.6233ZM38.3787 45.2537C36.1848 45.9538 33.9095 46.3387 31.6454 46.6539C27.7364 47.144 23.7921 47.2957 19.8596 47.1792C17.4675 47.0859 15.0755 46.9225 12.7181 46.5254C13.2665 46.8989 13.9435 47.0154 14.5737 47.1907C17.2228 47.7509 19.9414 47.8559 22.6372 47.9375C26.5925 48.0076 30.5485 47.8559 34.4461 47.2373C36.2901 46.9111 38.1454 46.5141 39.8021 45.6504C40.666 45.1954 41.5413 44.4949 41.6923 43.4799C40.8175 44.4132 39.5575 44.8452 38.3787 45.2537Z" fill="black"/>
</svg>
