<svg width="43" height="48" viewBox="0 0 43 48" fill="none" xmlns="http://www.w3.org/2000/svg">
<g clip-path="url(#clip0_450_1507)">
<path d="M31.6803 22.9372H33.0209L32.8466 24.5625H31.5107L31.6803 22.9372ZM42.9981 13.8195V34.1805C42.9527 35.4664 42.2938 36.6159 41.1364 37.3796L23.3608 47.56C22.3368 48.1466 20.6611 48.1466 19.6371 47.56L1.86185 37.3796C0.783073 36.678 0.0796681 35.5466 0 34.1805V13.8195C0 12.6465 0.837791 11.2068 1.86176 10.6204L19.6373 0.439945C20.6612 -0.146648 22.3369 -0.146648 23.3609 0.439945L41.1364 10.6204C42.2116 11.3404 42.9565 12.5853 42.9981 13.8195ZM33.9115 31.113L27.7087 27.5524C23.571 34.1231 14.4329 30.9122 14.3327 24.0001C14.6663 16.5002 23.9638 14.3034 27.7083 20.4472L33.911 16.8866C25.8274 3.98632 7.08224 10.1166 7.16635 24C7.52566 38.9674 26.7874 43.3813 33.9114 31.1129M35.3923 21.8054H34.3288L34.5206 19.9687H33.3393L33.1423 21.8055H31.7985L31.9901 19.9687H30.8088L30.6118 21.8055H29.4857V22.9372H30.4905L30.3162 24.5625H29.1549V25.6942H30.1949L29.9794 27.7031H31.1829L31.3926 25.6942H32.7253L32.5099 27.7031H33.7134L33.923 25.6942H35.0615V24.5625H34.0412L34.2107 22.9372H35.3923V21.8054Z" fill="black"/>
</g>
<defs>
<clipPath id="clip0_450_1507">
<rect width="43" height="48" fill="white"/>
</clipPath>
</defs>
</svg>
