<svg width="48" height="48" viewBox="0 0 48 48" fill="none" xmlns="http://www.w3.org/2000/svg">
<path d="M45.2426 13.8627V34.1233C45.2426 35.4381 44.5352 36.6624 43.3983 37.3242L25.8438 47.4601C25.2824 47.7858 24.6455 47.9531 23.9952 47.9531C23.3541 47.9531 22.7156 47.7858 22.154 47.4601L16.2927 43.9923C15.4184 43.5041 15.845 43.3305 16.1341 43.2303C17.3016 42.8251 17.5378 42.7317 18.7842 42.0244C18.9142 41.95 19.0857 41.9791 19.2198 42.0565L23.7227 44.7302C23.886 44.8221 24.1165 44.8221 24.2666 44.7302L41.8225 34.5971C41.986 34.5037 42.0908 34.3174 42.0908 34.1234V13.8627C42.0908 13.6642 41.986 13.4789 41.8184 13.3787L24.2697 3.2546C24.1079 3.15991 23.8919 3.15991 23.7289 3.2546L6.18419 13.3815C6.01375 13.479 5.90622 13.6701 5.90622 13.8627V34.1233C5.90622 34.3173 6.01366 34.4991 6.18316 34.5911L10.9924 37.3712C13.6014 38.6746 15.1995 37.1382 15.1995 35.594V15.5914C15.1995 15.3086 15.4266 15.0856 15.7094 15.0856H17.9357C18.214 15.0856 18.4446 15.3085 18.4446 15.5914V35.5941C18.4446 39.0766 16.5475 41.0742 13.246 41.0742C12.232 41.0742 11.4322 41.0742 9.20181 39.9761L4.59887 37.3242C3.46141 36.6684 2.75781 35.4382 2.75781 34.1233V13.8627C2.75781 12.5462 3.46141 11.3174 4.59887 10.6625L22.1541 0.518039C23.2651 -0.11018 24.7424 -0.11018 25.8438 0.518039L43.3983 10.6625C44.5352 11.3201 45.2426 12.5462 45.2426 13.8627ZM30.11 32.1906C24.8713 32.1906 23.7186 30.8736 23.3325 28.2685C23.311 28.1332 23.242 28.01 23.1378 27.921C23.0336 27.8321 22.9011 27.7833 22.7641 27.7834H20.2041C20.1289 27.783 20.0544 27.7976 19.9849 27.8263C19.9153 27.8549 19.8522 27.8971 19.799 27.9503C19.7459 28.0035 19.7038 28.0667 19.6753 28.1363C19.6467 28.2059 19.6322 28.2804 19.6326 28.3556C19.6326 31.6894 21.4471 35.6654 30.11 35.6654C36.3825 35.6654 39.979 33.1961 39.979 28.8832C39.979 24.6061 37.089 23.4682 31.0063 22.6629C24.8582 21.8494 24.2335 21.4304 24.2335 19.9903C24.2335 18.8033 24.7625 17.2171 29.3162 17.2171C33.3826 17.2171 34.8817 18.0935 35.4981 20.8336C35.5524 21.0919 35.7872 21.2803 36.0534 21.2803H38.623C38.7824 21.2803 38.9338 21.2119 39.0421 21.0981C39.1506 20.9781 39.2083 20.8219 39.1931 20.658C38.7955 15.9351 35.6575 13.7351 29.3162 13.7351C23.6716 13.7351 20.3051 16.1177 20.3051 20.1103C20.3051 24.4431 23.6547 25.6415 29.0707 26.1761C35.5524 26.8119 36.0555 27.7589 36.0555 29.0344C36.0555 31.2468 34.2804 32.1906 30.11 32.1906Z" fill="black"/>
</svg>
