<svg width="48" height="48" viewBox="0 0 48 48" fill="none" xmlns="http://www.w3.org/2000/svg">
<g clip-path="url(#clip0_450_1503)">
<path d="M3.62207 20.462C3.52807 20.462 3.50607 20.416 3.55207 20.344L4.04407 19.714C4.09007 19.644 4.20607 19.598 4.30007 19.598H12.6441C12.7361 19.598 12.7601 19.668 12.7141 19.738L12.3161 20.344C12.2701 20.416 12.1521 20.484 12.0821 20.484L3.62207 20.462ZM0.0940746 22.612C7.45952e-05 22.612 -0.0239254 22.566 0.0240746 22.496L0.514074 21.864C0.560074 21.794 0.678074 21.748 0.772074 21.748H11.4281C11.5221 21.748 11.5681 21.818 11.5441 21.888L11.3581 22.448C11.3341 22.542 11.2421 22.588 11.1481 22.588L0.0940746 22.612ZM5.75007 24.762C5.65607 24.762 5.63207 24.692 5.68007 24.622L6.00607 24.038C6.05207 23.968 6.14607 23.898 6.24007 23.898H10.9141C11.0081 23.898 11.0541 23.968 11.0541 24.062L11.0081 24.622C11.0081 24.716 10.9141 24.786 10.8441 24.786L5.75007 24.762ZM30.0081 20.042C28.5361 20.416 27.5301 20.696 26.0821 21.07C25.7301 21.162 25.7081 21.186 25.4021 20.836C25.0541 20.438 24.7961 20.182 24.3061 19.948C22.8321 19.224 21.4061 19.434 20.0761 20.298C18.4861 21.326 17.6681 22.846 17.6921 24.738C17.7141 26.608 19.0001 28.15 20.8461 28.408C22.4361 28.618 23.7661 28.058 24.8201 26.868C25.0301 26.608 25.2161 26.328 25.4501 26H20.9401C20.4501 26 20.3321 25.696 20.4961 25.3C20.8001 24.576 21.3601 23.36 21.6881 22.752C21.7392 22.6402 21.8215 22.5454 21.925 22.4791C22.0286 22.4127 22.1491 22.3777 22.2721 22.378H30.7781C30.7321 23.01 30.7321 23.64 30.6381 24.272C30.3945 25.9355 29.7356 27.5107 28.7221 28.852C27.0401 31.072 24.8421 32.452 22.0621 32.824C19.7721 33.128 17.6441 32.684 15.7761 31.284C14.0461 29.974 13.0641 28.244 12.8081 26.094C12.5041 23.546 13.2521 21.256 14.7941 19.246C16.4541 17.074 18.6501 15.694 21.3381 15.206C23.5341 14.806 25.6381 15.066 27.5301 16.348C28.7701 17.168 29.6561 18.288 30.2421 19.644C30.3821 19.854 30.2881 19.972 30.0081 20.044M37.7441 32.966C35.6161 32.918 33.6761 32.31 32.0401 30.908C30.6798 29.7604 29.7828 28.1576 29.5161 26.398C29.0961 23.758 29.8201 21.42 31.4101 19.34C33.1161 17.096 35.1721 15.928 37.9541 15.44C40.3381 15.02 42.5821 15.25 44.6141 16.63C46.4601 17.89 47.6061 19.598 47.9101 21.84C48.3061 24.996 47.3961 27.566 45.2221 29.764C43.6801 31.33 41.7861 32.31 39.6121 32.754C38.9821 32.874 38.3521 32.894 37.7441 32.966ZM43.3041 23.526C43.2821 23.22 43.2821 22.986 43.2361 22.752C42.8161 20.438 40.6881 19.132 38.4681 19.644C36.2941 20.134 34.8921 21.514 34.3781 23.71C33.9581 25.534 34.8461 27.38 36.5281 28.13C37.8141 28.69 39.0981 28.618 40.3381 27.99C42.1841 27.03 43.1881 25.534 43.3061 23.524L43.3041 23.526Z" fill="black"/>
</g>
<defs>
<clipPath id="clip0_450_1503">
<rect width="48" height="48" fill="white"/>
</clipPath>
</defs>
</svg>
