<svg width="48" height="48" viewBox="0 0 48 48" fill="none" xmlns="http://www.w3.org/2000/svg">
<path d="M16.1104 19.1601C15.0663 17.965 13.4051 17.3673 11.1279 17.3673H3.55875L0.046875 35.4366H3.98288L4.91663 30.6328H8.28816C9.77588 30.6328 10.9997 30.4769 11.9606 30.1637C12.9213 29.8515 13.7945 29.3275 14.5805 28.5918C15.2402 27.9855 15.7734 27.3169 16.1824 26.5856C16.5906 25.8546 16.8806 25.0479 17.0522 24.1657C17.4687 22.0237 17.1544 20.3554 16.1104 19.1601ZM12.9837 23.8897C12.7116 25.2882 12.1876 26.2862 11.4111 26.8842C10.634 27.4823 9.45206 27.7813 7.86525 27.7813H5.47069L6.9405 20.2187H9.6375C11.1329 20.2187 12.1296 20.4947 12.6278 21.0467C13.1256 21.5991 13.2445 22.5466 12.9837 23.8897ZM31.6714 22.2243L30.0374 30.6328H26.0702L27.6238 22.6379C27.8004 21.7284 27.7357 21.1079 27.4284 20.7773C27.1217 20.4464 26.4683 20.2808 25.4691 20.2808H22.3482L20.3365 30.6328H16.4313L19.9432 12.5635H23.8484L22.9148 17.3673H26.3939C28.5826 17.3673 30.0925 17.7495 30.9236 18.5128C31.7548 19.2764 32.0035 20.5138 31.6714 22.2243ZM46.8332 19.1601C45.7891 17.965 44.1279 17.3673 41.8511 17.3673H34.2819L30.7701 35.4366H34.7061L35.6398 30.6328H39.0113C40.4991 30.6328 41.7224 30.4769 42.6834 30.1637C43.6441 29.8515 44.5173 29.3275 45.3033 28.5918C45.9629 27.9855 46.4966 27.3169 46.9053 26.5856C47.3135 25.8546 47.6034 25.0479 47.775 24.1657C48.1914 22.0237 47.8776 20.3554 46.8332 19.1601ZM43.7068 23.8897C43.4348 25.2882 42.9108 26.2862 42.1338 26.8842C41.3572 27.4823 40.1748 27.7813 38.588 27.7813H36.1939L37.6637 20.2187H40.3604C41.8559 20.2187 42.8524 20.4946 43.3509 21.0467C43.8487 21.599 43.9673 22.5467 43.7068 23.8897Z" fill="black"/>
</svg>
