<svg width="48" height="48" viewBox="0 0 48 48" fill="none" xmlns="http://www.w3.org/2000/svg">
<g clip-path="url(#clip0_450_1497)">
<path fill-rule="evenodd" clip-rule="evenodd" d="M30.5856 44.2992C30.3099 44.2986 30.0371 44.2436 29.7827 44.1375C29.5283 44.0313 29.2973 43.8761 29.1029 43.6806C28.9086 43.4851 28.7546 43.2532 28.6499 42.9982C28.5453 42.7432 28.4919 42.4701 28.4928 42.1944C28.4792 41.9111 28.5233 41.6281 28.6224 41.3623C28.7214 41.0966 28.8734 40.8538 29.069 40.6485C29.2647 40.4432 29.5 40.2798 29.7607 40.1682C30.0214 40.0565 30.302 39.9989 30.5856 39.9989C30.8692 39.9989 31.1498 40.0565 31.4105 40.1682C31.6712 40.2798 31.9065 40.4432 32.1022 40.6485C32.2978 40.8538 32.4498 41.0966 32.5488 41.3623C32.6479 41.6281 32.692 41.9111 32.6784 42.1944C32.6784 43.3584 31.7424 44.2992 30.5856 44.2992ZM24.1728 48C36.36 48 35.5992 42.6864 35.5992 42.6864L35.5848 37.1856H23.9568V35.532H40.2024C40.2024 35.532 48 36.42 48 24.0624C48 11.7024 41.196 12.1392 41.196 12.1392H37.1328V17.8752C37.1328 17.8752 37.3512 24.7152 30.4368 24.7152H18.9024C18.9024 24.7152 12.4224 24.612 12.4224 31.0128V41.5968C12.4224 41.5968 11.4384 48 24.1728 48ZM17.4168 3.7008C18.5736 3.7008 19.5072 4.6416 19.5072 5.8056C19.5167 6.08623 19.4696 6.36591 19.3688 6.62798C19.268 6.89004 19.1154 7.12914 18.9203 7.33103C18.7251 7.53291 18.4913 7.69346 18.2328 7.80311C17.9743 7.91276 17.6964 7.96926 17.4156 7.96926C17.1348 7.96926 16.8569 7.91276 16.5984 7.80311C16.3399 7.69346 16.1061 7.53291 15.9109 7.33103C15.7158 7.12914 15.5632 6.89004 15.4624 6.62798C15.3616 6.36591 15.3145 6.08623 15.324 5.8056C15.324 4.6416 16.26 3.7008 17.4168 3.7008ZM23.8272 0C11.6424 0 12.4032 5.3136 12.4032 5.3136L12.4176 10.8144H24.0456V12.468H7.7976C7.7976 12.468 0 11.58 0 23.9376C0 36.2976 6.8064 35.8608 6.8064 35.8608H10.8672V30.1248C10.8672 30.1248 10.6488 23.2848 17.5656 23.2848H29.0976C29.0976 23.2848 35.5776 23.388 35.5776 16.9872V6.4032C35.5776 6.4032 36.5616 0 23.8272 0Z" fill="black"/>
</g>
<defs>
<clipPath id="clip0_450_1497">
<rect width="48" height="48" fill="white"/>
</clipPath>
</defs>
</svg>
