<svg width="48" height="48" viewBox="0 0 48 48" fill="none" xmlns="http://www.w3.org/2000/svg">
<g clip-path="url(#clip0_450_1490)">
<path d="M1.606 29.6342C1.606 29.1216 1.80965 28.6299 2.17216 28.2674C2.53467 27.9049 3.02634 27.7012 3.539 27.7012C4.05166 27.7012 4.54333 27.9049 4.90584 28.2674C5.26835 28.6299 5.472 29.1216 5.472 29.6342C5.472 30.1469 5.26835 30.6386 4.90584 31.0011C4.54333 31.3636 4.05166 31.5672 3.539 31.5672C3.02634 31.5672 2.53467 31.3636 2.17216 31.0011C1.80965 30.6386 1.606 30.1469 1.606 29.6342ZM7.078 29.6342C7.078 29.2422 6.972 28.8822 6.854 28.5282C6.386 27.1242 5.102 26.0962 3.54 26.0962C3.29 26.0962 3.07 26.1882 2.834 26.2362C1.23 26.5722 0 27.9302 0 29.6342C0.0219682 30.5583 0.404471 31.4371 1.06577 32.0828C1.72707 32.7286 2.6147 33.0901 3.539 33.0901C4.4633 33.0901 5.35093 32.7286 6.01223 32.0828C6.67353 31.4371 7.05603 30.5583 7.078 29.6342ZM3.538 15.3362C3.79198 15.3362 4.04347 15.3863 4.27811 15.4835C4.51275 15.5807 4.72596 15.7231 4.90554 15.9027C5.08513 16.0823 5.22759 16.2955 5.32478 16.5301C5.42198 16.7648 5.472 17.0163 5.472 17.2702C5.472 17.5242 5.42198 17.7757 5.32478 18.0104C5.22759 18.245 5.08513 18.4582 4.90554 18.6378C4.72596 18.8174 4.51275 18.9598 4.27811 19.057C4.04347 19.1542 3.79198 19.2042 3.538 19.2042C3.02507 19.2042 2.53315 19.0005 2.17046 18.6378C1.80776 18.2751 1.604 17.7832 1.604 17.2702C1.604 16.7573 1.80776 16.2654 2.17046 15.9027C2.53315 15.54 3.02507 15.3362 3.538 15.3362ZM3.538 20.8082C4.00288 20.8082 4.46321 20.7167 4.8927 20.5388C5.32219 20.3609 5.71244 20.1001 6.04116 19.7714C6.36988 19.4427 6.63063 19.0524 6.80853 18.6229C6.98644 18.1934 7.078 17.7331 7.078 17.2682C7.078 16.8782 6.972 16.5162 6.854 16.1642C6.386 14.7602 5.1 13.7302 3.54 13.7302C3.29 13.7302 3.07 13.8242 2.834 13.8742C1.23 14.2082 0 15.5642 0 17.2682C0 19.2222 1.582 20.8082 3.538 20.8082ZM29.98 9.42024C29.7261 9.42024 29.4747 9.3702 29.2402 9.27299C29.0057 9.17577 28.7926 9.03328 28.6132 8.85367C28.4337 8.67405 28.2915 8.46083 28.1945 8.2262C28.0975 7.99157 28.0477 7.74012 28.048 7.48624C28.048 7.23236 28.098 6.98097 28.1953 6.74644C28.2925 6.5119 28.435 6.29883 28.6146 6.1194C28.7942 5.93998 29.0074 5.79771 29.242 5.70073C29.4767 5.60376 29.7281 5.55398 29.982 5.55424C30.4947 5.55424 30.9863 5.7579 31.3488 6.1204C31.7113 6.48291 31.915 6.97458 31.915 7.48724C31.915 7.99991 31.7113 8.49157 31.3488 8.85408C30.9863 9.21659 30.4947 9.42024 29.982 9.42024M10.782 42.4462C10.2801 42.4301 9.80416 42.2194 9.45483 41.8586C9.1055 41.4979 8.91018 41.0154 8.91018 40.5132C8.91018 40.0111 9.1055 39.5286 9.45483 39.1679C9.80416 38.8071 10.2801 38.5964 10.782 38.5802C11.0359 38.5802 11.2873 38.6303 11.5218 38.7275C11.7563 38.8247 11.9694 38.9672 12.1488 39.1468C12.3283 39.3264 12.4705 39.5397 12.5675 39.7743C12.6645 40.0089 12.7143 40.2604 12.714 40.5142C12.714 41.0266 12.5105 41.5181 12.1481 41.8804C11.7858 42.2427 11.2944 42.4462 10.782 42.4462ZM29.982 3.94824C29.0431 3.94824 28.1427 4.32121 27.4788 4.98508C26.815 5.64896 26.442 6.54938 26.442 7.48824C26.442 7.90424 26.548 8.29224 26.68 8.66424L10.078 37.1162C8.472 37.4522 7.242 38.8082 7.242 40.5142C7.26397 41.4383 7.64647 42.3171 8.30777 42.9628C8.96906 43.6086 9.8567 43.9701 10.781 43.9701C11.7053 43.9701 12.5929 43.6086 13.2542 42.9628C13.9155 42.3171 14.298 41.4383 14.32 40.5142C14.3081 40.1358 14.2331 39.762 14.098 39.4082L30.784 10.8622C32.34 10.4902 33.52 9.15624 33.52 7.48624C33.5195 6.54772 33.1463 5.64782 32.4825 4.98438C31.8186 4.32093 30.9185 3.94824 29.98 3.94824M44.46 9.42024C44.2061 9.42024 43.9547 9.3702 43.7202 9.27299C43.4857 9.17577 43.2726 9.03328 43.0932 8.85367C42.9137 8.67405 42.7715 8.46083 42.6745 8.2262C42.5775 7.99157 42.5277 7.74012 42.528 7.48624C42.528 7.23236 42.578 6.98097 42.6753 6.74644C42.7725 6.5119 42.915 6.29883 43.0946 6.1194C43.2742 5.93998 43.4874 5.79771 43.722 5.70073C43.9567 5.60376 44.2081 5.55398 44.462 5.55424C44.9747 5.55424 45.4663 5.7579 45.8288 6.1204C46.1913 6.48291 46.395 6.97458 46.395 7.48724C46.395 7.99991 46.1913 8.49157 45.8288 8.85408C45.4663 9.21659 44.9747 9.42024 44.462 9.42024M25.262 42.4462C25.0081 42.4462 24.7567 42.3962 24.5222 42.299C24.2877 42.2018 24.0746 42.0593 23.8952 41.8797C23.7157 41.7001 23.5735 41.4868 23.4765 41.2522C23.3795 41.0176 23.3297 40.7661 23.33 40.5122C23.33 39.9998 23.5336 39.5084 23.8959 39.1461C24.2582 38.7838 24.7496 38.5802 25.262 38.5802C25.7747 38.5802 26.2663 38.7839 26.6288 39.1464C26.9913 39.5089 27.195 40.0006 27.195 40.5132C27.195 41.0259 26.9913 41.5176 26.6288 41.8801C26.2663 42.2426 25.7747 42.4462 25.262 42.4462ZM44.462 3.94824C43.5231 3.94824 42.6227 4.32121 41.9588 4.98508C41.295 5.64896 40.922 6.54938 40.922 7.48824C40.922 7.90424 41.028 8.29224 41.16 8.66424L24.558 37.1162C22.954 37.4522 21.724 38.8082 21.724 40.5142C21.7549 41.432 22.1411 42.3018 22.8013 42.9401C23.4614 43.5784 24.3437 43.9353 25.262 43.9353C26.1803 43.9353 27.0626 43.5784 27.7227 42.9401C28.3829 42.3018 28.7691 41.432 28.8 40.5142C28.8 40.1202 28.694 39.7622 28.578 39.4082L45.264 10.8622C46.818 10.4902 48 9.15624 48 7.48624C47.9995 6.54772 47.6263 5.64782 46.9625 4.98438C46.2986 4.32093 45.3985 3.94824 44.46 3.94824" fill="black"/>
</g>
<defs>
<clipPath id="clip0_450_1490">
<rect width="48" height="48" fill="white"/>
</clipPath>
</defs>
</svg>
