<svg width="300" height="278" viewBox="0 0 300 278" fill="none" xmlns="http://www.w3.org/2000/svg">
<g clip-path="url(#clip0_4031_18556)">
<path d="M300.001 197.84H184.902V131.355H300.001V197.84ZM185.605 197.139H299.298V132.057H185.605V197.139Z" fill="#E0E0E0"/>
<path d="M276.264 166.842H200.352V169.065H276.264V166.842Z" fill="#F0F0F0"/>
<path d="M281.531 175.117H200.352V177.544H281.531V175.117Z" fill="#F0F0F0"/>
<path d="M281.531 183.533H200.352V185.96H281.531V183.533Z" fill="#F0F0F0"/>
<path d="M226.897 154.779H200.352V160.551H226.897V154.779Z" fill="#F0F0F0"/>
<path d="M299.648 131.706H185.252V142.296H299.648V131.706Z" fill="#E0E0E0"/>
<path d="M290.872 140.683C290.661 140.543 292.136 138.79 294.102 136.686C296.068 134.582 297.824 133.109 297.964 133.249C298.105 133.39 296.63 135.143 294.664 137.247C292.697 139.351 291.012 140.824 290.872 140.683Z" fill="white"/>
<path d="M297.964 140.683C297.824 140.823 296.068 139.28 294.102 137.247C292.136 135.213 290.661 133.389 290.872 133.249C291.082 133.109 292.697 134.652 294.664 136.686C296.63 138.719 298.105 140.543 297.964 140.683Z" fill="white"/>
<path d="M158.427 0H44.0312V65.8181H158.427V0Z" fill="#E6E6E6"/>
<path d="M134.972 35.1357H59.0586V37.3589H134.972V35.1357Z" fill="#F0F0F0"/>
<path d="M140.238 43.4111H59.0586V45.8377H140.238V43.4111Z" fill="#F0F0F0"/>
<path d="M140.238 51.8271H59.0586V54.2537H140.238V51.8271Z" fill="#F0F0F0"/>
<path d="M85.6035 23.0732H59.0586V28.845H85.6035V23.0732Z" fill="#F0F0F0"/>
<path d="M158.427 0H44.0312V10.5898H158.427V0Z" fill="#E0E0E0"/>
<path d="M149.158 8.90627C149.017 8.76601 150.492 7.01273 152.458 4.97893C154.425 2.94513 156.18 1.33211 156.321 1.47237C156.461 1.61263 154.986 3.43604 153.02 5.46985C151.054 7.50365 149.298 9.04654 149.158 8.90627Z" fill="white"/>
<path d="M156.321 8.90662C156.18 9.04688 154.425 7.504 152.458 5.47019C150.492 3.43639 149.017 1.61298 149.158 1.47272C149.298 1.33245 151.054 2.87534 153.02 4.97928C154.986 7.08321 156.461 8.76636 156.321 8.90662Z" fill="white"/>
<path d="M115.028 122.239H0V55.6846H115.028V122.239ZM0.702247 121.538H114.326V56.3859H0.702247V121.538Z" fill="#E0E0E0"/>
<path d="M91.2918 91.2402H15.3789V93.4634H91.2918V91.2402Z" fill="#F0F0F0"/>
<path d="M96.5587 99.5166H15.3789V101.943H96.5587V99.5166Z" fill="#F0F0F0"/>
<path d="M96.5587 107.861H15.3789V110.288H96.5587V107.861Z" fill="#F0F0F0"/>
<path d="M41.9239 79.1777H15.3789V84.9495H41.9239V79.1777Z" fill="#F0F0F0"/>
<path d="M114.748 56.1045H0.351562V66.6943H114.748V56.1045Z" fill="#E0E0E0"/>
<path d="M247.894 137.527H112.852V258.265H247.894V137.527Z" fill="#E6E6E6"/>
<path d="M119.592 99.4463H13.834V209.209H119.592V99.4463Z" fill="#F0F0F0"/>
<path d="M119.592 99.4463H13.834V111.404H119.592V99.4463Z" fill="#E0E0E0"/>
<path d="M22.5413 105.267C22.5992 105.59 22.5854 105.922 22.5009 106.239C22.4165 106.556 22.2634 106.851 22.0525 107.103C21.8415 107.355 21.5779 107.557 21.2802 107.696C20.9824 107.835 20.6578 107.907 20.3292 107.907C20.0006 107.907 19.676 107.835 19.3783 107.696C19.0805 107.557 18.8169 107.355 18.606 107.103C18.3951 106.851 18.242 106.556 18.1575 106.239C18.0731 105.922 18.0593 105.59 18.1171 105.267C18.0593 104.944 18.0731 104.612 18.1575 104.295C18.242 103.978 18.3951 103.683 18.606 103.432C18.8169 103.18 19.0805 102.978 19.3783 102.839C19.676 102.7 20.0006 102.628 20.3292 102.628C20.6578 102.628 20.9824 102.7 21.2802 102.839C21.5779 102.978 21.8415 103.18 22.0525 103.432C22.2634 103.683 22.4165 103.978 22.5009 104.295C22.5854 104.612 22.5992 104.944 22.5413 105.267Z" fill="white"/>
<path d="M31.5315 105.267C31.5894 105.59 31.5756 105.922 31.4912 106.239C31.4067 106.556 31.2536 106.851 31.0427 107.103C30.8318 107.355 30.5682 107.557 30.2704 107.696C29.9727 107.835 29.6481 107.907 29.3195 107.907C28.9908 107.907 28.6662 107.835 28.3685 107.696C28.0708 107.557 27.8071 107.355 27.5962 107.103C27.3853 106.851 27.2322 106.556 27.1478 106.239C27.0633 105.922 27.0495 105.59 27.1074 105.267C27.0495 104.944 27.0633 104.612 27.1478 104.295C27.2322 103.978 27.3853 103.683 27.5962 103.432C27.8071 103.18 28.0708 102.978 28.3685 102.839C28.6662 102.7 28.9908 102.628 29.3195 102.628C29.6481 102.628 29.9727 102.7 30.2704 102.839C30.5682 102.978 30.8318 103.18 31.0427 103.432C31.2536 103.683 31.4067 103.978 31.4912 104.295C31.5756 104.612 31.5894 104.944 31.5315 105.267Z" fill="white"/>
<path d="M40.5901 105.267C40.648 105.59 40.6342 105.922 40.5497 106.239C40.4653 106.556 40.3122 106.851 40.1013 107.103C39.8904 107.355 39.6268 107.557 39.329 107.696C39.0313 107.835 38.7067 107.907 38.3781 107.907C38.0494 107.907 37.7248 107.835 37.4271 107.696C37.1293 107.557 36.8657 107.355 36.6548 107.103C36.4439 106.851 36.2908 106.556 36.2064 106.239C36.1219 105.922 36.1081 105.59 36.166 105.267C36.1081 104.944 36.1219 104.612 36.2064 104.295C36.2908 103.978 36.4439 103.683 36.6548 103.432C36.8657 103.18 37.1293 102.978 37.4271 102.839C37.7248 102.7 38.0494 102.628 38.3781 102.628C38.7067 102.628 39.0313 102.7 39.329 102.839C39.6268 102.978 39.8904 103.18 40.1013 103.432C40.3122 103.683 40.4653 103.978 40.5497 104.295C40.6342 104.612 40.648 104.944 40.5901 105.267Z" fill="white"/>
<path d="M284.902 23.9854H149.859V158.399H284.902V23.9854Z" fill="#F0F0F0"/>
<path d="M284.902 23.9854H149.859V39.7298H284.902V23.9854Z" fill="#E0E0E0"/>
<path d="M161.375 31.6994C161.375 32.0862 161.299 32.4693 161.151 32.8266C161.003 33.184 160.785 33.5087 160.512 33.7822C160.238 34.0557 159.913 34.2727 159.555 34.4207C159.197 34.5687 158.813 34.6449 158.426 34.6449C158.039 34.6449 157.655 34.5687 157.297 34.4207C156.939 34.2727 156.614 34.0557 156.34 33.7822C156.067 33.5087 155.849 33.184 155.701 32.8266C155.553 32.4693 155.477 32.0862 155.477 31.6994C155.477 31.3126 155.553 30.9296 155.701 30.5722C155.849 30.2149 156.067 29.8901 156.34 29.6166C156.614 29.3431 156.939 29.1261 157.297 28.9781C157.655 28.8301 158.039 28.7539 158.426 28.7539C158.813 28.7539 159.197 28.8301 159.555 28.9781C159.913 29.1261 160.238 29.3431 160.512 29.6166C160.785 29.8901 161.003 30.2149 161.151 30.5722C161.299 30.9296 161.375 31.3126 161.375 31.6994Z" fill="white"/>
<path d="M172.332 29.5956C172.658 29.8535 172.926 30.1774 173.118 30.5461C173.31 30.9147 173.422 31.3197 173.446 31.7345C173.47 32.1494 173.406 32.5645 173.258 32.9529C173.11 33.3412 172.881 33.6938 172.587 33.9876C172.293 34.2814 171.939 34.5097 171.551 34.6576C171.162 34.8054 170.746 34.8694 170.331 34.8454C169.915 34.8214 169.51 34.7099 169.141 34.5182C168.771 34.3265 168.447 34.059 168.189 33.7333C167.863 33.4754 167.595 33.1514 167.403 32.7828C167.211 32.4141 167.099 32.0091 167.075 31.5943C167.051 31.1795 167.115 30.7643 167.263 30.376C167.411 29.9877 167.64 29.635 167.934 29.3412C168.228 29.0474 168.581 28.8191 168.97 28.6713C169.359 28.5234 169.775 28.4594 170.19 28.4834C170.606 28.5075 171.011 28.619 171.38 28.8106C171.749 29.0023 172.074 29.2698 172.332 29.5956Z" fill="white"/>
<path d="M185.042 31.6991C185.052 32.0859 184.985 32.4708 184.845 32.8317C184.705 33.1927 184.496 33.5226 184.228 33.8026C183.961 34.0827 183.641 34.3074 183.287 34.4639C182.932 34.6204 182.551 34.7056 182.163 34.7147C181.77 34.7148 181.381 34.6364 181.018 34.484C180.656 34.3316 180.327 34.1083 180.052 33.8273C179.778 33.5463 179.562 33.2133 179.418 32.8478C179.274 32.4823 179.204 32.0917 179.214 31.6991C179.204 31.303 179.273 30.909 179.416 30.5396C179.56 30.1701 179.774 29.8325 180.048 29.5459C180.322 29.2593 180.65 29.0295 181.013 28.8695C181.376 28.7094 181.767 28.6224 182.163 28.6133C182.952 28.6497 183.695 28.9931 184.233 29.5699C184.771 30.1466 185.062 30.9109 185.042 31.6991Z" fill="white"/>
<path d="M257.864 277.79C257.864 277.93 209.058 278 148.946 278C88.8335 278 40.0273 277.93 40.0273 277.79C40.0273 277.649 88.7633 277.649 148.946 277.649C209.128 277.649 257.864 277.72 257.864 277.79Z" fill="#263238"/>
<path d="M199.367 203.38C190.87 193.211 192.204 179.045 195.996 166.982C196.628 164.948 196.979 162.774 198.454 161.231C199.929 159.688 202.457 159.127 204.072 160.46C205.687 161.792 205.547 163.546 206.038 165.229C206.615 167.47 207.835 169.493 209.55 171.05C210.673 172.102 212.148 172.943 213.623 172.593C215.097 172.242 216.502 169.717 217.064 167.683C218.047 163.966 219.1 160.179 220.083 156.392C220.537 154.351 221.294 152.388 222.331 150.571C223.524 148.818 225.35 147.415 227.457 147.415C229.564 147.415 231.6 149.169 231.46 151.203C231.39 152.114 230.968 152.886 230.828 153.797C230.687 154.709 230.758 155.621 231.53 156.112C232.302 156.603 233.215 156.182 233.988 155.761C236.656 154.288 238.763 152.044 240.87 149.8C242.977 147.556 244.873 145.241 247.401 143.558C249.929 141.875 253.019 140.753 255.968 141.384C258.918 142.015 261.516 144.68 261.446 147.696C261.376 150.712 258.988 153.236 256.53 154.99C252.908 157.685 248.909 159.835 244.662 161.372C243.872 161.579 243.162 162.019 242.626 162.634C241.783 163.896 242.696 165.579 243.89 166.351C245.083 167.122 246.979 167.613 248.524 168.174C250.069 168.735 251.544 169.998 251.755 171.611C251.965 173.224 249.648 175.608 247.611 176.59C243.419 178.492 238.929 179.655 234.339 180.026C232.654 180.167 230.968 180.237 229.493 180.938C228.019 181.639 226.755 183.323 227.106 184.936C227.457 186.549 229.213 187.53 230.828 187.671C232.443 187.811 234.058 187.32 235.743 187.18C238.833 186.899 242.345 188.021 243.468 190.967C243.768 191.939 243.848 192.965 243.702 193.972C243.556 194.979 243.189 195.94 242.626 196.788C241.41 198.445 239.884 199.85 238.131 200.926C232.275 205.008 225.444 207.476 218.328 208.079C211.235 208.5 205.126 207.518 199.367 203.38Z" fill="#FDB602"/>
<path d="M259.058 144.259L258.286 144.68L255.406 146.083C251.938 147.924 248.606 150.01 245.434 152.324C243.398 153.797 241.221 155.48 238.974 157.304C236.727 159.127 234.269 161.231 231.811 163.405C229.353 165.579 226.895 168.034 224.437 170.699C223.243 172.031 222.12 173.434 220.996 174.907L217.415 179.325C212.932 184.914 208.759 190.743 204.915 196.788C201.757 201.75 199.099 207.012 196.979 212.497C195.529 216.18 194.401 219.981 193.609 223.858C193.398 225.261 193.187 226.313 193.117 227.014C193.047 227.29 193 227.572 192.977 227.856C193.041 227.58 193.065 227.297 193.047 227.014C193.187 226.313 193.328 225.191 193.538 223.858C194.267 219.935 195.348 216.086 196.769 212.357C198.868 206.888 201.478 201.628 204.564 196.647C208.422 190.573 212.619 184.719 217.134 179.115L220.645 174.626C221.839 173.224 222.963 171.751 224.156 170.418C226.614 167.753 229.142 165.369 231.6 163.125C234.058 160.88 236.516 158.917 238.763 157.093C241.01 155.27 243.257 153.517 245.294 152.114C248.469 149.789 251.827 147.725 255.336 145.943L258.286 144.61L259.058 144.259Z" fill="#263238"/>
<path d="M224.297 170.418C224.297 170.418 224.297 170.138 224.367 169.506C224.418 168.684 224.512 167.865 224.648 167.052C224.859 164.948 225.35 162.072 225.842 158.917C226.333 155.761 226.825 152.885 227.036 150.781C227.176 149.729 227.246 148.888 227.317 148.327C227.387 147.766 227.387 147.415 227.457 147.415V148.327C227.457 148.888 227.387 149.729 227.317 150.781C227.176 152.885 226.755 155.831 226.263 158.987C225.772 162.143 225.28 164.948 224.859 167.052C224.718 168.034 224.578 168.875 224.508 169.576L224.297 170.418Z" fill="#263238"/>
<path d="M251.684 172.732L250.56 172.522L247.681 172.031C245.223 171.68 241.852 171.26 238.06 170.909C234.268 170.558 230.827 170.488 228.299 170.488H225.35L228.299 170.348C231.557 170.275 234.816 170.393 238.06 170.699C241.852 170.979 245.293 171.47 247.751 171.891L250.631 172.522L251.684 172.732Z" fill="#263238"/>
<path d="M205.056 196.227L204.915 195.876C204.894 195.523 204.847 195.171 204.775 194.824C204.564 193.913 204.424 192.51 204.213 190.897C203.721 187.531 203.3 182.972 202.808 177.853C202.317 172.733 201.966 168.175 201.615 164.808C201.404 163.195 201.263 161.863 201.193 160.881C201.121 160.534 201.074 160.183 201.053 159.829V159.408C201.061 159.551 201.084 159.692 201.123 159.829C201.17 160.11 201.24 160.46 201.334 160.881C201.474 161.793 201.685 163.125 201.895 164.808C202.317 168.104 202.808 172.733 203.23 177.853C203.651 182.972 204.072 187.531 204.424 190.827C204.634 192.44 204.775 193.772 204.915 194.754C205.056 195.736 204.985 195.596 204.985 195.876C205.025 195.989 205.049 196.107 205.056 196.227Z" fill="#263238"/>
<path d="M242.695 194.544H241.22L237.147 194.684L223.875 195.596C218.678 195.876 213.973 196.157 210.532 196.227H206.529L210.532 196.017L223.875 195.245C229.071 194.965 233.776 194.754 237.147 194.684H242.695V194.544Z" fill="#263238"/>
<path d="M233.006 17.9535L229.425 19.2159L227.88 14.5171C225.001 5.82083 215.872 1.12204 207.585 4.13769C199.298 7.15333 194.804 16.621 197.613 25.3173L199.158 30.0161L195.577 31.3486C194.176 31.8712 193.035 32.917 192.392 34.265C191.75 35.613 191.658 37.1575 192.136 38.5721L202.248 69.2194C202.448 69.9178 202.787 70.5687 203.245 71.1332C203.703 71.6977 204.27 72.1641 204.912 72.5046C205.555 72.8451 206.259 73.0526 206.984 73.1147C207.709 73.1769 208.439 73.0924 209.13 72.8662L246.63 59.4712C248.035 58.9341 249.178 57.8751 249.82 56.5157C250.461 55.1562 250.551 53.6018 250.071 52.1775L239.959 21.4601C239.753 20.7605 239.406 20.1104 238.939 19.5501C238.472 18.9898 237.895 18.5311 237.243 18.2024C236.592 17.8738 235.879 17.6821 235.151 17.6393C234.422 17.5965 233.692 17.7034 233.006 17.9535ZM204.495 22.8627C203.7 20.611 203.82 18.1374 204.831 15.9736C205.843 13.8098 207.663 12.1285 209.902 11.2911C211.003 10.9113 212.17 10.7577 213.332 10.8397C214.494 10.9217 215.627 11.2376 216.663 11.7682C217.7 12.2989 218.618 13.0334 219.363 13.9276C220.108 14.8219 220.664 15.8573 220.998 16.9717L222.613 21.6705L206.04 27.5615L204.495 22.8627ZM225.563 50.1437L228.091 57.9283C228.142 58.0874 228.135 58.2595 228.071 58.4138C228.006 58.5681 227.889 58.6944 227.739 58.7699L224.088 60.0322C223.948 60.0769 223.796 60.0653 223.665 59.9998C223.534 59.9342 223.434 59.82 223.386 59.6816L220.787 51.8269C219.361 51.7395 217.995 51.2241 216.867 50.3481C215.739 49.4722 214.903 48.2765 214.467 46.9177C213.851 45.112 213.96 43.1378 214.772 41.411C215.584 39.6842 217.036 38.3396 218.821 37.6604C219.696 37.3558 220.624 37.2309 221.549 37.2932C222.473 37.3555 223.376 37.6036 224.202 38.0228C225.029 38.4419 225.762 39.0235 226.357 39.7325C226.953 40.4415 227.399 41.2633 227.669 42.1488C228.132 43.542 228.178 45.0393 227.804 46.4586C227.43 47.878 226.652 49.1582 225.563 50.1437Z" fill="#FDB602"/>
<path d="M229.285 19.1461C229.285 19.2162 222.543 21.7409 214.187 24.7566C205.83 27.7722 199.088 30.1567 199.018 30.0865C198.948 30.0164 205.76 27.4216 214.046 24.4059C222.333 21.3903 229.215 19.076 229.285 19.1461Z" fill="#263238"/>
<path d="M237.219 20.4082V20.6186L237.43 21.1796C237.641 21.6706 237.851 22.3719 238.203 23.2836L240.871 31.1383L244.804 42.78C245.576 44.9541 246.349 47.2684 247.121 49.6529C247.519 50.8992 247.709 52.2023 247.683 53.5101C247.604 54.1908 247.414 54.854 247.121 55.4738C246.754 56.0502 246.304 56.57 245.787 57.0167C244.693 57.8026 243.485 58.4174 242.205 58.8401L238.554 60.1726L231.742 62.557L220.155 66.6948L212.29 69.4299L210.183 70.2013L209.621 70.3416L210.183 70.1312L212.29 69.2896L220.085 66.4844L231.601 62.2765L238.483 59.8219L242.065 58.4894C243.309 58.1189 244.475 57.5247 245.506 56.7362C246.036 56.3502 246.469 55.8459 246.77 55.2634C247.062 54.7177 247.252 54.1236 247.332 53.5101C247.356 52.2483 247.167 50.9915 246.77 49.7932L244.593 42.9203C243.118 38.502 241.784 34.5747 240.731 31.2084C239.677 27.8421 238.764 25.2473 238.132 23.3537C237.5 21.4602 237.571 21.7407 237.43 21.1796C237.358 20.9997 237.311 20.811 237.29 20.6186L237.219 20.4082Z" fill="#263238"/>
<path d="M217.417 10.8003L216.364 10.3094C215.399 9.93327 214.379 9.71997 213.344 9.6782C211.778 9.60655 210.216 9.89445 208.779 10.5198C207.064 11.3197 205.588 12.5525 204.496 14.0965C203.442 15.6749 202.88 17.5295 202.88 19.4264C202.869 20.9966 203.106 22.5587 203.583 24.0551C203.858 25.0765 204.186 26.083 204.566 27.0707C204.847 27.772 204.987 28.1227 204.917 28.1227C204.728 27.7843 204.564 27.4327 204.425 27.0707C204.144 26.3694 203.723 25.3876 203.302 24.1252C202.828 22.6021 202.568 21.0208 202.529 19.4264C202.529 17.4537 203.116 15.5254 204.215 13.8861C205.32 12.2826 206.853 11.0195 208.639 10.2392C210.126 9.61628 211.733 9.32891 213.344 9.39767C214.405 9.51066 215.445 9.77029 216.434 10.1691L217.206 10.5899C217.347 10.7302 217.487 10.7302 217.417 10.8003Z" fill="#263238"/>
<path d="M217.768 38.2216L218.119 38.0112L219.173 37.6605L220.999 37.3099C221.86 37.2891 222.718 37.4319 223.527 37.7307C225.282 38.3618 226.968 40.1853 227.74 42.5697C228.149 43.8915 228.174 45.3022 227.81 46.6373C227.352 48.0664 226.557 49.3649 225.493 50.4244V50.214L228.442 58.4895V58.6297L226.827 59.1908L223.316 60.3129H223.176V60.1726C222.192 57.2271 221.139 54.492 220.367 51.8972H220.507C219.149 51.7813 217.854 51.2692 216.785 50.4244C215.787 49.682 214.97 48.7228 214.398 47.6192C213.899 46.6437 213.657 45.5577 213.695 44.4633C213.699 43.5234 213.89 42.5936 214.257 41.7281C214.751 40.4986 215.578 39.4303 216.645 38.6424C217.009 38.3731 217.411 38.1603 217.839 38.0112C217.44 38.2324 217.064 38.4907 216.715 38.7826C215.714 39.6029 214.941 40.6652 214.468 41.8684C214.072 42.7577 213.886 43.7256 213.922 44.698C213.959 45.6704 214.217 46.6216 214.678 47.4789C215.223 48.5611 216.017 49.4985 216.996 50.214C218.044 50.9898 219.28 51.4738 220.577 51.6166H220.718C221.49 54.2115 222.544 56.9466 223.527 59.8921L223.316 59.7519L226.757 58.6297L228.372 58.0687V58.2791L225.353 50.0737V49.9335H225.493C226.511 48.9453 227.26 47.7143 227.67 46.3568C228.055 45.0998 228.055 43.7566 227.67 42.4996C226.898 40.1151 225.353 38.2917 223.597 37.7307C222.861 37.4344 222.073 37.2912 221.28 37.3099C220.664 37.2937 220.049 37.3645 219.454 37.5203L217.768 38.2216Z" fill="#263238"/>
<path d="M181.462 243.145L111.307 242.794C107.253 242.757 103.377 241.123 100.523 238.246C97.6692 235.37 96.0682 231.484 96.0684 227.435L96.8408 51.8267C96.8407 49.8256 97.2377 47.8442 98.0088 45.9971C98.7798 44.15 99.9097 42.4738 101.333 41.0653C102.757 39.6568 104.445 38.5439 106.302 37.791C108.159 37.038 110.146 36.6599 112.15 36.6784L182.304 36.9589C186.359 36.9959 190.235 38.6303 193.088 41.5067C195.942 44.383 197.543 48.2684 197.543 52.3176L196.771 227.926C196.752 231.969 195.131 235.839 192.262 238.691C189.393 241.543 185.51 243.145 181.462 243.145Z" fill="#455A64"/>
<path d="M182.235 43.06H168.611C168.169 43.0691 167.732 43.1652 167.327 43.3429C166.921 43.5205 166.555 43.7762 166.248 44.0954C165.942 44.4145 165.701 44.7908 165.54 45.2028C165.38 45.6147 165.302 46.0543 165.311 46.4964V48.951C165.32 49.3931 165.242 49.8327 165.081 50.2447C164.921 50.6567 164.68 51.033 164.373 51.3521C164.067 51.6712 163.701 51.9269 163.295 52.1046C162.89 52.2822 162.453 52.3783 162.01 52.3875L135.465 52.2472C135.023 52.2381 134.586 52.142 134.181 51.9643C133.775 51.7867 133.409 51.531 133.102 51.2118C132.796 50.8927 132.555 50.5164 132.394 50.1044C132.233 49.6924 132.155 49.2529 132.165 48.8108V46.3562C132.193 45.9118 132.131 45.4662 131.983 45.0464C131.834 44.6266 131.602 44.2412 131.3 43.9135C130.998 43.5858 130.633 43.3225 130.226 43.1397C129.82 42.9569 129.38 42.8582 128.934 42.8496H112.221C109.384 42.8495 106.661 43.9704 104.648 45.9675C102.635 47.9647 101.495 50.6759 101.477 53.5096L100.774 224.91C100.756 226.313 101.016 227.705 101.541 229.006C102.065 230.307 102.844 231.491 103.83 232.489C104.817 233.487 105.992 234.28 107.288 234.821C108.583 235.362 109.974 235.64 111.378 235.64L181.392 235.991C184.23 235.991 186.952 234.87 188.965 232.873C190.978 230.876 192.118 228.165 192.137 225.331L192.839 53.9303C192.876 52.5162 192.63 51.109 192.114 49.7916C191.598 48.4742 190.823 47.2735 189.834 46.2602C188.846 45.2469 187.664 44.4417 186.359 43.8921C185.054 43.3424 183.652 43.0595 182.235 43.06Z" fill="white"/>
<path d="M172.823 212.989L120.716 212.708C120.225 212.708 119.803 212.147 119.803 211.376V197.84C119.763 197.534 119.842 197.224 120.026 196.976C120.209 196.727 120.482 196.56 120.787 196.508L172.893 196.718C173.185 196.786 173.441 196.96 173.61 197.207C173.779 197.453 173.849 197.755 173.806 198.051V211.656C173.806 212.357 173.315 212.989 172.823 212.989Z" fill="#FDB602"/>
<path d="M155.357 206V202.5H156.667C156.964 202.5 157.219 202.548 157.432 202.645C157.646 202.738 157.809 202.875 157.922 203.055C158.039 203.232 158.097 203.447 158.097 203.7C158.097 203.947 158.039 204.16 157.922 204.34C157.809 204.517 157.646 204.653 157.432 204.75C157.219 204.847 156.964 204.895 156.667 204.895H155.562L155.727 204.72V206H155.357ZM155.727 204.75L155.562 204.57H156.657C157.007 204.57 157.272 204.495 157.452 204.345C157.636 204.192 157.727 203.977 157.727 203.7C157.727 203.42 157.636 203.203 157.452 203.05C157.272 202.897 157.007 202.82 156.657 202.82H155.562L155.727 202.645V204.75Z" fill="#0D0D0D"/>
<path d="M152.807 206.03C152.361 206.03 152.009 205.902 151.752 205.645C151.496 205.388 151.367 205.008 151.367 204.505V202.5H151.737V204.49C151.737 204.903 151.831 205.208 152.017 205.405C152.204 205.602 152.467 205.7 152.807 205.7C153.151 205.7 153.416 205.602 153.602 205.405C153.789 205.208 153.882 204.903 153.882 204.49V202.5H154.242V204.505C154.242 205.008 154.114 205.388 153.857 205.645C153.604 205.902 153.254 206.03 152.807 206.03Z" fill="#0D0D0D"/>
<path d="M147.757 206.03C147.49 206.03 147.244 205.986 147.017 205.9C146.794 205.81 146.599 205.685 146.432 205.525C146.269 205.365 146.14 205.176 146.047 204.96C145.957 204.743 145.912 204.506 145.912 204.25C145.912 203.993 145.957 203.756 146.047 203.54C146.14 203.323 146.27 203.135 146.437 202.975C146.604 202.815 146.799 202.691 147.022 202.605C147.249 202.515 147.495 202.47 147.762 202.47C148.029 202.47 148.272 202.511 148.492 202.595C148.715 202.678 148.905 202.805 149.062 202.975L148.832 203.21C148.685 203.063 148.524 202.958 148.347 202.895C148.17 202.831 147.98 202.8 147.777 202.8C147.56 202.8 147.36 202.836 147.177 202.91C146.997 202.98 146.839 203.081 146.702 203.215C146.569 203.345 146.464 203.498 146.387 203.675C146.314 203.848 146.277 204.04 146.277 204.25C146.277 204.456 146.314 204.648 146.387 204.825C146.464 205.001 146.569 205.156 146.702 205.29C146.839 205.42 146.997 205.521 147.177 205.595C147.36 205.665 147.559 205.7 147.772 205.7C147.972 205.7 148.16 205.67 148.337 205.61C148.517 205.55 148.682 205.448 148.832 205.305L149.042 205.585C148.875 205.731 148.68 205.843 148.457 205.92C148.234 205.993 148 206.03 147.757 206.03ZM148.687 205.54V204.25H149.042V205.585L148.687 205.54Z" fill="#0D0D0D"/>
<path d="M142.154 206V202.5H142.459L144.874 205.54H144.714V202.5H145.079V206H144.774L142.364 202.96H142.524V206H142.154Z" fill="#0D0D0D"/>
<path d="M140.646 206V202.5H141.016V206H140.646Z" fill="#0D0D0D"/>
<path d="M138.534 206.03C138.274 206.03 138.024 205.988 137.784 205.905C137.548 205.818 137.364 205.708 137.234 205.575L137.379 205.29C137.503 205.41 137.668 205.511 137.874 205.595C138.084 205.675 138.304 205.715 138.534 205.715C138.754 205.715 138.933 205.688 139.069 205.635C139.209 205.578 139.311 205.503 139.374 205.41C139.441 205.316 139.474 205.213 139.474 205.1C139.474 204.963 139.434 204.853 139.354 204.77C139.278 204.686 139.176 204.621 139.049 204.575C138.923 204.525 138.783 204.481 138.629 204.445C138.476 204.408 138.323 204.37 138.169 204.33C138.016 204.286 137.874 204.23 137.744 204.16C137.618 204.09 137.514 203.998 137.434 203.885C137.358 203.768 137.319 203.616 137.319 203.43C137.319 203.256 137.364 203.098 137.454 202.955C137.548 202.808 137.689 202.691 137.879 202.605C138.069 202.515 138.313 202.47 138.609 202.47C138.806 202.47 139.001 202.498 139.194 202.555C139.388 202.608 139.554 202.683 139.694 202.78L139.569 203.075C139.419 202.975 139.259 202.901 139.089 202.855C138.923 202.808 138.761 202.785 138.604 202.785C138.394 202.785 138.221 202.813 138.084 202.87C137.948 202.926 137.846 203.003 137.779 203.1C137.716 203.193 137.684 203.3 137.684 203.42C137.684 203.556 137.723 203.666 137.799 203.75C137.879 203.833 137.983 203.898 138.109 203.945C138.239 203.991 138.381 204.033 138.534 204.07C138.688 204.106 138.839 204.146 138.989 204.19C139.143 204.233 139.283 204.29 139.409 204.36C139.539 204.426 139.643 204.516 139.719 204.63C139.799 204.743 139.839 204.891 139.839 205.075C139.839 205.245 139.793 205.403 139.699 205.55C139.606 205.693 139.463 205.81 139.269 205.9C139.079 205.986 138.834 206.03 138.534 206.03Z" fill="#0D0D0D"/>
<path d="M131.055 93.5426L113.008 93.4482L112.99 96.7584L131.038 96.8528L131.055 93.5426Z" fill="#FDB602"/>
<path opacity="0.1" d="M131.055 93.5426L113.008 93.4482L112.99 96.7584L131.038 96.8528L131.055 93.5426Z" fill="black"/>
<path d="M184.061 113.753C184.061 113.683 184.201 113.753 184.482 113.612C184.68 113.554 184.855 113.434 184.981 113.27C185.107 113.106 185.178 112.907 185.184 112.701V103.373C185.227 103.054 185.152 102.73 184.974 102.462C184.88 102.327 184.753 102.217 184.606 102.144C184.459 102.07 184.295 102.035 184.131 102.041H172.895L114.187 101.76C114.034 101.766 113.885 101.807 113.751 101.88C113.617 101.953 113.502 102.056 113.415 102.181C113.236 102.45 113.161 102.773 113.204 103.093V109.475C113.145 110.151 113.122 110.83 113.134 111.509C113.204 111.859 113.134 112.28 113.204 112.49C113.233 112.636 113.301 112.771 113.4 112.881C113.498 112.992 113.625 113.075 113.766 113.122H133.358L159.763 113.262L177.53 113.402H114.187L113.625 113.262C113.433 113.203 113.26 113.094 113.124 112.946C112.988 112.798 112.894 112.617 112.853 112.42C112.799 112.238 112.775 112.049 112.782 111.859V109.264C112.782 107.862 112.853 106.459 112.853 104.986V102.321C112.879 102.121 112.951 101.929 113.063 101.76C113.198 101.59 113.368 101.451 113.562 101.354C113.757 101.257 113.97 101.204 114.187 101.199L172.895 101.55H184.131C184.322 101.547 184.511 101.59 184.682 101.676C184.853 101.761 185.001 101.886 185.114 102.041C185.277 102.366 185.35 102.73 185.325 103.093V107.581C185.254 109.685 185.254 111.298 185.254 112.42C185.222 112.637 185.134 112.841 184.998 113.013C184.863 113.185 184.685 113.319 184.482 113.402L184.061 113.753Z" fill="#E0E0E0"/>
<path d="M151.539 105.393H118.533V108.485H151.539V105.393Z" fill="#FDB602"/>
<path opacity="0.2" d="M151.539 105.393H118.533V108.485H151.539V105.393Z" fill="white"/>
<path d="M130.897 123.768L112.85 123.674L112.832 126.984L130.88 127.078L130.897 123.768Z" fill="#FDB602"/>
<path opacity="0.1" d="M130.897 123.768L112.85 123.674L112.832 126.984L130.88 127.078L130.897 123.768Z" fill="black"/>
<path d="M184.061 143.909C184.248 143.847 184.419 143.746 184.564 143.613C184.71 143.48 184.825 143.318 184.904 143.137C185.025 142.85 185.073 142.537 185.044 142.226V133.81C185.048 133.494 184.976 133.181 184.833 132.898C184.662 132.601 184.387 132.376 184.061 132.267H172.895L114.328 132.057C114.015 132.055 113.714 132.168 113.48 132.376C113.247 132.583 113.098 132.869 113.064 133.179V141.595C113.028 141.921 113.028 142.25 113.064 142.576C113.164 142.868 113.363 143.116 113.626 143.278C113.879 143.431 114.173 143.504 114.468 143.488H133.078L159.342 143.699L177.109 143.839H114.468C114.097 143.855 113.729 143.757 113.415 143.558C113.088 143.338 112.842 143.018 112.713 142.647C112.642 142.226 112.713 141.945 112.642 141.595C112.572 141.244 112.642 140.192 112.713 139.491V133.179C112.764 132.77 112.964 132.394 113.275 132.123C113.586 131.851 113.985 131.703 114.398 131.706L172.895 132.057H183.008C183.383 132.013 183.764 132.037 184.131 132.127C184.307 132.169 184.473 132.247 184.617 132.356C184.762 132.464 184.884 132.601 184.974 132.758C185.174 133.07 185.249 133.445 185.184 133.81V138.298C185.184 139.28 185.184 140.262 185.114 141.034V142.156C185.15 142.467 185.101 142.781 184.974 143.067C184.901 143.271 184.78 143.454 184.621 143.601C184.462 143.747 184.27 143.853 184.061 143.909Z" fill="#E0E0E0"/>
<path d="M130.731 155.256L112.684 155.162L112.666 158.472L130.714 158.567L130.731 155.256Z" fill="#FDB602"/>
<path opacity="0.1" d="M130.731 155.256L112.684 155.162L112.666 158.472L130.714 158.567L130.731 155.256Z" fill="black"/>
<path d="M183.498 175.398H183.92C184.106 175.336 184.278 175.235 184.423 175.102C184.568 174.969 184.684 174.807 184.762 174.627C184.884 174.339 184.932 174.026 184.903 173.715V165.299C184.945 164.98 184.87 164.656 184.692 164.387C184.617 164.24 184.507 164.112 184.373 164.014C184.239 163.917 184.084 163.852 183.92 163.826C183.577 163.731 183.219 163.707 182.866 163.756H172.754L114.257 163.546C113.936 163.542 113.626 163.653 113.381 163.859C113.136 164.065 112.973 164.352 112.922 164.668V173.084C112.887 173.41 112.887 173.739 112.922 174.065C112.963 174.215 113.033 174.354 113.13 174.475C113.227 174.595 113.347 174.695 113.484 174.767C113.738 174.92 114.031 174.993 114.327 174.977H117.417L132.936 175.117L159.271 175.258L176.967 175.398H159.271L132.936 175.258H114.327C114.142 175.283 113.953 175.272 113.772 175.224C113.591 175.176 113.422 175.092 113.274 174.977C112.947 174.757 112.701 174.437 112.571 174.065C112.536 173.716 112.536 173.363 112.571 173.014V164.598C112.623 164.189 112.823 163.813 113.134 163.541C113.444 163.27 113.844 163.122 114.257 163.125L172.754 163.476H182.866C183.242 163.429 183.623 163.452 183.99 163.546C184.176 163.587 184.35 163.672 184.497 163.794C184.643 163.916 184.758 164.071 184.833 164.247C185.022 164.539 185.119 164.881 185.113 165.229C185.113 165.58 185.043 165.93 185.043 166.211V172.452C185.043 172.873 184.973 173.224 184.973 173.575C185.009 173.886 184.96 174.2 184.833 174.486C184.76 174.69 184.639 174.873 184.48 175.02C184.321 175.166 184.129 175.272 183.92 175.328C183.792 175.399 183.643 175.424 183.498 175.398Z" fill="#E0E0E0"/>
<path d="M150.702 136.565L117.697 136.393L117.681 139.485L150.686 139.658L150.702 136.565Z" fill="#FDB602"/>
<path opacity="0.2" d="M150.702 136.565L117.697 136.393L117.681 139.485L150.686 139.658L150.702 136.565Z" fill="white"/>
<path d="M120.787 169.718C120.797 169.917 120.766 170.116 120.696 170.303C120.626 170.49 120.519 170.66 120.381 170.805C120.243 170.949 120.077 171.064 119.894 171.142C119.71 171.221 119.512 171.261 119.312 171.261C118.928 171.225 118.57 171.048 118.31 170.762C118.05 170.476 117.906 170.104 117.908 169.718C117.899 169.524 117.927 169.331 117.993 169.149C118.058 168.966 118.159 168.799 118.29 168.655C118.42 168.512 118.578 168.396 118.753 168.313C118.929 168.231 119.119 168.184 119.312 168.175C119.512 168.175 119.71 168.215 119.894 168.293C120.077 168.372 120.243 168.486 120.381 168.631C120.519 168.775 120.626 168.946 120.696 169.133C120.766 169.319 120.797 169.518 120.787 169.718Z" fill="#FDB602"/>
<path d="M125.282 169.718C125.268 170.006 125.17 170.283 125 170.516C124.83 170.749 124.595 170.927 124.324 171.027C124.054 171.128 123.76 171.147 123.479 171.083C123.197 171.018 122.941 170.873 122.742 170.664C122.543 170.456 122.409 170.194 122.358 169.91C122.306 169.626 122.339 169.334 122.453 169.069C122.566 168.804 122.755 168.578 122.995 168.419C123.236 168.26 123.518 168.175 123.807 168.175C124.204 168.193 124.58 168.363 124.854 168.651C125.129 168.938 125.282 169.32 125.282 169.718Z" fill="#FDB602"/>
<path d="M129.706 169.717C129.691 170.008 129.591 170.288 129.418 170.522C129.244 170.756 129.005 170.933 128.731 171.032C128.456 171.13 128.159 171.145 127.876 171.075C127.593 171.004 127.337 170.852 127.141 170.636C126.945 170.421 126.817 170.152 126.774 169.864C126.731 169.576 126.774 169.282 126.898 169.019C127.022 168.755 127.222 168.534 127.471 168.384C127.721 168.234 128.01 168.161 128.301 168.174C128.495 168.183 128.685 168.231 128.86 168.313C129.036 168.395 129.193 168.512 129.324 168.655C129.454 168.798 129.555 168.966 129.621 169.148C129.686 169.33 129.715 169.524 129.706 169.717Z" fill="#FDB602"/>
<path d="M134.2 169.788C134.185 170.078 134.085 170.359 133.912 170.592C133.738 170.826 133.499 171.004 133.225 171.102C132.95 171.2 132.653 171.215 132.37 171.145C132.087 171.075 131.832 170.922 131.635 170.707C131.439 170.491 131.312 170.223 131.268 169.935C131.225 169.647 131.268 169.352 131.392 169.089C131.516 168.826 131.716 168.605 131.966 168.454C132.215 168.304 132.504 168.231 132.795 168.245C132.989 168.254 133.179 168.301 133.354 168.383C133.53 168.466 133.687 168.582 133.818 168.725C133.948 168.869 134.049 169.036 134.115 169.218C134.18 169.401 134.209 169.594 134.2 169.788Z" fill="#FDB602"/>
<path d="M138.695 169.787C138.696 170.185 138.543 170.567 138.268 170.854C137.993 171.142 137.618 171.312 137.221 171.33C136.912 171.344 136.607 171.266 136.344 171.105C136.081 170.944 135.872 170.708 135.744 170.428C135.616 170.148 135.576 169.835 135.627 169.532C135.679 169.228 135.82 168.946 136.033 168.724C136.246 168.501 136.521 168.347 136.822 168.281C137.124 168.216 137.438 168.242 137.724 168.356C138.011 168.471 138.256 168.668 138.429 168.923C138.602 169.178 138.695 169.479 138.695 169.787Z" fill="#FDB602"/>
<path d="M143.119 169.787C143.167 170.002 143.166 170.226 143.116 170.44C143.066 170.655 142.968 170.856 142.83 171.028C142.692 171.2 142.517 171.339 142.318 171.434C142.119 171.53 141.901 171.579 141.68 171.579C141.459 171.579 141.241 171.53 141.042 171.434C140.843 171.339 140.668 171.2 140.529 171.028C140.391 170.856 140.294 170.655 140.243 170.44C140.193 170.226 140.192 170.002 140.24 169.787C140.24 169.39 140.393 169.008 140.668 168.72C140.942 168.433 141.317 168.262 141.715 168.244C141.909 168.253 142.099 168.3 142.274 168.383C142.45 168.465 142.607 168.581 142.738 168.725C142.868 168.868 142.969 169.036 143.034 169.218C143.1 169.4 143.129 169.594 143.119 169.787Z" fill="#FDB602"/>
<path d="M147.613 169.787C147.623 169.981 147.594 170.174 147.528 170.357C147.463 170.539 147.362 170.707 147.232 170.85C147.101 170.993 146.944 171.109 146.768 171.192C146.593 171.274 146.403 171.321 146.209 171.33C145.899 171.359 145.588 171.293 145.316 171.141C145.044 170.99 144.824 170.76 144.685 170.482C144.547 170.203 144.495 169.89 144.538 169.582C144.581 169.274 144.716 168.986 144.925 168.756C145.135 168.526 145.409 168.364 145.712 168.293C146.014 168.221 146.332 168.242 146.622 168.354C146.913 168.465 147.163 168.662 147.34 168.918C147.517 169.173 147.612 169.477 147.613 169.787Z" fill="#FDB602"/>
<path d="M152.108 169.857C152.156 170.073 152.154 170.296 152.104 170.511C152.054 170.725 151.957 170.926 151.818 171.098C151.68 171.27 151.505 171.409 151.306 171.505C151.107 171.6 150.889 171.65 150.668 171.65C150.447 171.65 150.229 171.6 150.03 171.505C149.831 171.409 149.656 171.27 149.518 171.098C149.38 170.926 149.282 170.725 149.232 170.511C149.182 170.296 149.181 170.073 149.228 169.857C149.219 169.664 149.248 169.47 149.313 169.288C149.379 169.106 149.48 168.938 149.61 168.795C149.741 168.652 149.898 168.535 150.074 168.453C150.249 168.371 150.439 168.323 150.633 168.314C150.833 168.314 151.03 168.355 151.214 168.433C151.398 168.511 151.563 168.626 151.701 168.77C151.839 168.915 151.946 169.085 152.016 169.272C152.086 169.459 152.117 169.658 152.108 169.857Z" fill="#FDB602"/>
<path d="M156.602 169.858C156.602 170.255 156.449 170.637 156.174 170.925C155.9 171.212 155.525 171.382 155.127 171.401C154.933 171.392 154.743 171.344 154.568 171.262C154.392 171.18 154.235 171.063 154.104 170.92C153.974 170.777 153.873 170.609 153.808 170.427C153.742 170.245 153.713 170.051 153.723 169.858C153.675 169.642 153.676 169.419 153.726 169.204C153.776 168.989 153.874 168.789 154.012 168.617C154.15 168.445 154.325 168.306 154.524 168.21C154.723 168.115 154.941 168.065 155.162 168.065C155.383 168.065 155.601 168.115 155.8 168.21C155.999 168.306 156.174 168.445 156.313 168.617C156.451 168.789 156.548 168.989 156.599 169.204C156.649 169.419 156.65 169.642 156.602 169.858Z" fill="#FDB602"/>
<g opacity="0.2">
<path d="M120.787 169.718C120.797 169.917 120.766 170.116 120.696 170.303C120.626 170.49 120.519 170.66 120.381 170.805C120.243 170.949 120.077 171.064 119.894 171.142C119.71 171.221 119.512 171.261 119.312 171.261C118.928 171.225 118.57 171.048 118.31 170.762C118.05 170.476 117.906 170.104 117.908 169.718C117.899 169.524 117.927 169.331 117.993 169.149C118.058 168.966 118.159 168.799 118.29 168.655C118.42 168.512 118.578 168.396 118.753 168.313C118.929 168.231 119.119 168.184 119.312 168.175C119.512 168.175 119.71 168.215 119.894 168.293C120.077 168.372 120.243 168.486 120.381 168.631C120.519 168.775 120.626 168.946 120.696 169.133C120.766 169.319 120.797 169.518 120.787 169.718Z" fill="white"/>
<path d="M125.282 169.718C125.268 170.006 125.17 170.283 125 170.516C124.83 170.749 124.595 170.927 124.324 171.027C124.054 171.128 123.76 171.147 123.479 171.083C123.197 171.018 122.941 170.873 122.742 170.664C122.543 170.456 122.409 170.194 122.358 169.91C122.306 169.626 122.339 169.334 122.453 169.069C122.566 168.804 122.755 168.578 122.995 168.419C123.236 168.26 123.518 168.175 123.807 168.175C124.204 168.193 124.58 168.363 124.854 168.651C125.129 168.938 125.282 169.32 125.282 169.718Z" fill="white"/>
<path d="M129.706 169.717C129.691 170.008 129.591 170.288 129.418 170.522C129.244 170.756 129.005 170.933 128.731 171.032C128.456 171.13 128.159 171.145 127.876 171.075C127.593 171.004 127.337 170.852 127.141 170.636C126.945 170.421 126.817 170.152 126.774 169.864C126.731 169.576 126.774 169.282 126.898 169.019C127.022 168.755 127.222 168.534 127.471 168.384C127.721 168.234 128.01 168.161 128.301 168.174C128.495 168.183 128.685 168.231 128.86 168.313C129.036 168.395 129.193 168.512 129.324 168.655C129.454 168.798 129.555 168.966 129.621 169.148C129.686 169.33 129.715 169.524 129.706 169.717Z" fill="white"/>
<path d="M134.2 169.788C134.185 170.078 134.085 170.359 133.912 170.592C133.738 170.826 133.499 171.004 133.225 171.102C132.95 171.2 132.653 171.215 132.37 171.145C132.087 171.075 131.832 170.922 131.635 170.707C131.439 170.491 131.312 170.223 131.268 169.935C131.225 169.647 131.268 169.352 131.392 169.089C131.516 168.826 131.716 168.605 131.966 168.454C132.215 168.304 132.504 168.231 132.795 168.245C132.989 168.254 133.179 168.301 133.354 168.383C133.53 168.466 133.687 168.582 133.818 168.725C133.948 168.869 134.049 169.036 134.115 169.218C134.18 169.401 134.209 169.594 134.2 169.788Z" fill="white"/>
<path d="M138.695 169.787C138.696 170.185 138.543 170.567 138.268 170.854C137.993 171.142 137.618 171.312 137.221 171.33C136.912 171.344 136.607 171.266 136.344 171.105C136.081 170.944 135.872 170.708 135.744 170.428C135.616 170.148 135.576 169.835 135.627 169.532C135.679 169.228 135.82 168.946 136.033 168.724C136.246 168.501 136.521 168.347 136.822 168.281C137.124 168.216 137.438 168.242 137.724 168.356C138.011 168.471 138.256 168.668 138.429 168.923C138.602 169.178 138.695 169.479 138.695 169.787Z" fill="white"/>
<path d="M143.119 169.788C143.167 170.003 143.166 170.227 143.116 170.441C143.066 170.656 142.968 170.857 142.83 171.029C142.692 171.201 142.517 171.34 142.318 171.435C142.119 171.531 141.901 171.58 141.68 171.58C141.459 171.58 141.241 171.531 141.042 171.435C140.843 171.34 140.668 171.201 140.529 171.029C140.391 170.857 140.294 170.656 140.243 170.441C140.193 170.227 140.192 170.003 140.24 169.788C140.24 169.391 140.393 169.008 140.668 168.721C140.942 168.434 141.317 168.263 141.715 168.245C141.909 168.254 142.099 168.301 142.274 168.384C142.45 168.466 142.607 168.582 142.738 168.726C142.868 168.869 142.969 169.037 143.034 169.219C143.1 169.401 143.129 169.595 143.119 169.788Z" fill="white"/>
<path d="M147.613 169.787C147.623 169.981 147.594 170.174 147.528 170.357C147.463 170.539 147.362 170.707 147.232 170.85C147.101 170.993 146.944 171.109 146.768 171.192C146.593 171.274 146.403 171.321 146.209 171.33C145.899 171.359 145.588 171.293 145.316 171.141C145.044 170.99 144.824 170.76 144.685 170.482C144.547 170.203 144.495 169.89 144.538 169.582C144.581 169.274 144.716 168.986 144.925 168.756C145.135 168.526 145.409 168.364 145.712 168.293C146.014 168.221 146.332 168.242 146.622 168.354C146.913 168.465 147.163 168.662 147.34 168.918C147.517 169.173 147.612 169.477 147.613 169.787Z" fill="white"/>
<path d="M152.108 169.857C152.156 170.073 152.154 170.296 152.104 170.511C152.054 170.725 151.957 170.926 151.818 171.098C151.68 171.27 151.505 171.409 151.306 171.505C151.107 171.6 150.889 171.65 150.668 171.65C150.447 171.65 150.229 171.6 150.03 171.505C149.831 171.409 149.656 171.27 149.518 171.098C149.38 170.926 149.282 170.725 149.232 170.511C149.182 170.296 149.181 170.073 149.228 169.857C149.219 169.664 149.248 169.47 149.313 169.288C149.379 169.106 149.48 168.938 149.61 168.795C149.741 168.652 149.898 168.535 150.074 168.453C150.249 168.371 150.439 168.323 150.633 168.314C150.833 168.314 151.03 168.355 151.214 168.433C151.398 168.511 151.563 168.626 151.701 168.77C151.839 168.915 151.946 169.085 152.016 169.272C152.086 169.459 152.117 169.658 152.108 169.857Z" fill="white"/>
<path d="M156.602 169.858C156.602 170.255 156.449 170.637 156.174 170.925C155.9 171.212 155.525 171.382 155.127 171.401C154.933 171.392 154.743 171.344 154.568 171.262C154.392 171.18 154.235 171.063 154.104 170.92C153.974 170.777 153.873 170.609 153.808 170.427C153.742 170.245 153.713 170.051 153.723 169.858C153.675 169.642 153.676 169.419 153.726 169.204C153.776 168.989 153.874 168.789 154.012 168.617C154.15 168.445 154.325 168.306 154.524 168.21C154.723 168.115 154.941 168.065 155.162 168.065C155.383 168.065 155.601 168.115 155.8 168.21C155.999 168.306 156.174 168.445 156.313 168.617C156.451 168.789 156.548 168.989 156.599 169.204C156.649 169.419 156.65 169.642 156.602 169.858Z" fill="white"/>
</g>
<path d="M150.212 68.5881C150.704 68.3984 151.125 68.0597 151.414 67.6195C151.704 67.1794 151.848 66.6598 151.828 66.1336C151.846 65.787 151.796 65.4402 151.678 65.1136C151.56 64.7871 151.378 64.4874 151.142 64.2324C150.907 63.9774 150.622 63.7722 150.305 63.6289C149.989 63.4857 149.647 63.4073 149.299 63.3984C148.955 63.3979 148.615 63.4676 148.298 63.6031C147.982 63.7387 147.697 63.9373 147.46 64.1868C147.224 64.4363 147.04 64.7314 146.922 65.0541C146.803 65.3768 146.752 65.7203 146.771 66.0634C146.724 66.6033 146.856 67.1437 147.148 67.6004C147.441 68.0571 147.876 68.4044 148.387 68.5881C144.454 69.2193 144.594 73.4973 144.594 73.4973H153.934C153.934 73.4973 154.145 69.2193 150.212 68.5881Z" fill="#FDB602"/>
<path opacity="0.1" d="M150.212 68.5881C150.704 68.3984 151.125 68.0597 151.414 67.6195C151.704 67.1794 151.848 66.6598 151.828 66.1336C151.846 65.787 151.796 65.4402 151.678 65.1136C151.56 64.7871 151.378 64.4874 151.142 64.2324C150.907 63.9774 150.622 63.7722 150.305 63.6289C149.989 63.4857 149.647 63.4073 149.299 63.3984C148.955 63.3979 148.615 63.4676 148.298 63.6031C147.982 63.7387 147.697 63.9373 147.46 64.1868C147.224 64.4363 147.04 64.7314 146.922 65.0541C146.803 65.3768 146.752 65.7203 146.771 66.0634C146.724 66.6033 146.856 67.1437 147.148 67.6004C147.441 68.0571 147.876 68.4044 148.387 68.5881C144.454 69.2193 144.594 73.4973 144.594 73.4973H153.934C153.934 73.4973 154.145 69.2193 150.212 68.5881Z" fill="black"/>
<path d="M165.275 76.4702L132.129 76.2969L132.108 80.2522L165.254 80.4255L165.275 76.4702Z" fill="#FDB602"/>
<path opacity="0.2" d="M165.275 76.4702L132.129 76.2969L132.108 80.2522L165.254 80.4255L165.275 76.4702Z" fill="white"/>
</g>
<defs>
<clipPath id="clip0_4031_18556">
<rect width="300" height="278" fill="white"/>
</clipPath>
</defs>
</svg>
