<svg width="300" height="290" viewBox="0 0 300 290" fill="none" xmlns="http://www.w3.org/2000/svg">
<g clip-path="url(#clip0_4031_18423)">
<path d="M85.8762 0H4.2832V135.338H85.8762V0Z" fill="#E0E0E0"/>
<path d="M83.1985 0H1.60547V135.338H83.1985V0Z" fill="#EBEBEB"/>
<path d="M79.7847 2.74902H5.08594V132.595H79.7847V2.74902Z" fill="#FAFAFA"/>
<path d="M65.1924 19.6465H19.2754V115.745H65.1924V19.6465Z" fill="#EBEBEB"/>
<path d="M19.3434 81.7361C19.2096 72.7512 27.2417 63.9674 36.144 62.7604C40.3609 62.157 44.8455 62.9616 48.7946 61.3523C55.8896 58.4691 58.0985 49.0818 65.1935 46.2656L65.5282 115.732H19.3434V81.7361Z" fill="#E0E0E0"/>
<path d="M265.213 81.9219L258.52 81.957L258.694 115.348L265.387 115.313L265.213 81.9219Z" fill="#E0E0E0"/>
<path d="M217.826 82.036L200.49 82.127L200.587 100.559L217.922 100.468L217.826 82.036Z" fill="#EBEBEB"/>
<path d="M235.094 81.9462L217.758 82.0371L217.854 100.469L235.19 100.379L235.094 81.9462Z" fill="#F5F5F5"/>
<path d="M200.535 87.2344C212.115 87.3015 223.627 87.2344 235.14 87.0333C235.408 87.0333 235.408 86.698 235.14 86.698C223.627 86.6309 212.048 86.698 200.535 86.8992C200.507 86.9175 200.485 86.9424 200.469 86.9717C200.454 87.0009 200.445 87.0336 200.445 87.0668C200.445 87.1 200.454 87.1327 200.469 87.1619C200.485 87.1912 200.507 87.2161 200.535 87.2344Z" fill="#E0E0E0"/>
<path d="M221.2 100.19L189.674 100.355L189.752 115.375L221.278 115.21L221.2 100.19Z" fill="#EBEBEB"/>
<path d="M252.59 99.9577L221.064 100.123L221.143 115.142L252.669 114.977L252.59 99.9577Z" fill="#F5F5F5"/>
<path d="M189.758 104.534C210.642 104.735 231.659 104.534 252.609 104.199C252.663 104.199 252.714 104.178 252.751 104.14C252.789 104.102 252.81 104.051 252.81 103.998C252.81 103.944 252.789 103.893 252.751 103.855C252.714 103.818 252.663 103.796 252.609 103.796C231.659 103.729 210.642 103.729 189.758 104.199C189.557 104.199 189.557 104.467 189.758 104.534Z" fill="#E0E0E0"/>
<path d="M299.999 115.329H177.91V120.713H299.999V115.329Z" fill="#E0E0E0"/>
<path d="M202.877 117.944H197.924V136.31H202.877V117.944Z" fill="#E0E0E0"/>
<path d="M276.84 117.944H271.887V136.31H276.84V117.944Z" fill="#E0E0E0"/>
<path d="M271.709 69.5499L265.016 69.585L265.256 115.508L271.949 115.473L271.709 69.5499Z" fill="#EBEBEB"/>
<path d="M282.262 78.078L271.82 78.1328L272.015 115.346L282.456 115.291L282.262 78.078Z" fill="#F5F5F5"/>
<path d="M282.194 85.2226C282.194 85.2897 279.851 85.3567 276.973 85.3567C274.095 85.3567 271.752 85.2897 271.752 85.2226C271.752 85.1556 274.095 85.0215 276.973 85.0215C279.851 85.0215 282.194 85.0885 282.194 85.2226Z" fill="#E0E0E0"/>
<path d="M282.194 83.6136C282.194 83.7477 279.851 83.8148 276.973 83.8148C274.095 83.8148 271.752 83.7477 271.752 83.6136C271.752 83.4795 274.095 83.4795 276.973 83.4795C279.851 83.4795 282.194 83.5465 282.194 83.6136Z" fill="#E0E0E0"/>
<path d="M282.194 109.63C282.194 109.764 279.851 109.831 276.973 109.831C274.095 109.831 271.752 109.764 271.752 109.63C271.752 109.496 274.095 109.496 276.973 109.496C279.851 109.496 282.194 109.563 282.194 109.63Z" fill="#E0E0E0"/>
<path d="M282.194 108.088C282.194 108.222 279.851 108.289 276.973 108.289C274.095 108.289 271.752 108.222 271.752 108.088C275.227 107.82 278.718 107.82 282.194 108.088Z" fill="#E0E0E0"/>
<path d="M277.173 104.668C277.04 104.668 276.973 100.913 276.973 96.2868C276.973 91.6602 277.04 87.9053 277.173 87.9053C277.307 87.9053 277.307 91.6602 277.307 96.2868C277.307 100.913 277.24 104.668 277.173 104.668Z" fill="#E0E0E0"/>
<path d="M293.574 87.168H282.262V115.256H293.574V87.168Z" fill="#EBEBEB"/>
<path d="M270.281 77.3107C270.281 77.8264 270.076 78.321 269.712 78.6857C269.348 79.0504 268.854 79.2552 268.34 79.2552C267.825 79.2552 267.331 79.0504 266.967 78.6857C266.603 78.321 266.398 77.8264 266.398 77.3107C266.398 76.795 266.603 76.3004 266.967 75.9357C267.331 75.5711 267.825 75.3662 268.34 75.3662C268.854 75.3662 269.348 75.5711 269.712 75.9357C270.076 76.3004 270.281 76.795 270.281 77.3107Z" fill="#E0E0E0"/>
<path d="M268.941 82.6084H267.736V109.925H268.941V82.6084Z" fill="#E0E0E0"/>
<path d="M210.107 286.379H117.403C112.054 286.361 106.929 284.22 103.153 280.424C99.3763 276.629 97.2558 271.488 97.2559 266.129V33.3916C97.2559 28.0389 99.3785 22.9053 103.157 19.1203C106.935 15.3354 112.06 13.209 117.403 13.209H210.174C215.518 13.209 220.642 15.3354 224.42 19.1203C228.199 22.9053 230.321 28.0389 230.321 33.3916V266.196C230.33 268.855 229.813 271.489 228.8 273.946C227.786 276.403 226.296 278.634 224.417 280.511C222.537 282.388 220.304 283.873 217.848 284.88C215.392 285.887 212.761 286.397 210.107 286.379Z" fill="#0D0D0D"/>
<path d="M209.84 21.5236H191.901C190.723 21.5587 189.607 22.0567 188.793 22.9099C187.979 23.7631 187.532 24.903 187.55 26.0831V29.3687C187.559 29.9587 187.452 30.5446 187.235 31.0931C187.018 31.6415 186.695 32.1417 186.284 32.5651C185.874 32.9885 185.385 33.3268 184.844 33.5607C184.303 33.7946 183.722 33.9195 183.133 33.9282H148.126C146.948 33.8931 145.832 33.3952 145.018 32.5419C144.203 31.6887 143.757 30.5488 143.775 29.3687V26.0831C143.793 25.4964 143.694 24.912 143.484 24.3639C143.275 23.8158 142.958 23.315 142.553 22.8907C142.148 22.4663 141.663 22.1269 141.126 21.8922C140.589 21.6575 140.01 21.5322 139.425 21.5236H117.403C115.543 21.5148 113.699 21.8742 111.978 22.5812C110.257 23.2883 108.692 24.329 107.373 25.6437C106.055 26.9583 105.008 28.521 104.294 30.2418C103.581 31.9627 103.213 33.808 103.213 35.6716V262.777C103.204 264.64 103.563 266.487 104.269 268.212C104.975 269.936 106.014 271.503 107.326 272.824C108.638 274.145 110.198 275.193 111.916 275.908C113.634 276.624 115.476 276.992 117.336 276.992H209.773C211.633 277.001 213.477 276.641 215.198 275.934C216.919 275.227 218.484 274.186 219.803 272.872C221.121 271.557 222.167 269.994 222.881 268.274C223.595 266.553 223.963 264.707 223.963 262.844V35.7386C223.963 31.9802 222.477 28.3746 219.83 25.7107C217.184 23.0468 213.591 21.5413 209.84 21.5236Z" fill="white"/>
<path d="M225.035 57.664C225.035 57.7311 197.725 57.8652 164.057 57.8652C130.389 57.8652 103.08 57.7311 103.08 57.664C103.08 57.597 130.322 57.4629 164.057 57.4629C197.792 57.4629 225.035 57.5299 225.035 57.664Z" fill="#0D0D0D"/>
<path d="M115.796 49.2159H115.529L112.048 46.1316C112.005 46.0938 111.971 46.0474 111.948 45.9953C111.924 45.9433 111.912 45.8869 111.912 45.8298C111.912 45.7727 111.924 45.7163 111.948 45.6643C111.971 45.6123 112.005 45.5658 112.048 45.5281L115.596 42.5778C115.667 42.5244 115.756 42.5015 115.844 42.5141C115.932 42.5267 116.011 42.5737 116.064 42.6448C116.13 42.7186 116.166 42.8141 116.166 42.9131C116.166 43.012 116.13 43.1075 116.064 43.1813L112.851 45.8633L116.064 48.6125C116.13 48.6862 116.166 48.7817 116.166 48.8807C116.166 48.9796 116.13 49.0751 116.064 49.1489C115.997 49.216 115.93 49.2159 115.796 49.2159Z" fill="#0D0D0D"/>
<path d="M192.703 45.5277C192.703 45.6618 181.191 45.7288 167.068 45.7288C152.944 45.7288 141.432 45.6618 141.432 45.5277C141.432 45.3936 152.877 45.3936 167.068 45.3936C181.258 45.3936 192.703 45.4606 192.703 45.5277Z" fill="#0D0D0D"/>
<path d="M207.564 45.5285C207.564 45.7938 207.486 46.053 207.338 46.2736C207.191 46.4941 206.982 46.666 206.738 46.7675C206.493 46.869 206.224 46.8956 205.964 46.8438C205.705 46.7921 205.466 46.6643 205.279 46.4768C205.092 46.2893 204.964 46.0503 204.912 45.7902C204.861 45.53 204.887 45.2604 204.989 45.0153C205.09 44.7703 205.262 44.5609 205.482 44.4135C205.702 44.2661 205.961 44.1875 206.225 44.1875C206.58 44.1875 206.921 44.3288 207.172 44.5803C207.423 44.8318 207.564 45.1729 207.564 45.5285Z" fill="#0D0D0D"/>
<path d="M211.379 45.5285C211.379 45.7938 211.3 46.053 211.153 46.2736C211.006 46.4941 210.797 46.666 210.552 46.7675C210.308 46.869 210.038 46.8956 209.779 46.8438C209.519 46.7921 209.28 46.6643 209.093 46.4768C208.906 46.2893 208.779 46.0503 208.727 45.7902C208.675 45.53 208.702 45.2604 208.803 45.0153C208.904 44.7703 209.076 44.5609 209.296 44.4135C209.516 44.2661 209.775 44.1875 210.04 44.1875C210.395 44.1875 210.735 44.3288 210.986 44.5803C211.238 44.8318 211.379 45.1729 211.379 45.5285Z" fill="#0D0D0D"/>
<path d="M215.261 45.5285C215.261 45.7938 215.183 46.053 215.036 46.2736C214.889 46.4941 214.68 46.666 214.435 46.7675C214.19 46.869 213.921 46.8956 213.662 46.8438C213.402 46.7921 213.163 46.6643 212.976 46.4768C212.789 46.2893 212.661 46.0503 212.61 45.7902C212.558 45.53 212.585 45.2604 212.686 45.0153C212.787 44.7703 212.959 44.5609 213.179 44.4135C213.399 44.2661 213.658 44.1875 213.923 44.1875C214.278 44.1875 214.618 44.3288 214.869 44.5803C215.12 44.8318 215.261 45.1729 215.261 45.5285Z" fill="#0D0D0D"/>
<path d="M152.478 107.551C152.478 108.423 152.143 108.959 151.54 108.959C151.393 108.966 151.247 108.923 151.126 108.838C151.005 108.754 150.915 108.631 150.871 108.49C150.774 108.632 150.645 108.749 150.493 108.831C150.342 108.913 150.173 108.956 150.001 108.959C149.664 108.959 149.34 108.825 149.102 108.586C148.863 108.347 148.729 108.023 148.729 107.685C148.729 107.347 148.863 107.023 149.102 106.784C149.34 106.545 149.664 106.411 150.001 106.411C150.302 106.412 150.591 106.532 150.804 106.746V106.411H151.34V108.154C151.338 108.233 151.364 108.309 151.413 108.37C151.462 108.432 151.531 108.474 151.607 108.49C151.875 108.49 152.076 108.154 152.076 107.551C152.078 107.304 152.027 107.06 151.927 106.834C151.827 106.608 151.681 106.406 151.497 106.241C151.314 106.076 151.098 105.952 150.863 105.878C150.628 105.803 150.38 105.779 150.135 105.807C149.864 105.755 149.585 105.764 149.317 105.833C149.05 105.901 148.801 106.028 148.588 106.204C148.375 106.381 148.204 106.602 148.087 106.852C147.969 107.102 147.908 107.375 147.908 107.651C147.908 107.928 147.969 108.201 148.087 108.451C148.204 108.701 148.375 108.922 148.588 109.098C148.801 109.275 149.05 109.402 149.317 109.47C149.585 109.539 149.864 109.547 150.135 109.495C150.458 109.494 150.777 109.425 151.072 109.294L151.206 109.697C150.866 109.835 150.502 109.903 150.135 109.898C149.828 109.916 149.521 109.871 149.232 109.764C148.944 109.657 148.681 109.491 148.461 109.276C148.24 109.062 148.067 108.803 147.952 108.518C147.837 108.232 147.782 107.926 147.792 107.618C147.782 107.31 147.837 107.004 147.952 106.718C148.067 106.432 148.24 106.174 148.461 105.96C148.681 105.745 148.944 105.579 149.232 105.472C149.521 105.365 149.828 105.319 150.135 105.338C150.436 105.32 150.738 105.363 151.021 105.466C151.305 105.569 151.565 105.729 151.784 105.937C152.004 106.144 152.178 106.394 152.298 106.672C152.417 106.949 152.478 107.249 152.478 107.551ZM150.804 107.685C150.804 107.149 150.536 106.88 150.068 106.88C149.965 106.88 149.864 106.901 149.77 106.942C149.676 106.983 149.591 107.044 149.522 107.119C149.453 107.195 149.4 107.285 149.367 107.382C149.334 107.479 149.322 107.583 149.332 107.685C149.321 107.784 149.333 107.885 149.366 107.979C149.399 108.074 149.453 108.159 149.524 108.23C149.595 108.301 149.68 108.355 149.774 108.388C149.868 108.421 149.969 108.433 150.068 108.423C150.167 108.433 150.268 108.421 150.362 108.388C150.456 108.355 150.541 108.301 150.612 108.23C150.682 108.159 150.736 108.074 150.77 107.979C150.803 107.885 150.815 107.784 150.804 107.685Z" fill="#0D0D0D"/>
<path d="M180.523 108.893C180.523 109.027 175.101 109.094 168.542 109.094C161.982 109.094 156.561 109.027 156.561 108.893C156.561 108.758 161.915 108.691 168.542 108.691C175.168 108.691 180.523 108.758 180.523 108.893Z" fill="#0D0D0D"/>
<path d="M179.519 158.443H128.783C127.859 158.443 127.109 159.194 127.109 160.12V172.33C127.109 173.256 127.859 174.006 128.783 174.006H179.519C180.443 174.006 181.192 173.256 181.192 172.33V160.12C181.192 159.194 180.443 158.443 179.519 158.443Z" fill="#FDB602"/>
<path d="M170.951 166.49C170.951 166.557 163.989 166.691 155.422 166.691C146.854 166.691 139.826 166.557 139.826 166.49C139.826 166.423 146.787 166.289 155.422 166.289C164.056 166.289 170.951 166.356 170.951 166.49Z" fill="white"/>
<path d="M199.465 158.108H187.216C186.329 158.108 185.609 158.829 185.609 159.718V172.451C185.609 173.34 186.329 174.06 187.216 174.06H199.465C200.352 174.06 201.071 173.34 201.071 172.451V159.718C201.071 158.829 200.352 158.108 199.465 158.108Z" fill="#EBEBEB"/>
<path d="M191.701 165.283H194.981L193.508 167.63L191.701 165.283Z" fill="#0D0D0D"/>
<path d="M158.033 119.017L154.552 126.996H153.147L149.666 119.017H151.272L153.883 125.185L156.56 119.017H158.033Z" fill="#FDB602"/>
<path d="M163.989 124.449H159.237C159.319 124.893 159.563 125.29 159.922 125.563C160.281 125.836 160.729 125.965 161.178 125.924C161.8 125.919 162.398 125.679 162.852 125.253L163.588 126.125C163.279 126.452 162.905 126.711 162.49 126.884C162.074 127.057 161.628 127.141 161.178 127.131C159.103 127.131 157.764 125.79 157.764 123.979C157.755 123.566 157.83 123.155 157.986 122.772C158.141 122.389 158.374 122.042 158.669 121.753C158.964 121.464 159.315 121.238 159.701 121.091C160.086 120.943 160.498 120.876 160.91 120.895C161.326 120.875 161.741 120.943 162.128 121.096C162.515 121.248 162.865 121.481 163.156 121.778C163.447 122.076 163.672 122.432 163.815 122.823C163.959 123.214 164.018 123.631 163.989 124.046V124.449ZM159.237 123.51H162.651C162.6 123.089 162.393 122.703 162.07 122.43C161.747 122.156 161.333 122.015 160.91 122.035C160.495 122.016 160.089 122.159 159.777 122.434C159.465 122.709 159.271 123.095 159.237 123.51Z" fill="#FDB602"/>
<path d="M168.875 120.895V122.236H168.54C168.297 122.224 168.054 122.266 167.829 122.358C167.603 122.45 167.401 122.591 167.235 122.769C167.069 122.948 166.944 123.161 166.869 123.393C166.794 123.625 166.771 123.871 166.8 124.113V127.063H165.395V121.029H166.733V121.9C167.135 121.163 167.871 120.895 168.875 120.895Z" fill="#FDB602"/>
<path d="M169.879 119.084C169.879 118.964 169.903 118.845 169.951 118.735C169.999 118.624 170.069 118.525 170.157 118.443C170.245 118.361 170.349 118.298 170.462 118.259C170.576 118.219 170.696 118.203 170.816 118.213C170.93 118.204 171.045 118.217 171.154 118.253C171.263 118.288 171.364 118.345 171.452 118.42C171.539 118.495 171.61 118.586 171.662 118.688C171.714 118.791 171.745 118.903 171.753 119.017C171.753 119.266 171.654 119.505 171.479 119.681C171.303 119.857 171.065 119.956 170.816 119.956C170.696 119.965 170.576 119.95 170.462 119.91C170.349 119.87 170.245 119.808 170.157 119.726C170.069 119.644 169.999 119.545 169.951 119.434C169.903 119.324 169.879 119.205 169.879 119.084ZM170.08 120.962H171.552V126.997H170.08V120.962Z" fill="#FDB602"/>
<path d="M175.769 118.481C176.215 118.479 176.654 118.595 177.041 118.816L176.64 119.889C176.406 119.719 176.125 119.625 175.836 119.621C175.234 119.621 174.966 119.956 174.966 120.627V120.962H176.64V122.102H175.033V126.997H173.561V122.102H172.557V120.962H173.561V120.627C173.54 120.334 173.583 120.039 173.687 119.765C173.792 119.491 173.955 119.242 174.166 119.038C174.376 118.833 174.629 118.677 174.906 118.581C175.183 118.485 175.478 118.451 175.769 118.481ZM178.313 119.084C178.313 118.853 178.405 118.632 178.568 118.468C178.731 118.305 178.952 118.213 179.183 118.213C179.297 118.204 179.412 118.217 179.522 118.253C179.631 118.288 179.732 118.345 179.819 118.42C179.906 118.495 179.977 118.586 180.029 118.688C180.081 118.791 180.112 118.903 180.12 119.017C180.12 119.266 180.022 119.505 179.846 119.681C179.67 119.857 179.432 119.956 179.183 119.956C178.952 119.956 178.731 119.864 178.568 119.701C178.405 119.537 178.313 119.316 178.313 119.084ZM178.514 120.962H179.919V126.997H178.514V120.962Z" fill="#FDB602"/>
<path d="M187.484 124.449H182.731C182.813 124.893 183.057 125.29 183.416 125.563C183.775 125.836 184.223 125.965 184.672 125.924C185.294 125.919 185.892 125.679 186.346 125.253L187.082 126.125C186.773 126.452 186.399 126.711 185.984 126.884C185.569 127.057 185.122 127.141 184.672 127.131C182.597 127.131 181.259 125.79 181.259 123.979C181.249 123.566 181.324 123.155 181.48 122.772C181.636 122.389 181.868 122.042 182.163 121.753C182.458 121.464 182.809 121.238 183.195 121.091C183.58 120.943 183.992 120.876 184.405 120.895C184.82 120.875 185.235 120.943 185.622 121.096C186.009 121.248 186.359 121.481 186.65 121.778C186.941 122.076 187.166 122.432 187.309 122.823C187.453 123.214 187.512 123.631 187.484 124.046V124.449ZM182.664 123.51H186.145C186.095 123.089 185.887 122.703 185.564 122.43C185.241 122.156 184.827 122.015 184.405 122.035C183.986 122.03 183.579 122.176 183.26 122.447C182.94 122.718 182.729 123.096 182.664 123.51Z" fill="#FDB602"/>
<path d="M194.845 118.548V126.996H193.44V126.259C193.185 126.538 192.875 126.759 192.529 126.91C192.183 127.06 191.809 127.135 191.432 127.131C191.019 127.14 190.609 127.065 190.227 126.909C189.844 126.753 189.498 126.52 189.209 126.224C188.92 125.929 188.695 125.577 188.548 125.191C188.401 124.805 188.334 124.392 188.353 123.979C188.334 123.569 188.4 123.159 188.548 122.776C188.696 122.394 188.922 122.046 189.212 121.756C189.502 121.465 189.849 121.239 190.231 121.091C190.614 120.942 191.022 120.876 191.432 120.895C191.794 120.878 192.156 120.942 192.492 121.081C192.827 121.22 193.128 121.431 193.373 121.699V118.548H194.845ZM193.44 123.979C193.449 123.736 193.409 123.493 193.322 123.266C193.235 123.038 193.103 122.831 192.935 122.655C192.766 122.48 192.564 122.341 192.34 122.246C192.116 122.15 191.876 122.101 191.633 122.102C191.136 122.102 190.659 122.299 190.307 122.652C189.956 123.004 189.758 123.481 189.758 123.979C189.758 124.477 189.956 124.955 190.307 125.307C190.659 125.659 191.136 125.857 191.633 125.857C191.876 125.857 192.116 125.808 192.34 125.713C192.564 125.617 192.766 125.478 192.935 125.303C193.103 125.127 193.235 124.92 193.322 124.692C193.409 124.465 193.449 124.222 193.44 123.979Z" fill="#FDB602"/>
<path d="M138.354 129.008C141.792 129.008 144.579 126.216 144.579 122.772C144.579 119.328 141.792 116.536 138.354 116.536C134.916 116.536 132.129 119.328 132.129 122.772C132.129 126.216 134.916 129.008 138.354 129.008Z" fill="#FDB602"/>
<path d="M135.543 122.906L136.346 122.102L137.886 123.443L140.965 120.56L141.701 121.364L137.819 124.985L135.543 122.906Z" fill="white"/>
<path d="M165.528 102.656C175.029 102.656 182.73 94.941 182.73 85.4238C182.73 75.9066 175.029 68.1914 165.528 68.1914C156.028 68.1914 148.326 75.9066 148.326 85.4238C148.326 94.941 156.028 102.656 165.528 102.656Z" fill="#F5F5F5"/>
<path d="M176.707 98.4993C176.406 95.7795 175.097 93.2717 173.04 91.4715C170.983 89.6713 168.326 88.7097 165.595 88.7767C159.438 88.7767 155.288 93.4033 154.484 98.5663C154.484 98.5663 158.233 102.724 165.595 102.656C172.958 102.589 176.707 98.4993 176.707 98.4993Z" fill="#E0E0E0"/>
<path d="M172.283 84.2782C172.88 80.5861 170.376 77.1083 166.691 76.5103C163.005 75.9124 159.533 78.4206 158.936 82.1127C158.339 85.8048 160.843 89.2826 164.529 89.8806C168.215 90.4786 171.686 87.9703 172.283 84.2782Z" fill="#E0E0E0"/>
<path d="M176.574 97.9632C176.394 96.8477 176.056 95.7638 175.57 94.7447C174.929 93.6195 174.09 92.6199 173.093 91.7944C171.833 90.6697 170.351 89.8243 168.742 89.3134L168.408 89.1793L168.675 88.9782C169.83 88.3918 170.767 87.4524 171.353 86.2961C172.043 85.0518 172.302 83.6134 172.089 82.2059C171.862 80.6483 171.079 79.2259 169.885 78.2025C168.692 77.1791 167.168 76.6242 165.596 76.6406C164.037 76.6404 162.529 77.2026 161.349 78.2246C160.169 79.2465 159.396 80.6598 159.171 82.2059C158.911 83.6058 159.147 85.0527 159.84 86.2961C160.164 86.8695 160.546 87.4087 160.978 87.9054L162.517 89.0452L162.785 89.1793L162.45 89.3134C161.016 89.7166 159.681 90.4134 158.528 91.3598C157.376 92.3061 156.433 93.4815 155.757 94.8117C155.395 95.5652 155.104 96.3509 154.887 97.1585C154.81 97.3561 154.743 97.5575 154.686 97.762C154.696 97.8565 154.672 97.9515 154.619 98.0302V97.762C154.678 97.5643 154.723 97.3627 154.753 97.1585C154.957 96.3252 155.248 95.516 155.623 94.7447C156.183 93.5439 156.954 92.4538 157.899 91.5262C159.156 90.3124 160.698 89.436 162.384 88.9782V89.2464C161.814 88.9501 161.294 88.5654 160.844 88.1065C160.332 87.6206 159.903 87.0545 159.572 86.4302C158.843 85.0589 158.592 83.4829 158.859 81.9523C159.126 80.4218 159.895 79.0243 161.045 77.9817C162.335 76.8807 163.968 76.2643 165.663 76.2383C167.376 76.2339 169.027 76.8809 170.282 78.0487C171.506 79.1135 172.292 80.5944 172.491 82.2059C172.723 83.6786 172.465 85.187 171.754 86.4973C171.08 87.6899 170.082 88.6665 168.876 89.3134V88.9782C170.51 89.5858 172.027 90.4704 173.361 91.5932C174.365 92.447 175.184 93.4964 175.77 94.6776L176.306 96.0187C176.44 96.421 176.507 96.7562 176.574 97.0244C176.641 97.2926 176.641 97.5608 176.641 97.695L176.574 97.9632Z" fill="#0D0D0D"/>
<path d="M182.731 85.4907V85.1554C182.669 84.892 182.647 84.6208 182.664 84.3508V83.7473C182.664 83.5462 182.597 83.278 182.597 83.0768C182.597 82.8756 182.397 81.9369 182.196 81.2664C181.203 77.5218 178.988 74.2175 175.904 71.8791C173.815 70.2487 171.354 69.1655 168.742 68.7277C165.763 68.1471 162.683 68.4024 159.84 69.4652C159.076 69.7085 158.336 70.0227 157.631 70.404L155.489 71.745L153.615 73.4213C153.003 74.0209 152.443 74.6714 151.941 75.3658C150.882 76.7951 150.047 78.3778 149.465 80.0595C148.937 81.8236 148.645 83.6498 148.595 85.4907C148.65 87.3091 148.942 89.1125 149.465 90.8548C150.047 92.5364 150.882 94.1192 151.941 95.5485C152.443 96.2429 153.003 96.8934 153.615 97.493C154.19 98.1047 154.817 98.6655 155.489 99.1693C156.178 99.6551 156.893 100.103 157.631 100.51C158.336 100.892 159.076 101.206 159.84 101.449C162.684 102.498 165.756 102.776 168.742 102.254C171.349 101.762 173.804 100.659 175.904 99.0352C177.643 97.7325 179.1 96.0902 180.188 94.2074C181.056 92.7919 181.71 91.2554 182.129 89.6479C182.33 88.9774 182.397 88.3739 182.53 87.9045C182.664 87.4352 182.597 87.3681 182.597 87.167V86.5635C182.58 86.2935 182.603 86.0223 182.664 85.7589V87.167C182.597 87.3681 182.597 87.6363 182.53 87.9045C182.472 88.5167 182.36 89.1224 182.196 89.715C181.824 91.3482 181.191 92.9105 180.322 94.3415C179.217 96.2515 177.737 97.9168 175.971 99.2363C173.857 100.935 171.346 102.066 168.675 102.522C165.632 103.137 162.477 102.882 159.572 101.784C158.786 101.541 158.025 101.227 157.296 100.846C156.557 100.415 155.842 99.9453 155.154 99.4375C154.461 98.9347 153.812 98.374 153.213 97.7612C151.588 96.1617 150.3 94.2513 149.426 92.1434C148.552 90.0355 148.11 87.7731 148.126 85.4907C148.104 83.6219 148.399 81.7629 148.996 79.9924C149.563 78.2626 150.399 76.6333 151.473 75.1647C152.017 74.4637 152.598 73.7922 153.213 73.1531C153.812 72.5403 154.461 71.9796 155.154 71.4768C155.827 70.9675 156.544 70.5187 157.296 70.1358C158.023 69.7328 158.785 69.3962 159.572 69.13C162.485 68.067 165.63 67.8121 168.675 68.3924C171.329 68.9052 173.827 70.0301 175.971 71.678C177.756 73.004 179.239 74.6954 180.322 76.6398C181.202 78.0653 181.835 79.6295 182.196 81.2664C182.359 81.8362 182.471 82.4197 182.53 83.0097C182.597 83.278 182.597 83.5462 182.664 83.7473V85.4907H182.731Z" fill="#0D0D0D"/>
<path d="M158.635 187.745H113.119V188.416H158.635V187.745Z" fill="#EBEBEB"/>
<path d="M205.489 189.757H181.393V190.427H205.489V189.757Z" fill="#EBEBEB"/>
<path d="M158.635 191.769H113.119V192.439H158.635V191.769Z" fill="#EBEBEB"/>
<path d="M205.489 193.78H181.393V194.451H205.489V193.78Z" fill="#EBEBEB"/>
<path d="M158.635 195.791H113.119V196.462H158.635V195.791Z" fill="#EBEBEB"/>
<path d="M205.489 207.19H181.393V207.861H205.489V207.19Z" fill="#EBEBEB"/>
<path d="M205.489 223.283H181.393V223.954H205.489V223.283Z" fill="#EBEBEB"/>
<path d="M158.635 199.814H113.119V200.485H158.635V199.814Z" fill="#EBEBEB"/>
<path d="M205.489 211.214H181.393V211.884H205.489V211.214Z" fill="#EBEBEB"/>
<path d="M205.489 227.306H181.393V227.976H205.489V227.306Z" fill="#EBEBEB"/>
<path d="M158.635 203.838H113.119V204.508H158.635V203.838Z" fill="#EBEBEB"/>
<path d="M158.635 207.861H113.119V208.532H158.635V207.861Z" fill="#EBEBEB"/>
<path d="M158.635 211.884H113.119V212.554H158.635V211.884Z" fill="#EBEBEB"/>
<path d="M158.635 215.907H113.119V216.578H158.635V215.907Z" fill="#EBEBEB"/>
<path d="M158.635 219.931H113.119V220.601H158.635V219.931Z" fill="#EBEBEB"/>
<path d="M158.635 223.953H113.119V224.624H158.635V223.953Z" fill="#EBEBEB"/>
<path d="M158.635 227.977H113.119V228.647H158.635V227.977Z" fill="#EBEBEB"/>
<path d="M158.635 232H113.119V232.671H158.635V232Z" fill="#EBEBEB"/>
<path d="M158.635 236.022H113.119V236.693H158.635V236.022Z" fill="#EBEBEB"/>
<path d="M158.635 240.046H113.119V240.716H158.635V240.046Z" fill="#EBEBEB"/>
<path d="M158.635 244.069H113.119V244.74H158.635V244.069Z" fill="#EBEBEB"/>
<path d="M158.635 248.092H113.119V248.762H158.635V248.092Z" fill="#EBEBEB"/>
<path d="M158.635 252.115H113.119V252.786H158.635V252.115Z" fill="#EBEBEB"/>
<path d="M158.635 256.139H113.119V256.809H158.635V256.139Z" fill="#EBEBEB"/>
<path d="M158.635 260.161H113.119V260.832H158.635V260.161Z" fill="#EBEBEB"/>
<path d="M158.635 264.185H113.119V264.855H158.635V264.185Z" fill="#EBEBEB"/>
<path d="M174.657 193.403C174.661 194.546 174.305 195.663 173.64 196.594C173.126 197.35 172.432 197.967 171.62 198.389C170.808 198.811 169.903 199.025 168.988 199.012C168.244 199.025 167.505 198.889 166.814 198.612C166.124 198.335 165.496 197.923 164.967 197.401C164.439 196.878 164.021 196.255 163.738 195.568C163.454 194.881 163.312 194.145 163.319 193.403C163.33 192.164 163.748 190.964 164.509 189.985C165.269 189.007 166.331 188.305 167.53 187.986C168.729 187.668 170 187.751 171.148 188.223C172.295 188.694 173.256 189.529 173.882 190.598C174.385 191.448 174.653 192.416 174.657 193.403Z" fill="#262626"/>
<path d="M174.659 193.403C174.663 194.547 174.307 195.663 173.641 196.594C173.127 197.35 172.433 197.967 171.621 198.389C170.809 198.811 169.905 199.025 168.989 199.012C167.647 199.018 166.344 198.556 165.307 197.706L168.989 193.403V187.745C169.984 187.75 170.96 188.017 171.819 188.517C172.678 189.018 173.39 189.736 173.883 190.598C174.387 191.448 174.654 192.416 174.659 193.403Z" fill="#FDB602"/>
<path d="M172.895 193.886C173.159 191.739 171.629 189.785 169.477 189.522C167.326 189.258 165.368 190.785 165.103 192.932C164.839 195.079 166.369 197.033 168.521 197.297C170.672 197.56 172.631 196.033 172.895 193.886Z" fill="white"/>
<path d="M170.637 192.532H167.391V192.992H170.637V192.532Z" fill="#0D0D0D"/>
<path d="M180.722 108.624H155.287V109.295H180.722V108.624Z" fill="#0D0D0D"/>
<path d="M170.682 142.82H159.303V143.491H170.682V142.82Z" fill="#0D0D0D"/>
<path d="M137.215 142.82H125.836V143.491H137.215V142.82Z" fill="#0D0D0D"/>
<path d="M200.803 142.82H189.424V143.491H200.803V142.82Z" fill="#0D0D0D"/>
<path d="M174.698 150.196H154.617V150.867H174.698V150.196Z" fill="#0D0D0D"/>
<path d="M141.231 150.196H121.15V150.867H141.231V150.196Z" fill="#0D0D0D"/>
<path d="M204.819 150.196H184.738V150.867H204.819V150.196Z" fill="#0D0D0D"/>
<path d="M171.412 193.789H166.566V194.248H171.412V193.789Z" fill="#A6A6A6"/>
<path d="M174.659 210.165C174.663 211.309 174.307 212.425 173.642 213.357C173.128 214.113 172.434 214.73 171.622 215.152C170.81 215.574 169.905 215.788 168.99 215.774C168.246 215.787 167.507 215.651 166.816 215.375C166.126 215.098 165.498 214.686 164.969 214.163C164.441 213.641 164.023 213.017 163.74 212.331C163.456 211.644 163.314 210.908 163.321 210.165C163.332 208.927 163.75 207.726 164.51 206.748C165.271 205.77 166.333 205.067 167.532 204.749C168.731 204.43 170.002 204.513 171.15 204.985C172.297 205.457 173.258 206.292 173.884 207.361C174.387 208.21 174.655 209.178 174.659 210.165Z" fill="#262626"/>
<path d="M174.659 210.165C174.663 211.309 174.307 212.425 173.641 213.357C173.127 214.113 172.433 214.73 171.621 215.152C170.809 215.574 169.905 215.788 168.989 215.774C167.647 215.78 166.344 215.319 165.307 214.469L168.989 210.165V204.508C169.984 204.513 170.96 204.779 171.819 205.28C172.678 205.781 173.39 206.498 173.883 207.361C174.387 208.21 174.654 209.178 174.659 210.165Z" fill="#FDB602"/>
<path d="M172.897 210.648C173.161 208.501 171.631 206.547 169.479 206.283C167.328 206.02 165.369 207.546 165.105 209.694C164.841 211.841 166.371 213.795 168.523 214.058C170.674 214.322 172.633 212.795 172.897 210.648Z" fill="white"/>
<path d="M170.637 209.294H167.391V209.753H170.637V209.294Z" fill="#0D0D0D"/>
<path d="M171.414 210.552H166.568V211.011H171.414V210.552Z" fill="#A6A6A6"/>
<path d="M174.659 225.588C174.663 226.732 174.307 227.848 173.642 228.78C173.128 229.536 172.434 230.152 171.622 230.574C170.81 230.997 169.905 231.211 168.99 231.197C168.246 231.21 167.507 231.074 166.816 230.798C166.126 230.521 165.498 230.109 164.969 229.586C164.441 229.063 164.023 228.44 163.74 227.754C163.456 227.067 163.314 226.331 163.321 225.588C163.332 224.35 163.75 223.149 164.51 222.171C165.271 221.192 166.333 220.49 167.532 220.172C168.731 219.853 170.002 219.936 171.15 220.408C172.297 220.88 173.258 221.714 173.884 222.784C174.387 223.633 174.655 224.601 174.659 225.588Z" fill="#262626"/>
<path d="M174.659 225.588C174.663 226.732 174.307 227.848 173.641 228.78C173.127 229.536 172.433 230.153 171.621 230.575C170.809 230.997 169.905 231.211 168.989 231.197C167.647 231.203 166.344 230.741 165.307 229.892L168.989 225.588V219.931C169.984 219.936 170.96 220.202 171.819 220.703C172.678 221.204 173.39 221.921 173.883 222.784C174.387 223.633 174.654 224.601 174.659 225.588Z" fill="#FDB602"/>
<path d="M172.897 226.071C173.161 223.924 171.631 221.97 169.479 221.706C167.328 221.443 165.369 222.969 165.105 225.116C164.841 227.263 166.371 229.218 168.523 229.481C170.674 229.745 172.633 228.218 172.897 226.071Z" fill="white"/>
<path d="M170.637 224.717H167.391V225.176H170.637V224.717Z" fill="#0D0D0D"/>
<path d="M171.414 225.975H166.568V226.434H171.414V225.975Z" fill="#A6A6A6"/>
<path d="M78.0462 133.434C69.9471 137.658 63.7222 144.967 59.1707 152.946C54.6191 160.925 51.8079 169.776 48.9297 178.493L46.4531 223.484C55.8909 207.325 63.5214 188.349 65.5964 169.709L59.3045 169.172C63.5214 168.502 67.0689 165.484 69.2778 161.797C71.4866 158.109 72.6914 154.019 73.8293 149.861L66.1988 151.001C72.2563 146.89 76.4994 140.598 78.0462 133.434Z" fill="#455A64"/>
<path d="M78.0462 133.434C69.9471 137.658 63.7222 144.967 59.1707 152.946C54.6191 160.925 51.8079 169.776 48.9297 178.493L46.4531 223.484C55.8909 207.325 63.5214 188.349 65.5964 169.709L59.3045 169.172C63.5214 168.502 67.0689 165.484 69.2778 161.797C71.4866 158.109 72.6914 154.019 73.8293 149.861L66.1988 151.001C72.2563 146.89 76.4994 140.598 78.0462 133.434Z" fill="#455A64"/>
<path d="M45.0478 234.012C45.0478 234.012 24.4989 209.337 24.6997 185.802H32.9996C32.9996 185.802 24.0304 179.901 24.6997 176.548C25.3691 173.196 25.7038 160.657 25.7038 160.657L33.2674 162.535C33.2674 162.535 27.5779 159.651 26.8416 155.159C26.1054 150.666 28.515 129.746 28.515 129.746C28.515 129.746 37.752 139.469 40.6301 149.459C43.5083 159.45 50.938 171.117 48.7292 201.492C46.5204 231.866 45.0478 234.012 45.0478 234.012Z" fill="#FDB602"/>
<path d="M55.4885 236.359C55.4885 236.359 77.7107 221.474 82.6638 202.498L76.0373 200.688C76.0373 200.688 84.538 197.871 84.7388 195.055C84.9396 192.239 87.4162 182.047 87.4162 182.047L80.9235 181.913C80.9235 181.913 86.1444 180.84 87.6839 177.354C89.2234 173.867 91.9008 156.567 91.9008 156.567C91.9008 156.567 82.3292 162.401 77.8446 169.777C73.36 177.152 64.8593 184.93 59.9731 209.874C55.0869 234.817 55.4885 236.359 55.4885 236.359Z" fill="#FDB602"/>
<path d="M34.1367 151.203C34.1402 151.296 34.163 151.388 34.2037 151.471L34.4045 152.209C34.5383 152.946 34.7391 153.885 35.0069 155.159C35.2746 156.433 35.6762 157.975 36.0109 159.786C36.3456 161.596 36.8141 163.675 37.2157 165.955C38.0858 170.514 39.0229 176.012 39.96 182.114C40.8971 188.216 41.8342 194.854 42.6374 201.962C43.4406 209.069 44.1099 215.707 44.5785 221.876C45.047 228.045 45.3817 233.543 45.5156 238.17C45.6494 240.516 45.7164 242.595 45.7833 244.472C45.8502 246.35 45.8502 247.892 45.9172 249.233V252.183C45.9172 251.513 45.8502 250.507 45.7833 249.233C45.7164 247.959 45.7164 246.283 45.6494 244.472C45.5825 242.662 45.5156 240.516 45.3817 238.17C45.1809 233.543 44.7793 228.045 44.3107 221.876C43.8422 215.707 43.1729 209.002 42.3696 201.962C41.5664 194.921 40.6294 188.216 39.6923 182.114C38.7552 176.012 37.885 170.581 37.0149 166.022C36.6133 163.742 36.2117 161.663 35.877 159.853C35.5423 158.042 35.2077 156.5 34.9399 155.226C34.6722 153.952 34.5383 152.946 34.4045 152.276C34.3379 152.012 34.2931 151.743 34.2706 151.471C34.2063 151.393 34.1606 151.302 34.1367 151.203Z" fill="#263238"/>
<path d="M42.1687 249.099C42.1687 249.099 23.3601 227.709 17.5368 214.768L21.9545 212.891C18.7416 213.427 15.4618 212.086 12.9853 209.941C10.5087 207.795 8.70147 205.113 6.89424 202.431L12.7175 201.425C7.37731 199.887 2.82697 196.36 0 191.568C6.89424 192.708 13.0522 196.463 18.2062 201.224C23.3601 205.985 25.8367 209.471 29.1834 213.964C30.8382 216.164 32.273 218.522 33.4672 221.004C36.6131 227.575 42.2356 241.254 42.1687 249.099Z" fill="#FDB602"/>
<path d="M82.9989 169.039L82.865 169.24L82.5973 169.844C82.3295 170.447 81.9279 171.185 81.4594 172.258C80.9908 173.33 80.3215 174.537 79.6522 176.012C78.9828 177.488 78.1127 179.097 77.3095 180.974C75.5692 184.662 73.5611 189.088 71.4192 194.049C69.2773 199.011 67.0015 204.577 64.7927 210.343C62.5839 216.11 60.5089 221.809 58.7686 226.905C57.0283 232.001 55.4888 236.627 54.284 240.584L52.6776 245.814L51.4728 249.837C51.205 250.91 50.9373 251.781 50.7365 252.385L50.5357 253.055C50.5388 253.092 50.5344 253.128 50.5229 253.163C50.5114 253.197 50.493 253.229 50.4688 253.256V252.988C50.4951 252.783 50.5399 252.581 50.6026 252.385C50.8034 251.781 51.0042 250.91 51.272 249.837C51.5397 248.764 51.9413 247.356 52.4098 245.814C52.8784 244.271 53.3469 242.461 54.0163 240.517C55.1542 236.56 56.6267 231.934 58.367 226.771C60.1073 221.608 62.1153 216.043 64.3911 210.209C66.6669 204.375 68.8757 198.944 71.0176 193.982C73.1595 189.021 75.2345 184.528 76.9748 180.84C77.8449 179.03 78.7151 177.354 79.3844 175.878L81.2586 172.19L82.4634 169.844L82.7981 169.24L82.9989 169.039Z" fill="#263238"/>
<path d="M43.7748 258.285C43.7672 258.148 43.7447 258.014 43.7079 257.882C43.6409 257.614 43.574 257.212 43.5071 256.742C43.4401 256.273 43.3732 255.67 43.2393 254.932C43.1055 254.194 42.9716 253.457 42.7708 252.585C42.57 251.713 41.9676 248.763 41.3652 246.483C40.7628 244.204 39.9596 241.723 39.0225 239.175C38.0854 236.627 36.9475 234.28 35.9435 232.201C35.0614 230.295 34.0783 228.437 32.9984 226.636L31.7936 224.557L30.7895 223.015L30.1871 222.076L29.9863 221.741L30.2541 222.009L30.9234 222.948C31.1911 223.35 31.5928 223.887 31.9274 224.49C32.2621 225.094 32.7976 225.764 33.1992 226.502C33.6008 227.239 35.2072 229.922 36.2782 232C37.3491 234.079 38.3531 236.56 39.2902 239.108C40.2273 241.656 41.0305 244.137 41.6998 246.416C42.3692 248.696 42.7039 250.775 43.0385 252.518C43.3732 254.261 43.3063 254.194 43.4401 254.932C43.574 255.67 43.574 256.206 43.6409 256.742C43.7079 257.279 43.7079 257.547 43.7748 257.882V258.285Z" fill="#263238"/>
<path d="M68.5416 253.256H27.377V261.671H68.5416V253.256Z" fill="#0D0D0D"/>
<path d="M31.3262 261.638L35.8108 289.934H60.6434L64.7934 261.638H31.3262Z" fill="#0D0D0D"/>
<path d="M66.0651 261.637C66.0651 261.771 58.3007 261.838 48.6622 261.838C39.0236 261.838 31.3262 261.771 31.3262 261.637C31.3262 261.503 39.0906 261.503 48.6622 261.503C58.2338 261.503 66.0651 261.57 66.0651 261.637Z" fill="#263238"/>
<g opacity="0.3">
<path d="M78.0462 133.434C69.9471 137.658 63.7222 144.967 59.1707 152.946C54.6191 160.925 51.8079 169.776 48.9297 178.493L46.4531 223.484C55.8909 207.325 63.5214 188.349 65.5964 169.709L59.3045 169.172C63.5214 168.502 67.0689 165.484 69.2778 161.797C71.4866 158.109 72.6914 154.019 73.8293 149.861L66.1988 151.001C72.2563 146.89 76.4994 140.598 78.0462 133.434Z" fill="#471F01"/>
</g>
<path d="M291.366 289.866C291.366 289.933 227.511 290.067 148.729 290.067C69.9472 290.067 6.0918 289.933 6.0918 289.866C6.0918 289.799 69.9472 289.665 148.729 289.665C227.511 289.665 291.366 289.799 291.366 289.866Z" fill="#263238"/>
<path d="M258.099 92.3313L260.04 85.2238C258.154 82.0865 257.159 78.4929 257.162 74.8307C257.162 70.9024 258.326 67.0625 260.506 63.7971C262.686 60.5318 265.784 57.988 269.408 56.4878C273.032 54.9875 277.02 54.5984 280.865 55.3697C284.71 56.141 288.24 58.0379 291.008 60.8203C293.776 63.6028 295.658 67.1455 296.415 70.9999C297.172 74.8543 296.77 78.8471 295.26 82.4725C293.75 86.098 291.2 89.1931 287.933 91.3659C284.666 93.5386 280.829 94.6914 276.908 94.6781C272.525 94.6541 268.27 93.194 264.793 90.5209L258.099 92.3313Z" fill="white"/>
<path d="M258.1 92.3309L258.568 92.1968L259.84 91.7945L264.793 90.4534H264.86C267.513 92.4512 270.617 93.7639 273.896 94.2754C276.004 94.6214 278.155 94.5987 280.255 94.2083C282.615 93.7828 284.881 92.943 286.948 91.7274C289.224 90.3708 291.205 88.5694 292.772 86.4303C294.441 84.1305 295.604 81.5024 296.185 78.7193C296.73 75.739 296.639 72.6768 295.918 69.7344C295.11 66.6823 293.571 63.8741 291.433 61.554C290.357 60.383 289.144 59.3473 287.818 58.4696C286.559 57.5933 285.185 56.8939 283.735 56.391C280.935 55.3565 277.938 54.9669 274.967 55.2511C272.149 55.5069 269.425 56.4011 267.002 57.8661C263.9 59.654 261.352 62.266 259.639 65.4135C257.927 68.5611 257.116 72.1217 257.296 75.702C257.43 79.0393 258.397 82.2898 260.108 85.1563C260.175 85.1563 260.175 85.2234 260.108 85.2234C259.505 87.5031 258.97 89.2465 258.635 90.4534C258.474 90.9146 258.34 91.3848 258.233 91.8615L258.1 92.3309C258.119 92.1683 258.164 92.0099 258.233 91.8615C258.3 91.5263 258.434 91.1239 258.568 90.5205C258.702 89.917 259.371 87.5031 259.974 85.1563C257.874 81.7671 256.847 77.8212 257.026 73.8365C257.205 69.8518 258.583 66.0144 260.978 62.828C262.535 60.6801 264.517 58.8769 266.801 57.5309C269.351 56.0149 272.207 55.0896 275.161 54.8227C278.114 54.5559 281.09 54.9542 283.869 55.9887C285.328 56.518 286.721 57.2156 288.019 58.0673C289.344 58.9715 290.557 60.0293 291.634 61.2187C292.747 62.4181 293.713 63.7461 294.512 65.1748C295.23 66.5919 295.812 68.0736 296.252 69.6002C297.042 72.5786 297.134 75.6996 296.52 78.7193C295.962 81.4618 294.833 84.0557 293.207 86.3317C291.58 88.6078 289.494 90.5148 287.082 91.9286C284.986 93.1341 282.7 93.9731 280.322 94.4095C278.199 94.7996 276.026 94.8223 273.896 94.4765C270.581 93.936 267.452 92.5763 264.793 90.5205V90.3864C264.86 90.4534 264.86 90.4534 264.793 90.5205L259.706 91.7945L258.434 92.1297L258.1 92.3309Z" fill="#263238"/>
<path d="M268.072 75.2993L270.348 72.9524L274.833 76.9085L283.601 68.46L285.743 70.8068L274.498 81.401L268.072 75.2993Z" fill="#FDB602"/>
</g>
<defs>
<clipPath id="clip0_4031_18423">
<rect width="300" height="290" fill="white"/>
</clipPath>
</defs>
</svg>
