<svg width="300" height="300" viewBox="0 0 300 300" fill="none" xmlns="http://www.w3.org/2000/svg">
<g clip-path="url(#clip0_4031_18235)">
<path d="M40.0334 10.5293H14.5508V18.599H40.0334V10.5293Z" fill="#EBEBEB"/>
<path d="M285.666 74.3506H260.184V82.4203H285.666V74.3506Z" stroke="#EBEBEB" stroke-miterlimit="10"/>
<path d="M25.7722 0.288463L6.66023 0.576923H0.361969L0.651543 0.216346V8.36538L0.289574 8.00481L19.3292 8.14904H25.6998L25.555 8.29327L25.6998 0.216346L25.7722 0.288463ZM25.7722 0.288463L25.9894 8.36538V8.58173H25.7722L13.0309 8.72596H0V0H6.73263L25.7722 0.288463Z" fill="#EBEBEB"/>
<path d="M68.3407 192.765L49.1563 193.053H42.8581L43.22 192.765V200.77L42.8581 200.409L61.97 200.553H68.3407L68.1235 200.698L68.3407 192.693V192.765ZM68.3407 192.765L68.4855 200.77V200.986H68.3407L55.5994 201.13H42.4961V192.404H49.2287L68.2683 192.765H68.3407Z" fill="#EBEBEB"/>
<path d="M54.1512 182.524L34.9669 182.884H28.6686L29.0306 182.524V190.601L28.6686 190.24L47.7806 190.384H54.1512L53.934 190.529L54.1512 182.452V182.524ZM54.1512 182.524L54.296 190.601V190.817H54.1512L41.4099 190.961H28.3066V182.235H35.0393L54.0788 182.524H54.1512Z" fill="#EBEBEB"/>
<path d="M40.0334 192.765H14.5508V200.834H40.0334V192.765Z" fill="#EBEBEB"/>
<path d="M299.856 0.360352H274.373V8.43006H299.856V0.360352Z" fill="#EBEBEB"/>
<path d="M285.666 282.98H260.184V291.05H285.666V282.98Z" fill="#EBEBEB"/>
<path d="M299.782 272.813L280.67 273.101H274.372L274.661 272.813V280.89L274.299 280.529H299.71L299.565 280.745L299.71 272.669L299.782 272.813ZM299.782 272.813L299.999 280.89V281.034H299.782L287.113 281.178H274.01V272.452H280.815L299.782 272.741V272.813Z" fill="#EBEBEB"/>
<path d="M25.7722 282.981L6.66023 283.269H0.361969L0.651543 282.981V291.058L0.289574 290.697H25.7722L25.6274 290.913L25.7722 282.836V282.981ZM25.7722 282.981L25.9894 291.058V291.202H25.7722L13.0309 291.346H0V282.62H6.73263L25.7722 282.909V282.981Z" fill="#EBEBEB"/>
<path d="M1.30273 299.712C96.6454 299.207 203.499 299.207 298.841 299.712C203.499 300.144 96.6454 300.144 1.30273 299.712Z" fill="#0D0D0D"/>
<path d="M245.994 278.437L245.994 11.5382C245.994 6.4004 241.813 2.23535 236.655 2.23535L63.5979 2.23535C58.4402 2.23535 54.2591 6.4004 54.2591 11.5382L54.2591 278.437C54.2591 283.575 58.4402 287.74 63.5979 287.74H236.655C241.813 287.74 245.994 283.575 245.994 278.437Z" fill="#1F1F1F"/>
<path d="M237.887 22.2109H62.5488V267.901H237.887V22.2109Z" fill="white"/>
<path d="M170.994 14.279V13.1973C170.994 12.6795 170.573 12.2598 170.053 12.2598L130.207 12.2598C129.688 12.2598 129.266 12.6795 129.266 13.1973V14.279C129.266 14.7968 129.688 15.2165 130.207 15.2165L170.053 15.2165C170.573 15.2165 170.994 14.7968 170.994 14.279Z" fill="#0D0D0D"/>
<path d="M153.94 281.313C156.06 279.201 156.06 275.776 153.94 273.664C151.819 271.552 148.382 271.552 146.261 273.664C144.141 275.776 144.141 279.201 146.261 281.313C148.382 283.425 151.819 283.425 153.94 281.313Z" fill="#0D0D0D"/>
<path d="M237.887 22.2109H62.5488V267.901H237.887V22.2109Z" fill="white"/>
<path d="M237.887 22.2109H62.5488V28.2109H237.887V22.2109Z" fill="#0D0D0D"/>
<path d="M67.9068 25.1685C67.9073 25.5007 67.78 25.8203 67.5511 26.0618C67.3222 26.3033 67.009 26.4481 66.6761 26.4666C66.505 26.4666 66.3356 26.433 66.1775 26.3678C66.0194 26.3025 65.8757 26.2069 65.7547 26.0864C65.6337 25.9659 65.5377 25.8228 65.4722 25.6653C65.4068 25.5078 65.373 25.339 65.373 25.1685C65.3728 25.0013 65.4068 24.8357 65.4732 24.6821C65.5395 24.5284 65.6367 24.3899 65.7587 24.2751C65.8808 24.1603 66.0251 24.0715 66.1829 24.0143C66.3407 23.9571 66.5085 23.9327 66.6761 23.9426C67.0025 23.9426 67.3156 24.0717 67.5464 24.3016C67.7772 24.5315 67.9068 24.8434 67.9068 25.1685Z" fill="#C7C7C7"/>
<path d="M73.0455 25.1685C73.046 25.5007 72.9187 25.8203 72.6898 26.0618C72.4608 26.3033 72.1477 26.4481 71.8148 26.4666C71.4692 26.4666 71.1378 26.3298 70.8934 26.0864C70.649 25.843 70.5117 25.5128 70.5117 25.1685C70.5114 25.0013 70.5455 24.8357 70.6118 24.6821C70.6781 24.5284 70.7753 24.3899 70.8974 24.2751C71.0194 24.1603 71.1638 24.0715 71.3216 24.0143C71.4794 23.9571 71.6472 23.9327 71.8148 23.9426C72.1412 23.9426 72.4542 24.0717 72.685 24.3016C72.9158 24.5315 73.0455 24.8434 73.0455 25.1685Z" fill="white"/>
<path d="M78.2589 25.1678C78.2589 25.5121 78.1216 25.8423 77.8772 26.0857C77.6328 26.3291 77.3014 26.4659 76.9558 26.4659C76.7879 26.4662 76.6217 26.4323 76.4675 26.3662C76.3132 26.3001 76.1742 26.2033 76.0589 26.0817C75.9436 25.9601 75.8545 25.8163 75.7971 25.6592C75.7397 25.502 75.7152 25.3348 75.7251 25.1678C75.7144 25.0041 75.739 24.84 75.7971 24.6864C75.8551 24.5329 75.9454 24.3934 76.0619 24.2774C76.1784 24.1614 76.3184 24.0714 76.4725 24.0136C76.6266 23.9557 76.7914 23.9313 76.9558 23.9419C77.1234 23.932 77.2912 23.9565 77.449 24.0136C77.6068 24.0708 77.7511 24.1596 77.8732 24.2744C77.9952 24.3892 78.0924 24.5277 78.1588 24.6814C78.2251 24.835 78.2591 25.0006 78.2589 25.1678Z" fill="#FDB602"/>
<path d="M174.542 77.2354C172.636 78.2824 170.493 78.8284 168.316 78.8219C166.605 78.8219 164.91 78.4861 163.329 77.8338C161.748 77.1814 160.312 76.2253 159.102 75.0199C157.892 73.8145 156.932 72.3835 156.277 70.8086C155.622 69.2337 155.285 67.5458 155.285 65.8411C155.285 64.1365 155.622 62.4485 156.277 60.8736C156.932 59.2987 157.892 57.8677 159.102 56.6623C160.312 55.457 161.748 54.5008 163.329 53.8484C164.91 53.1961 166.605 52.8604 168.316 52.8604V65.8411L174.542 77.2354Z" fill="#0D0D0D"/>
<path d="M175.99 55.3846L168.316 65.8413V52.8606C171.082 52.8449 173.777 53.7313 175.99 55.3846Z" fill="#FDB602"/>
<path d="M181.347 65.8415C181.355 69.1078 180.112 72.2541 177.872 74.6396L168.316 65.8415L175.99 55.3848C177.645 56.5859 178.992 58.1586 179.923 59.9754C180.854 61.7921 181.342 63.8018 181.347 65.8415Z" fill="#DBDBDB"/>
<path d="M182.577 80.6244C181.637 81.686 180.508 82.5661 179.247 83.2206L173.021 71.8984L182.577 80.6244Z" fill="#262626"/>
<path d="M133.205 53.3652L129.586 65.8411V78.8219C126.13 78.8219 122.815 77.4543 120.371 75.0199C117.928 72.5855 116.555 69.2838 116.555 65.8411C116.555 62.3984 117.928 59.0967 120.371 56.6623C122.815 54.228 126.13 52.8604 129.586 52.8604C130.808 52.8816 132.024 53.0511 133.205 53.3652Z" fill="#DBDBDB"/>
<path d="M137.332 76.2976C135.087 77.9423 132.372 78.8269 129.586 78.8216V65.8408L137.332 76.2976Z" fill="#0D0D0D"/>
<path d="M142.617 65.8414C142.62 67.8749 142.143 69.8807 141.225 71.697C140.307 73.5133 138.974 75.0894 137.332 76.2982L129.586 65.8414L139.721 57.6924C141.598 59.9965 142.62 62.8743 142.617 65.8414Z" fill="#262626"/>
<path d="M142.616 53.5095L132.48 61.6586L136.1 49.1826C138.678 49.8988 140.96 51.4143 142.616 53.5095Z" fill="#FDB602"/>
<path d="M90.8557 52.8604V65.8411L82.0961 75.4325C80.1553 73.6694 78.7947 71.3633 78.1926 68.8165C77.5906 66.2696 77.7752 63.601 78.7223 61.1605C79.6694 58.7201 81.3347 56.6217 83.4999 55.1405C85.6651 53.6593 88.2291 52.8645 90.8557 52.8604Z" fill="#262626"/>
<path d="M100.194 56.8267L90.8555 65.8411V52.8604C92.6006 52.8571 94.3282 53.207 95.9335 53.8888C97.5388 54.5706 98.9884 55.5701 100.194 56.8267Z" fill="#FDB602"/>
<path d="M103.886 65.8416C103.884 67.7708 103.454 69.6758 102.628 71.4208C101.803 73.1659 100.601 74.7081 99.1084 75.9377L90.8555 65.8416L100.194 56.8271C101.378 58.0113 102.314 59.418 102.948 60.9654C103.582 62.5129 103.901 64.1703 103.886 65.8416Z" fill="#DBDBDB"/>
<path d="M99.1083 79.3266C96.6765 81.2739 93.6271 82.2929 90.5085 82.2004C87.3899 82.1078 84.4068 80.9098 82.0957 78.8218L90.8553 69.2305L99.1083 79.3266Z" fill="#0D0D0D"/>
<path d="M207.047 52.8604V78.8219C203.591 78.8219 200.276 77.4543 197.832 75.0199C195.389 72.5855 194.016 69.2838 194.016 65.8411C194.016 62.3984 195.389 59.0967 197.832 56.6623C200.276 54.228 203.591 52.8604 207.047 52.8604Z" fill="#FDB602"/>
<path d="M210.305 53.293L207.047 65.8411V52.8604C208.147 52.8622 209.242 53.0077 210.305 53.293Z" fill="#0D0D0D"/>
<path d="M222.25 65.1203C222.255 66.7465 221.961 68.3598 221.381 69.88L209.291 65.1203L212.549 52.5723C215.335 53.2932 217.801 54.918 219.558 57.1901C221.315 59.4623 222.262 62.2525 222.25 65.1203Z" fill="#262626"/>
<path d="M219.137 70.6004C218.188 73.0249 216.526 75.1073 214.369 76.5744C212.211 78.0415 209.659 78.8248 207.047 78.8216V65.8408L219.137 70.6004Z" fill="#DBDBDB"/>
<path d="M102.003 87.9805H86.8008V89.4372H102.003V87.9805Z" fill="#EBEBEB"/>
<path d="M96.8635 91.0098H86.8008V92.4665H96.8635V91.0098Z" fill="#EBEBEB"/>
<path d="M84.3401 87.9805H79.7793V92.5093H84.3401V87.9805Z" fill="#262626"/>
<path d="M140.734 87.9805H125.531V89.4372H140.734V87.9805Z" fill="#EBEBEB"/>
<path d="M135.594 91.0098H125.531V92.4665H135.594V91.0098Z" fill="#EBEBEB"/>
<path d="M123.071 87.9805H118.51V92.5093H123.071V87.9805Z" fill="#DBDBDB"/>
<path d="M180.044 87.9805H164.842V89.4372H180.044V87.9805Z" fill="#EBEBEB"/>
<path d="M174.905 91.0098H164.842V92.4665H174.905V91.0098Z" fill="#EBEBEB"/>
<path d="M162.379 87.9805H157.818V92.5093H162.379V87.9805Z" fill="#0D0D0D"/>
<path d="M219.281 87.9805H204.078V89.4372H219.281V87.9805Z" fill="#EBEBEB"/>
<path d="M214.141 91.0098H204.078V92.4665H214.141V91.0098Z" fill="#EBEBEB"/>
<path d="M201.617 87.9805H197.057V92.5093H201.617V87.9805Z" fill="#FDB602"/>
<path d="M118.872 210.288C118.865 214.053 117.75 217.733 115.666 220.873C113.582 224.013 110.619 226.476 107.144 227.956L99.6152 210.288H118.872Z" fill="#FDB602"/>
<path d="M97.1536 208.918L104.683 226.658H104.61L102.873 227.307C101.02 227.876 99.0924 228.167 97.1536 228.173C95.2162 228.149 93.2916 227.857 91.4345 227.307C88.4401 226.388 85.7185 224.75 83.5093 222.537C81.3001 220.324 79.671 217.603 78.7655 214.615C78.1784 212.773 77.8852 210.851 77.8968 208.918C77.8911 206.986 78.1841 205.064 78.7655 203.221C79.6813 200.246 81.3149 197.54 83.5235 195.34C85.7321 193.14 88.4483 191.513 91.4345 190.601C93.2916 190.051 95.2162 189.76 97.1536 189.735C99.0904 189.765 101.014 190.056 102.873 190.601C105.847 191.535 108.552 193.17 110.757 195.367C112.962 197.564 114.604 200.258 115.542 203.221C116.123 205.064 116.416 206.986 116.41 208.918H97.1536Z" fill="#FDB602"/>
<path d="M97.1536 208.918L104.683 226.658H104.61L102.873 227.307C101.02 227.876 99.0924 228.167 97.1536 228.173C95.2162 228.149 93.2916 227.857 91.4345 227.307C88.4634 226.345 85.7649 224.692 83.562 222.485C81.3591 220.278 79.715 217.58 78.7655 214.615C78.1784 212.773 77.8852 210.851 77.8968 208.918C77.8911 206.986 78.1841 205.064 78.7655 203.221C79.7142 200.264 81.3591 197.575 83.563 195.38C85.7668 193.184 88.4657 191.546 91.4345 190.601C93.2916 190.051 95.2162 189.76 97.1536 189.735C99.0904 189.765 101.014 190.056 102.873 190.601C105.841 191.546 108.54 193.184 110.744 195.38C112.948 197.575 114.593 200.264 115.542 203.221C116.123 205.064 116.416 206.986 116.41 208.918H97.1536Z" fill="#DBDBDB"/>
<path d="M97.1536 208.918L84.5571 223.485C82.4519 221.684 80.7656 219.448 79.6155 216.933C78.4653 214.417 77.8789 211.682 77.8969 208.918C77.8969 206.399 78.395 203.904 79.3627 201.577C80.3305 199.25 81.7489 197.135 83.5371 195.354C85.3252 193.573 87.4481 192.16 89.7844 191.196C92.1207 190.232 94.6248 189.735 97.1536 189.735C99.6825 189.735 102.187 190.232 104.523 191.196C106.859 192.16 108.982 193.573 110.77 195.354C112.558 197.135 113.977 199.25 114.945 201.577C115.912 203.904 116.41 206.399 116.41 208.918H97.1536Z" fill="#262626"/>
<path d="M128.862 234.375H114.311L96.2852 216.419L96.5747 216.202L114.456 234.015H128.862V234.375Z" fill="#0D0D0D"/>
<path d="M97.443 215.336H95.416V217.355H97.443V215.336Z" fill="#0D0D0D"/>
<path d="M128.861 220.528H112.5L104.682 212.74L104.971 212.523L112.645 220.168H128.861V220.528Z" fill="#0D0D0D"/>
<path d="M105.84 211.586H103.812V213.605H105.84V211.586Z" fill="#0D0D0D"/>
<path d="M128.935 206.755H104.104V207.123H128.935V206.755Z" fill="#0D0D0D"/>
<path d="M104.828 205.961H102.801V207.98H104.828V205.961Z" fill="#0D0D0D"/>
<path d="M152.534 204.952H134.508V206.625H152.534V204.952Z" fill="#EBEBEB"/>
<path d="M157.891 208.413H134.508V210.086H157.891V208.413Z" fill="#EBEBEB"/>
<path d="M147.032 211.875H134.508V213.548H147.032V211.875Z" fill="#EBEBEB"/>
<path d="M130.888 204.952H126.834V209.005H130.888V204.952Z" fill="#262626"/>
<path d="M154.706 218.438H134.508V220.111H154.706V218.438Z" fill="#EBEBEB"/>
<path d="M151.376 221.898H134.508V223.571H151.376V221.898Z" fill="#EBEBEB"/>
<path d="M157.891 225.36H134.508V227.033H157.891V225.36Z" fill="#EBEBEB"/>
<path d="M130.888 218.438H126.834V222.49H130.888V218.438Z" fill="#FDB602"/>
<path d="M154.706 231.923H134.508V233.596H154.706V231.923Z" fill="#EBEBEB"/>
<path d="M151.376 235.385H134.508V237.058H151.376V235.385Z" fill="#EBEBEB"/>
<path d="M157.891 238.918H134.508V240.591H157.891V238.918Z" fill="#EBEBEB"/>
<path d="M130.888 231.923H126.834V235.976H130.888V231.923Z" fill="#DBDBDB"/>
<path d="M77.8965 107.668H175.99C159.629 107.813 143.341 107.813 126.979 107.813L77.8965 107.668Z" fill="#DBDBDB"/>
<path d="M77.8965 111.347L126.979 111.202L175.99 111.347C159.629 111.492 143.341 111.419 126.979 111.492L77.8965 111.347Z" fill="#DBDBDB"/>
<path d="M77.8965 115.025L126.979 114.88C143.341 114.952 159.629 114.88 175.99 115.025H77.8965Z" fill="#DBDBDB"/>
<path d="M77.8965 118.63H175.99C159.629 118.775 143.341 118.702 126.979 118.775L77.8965 118.63Z" fill="#DBDBDB"/>
<path d="M77.8965 122.308L126.979 122.163L175.99 122.308L126.979 122.453L77.8965 122.308Z" fill="#DBDBDB"/>
<path d="M77.8965 125.986L126.979 125.841C143.341 125.913 159.629 125.841 175.99 125.986H77.8965Z" fill="#DBDBDB"/>
<path d="M77.8965 129.591H175.99C159.629 129.736 143.341 129.663 126.979 129.736L77.8965 129.591Z" fill="#DBDBDB"/>
<path d="M77.8965 133.27L126.979 133.125L175.99 133.27L126.979 133.414L77.8965 133.27Z" fill="#DBDBDB"/>
<path d="M77.8965 136.947L126.979 136.803C143.341 136.875 159.629 136.803 175.99 136.947H77.8965Z" fill="#DBDBDB"/>
<path d="M77.8965 140.553H175.99C159.629 140.697 143.341 140.625 126.979 140.697L77.8965 140.553Z" fill="#DBDBDB"/>
<path d="M77.8965 144.231L126.979 144.086C143.341 144.158 159.629 144.086 175.99 144.231H77.8965Z" fill="#DBDBDB"/>
<path d="M77.8965 147.836H175.99C159.629 147.981 143.341 147.981 126.979 147.981L77.8965 147.836Z" fill="#DBDBDB"/>
<path d="M77.8965 151.515L126.979 151.37L175.99 151.515C159.629 151.66 143.341 151.587 126.979 151.66L77.8965 151.515Z" fill="#DBDBDB"/>
<path d="M77.8965 155.193L126.979 155.048C143.341 155.12 159.629 155.048 175.99 155.193H77.8965Z" fill="#DBDBDB"/>
<path d="M77.8965 158.798H175.99C159.629 158.943 143.341 158.87 126.979 158.943L77.8965 158.798Z" fill="#DBDBDB"/>
<path d="M95.7046 133.269H88.248V163.088H95.7046V133.269Z" fill="#FDB602"/>
<path d="M109.533 120.648H102.076V163.081H109.533V120.648Z" fill="#0D0D0D"/>
<path d="M123.359 129.735H115.902V163.082H123.359V129.735Z" fill="#DBDBDB"/>
<path d="M137.187 118.702H129.73V163.132H137.187V118.702Z" fill="#FDB602"/>
<path d="M150.941 124.615H143.484V163.089H150.941V124.615Z" fill="#0D0D0D"/>
<path d="M164.769 146.394H157.312V163.067H164.769V146.394Z" fill="#DBDBDB"/>
<path d="M80.5027 105.144L80.7199 119.639L80.8647 134.134C80.9371 143.797 81.0095 153.461 81.0095 163.052L80.5027 162.62H128.283L152.173 162.764L175.99 162.98L152.173 163.269L128.283 163.413H80.0684V162.908C80.0684 153.317 80.0684 143.653 80.2131 133.99L80.3579 119.495L80.5027 105.144Z" fill="#DBDBDB"/>
<path d="M95.7046 166.153H88.248V166.766H95.7046V166.153Z" fill="#DBDBDB"/>
<path d="M109.533 166.153H102.076V166.766H109.533V166.153Z" fill="#DBDBDB"/>
<path d="M123.359 166.153H115.902V166.766H123.359V166.153Z" fill="#DBDBDB"/>
<path d="M137.187 166.153H129.73V166.766H137.187V166.153Z" fill="#DBDBDB"/>
<path d="M150.941 166.153H143.484V166.766H150.941V166.153Z" fill="#DBDBDB"/>
<path d="M164.769 166.153H157.312V166.766H164.769V166.153Z" fill="#DBDBDB"/>
<path d="M221.382 109.976H194.523V111.432H221.382V109.976Z" fill="#EBEBEB"/>
<path d="M216.314 113.005H194.523V114.462H216.314V113.005Z" fill="#EBEBEB"/>
<path d="M191.266 109.976H186.705V114.504H191.266V109.976Z" fill="#FDB602"/>
<path d="M221.382 124.903H194.523V126.36H221.382V124.903Z" fill="#EBEBEB"/>
<path d="M216.314 127.933H194.523V129.389H216.314V127.933Z" fill="#EBEBEB"/>
<path d="M191.266 124.831H186.705V129.36H191.266V124.831Z" fill="#0D0D0D"/>
<path d="M221.382 139.76H194.523V141.216H221.382V139.76Z" fill="#EBEBEB"/>
<path d="M216.314 142.86H194.523V144.317H216.314V142.86Z" fill="#EBEBEB"/>
<path d="M191.266 139.76H186.705V144.289H191.266V139.76Z" fill="#DBDBDB"/>
<path d="M193.727 192.403C193.714 192.815 193.666 193.225 193.582 193.629C193.302 195.63 192.305 197.462 190.775 198.788C189.244 200.113 187.284 200.843 185.257 200.841C183.766 200.848 182.3 200.464 181.006 199.727C179.713 198.99 178.637 197.926 177.888 196.642C177.14 195.358 176.744 193.9 176.742 192.415C176.74 190.931 177.131 189.472 177.876 188.186C178.621 186.9 179.694 185.832 180.985 185.092C182.277 184.351 183.742 183.962 185.232 183.966C186.723 183.969 188.186 184.365 189.474 185.112C190.762 185.859 191.829 186.931 192.568 188.221C193.32 189.488 193.72 190.931 193.727 192.403Z" fill="#262626"/>
<path d="M193.726 192.403C193.713 192.815 193.665 193.226 193.581 193.629L185.256 192.403V183.966C186.742 183.974 188.2 184.371 189.484 185.118C190.767 185.865 191.831 186.935 192.568 188.221C193.32 189.488 193.719 190.931 193.726 192.403Z" fill="#FDB602"/>
<path d="M185.256 198.245C188.495 198.245 191.12 195.63 191.12 192.404C191.12 189.178 188.495 186.562 185.256 186.562C182.018 186.562 179.393 189.178 179.393 192.404C179.393 195.63 182.018 198.245 185.256 198.245Z" fill="white"/>
<path d="M187.718 191.105H182.867V191.791H187.718V191.105Z" fill="#0D0D0D"/>
<path d="M188.876 193.053H181.637V193.738H188.876V193.053Z" fill="#A6A6A6"/>
<path d="M193.726 214.11C193.707 216.342 192.809 218.478 191.225 220.056C189.64 221.634 187.497 222.529 185.256 222.548C184.083 222.656 182.9 222.52 181.783 222.147C180.666 221.774 179.639 221.173 178.768 220.382C177.897 219.591 177.202 218.628 176.726 217.555C176.25 216.481 176.004 215.32 176.004 214.147C176.004 212.973 176.25 211.812 176.726 210.738C177.202 209.665 177.897 208.702 178.768 207.911C179.639 207.12 180.666 206.519 181.783 206.146C182.9 205.773 184.083 205.637 185.256 205.745C186.737 205.738 188.193 206.121 189.477 206.856C190.761 207.591 191.828 208.65 192.568 209.928C193.32 211.195 193.72 212.639 193.726 214.11Z" fill="#262626"/>
<path d="M193.726 214.111C193.743 215.818 193.231 217.49 192.26 218.897C191.288 220.304 189.904 221.377 188.296 221.971L185.256 214.111V205.745C186.737 205.738 188.193 206.122 189.477 206.856C190.761 207.591 191.827 208.65 192.568 209.928C193.32 211.195 193.719 212.639 193.726 214.111Z" fill="#FDB602"/>
<path d="M185.256 220.024C188.495 220.024 191.12 217.408 191.12 214.182C191.12 210.956 188.495 208.341 185.256 208.341C182.018 208.341 179.393 210.956 179.393 214.182C179.393 217.408 182.018 220.024 185.256 220.024Z" fill="white"/>
<path d="M187.718 212.885H182.867V213.57H187.718V212.885Z" fill="#0D0D0D"/>
<path d="M188.876 214.76H181.637V215.445H188.876V214.76Z" fill="#A6A6A6"/>
<path d="M193.726 235.889C193.731 237.595 193.2 239.26 192.205 240.649C191.438 241.776 190.401 242.696 189.187 243.326C187.974 243.955 186.623 244.274 185.256 244.254C184.144 244.274 183.04 244.071 182.008 243.658C180.977 243.246 180.038 242.631 179.249 241.852C178.459 241.072 177.835 240.143 177.412 239.119C176.989 238.095 176.776 236.996 176.785 235.889C176.802 234.042 177.427 232.252 178.563 230.792C179.7 229.333 181.286 228.286 183.077 227.811C184.869 227.336 186.768 227.46 188.482 228.164C190.196 228.867 191.632 230.112 192.567 231.706C193.319 232.973 193.719 234.417 193.726 235.889Z" fill="#262626"/>
<path d="M193.726 235.89C193.732 237.596 193.2 239.26 192.206 240.649C191.438 241.777 190.401 242.697 189.188 243.326C187.975 243.956 186.623 244.275 185.256 244.255C183.25 244.264 181.304 243.575 179.754 242.308L185.256 235.89V227.452C186.742 227.46 188.2 227.857 189.484 228.604C190.767 229.351 191.831 230.421 192.568 231.707C193.319 232.974 193.719 234.418 193.726 235.89Z" fill="#FDB602"/>
<path d="M191.091 236.61C191.486 233.408 189.2 230.494 185.986 230.101C182.771 229.707 179.846 231.985 179.451 235.187C179.056 238.389 181.342 241.303 184.557 241.696C187.771 242.089 190.697 239.812 191.091 236.61Z" fill="white"/>
<path d="M187.718 234.591H182.867V235.276H187.718V234.591Z" fill="#0D0D0D"/>
<path d="M188.876 236.466H181.637V237.151H188.876V236.466Z" fill="#A6A6A6"/>
<path d="M222.323 189.808H198.867V190.457H222.323V189.808Z" fill="#EBEBEB"/>
<path d="M222.323 192.115H198.867V192.764H222.323V192.115Z" fill="#EBEBEB"/>
<path d="M222.323 194.351H198.867V195H222.323V194.351Z" fill="#EBEBEB"/>
<path d="M222.323 211.586H198.867V212.235H222.323V211.586Z" fill="#EBEBEB"/>
<path d="M222.323 213.822H198.867V214.471H222.323V213.822Z" fill="#EBEBEB"/>
<path d="M222.323 216.13H198.867V216.779H222.323V216.13Z" fill="#EBEBEB"/>
<path d="M222.323 233.293H198.867V233.942H222.323V233.293Z" fill="#EBEBEB"/>
<path d="M222.323 235.601H198.867V236.25H222.323V235.601Z" fill="#EBEBEB"/>
<path d="M222.323 237.836H198.867V238.485H222.323V237.836Z" fill="#EBEBEB"/>
<path d="M40.396 237.331C39.5793 240.303 39.046 243.346 38.8034 246.418C38.8758 246.562 38.8758 247.139 38.8034 246.995C38.7631 247.07 38.7016 247.131 38.6265 247.171C38.5514 247.211 38.4661 247.229 38.3812 247.221C38.2963 247.213 38.2156 247.181 38.149 247.128C38.0825 247.075 38.0331 247.003 38.007 246.923V245.985C36.1972 243.75 33.591 242.379 31.4916 240.432C29.8368 238.898 28.6139 236.958 27.9443 234.807C26.2068 228.75 27.8719 222.475 25.7725 216.49C23.6731 210.504 20.7049 206.826 17.9539 202.139C15.203 197.451 12.8864 192.043 12.7416 186.274C12.5244 181.874 13.1036 175.961 16.4337 172.644C19.7638 169.326 24.4694 171.778 27.2203 174.879C35.1837 183.966 38.8758 195.504 40.396 207.259C41.1924 213.75 42.0611 220.312 41.8439 226.875C41.6868 230.397 41.2021 233.898 40.396 237.331Z" fill="#FDB602"/>
<path d="M38.8029 248.869C39.2741 242.721 39.2014 236.544 38.5857 230.408H38.6581C38.7305 225.432 39.1649 220.456 38.9477 215.48C38.6968 210.067 37.9701 204.685 36.7759 199.398C36.7035 199.398 36.6311 199.398 36.6311 199.47C37.6463 204.63 38.2275 209.864 38.3685 215.119C38.4891 217.931 38.465 220.748 38.2961 223.557C38.2961 224.494 38.1513 225.432 38.1513 226.297C36.0545 212.308 30.969 198.93 23.2382 187.067C23.0934 186.922 22.8763 187.067 22.9486 187.211C28.4703 196.239 32.549 206.068 35.0384 216.345C31.2015 209.278 25.4824 203.437 21.1388 196.658H21.0664C24.9757 204.23 31.3463 210.143 35.4004 217.643C36.0519 220.672 36.6311 223.701 37.0654 226.802C37.6309 231.035 37.9452 235.297 38.0066 239.567C35.69 235.24 33.2286 231.057 31.3463 226.442C31.328 226.429 31.307 226.421 31.2851 226.418C31.2632 226.416 31.241 226.418 31.22 226.425C31.199 226.432 31.1799 226.443 31.1642 226.459C31.1484 226.474 31.1365 226.493 31.1291 226.514C32.7942 231.345 34.966 236.466 38.0066 240.504C38.0066 243.533 37.9342 246.562 37.7894 249.591C37.2826 257.668 35.9071 265.6 35.2556 273.605C35.2556 273.821 35.6176 273.894 35.6176 273.677C37.2879 265.497 38.3525 257.205 38.8029 248.869Z" fill="#0D0D0D"/>
<path d="M30.2606 186.706C30.2606 186.706 30.1158 186.706 30.1882 186.778C31.5181 190.827 32.6298 194.943 33.5184 199.11C33.5907 199.326 33.8803 199.254 33.8079 199.11C33.2489 194.823 32.0534 190.643 30.2606 186.706Z" fill="#0D0D0D"/>
<path d="M67.7602 203.798C66.7726 206.174 65.6362 208.487 64.3577 210.721C61.6791 215.553 58.9281 219.952 58.4214 225.577C58.2042 228.029 58.1318 230.553 57.3355 233.005C56.6244 235.058 55.6251 237 54.3673 238.774C51.4716 242.957 47.9243 246.562 45.2457 250.889C42.449 255.415 40.3962 260.358 39.1646 265.529C39.1337 265.571 39.0917 265.604 39.0432 265.625C38.9947 265.645 38.9416 265.652 38.8894 265.645C38.8373 265.637 38.7882 265.616 38.7474 265.583C38.7066 265.55 38.6757 265.506 38.6579 265.457C38.2959 253.486 39.237 241.37 42.9291 229.832C44.5258 224.78 46.4606 219.841 48.7206 215.048C50.6752 210.865 53.1366 206.827 56.6115 203.726C58.8557 201.707 63.7061 197.885 66.8915 199.904C68.4841 200.769 68.3393 202.284 67.7602 203.798Z" fill="#FDB602"/>
<path d="M55.598 230.985C53.5159 234.482 51.1938 237.832 48.6482 241.01L45.1009 245.553C44.5056 246.267 43.9498 247.014 43.4358 247.788C43.7254 246.49 44.0874 245.264 44.377 243.966C45.9696 237.909 47.4175 231.779 49.7341 225.937C52.1262 220.306 54.9331 214.858 58.1318 209.639C58.2042 209.495 57.987 209.423 57.9146 209.495C55.3808 213.678 52.7746 217.86 50.6028 222.26C49.4404 224.722 48.4251 227.25 47.5623 229.832C48.5115 224.355 49.8665 218.955 51.6163 213.678C51.6887 213.606 51.6163 213.606 51.544 213.606C49.3024 218.968 47.8633 224.63 47.2727 230.409C47.2727 230.428 47.2803 230.446 47.2939 230.46C47.3075 230.473 47.3259 230.481 47.3451 230.481C46.766 231.995 46.3316 233.582 45.8972 235.168C43.9426 241.875 42.2775 248.654 40.7573 255.505C40.7083 251.031 41.0963 246.563 41.9156 242.163C41.9156 242.019 41.7708 242.019 41.7708 242.091C40.5582 246.699 40.1662 251.483 40.6125 256.226L38.875 263.942C37.7167 269.495 36.2689 275.12 35.5449 280.745C35.5449 280.889 35.7621 280.961 35.7621 280.817C36.6308 277.788 37.0652 274.615 37.7891 271.586C38.5131 268.558 39.1646 265.384 39.8886 262.356C40.9021 257.884 41.988 253.413 43.1463 248.942C43.8702 247.356 45.3181 245.913 46.404 244.543L49.9513 240C52.1145 237.175 54.051 234.185 55.7428 231.058C55.7428 230.985 55.6704 230.913 55.598 230.985Z" fill="#0D0D0D"/>
<path d="M56.1058 225.865C53.4687 229.253 51.1884 232.902 49.3008 236.754H49.3732L56.2506 225.937C56.2506 225.865 56.1782 225.793 56.1058 225.865Z" fill="#0D0D0D"/>
<path d="M4.8508 215.192C6.37107 217.86 8.18091 221.033 7.52937 224.279C7.09501 226.298 5.57474 227.956 5.28516 230.048C4.70601 234.663 9.26682 237.692 12.5969 239.856C20.9222 245.264 32.2157 250.096 33.7359 261.13C33.8083 261.49 34.4599 261.418 34.4599 261.057C34.4599 260.697 34.4599 260.985 34.3875 260.985H34.4599C35.5354 255.406 35.4861 249.67 34.3151 244.11C33.0844 238.413 30.5506 233.293 27.6549 228.245C22.6597 219.807 17.3749 211.154 9.84597 204.663C7.74655 202.86 3.47532 199.615 1.81026 203.654C0.145201 207.692 2.89617 211.875 4.8508 215.192Z" fill="#FDB602"/>
<path d="M12.3797 233.149C17.8817 239.062 26.6413 242.379 31.3469 249.014C28.5235 238.846 23.8903 229.687 16.7957 221.754C16.7644 221.739 16.7371 221.717 16.7161 221.69C16.6952 221.662 16.6812 221.63 16.6753 221.596C16.6694 221.562 16.6718 221.527 16.6824 221.494C16.6929 221.461 16.7112 221.431 16.7358 221.406C16.7603 221.382 16.7904 221.363 16.8236 221.353C16.8567 221.342 16.8918 221.34 16.9261 221.346C16.9603 221.352 16.9927 221.366 17.0204 221.387C17.0481 221.407 17.0704 221.435 17.0853 221.466C22.1354 226.355 26.1697 232.187 28.9579 238.629C27.6672 234.135 25.9711 229.766 23.8903 225.576C23.7456 225.432 24.0351 225.288 24.1075 225.432C26.7341 229.979 28.5928 234.925 29.6095 240.072C35.8353 255.072 36.4145 272.668 35.1114 288.533C35.0916 288.563 35.0647 288.587 35.0331 288.604C35.0015 288.621 34.9662 288.63 34.9304 288.63C34.8946 288.63 34.8593 288.621 34.8277 288.604C34.7961 288.587 34.7692 288.563 34.7494 288.533C35.1114 276.057 34.8942 263.365 31.9261 251.177L31.7089 250.456C26.5689 243.317 17.8817 240 12.3073 233.221C12.2349 233.149 12.3073 233.076 12.3797 233.149Z" fill="#0D0D0D"/>
<path d="M11.1485 228.028L19.7634 235.961C19.7634 235.98 19.7558 235.999 19.7422 236.012C19.7286 236.026 19.7102 236.033 19.691 236.033C16.4233 233.825 13.4758 231.18 10.9314 228.173C10.859 228.101 11.0038 227.956 11.1485 228.028Z" fill="#0D0D0D"/>
<path d="M10.6428 216.634C13.2427 220.784 16.1463 224.737 19.3301 228.461H19.2577C15.6576 225.094 12.691 221.113 10.498 216.706C10.498 216.634 10.6428 216.49 10.6428 216.634Z" fill="#0D0D0D"/>
<path d="M23.6738 299.711H48.9393L45.5368 265.889H27.5831L23.6738 299.711Z" fill="#262626"/>
<path d="M26.9316 271.369H46.0436L45.5369 265.889H27.5832L26.9316 271.369Z" fill="#0D0D0D"/>
<path d="M24.3975 267.476H48.0703V262.074H24.3975V267.476Z" fill="#262626"/>
<path d="M272.925 150.938H205.236V216.216H272.925V150.938Z" fill="white"/>
<path d="M272.853 150.865C272.925 151.082 273.07 216.202 273.07 216.346H204.947V216.13C204.947 215.913 205.02 150.793 205.02 150.649C205.02 150.505 272.78 150.937 272.853 150.793V150.865ZM272.853 150.865L205.237 151.082C205.671 149.928 205.382 216.418 205.454 216.202L205.237 215.913H272.853C272.491 216.995 272.997 150.577 272.853 150.793V150.865Z" fill="#0D0D0D"/>
<path d="M272.925 150.938H205.236V155.077H272.925V150.938Z" fill="#0D0D0D"/>
<path d="M209.145 152.956C209.145 153.113 209.099 153.267 209.011 153.397C208.924 153.528 208.799 153.629 208.654 153.689C208.508 153.749 208.348 153.765 208.194 153.734C208.039 153.704 207.897 153.628 207.786 153.517C207.675 153.406 207.599 153.265 207.568 153.111C207.537 152.957 207.553 152.798 207.613 152.653C207.674 152.508 207.776 152.384 207.907 152.297C208.038 152.21 208.192 152.163 208.349 152.163C208.56 152.163 208.763 152.247 208.912 152.395C209.062 152.544 209.145 152.746 209.145 152.956Z" fill="#C7C7C7"/>
<path d="M212.331 152.956C212.341 153.057 212.33 153.159 212.298 153.255C212.266 153.351 212.214 153.439 212.146 153.514C212.078 153.588 211.995 153.648 211.902 153.689C211.809 153.729 211.708 153.75 211.607 153.75C211.396 153.75 211.193 153.666 211.044 153.517C210.894 153.369 210.811 153.167 210.811 152.956C210.811 152.746 210.894 152.544 211.044 152.395C211.193 152.247 211.396 152.163 211.607 152.163C211.708 152.163 211.809 152.183 211.902 152.224C211.995 152.265 212.078 152.324 212.146 152.399C212.214 152.474 212.266 152.562 212.298 152.658C212.33 152.754 212.341 152.856 212.331 152.956Z" fill="white"/>
<path d="M215.589 152.956C215.589 153.113 215.542 153.267 215.455 153.397C215.367 153.528 215.243 153.629 215.097 153.689C214.952 153.749 214.792 153.765 214.637 153.734C214.483 153.704 214.341 153.628 214.229 153.517C214.118 153.406 214.042 153.265 214.011 153.111C213.981 152.957 213.996 152.798 214.057 152.653C214.117 152.508 214.219 152.384 214.35 152.297C214.481 152.21 214.635 152.163 214.792 152.163C215.004 152.163 215.206 152.247 215.356 152.395C215.505 152.544 215.589 152.746 215.589 152.956Z" fill="#FDB602"/>
<path d="M241.652 165.432L237.236 180.937V197.091C232.935 197.091 228.81 195.389 225.769 192.36C222.728 189.33 221.02 185.221 221.02 180.937C221.02 176.653 222.728 172.544 225.769 169.515C228.81 166.485 232.935 164.783 237.236 164.783C238.732 164.777 240.221 164.995 241.652 165.432Z" fill="#FDB602"/>
<path d="M246.79 193.918C244.038 195.987 240.682 197.102 237.234 197.091V180.938L246.79 193.918Z" fill="#C7C7C7"/>
<path d="M253.451 180.938C253.457 183.473 252.856 185.974 251.698 188.231C250.539 190.489 248.857 192.439 246.79 193.919L237.234 180.938L249.831 170.77C252.161 173.651 253.438 177.237 253.451 180.938Z" fill="#1F1F1F"/>
<path d="M253.452 165.577L240.855 175.745L245.271 160.168C248.48 161.115 251.33 162.999 253.452 165.577Z" fill="#0D0D0D"/>
<path d="M223.335 204.952H220.729V207.556H223.335V204.952Z" fill="#0D0D0D"/>
<path d="M253.812 204.952H225.145V205.724H253.812V204.952Z" fill="#262626"/>
<path d="M243.677 206.755H225.145V207.527H243.677V206.755Z" fill="#262626"/>
<path d="M85.7138 71.25H1.375V136.529H85.7138V71.25Z" fill="white"/>
<path d="M85.6419 71.2501C85.6419 71.3944 85.7867 136.515 85.7867 136.659L1.30312 136.803H1.08594V136.515C1.08594 136.298 1.15833 71.2501 1.15833 71.0338C1.15833 70.8174 85.4971 71.3223 85.6419 71.2501ZM85.6419 71.2501L1.30312 71.3944C1.73748 70.2405 1.44791 136.731 1.59269 136.515L1.30312 136.226H85.6419C85.2076 137.38 85.7143 70.8896 85.6419 71.178V71.2501Z" fill="#0D0D0D"/>
<path d="M29.6081 125.192H27.002V127.796H29.6081V125.192Z" fill="#FDB602"/>
<path d="M60.0879 125.192H31.4199V125.964H60.0879V125.192Z" fill="#262626"/>
<path d="M49.9527 127.067H31.4199V127.839H49.9527V127.067Z" fill="#262626"/>
<path d="M23.8908 84.4473C24.0355 90.3607 23.9631 96.2742 24.0355 102.188C24.1079 108.101 24.0355 114.015 23.8908 119.928C23.8184 114.015 23.8184 108.101 23.8184 102.188C23.8184 96.2742 23.8184 90.3607 23.8908 84.4473Z" fill="#262626"/>
<path d="M35.2563 84.4473C35.3287 90.3607 35.3287 96.2742 35.3287 102.188C35.3287 108.101 35.3287 114.015 35.2563 119.928C35.1839 114.015 35.1839 108.101 35.1115 102.188C35.0391 96.2742 35.1839 90.3607 35.2563 84.4473Z" fill="#262626"/>
<path d="M46.549 84.4473C46.6937 90.3607 46.6213 96.2742 46.6937 102.188C46.7661 108.101 46.6937 114.015 46.549 119.928C46.4766 114.015 46.4766 108.101 46.4766 102.188C46.4766 96.2742 46.4766 90.3607 46.549 84.4473Z" fill="#262626"/>
<path d="M57.9145 84.4473C57.9869 90.3607 57.9869 96.2742 57.9869 102.188C57.9869 108.101 57.9869 114.015 57.9145 119.928C57.8421 114.015 57.8421 108.101 57.7697 102.188C57.6973 96.2742 57.8421 90.3607 57.9145 84.4473Z" fill="#262626"/>
<path d="M69.2091 84.4473C69.3539 90.3607 69.2815 96.2742 69.3539 102.188C69.4263 108.101 69.3539 114.015 69.2091 119.928C69.1367 114.015 69.1367 108.101 69.1367 102.188C69.1367 96.2742 69.1367 90.3607 69.2091 84.4473Z" fill="#262626"/>
<path opacity="0.5" d="M12.3789 109.255C14.4059 109.255 15.5642 102.837 18.3876 102.837C21.211 102.837 21.5005 107.524 23.8895 107.524C26.2785 107.524 26.2061 99.3033 29.4639 99.3033C32.7216 99.3033 31.9252 102.621 35.2554 102.621C38.5855 102.621 37.3548 94.9043 40.8297 94.9043C44.3046 94.9043 42.9291 105.577 46.5488 105.577C48.8654 105.577 49.8065 102.188 52.5575 102.188C55.3084 102.188 55.4532 103.847 57.8422 103.847C60.2312 103.847 60.738 97.3562 63.7061 97.3562C66.6743 97.3562 67.0362 101.178 69.2081 101.178C71.3799 101.178 72.2486 94.9043 76.2303 94.9043V119.928H12.3789V109.255Z" fill="#FDB602"/>
<path d="M12.3789 109.543V108.966C12.9581 108.966 13.8268 107.452 14.4059 106.37C14.9851 105.288 16.5777 102.548 18.3876 102.548C20.1974 102.548 21.0662 103.99 21.8625 105.216C22.6588 106.442 23.0932 107.235 23.8895 107.235C24.6859 107.235 25.3374 105.216 25.7718 103.774C26.2061 102.331 27.3644 99.0141 29.4639 99.0141C30.1092 98.9974 30.7469 99.1565 31.3082 99.4742C31.8696 99.7919 32.3332 100.256 32.6492 100.817C33.3007 101.61 33.8075 102.331 35.2554 102.331C36.7032 102.331 37.0652 100.529 37.4996 98.7257C37.9339 96.9228 38.7303 94.543 40.8297 94.543C42.9291 94.543 43.5082 97.2834 44.0874 100.096C44.6666 102.908 45.1009 105.288 46.5488 105.288C47.9967 105.288 48.1415 104.567 48.9378 103.774C49.7341 102.98 50.8924 101.827 52.5575 101.827C53.4647 101.883 54.3399 102.182 55.0913 102.692C55.9116 103.226 56.8631 103.525 57.8422 103.557C58.6386 103.557 59.4349 101.971 60.014 100.745C60.5932 99.5189 61.8239 96.9949 63.7061 96.9949C65.5884 96.9949 66.5295 98.293 67.3258 99.3747C68.1221 100.456 68.4841 100.889 69.2081 100.889C69.932 100.889 70.5835 99.6632 71.2351 98.6535C71.8866 97.6439 73.6241 94.543 76.2303 94.543V95.192C74.2032 95.192 73.0449 97.1391 72.0314 98.8699C71.0179 100.601 70.4388 101.538 69.2081 101.538C67.9774 101.538 67.2534 100.601 66.5295 99.6632C65.8055 98.7257 65.0816 97.6439 63.7061 97.6439C62.3306 97.6439 61.6067 99.3747 60.8828 100.961C60.1588 102.548 59.2901 104.206 57.8422 104.206C56.6642 104.157 55.5182 103.809 54.5121 103.197C53.929 102.802 53.2581 102.554 52.5575 102.476C51.3268 102.476 50.4581 103.341 49.6617 104.134C48.8654 104.928 47.9243 105.865 46.5488 105.865C45.1733 105.865 43.7978 103.125 43.2187 100.168C42.6395 97.2112 42.2052 95.192 40.8297 95.192C39.4542 95.192 38.875 97.1391 38.4407 98.8699C38.0063 100.601 37.2824 102.908 35.2554 102.908C34.5778 102.941 33.9039 102.791 33.3049 102.474C32.706 102.156 32.2043 101.683 31.8528 101.105C31.2737 100.312 30.7669 99.591 29.4639 99.591C28.1608 99.591 27.292 101.971 26.6405 103.918C25.9889 105.865 25.4098 107.812 23.8895 107.812C22.3693 107.812 21.7901 106.658 20.9938 105.432C20.1974 104.206 19.6183 103.125 18.3876 103.125C17.1569 103.125 16.1434 105.072 15.2747 106.586C14.4059 108.101 13.6096 109.543 12.3789 109.543Z" fill="#FDB602"/>
<path d="M12.3794 84.8076C12.4518 90.649 12.5242 96.4903 12.5242 102.332V119.928L12.307 119.784H12.0898V102.332C12.2346 96.4903 12.307 90.649 12.3794 84.8076Z" fill="#262626"/>
<path d="M85.7138 71.25H1.375V75.3894H85.7138V71.25Z" fill="#0D0D0D"/>
<path d="M5.28407 73.2698C5.28407 73.4267 5.23737 73.5801 5.14987 73.7105C5.06236 73.841 4.93799 73.9427 4.79248 74.0027C4.64697 74.0628 4.48686 74.0785 4.33238 74.0479C4.17791 74.0172 4.03601 73.9417 3.92465 73.8308C3.81328 73.7198 3.73743 73.5785 3.70671 73.4246C3.67598 73.2707 3.69175 73.1112 3.75202 72.9663C3.8123 72.8213 3.91436 72.6974 4.04532 72.6102C4.17628 72.5231 4.33024 72.4766 4.48774 72.4766C4.69894 72.4766 4.90149 72.5601 5.05083 72.7089C5.20017 72.8577 5.28407 73.0594 5.28407 73.2698Z" fill="#C7C7C7"/>
<path d="M8.46962 73.2698C8.46962 73.4267 8.42291 73.5801 8.33541 73.7105C8.24791 73.841 8.12354 73.9427 7.97803 74.0027C7.83252 74.0628 7.6724 74.0785 7.51793 74.0479C7.36345 74.0172 7.22156 73.9417 7.11019 73.8308C6.99882 73.7198 6.92298 73.5785 6.89225 73.4246C6.86153 73.2707 6.8773 73.1112 6.93757 72.9663C6.99784 72.8213 7.09991 72.6974 7.23087 72.6102C7.36182 72.5231 7.51578 72.4766 7.67328 72.4766C7.88448 72.4766 8.08703 72.5601 8.23638 72.7089C8.38572 72.8577 8.46962 73.0594 8.46962 73.2698Z" fill="white"/>
<path d="M11.7274 73.2698C11.7274 73.4267 11.6807 73.5801 11.5932 73.7105C11.5057 73.841 11.3814 73.9427 11.2358 74.0027C11.0903 74.0628 10.9302 74.0785 10.7757 74.0479C10.6213 74.0172 10.4794 73.9417 10.368 73.8308C10.2566 73.7198 10.1808 73.5785 10.1501 73.4246C10.1193 73.2707 10.1351 73.1112 10.1954 72.9663C10.2557 72.8213 10.3577 72.6974 10.4887 72.6102C10.6196 72.5231 10.7736 72.4766 10.9311 72.4766C11.1423 72.4766 11.3448 72.5601 11.4942 72.7089C11.6435 72.8577 11.7274 73.0594 11.7274 73.2698Z" fill="#FDB602"/>
</g>
<defs>
<clipPath id="clip0_4031_18235">
<rect width="300" height="300" fill="white"/>
</clipPath>
</defs>
</svg>
