<svg width="1000" height="1000" viewBox="0 0 1000 1000" fill="none" xmlns="http://www.w3.org/2000/svg">
<circle opacity="0.4" cx="500" cy="500" r="499.5" stroke="url(#paint0_radial_3020_18515)"/>
<circle opacity="0.4" cx="500" cy="505" r="379.5" stroke="url(#paint1_radial_3020_18515)"/>
<circle opacity="0.4" cx="501" cy="498" r="271.5" stroke="url(#paint2_radial_3020_18515)"/>
<circle cx="503" cy="489" r="191" fill="#191919"/>
<circle cx="499.5" cy="489.5" r="105.5" fill="#141414"/>
<path d="M453 489C453 463.595 473.595 443 499 443V443C524.405 443 545 463.595 545 489V489C545 514.405 524.405 535 499 535V535C473.595 535 453 514.405 453 489V489Z" fill="#0D0D0D"/>
<path d="M479.554 474.702C483.704 467.419 490.754 466.205 493.76 466.509C495.736 467.332 500.406 469.448 503.272 471.32C506.854 473.661 510.066 482.765 510.313 488.747C510.56 494.729 509.078 500.842 504.631 507.734C500.183 514.627 492.524 516.578 488.571 517.748C484.618 518.919 481.16 515.762 481.53 512.936C482.024 509.165 483.012 505.523 483.012 502.532C483.012 500.139 480.707 495.466 479.554 493.429C477.824 490.221 475.403 481.984 479.554 474.702Z" fill="#F5F5F5"/>
<path fill-rule="evenodd" clip-rule="evenodd" d="M478.496 474.033C482.958 466.205 490.542 464.877 493.88 465.214L494.054 465.232L494.217 465.299C496.204 466.128 500.96 468.278 503.925 470.215C505.033 470.939 506.023 472.118 506.878 473.468C507.744 474.834 508.526 476.461 509.19 478.178C510.512 481.6 511.418 485.519 511.549 488.691C511.809 494.98 510.236 501.365 505.655 508.465C501.161 515.429 493.617 517.627 489.551 518.812C489.325 518.877 489.111 518.94 488.908 519C486.546 519.699 484.307 519.108 482.709 517.896C481.151 516.713 480.042 514.79 480.308 512.759C480.498 511.314 480.76 509.876 481.006 508.523C481.088 508.073 481.169 507.633 481.244 507.205C481.552 505.452 481.779 503.898 481.779 502.532C481.779 502.124 481.675 501.526 481.455 500.767C481.239 500.025 480.935 499.204 480.587 498.372C479.89 496.706 479.05 495.076 478.494 494.094L478.488 494.083L478.481 494.071C476.641 490.657 474.022 481.884 478.496 474.033ZM493.476 467.788C490.706 467.58 484.377 468.771 480.615 475.371C476.793 482.077 479.006 489.765 480.624 492.775C481.221 493.832 482.106 495.551 482.848 497.323C483.22 498.213 483.565 499.135 483.818 500.007C484.065 500.86 484.25 501.745 484.25 502.532C484.25 504.158 483.983 505.919 483.673 507.678C483.592 508.141 483.508 508.604 483.423 509.067C483.18 510.402 482.935 511.743 482.756 513.114C482.652 513.908 483.087 514.976 484.154 515.786C485.181 516.565 486.648 516.967 488.239 516.496C488.42 516.443 488.607 516.388 488.8 516.331C492.918 515.123 499.645 513.151 503.611 507.004C507.924 500.319 509.315 494.479 509.081 488.804C508.965 485.993 508.142 482.369 506.901 479.158C506.283 477.559 505.575 476.097 504.823 474.911C504.061 473.709 503.306 472.872 502.622 472.425C499.932 470.667 495.524 468.651 493.476 467.788Z" fill="#0D0F10"/>
<path d="M503.024 482.115C497.391 479.202 495.654 469.5 496.354 465.729C500.801 462.868 510.807 466.899 514.266 470.02C519.578 474.814 519.784 482.158 520.813 486.667C516.654 485.886 508.658 485.028 503.024 482.115Z" fill="#FDB602"/>
<path fill-rule="evenodd" clip-rule="evenodd" d="M506.018 464.381C509.617 465.454 513.163 467.312 515.071 469.034C517.971 471.651 519.447 474.944 520.331 478.082C520.772 479.647 521.069 481.191 521.318 482.601C521.379 482.944 521.436 483.277 521.492 483.599C521.669 484.623 521.827 485.539 522.015 486.363C522.113 486.79 521.999 487.24 521.713 487.559C521.427 487.879 521.008 488.025 520.597 487.948C519.889 487.815 519.021 487.673 518.05 487.514C516.328 487.232 514.282 486.897 512.231 486.467C508.974 485.783 505.442 484.814 502.481 483.283C499.234 481.604 497.241 478.061 496.145 474.662C495.049 471.261 494.739 467.654 495.142 465.48C495.209 465.122 495.415 464.81 495.71 464.62C497.098 463.727 498.82 463.427 500.561 463.454C502.316 463.48 504.203 463.84 506.018 464.381ZM497.606 469.915C497.767 471.139 498.052 472.484 498.485 473.827C499.492 476.95 501.184 479.714 503.57 480.948C506.242 482.33 509.525 483.247 512.714 483.916C514.743 484.342 516.632 484.65 518.3 484.922C518.621 484.974 518.934 485.025 519.237 485.075C519.175 484.726 519.114 484.37 519.052 484.011C518.998 483.701 518.944 483.388 518.889 483.076C518.644 481.691 518.365 480.254 517.962 478.821C517.157 475.961 515.875 473.185 513.463 471.008C511.911 469.609 508.725 467.891 505.345 466.883C503.67 466.384 502.005 466.077 500.525 466.054C499.677 466.042 498.925 466.123 498.281 466.294C498.569 466.731 498.857 467.183 499.151 467.645C501.733 471.703 504.806 476.532 513.482 479.041C514.14 479.231 514.527 479.947 514.346 480.64C514.165 481.332 513.486 481.739 512.828 481.549C503.926 478.974 500.17 473.908 497.606 469.915Z" fill="#0D0F10"/>
<path d="M493.509 459.877C490.544 459.669 491.285 463.519 492.026 465.469H495.732C496.226 463.692 496.473 460.085 493.509 459.877Z" fill="#F5F5F5"/>
<path fill-rule="evenodd" clip-rule="evenodd" d="M492.914 464.167H494.745C494.826 463.567 494.839 462.917 494.721 462.37C494.633 461.962 494.49 461.69 494.324 461.52C494.174 461.367 493.922 461.208 493.435 461.173C492.959 461.14 492.838 461.271 492.815 461.295C492.815 461.296 492.815 461.296 492.815 461.296C492.758 461.357 492.651 461.537 492.617 461.969C492.567 462.608 492.705 463.424 492.914 464.167ZM491.047 459.479C491.698 458.777 492.599 458.508 493.599 458.578C494.595 458.648 495.424 459.018 496.046 459.655C496.652 460.275 496.972 461.055 497.131 461.796C497.442 463.242 497.206 464.829 496.926 465.833L496.666 466.768H491.199L490.888 465.951C490.489 464.9 490.039 463.229 490.155 461.755C490.214 461.008 490.431 460.142 491.047 459.479ZM504.357 497.38C505.013 497.577 505.393 498.297 505.205 498.988C504.932 499.993 504.353 501.594 503.479 503.249C502.609 504.895 501.402 506.684 499.839 507.976C496.977 510.344 493.805 512.095 492.54 512.692C491.918 512.986 491.187 512.693 490.908 512.037C490.629 511.382 490.907 510.613 491.53 510.319C492.653 509.789 495.641 508.141 498.313 505.931C499.518 504.934 500.534 503.472 501.32 501.985C502.101 500.505 502.609 499.088 502.83 498.273C503.017 497.583 503.701 497.183 504.357 497.38Z" fill="#0D0F10"/>
<defs>
<radialGradient id="paint0_radial_3020_18515" cx="0" cy="0" r="1" gradientUnits="userSpaceOnUse" gradientTransform="translate(1000 559.5) rotate(-169.481) scale(1279 898.725)">
<stop stop-color="white" stop-opacity="0.3"/>
<stop offset="1" stop-color="#0E0E0E"/>
</radialGradient>
<radialGradient id="paint1_radial_3020_18515" cx="0" cy="0" r="1" gradientUnits="userSpaceOnUse" gradientTransform="translate(120 468.5) rotate(-8.08774) scale(1051.96 739.194)">
<stop stop-color="white" stop-opacity="0.3"/>
<stop offset="1" stop-color="#0E0E0E"/>
</radialGradient>
<radialGradient id="paint2_radial_3020_18515" cx="0" cy="0" r="1" gradientUnits="userSpaceOnUse" gradientTransform="translate(229 517.5) rotate(-17.2872) scale(742.019 521.402)">
<stop stop-color="white" stop-opacity="0.3"/>
<stop offset="1" stop-color="#0E0E0E"/>
</radialGradient>
</defs>
</svg>
