<svg width="29" height="38" viewBox="0 0 29 38" fill="none" xmlns="http://www.w3.org/2000/svg">
<path d="M2.35668 10.0736C4.94817 5.52658 9.34958 4.76874 11.2264 4.9582C12.4604 5.47245 15.3758 6.79324 17.1652 7.96247C19.4019 9.42401 21.4072 15.1078 21.5615 18.8428C21.7157 22.5779 20.7902 26.3941 18.0136 30.6975C15.237 35.0009 10.4551 36.2189 7.987 36.9497C5.51891 37.6804 3.35959 35.7095 3.59072 33.9454C3.89923 31.5907 4.51625 29.3172 4.51625 27.4497C4.51625 25.9556 3.07653 23.038 2.35668 21.7659C1.27689 19.763 -0.234813 14.6206 2.35668 10.0736Z" fill="#F5F5F5"/>
<path fill-rule="evenodd" clip-rule="evenodd" d="M1.69582 9.65585C4.48133 4.76842 9.2163 3.93956 11.3005 4.14996L11.4092 4.16093L11.5107 4.20325C12.7516 4.72033 15.7211 6.0629 17.5724 7.27261C18.2642 7.72462 18.882 8.46045 19.4161 9.30324C19.9567 10.1563 20.4447 11.1718 20.8592 12.2441C21.6848 14.3804 22.2507 16.8274 22.3325 18.8076C22.4947 22.7342 21.5124 26.7206 18.6521 31.1538C15.8467 35.5018 11.1361 36.8742 8.59759 37.6138C8.45693 37.6548 8.32295 37.6938 8.19632 37.7313C6.72173 38.1679 5.32386 37.799 4.32613 37.0418C3.35325 36.3034 2.661 35.1028 2.82718 33.8344C2.94535 32.9326 3.10904 32.0346 3.26294 31.1903C3.31415 30.9093 3.36429 30.6342 3.4113 30.367C3.60376 29.2729 3.74548 28.3021 3.74548 27.4497C3.74548 27.1945 3.68062 26.8215 3.54298 26.3476C3.40851 25.8845 3.2185 25.3715 3.00109 24.8519C2.56605 23.8122 2.04143 22.7944 1.69458 22.1815L1.69042 22.1741L1.68641 22.1667C0.537403 20.0355 -1.09788 14.5577 1.69582 9.65585ZM11.0482 5.75725C9.31865 5.62743 5.36712 6.37056 3.01855 10.4914C0.632296 14.6783 2.01387 19.4785 3.0241 21.358C3.39706 22.0178 3.94975 23.0908 4.41274 24.1972C4.64524 24.7528 4.86015 25.3288 5.01813 25.8728C5.17293 26.4058 5.28803 26.9578 5.28803 27.4497C5.28803 28.4648 5.12125 29.5645 4.92807 30.6627C4.87722 30.9517 4.82459 31.2405 4.77188 31.5298C4.61995 32.3634 4.46739 33.2006 4.35527 34.0563C4.29033 34.552 4.56217 35.219 5.22819 35.7244C5.86936 36.211 6.78519 36.4622 7.77868 36.168C7.89161 36.1346 8.00846 36.1003 8.12888 36.065C10.7 35.311 14.8997 34.0794 17.3761 30.2413C20.069 26.0676 20.9378 22.4215 20.7914 18.8781C20.7189 17.1232 20.2051 14.8608 19.4303 12.8561C19.0446 11.8579 18.6022 10.945 18.1329 10.2045C17.6572 9.45385 17.1856 8.93113 16.759 8.65237C15.0792 7.55474 12.3271 6.29608 11.0482 5.75725Z" fill="#0D0F10"/>
<path d="M17.0104 14.7015C13.4934 12.8827 12.4084 6.82541 12.8455 4.47071C15.6221 2.68439 21.8694 5.20148 24.029 7.1502C27.3455 10.1429 27.474 14.7285 28.1168 17.5434C25.5201 17.0562 20.5274 16.5203 17.0104 14.7015Z" fill="#FDB602"/>
<path fill-rule="evenodd" clip-rule="evenodd" d="M18.8785 3.62852C21.1255 4.2984 23.3397 5.45901 24.5307 6.53366C26.3413 8.16753 27.2633 10.2235 27.8148 12.1827C28.09 13.1604 28.2757 14.1244 28.4313 15.0042C28.4692 15.2187 28.5051 15.4264 28.5398 15.6275C28.6501 16.2666 28.7489 16.839 28.8664 17.3535C28.9272 17.6199 28.8563 17.9007 28.6779 18.1001C28.4994 18.2995 28.2374 18.3908 27.9812 18.3427C27.5389 18.2597 26.9969 18.171 26.3906 18.0717C25.3153 17.8957 24.0381 17.6867 22.7577 17.418C20.724 16.9913 18.5188 16.3863 16.6701 15.4302C14.643 14.3819 13.3984 12.1698 12.7145 10.0479C12.03 7.92417 11.8363 5.67244 12.0883 4.31495C12.1297 4.09146 12.2585 3.89657 12.443 3.77783C13.3094 3.22049 14.3845 3.03342 15.4714 3.04981C16.5676 3.06633 17.7454 3.29073 18.8785 3.62852ZM13.6265 7.08419C13.727 7.8481 13.905 8.68766 14.1753 9.52611C14.8038 11.4762 15.8602 13.2021 17.3502 13.9726C19.0184 14.8354 21.0682 15.4077 23.0592 15.8254C24.326 16.0912 25.5056 16.2836 26.5469 16.4534C26.7472 16.486 26.9424 16.5179 27.1322 16.5492C27.0932 16.331 27.0549 16.1086 27.0162 15.8845C26.9828 15.6909 26.9492 15.496 26.9148 15.3013C26.7618 14.436 26.5876 13.5388 26.3358 12.6441C25.8332 10.8587 25.0326 9.12544 23.5268 7.76664C22.5581 6.89257 20.569 5.82028 18.4582 5.19101C17.4124 4.87923 16.3729 4.6875 15.4493 4.67357C14.9198 4.66559 14.4503 4.7163 14.0477 4.82304C14.228 5.09604 14.4074 5.37809 14.5909 5.66636C16.2033 8.20033 18.1216 11.2149 23.5389 12.7817C23.9496 12.9005 24.1911 13.3474 24.0783 13.7798C23.9655 14.2122 23.541 14.4664 23.1303 14.3476C17.5724 12.7402 15.2275 9.57683 13.6265 7.08419Z" fill="#0D0F10"/>
<path d="M11.0719 0.817073C9.2208 0.687158 9.68357 3.09058 10.1463 4.30853H12.4602C12.7687 3.19884 12.9229 0.946987 11.0719 0.817073Z" fill="#F5F5F5"/>
<path fill-rule="evenodd" clip-rule="evenodd" d="M10.6946 3.49641H11.838C11.8886 3.12181 11.8967 2.71584 11.8233 2.37437C11.7685 2.11917 11.679 1.94969 11.5751 1.84336C11.4818 1.74776 11.3245 1.64844 11.0203 1.62709C10.7229 1.60622 10.6472 1.6881 10.6333 1.70316C10.6331 1.70333 10.633 1.70349 10.6328 1.70364C10.5977 1.74156 10.531 1.8538 10.5098 2.12407C10.4785 2.5227 10.5644 3.03241 10.6946 3.49641ZM9.52915 0.569117C9.9358 0.130679 10.498 -0.0371045 11.1229 0.00675168C11.7442 0.0503586 12.2618 0.281234 12.6505 0.679074C13.0287 1.06619 13.2284 1.55338 13.3279 2.01609C13.5218 2.91888 13.3744 3.90945 13.2001 4.53645L13.0378 5.12034H9.62388L9.42995 4.60993C9.18074 3.95402 8.90024 2.9107 8.97249 1.99032C9.00912 1.52373 9.14494 0.983356 9.52915 0.569117ZM17.8393 24.2328C18.2489 24.356 18.4861 24.8054 18.369 25.2366C18.1986 25.8644 17.8367 26.8639 17.2912 27.8968C16.7481 28.9249 15.9942 30.0418 15.0189 30.8485C13.2316 32.3269 11.2515 33.4201 10.4616 33.7929C10.0729 33.9763 9.61651 33.7933 9.44227 33.3841C9.26802 32.9749 9.44187 32.4945 9.83057 32.311C10.5318 31.9801 12.3978 30.9514 14.0658 29.5716C14.8181 28.9493 15.4525 28.0363 15.943 27.1076C16.431 26.1836 16.7477 25.2993 16.8858 24.7904C17.0029 24.3593 17.4298 24.1096 17.8393 24.2328Z" fill="#0D0F10"/>
</svg>
