<svg width="429" height="340" viewBox="0 0 429 340" fill="none" xmlns="http://www.w3.org/2000/svg">
<g clip-path="url(#clip0_380_1990)">
<path d="M429 105.65C315.049 7.65234 108.321 -76.8423 96.7719 121.469M429 105.65C133.036 72.0064 31.6658 248.018 20.933 341M429 105.65C288.486 55.8797 20.933 70.9267 20.933 341M429 105.65C254.378 13.6705 140.238 82.8871 96.7719 121.469M429 105.65C392.941 73.5947 296.186 17.7117 197.634 50.6225M429 105.65C407.955 77.4955 348.695 22.5338 280.017 27.9231M429 105.65C420.146 82.6022 390.195 34.4984 341.227 26.466M429 105.65C323.654 118.978 244.074 151.492 185.7 189.515M429 105.65C394.952 117.338 341.952 141.1 288.5 175.701M429 105.65L361.63 166.374M429 105.65L394 174.348M429 105.65L415 180.489M96.7719 121.469C102.877 114.409 110.642 106.653 119.93 98.7057M96.7719 121.469C29.6333 191.224 95.8903 294.518 131.584 334M96.7719 121.469C87.555 132.449 70.6316 152.247 55.097 182.428M20.933 341C-4.47492 306.405 -27.4191 224.791 84.0679 175.098C139.38 150.444 207.843 146.802 271.163 152.329M20.933 341C20.7306 331.541 20.8623 322.412 21.2881 313.607M429 185.129C429 181.579 429 168.025 429 138.831M429 185.129C405.645 171.111 356.934 136.439 348.926 109.894C338.917 76.714 353.726 58.4629 385.883 56.2656C402.822 55.1081 425.279 59.4807 429 63.2103M429 185.129C424.7 183.62 420.021 182.065 415 180.489M53.6554 341C63.9034 309.757 93.2788 261.774 148.358 216.764M197.634 50.6225C205.279 47.3193 213.241 44.2391 221.502 41.4472M197.634 50.6225C191.801 53.1425 186.152 55.7923 180.695 58.5428M280.017 27.9231C299.389 25.4497 319.843 24.7781 341.227 26.466M280.017 27.9231C183.313 54.9426 203 162.5 250 202.615M280.017 27.9231C259.2 30.581 239.632 35.3196 221.502 41.4472M341.227 26.466C347.938 26.9957 354.741 27.7578 361.63 28.7695M429 87.5169C424.509 72.4539 410.521 40.7417 390.503 34.3969M429 87.5169C429 85.4963 429 83.4388 429 81.3438M429 87.5169C429 108.366 429 125.282 429 138.831M390.503 34.3969C403.093 37.4563 415.934 41.3703 429 46.2343C429 47.7111 429 49.1738 429 50.6225M390.503 34.3969C380.723 32.0203 371.095 30.1594 361.63 28.7695M429 81.3438C409.367 75.1707 387.423 81.3438 390.503 105.65C392.019 117.611 417.323 138.702 429 138.831M429 81.3438C429 75.5857 429 69.5448 429 63.2103M429 63.2103C429 59.1367 429 54.9417 429 50.6225M331.603 160.386C317.102 146.72 287.951 99.8631 301.19 72.47C325.058 23.0851 402.822 38.0347 429 50.6225M331.603 160.386C312.459 156.984 292.092 154.156 271.163 152.329M331.603 160.386L271.163 152.329M331.603 160.386C342.009 162.235 352.053 164.254 361.63 166.374M271.163 152.329C261.282 139.758 244.754 105.801 257.689 70.5409C273.858 26.466 348.926 26.6355 361.63 28.7695M271.163 152.329L288.5 175.701M185.7 189.515C164.526 155.411 142.044 78.0514 221.502 41.4472M185.7 189.515C172.125 198.357 159.697 207.498 148.358 216.764M185.7 189.515C187.466 192.843 213.8 229.724 215 231.324M148.358 216.764C126.671 181.501 102.777 100.49 180.695 58.5428M148.358 216.764C156.705 230.509 174.81 259.5 180.45 265.5M180.695 58.5428C156.399 70.7892 135.911 85.0317 119.93 98.7057M154.5 297.387C129.261 264.592 68.855 160.128 119.93 98.7057M84.0679 341C61.9309 313.092 25.1448 242.308 55.097 182.428M55.097 182.428C45.7184 200.65 36.8461 222.655 30.4813 248.789M49.4207 341C40.0025 324.41 23.0292 282.741 30.4813 248.789M30.4813 248.789C25.7795 268.096 22.4461 289.655 21.2881 313.607M27.4775 341C25.5327 339.2 21.5721 331.2 21.2881 313.607M128 341C141.468 313.749 159.577 288.541 180.45 265.5M180.45 265.5C212.263 230.384 250.496 200.303 288.5 175.701M361.63 166.374C373.159 168.926 384.011 171.623 394 174.348M394 174.348C401.514 176.397 408.54 178.461 415 180.489" stroke="url(#paint0_linear_380_1990)"/>
<path d="M429 105.65C315.049 7.65234 108.321 -76.8423 96.7719 121.469M429 105.65C133.036 72.0064 31.6658 248.018 20.933 341M429 105.65C288.486 55.8797 20.933 70.9267 20.933 341M429 105.65C254.378 13.6705 140.238 82.8871 96.7719 121.469M429 105.65C392.941 73.5947 296.186 17.7117 197.634 50.6225M429 105.65C407.955 77.4955 348.695 22.5338 280.017 27.9231M429 105.65C420.146 82.6022 390.195 34.4984 341.227 26.466M429 105.65C323.654 118.978 244.074 151.492 185.7 189.515M429 105.65C394.952 117.338 341.952 141.1 288.5 175.701M429 105.65L361.63 166.374M429 105.65L394 174.348M429 105.65L415 180.489M96.7719 121.469C102.877 114.409 110.642 106.653 119.93 98.7057M96.7719 121.469C29.6333 191.224 95.8903 294.518 131.584 334M96.7719 121.469C87.555 132.449 70.6316 152.247 55.097 182.428M20.933 341C-4.47492 306.405 -27.4191 224.791 84.0679 175.098C139.38 150.444 207.843 146.802 271.163 152.329M20.933 341C20.7306 331.541 20.8623 322.412 21.2881 313.607M429 185.129C429 181.579 429 168.025 429 138.831M429 185.129C405.645 171.111 356.934 136.439 348.926 109.894C338.917 76.714 353.726 58.4629 385.883 56.2656C402.822 55.1081 425.279 59.4807 429 63.2103M429 185.129C424.7 183.62 420.021 182.065 415 180.489M53.6554 341C63.9034 309.757 93.2788 261.774 148.358 216.764M197.634 50.6225C205.279 47.3193 213.241 44.2391 221.502 41.4472M197.634 50.6225C191.801 53.1425 186.152 55.7923 180.695 58.5428M280.017 27.9231C299.389 25.4497 319.843 24.7781 341.227 26.466M280.017 27.9231C183.313 54.9426 203 162.5 250 202.615M280.017 27.9231C259.2 30.581 239.632 35.3196 221.502 41.4472M341.227 26.466C347.938 26.9957 354.741 27.7578 361.63 28.7695M429 87.5169C424.509 72.4539 410.521 40.7417 390.503 34.3969M429 87.5169C429 85.4963 429 83.4388 429 81.3438M429 87.5169C429 108.366 429 125.282 429 138.831M390.503 34.3969C403.093 37.4563 415.934 41.3703 429 46.2343C429 47.7111 429 49.1738 429 50.6225M390.503 34.3969C380.723 32.0203 371.095 30.1594 361.63 28.7695M429 81.3438C409.367 75.1707 387.423 81.3438 390.503 105.65C392.019 117.611 417.323 138.702 429 138.831M429 81.3438C429 75.5857 429 69.5448 429 63.2103M429 63.2103C429 59.1367 429 54.9417 429 50.6225M331.603 160.386C317.102 146.72 287.951 99.8631 301.19 72.47C325.058 23.0851 402.822 38.0347 429 50.6225M331.603 160.386C312.459 156.984 292.092 154.156 271.163 152.329M331.603 160.386L271.163 152.329M331.603 160.386C342.009 162.235 352.053 164.254 361.63 166.374M271.163 152.329C261.282 139.758 244.754 105.801 257.689 70.5409C273.858 26.466 348.926 26.6355 361.63 28.7695M271.163 152.329L288.5 175.701M185.7 189.515C164.526 155.411 142.044 78.0514 221.502 41.4472M185.7 189.515C172.125 198.357 159.697 207.498 148.358 216.764M185.7 189.515C187.466 192.843 213.8 229.724 215 231.324M148.358 216.764C126.671 181.501 102.777 100.49 180.695 58.5428M148.358 216.764C156.705 230.509 174.81 259.5 180.45 265.5M180.695 58.5428C156.399 70.7892 135.911 85.0317 119.93 98.7057M154.5 297.387C129.261 264.592 68.855 160.128 119.93 98.7057M84.0679 341C61.9309 313.092 25.1448 242.308 55.097 182.428M55.097 182.428C45.7184 200.65 36.8461 222.655 30.4813 248.789M49.4207 341C40.0025 324.41 23.0292 282.741 30.4813 248.789M30.4813 248.789C25.7795 268.096 22.4461 289.655 21.2881 313.607M27.4775 341C25.5327 339.2 21.5721 331.2 21.2881 313.607M128 341C141.468 313.749 159.577 288.541 180.45 265.5M180.45 265.5C212.263 230.384 250.496 200.303 288.5 175.701M361.63 166.374C373.159 168.926 384.011 171.623 394 174.348M394 174.348C401.514 176.397 408.54 178.461 415 180.489" stroke="url(#paint1_linear_380_1990)"/>
</g>
<defs>
<linearGradient id="paint0_linear_380_1990" x1="25.5865" y1="225.673" x2="374.06" y2="-66.6512" gradientUnits="userSpaceOnUse">
<stop stop-color="#E08C00"/>
<stop offset="0.765747" stop-color="#FFE647"/>
</linearGradient>
<linearGradient id="paint1_linear_380_1990" x1="174.596" y1="-8.66961" x2="311.5" y2="341" gradientUnits="userSpaceOnUse">
<stop offset="0.421149" stop-color="white" stop-opacity="0"/>
<stop offset="0.684345" stop-color="white"/>
</linearGradient>
<clipPath id="clip0_380_1990">
<rect width="429" height="340" fill="white"/>
</clipPath>
</defs>
</svg>
