<svg width="416" height="232" viewBox="0 0 416 232" fill="none" xmlns="http://www.w3.org/2000/svg">
<g clip-path="url(#clip0_1166_18533)">
<path d="M6.75836 165.452L1.31995 159.672C0.583071 158.889 0.597314 157.663 1.3522 156.897L9.31718 148.817C10.1373 147.985 11.4929 148.03 12.256 148.915L17.719 155.249C18.4182 156.059 18.3551 157.277 17.5759 158.011L9.58631 165.537C8.78197 166.295 7.5156 166.256 6.75836 165.452Z" fill="url(#paint0_linear_1166_18533)"/>
<path d="M22.2172 130.965L14.5736 138.432C13.7911 139.197 13.7679 140.448 14.5216 141.241L22.1652 149.282C22.9536 150.112 24.276 150.112 25.0644 149.282L32.708 141.241C33.4617 140.448 33.4385 139.197 32.656 138.432L25.0124 130.965C24.2353 130.206 22.9943 130.206 22.2172 130.965Z" fill="url(#paint1_linear_1166_18533)"/>
<path d="M35.0082 113.329L27.7087 120.734C26.9411 121.513 26.9411 122.764 27.7087 123.542L38.009 133.992C38.8127 134.807 40.1356 134.782 40.9086 133.938L48.2301 125.939C48.9648 125.136 48.923 123.894 48.136 123.142L37.8137 113.287C37.0238 112.532 35.7749 112.551 35.0082 113.329Z" fill="url(#paint2_linear_1166_18533)"/>
<path d="M48.1468 95.3425L40.8527 103.027C40.0966 103.823 40.1242 105.08 40.9144 105.843L53.8795 118.354C54.69 119.136 55.9862 119.095 56.7455 118.263L63.7422 110.597C64.4658 109.804 64.4346 108.582 63.6715 107.827L51.0038 95.2975C50.2071 94.5094 48.9184 94.5297 48.1468 95.3425Z" fill="url(#paint3_linear_1166_18533)"/>
<path d="M61.2913 77.6887L53.996 85.3741C53.2475 86.1626 53.266 87.4047 54.0378 88.1706L68.9771 102.997C69.7843 103.798 71.0964 103.765 71.8631 102.925L78.8565 95.2631C79.5735 94.4775 79.5503 93.2682 78.8036 92.5107L64.1662 77.6616C63.3725 76.8564 62.0696 76.8687 61.2913 77.6887Z" fill="url(#paint4_linear_1166_18533)"/>
<path d="M74.4676 60.0012L67.1569 67.7029C66.409 68.4908 66.4268 69.7318 67.1971 70.4979L84.1037 87.3127C84.8998 88.1045 86.1916 88.086 86.9646 87.2716L94.2754 79.5699C95.0233 78.7819 95.0055 77.541 94.2352 76.7749L77.3286 59.96C76.5324 59.1682 75.2407 59.1868 74.4676 60.0012Z" fill="url(#paint5_linear_1166_18533)"/>
<path d="M87.6279 42.6152L80.0368 50.0309C79.2392 50.8101 79.2328 52.091 80.0226 52.8781L99.2017 71.9933C99.9976 72.7865 101.291 72.7686 102.064 71.9537L109.375 64.2522C110.122 63.4648 110.105 62.2248 109.336 61.4585L90.4372 42.629C89.6621 41.8569 88.4105 41.8507 87.6279 42.6152Z" fill="url(#paint6_linear_1166_18533)"/>
<path d="M101.153 24.2349L93.1558 32.3477C92.3794 33.1353 92.3896 34.4035 93.1786 35.1785L114.687 56.3053C115.484 57.0887 116.769 57.0662 117.539 56.2554L124.883 48.5191C125.621 47.7413 125.614 46.5196 124.868 45.7497L104.013 24.2465C103.232 23.441 101.941 23.4357 101.153 24.2349Z" fill="url(#paint7_linear_1166_18533)"/>
<path d="M142.181 0.667132C126.417 0.00690795 114.115 8.76324 108.794 14.3876C108.099 15.1226 108.142 16.2562 108.841 16.9876C115.674 24.1338 127.586 36.3405 132.269 40.2502C132.997 40.8575 134.028 40.7368 134.806 40.1956C136.996 38.672 139.947 37.874 142.134 37.5224C143.182 37.354 144.012 36.4848 144.012 35.424V2.6162C144.012 1.57916 143.218 0.710525 142.181 0.667132Z" fill="url(#paint8_linear_1166_18533)"/>
<path d="M165.239 0.785459H154.528C153.424 0.785459 152.528 1.68089 152.528 2.78546V35.9849C152.528 37.1314 153.49 38.0432 154.635 37.9821L165.346 37.4102C166.407 37.3535 167.239 36.4762 167.239 35.413V2.78546C167.239 1.68089 166.344 0.785459 165.239 0.785459Z" fill="url(#paint9_linear_1166_18533)"/>
<path d="M173.82 35.408V2.78546C173.82 1.68089 174.716 0.785459 175.82 0.785459H187.305C188.41 0.785459 189.305 1.68089 189.305 2.78546V35.9905C189.305 37.1349 188.347 38.0459 187.204 37.988L175.719 37.4054C174.655 37.3514 173.82 36.4732 173.82 35.408Z" fill="url(#paint10_linear_1166_18533)"/>
<path d="M208.598 0.785459H197.5C196.395 0.785459 195.5 1.68089 195.5 2.78546V36.0945C195.5 37.1991 196.395 38.0945 197.5 38.0945H208.598C209.702 38.0945 210.598 37.1991 210.598 36.0945V2.78546C210.598 1.68089 209.702 0.785459 208.598 0.785459Z" fill="url(#paint11_linear_1166_18533)"/>
<path d="M230.664 0.785459H219.179C218.074 0.785459 217.179 1.68089 217.179 2.78546V35.9905C217.179 37.1349 218.137 38.0459 219.28 37.988L230.765 37.4054C231.829 37.3514 232.664 36.4732 232.664 35.408V2.78546C232.664 1.68089 231.768 0.785459 230.664 0.785459Z" fill="url(#paint12_linear_1166_18533)"/>
<path d="M252.343 0H241.245C240.14 0 239.245 0.895426 239.245 2V36.0945C239.245 37.1991 240.14 38.0945 241.245 38.0945H252.343C253.448 38.0945 254.343 37.1991 254.343 36.0946V2C254.343 0.895431 253.448 0 252.343 0Z" fill="url(#paint13_linear_1166_18533)"/>
<path d="M260.15 35.4056V2C260.15 0.895431 261.045 0 262.15 0H274.022C275.127 0 276.022 0.895426 276.022 2V35.9931C276.022 37.1365 275.065 38.0472 273.923 37.9907L262.051 37.4032C260.986 37.3505 260.15 36.4718 260.15 35.4056Z" fill="url(#paint14_linear_1166_18533)"/>
<path d="M281.829 35.3091V2C281.829 0.895431 282.724 0 283.829 0H295.701C296.806 0 297.701 0.895432 297.701 2V35.3091C297.701 36.4137 296.806 37.3091 295.701 37.3091H283.829C282.724 37.3091 281.829 36.4137 281.829 35.3091Z" fill="url(#paint15_linear_1166_18533)"/>
<path d="M303.895 35.3091V2C303.895 0.895431 304.791 0 305.895 0H317.768C318.872 0 319.768 0.895432 319.768 2V35.3091C319.768 36.4137 318.872 37.3091 317.768 37.3091H305.895C304.791 37.3091 303.895 36.4137 303.895 35.3091Z" fill="url(#paint16_linear_1166_18533)"/>
<path d="M325.574 36.0946V2C325.574 0.895431 326.47 0 327.574 0H339.06C340.164 0 341.06 0.895426 341.06 2V36.0945C341.06 37.1991 340.164 38.0945 339.06 38.0945H327.574C326.47 38.0945 325.574 37.1991 325.574 36.0946Z" fill="url(#paint17_linear_1166_18533)"/>
<path d="M347.254 36.0946V2C347.254 0.895431 348.149 0 349.254 0H360.739C361.843 0 362.739 0.895426 362.739 2V36.0945C362.739 37.1991 361.843 38.0945 360.739 38.0945H349.254C348.149 38.0945 347.254 37.1991 347.254 36.0946Z" fill="url(#paint18_linear_1166_18533)"/>
<path d="M368.546 36.0946V2C368.546 0.895431 369.441 0 370.546 0H382.418C383.522 0 384.418 0.895426 384.418 2V36.0945C384.418 37.1991 383.522 38.0945 382.418 38.0945H370.546C369.441 38.0945 368.546 37.1991 368.546 36.0946Z" fill="url(#paint19_linear_1166_18533)"/>
<path d="M22 196.969V232H416V67H155.744C148.752 67 142.032 69.7129 136.999 74.5676L30.2548 177.537C24.9797 182.626 22 189.64 22 196.969Z" fill="#FAFAFA"/>
<g filter="url(#filter0_dd_1166_18533)">
<path d="M40 145C40 142.791 41.7909 141 44 141H66C68.2091 141 70 142.791 70 145V167C70 169.209 68.2091 171 66 171H44C41.7909 171 40 169.209 40 167V145Z" fill="white" shape-rendering="crispEdges"/>
<path d="M40.25 145C40.25 142.929 41.9289 141.25 44 141.25H66C68.0711 141.25 69.75 142.929 69.75 145V167C69.75 169.071 68.0711 170.75 66 170.75H44C41.9289 170.75 40.25 169.071 40.25 167V145Z" stroke="#F5F5F5" stroke-width="0.5" shape-rendering="crispEdges"/>
<path d="M53.744 160.5V152.316L54.272 152.724H51.752V151.74H54.896V160.5H53.744ZM51.656 160.5V159.516H56.84V160.5H51.656Z" fill="#0D0D0D"/>
</g>
<g filter="url(#filter1_dd_1166_18533)">
<path d="M89 98C89 95.7909 90.7909 94 93 94H115C117.209 94 119 95.7909 119 98V120C119 122.209 117.209 124 115 124H93C90.7909 124 89 122.209 89 120V98Z" fill="white" shape-rendering="crispEdges"/>
<path d="M89.25 98C89.25 95.9289 90.9289 94.25 93 94.25H115C117.071 94.25 118.75 95.9289 118.75 98V120C118.75 122.071 117.071 123.75 115 123.75H93C90.9289 123.75 89.25 122.071 89.25 120V98Z" stroke="#F5F5F5" stroke-width="0.5" shape-rendering="crispEdges"/>
<path d="M100.224 113.5V112.06C100.224 111.708 100.276 111.408 100.38 111.16C100.492 110.912 100.672 110.688 100.92 110.488C101.176 110.288 101.52 110.088 101.952 109.888L103.572 109.132C104.004 108.924 104.336 108.676 104.568 108.388C104.8 108.092 104.916 107.716 104.916 107.26C104.916 106.716 104.752 106.288 104.424 105.976C104.104 105.664 103.656 105.508 103.08 105.508C102.512 105.508 102.064 105.664 101.736 105.976C101.416 106.288 101.256 106.724 101.256 107.284H100.128C100.128 106.78 100.232 106.316 100.44 105.892C100.656 105.468 100.98 105.132 101.412 104.884C101.852 104.628 102.408 104.5 103.08 104.5C103.752 104.5 104.304 104.628 104.736 104.884C105.176 105.132 105.504 105.46 105.72 105.868C105.936 106.276 106.044 106.712 106.044 107.176V107.344C106.044 107.976 105.864 108.508 105.504 108.94C105.144 109.364 104.636 109.728 103.98 110.032L102.36 110.788C101.976 110.964 101.716 111.136 101.58 111.304C101.444 111.464 101.376 111.684 101.376 111.964V113.068L101.064 112.516H106.152V113.5H100.224Z" fill="#0D0D0D"/>
</g>
<g filter="url(#filter2_dd_1166_18533)">
<path d="M137 56C137 53.7909 138.791 52 141 52H163C165.209 52 167 53.7909 167 56V78C167 80.2091 165.209 82 163 82H141C138.791 82 137 80.2091 137 78V56Z" fill="white" shape-rendering="crispEdges"/>
<path d="M137.25 56C137.25 53.9289 138.929 52.25 141 52.25H163C165.071 52.25 166.75 53.9289 166.75 56V78C166.75 80.0711 165.071 81.75 163 81.75H141C138.929 81.75 137.25 80.0711 137.25 78V56Z" stroke="#F5F5F5" stroke-width="0.5" shape-rendering="crispEdges"/>
<path d="M150.984 71.716C150.328 71.716 149.768 71.588 149.304 71.332C148.84 71.076 148.488 70.736 148.248 70.312C148.008 69.888 147.888 69.428 147.888 68.932H149.016C149.016 69.476 149.192 69.908 149.544 70.228C149.904 70.548 150.384 70.708 150.984 70.708C151.384 70.708 151.728 70.636 152.016 70.492C152.312 70.348 152.54 70.144 152.7 69.88C152.868 69.608 152.952 69.292 152.952 68.932C152.952 68.388 152.772 67.948 152.412 67.612C152.052 67.276 151.58 67.108 150.996 67.108C150.78 67.108 150.576 67.136 150.384 67.192C150.2 67.24 150.036 67.312 149.892 67.408L149.268 66.448L152.652 63.94L152.532 63.724H148.236V62.74H153.624V64.336L150.792 66.412L149.928 66.424C150.04 66.368 150.2 66.32 150.408 66.28C150.616 66.24 150.804 66.22 150.972 66.22C151.628 66.22 152.188 66.34 152.652 66.58C153.116 66.82 153.468 67.14 153.708 67.54C153.956 67.94 154.08 68.376 154.08 68.848V69.016C154.08 69.48 153.96 69.92 153.72 70.336C153.48 70.744 153.128 71.076 152.664 71.332C152.208 71.588 151.648 71.716 150.984 71.716Z" fill="#0D0D0D"/>
</g>
<g filter="url(#filter3_dd_1166_18533)">
<path d="M204 56C204 53.7909 205.791 52 208 52H230C232.209 52 234 53.7909 234 56V78C234 80.2091 232.209 82 230 82H208C205.791 82 204 80.2091 204 78V56Z" fill="white" shape-rendering="crispEdges"/>
<path d="M204.25 56C204.25 53.9289 205.929 52.25 208 52.25H230C232.071 52.25 233.75 53.9289 233.75 56V78C233.75 80.0711 232.071 81.75 230 81.75H208C205.929 81.75 204.25 80.0711 204.25 78V56Z" stroke="#F5F5F5" stroke-width="0.5" shape-rendering="crispEdges"/>
<path d="M214.744 69.424V68.008L218.344 62.524L219.148 63.16L215.788 68.296L215.896 68.512H221.584V69.424H214.744ZM219.352 71.5V65.296H220.432V71.5H219.352Z" fill="#0D0D0D"/>
</g>
<g filter="url(#filter4_dd_1166_18533)">
<path d="M271 56C271 53.7909 272.791 52 275 52H297C299.209 52 301 53.7909 301 56V78C301 80.2091 299.209 82 297 82H275C272.791 82 271 80.2091 271 78V56Z" fill="white" shape-rendering="crispEdges"/>
<path d="M271.25 56C271.25 53.9289 272.929 52.25 275 52.25H297C299.071 52.25 300.75 53.9289 300.75 56V78C300.75 80.0711 299.071 81.75 297 81.75H275C272.929 81.75 271.25 80.0711 271.25 78V56Z" stroke="#F5F5F5" stroke-width="0.5" shape-rendering="crispEdges"/>
<path d="M285.176 71.716C284.504 71.716 283.932 71.58 283.46 71.308C282.988 71.028 282.628 70.664 282.38 70.216C282.14 69.768 282.02 69.292 282.02 68.788H283.124C283.124 69.156 283.208 69.488 283.376 69.784C283.552 70.072 283.792 70.3 284.096 70.468C284.408 70.628 284.768 70.708 285.176 70.708C285.584 70.708 285.94 70.624 286.244 70.456C286.556 70.288 286.796 70.06 286.964 69.772C287.14 69.484 287.228 69.156 287.228 68.788C287.228 68.42 287.14 68.088 286.964 67.792C286.796 67.496 286.556 67.26 286.244 67.084C285.94 66.908 285.584 66.82 285.176 66.82C284.88 66.82 284.572 66.872 284.252 66.976C283.94 67.072 283.692 67.212 283.508 67.396H282.44L282.884 62.74H287.564V63.724H283.556L283.844 63.328L283.508 66.724L283.196 66.616C283.34 66.456 283.512 66.32 283.712 66.208C283.912 66.096 284.14 66.012 284.396 65.956C284.652 65.892 284.928 65.86 285.224 65.86C285.888 65.86 286.452 66 286.916 66.28C287.38 66.552 287.732 66.908 287.972 67.348C288.212 67.78 288.332 68.232 288.332 68.704V68.872C288.332 69.344 288.208 69.8 287.96 70.24C287.72 70.672 287.364 71.028 286.892 71.308C286.42 71.58 285.848 71.716 285.176 71.716Z" fill="#0D0D0D"/>
</g>
<g filter="url(#filter5_dd_1166_18533)">
<path d="M338 56C338 53.7909 339.791 52 342 52H364C366.209 52 368 53.7909 368 56V78C368 80.2091 366.209 82 364 82H342C339.791 82 338 80.2091 338 78V56Z" fill="white" shape-rendering="crispEdges"/>
<path d="M338.25 56C338.25 53.9289 339.929 52.25 342 52.25H364C366.071 52.25 367.75 53.9289 367.75 56V78C367.75 80.0711 366.071 81.75 364 81.75H342C339.929 81.75 338.25 80.0711 338.25 78V56Z" stroke="#F5F5F5" stroke-width="0.5" shape-rendering="crispEdges"/>
<path d="M352.332 71.74C351.7 71.74 351.168 71.628 350.736 71.404C350.312 71.18 349.972 70.872 349.716 70.48C349.468 70.08 349.288 69.624 349.176 69.112C349.072 68.6 349.02 68.06 349.02 67.492V66.904C349.02 65.568 349.368 64.532 350.064 63.796C350.76 63.052 351.744 62.68 353.016 62.68C353.32 62.68 353.58 62.688 353.796 62.704C354.02 62.72 354.256 62.744 354.504 62.776V63.76C354.248 63.728 354.004 63.704 353.772 63.688C353.548 63.672 353.28 63.664 352.968 63.664C352.248 63.664 351.676 63.8 351.252 64.072C350.828 64.336 350.524 64.724 350.34 65.236C350.164 65.74 350.076 66.352 350.076 67.072V68.68H349.788C349.796 68.088 349.908 67.584 350.124 67.168C350.348 66.744 350.66 66.42 351.06 66.196C351.46 65.972 351.928 65.86 352.464 65.86C353.12 65.86 353.664 65.988 354.096 66.244C354.528 66.492 354.852 66.836 355.068 67.276C355.284 67.716 355.392 68.216 355.392 68.776C355.392 69.344 355.276 69.852 355.044 70.3C354.812 70.748 354.468 71.1 354.012 71.356C353.564 71.612 353.004 71.74 352.332 71.74ZM352.332 70.732C352.74 70.732 353.088 70.644 353.376 70.468C353.672 70.292 353.896 70.056 354.048 69.76C354.208 69.464 354.288 69.136 354.288 68.776C354.288 68.376 354.22 68.032 354.084 67.744C353.948 67.448 353.736 67.22 353.448 67.06C353.168 66.9 352.804 66.82 352.356 66.82C351.964 66.82 351.612 66.9 351.3 67.06C350.988 67.212 350.74 67.436 350.556 67.732C350.38 68.02 350.292 68.368 350.292 68.776C350.292 69.144 350.36 69.476 350.496 69.772C350.632 70.068 350.848 70.304 351.144 70.48C351.448 70.648 351.844 70.732 352.332 70.732Z" fill="#0D0D0D"/>
</g>
<path d="M293.034 170.608C291.562 170.608 290.271 170.363 289.162 169.872C288.074 169.36 287.167 168.677 286.442 167.824C285.738 166.949 285.205 165.989 284.842 164.944C284.501 163.877 284.33 162.8 284.33 161.712V161.136C284.33 160.005 284.511 158.917 284.874 157.872C285.237 156.805 285.781 155.845 286.506 154.992C287.231 154.139 288.127 153.467 289.194 152.976C290.282 152.464 291.551 152.208 293.002 152.208C294.474 152.208 295.786 152.485 296.938 153.04C298.111 153.595 299.05 154.384 299.754 155.408C300.458 156.411 300.853 157.584 300.938 158.928H297.322C297.194 157.968 296.757 157.157 296.01 156.496C295.285 155.835 294.282 155.504 293.002 155.504C291.893 155.504 290.975 155.76 290.25 156.272C289.525 156.784 288.981 157.488 288.618 158.384C288.255 159.259 288.074 160.272 288.074 161.424C288.074 162.533 288.245 163.536 288.586 164.432C288.949 165.328 289.493 166.032 290.218 166.544C290.965 167.056 291.903 167.312 293.034 167.312C293.909 167.312 294.655 167.163 295.274 166.864C295.914 166.544 296.426 166.128 296.81 165.616C297.194 165.083 297.418 164.475 297.482 163.792H301.13C301.066 165.179 300.671 166.384 299.946 167.408C299.221 168.411 298.261 169.2 297.066 169.776C295.871 170.331 294.527 170.608 293.034 170.608Z" fill="#FDB602"/>
<path d="M273.347 170.608C271.854 170.608 270.553 170.352 269.443 169.84C268.334 169.328 267.427 168.656 266.723 167.824C266.019 166.971 265.486 166.021 265.123 164.976C264.782 163.909 264.611 162.821 264.611 161.712V161.104C264.611 159.973 264.782 158.885 265.123 157.84C265.486 156.773 266.019 155.824 266.723 154.992C267.427 154.139 268.313 153.467 269.379 152.976C270.467 152.464 271.726 152.208 273.155 152.208C275.011 152.208 276.558 152.613 277.795 153.424C279.033 154.235 279.961 155.291 280.579 156.592C281.198 157.872 281.507 159.259 281.507 160.752V162.256H266.211V159.728H278.979L277.955 161.008C277.955 159.856 277.774 158.864 277.411 158.032C277.049 157.179 276.515 156.528 275.811 156.08C275.107 155.611 274.222 155.376 273.155 155.376C272.046 155.376 271.118 155.632 270.371 156.144C269.625 156.656 269.07 157.36 268.707 158.256C268.345 159.152 268.163 160.208 268.163 161.424C268.163 162.576 268.345 163.611 268.707 164.528C269.07 165.424 269.635 166.139 270.403 166.672C271.171 167.184 272.153 167.44 273.347 167.44C274.542 167.44 275.523 167.184 276.291 166.672C277.059 166.139 277.529 165.52 277.699 164.816H281.187C280.953 165.989 280.473 167.013 279.747 167.888C279.043 168.763 278.147 169.435 277.059 169.904C275.971 170.373 274.734 170.608 273.347 170.608Z" fill="#FDB602"/>
<path d="M254.403 170.544C252.078 170.544 250.265 170.053 248.963 169.072C247.683 168.091 247.011 166.736 246.947 165.008H250.403C250.446 165.648 250.777 166.235 251.395 166.768C252.014 167.301 253.027 167.568 254.435 167.568C255.63 167.568 256.569 167.333 257.251 166.864C257.934 166.395 258.275 165.808 258.275 165.104C258.275 164.464 258.019 163.963 257.507 163.6C257.017 163.216 256.174 162.96 254.979 162.832L253.283 162.672C251.513 162.48 250.105 161.957 249.059 161.104C248.035 160.251 247.523 159.099 247.523 157.648C247.523 156.496 247.811 155.525 248.387 154.736C248.963 153.947 249.753 153.339 250.755 152.912C251.779 152.485 252.953 152.272 254.275 152.272C256.323 152.272 257.977 152.731 259.235 153.648C260.494 154.544 261.145 155.867 261.187 157.616H257.763C257.721 156.955 257.411 156.4 256.835 155.952C256.259 155.504 255.406 155.28 254.275 155.28C253.209 155.28 252.387 155.493 251.811 155.92C251.257 156.347 250.979 156.891 250.979 157.552C250.979 158.149 251.193 158.619 251.619 158.96C252.046 159.301 252.739 159.525 253.699 159.632L255.395 159.792C257.337 160.005 258.873 160.549 260.003 161.424C261.155 162.277 261.731 163.472 261.731 165.008C261.731 166.117 261.422 167.088 260.803 167.92C260.185 168.752 259.321 169.403 258.211 169.872C257.123 170.32 255.854 170.544 254.403 170.544Z" fill="#FDB602"/>
<path d="M223.061 170.032L232.469 150.192L232.245 149.84H219.541V146.672H236.341V150.224L227.029 170.032H223.061ZM219.541 153.808V146.672H222.645V153.808H219.541Z" fill="#FDB602"/>
<path d="M210.561 170.032V165.52H214.913V170.032H210.561Z" fill="#FDB602"/>
<path d="M197.672 170.672C195.645 170.672 193.992 170.181 192.712 169.2C191.432 168.219 190.493 166.864 189.896 165.136C189.299 163.387 189 161.381 189 159.12V157.648C189 155.259 189.32 153.2 189.96 151.472C190.6 149.723 191.56 148.379 192.84 147.44C194.141 146.48 195.752 146 197.672 146C199.613 146 201.224 146.48 202.504 147.44C203.784 148.379 204.744 149.723 205.384 151.472C206.024 153.2 206.344 155.259 206.344 157.648V159.12C206.344 161.381 206.045 163.387 205.448 165.136C204.851 166.864 203.912 168.219 202.632 169.2C201.352 170.181 199.699 170.672 197.672 170.672ZM197.672 167.248C198.824 167.248 199.752 166.949 200.456 166.352C201.181 165.733 201.704 164.773 202.024 163.472C202.365 162.149 202.536 160.464 202.536 158.416C202.536 156.261 202.365 154.523 202.024 153.2C201.683 151.877 201.149 150.928 200.424 150.352C199.72 149.755 198.803 149.456 197.672 149.456C196.563 149.456 195.645 149.755 194.92 150.352C194.195 150.928 193.661 151.877 193.32 153.2C192.979 154.501 192.808 156.219 192.808 158.352C192.808 160.421 192.968 162.117 193.288 163.44C193.629 164.763 194.163 165.733 194.888 166.352C195.613 166.949 196.541 167.248 197.672 167.248Z" fill="#FDB602"/>
</g>
<defs>
<filter id="filter0_dd_1166_18533" x="34" y="139" width="42" height="42" filterUnits="userSpaceOnUse" color-interpolation-filters="sRGB">
<feFlood flood-opacity="0" result="BackgroundImageFix"/>
<feColorMatrix in="SourceAlpha" type="matrix" values="0 0 0 0 0 0 0 0 0 0 0 0 0 0 0 0 0 0 127 0" result="hardAlpha"/>
<feOffset dy="1"/>
<feGaussianBlur stdDeviation="1"/>
<feComposite in2="hardAlpha" operator="out"/>
<feColorMatrix type="matrix" values="0 0 0 0 0.0784314 0 0 0 0 0.0784314 0 0 0 0 0.0784314 0 0 0 0.08 0"/>
<feBlend mode="normal" in2="BackgroundImageFix" result="effect1_dropShadow_1166_18533"/>
<feColorMatrix in="SourceAlpha" type="matrix" values="0 0 0 0 0 0 0 0 0 0 0 0 0 0 0 0 0 0 127 0" result="hardAlpha"/>
<feOffset dy="4"/>
<feGaussianBlur stdDeviation="3"/>
<feComposite in2="hardAlpha" operator="out"/>
<feColorMatrix type="matrix" values="0 0 0 0 0.0784314 0 0 0 0 0.0784314 0 0 0 0 0.0784314 0 0 0 0.04 0"/>
<feBlend mode="normal" in2="effect1_dropShadow_1166_18533" result="effect2_dropShadow_1166_18533"/>
<feBlend mode="normal" in="SourceGraphic" in2="effect2_dropShadow_1166_18533" result="shape"/>
</filter>
<filter id="filter1_dd_1166_18533" x="83" y="92" width="42" height="42" filterUnits="userSpaceOnUse" color-interpolation-filters="sRGB">
<feFlood flood-opacity="0" result="BackgroundImageFix"/>
<feColorMatrix in="SourceAlpha" type="matrix" values="0 0 0 0 0 0 0 0 0 0 0 0 0 0 0 0 0 0 127 0" result="hardAlpha"/>
<feOffset dy="1"/>
<feGaussianBlur stdDeviation="1"/>
<feComposite in2="hardAlpha" operator="out"/>
<feColorMatrix type="matrix" values="0 0 0 0 0.0784314 0 0 0 0 0.0784314 0 0 0 0 0.0784314 0 0 0 0.08 0"/>
<feBlend mode="normal" in2="BackgroundImageFix" result="effect1_dropShadow_1166_18533"/>
<feColorMatrix in="SourceAlpha" type="matrix" values="0 0 0 0 0 0 0 0 0 0 0 0 0 0 0 0 0 0 127 0" result="hardAlpha"/>
<feOffset dy="4"/>
<feGaussianBlur stdDeviation="3"/>
<feComposite in2="hardAlpha" operator="out"/>
<feColorMatrix type="matrix" values="0 0 0 0 0.0784314 0 0 0 0 0.0784314 0 0 0 0 0.0784314 0 0 0 0.04 0"/>
<feBlend mode="normal" in2="effect1_dropShadow_1166_18533" result="effect2_dropShadow_1166_18533"/>
<feBlend mode="normal" in="SourceGraphic" in2="effect2_dropShadow_1166_18533" result="shape"/>
</filter>
<filter id="filter2_dd_1166_18533" x="131" y="50" width="42" height="42" filterUnits="userSpaceOnUse" color-interpolation-filters="sRGB">
<feFlood flood-opacity="0" result="BackgroundImageFix"/>
<feColorMatrix in="SourceAlpha" type="matrix" values="0 0 0 0 0 0 0 0 0 0 0 0 0 0 0 0 0 0 127 0" result="hardAlpha"/>
<feOffset dy="1"/>
<feGaussianBlur stdDeviation="1"/>
<feComposite in2="hardAlpha" operator="out"/>
<feColorMatrix type="matrix" values="0 0 0 0 0.0784314 0 0 0 0 0.0784314 0 0 0 0 0.0784314 0 0 0 0.08 0"/>
<feBlend mode="normal" in2="BackgroundImageFix" result="effect1_dropShadow_1166_18533"/>
<feColorMatrix in="SourceAlpha" type="matrix" values="0 0 0 0 0 0 0 0 0 0 0 0 0 0 0 0 0 0 127 0" result="hardAlpha"/>
<feOffset dy="4"/>
<feGaussianBlur stdDeviation="3"/>
<feComposite in2="hardAlpha" operator="out"/>
<feColorMatrix type="matrix" values="0 0 0 0 0.0784314 0 0 0 0 0.0784314 0 0 0 0 0.0784314 0 0 0 0.04 0"/>
<feBlend mode="normal" in2="effect1_dropShadow_1166_18533" result="effect2_dropShadow_1166_18533"/>
<feBlend mode="normal" in="SourceGraphic" in2="effect2_dropShadow_1166_18533" result="shape"/>
</filter>
<filter id="filter3_dd_1166_18533" x="198" y="50" width="42" height="42" filterUnits="userSpaceOnUse" color-interpolation-filters="sRGB">
<feFlood flood-opacity="0" result="BackgroundImageFix"/>
<feColorMatrix in="SourceAlpha" type="matrix" values="0 0 0 0 0 0 0 0 0 0 0 0 0 0 0 0 0 0 127 0" result="hardAlpha"/>
<feOffset dy="1"/>
<feGaussianBlur stdDeviation="1"/>
<feComposite in2="hardAlpha" operator="out"/>
<feColorMatrix type="matrix" values="0 0 0 0 0.0784314 0 0 0 0 0.0784314 0 0 0 0 0.0784314 0 0 0 0.08 0"/>
<feBlend mode="normal" in2="BackgroundImageFix" result="effect1_dropShadow_1166_18533"/>
<feColorMatrix in="SourceAlpha" type="matrix" values="0 0 0 0 0 0 0 0 0 0 0 0 0 0 0 0 0 0 127 0" result="hardAlpha"/>
<feOffset dy="4"/>
<feGaussianBlur stdDeviation="3"/>
<feComposite in2="hardAlpha" operator="out"/>
<feColorMatrix type="matrix" values="0 0 0 0 0.0784314 0 0 0 0 0.0784314 0 0 0 0 0.0784314 0 0 0 0.04 0"/>
<feBlend mode="normal" in2="effect1_dropShadow_1166_18533" result="effect2_dropShadow_1166_18533"/>
<feBlend mode="normal" in="SourceGraphic" in2="effect2_dropShadow_1166_18533" result="shape"/>
</filter>
<filter id="filter4_dd_1166_18533" x="265" y="50" width="42" height="42" filterUnits="userSpaceOnUse" color-interpolation-filters="sRGB">
<feFlood flood-opacity="0" result="BackgroundImageFix"/>
<feColorMatrix in="SourceAlpha" type="matrix" values="0 0 0 0 0 0 0 0 0 0 0 0 0 0 0 0 0 0 127 0" result="hardAlpha"/>
<feOffset dy="1"/>
<feGaussianBlur stdDeviation="1"/>
<feComposite in2="hardAlpha" operator="out"/>
<feColorMatrix type="matrix" values="0 0 0 0 0.0784314 0 0 0 0 0.0784314 0 0 0 0 0.0784314 0 0 0 0.08 0"/>
<feBlend mode="normal" in2="BackgroundImageFix" result="effect1_dropShadow_1166_18533"/>
<feColorMatrix in="SourceAlpha" type="matrix" values="0 0 0 0 0 0 0 0 0 0 0 0 0 0 0 0 0 0 127 0" result="hardAlpha"/>
<feOffset dy="4"/>
<feGaussianBlur stdDeviation="3"/>
<feComposite in2="hardAlpha" operator="out"/>
<feColorMatrix type="matrix" values="0 0 0 0 0.0784314 0 0 0 0 0.0784314 0 0 0 0 0.0784314 0 0 0 0.04 0"/>
<feBlend mode="normal" in2="effect1_dropShadow_1166_18533" result="effect2_dropShadow_1166_18533"/>
<feBlend mode="normal" in="SourceGraphic" in2="effect2_dropShadow_1166_18533" result="shape"/>
</filter>
<filter id="filter5_dd_1166_18533" x="332" y="50" width="42" height="42" filterUnits="userSpaceOnUse" color-interpolation-filters="sRGB">
<feFlood flood-opacity="0" result="BackgroundImageFix"/>
<feColorMatrix in="SourceAlpha" type="matrix" values="0 0 0 0 0 0 0 0 0 0 0 0 0 0 0 0 0 0 127 0" result="hardAlpha"/>
<feOffset dy="1"/>
<feGaussianBlur stdDeviation="1"/>
<feComposite in2="hardAlpha" operator="out"/>
<feColorMatrix type="matrix" values="0 0 0 0 0.0784314 0 0 0 0 0.0784314 0 0 0 0 0.0784314 0 0 0 0.08 0"/>
<feBlend mode="normal" in2="BackgroundImageFix" result="effect1_dropShadow_1166_18533"/>
<feColorMatrix in="SourceAlpha" type="matrix" values="0 0 0 0 0 0 0 0 0 0 0 0 0 0 0 0 0 0 127 0" result="hardAlpha"/>
<feOffset dy="4"/>
<feGaussianBlur stdDeviation="3"/>
<feComposite in2="hardAlpha" operator="out"/>
<feColorMatrix type="matrix" values="0 0 0 0 0.0784314 0 0 0 0 0.0784314 0 0 0 0 0.0784314 0 0 0 0.04 0"/>
<feBlend mode="normal" in2="effect1_dropShadow_1166_18533" result="effect2_dropShadow_1166_18533"/>
<feBlend mode="normal" in="SourceGraphic" in2="effect2_dropShadow_1166_18533" result="shape"/>
</filter>
<linearGradient id="paint0_linear_1166_18533" x1="130.5" y1="-2.98432e-06" x2="333.734" y2="-120.058" gradientUnits="userSpaceOnUse">
<stop stop-color="#FDB602"/>
<stop offset="0.746254" stop-color="#F5F5F5"/>
<stop offset="0.979587" stop-color="white"/>
</linearGradient>
<linearGradient id="paint1_linear_1166_18533" x1="130.5" y1="-2.98432e-06" x2="333.734" y2="-120.058" gradientUnits="userSpaceOnUse">
<stop stop-color="#FDB602"/>
<stop offset="0.746254" stop-color="#F5F5F5"/>
<stop offset="0.979587" stop-color="white"/>
</linearGradient>
<linearGradient id="paint2_linear_1166_18533" x1="130.5" y1="-2.98432e-06" x2="333.734" y2="-120.058" gradientUnits="userSpaceOnUse">
<stop stop-color="#FDB602"/>
<stop offset="0.746254" stop-color="#F5F5F5"/>
<stop offset="0.979587" stop-color="white"/>
</linearGradient>
<linearGradient id="paint3_linear_1166_18533" x1="130.5" y1="-2.98432e-06" x2="333.734" y2="-120.058" gradientUnits="userSpaceOnUse">
<stop stop-color="#FDB602"/>
<stop offset="0.746254" stop-color="#F5F5F5"/>
<stop offset="0.979587" stop-color="white"/>
</linearGradient>
<linearGradient id="paint4_linear_1166_18533" x1="130.5" y1="-2.98432e-06" x2="333.734" y2="-120.058" gradientUnits="userSpaceOnUse">
<stop stop-color="#FDB602"/>
<stop offset="0.746254" stop-color="#F5F5F5"/>
<stop offset="0.979587" stop-color="white"/>
</linearGradient>
<linearGradient id="paint5_linear_1166_18533" x1="130.5" y1="-2.98432e-06" x2="333.734" y2="-120.058" gradientUnits="userSpaceOnUse">
<stop stop-color="#FDB602"/>
<stop offset="0.746254" stop-color="#F5F5F5"/>
<stop offset="0.979587" stop-color="white"/>
</linearGradient>
<linearGradient id="paint6_linear_1166_18533" x1="130.5" y1="-2.98432e-06" x2="333.734" y2="-120.058" gradientUnits="userSpaceOnUse">
<stop stop-color="#FDB602"/>
<stop offset="0.746254" stop-color="#F5F5F5"/>
<stop offset="0.979587" stop-color="white"/>
</linearGradient>
<linearGradient id="paint7_linear_1166_18533" x1="130.5" y1="-2.98432e-06" x2="333.734" y2="-120.058" gradientUnits="userSpaceOnUse">
<stop stop-color="#FDB602"/>
<stop offset="0.746254" stop-color="#F5F5F5"/>
<stop offset="0.979587" stop-color="white"/>
</linearGradient>
<linearGradient id="paint8_linear_1166_18533" x1="130.5" y1="-2.98432e-06" x2="333.734" y2="-120.058" gradientUnits="userSpaceOnUse">
<stop stop-color="#FDB602"/>
<stop offset="0.746254" stop-color="#F5F5F5"/>
<stop offset="0.979587" stop-color="white"/>
</linearGradient>
<linearGradient id="paint9_linear_1166_18533" x1="130.5" y1="-2.98432e-06" x2="333.734" y2="-120.058" gradientUnits="userSpaceOnUse">
<stop stop-color="#FDB602"/>
<stop offset="0.746254" stop-color="#F5F5F5"/>
<stop offset="0.979587" stop-color="white"/>
</linearGradient>
<linearGradient id="paint10_linear_1166_18533" x1="130.5" y1="-2.98432e-06" x2="333.734" y2="-120.058" gradientUnits="userSpaceOnUse">
<stop stop-color="#FDB602"/>
<stop offset="0.746254" stop-color="#F5F5F5"/>
<stop offset="0.979587" stop-color="white"/>
</linearGradient>
<linearGradient id="paint11_linear_1166_18533" x1="130.5" y1="-2.98432e-06" x2="333.734" y2="-120.058" gradientUnits="userSpaceOnUse">
<stop stop-color="#FDB602"/>
<stop offset="0.746254" stop-color="#F5F5F5"/>
<stop offset="0.979587" stop-color="white"/>
</linearGradient>
<linearGradient id="paint12_linear_1166_18533" x1="130.5" y1="-2.98432e-06" x2="333.734" y2="-120.058" gradientUnits="userSpaceOnUse">
<stop stop-color="#FDB602"/>
<stop offset="0.746254" stop-color="#F5F5F5"/>
<stop offset="0.979587" stop-color="white"/>
</linearGradient>
<linearGradient id="paint13_linear_1166_18533" x1="130.5" y1="-2.98432e-06" x2="333.734" y2="-120.058" gradientUnits="userSpaceOnUse">
<stop stop-color="#FDB602"/>
<stop offset="0.746254" stop-color="#F5F5F5"/>
<stop offset="0.979587" stop-color="white"/>
</linearGradient>
<linearGradient id="paint14_linear_1166_18533" x1="130.5" y1="-2.98432e-06" x2="333.734" y2="-120.058" gradientUnits="userSpaceOnUse">
<stop stop-color="#FDB602"/>
<stop offset="0.746254" stop-color="#F5F5F5"/>
<stop offset="0.979587" stop-color="white"/>
</linearGradient>
<linearGradient id="paint15_linear_1166_18533" x1="130.5" y1="-2.98432e-06" x2="333.734" y2="-120.058" gradientUnits="userSpaceOnUse">
<stop stop-color="#FDB602"/>
<stop offset="0.746254" stop-color="#F5F5F5"/>
<stop offset="0.979587" stop-color="white"/>
</linearGradient>
<linearGradient id="paint16_linear_1166_18533" x1="130.5" y1="-2.98432e-06" x2="333.734" y2="-120.058" gradientUnits="userSpaceOnUse">
<stop stop-color="#FDB602"/>
<stop offset="0.746254" stop-color="#F5F5F5"/>
<stop offset="0.979587" stop-color="white"/>
</linearGradient>
<linearGradient id="paint17_linear_1166_18533" x1="130.5" y1="-2.98432e-06" x2="333.734" y2="-120.058" gradientUnits="userSpaceOnUse">
<stop stop-color="#FDB602"/>
<stop offset="0.746254" stop-color="#F5F5F5"/>
<stop offset="0.979587" stop-color="white"/>
</linearGradient>
<linearGradient id="paint18_linear_1166_18533" x1="130.5" y1="-2.98432e-06" x2="333.734" y2="-120.058" gradientUnits="userSpaceOnUse">
<stop stop-color="#FDB602"/>
<stop offset="0.746254" stop-color="#F5F5F5"/>
<stop offset="0.979587" stop-color="white"/>
</linearGradient>
<linearGradient id="paint19_linear_1166_18533" x1="130.5" y1="-2.98432e-06" x2="333.734" y2="-120.058" gradientUnits="userSpaceOnUse">
<stop stop-color="#FDB602"/>
<stop offset="0.746254" stop-color="#F5F5F5"/>
<stop offset="0.979587" stop-color="white"/>
</linearGradient>
<clipPath id="clip0_1166_18533">
<rect width="416" height="232" rx="16" fill="white"/>
</clipPath>
</defs>
</svg>
