<svg width="907" height="724" viewBox="0 0 907 724" fill="none" xmlns="http://www.w3.org/2000/svg">
<g clip-path="url(#clip0_1068_20640)">
<path opacity="0.8" d="M382.748 430.957L625.53 564.916C628.188 566.378 632.041 566.295 634.15 564.7L766.287 465.111C768.38 463.533 767.931 461.058 765.274 459.596L522.491 325.637C519.834 324.175 515.981 324.258 513.872 325.853L381.735 425.442C379.642 427.02 380.09 429.495 382.748 430.957Z" fill="#272623"/>
<path d="M392.164 390.839L405.534 397.334L528.437 306.084C530.496 304.556 534.266 304.456 536.874 305.868L768.927 431.754C770.953 430.292 780.287 424.461 780.287 424.461L776.55 438.332H776.534C776.384 438.947 776.002 439.545 775.338 440.043L645.892 536.16C643.832 537.689 640.062 537.788 637.455 536.376L399.987 407.55C398.924 406.969 398.243 406.221 397.927 405.441H397.911L392.181 390.872L392.164 390.839Z" fill="#0D0F10"/>
<path d="M392.033 391.304L637.09 524.266C639.781 525.728 643.667 525.628 645.793 524.05L779.375 424.86C781.501 423.282 781.036 420.823 778.362 419.378L533.304 286.416C530.614 284.954 526.727 285.054 524.601 286.632L391.019 385.822C388.894 387.4 389.359 389.859 392.033 391.304Z" fill="#F5F5F5"/>
<g clip-path="url(#clip1_1068_20640)">
<path fill-rule="evenodd" clip-rule="evenodd" d="M637.137 459.265C646.444 461.728 650.352 468.431 651.159 471.573L651.2 471.736L651.191 471.898C651.047 473.906 650.54 478.729 649.626 481.869C649.286 483.045 648.454 484.2 647.405 485.269C646.346 486.352 644.991 487.414 643.513 488.388C640.568 490.323 636.982 491.978 633.873 492.766C627.711 494.324 620.836 494.219 612.214 491.496C603.756 488.825 598.996 482.341 596.43 478.849C596.29 478.655 596.154 478.468 596.027 478.294C594.525 476.266 594.348 474.085 595.007 472.358C595.649 470.675 597.18 469.253 599.291 469.071C600.792 468.944 602.309 468.879 603.735 468.824C604.21 468.809 604.68 468.788 605.131 468.767C606.973 468.682 608.597 468.564 609.955 468.281C610.359 468.195 610.916 467.973 611.596 467.611C612.261 467.257 612.97 466.802 613.681 466.311C615.1 465.323 616.432 464.201 617.217 463.49L617.231 463.483L617.245 463.476C620.008 461.062 627.827 456.812 637.158 459.281L637.137 459.265ZM648.462 471.737C647.721 469.141 644.375 463.572 636.53 461.492C628.561 459.386 621.682 463.032 619.242 465.155C618.393 465.924 616.996 467.104 615.487 468.155C614.727 468.687 613.93 469.194 613.155 469.611C612.395 470.021 611.573 470.374 610.791 470.541C609.174 470.882 607.334 471.01 605.48 471.092C604.991 471.114 604.502 471.136 604.02 471.155C602.613 471.209 601.198 471.267 599.773 471.392C598.951 471.464 598.037 472.09 597.597 473.236C597.172 474.348 597.277 475.777 598.29 477.143C598.402 477.298 598.519 477.46 598.641 477.627C601.247 481.161 605.503 486.938 612.97 489.301C621.09 491.868 627.363 491.92 632.923 490.509C635.677 489.808 638.997 488.294 641.763 486.474C643.136 485.569 644.353 484.61 645.27 483.667C646.209 482.714 646.782 481.844 646.985 481.122C647.813 478.278 648.305 473.795 648.464 471.727L648.462 471.737Z" fill="#F5F5F5" stroke="#757575" stroke-width="0.3" stroke-miterlimit="10"/>
<path d="M637.49 483.535C638.457 477.74 647.507 474.101 651.488 473.951C655.85 477.442 655.269 487.498 653.347 491.336C650.403 497.23 643.174 498.964 639.045 500.86C638.398 496.869 636.517 489.333 637.49 483.535Z" fill="white" stroke="#E1E1E1" stroke-width="0.5" stroke-miterlimit="10"/>
<path fill-rule="evenodd" clip-rule="evenodd" d="M655.601 482.059C655.763 485.598 655.131 489.247 654.068 491.366C652.463 494.584 649.689 496.636 646.876 498.111C645.469 498.848 644.035 499.441 642.725 499.965C642.404 500.097 642.092 500.216 641.792 500.337C640.832 500.714 639.982 501.055 639.224 501.402C638.829 501.58 638.347 501.572 637.931 501.374C637.516 501.176 637.227 500.819 637.166 500.428C637.059 499.745 636.905 498.919 636.726 497.991C636.416 496.347 636.052 494.389 635.774 492.415C635.337 489.275 635.091 485.821 635.606 482.773C636.161 479.433 639.008 476.854 642.002 475.133C645.003 473.408 648.481 472.367 650.781 472.284C651.161 472.272 651.539 472.392 651.827 472.627C653.191 473.715 654.076 475.241 654.64 476.847C655.214 478.465 655.501 480.277 655.586 482.066L655.601 482.059ZM647.228 475.482C646.067 475.888 644.828 476.429 643.642 477.11C640.885 478.689 638.711 480.83 638.299 483.284C637.84 486.034 638.05 489.251 638.477 492.326C638.746 494.287 639.093 496.088 639.384 497.679C639.441 497.984 639.492 498.282 639.551 498.577C639.873 498.445 640.206 498.316 640.547 498.183C640.833 498.068 641.13 497.956 641.423 497.838C642.719 497.322 644.05 496.762 645.333 496.094C647.901 494.749 650.219 492.993 651.553 490.311C652.411 488.591 653.03 485.298 652.877 481.974C652.8 480.33 652.542 478.731 652.056 477.368C651.779 476.585 651.443 475.909 651.047 475.351C650.714 475.708 650.362 476.065 650 476.436C646.848 479.664 643.104 483.508 643.577 492.019C643.611 492.668 643.034 493.171 642.28 493.149C641.526 493.127 640.892 492.589 640.858 491.94C640.371 483.209 644.126 478.685 647.214 475.489L647.228 475.482Z" fill="#F5F5F5" stroke="#757575" stroke-width="0.3" stroke-miterlimit="10"/>
<path d="M656.334 470.115C655.524 467.343 651.954 468.832 650.271 469.925L651.538 473.339C653.471 473.42 657.137 472.891 656.334 470.115Z" fill="#F5F5F5" stroke="#E1E1E1" stroke-width="0.5" stroke-miterlimit="10"/>
<path fill-rule="evenodd" clip-rule="evenodd" d="M651.634 470.664L652.354 472.604C652.986 472.564 653.632 472.438 654.13 472.201C654.502 472.018 654.715 471.816 654.819 471.599C654.911 471.404 654.971 471.112 654.812 470.586C654.655 470.076 654.48 469.97 654.447 469.951C654.365 469.904 654.145 469.829 653.698 469.882C653.045 469.959 652.288 470.28 651.629 470.657L651.634 470.664ZM655.562 467.702C656.52 468.245 657.134 469.143 657.458 470.218C657.778 471.287 657.736 472.245 657.352 473.039C656.972 473.814 656.327 474.316 655.65 474.641C654.332 475.273 652.666 475.359 651.563 475.272L650.534 475.192L648.381 469.394L649.076 468.894C649.957 468.249 651.443 467.42 652.959 467.233C653.723 467.136 654.672 467.185 655.569 467.698L655.562 467.702Z" fill="#F5F5F5" stroke="#757575" stroke-width="0.3" stroke-miterlimit="10"/>
<path d="M636.94 461.789C645.207 463.862 648.604 469.634 649.268 472.259C649.111 474.115 648.568 478.527 647.687 481.353C646.59 484.882 638.914 489.465 633.283 490.884C627.651 492.303 621.342 492.269 613.351 489.867C605.36 487.464 601.07 481.318 598.7 478.176C596.33 475.034 598.247 471.443 601.058 471.196C604.815 470.859 608.606 470.969 611.464 470.357C613.743 469.873 617.476 466.963 619.058 465.57C621.573 463.444 628.666 459.719 636.94 461.789Z" fill="#F5F5F5"/>
<path fill-rule="evenodd" clip-rule="evenodd" d="M637.247 460.753C646.134 462.985 649.807 469.191 650.544 472.104L650.588 472.258L650.575 472.413C650.415 474.279 649.871 478.77 648.954 481.693C648.615 482.789 647.803 483.864 646.787 484.873C645.758 485.889 644.451 486.884 643.026 487.797C640.178 489.613 636.726 491.184 633.734 491.932C627.815 493.423 621.216 493.366 612.987 490.888C604.915 488.455 600.424 482.461 598 479.232C597.869 479.051 597.743 478.877 597.618 478.719C596.198 476.844 596.052 474.813 596.708 473.202C597.346 471.634 598.825 470.3 600.848 470.117C602.287 469.986 603.747 469.923 605.112 469.863C605.563 469.842 606.014 469.821 606.446 469.801C608.215 469.709 609.77 469.59 611.075 469.314C611.465 469.236 612.001 469.024 612.656 468.683C613.298 468.35 613.987 467.922 614.668 467.455C616.041 466.524 617.329 465.477 618.085 464.806L618.1 464.799L618.114 464.792C620.795 462.532 628.334 458.525 637.252 460.76L637.247 460.753ZM647.964 472.281C647.283 469.875 644.144 464.712 636.647 462.828C629.031 460.915 622.396 464.362 620.033 466.351C619.208 467.073 617.855 468.179 616.399 469.168C615.666 469.67 614.895 470.147 614.139 470.537C613.398 470.92 612.612 471.255 611.863 471.414C610.313 471.74 608.541 471.869 606.766 471.965C606.296 471.987 605.826 472.008 605.36 472.036C604.007 472.099 602.654 472.162 601.286 472.284C600.495 472.359 599.61 472.944 599.175 474.017C598.758 475.047 598.836 476.384 599.792 477.647C599.895 477.789 600.008 477.944 600.127 478.095C602.584 481.369 606.602 486.712 613.727 488.859C621.476 491.196 627.491 491.2 632.835 489.853C635.479 489.188 638.679 487.75 641.355 486.045C642.689 485.195 643.86 484.293 644.748 483.417C645.653 482.524 646.218 481.711 646.429 481.037C647.253 478.388 647.782 474.211 647.954 472.295L647.964 472.281Z" fill="#FDB602"/>
<path d="M637.31 483.326C638.304 477.929 647.023 474.489 650.837 474.325C654.984 477.545 654.3 486.898 652.416 490.482C649.526 495.981 642.572 497.64 638.601 499.432C638.022 495.722 636.309 488.726 637.303 483.329L637.31 483.326Z" fill="#FDB602"/>
<path fill-rule="evenodd" clip-rule="evenodd" d="M655.185 482.3C655.302 485.59 654.649 488.996 653.615 490.968C652.038 493.971 649.359 495.898 646.648 497.287C645.296 497.98 643.912 498.548 642.648 499.04C642.336 499.159 642.043 499.277 641.745 499.389C640.822 499.748 639.995 500.068 639.269 500.392C638.895 500.558 638.425 500.554 638.03 500.371C637.636 500.189 637.359 499.862 637.305 499.494C637.204 498.86 637.066 498.096 636.915 497.233C636.64 495.704 636.315 493.893 636.066 492.053C635.682 489.132 635.489 485.925 636.013 483.09C636.587 479.977 639.338 477.56 642.231 475.941C645.131 474.318 648.479 473.324 650.682 473.228C651.05 473.213 651.405 473.327 651.685 473.539C652.976 474.541 653.808 475.953 654.337 477.444C654.869 478.952 655.127 480.629 655.188 482.29L655.185 482.3ZM647.233 476.234C646.114 476.62 644.925 477.136 643.776 477.773C641.109 479.263 639.008 481.263 638.593 483.553C638.123 486.115 638.283 489.102 638.658 491.958C638.893 493.778 639.195 495.451 639.471 496.927C639.521 497.209 639.578 497.488 639.618 497.757C639.937 497.635 640.251 497.506 640.577 497.38C640.856 497.269 641.139 497.165 641.418 497.054C642.664 496.562 643.943 496.036 645.192 495.403C647.664 494.14 649.907 492.482 651.221 489.985C652.064 488.378 652.694 485.316 652.585 482.225C652.53 480.692 652.3 479.211 651.846 477.946C651.592 477.221 651.27 476.591 650.907 476.078C650.579 476.415 650.239 476.749 649.896 477.093C646.839 480.117 643.206 483.713 643.556 491.627C643.584 492.227 643.026 492.703 642.308 492.69C641.589 492.676 640.984 492.178 640.956 491.578C640.594 483.46 644.239 479.226 647.233 476.234Z" fill="#F5F5F5"/>
<path d="M655.52 470.719C654.78 468.149 651.336 469.558 649.708 470.58L650.88 473.743C652.734 473.809 656.253 473.292 655.515 470.712L655.52 470.719Z" fill="#F5F5F5"/>
<path fill-rule="evenodd" clip-rule="evenodd" d="M651.234 471.062L651.815 472.624C652.418 472.572 653.039 472.45 653.525 472.237C653.885 472.077 654.097 471.902 654.211 471.723C654.307 471.562 654.38 471.315 654.259 470.894C654.141 470.478 653.978 470.401 653.95 470.389C653.877 470.355 653.671 470.299 653.248 470.358C652.623 470.447 651.883 470.725 651.248 471.055L651.234 471.062ZM655.12 468.524C655.997 468.941 656.543 469.653 656.787 470.523C657.037 471.39 656.945 472.171 656.538 472.827C656.14 473.47 655.493 473.903 654.833 474.185C653.547 474.74 651.961 474.857 650.915 474.821L649.938 474.786L648.208 470.119L648.886 469.688C649.764 469.133 651.216 468.417 652.66 468.212C653.394 468.113 654.284 468.121 655.116 468.517L655.12 468.524ZM623.151 487.54C623.171 488.143 622.605 488.606 621.881 488.586C620.832 488.56 619.123 488.387 617.267 487.971C615.415 487.561 613.326 486.891 611.594 485.818C608.426 483.85 605.747 481.5 604.778 480.541C604.299 480.068 604.348 479.386 604.885 479.016C605.422 478.646 606.249 478.729 606.717 479.199C607.58 480.053 610.104 482.269 613.06 484.105C614.393 484.937 616.117 485.506 617.784 485.876C619.444 486.249 620.959 486.395 621.808 486.414C622.525 486.438 623.123 486.94 623.146 487.533L623.151 487.54Z" fill="#FDB602"/>
</g>
<g filter="url(#filter0_i_1068_20640)">
<path d="M530.004 397.804L487.944 423.614C487.295 424.012 487.311 424.96 487.973 425.336L552.044 461.712C552.357 461.89 552.743 461.885 553.052 461.699L596.511 435.614C597.172 435.217 597.154 434.253 596.479 433.881L531.01 397.781C530.695 397.607 530.311 397.616 530.004 397.804Z" fill="#F0F0F0"/>
</g>
<path d="M391.932 388.879L637.106 522.589C639.797 524.051 643.683 523.951 645.809 522.373L779.391 422.718C779.889 422.336 780.255 421.92 780.471 421.455C781.251 422.734 781.002 424.196 779.574 425.259L645.992 524.914C643.866 526.493 639.98 526.592 637.289 525.13L392.115 391.421C390.072 390.308 389.325 388.613 390.022 387.168C390.404 387.799 391.052 388.397 391.932 388.879Z" fill="url(#paint0_linear_1068_20640)"/>
<path d="M544.381 83.5508L777.232 216.164L763.164 403.597L530.463 271.067L544.381 83.5508Z" fill="#434343"/>
<mask id="mask0_1068_20640" style="mask-type:luminance" maskUnits="userSpaceOnUse" x="530" y="83" width="248" height="321">
<path d="M544.381 83.5508L777.232 216.164L763.164 403.597L530.463 271.067L544.381 83.5508Z" fill="white"/>
</mask>
<g mask="url(#mask0_1068_20640)">
<path d="M527.107 278.957L789.903 428.631C792.777 430.276 796.945 430.176 799.221 428.415L941.871 317.863C944.129 316.102 943.648 313.361 940.758 311.716L677.962 162.042C675.089 160.398 670.92 160.497 668.645 162.258L525.995 272.811C523.736 274.572 524.218 277.313 527.107 278.957Z" fill="#434343"/>
<path d="M581.766 270.834L772.016 379.194L765.156 384.51L574.906 276.15L581.766 270.834Z" fill="#434343"/>
<path d="M600.002 256.714L780.835 359.692L773.976 365.008L593.143 262.03L600.002 256.714Z" fill="#434343"/>
<path d="M781.234 384.444L792.993 391.138L786.134 396.454L774.375 389.76L781.234 384.444Z" fill="#434343"/>
<path d="M611.428 247.86L822.654 368.148L815.795 373.463L604.568 253.176L611.428 247.86Z" fill="#434343"/>
<path d="M622.855 239.006L834.065 359.293L827.223 364.609L615.996 244.305L622.855 239.006Z" fill="#434343"/>
<path d="M634.281 230.152L845.491 350.439L838.648 355.755L627.422 235.451L634.281 230.152Z" fill="#434343"/>
</g>
<path d="M530.696 276.798L546.175 79.3147L543.734 78.3678L547.122 75.8262C547.77 75.2946 548.75 75.2448 549.862 75.876L795.136 211.214C797.146 212.327 798.84 215.417 798.657 217.692L783.045 416.754C782.962 417.784 782.564 418.498 781.949 418.847L778.644 421.339L777.797 417.75L777.996 417.8L534.201 283.276C532.191 282.163 530.497 279.074 530.68 276.798H530.696Z" fill="#0D0F10"/>
<path d="M794.206 216.646L797.926 214.453C798.441 215.533 798.74 216.679 798.657 217.676L783.045 416.737C782.962 417.767 782.564 418.481 781.949 418.83L778.644 421.322L777.797 417.734L777.996 417.784L765.656 410.973L794.206 216.629V216.646Z" fill="#0D0F10"/>
<path d="M530.696 285.901L775.97 421.239C777.863 422.286 779.358 421.488 779.54 419.362L795.152 220.301C795.335 218.041 793.641 214.935 791.631 213.822L546.341 78.5009C544.447 77.4544 542.953 78.2518 542.77 80.3615L527.158 279.423C526.975 281.682 528.669 284.788 530.679 285.901H530.696Z" fill="#F5F5F5"/>
<path d="M530.696 285.901L775.97 421.239C777.863 422.286 779.358 421.488 779.54 419.362L795.152 220.301C795.335 218.041 793.641 214.935 791.631 213.822L546.341 78.5009C544.447 77.4544 542.953 78.2518 542.77 80.3615L527.158 279.423C526.975 281.682 528.669 284.788 530.679 285.901H530.696Z" fill="#F5F5F5"/>
<path d="M547.522 89.3149L789.789 223.008L774.908 410.491L532.807 276.897L547.522 89.3149Z" fill="#1F1F1F"/>
<path d="M525.031 313.959L700.284 410.657L707.392 405.292L532.14 308.593L525.031 313.959Z" fill="#BFBFBF"/>
<path d="M507.607 327.082L671.981 417.784L679.09 412.435L514.716 321.733L507.607 327.082Z" fill="#BFBFBF"/>
<path d="M496.266 335.638L689.787 442.436L696.896 437.07L503.357 330.289L496.266 335.638Z" fill="#BFBFBF"/>
<path d="M484.904 344.193L678.443 450.975L685.551 445.626L492.013 338.827L484.904 344.193Z" fill="#BFBFBF"/>
<path d="M473.561 352.747L667.099 459.529L674.207 454.18L480.669 347.382L473.561 352.747Z" fill="#BFBFBF"/>
<path d="M710.863 416.488L718.653 420.79L725.761 415.441L717.972 411.139L710.863 416.488Z" fill="#BFBFBF"/>
<path d="M685.053 425.01L701.229 433.93L708.338 428.565L692.161 419.644L685.053 425.01Z" fill="#BFBFBF"/>
<path d="M329.93 112.805L394.304 142.407L452.052 101.342L387.677 71.7397L329.93 112.805Z" fill="#FDB602"/>
<path d="M394.27 142.424L410.928 321.733L468.709 280.702L452.05 101.342L394.27 142.424Z" fill="#CC8E02"/>
<path d="M346.588 292.048L410.929 321.733L394.271 142.424L329.93 112.805L346.588 292.048Z" fill="#EDA107"/>
<path d="M247.277 41.8148L311.619 71.4837L369.399 30.4522L305.058 0.783203L247.277 41.8148Z" fill="#BFBFBF"/>
<path d="M311.617 71.4842L339.519 371.729L397.3 330.714L369.398 30.4526L311.617 71.4842Z" fill="#8C8C8C"/>
<path d="M275.18 342.076L339.521 371.729L311.619 71.4839L247.277 41.8149L275.18 342.076Z" fill="#D9D9D9"/>
<path d="M200.703 303.221L265.061 332.89L322.842 291.858L258.484 262.189L200.703 303.221Z" fill="#FDB602"/>
<path d="M208.708 389.404L273.066 419.073L265.044 332.79L200.703 303.121L208.708 389.404Z" fill="#EDA107"/>
<path d="M264.994 332.225L273.066 419.072L330.847 378.041L322.775 291.21L264.994 332.225Z" fill="#CC8E02"/>
<path d="M124.85 303.367L189.191 333.035L246.972 292.021L182.63 262.352L124.85 303.367Z" fill="#BFBFBF"/>
<path d="M137.572 440.399L201.913 470.068L189.191 333.036L124.85 303.367L137.572 440.399Z" fill="#D9D9D9"/>
<path d="M189.189 333.036L201.912 470.068L259.692 429.053L246.97 292.021L189.189 333.036Z" fill="#8C8C8C"/>
<path d="M289.607 620.349L281.369 615.316L397.496 545.745L405.733 550.762L289.607 620.349Z" fill="#FDB602"/>
<path d="M301.431 627.576L293.193 622.542L365.756 579.069L373.994 584.102L301.431 627.576Z" fill="#FDB602"/>
<path d="M313.273 634.802L305.035 629.769L456.205 539.2L464.443 544.217L313.273 634.802Z" fill="#FDB602"/>
<path d="M325.115 642.028L316.877 636.995L427.157 570.913L435.395 575.946L325.115 642.028Z" fill="#FDB602"/>
<path d="M289.607 620.35L281.369 615.317L378.196 557.291L386.451 562.324L289.607 620.35Z" fill="#8C8C8C"/>
<path d="M301.431 627.576L293.193 622.542L346.573 590.564L354.811 595.598L301.431 627.576Z" fill="#8C8C8C"/>
<path d="M313.273 634.802L305.035 629.769L427.257 556.543L435.495 561.56L313.273 634.802Z" fill="#8C8C8C"/>
<path d="M325.115 642.028L316.877 636.995L398.009 588.388L406.247 593.405L325.115 642.028Z" fill="#8C8C8C"/>
<path d="M337.404 649.537L329.166 644.504L426.01 586.478L434.248 591.511L337.404 649.537Z" fill="#FDB602"/>
<path d="M349.246 656.763L341.008 651.73L394.371 619.752L402.609 624.785L349.246 656.763Z" fill="#FDB602"/>
<path d="M361.07 663.989L352.832 658.956L475.054 585.714L483.292 590.747L361.07 663.989Z" fill="#FDB602"/>
<path d="M372.912 671.215L364.674 666.182L445.806 617.559L454.044 622.592L372.912 671.215Z" fill="#FDB602"/>
<path d="M337.404 649.537L329.166 644.504L400.416 601.811L408.638 606.844L337.404 649.537Z" fill="#BFBFBF"/>
<path d="M349.246 656.764L341.008 651.73L380.27 628.208L388.508 633.224L349.246 656.764Z" fill="#BFBFBF"/>
<path d="M361.07 663.99L352.832 658.957L442.75 605.084L450.988 610.117L361.07 663.99Z" fill="#BFBFBF"/>
<path d="M372.912 671.216L364.674 666.183L424.365 630.417L432.602 635.45L372.912 671.216Z" fill="#BFBFBF"/>
<path d="M385.203 678.724L376.965 673.691L504.418 597.326L512.656 602.343L385.203 678.724Z" fill="#FDB602"/>
<path d="M397.044 685.95L388.807 680.917L472.131 630.998L480.369 636.015L397.044 685.95Z" fill="#FDB602"/>
<path d="M408.869 693.177L400.631 688.143L551.801 597.575L560.039 602.592L408.869 693.177Z" fill="#FDB602"/>
<path d="M420.71 700.403L412.473 695.369L539.112 619.486L547.367 624.519L420.71 700.403Z" fill="#FDB602"/>
<path d="M385.203 678.724L376.965 673.691L473.809 615.665L482.047 620.698L385.203 678.724Z" fill="#8C8C8C"/>
<path d="M397.044 685.95L388.807 680.917L442.186 648.939L450.424 653.956L397.044 685.95Z" fill="#8C8C8C"/>
<path d="M408.869 693.176L400.631 688.143L522.853 614.901L531.09 619.934L408.869 693.176Z" fill="#8C8C8C"/>
<path d="M420.71 700.402L412.473 695.369L493.605 646.746L501.843 651.779L420.71 700.402Z" fill="#8C8C8C"/>
<path d="M628.948 193.871C628.566 190.332 627.785 186.728 626.656 183.173C626.656 183.173 626.656 183.139 626.656 183.123C626.456 182.508 626.24 181.877 626.025 181.262C625.958 181.096 625.908 180.947 625.858 180.797C625.609 180.133 625.36 179.452 625.094 178.787C624.812 178.056 624.497 177.342 624.181 176.611C623.865 175.897 623.533 175.182 623.185 174.468C622.852 173.77 622.487 173.056 622.122 172.358C621.74 171.66 621.358 170.946 620.976 170.265C620.577 169.567 620.162 168.886 619.763 168.205C618.933 166.843 618.053 165.514 617.122 164.218C616.657 163.57 616.192 162.939 615.727 162.341C614.797 161.129 613.834 159.932 612.837 158.819C612.572 158.52 612.289 158.221 612.024 157.906C611.758 157.623 611.509 157.358 611.243 157.075C610.927 156.743 610.612 156.427 610.296 156.112C609.997 155.813 609.682 155.514 609.366 155.198C609.283 155.115 609.184 155.032 609.101 154.965C609.034 154.882 608.951 154.816 608.868 154.733C608.586 154.484 608.32 154.235 608.054 154.002C608.004 153.952 607.955 153.902 607.905 153.869C607.689 153.653 607.456 153.47 607.224 153.271C607.058 153.138 606.892 152.989 606.709 152.856C606.609 152.773 606.51 152.69 606.393 152.59C606.078 152.341 605.762 152.092 605.447 151.842C604.882 151.411 604.351 151.012 603.786 150.613C603.503 150.414 603.238 150.231 602.972 150.048C602.59 149.799 602.225 149.567 601.843 149.317C601.427 149.052 601.029 148.802 600.597 148.553C599.335 147.822 598.056 147.174 596.81 146.643C595.465 146.061 594.136 145.613 592.857 145.281C580.102 141.958 571.316 150.597 571.781 166.262C571.815 167.308 571.881 168.371 571.997 169.468C572.163 171.129 572.446 172.823 572.794 174.501C573.027 175.598 573.276 176.677 573.592 177.774C574.04 179.435 574.572 181.113 575.203 182.791C578.873 192.824 585.218 202.343 592.675 209.087C593.505 209.835 594.352 210.566 595.216 211.23C595.565 211.513 595.913 211.795 596.262 212.044C597.657 213.091 599.052 214.021 600.481 214.852C602.274 215.898 604.035 216.712 605.762 217.327C606.045 217.426 606.327 217.526 606.609 217.626C606.858 217.709 607.091 217.775 607.34 217.842C607.656 217.941 607.971 218.024 608.287 218.091C608.469 218.157 608.635 218.191 608.802 218.224C609.815 218.456 610.811 218.623 611.758 218.689C612.107 218.706 612.439 218.722 612.804 218.739H613.817C614.149 218.722 614.482 218.706 614.814 218.689C615.478 218.656 616.126 218.556 616.74 218.407C618.949 217.958 620.926 217.011 622.603 215.632C623.334 215.051 624.015 214.403 624.613 213.639C625.261 212.875 625.825 212.028 626.357 211.097C626.872 210.2 627.303 209.22 627.685 208.157C627.802 207.858 627.901 207.542 628.001 207.227C628.001 207.177 628.034 207.127 628.051 207.077C629.18 203.406 629.546 198.954 629.014 193.887L628.948 193.871ZM602.092 197.309C595.066 194.303 588.622 184.85 587.725 176.212C586.829 167.557 591.778 162.989 598.803 166.012C600.281 166.644 601.71 167.557 603.088 168.687C603.686 169.169 604.267 169.7 604.832 170.265C608.054 173.471 610.728 177.84 612.156 182.342C612.671 183.937 613.02 185.548 613.186 187.126C613.435 189.402 613.253 191.379 612.754 193.007C611.359 197.642 607.29 199.535 602.092 197.309Z" fill="#8C8C8C"/>
<path d="M610.248 156.128L604.834 170.248C604.269 169.684 603.688 169.152 603.09 168.67C601.711 167.541 600.283 166.627 598.805 165.996C591.78 162.989 586.814 167.557 587.727 176.195L571.966 169.434C570.122 151.876 579.307 141.775 592.809 145.247C594.088 145.58 595.417 146.028 596.762 146.61C598.024 147.141 599.287 147.789 600.549 148.52C600.964 148.769 601.379 149.018 601.794 149.284C602.176 149.533 602.542 149.766 602.924 150.015C603.206 150.198 603.472 150.38 603.738 150.58C604.286 150.978 604.834 151.377 605.399 151.809C605.714 152.058 606.03 152.307 606.345 152.557C606.461 152.64 606.561 152.739 606.661 152.822C607.059 153.155 607.441 153.487 607.84 153.836C607.89 153.869 607.94 153.919 607.989 153.969C608.338 154.284 608.687 154.617 609.036 154.932C609.451 155.314 609.833 155.68 610.232 156.078L610.248 156.128Z" fill="#FDB602"/>
<path d="M626.658 183.172L612.176 182.342C610.747 177.823 608.073 173.471 604.851 170.265C604.287 169.7 603.705 169.169 603.107 168.687L606.363 152.606C606.479 152.69 606.579 152.789 606.678 152.872C606.844 153.005 607.01 153.155 607.193 153.288C607.426 153.487 607.658 153.686 607.874 153.886C607.924 153.919 607.974 153.969 608.024 154.018C608.306 154.268 608.572 154.5 608.837 154.749C608.987 154.899 609.17 155.048 609.336 155.215C609.651 155.514 609.967 155.829 610.266 156.128C610.598 156.444 610.913 156.759 611.212 157.092C611.478 157.374 611.727 157.64 611.993 157.922C612.275 158.221 612.541 158.537 612.807 158.836C613.803 159.966 614.767 161.145 615.697 162.358C616.162 162.956 616.643 163.604 617.092 164.235C617.557 164.883 617.989 165.531 618.437 166.195C618.885 166.86 619.301 167.541 619.732 168.205C620.148 168.87 620.546 169.567 620.945 170.265C621.327 170.946 621.726 171.66 622.091 172.358C622.456 173.056 622.822 173.77 623.154 174.468C623.503 175.182 623.835 175.896 624.15 176.611C624.482 177.342 624.781 178.056 625.064 178.787C625.33 179.435 625.579 180.116 625.828 180.797C625.894 180.946 625.944 181.096 625.994 181.262C626.21 181.877 626.409 182.491 626.625 183.123C626.625 183.123 626.625 183.156 626.625 183.172H626.658Z" fill="#828282"/>
<path d="M627.985 207.061C627.985 207.061 627.952 207.16 627.935 207.21C627.836 207.526 627.736 207.841 627.62 208.14C627.238 209.204 626.806 210.184 626.291 211.081C625.776 212.011 625.195 212.858 624.547 213.622C623.933 214.37 623.252 215.018 622.538 215.616C620.844 216.995 618.867 217.925 616.675 218.39C616.044 218.523 615.413 218.606 614.748 218.672C614.416 218.689 614.084 218.706 613.752 218.722H612.739C612.39 218.706 612.058 218.689 611.692 218.672C610.729 218.589 609.733 218.44 608.736 218.207C608.57 218.174 608.404 218.141 608.221 218.074C607.906 218.008 607.59 217.925 607.274 217.825C607.025 217.759 606.793 217.692 606.544 217.609C606.261 217.526 605.979 217.427 605.697 217.31C603.986 216.696 602.226 215.882 600.415 214.835C598.97 214.004 597.575 213.074 596.197 212.028C595.848 211.778 595.499 211.496 595.15 211.214C594.287 210.533 593.456 209.818 592.609 209.071C585.135 202.293 578.824 192.741 575.137 182.774C574.539 181.113 573.991 179.435 573.526 177.757C573.227 176.661 572.961 175.581 572.729 174.485C572.38 172.807 572.098 171.112 571.932 169.451L587.693 176.212C588.59 184.85 595.034 194.303 602.059 197.309C607.258 199.535 611.327 197.642 612.722 193.007L627.952 207.061H627.985Z" fill="#666666"/>
<path d="M703.405 236.862C703.006 233.091 702.142 229.254 700.897 225.483C700.664 224.785 700.432 224.104 700.166 223.423C700.083 223.174 699.983 222.925 699.884 222.692C699.718 222.211 699.502 221.712 699.302 221.214C699.07 220.632 698.821 220.051 698.555 219.47C698.455 219.237 698.356 219.004 698.239 218.772C697.957 218.124 697.642 217.493 697.343 216.861C697.01 216.214 696.695 215.582 696.346 214.935C696.047 214.37 695.732 213.805 695.399 213.24C695.266 213.008 695.15 212.792 695.001 212.542C694.669 211.978 694.353 211.429 694.004 210.881C693.622 210.283 693.257 209.702 692.858 209.104C692.825 209.037 692.775 208.987 692.742 208.921C692.377 208.373 692.011 207.841 691.629 207.326C691.463 207.077 691.297 206.844 691.114 206.612C690.898 206.313 690.666 206.014 690.433 205.698C690.234 205.416 690.018 205.133 689.786 204.851C689.404 204.353 688.989 203.854 688.573 203.356C688.092 202.775 687.593 202.21 687.095 201.662C686.597 201.097 686.099 200.549 685.567 200.017C685.285 199.735 685.002 199.419 684.704 199.137C684.488 198.904 684.255 198.688 684.023 198.472C683.873 198.339 683.74 198.19 683.591 198.073C683.574 198.04 683.541 198.024 683.524 198.007C683.192 197.675 682.86 197.376 682.528 197.077C682.461 197.01 682.395 196.96 682.328 196.911C682.179 196.778 682.046 196.661 681.913 196.545C681.664 196.312 681.415 196.113 681.166 195.897C681.116 195.847 681.05 195.814 681.016 195.764C680.95 195.714 680.9 195.681 680.85 195.631C680.535 195.382 680.219 195.133 679.904 194.884C679.339 194.452 678.774 194.02 678.21 193.621C677.96 193.439 677.695 193.256 677.446 193.09C677.064 192.824 676.682 192.575 676.3 192.342C675.884 192.076 675.469 191.827 675.054 191.578L674.905 191.495C674.506 191.262 674.107 191.047 673.709 190.847C673.543 190.747 673.36 190.664 673.177 190.565C672.845 190.382 672.529 190.233 672.197 190.083C671.981 189.983 671.749 189.884 671.533 189.784C671.151 189.618 670.752 189.452 670.37 189.302C670.022 189.153 669.689 189.036 669.341 188.92C669.241 188.87 669.158 188.854 669.058 188.837C668.627 188.688 668.195 188.555 667.78 188.438C655.556 184.983 646.853 192.375 646.238 206.429C646.222 206.994 646.205 207.542 646.205 208.107C646.205 208.273 646.205 208.456 646.205 208.622C646.205 209.154 646.238 209.685 646.255 210.217C646.272 210.632 646.305 211.047 646.338 211.479C646.371 211.811 646.371 212.144 646.404 212.476C646.438 212.775 646.471 213.074 646.521 213.373C646.521 213.473 646.537 213.589 646.554 213.672C646.703 214.768 646.886 215.881 647.119 216.994C647.185 217.376 647.268 217.759 647.368 218.141C647.617 219.287 647.899 220.45 648.248 221.596C649.244 225.118 650.606 228.623 652.267 232.012C652.45 232.394 652.649 232.776 652.815 233.141C653.015 233.523 653.197 233.889 653.413 234.271C653.812 235.018 654.227 235.766 654.659 236.513C654.858 236.879 655.074 237.244 655.307 237.61C655.307 237.61 655.307 237.626 655.323 237.66C655.755 238.391 656.203 239.088 656.668 239.786C657.15 240.517 657.632 241.231 658.147 241.946C658.396 242.294 658.628 242.627 658.877 242.976C658.927 243.042 658.994 243.125 659.027 243.191C659.226 243.457 659.442 243.74 659.641 243.989C659.675 244.039 659.724 244.105 659.774 244.172C660.073 244.57 660.372 244.952 660.688 245.334C660.97 245.7 661.269 246.049 661.568 246.398C662.033 246.946 662.498 247.477 662.963 248.009C663.146 248.208 663.345 248.424 663.528 248.624C663.86 248.972 664.175 249.305 664.508 249.654C664.84 249.986 665.172 250.318 665.504 250.65C665.836 250.966 666.168 251.298 666.501 251.597C666.833 251.913 667.182 252.228 667.514 252.511C668.195 253.109 668.892 253.69 669.59 254.255C669.789 254.405 669.972 254.554 670.171 254.704C670.686 255.119 671.217 255.501 671.749 255.883C672.064 256.099 672.38 256.315 672.696 256.531C673.426 257.013 674.157 257.478 674.888 257.893H674.921C675.336 258.159 675.768 258.391 676.183 258.607C676.997 259.039 677.811 259.421 678.625 259.77C679.023 259.936 679.422 260.102 679.804 260.252C679.837 260.269 679.887 260.285 679.92 260.302C680.269 260.435 680.618 260.568 680.967 260.667C681.349 260.8 681.697 260.916 682.079 261C682.362 261.083 682.627 261.166 682.893 261.215C682.976 261.249 683.076 261.282 683.176 261.299C683.541 261.382 683.906 261.465 684.272 261.514C684.338 261.548 684.421 261.548 684.521 261.564C684.853 261.631 685.185 261.664 685.517 261.697C685.584 261.714 685.65 261.73 685.717 261.73C686.115 261.764 686.514 261.797 686.912 261.813C687.328 261.813 687.726 261.847 688.141 261.813C688.557 261.813 688.955 261.797 689.354 261.747C689.686 261.73 690.002 261.664 690.317 261.631C691.928 261.382 693.44 260.867 694.851 260.119C701.163 256.73 704.6 248.441 703.388 236.929L703.405 236.862ZM676.565 240.318C673.493 239.005 670.537 236.464 668.095 233.291C667.979 233.141 667.863 232.992 667.763 232.842C664.807 228.839 662.697 223.922 662.199 219.22C661.286 210.566 666.252 205.997 673.277 209.021C674.755 209.652 676.183 210.566 677.562 211.695C678.16 212.177 678.741 212.709 679.289 213.257C682.445 216.413 685.069 220.632 686.514 225.051C687.079 226.746 687.461 228.457 687.643 230.134C688.191 235.284 686.647 238.989 683.823 240.5C681.913 241.53 679.405 241.563 676.549 240.334L676.565 240.318Z" fill="#8C8C8C"/>
<path d="M684.704 199.12L679.289 213.24C678.741 212.675 678.16 212.16 677.562 211.679C676.183 210.549 674.755 209.635 673.277 209.004C666.252 205.997 661.269 210.549 662.199 219.204C662.697 223.888 664.807 228.806 667.763 232.826C667.879 232.975 667.979 233.125 668.095 233.274L659.658 243.956L659.641 243.906C659.392 243.59 659.126 243.258 658.894 242.909C658.645 242.577 658.396 242.245 658.163 241.896C657.648 241.181 657.167 240.467 656.685 239.736C656.22 239.038 655.788 238.341 655.34 237.61C655.34 237.593 655.323 237.577 655.323 237.56C655.091 237.195 654.875 236.829 654.675 236.464C654.244 235.733 653.828 234.969 653.43 234.221C653.23 233.839 653.031 233.457 652.832 233.091C652.649 232.726 652.45 232.344 652.284 231.962C650.623 228.523 649.261 225.035 648.265 221.546C647.932 220.4 647.633 219.237 647.384 218.091C647.301 217.709 647.218 217.327 647.135 216.945C646.919 215.832 646.72 214.735 646.57 213.622C646.57 213.539 646.554 213.423 646.537 213.323C646.321 211.546 646.205 209.768 646.205 208.057C646.205 207.492 646.205 206.928 646.238 206.379C646.886 192.143 655.888 185.083 667.78 188.389C668.195 188.488 668.627 188.621 669.058 188.787C669.158 188.82 669.241 188.837 669.341 188.87C669.673 188.987 670.022 189.103 670.37 189.252C670.752 189.385 671.151 189.551 671.533 189.734C671.749 189.834 671.981 189.933 672.197 190.033C672.529 190.183 672.845 190.332 673.177 190.515C673.36 190.598 673.543 190.698 673.709 190.797C674.107 190.997 674.506 191.213 674.905 191.445L675.054 191.528C675.469 191.761 675.884 192.027 676.3 192.292C676.682 192.525 677.064 192.774 677.446 193.04C677.695 193.223 677.96 193.389 678.21 193.572C678.774 193.97 679.339 194.402 679.904 194.834C680.219 195.083 680.535 195.332 680.85 195.582C680.917 195.631 680.967 195.665 681.016 195.714C681.066 195.764 681.133 195.798 681.166 195.847C681.415 196.063 681.664 196.263 681.913 196.495C682.063 196.628 682.196 196.744 682.328 196.861C682.677 197.176 683.009 197.475 683.358 197.808C683.425 197.857 683.474 197.891 683.524 197.957C683.541 197.957 683.574 198.007 683.591 198.024C683.89 198.306 684.189 198.588 684.488 198.887C684.554 198.937 684.62 199.02 684.704 199.103V199.12Z" fill="#FDB602"/>
<path d="M700.896 225.483L686.53 225.035C685.085 220.632 682.461 216.396 679.305 213.24C678.757 212.675 678.176 212.16 677.578 211.679L680.833 195.598C680.833 195.598 680.95 195.681 680.999 195.731C681.049 195.781 681.116 195.814 681.149 195.864C681.398 196.08 681.647 196.279 681.896 196.512C682.046 196.645 682.179 196.761 682.312 196.877C682.378 196.927 682.428 196.977 682.511 197.043C682.793 197.293 683.076 197.542 683.341 197.824C683.408 197.874 683.458 197.907 683.507 197.974C683.524 197.974 683.557 198.023 683.574 198.04C683.723 198.173 683.856 198.306 684.006 198.439C684.155 198.588 684.321 198.738 684.471 198.904C684.537 198.954 684.62 199.037 684.687 199.12C684.985 199.402 685.284 199.718 685.55 200C686.065 200.532 686.58 201.08 687.078 201.645C687.576 202.193 688.075 202.758 688.556 203.339C688.972 203.821 689.37 204.336 689.769 204.834C690.001 205.117 690.217 205.399 690.416 205.682C690.649 205.981 690.881 206.28 691.097 206.595C691.263 206.811 691.43 207.06 691.612 207.31C691.994 207.825 692.36 208.356 692.725 208.904C692.758 208.971 692.808 209.021 692.841 209.087C693.24 209.685 693.622 210.267 693.987 210.865C694.336 211.413 694.668 211.961 694.984 212.526C695.133 212.758 695.25 212.991 695.382 213.223C695.715 213.788 696.03 214.353 696.329 214.918C696.678 215.566 697.01 216.197 697.326 216.845C697.641 217.493 697.94 218.124 698.222 218.755C698.339 218.988 698.438 219.22 698.538 219.453C698.804 220.034 699.053 220.616 699.285 221.197C699.485 221.696 699.701 222.194 699.867 222.676C699.983 222.925 700.066 223.174 700.149 223.407C700.398 224.104 700.647 224.785 700.88 225.466L700.896 225.483Z" fill="#828282"/>
<path d="M694.867 260.036C693.471 260.784 691.96 261.299 690.332 261.548C690 261.581 689.685 261.631 689.369 261.664C688.971 261.714 688.572 261.731 688.157 261.731C687.741 261.731 687.343 261.731 686.928 261.731C686.529 261.714 686.13 261.681 685.732 261.647C685.665 261.647 685.599 261.647 685.533 261.614C685.2 261.581 684.868 261.531 684.536 261.481C684.453 261.481 684.37 261.481 684.287 261.432C683.922 261.382 683.556 261.299 683.191 261.216C683.091 261.216 682.991 261.166 682.908 261.133C682.626 261.083 682.36 261.016 682.095 260.917C681.713 260.834 681.364 260.717 680.982 260.584C680.65 260.485 680.301 260.352 679.935 260.219C679.902 260.219 679.852 260.202 679.819 260.169C679.437 260.036 679.039 259.87 678.64 259.687C677.826 259.338 677.029 258.956 676.199 258.524C675.783 258.308 675.352 258.076 674.936 257.827H674.903C674.172 257.395 673.442 256.93 672.711 256.448C672.395 256.232 672.08 256.033 671.764 255.8C671.233 255.418 670.701 255.036 670.186 254.621C669.987 254.488 669.804 254.322 669.605 254.172C668.907 253.607 668.21 253.042 667.529 252.428C667.197 252.129 666.848 251.83 666.516 251.514C666.184 251.215 665.835 250.866 665.519 250.567C665.187 250.235 664.838 249.903 664.523 249.571C664.191 249.222 663.875 248.889 663.543 248.541C663.344 248.325 663.161 248.125 662.978 247.926C662.513 247.411 662.032 246.863 661.583 246.315C661.284 245.966 660.985 245.617 660.703 245.251C660.387 244.869 660.088 244.487 659.789 244.089C659.74 244.039 659.69 243.956 659.657 243.906L659.64 243.856C659.441 243.607 659.241 243.341 659.042 243.092C658.992 243.025 658.926 242.942 658.893 242.876L667.761 232.776C667.878 232.925 667.977 233.075 668.094 233.224C670.535 236.397 673.491 238.956 676.564 240.251C679.421 241.481 681.912 241.447 683.838 240.417L694.867 259.986V260.036Z" fill="#666666"/>
<path d="M718.42 229.57L714.234 227.161V222.327L718.42 224.736V229.57Z" fill="#0D0F10"/>
<path d="M718.42 236.763L714.234 234.354V229.537L718.42 231.945V236.763Z" fill="#FDB602"/>
<path d="M718.42 243.972L714.234 241.564V236.746L718.42 239.155V243.972Z" fill="#EAEAEA"/>
<path d="M718.42 251.182L714.234 248.773V243.939L718.42 246.348V251.182Z" fill="#666666"/>
<path d="M748.248 243.025L725.162 229.702V228.639L748.248 241.979V243.025Z" fill="#FDB602"/>
<path d="M748.248 246.215L725.162 232.875V231.812L748.248 245.151V246.215Z" fill="#FDB602"/>
<path d="M748.248 249.388L725.162 236.048V235.002L748.248 248.325V249.388Z" fill="#FDB602"/>
<path d="M747.883 252.344L724.797 239.022V237.958L747.883 251.281V252.344Z" fill="#FDB602"/>
<path d="M748.248 256.963L725.162 243.64V242.577L748.248 255.917V256.963Z" fill="#FDB602"/>
<path d="M748.248 260.153L725.162 246.813V245.75L748.248 259.089V260.153Z" fill="#FDB602"/>
<path d="M748.248 263.325L725.162 250.002V248.939L748.248 262.262V263.325Z" fill="#FDB602"/>
<path d="M747.883 266.282L724.797 252.96V251.896L747.883 265.219V266.282Z" fill="#FDB602"/>
<path d="M620.811 243.275L571.75 214.935V211.047L620.811 239.387V243.275Z" fill="#FDB602"/>
<path d="M641.14 268.027L571.75 227.942V223.988L641.14 264.073V268.027Z" fill="#FDB602"/>
<path d="M641.14 275.685L571.75 235.617V231.663L641.14 271.748V275.685Z" fill="#FDB602"/>
<path d="M641.14 283.36L571.75 243.275V239.338L641.14 279.406V283.36Z" fill="#FDB602"/>
<path d="M641.14 291.034L571.75 250.95V246.996L641.14 287.081V291.034Z" fill="#FDB602"/>
<path d="M641.14 298.692L571.75 258.624V254.67L641.14 294.755V298.692Z" fill="#FDB602"/>
<path d="M748.929 330.271L679.539 290.187V286.233L748.929 326.318V330.271Z" fill="#FDB602"/>
<path d="M748.929 337.946L679.539 297.861V293.908L748.929 333.992V337.946Z" fill="#FDB602"/>
<path d="M748.929 345.604L679.539 305.536V301.583L748.929 341.651V345.604Z" fill="#FDB602"/>
<path d="M748.929 353.279L679.539 313.194V309.257L748.929 349.325V353.279Z" fill="#FDB602"/>
<path d="M748.929 360.953L679.539 320.869V316.915L748.929 357V360.953Z" fill="#FDB602"/>
<path d="M748.93 287.213L709.252 264.305V260.352L748.93 283.259V287.213Z" fill="#FDB602"/>
<path d="M748.93 294.888L709.252 271.963V268.026L748.93 290.934V294.888Z" fill="#FDB602"/>
<path d="M748.93 302.546L709.252 279.638V275.685L748.93 298.609V302.546Z" fill="#FDB602"/>
<path d="M748.93 310.221L709.252 287.313V283.359L748.93 306.267V310.221Z" fill="#FDB602"/>
<path d="M748.93 317.895L709.252 294.971V291.034L748.93 313.942V317.895Z" fill="#FDB602"/>
<path d="M671.832 316.417L647.982 302.646V268.026L671.832 281.798V316.417Z" fill="#FDB602"/>
<path d="M723.469 586.977V590.548C723.453 595.133 720.43 599.718 714.401 603.223C702.277 610.267 682.563 610.267 670.355 603.223C664.21 599.668 661.138 595.017 661.154 590.366V586.794C661.154 591.445 664.227 596.097 670.355 599.652C682.563 606.695 702.277 606.695 714.401 599.652C720.43 596.147 723.436 591.578 723.453 586.977H723.469Z" fill="#918F8A"/>
<path d="M714.269 574.119C726.476 581.163 726.543 592.592 714.419 599.635C702.294 606.679 682.58 606.679 670.373 599.635C658.166 592.592 658.099 581.163 670.224 574.119C682.348 567.076 702.062 567.076 714.269 574.119Z" fill="#E1E1E1"/>
<path d="M710.249 576.378C720.214 582.126 720.264 591.462 710.366 597.226C700.45 602.99 684.34 602.99 674.375 597.226C664.393 591.462 664.344 582.126 674.259 576.378C684.157 570.614 700.284 570.614 710.249 576.378Z" fill="#F5F5F5"/>
<path d="M680.488 580.664L677.166 578.754L679.591 577.358L682.879 579.252C685.969 577.674 689.722 576.594 692.595 576.478L694.256 578.97C691.615 579.119 688.543 579.917 686.085 581.096L692.014 584.518C696.1 583.09 700.7 581.661 704.802 584.036C707.825 585.781 708.274 588.572 704.088 591.495L707.443 593.422L705.018 594.818L701.73 592.924C699.421 594.12 696.548 595.034 693.907 595.349L692.13 592.924C694.621 592.542 696.781 591.877 698.524 591.08L692.545 587.625C688.46 589.053 683.843 590.532 679.724 588.156C676.701 586.412 676.319 583.621 680.488 580.664ZM695.601 586.578L700.866 589.618C702.643 588.206 702.461 587.093 701.165 586.329C699.737 585.498 697.827 585.864 695.601 586.562V586.578ZM683.245 585.814C684.69 586.661 686.683 586.296 688.958 585.565L683.71 582.541C681.883 583.97 681.966 585.083 683.245 585.831V585.814Z" fill="#FDB602"/>
<path d="M723.487 580.83V584.402C723.47 588.987 720.448 593.572 714.419 597.077C702.295 604.12 682.58 604.12 670.373 597.077C664.228 593.522 661.155 588.87 661.172 584.219V580.647C661.172 585.299 664.245 589.95 670.373 593.505C682.58 600.549 702.295 600.549 714.419 593.505C720.448 590 723.454 585.432 723.47 580.83H723.487Z" fill="#918F8A"/>
<path d="M714.287 567.989C726.494 575.033 726.56 586.462 714.436 593.505C702.312 600.549 682.598 600.549 670.391 593.505C658.183 586.462 658.117 575.033 670.241 567.989C682.365 560.946 702.08 560.946 714.287 567.989Z" fill="#E1E1E1"/>
<path d="M710.267 570.232C720.232 575.98 720.282 585.316 710.383 591.08C700.468 596.844 684.358 596.844 674.393 591.08C664.411 585.316 664.361 575.98 674.276 570.232C684.175 564.468 700.302 564.468 710.267 570.232Z" fill="#F5F5F5"/>
<path d="M680.505 574.517L677.184 572.607L679.608 571.211L682.897 573.105C685.986 571.527 689.74 570.447 692.613 570.331L694.274 572.823C691.633 572.972 688.56 573.77 686.102 574.949L692.032 578.371C696.117 576.943 700.718 575.514 704.82 577.89C707.843 579.634 708.291 582.425 704.106 585.348L707.461 587.275L705.036 588.671L701.748 586.777C699.439 587.973 696.566 588.887 693.925 589.202L692.148 586.777C694.639 586.395 696.798 585.73 698.542 584.933L692.563 581.478C688.477 582.906 683.86 584.385 679.741 582.009C676.719 580.265 676.337 577.474 680.505 574.517ZM695.619 580.431L700.884 583.471C702.661 582.059 702.478 580.946 701.183 580.182C699.755 579.351 697.845 579.717 695.619 580.415V580.431ZM683.262 579.667C684.707 580.514 686.7 580.149 688.976 579.418L683.727 576.394C681.9 577.823 681.983 578.936 683.262 579.684V579.667Z" fill="#FDB602"/>
<path d="M723.487 574.7V578.272C723.47 582.857 720.448 587.442 714.419 590.947C702.295 597.99 682.58 597.99 670.373 590.947C664.228 587.392 661.155 582.74 661.172 578.089V574.518C661.172 579.169 664.245 583.82 670.373 587.375C682.58 594.419 702.295 594.419 714.419 587.375C720.448 583.87 723.454 579.302 723.47 574.7H723.487Z" fill="#918F8A"/>
<path d="M714.287 561.843C726.494 568.886 726.56 580.315 714.436 587.359C702.312 594.402 682.598 594.402 670.391 587.359C658.183 580.315 658.117 568.886 670.241 561.843C682.365 554.799 702.08 554.799 714.287 561.843Z" fill="#E1E1E1"/>
<path d="M710.267 564.085C720.232 569.833 720.282 579.169 710.383 584.933C700.468 590.698 684.358 590.698 674.393 584.933C664.411 579.169 664.361 569.833 674.276 564.085C684.175 558.321 700.302 558.321 710.267 564.085Z" fill="#F5F5F5"/>
<path d="M680.505 568.388L677.184 566.478L679.608 565.082L682.897 566.976C685.986 565.398 689.74 564.318 692.613 564.202L694.274 566.693C691.633 566.843 688.56 567.64 686.102 568.82L692.032 572.242C696.117 570.813 700.718 569.385 704.82 571.76C707.843 573.504 708.291 576.295 704.106 579.219L707.461 581.146L705.036 582.541L701.748 580.648C699.439 581.844 696.566 582.757 693.925 583.073L692.148 580.648C694.639 580.265 696.798 579.601 698.542 578.804L692.563 575.348C688.477 576.777 683.86 578.255 679.741 575.88C676.719 574.136 676.337 571.345 680.505 568.388ZM695.619 574.302L700.884 577.342C702.661 575.93 702.478 574.817 701.183 574.053C699.755 573.222 697.845 573.587 695.619 574.285V574.302ZM683.262 573.538C684.707 574.385 686.7 574.019 688.976 573.288L683.727 570.265C681.9 571.694 681.983 572.807 683.262 573.554V573.538Z" fill="#FDB602"/>
<path d="M649.878 600.665V604.237C649.861 608.822 646.838 613.407 640.809 616.912C628.685 623.955 608.971 623.955 596.764 616.912C590.619 613.357 587.546 608.705 587.563 604.054V600.482C587.563 605.134 590.635 609.785 596.764 613.34C608.971 620.384 628.685 620.384 640.809 613.34C646.838 609.835 649.844 605.267 649.861 600.665H649.878Z" fill="#918F8A"/>
<path d="M640.693 587.824C652.9 594.868 652.967 606.297 640.843 613.34C628.718 620.384 609.004 620.384 596.797 613.34C584.59 606.297 584.523 594.868 596.647 587.824C608.772 580.781 628.486 580.781 640.693 587.824Z" fill="#E1E1E1"/>
<path d="M636.673 590.067C646.638 595.815 646.688 605.151 636.789 610.915C626.874 616.679 610.764 616.679 600.799 610.915C590.817 605.151 590.767 595.815 600.683 590.067C610.581 584.303 626.708 584.303 636.673 590.067Z" fill="#F5F5F5"/>
<path d="M606.912 594.352L603.59 592.442L606.015 591.046L609.303 592.94C612.392 591.362 616.146 590.282 619.019 590.166L620.68 592.658C618.039 592.807 614.967 593.605 612.509 594.784L618.438 598.206C622.524 596.778 627.124 595.349 631.226 597.724C634.249 599.469 634.698 602.26 630.512 605.183L633.867 607.11L631.442 608.506L628.154 606.612C625.845 607.808 622.972 608.722 620.331 609.037L618.554 606.612C621.045 606.23 623.204 605.565 624.948 604.768L618.969 601.313C614.884 602.741 610.266 604.22 606.148 601.844C603.125 600.1 602.743 597.309 606.912 594.352ZM622.025 600.266L627.29 603.306C629.067 601.894 628.885 600.781 627.589 600.017C626.161 599.186 624.251 599.552 622.025 600.249V600.266ZM609.669 599.502C611.113 600.349 613.107 599.984 615.382 599.253L610.134 596.229C608.307 597.658 608.39 598.771 609.669 599.519V599.502Z" fill="#FDB602"/>
<path d="M592.778 564.268V567.84C592.761 572.425 589.739 577.01 583.71 580.515C571.586 587.558 551.871 587.558 539.664 580.515C533.519 576.96 530.446 572.308 530.463 567.657V564.085C530.463 568.737 533.536 573.388 539.664 576.943C551.871 583.987 571.586 583.987 583.71 576.943C589.739 573.438 592.745 568.87 592.761 564.268H592.778Z" fill="#918F8A"/>
<path d="M583.578 551.411C595.785 558.454 595.851 569.883 583.727 576.927C571.603 583.97 551.889 583.97 539.682 576.927C527.474 569.883 527.408 558.454 539.532 551.411C551.656 544.367 571.371 544.367 583.578 551.411Z" fill="#E1E1E1"/>
<path d="M579.558 553.653C589.523 559.401 589.573 568.737 579.674 574.501C569.759 580.266 553.649 580.266 543.684 574.501C533.702 568.737 533.652 559.401 543.567 553.653C553.466 547.889 569.593 547.889 579.558 553.653Z" fill="#F5F5F5"/>
<path d="M549.796 557.956L546.475 556.045L548.899 554.65L552.188 556.544C555.277 554.966 559.031 553.886 561.904 553.77L563.565 556.261C560.924 556.411 557.851 557.208 555.393 558.388L561.323 561.81C565.408 560.381 570.009 558.952 574.111 561.328C577.134 563.072 577.582 565.863 573.397 568.787L576.752 570.714L574.327 572.109L571.039 570.215C568.73 571.411 565.857 572.325 563.216 572.641L561.439 570.215C563.93 569.833 566.089 569.169 567.833 568.371L561.854 564.916C557.768 566.345 553.151 567.823 549.032 565.448C546.01 563.703 545.628 560.913 549.796 557.956ZM564.91 563.87L570.175 566.91C571.952 565.498 571.769 564.385 570.474 563.62C569.045 562.79 567.136 563.155 564.91 563.853V563.87ZM552.553 563.106C553.998 563.953 555.991 563.587 558.267 562.856L553.018 559.833C551.191 561.262 551.274 562.375 552.553 563.122V563.106Z" fill="#FDB602"/>
<path d="M512.858 570.431V574.003C512.841 578.588 509.819 583.173 503.79 586.678C491.666 593.721 471.951 593.721 459.744 586.678C453.599 583.123 450.526 578.471 450.543 573.82V570.249C450.543 574.9 453.616 579.551 459.744 583.106C471.951 590.15 491.666 590.15 503.79 583.106C509.819 579.601 512.825 575.033 512.841 570.431H512.858Z" fill="#918F8A"/>
<path d="M503.658 557.59C515.865 564.634 515.932 576.063 503.807 583.106C491.683 590.15 471.969 590.15 459.762 583.106C447.554 576.063 447.488 564.634 459.612 557.59C471.736 550.547 491.451 550.547 503.658 557.59Z" fill="#E1E1E1"/>
<path d="M499.638 559.833C509.603 565.581 509.653 574.917 499.754 580.681C489.839 586.445 473.729 586.445 463.764 580.681C453.782 574.917 453.732 565.581 463.648 559.833C473.546 554.069 489.673 554.069 499.638 559.833Z" fill="#F5F5F5"/>
<path d="M469.876 564.118L466.555 562.208L468.98 560.813L472.268 562.706C475.357 561.128 479.111 560.048 481.984 559.932L483.645 562.424C481.004 562.573 477.931 563.371 475.473 564.55L481.403 567.972C485.488 566.544 490.089 565.115 494.191 567.491C497.214 569.235 497.662 572.026 493.477 574.949L496.832 576.876L494.407 578.272L491.119 576.378C488.81 577.574 485.937 578.488 483.296 578.803L481.519 576.378C484.01 575.996 486.169 575.331 487.913 574.534L481.934 571.079C477.848 572.507 473.231 573.986 469.112 571.61C466.09 569.866 465.708 567.075 469.876 564.118ZM484.99 570.032L490.255 573.072C492.032 571.66 491.849 570.547 490.554 569.783C489.126 568.952 487.216 569.318 484.99 570.016V570.032ZM472.633 569.268C474.078 570.115 476.071 569.75 478.347 569.019L473.098 565.995C471.271 567.424 471.355 568.537 472.633 569.285V569.268Z" fill="#FDB602"/>
<path d="M512.858 564.218V567.79C512.841 572.375 509.819 576.96 503.79 580.465C491.666 587.508 471.951 587.508 459.744 580.465C453.599 576.91 450.526 572.259 450.543 567.607V564.036C450.543 568.687 453.616 573.338 459.744 576.893C471.951 583.937 491.666 583.937 503.79 576.893C509.819 573.388 512.825 568.82 512.841 564.218H512.858Z" fill="#918F8A"/>
<path d="M503.658 551.361C515.865 558.404 515.932 569.833 503.807 576.877C491.683 583.92 471.969 583.92 459.762 576.877C447.554 569.833 447.488 558.404 459.612 551.361C471.736 544.317 491.451 544.317 503.658 551.361Z" fill="#E1E1E1"/>
<path d="M499.638 553.604C509.603 559.351 509.653 568.687 499.754 574.452C489.839 580.216 473.729 580.216 463.764 574.452C453.782 568.687 453.732 559.351 463.648 553.604C473.546 547.839 489.673 547.839 499.638 553.604Z" fill="#F5F5F5"/>
<path d="M469.876 557.906L466.555 555.996L468.98 554.6L472.268 556.494C475.357 554.916 479.111 553.836 481.984 553.72L483.645 556.212C481.004 556.361 477.931 557.158 475.473 558.338L481.403 561.76C485.488 560.331 490.089 558.903 494.191 561.278C497.214 563.022 497.662 565.813 493.477 568.737L496.832 570.664L494.407 572.059L491.119 570.166C488.81 571.362 485.937 572.275 483.296 572.591L481.519 570.166C484.01 569.784 486.169 569.119 487.913 568.322L481.934 564.866C477.848 566.295 473.231 567.773 469.112 565.398C466.09 563.654 465.708 560.863 469.876 557.906ZM484.99 563.82L490.255 566.86C492.032 565.448 491.849 564.335 490.554 563.571C489.126 562.74 487.216 563.106 484.99 563.803V563.82ZM472.633 563.056C474.078 563.903 476.071 563.537 478.347 562.806L473.098 559.783C471.271 561.212 471.355 562.325 472.633 563.072V563.056Z" fill="#FDB602"/>
<path d="M512.858 558.072V561.643C512.841 566.228 509.819 570.813 503.79 574.318C491.666 581.362 471.951 581.362 459.744 574.318C453.599 570.763 450.526 566.112 450.543 561.461V557.889C450.543 562.541 453.616 567.192 459.744 570.747C471.951 577.79 491.666 577.79 503.79 570.747C509.819 567.242 512.825 562.673 512.841 558.072H512.858Z" fill="#918F8A"/>
<path d="M503.658 545.214C515.865 552.258 515.932 563.687 503.807 570.73C491.683 577.774 471.969 577.774 459.762 570.73C447.554 563.687 447.488 552.258 459.612 545.214C471.736 538.171 491.451 538.171 503.658 545.214Z" fill="#E1E1E1"/>
<path d="M499.638 547.457C509.603 553.205 509.653 562.541 499.754 568.305C489.839 574.069 473.729 574.069 463.764 568.305C453.782 562.541 453.732 553.205 463.648 547.457C473.546 541.693 489.673 541.693 499.638 547.457Z" fill="#F5F5F5"/>
<path d="M469.892 551.759L466.57 549.849L468.995 548.454L472.284 550.347C475.373 548.769 479.126 547.69 482 547.573L483.66 550.065C481.02 550.215 477.947 551.012 475.489 552.191L481.418 555.613C485.504 554.185 490.105 552.756 494.207 555.132C497.23 556.876 497.678 559.667 493.493 562.59L496.848 564.517L494.423 565.913L491.134 564.019C488.826 565.215 485.952 566.129 483.312 566.444L481.535 564.019C484.026 563.637 486.185 562.973 487.929 562.175L481.95 558.72C477.864 560.148 473.247 561.627 469.128 559.251C466.105 557.507 465.723 554.716 469.892 551.759ZM485.006 557.673L490.271 560.713C492.048 559.301 491.865 558.188 490.57 557.424C489.141 556.594 487.231 556.959 485.006 557.657V557.673ZM472.649 556.909C474.094 557.756 476.087 557.391 478.362 556.66L473.114 553.637C471.287 555.065 471.37 556.178 472.649 556.926V556.909Z" fill="#FDB602"/>
<path d="M512.876 551.925V555.497C512.859 560.082 509.836 564.667 503.807 568.172C491.683 575.215 471.969 575.215 459.762 568.172C453.617 564.617 450.544 559.966 450.561 555.314V551.743C450.561 556.394 453.633 561.045 459.762 564.6C471.969 571.644 491.683 571.644 503.807 564.6C509.836 561.095 512.842 556.527 512.859 551.925H512.876Z" fill="#918F8A"/>
<path d="M503.675 539.084C515.883 546.128 515.949 557.557 503.825 564.6C491.701 571.644 471.986 571.644 459.779 564.6C447.572 557.557 447.506 546.128 459.63 539.084C471.754 532.041 491.468 532.041 503.675 539.084Z" fill="#E1E1E1"/>
<path d="M499.654 541.327C509.619 547.075 509.669 556.411 499.77 562.175C489.855 567.94 473.744 567.94 463.779 562.175C453.798 556.411 453.748 547.075 463.663 541.327C473.562 535.563 489.689 535.563 499.654 541.327Z" fill="#F5F5F5"/>
<path d="M469.894 545.612L466.572 543.702L468.997 542.307L472.286 544.2C475.375 542.622 479.128 541.543 482.002 541.426L483.662 543.918C481.022 544.068 477.949 544.865 475.491 546.044L481.42 549.466C485.506 548.038 490.106 546.609 494.209 548.985C497.232 550.729 497.68 553.52 493.495 556.444L496.85 558.371L494.425 559.766L491.136 557.872C488.828 559.068 485.954 559.982 483.314 560.297L481.537 557.872C484.028 557.49 486.187 556.826 487.931 556.028L481.952 552.573C477.866 554.002 473.249 555.48 469.13 553.104C466.107 551.36 465.725 548.569 469.894 545.612ZM485.008 551.526L490.273 554.566C492.05 553.154 491.867 552.041 490.572 551.277C489.143 550.447 487.233 550.812 485.008 551.51V551.526ZM472.651 550.762C474.096 551.609 476.089 551.244 478.364 550.513L473.116 547.49C471.289 548.918 471.372 550.031 472.651 550.779V550.762Z" fill="#FDB602"/>
<path d="M348.035 512.771L348.002 524.948L348.949 525.346V528.137L354.811 527.838L354.845 512.422L348.035 512.771Z" fill="#CC8E02"/>
<path d="M348.001 526.127L343.334 530.014L341.158 531.808L341.125 547.224L348.898 540.762L348.948 528.137V525.346L348.001 526.127Z" fill="#EDA107"/>
<path d="M348.001 524.948L348.034 512.754C347.685 516.293 346.124 519.815 343.334 523.054L347.984 524.931L348.001 524.948Z" fill="#EDA107"/>
<path d="M343.766 499.864V492.438L338.982 495.229C340.876 496.691 342.47 498.253 343.766 499.864Z" fill="#CC8E02"/>
<path d="M335.562 529.532L335.512 544.948L341.125 547.224L341.159 531.808L335.562 529.532Z" fill="#CC8E02"/>
<path d="M334.716 530.048C330.497 532.49 325.681 534.367 320.516 535.663L322.309 539.483L322.276 550.597C326.76 549.334 330.962 547.623 334.683 545.464C334.965 545.297 335.247 545.131 335.53 544.965L335.579 529.549C335.297 529.715 335.015 529.882 334.732 530.048H334.716Z" fill="#EDA107"/>
<path d="M320.514 539.749L309.153 541.527L309.104 556.943L322.257 554.899L322.274 550.597L322.307 539.483L320.514 539.749Z" fill="#EDA107"/>
<path d="M313.155 485.228V481.208L312.59 485.145C312.773 485.178 312.972 485.195 313.155 485.228Z" fill="#A61E22"/>
<path d="M307.36 537.689L307.311 553.105L309.104 556.942L309.154 541.526L307.36 537.689Z" fill="#CC8E02"/>
<path d="M271.188 509.216C271.121 509.548 271.088 509.88 271.055 510.196C271.055 510.345 271.038 510.478 271.021 510.628C271.021 510.744 271.021 510.877 271.021 510.993V511.076C271.021 513.701 272.018 516.342 273.994 518.768C275.456 517.007 277.449 515.329 279.973 513.867C292.031 506.857 311.629 506.857 323.77 513.867C326.394 515.379 328.437 517.09 329.932 518.917C331.941 516.492 332.938 513.85 332.954 511.226C332.971 506.608 329.915 501.973 323.82 498.451C320.681 496.64 317.044 495.295 313.157 494.414C312.974 494.381 312.775 494.331 312.592 494.298C301.598 491.956 288.809 493.351 280.023 498.451C279.641 498.667 279.293 498.9 278.927 499.116C278.578 499.348 278.246 499.581 277.914 499.797C277.881 499.813 277.864 499.83 277.848 499.863C277.549 500.079 277.25 500.295 276.967 500.511C276.917 500.561 276.868 500.594 276.801 500.644C276.552 500.843 276.303 501.043 276.087 501.242C274.958 502.222 274.028 503.269 273.28 504.332C273.098 504.598 272.915 504.863 272.749 505.146C272.666 505.279 272.583 505.412 272.516 505.544C272.466 505.628 272.417 505.711 272.383 505.794C272.284 505.976 272.184 506.176 272.084 506.375C272.018 506.525 271.952 506.657 271.902 506.79C271.852 506.923 271.785 507.073 271.736 507.206C271.686 507.339 271.636 507.455 271.603 507.588C271.603 507.604 271.603 507.638 271.586 507.654C271.453 508.07 271.337 508.485 271.254 508.9C271.237 509 271.221 509.083 271.204 509.183L271.188 509.216Z" fill="#CC8E02"/>
<path d="M289.009 536.775L288.959 552.191C294.921 553.205 301.183 553.52 307.311 553.122L307.361 537.706C301.233 538.104 294.988 537.805 289.009 536.792V536.775Z" fill="#EDA107"/>
<path d="M286.151 540.347L286.102 555.779L288.975 552.191L289.008 536.775L286.151 540.347Z" fill="#CC8E02"/>
<path d="M276.636 537.789L273.779 537.025L273.746 547.673V552.441L286.103 555.78L286.153 540.347L276.636 537.789Z" fill="#EDA107"/>
<path d="M276.649 533.436C274.108 532.473 271.7 531.327 269.474 530.048C268.627 529.566 267.83 529.067 267.066 528.552C265.804 527.689 264.641 526.808 263.595 525.895L263.545 541.31C265.239 542.772 267.182 544.168 269.424 545.463C270.803 546.261 272.248 546.992 273.759 547.673L273.792 537.025L276.649 533.436Z" fill="#EDA107"/>
<path d="M270.106 491.74L266.17 488.501V494.215C267.117 493.534 268.146 492.87 269.242 492.239C269.525 492.073 269.807 491.906 270.106 491.74Z" fill="#CC8E02"/>
<path d="M257.749 527.473L257.4 527.572L257.384 533.453L257.367 542.988L263.529 541.31L263.579 525.895L257.749 527.473Z" fill="#CC8E02"/>
<path d="M257.782 518.735C256.968 517.157 256.404 515.545 256.105 513.901C255.939 512.954 255.839 512.007 255.839 511.043C255.839 513.784 255.839 516.509 255.822 519.25L256.088 519.183L257.782 518.718V518.735Z" fill="#EDA107"/>
<path d="M257.403 527.572L255.808 525.579L253.865 523.187L251.606 520.413V522.838L251.557 535.829L257.37 542.988L257.386 533.453L257.403 527.572Z" fill="#EDA107"/>
<path d="M255.84 511.06C255.84 512.007 255.924 512.97 256.106 513.917C256.405 515.545 256.97 517.173 257.784 518.751L256.09 519.217L255.824 519.283L251.605 520.429L253.864 523.203L255.807 525.596L257.418 527.572L257.767 527.473L263.597 525.895C264.643 526.808 265.806 527.689 267.068 528.553C267.832 529.067 268.629 529.566 269.476 530.048C271.718 531.343 274.126 532.473 276.651 533.436L273.794 537.025L276.651 537.789L286.168 540.347L289.024 536.775C294.987 537.789 301.231 538.104 307.377 537.689L309.17 541.51L320.53 539.749L322.324 539.467L320.53 535.646C325.696 534.35 330.512 532.473 334.731 530.031C335.013 529.865 335.295 529.699 335.578 529.533L341.191 531.808L343.351 530.014L348.034 526.127L348.981 525.346L348.034 524.964L343.384 523.087C346.157 519.831 347.735 516.326 348.084 512.788L354.893 512.439L353.664 504.581L346.871 504.93C346.157 503.219 345.144 501.525 343.816 499.897C342.503 498.285 340.909 496.724 339.032 495.262L343.849 492.471L334.183 486.89L329.366 489.681C324.433 487.554 318.936 486.092 313.223 485.262C313.04 485.228 312.841 485.212 312.658 485.179L313.223 481.242L299.654 480.561L299.072 484.498C292.96 484.714 286.898 485.627 281.301 487.255L277.365 484.016L266.237 488.551L270.174 491.79C269.875 491.956 269.592 492.122 269.31 492.289C268.214 492.92 267.184 493.584 266.221 494.265C263.48 496.209 261.288 498.319 259.644 500.528L253.05 499.498L249.562 507.123L256.173 508.153C255.99 509.133 255.89 510.113 255.89 511.093L255.84 511.06ZM271.602 507.605C271.652 507.489 271.685 507.356 271.735 507.223C271.785 507.073 271.851 506.94 271.901 506.807C271.951 506.675 272.017 506.525 272.084 506.392C272.167 506.209 272.266 506.01 272.383 505.811C272.416 505.728 272.466 505.645 272.515 505.562C272.582 505.429 272.665 505.296 272.748 505.163C272.914 504.88 273.08 504.615 273.279 504.349C274.027 503.269 274.957 502.239 276.086 501.259C276.319 501.06 276.551 500.844 276.8 500.661C276.85 500.611 276.9 500.578 276.966 500.528C277.249 500.296 277.531 500.096 277.847 499.88C277.88 499.864 277.897 499.847 277.913 499.814C278.245 499.581 278.578 499.349 278.926 499.133C279.275 498.9 279.64 498.684 280.022 498.468C288.808 493.368 301.597 491.973 312.592 494.315C312.774 494.348 312.974 494.398 313.156 494.432C317.043 495.312 320.68 496.658 323.819 498.468C329.931 501.99 332.97 506.625 332.954 511.243C332.954 513.884 331.94 516.509 329.931 518.934C328.469 520.712 326.476 522.373 323.952 523.835C311.894 530.845 292.296 530.845 280.155 523.835C277.531 522.323 275.488 520.612 273.994 518.785C272.001 516.359 271.021 513.735 271.021 511.093V511.01C271.021 510.894 271.021 510.761 271.021 510.645C271.021 510.495 271.021 510.362 271.054 510.213C271.087 509.881 271.12 509.548 271.187 509.233C271.187 509.133 271.22 509.033 271.237 508.95C271.32 508.535 271.436 508.12 271.569 507.705C271.569 507.688 271.569 507.671 271.585 507.638L271.602 507.605Z" fill="#FDB602"/>
<path d="M255.824 519.266C255.824 516.525 255.824 513.784 255.841 511.06C255.841 510.08 255.94 509.1 256.123 508.12L249.513 507.09L249.463 522.506L251.589 522.838V520.413L255.807 519.283L255.824 519.266Z" fill="#CC8E02"/>
<path d="M348.069 495.312L348.02 507.489L348.966 507.887V510.678L354.829 510.379L354.862 494.963L348.069 495.312Z" fill="#CC8E02"/>
<path d="M348.018 508.668L343.352 512.555L341.192 514.349L341.143 529.765L348.932 523.303L348.965 510.678V507.887L348.018 508.668Z" fill="#EDA107"/>
<path d="M348.019 507.489L348.052 495.295C347.703 498.834 346.142 502.355 343.352 505.595L348.002 507.472L348.019 507.489Z" fill="#EDA107"/>
<path d="M343.801 482.405V474.979L339.018 477.77C340.911 479.232 342.505 480.794 343.801 482.405Z" fill="#CC8E02"/>
<path d="M335.579 512.074L335.529 527.49L341.143 529.765L341.193 514.35L335.579 512.074Z" fill="#CC8E02"/>
<path d="M334.733 512.572C330.515 515.014 325.698 516.891 320.533 518.187L322.327 522.008L322.294 533.121C326.778 531.859 330.98 530.148 334.7 527.988C334.983 527.822 335.265 527.656 335.547 527.49L335.597 512.074C335.315 512.24 335.032 512.406 334.75 512.572H334.733Z" fill="#EDA107"/>
<path d="M320.531 522.29L309.171 524.067L309.121 539.483L322.275 537.44L322.292 533.137L322.325 522.007L320.531 522.29Z" fill="#EDA107"/>
<path d="M313.19 467.769V463.749L312.625 467.686C312.808 467.719 313.007 467.736 313.19 467.769Z" fill="#A61E22"/>
<path d="M307.378 520.23L307.328 535.646L309.122 539.483L309.172 524.067L307.378 520.23Z" fill="#CC8E02"/>
<path d="M271.205 491.741C271.139 492.073 271.105 492.405 271.072 492.721C271.072 492.87 271.056 493.003 271.039 493.153C271.039 493.269 271.039 493.402 271.039 493.518V493.601C271.039 496.226 272.036 498.867 274.012 501.292C275.474 499.532 277.467 497.854 279.991 496.392C292.049 489.382 311.647 489.382 323.788 496.392C326.412 497.904 328.455 499.615 329.949 501.442C331.959 499.017 332.955 496.375 332.972 493.751C332.989 489.133 329.933 484.498 323.837 480.976C320.698 479.165 317.061 477.82 313.175 476.939C312.992 476.906 312.793 476.856 312.61 476.823C301.615 474.481 288.827 475.876 280.041 480.976C279.659 481.192 279.31 481.425 278.945 481.641C278.596 481.873 278.264 482.106 277.932 482.322C277.898 482.338 277.882 482.355 277.865 482.388C277.566 482.604 277.267 482.82 276.985 483.036C276.935 483.086 276.885 483.119 276.819 483.169C276.57 483.368 276.321 483.568 276.105 483.767C274.975 484.747 274.045 485.794 273.298 486.857C273.115 487.122 272.932 487.388 272.766 487.671C272.683 487.804 272.6 487.936 272.534 488.069C272.484 488.152 272.434 488.235 272.401 488.319C272.301 488.501 272.202 488.701 272.102 488.9C272.036 489.049 271.969 489.182 271.919 489.315C271.869 489.448 271.803 489.598 271.753 489.731C271.703 489.863 271.654 489.98 271.62 490.113C271.62 490.129 271.62 490.162 271.604 490.179C271.471 490.594 271.355 491.01 271.272 491.425C271.255 491.525 271.238 491.608 271.222 491.707L271.205 491.741Z" fill="#CC8E02"/>
<path d="M289.042 519.316L288.992 534.732C294.955 535.746 301.216 536.061 307.345 535.663L307.394 520.247C301.266 520.645 295.021 520.346 289.042 519.333V519.316Z" fill="#EDA107"/>
<path d="M286.168 522.888L286.135 538.321L288.991 534.732L289.041 519.316L286.168 522.888Z" fill="#CC8E02"/>
<path d="M276.654 520.33L273.797 519.566L273.764 530.214V534.965L286.137 538.321L286.17 522.888L276.654 520.33Z" fill="#EDA107"/>
<path d="M276.667 515.977C274.125 515.014 271.717 513.868 269.492 512.589C268.645 512.107 267.847 511.608 267.083 511.093C265.821 510.23 264.659 509.349 263.612 508.436L263.562 523.851C265.257 525.313 267.2 526.709 269.442 528.004C270.82 528.802 272.265 529.533 273.777 530.214L273.81 519.566L276.667 515.977Z" fill="#EDA107"/>
<path d="M270.141 474.281L266.205 471.042V476.757C267.152 476.075 268.181 475.411 269.278 474.78C269.56 474.614 269.842 474.447 270.141 474.281Z" fill="#CC8E02"/>
<path d="M257.767 510.014L257.435 510.097L257.401 515.994L257.385 525.513L263.563 523.851L263.596 508.436L257.767 510.014Z" fill="#CC8E02"/>
<path d="M257.8 501.276C256.986 499.698 256.421 498.086 256.122 496.442C255.956 495.495 255.856 494.548 255.856 493.584C255.856 496.325 255.856 499.05 255.84 501.791L256.106 501.724L257.8 501.259V501.276Z" fill="#EDA107"/>
<path d="M257.436 510.097L255.825 508.12L253.882 505.728L251.623 502.954V505.379L251.59 518.37L257.386 525.513L257.403 515.994L257.436 510.097Z" fill="#EDA107"/>
<path d="M255.858 493.601C255.858 494.548 255.941 495.511 256.124 496.458C256.423 498.086 256.987 499.714 257.801 501.292L256.107 501.758L255.841 501.824L251.623 502.97L253.882 505.744L255.825 508.137L257.436 510.113L257.785 510.014L263.614 508.436C264.661 509.349 265.823 510.23 267.085 511.094C267.849 511.608 268.647 512.107 269.494 512.589C271.736 513.884 274.144 515.014 276.669 515.977L273.812 519.566L276.669 520.33L286.185 522.888L289.042 519.316C295.004 520.33 301.249 520.645 307.394 520.23L309.188 524.051L320.548 522.29L322.342 522.008L320.548 518.187C325.713 516.891 330.53 515.014 334.748 512.572C335.031 512.406 335.313 512.24 335.595 512.074L341.209 514.35L343.368 512.555L348.052 508.668L348.998 507.887L348.052 507.505L343.401 505.628C346.175 502.372 347.753 498.867 348.102 495.329L354.911 494.98L353.682 487.122L346.889 487.471C346.175 485.76 345.162 484.066 343.833 482.438C342.521 480.827 340.927 479.265 339.05 477.803L343.866 475.012L334.2 469.431L329.384 472.222C324.451 470.095 318.954 468.633 313.24 467.803C313.058 467.77 312.858 467.753 312.676 467.72L313.24 463.783L299.671 463.102L299.09 467.039C292.978 467.255 286.916 468.168 281.319 469.796L277.383 466.557L266.255 471.092L270.191 474.331C269.892 474.497 269.61 474.663 269.328 474.83C268.231 475.461 267.202 476.125 266.238 476.806C263.498 478.75 261.306 480.86 259.661 483.069L253.068 482.039L249.58 489.664L256.19 490.694C256.008 491.674 255.908 492.654 255.908 493.634L255.858 493.601ZM271.62 490.146C271.669 490.03 271.703 489.897 271.752 489.764C271.802 489.614 271.869 489.481 271.918 489.348C271.968 489.216 272.035 489.066 272.101 488.933C272.184 488.75 272.284 488.551 272.4 488.352C272.433 488.269 272.483 488.186 272.533 488.103C272.599 487.97 272.682 487.837 272.766 487.704C272.932 487.421 273.098 487.156 273.297 486.89C274.044 485.81 274.974 484.78 276.104 483.8C276.336 483.601 276.569 483.385 276.818 483.202C276.868 483.152 276.918 483.119 276.984 483.069C277.266 482.837 277.549 482.637 277.864 482.421C277.898 482.405 277.914 482.388 277.931 482.355C278.263 482.122 278.595 481.89 278.944 481.674C279.293 481.441 279.658 481.225 280.04 481.009C288.826 475.909 301.614 474.514 312.609 476.856C312.792 476.889 312.991 476.939 313.174 476.973C317.06 477.853 320.698 479.199 323.837 481.009C329.948 484.531 332.988 489.166 332.971 493.784C332.971 496.425 331.958 499.05 329.948 501.475C328.487 503.253 326.494 504.914 323.969 506.376C311.912 513.386 292.314 513.386 280.173 506.376C277.549 504.864 275.506 503.153 274.011 501.326C272.018 498.9 271.038 496.276 271.038 493.634V493.551C271.038 493.435 271.038 493.302 271.038 493.186C271.038 493.036 271.038 492.903 271.071 492.754C271.105 492.422 271.138 492.089 271.204 491.774C271.204 491.674 271.238 491.574 271.254 491.491C271.337 491.076 271.453 490.661 271.586 490.246C271.586 490.229 271.586 490.212 271.603 490.179L271.62 490.146Z" fill="#FDB602"/>
<path d="M255.842 501.807C255.842 499.066 255.842 496.325 255.858 493.601C255.858 492.621 255.958 491.641 256.14 490.661L249.53 489.631L249.48 505.047L251.606 505.379V502.954L255.825 501.824L255.842 501.807Z" fill="#CC8E02"/>
<path d="M349.115 477.255L349.082 489.448L350.029 489.83L350.012 492.621L355.892 492.322L355.925 476.906L349.115 477.255Z" fill="#CC8E02"/>
<path d="M349.081 490.61L344.397 494.498L342.238 496.292L342.205 511.708L349.978 505.245L350.011 492.62L350.028 489.83L349.081 490.61Z" fill="#EDA107"/>
<path d="M349.081 489.448L349.114 477.255C348.765 480.793 347.204 484.315 344.414 487.554L349.064 489.431L349.081 489.448Z" fill="#EDA107"/>
<path d="M344.846 464.364V456.938L340.062 459.729C341.956 461.191 343.55 462.752 344.846 464.364Z" fill="#CC8E02"/>
<path d="M336.642 494.033L336.592 509.449L342.205 511.708L342.239 496.292L336.642 494.033Z" fill="#CC8E02"/>
<path d="M335.796 494.531C331.577 496.973 326.761 498.85 321.596 500.146L323.389 503.967L323.356 515.08C327.841 513.818 332.042 512.107 335.763 509.947C336.045 509.781 336.327 509.615 336.61 509.449L336.66 494.033C336.377 494.199 336.095 494.365 335.813 494.531H335.796Z" fill="#EDA107"/>
<path d="M321.577 504.249L310.233 506.01L310.184 521.426L323.337 519.383V515.08L323.387 503.967L321.577 504.249Z" fill="#EDA107"/>
<path d="M314.235 449.712V445.691L313.67 449.628C313.853 449.662 314.052 449.678 314.235 449.712Z" fill="#A61E22"/>
<path d="M308.44 502.189L308.391 517.605L310.184 521.426L310.234 506.01L308.44 502.189Z" fill="#CC8E02"/>
<path d="M272.25 473.7C272.184 474.032 272.15 474.364 272.117 474.68C272.117 474.829 272.101 474.962 272.084 475.112C272.084 475.228 272.084 475.361 272.084 475.477V475.56C272.084 478.185 273.081 480.826 275.057 483.252C276.518 481.491 278.511 479.813 281.036 478.351C293.094 471.341 312.692 471.341 324.832 478.351C327.457 479.863 329.499 481.574 330.994 483.401C333.004 480.976 334 478.334 334.017 475.71C334.034 471.092 330.978 466.457 324.882 462.935C321.743 461.124 318.106 459.779 314.22 458.898C314.037 458.865 313.838 458.815 313.655 458.782C302.66 456.44 289.872 457.835 281.086 462.935C280.704 463.151 280.355 463.384 279.99 463.6C279.641 463.832 279.309 464.065 278.977 464.281C278.943 464.297 278.927 464.314 278.91 464.347C278.611 464.563 278.312 464.779 278.03 464.995C277.98 465.045 277.93 465.078 277.864 465.128C277.615 465.327 277.365 465.527 277.15 465.726C276.02 466.706 275.09 467.753 274.343 468.816C274.16 469.082 273.977 469.347 273.811 469.63C273.728 469.763 273.645 469.895 273.579 470.028C273.529 470.111 273.479 470.195 273.446 470.278C273.346 470.46 273.247 470.66 273.147 470.859C273.08 471.008 273.014 471.141 272.964 471.274C272.914 471.407 272.848 471.557 272.798 471.69C272.748 471.822 272.699 471.939 272.665 472.072C272.665 472.088 272.665 472.122 272.649 472.138C272.516 472.553 272.4 472.969 272.317 473.384C272.3 473.484 272.283 473.567 272.267 473.666L272.25 473.7Z" fill="#CC8E02"/>
<path d="M290.089 501.259L290.039 516.675C296.002 517.688 302.263 518.004 308.391 517.605L308.441 502.189C302.313 502.588 296.068 502.289 290.089 501.275V501.259Z" fill="#EDA107"/>
<path d="M287.231 504.847L287.182 520.263L290.038 516.675L290.088 501.259L287.231 504.847Z" fill="#CC8E02"/>
<path d="M277.715 502.272L274.858 501.508L274.825 512.157L274.809 516.924L287.182 520.263L287.232 504.847L277.715 502.272Z" fill="#EDA107"/>
<path d="M277.715 497.92C275.174 496.956 272.766 495.81 270.541 494.531C269.694 494.049 268.896 493.551 268.132 493.036C266.87 492.172 265.707 491.292 264.661 490.378L264.611 505.794C266.305 507.256 268.249 508.651 270.491 509.947C271.869 510.744 273.314 511.475 274.826 512.156L274.859 501.508L277.715 497.92Z" fill="#EDA107"/>
<path d="M271.186 456.24L267.25 453.001V458.715C268.197 458.034 269.226 457.37 270.323 456.739C270.605 456.573 270.887 456.406 271.186 456.24Z" fill="#CC8E02"/>
<path d="M258.829 491.956L258.48 492.056L258.464 497.936L258.447 507.472L264.609 505.794L264.659 490.378L258.829 491.956Z" fill="#CC8E02"/>
<path d="M258.848 483.218C258.035 481.64 257.47 480.029 257.171 478.384C257.005 477.437 256.905 476.49 256.905 475.527C256.905 478.268 256.905 480.992 256.889 483.733L257.154 483.667L258.848 483.202V483.218Z" fill="#EDA107"/>
<path d="M258.483 492.056L256.888 490.062L254.929 487.67L252.687 484.896L252.67 487.321L252.637 500.312L258.45 507.472L258.466 497.936L258.483 492.056Z" fill="#EDA107"/>
<path d="M256.921 475.543C256.921 476.49 257.004 477.454 257.186 478.401C257.485 480.029 258.05 481.657 258.864 483.235L257.17 483.7L256.904 483.766L252.685 484.913L254.944 487.687L256.887 490.079L258.498 492.056L258.847 491.956L264.677 490.378C265.723 491.292 266.886 492.172 268.148 493.036C268.912 493.551 269.709 494.049 270.556 494.531C272.798 495.827 275.207 496.956 277.731 497.92L274.874 501.508L277.731 502.272L287.248 504.83L290.104 501.259C296.067 502.272 302.312 502.588 308.457 502.172L310.25 505.993L321.611 504.232L323.404 503.95L321.611 500.129C326.776 498.834 331.592 496.956 335.811 494.514C336.093 494.348 336.375 494.182 336.658 494.016L342.272 496.292L344.431 494.498L349.114 490.611L350.061 489.83L349.114 489.448L344.464 487.571C347.237 484.315 348.815 480.81 349.164 477.271L355.973 476.922L354.744 469.065L347.952 469.414C347.237 467.703 346.224 466.008 344.896 464.38C343.584 462.769 341.989 461.207 340.112 459.746L344.929 456.955L335.263 451.373L330.446 454.164C325.514 452.038 320.016 450.576 314.303 449.745C314.12 449.712 313.921 449.695 313.738 449.662L314.303 445.725L300.734 445.044L300.152 448.981C294.041 449.197 287.978 450.111 282.381 451.739L278.445 448.499L267.317 453.034L271.254 456.274C270.955 456.44 270.672 456.606 270.39 456.772C269.294 457.403 268.264 458.068 267.301 458.749C264.56 460.692 262.368 462.802 260.724 465.012L254.13 463.982L250.643 471.606L257.253 472.636C257.07 473.617 256.97 474.597 256.97 475.577L256.921 475.543ZM272.682 472.088C272.732 471.972 272.765 471.839 272.815 471.706C272.865 471.557 272.931 471.424 272.981 471.291C273.031 471.158 273.097 471.008 273.164 470.876C273.247 470.693 273.346 470.493 273.463 470.294C273.496 470.211 273.546 470.128 273.595 470.045C273.662 469.912 273.745 469.779 273.828 469.646C273.994 469.364 274.16 469.098 274.359 468.832C275.107 467.753 276.037 466.723 277.166 465.742C277.399 465.543 277.631 465.327 277.88 465.144C277.93 465.095 277.98 465.061 278.047 465.012C278.329 464.779 278.611 464.58 278.927 464.364C278.96 464.347 278.977 464.33 278.993 464.297C279.325 464.065 279.658 463.832 280.006 463.616C280.355 463.384 280.721 463.168 281.103 462.952C289.888 457.852 302.677 456.456 313.672 458.799C313.854 458.832 314.054 458.882 314.236 458.915C318.123 459.795 321.76 461.141 324.899 462.952C331.011 466.473 334.05 471.108 334.034 475.726C334.034 478.368 333.021 480.992 331.011 483.418C329.549 485.195 327.556 486.856 325.032 488.318C312.974 495.328 293.376 495.328 281.235 488.318C278.611 486.806 276.568 485.095 275.074 483.268C273.081 480.843 272.101 478.218 272.101 475.577V475.494C272.101 475.377 272.101 475.244 272.101 475.128C272.101 474.979 272.101 474.846 272.134 474.696C272.167 474.364 272.2 474.032 272.267 473.716C272.267 473.617 272.3 473.517 272.317 473.434C272.4 473.018 272.516 472.603 272.649 472.188C272.649 472.171 272.649 472.155 272.665 472.121L272.682 472.088Z" fill="#FDB602"/>
<path d="M256.904 483.75C256.904 481.009 256.904 478.268 256.921 475.543C256.921 474.563 257.02 473.583 257.203 472.603L250.593 471.573L250.543 486.989L252.669 487.321V484.896L256.887 483.766L256.904 483.75Z" fill="#CC8E02"/>
</g>
<defs>
<filter id="filter0_i_1068_20640" x="487.467" y="397.657" width="109.529" height="64.1855" filterUnits="userSpaceOnUse" color-interpolation-filters="sRGB">
<feFlood flood-opacity="0" result="BackgroundImageFix"/>
<feBlend mode="normal" in="SourceGraphic" in2="BackgroundImageFix" result="shape"/>
<feColorMatrix in="SourceAlpha" type="matrix" values="0 0 0 0 0 0 0 0 0 0 0 0 0 0 0 0 0 0 127 0" result="hardAlpha"/>
<feOffset dy="2"/>
<feComposite in2="hardAlpha" operator="arithmetic" k2="-1" k3="1"/>
<feColorMatrix type="matrix" values="0 0 0 0 0 0 0 0 0 0 0 0 0 0 0 0 0 0 0.11 0"/>
<feBlend mode="normal" in2="shape" result="effect1_innerShadow_1068_20640"/>
</filter>
<linearGradient id="paint0_linear_1068_20640" x1="389.773" y1="456.672" x2="780.903" y2="456.672" gradientUnits="userSpaceOnUse">
<stop stop-color="#FFEF26"/>
<stop offset="0.02" stop-color="#FEE921"/>
<stop offset="0.1" stop-color="#FDD70E"/>
<stop offset="0.19" stop-color="#FDCB03"/>
<stop offset="0.28" stop-color="#FDC800"/>
<stop offset="0.67" stop-color="#F18F34"/>
<stop offset="0.89" stop-color="#E95F32"/>
<stop offset="1" stop-color="#E3312D"/>
</linearGradient>
<clipPath id="clip0_1068_20640">
<rect width="907" height="724" fill="white"/>
</clipPath>
<clipPath id="clip1_1068_20640">
<rect width="65.6968" height="69.7231" fill="white" transform="matrix(0.587785 0.809017 -0.896873 0.442289 641.533 436)"/>
</clipPath>
</defs>
</svg>
