<svg width="726" height="638" viewBox="0 0 726 638" fill="none" xmlns="http://www.w3.org/2000/svg">
<path opacity="0.8" d="M197.921 387.331L386.628 491.606C388.693 492.754 391.689 492.678 393.326 491.442L496.034 413.917C497.671 412.681 497.318 410.764 495.253 409.616L306.547 305.341C304.482 304.193 301.485 304.269 299.848 305.505L197.141 383.03C195.504 384.266 195.856 386.183 197.921 387.331Z" fill="#272623"/>
<path d="M205.237 356.104L215.625 361.162L311.155 290.131C312.754 288.946 315.688 288.87 317.703 289.967L498.073 387.962C499.647 386.827 506.9 382.287 506.9 382.287L503.991 393.082C503.991 393.082 503.979 393.082 503.979 393.07C503.866 393.549 503.563 394.016 503.047 394.394L402.442 469.208C400.843 470.393 397.909 470.469 395.895 469.372L211.318 369.094C210.487 368.64 209.959 368.06 209.719 367.455H209.707L205.262 356.117L205.237 356.104Z" fill="#0D0F10"/>
<path d="M205.136 356.47L395.618 459.963C397.708 461.098 400.73 461.023 402.379 459.799L506.207 382.589C507.857 381.366 507.504 379.449 505.414 378.314L314.932 274.82C312.842 273.685 309.82 273.761 308.171 274.984L204.343 352.194C202.693 353.418 203.046 355.335 205.136 356.47Z" fill="#EAEAEA"/>
<g clip-path="url(#clip0_1060_20350)">
<path fill-rule="evenodd" clip-rule="evenodd" d="M390.302 408.975C398.419 411.124 401.827 416.971 402.531 419.712L402.567 419.855L402.559 419.996C402.433 421.747 401.991 425.955 401.194 428.695C400.897 429.72 400.172 430.728 399.257 431.66C398.334 432.605 397.152 433.532 395.863 434.382C393.294 436.069 390.166 437.513 387.455 438.2C382.081 439.56 376.084 439.468 368.565 437.093C361.188 434.763 357.037 429.106 354.799 426.06C354.677 425.891 354.558 425.728 354.448 425.576C353.138 423.807 352.983 421.903 353.558 420.397C354.118 418.929 355.454 417.689 357.295 417.53C358.604 417.419 359.926 417.363 361.171 417.315C361.585 417.301 361.995 417.283 362.388 417.264C363.994 417.19 365.411 417.088 366.595 416.84C366.947 416.766 367.433 416.572 368.026 416.256C368.606 415.947 369.224 415.551 369.845 415.122C371.082 414.26 372.244 413.282 372.928 412.661L372.941 412.655L372.953 412.649C375.363 410.543 382.182 406.835 390.32 408.989L390.302 408.975ZM400.178 419.856C399.533 417.591 396.614 412.733 389.773 410.918C382.822 409.08 376.822 412.261 374.695 414.113C373.954 414.785 372.736 415.813 371.42 416.73C370.757 417.194 370.062 417.637 369.386 418.001C368.723 418.359 368.006 418.666 367.324 418.812C365.914 419.11 364.309 419.221 362.692 419.293C362.266 419.312 361.839 419.331 361.419 419.347C360.191 419.395 358.957 419.446 357.715 419.554C356.998 419.617 356.201 420.164 355.817 421.163C355.446 422.133 355.538 423.38 356.421 424.572C356.519 424.707 356.621 424.848 356.727 424.994C359 428.076 362.712 433.117 369.224 435.178C376.306 437.417 381.777 437.462 386.627 436.232C389.029 435.62 391.924 434.3 394.337 432.712C395.534 431.923 396.595 431.086 397.395 430.263C398.214 429.431 398.713 428.673 398.891 428.042C399.613 425.561 400.042 421.651 400.181 419.847L400.178 419.856Z" fill="#F5F5F5" stroke="#757575" stroke-width="0.3" stroke-miterlimit="10"/>
<path d="M390.61 430.148C391.453 425.092 399.346 421.917 402.818 421.787C406.623 424.833 406.116 433.605 404.44 436.953C401.872 442.095 395.567 443.608 391.966 445.262C391.402 441.78 389.761 435.206 390.61 430.148Z" fill="white" stroke="#E1E1E1" stroke-width="0.5" stroke-miterlimit="10"/>
<path fill-rule="evenodd" clip-rule="evenodd" d="M406.405 428.861C406.547 431.947 405.996 435.131 405.069 436.98C403.669 439.787 401.25 441.577 398.796 442.863C397.569 443.507 396.319 444.024 395.176 444.481C394.896 444.596 394.624 444.7 394.362 444.806C393.525 445.135 392.784 445.432 392.123 445.735C391.778 445.89 391.358 445.883 390.995 445.71C390.632 445.538 390.381 445.226 390.328 444.885C390.234 444.289 390.1 443.568 389.944 442.759C389.674 441.325 389.356 439.617 389.113 437.895C388.733 435.155 388.518 432.143 388.967 429.483C389.451 426.569 391.934 424.32 394.545 422.818C397.162 421.313 400.196 420.405 402.202 420.333C402.533 420.322 402.863 420.427 403.114 420.632C404.303 421.582 405.076 422.913 405.568 424.313C406.068 425.725 406.318 427.306 406.393 428.867L406.405 428.861ZM399.103 423.123C398.09 423.477 397.01 423.949 395.976 424.543C393.571 425.92 391.675 427.788 391.316 429.93C390.915 432.328 391.098 435.135 391.471 437.817C391.706 439.528 392.008 441.099 392.262 442.487C392.311 442.753 392.357 443.013 392.408 443.271C392.689 443.155 392.979 443.042 393.276 442.926C393.526 442.826 393.785 442.729 394.041 442.626C395.171 442.175 396.332 441.687 397.45 441.104C399.69 439.931 401.711 438.399 402.875 436.059C403.624 434.559 404.163 431.686 404.03 428.786C403.963 427.352 403.738 425.957 403.314 424.768C403.072 424.085 402.779 423.495 402.434 423.008C402.144 423.32 401.837 423.632 401.521 423.955C398.772 426.771 395.507 430.125 395.919 437.549C395.949 438.115 395.446 438.554 394.788 438.535C394.13 438.516 393.578 438.047 393.548 437.481C393.123 429.864 396.398 425.917 399.091 423.129L399.103 423.123Z" fill="#F5F5F5" stroke="#757575" stroke-width="0.3" stroke-miterlimit="10"/>
<path d="M407.045 418.441C406.339 416.022 403.225 417.321 401.758 418.275L402.862 421.253C404.548 421.323 407.746 420.862 407.045 418.441Z" fill="#F5F5F5" stroke="#E1E1E1" stroke-width="0.5" stroke-miterlimit="10"/>
<path fill-rule="evenodd" clip-rule="evenodd" d="M402.946 418.919L403.574 420.612C404.125 420.577 404.688 420.467 405.123 420.26C405.447 420.1 405.633 419.924 405.724 419.734C405.804 419.565 405.856 419.31 405.717 418.851C405.581 418.406 405.428 418.313 405.4 418.297C405.328 418.256 405.136 418.19 404.746 418.237C404.176 418.304 403.516 418.584 402.942 418.913L402.946 418.919ZM406.372 416.335C407.207 416.809 407.742 417.592 408.026 418.53C408.305 419.463 408.268 420.298 407.933 420.991C407.602 421.667 407.039 422.105 406.448 422.388C405.299 422.94 403.846 423.015 402.884 422.939L401.987 422.87L400.108 417.811L400.715 417.375C401.483 416.812 402.779 416.089 404.101 415.926C404.768 415.842 405.596 415.884 406.378 416.332L406.372 416.335Z" fill="#F5F5F5" stroke="#757575" stroke-width="0.3" stroke-miterlimit="10"/>
<path d="M390.13 411.177C397.34 412.986 400.303 418.021 400.882 420.311C400.745 421.93 400.271 425.779 399.504 428.244C398.546 431.323 391.852 435.321 386.94 436.559C382.029 437.797 376.526 437.767 369.557 435.671C362.588 433.575 358.846 428.214 356.779 425.473C354.712 422.732 356.384 419.599 358.836 419.383C362.113 419.089 365.419 419.186 367.911 418.652C369.899 418.229 373.155 415.691 374.534 414.475C376.728 412.621 382.914 409.371 390.13 411.177Z" fill="#F5F5F5"/>
<path fill-rule="evenodd" clip-rule="evenodd" d="M390.397 410.273C398.148 412.22 401.351 417.633 401.994 420.175L402.033 420.309L402.021 420.445C401.882 422.072 401.407 425.99 400.608 428.54C400.311 429.497 399.603 430.434 398.718 431.314C397.82 432.201 396.68 433.069 395.437 433.865C392.954 435.449 389.943 436.82 387.333 437.473C382.171 438.774 376.416 438.723 369.238 436.562C362.199 434.439 358.282 429.21 356.168 426.393C356.054 426.235 355.943 426.083 355.835 425.946C354.596 424.31 354.469 422.538 355.041 421.132C355.598 419.765 356.887 418.601 358.652 418.442C359.907 418.327 361.18 418.272 362.371 418.22C362.764 418.202 363.157 418.184 363.534 418.166C365.077 418.085 366.433 417.982 367.571 417.741C367.911 417.673 368.379 417.488 368.951 417.191C369.51 416.9 370.111 416.527 370.705 416.119C371.902 415.307 373.026 414.393 373.685 413.808L373.698 413.802L373.71 413.796C376.048 411.825 382.624 408.329 390.401 410.279L390.397 410.273ZM399.744 420.33C399.15 418.23 396.412 413.726 389.874 412.083C383.232 410.414 377.445 413.421 375.384 415.156C374.665 415.786 373.485 416.751 372.214 417.614C371.575 418.052 370.903 418.467 370.244 418.808C369.597 419.142 368.911 419.434 368.258 419.573C366.906 419.858 365.361 419.97 363.813 420.054C363.403 420.073 362.993 420.091 362.587 420.116C361.407 420.171 360.227 420.225 359.034 420.332C358.344 420.397 357.572 420.908 357.193 421.844C356.829 422.742 356.897 423.909 357.731 425.011C357.821 425.134 357.919 425.269 358.023 425.401C360.166 428.258 363.67 432.919 369.884 434.791C376.642 436.831 381.888 436.834 386.549 435.658C388.856 435.079 391.646 433.824 393.98 432.337C395.143 431.595 396.165 430.808 396.939 430.044C397.729 429.265 398.222 428.555 398.405 427.968C399.124 425.657 399.585 422.013 399.735 420.342L399.744 420.33Z" fill="#FDB602"/>
<path d="M390.453 429.965C391.319 425.257 398.923 422.256 402.25 422.113C405.866 424.922 405.27 433.081 403.627 436.208C401.106 441.005 395.042 442.453 391.578 444.016C391.073 440.78 389.579 434.676 390.446 429.968L390.453 429.965Z" fill="#FDB602"/>
<path fill-rule="evenodd" clip-rule="evenodd" d="M406.041 429.07C406.143 431.94 405.574 434.911 404.672 436.632C403.297 439.252 400.96 440.932 398.596 442.144C397.417 442.748 396.21 443.244 395.107 443.674C394.835 443.777 394.579 443.88 394.32 443.978C393.514 444.291 392.793 444.57 392.16 444.852C391.833 444.998 391.424 444.994 391.08 444.835C390.735 444.676 390.494 444.39 390.447 444.069C390.359 443.516 390.239 442.85 390.107 442.097C389.867 440.763 389.584 439.183 389.366 437.578C389.032 435.03 388.863 432.232 389.32 429.759C389.821 427.043 392.22 424.935 394.743 423.522C397.273 422.107 400.192 421.24 402.114 421.156C402.435 421.143 402.744 421.242 402.989 421.427C404.115 422.301 404.84 423.533 405.302 424.834C405.766 426.149 405.99 427.613 406.043 429.062L406.041 429.07ZM399.106 423.778C398.13 424.114 397.093 424.565 396.09 425.12C393.765 426.42 391.932 428.165 391.57 430.163C391.161 432.398 391.3 435.004 391.627 437.495C391.832 439.083 392.096 440.543 392.336 441.83C392.38 442.076 392.429 442.32 392.464 442.554C392.743 442.448 393.017 442.335 393.301 442.226C393.544 442.129 393.791 442.037 394.034 441.94C395.121 441.512 396.236 441.053 397.326 440.5C399.482 439.399 401.438 437.952 402.584 435.774C403.319 434.372 403.869 431.701 403.774 429.004C403.726 427.667 403.525 426.375 403.129 425.271C402.907 424.639 402.627 424.09 402.31 423.642C402.024 423.936 401.727 424.228 401.429 424.528C398.762 427.165 395.594 430.303 395.899 437.207C395.923 437.73 395.437 438.145 394.81 438.134C394.183 438.122 393.655 437.687 393.631 437.164C393.315 430.081 396.495 426.388 399.106 423.778Z" fill="#F5F5F5"/>
<path d="M406.335 418.966C405.689 416.725 402.685 417.954 401.266 418.845L402.288 421.605C403.905 421.663 406.974 421.211 406.331 418.961L406.335 418.966Z" fill="#F5F5F5"/>
<path fill-rule="evenodd" clip-rule="evenodd" d="M402.597 419.267L403.104 420.629C403.63 420.584 404.171 420.477 404.595 420.291C404.908 420.152 405.094 419.999 405.193 419.843C405.277 419.703 405.341 419.488 405.234 419.12C405.132 418.757 404.99 418.69 404.965 418.679C404.901 418.65 404.722 418.601 404.353 418.653C403.808 418.73 403.162 418.972 402.609 419.261L402.597 419.267ZM405.986 417.052C406.75 417.417 407.227 418.038 407.439 418.796C407.658 419.552 407.577 420.234 407.222 420.807C406.876 421.367 406.311 421.745 405.736 421.991C404.614 422.475 403.231 422.577 402.318 422.545L401.466 422.515L399.957 418.444L400.549 418.068C401.315 417.583 402.581 416.959 403.84 416.781C404.481 416.694 405.257 416.701 405.982 417.047L405.986 417.052ZM378.104 433.641C378.122 434.168 377.627 434.572 376.996 434.554C376.082 434.532 374.591 434.38 372.972 434.017C371.357 433.66 369.535 433.076 368.025 432.139C365.261 430.422 362.925 428.372 362.08 427.535C361.662 427.123 361.705 426.528 362.173 426.206C362.642 425.883 363.363 425.955 363.771 426.365C364.524 427.11 366.725 429.043 369.303 430.645C370.466 431.371 371.97 431.867 373.424 432.19C374.871 432.515 376.192 432.643 376.933 432.66C377.558 432.68 378.08 433.118 378.1 433.636L378.104 433.641Z" fill="#FDB602"/>
</g>
<g filter="url(#filter0_i_1060_20350)">
<path d="M304.357 357.229L269.247 378.681C268.705 379.012 268.719 379.8 269.271 380.112L322.755 410.346C323.017 410.494 323.338 410.49 323.596 410.336L359.874 388.655C360.426 388.325 360.411 387.523 359.847 387.214L305.197 357.209C304.934 357.065 304.613 357.072 304.357 357.229Z" fill="#F0F0F0"/>
</g>
<path d="M205.061 354.578L395.63 458.652C397.721 459.787 400.743 459.711 402.392 458.488L506.22 380.924C506.611 380.634 506.887 380.294 507.051 379.941C507.656 380.937 507.454 382.072 506.359 382.904L402.531 460.468C400.881 461.704 397.859 461.779 395.769 460.632L205.199 356.558C203.613 355.688 203.033 354.364 203.575 353.241C203.877 353.733 204.368 354.2 205.061 354.578Z" fill="url(#paint0_linear_1060_20350)"/>
<path d="M323.545 116.919L504.52 220.147L493.591 366.042L312.729 262.877L323.545 116.919Z" fill="#434343"/>
<mask id="mask0_1060_20350" style="mask-type:luminance" maskUnits="userSpaceOnUse" x="312" y="116" width="193" height="251">
<path d="M323.545 116.919L504.52 220.147L493.591 366.042L312.729 262.877L323.545 116.919Z" fill="white"/>
</mask>
<g mask="url(#mask0_1060_20350)">
<path d="M310.122 269.031L514.379 385.528C516.62 386.801 519.856 386.726 521.619 385.364L632.486 299.313C634.249 297.951 633.858 295.807 631.63 294.533L427.373 178.036C425.132 176.763 421.896 176.838 420.133 178.2L309.266 264.251C307.503 265.626 307.894 267.758 310.122 269.031Z" fill="#434343"/>
<path d="M352.605 262.7L500.478 347.049L495.152 351.185L347.279 266.837L352.605 262.7Z" fill="#434343"/>
<path d="M366.783 251.703L507.328 331.864L502.001 336.001L361.444 255.839L366.783 251.703Z" fill="#434343"/>
<path d="M507.643 351.123L516.784 356.344L511.445 360.481L502.316 355.259L507.643 351.123Z" fill="#434343"/>
<path d="M375.66 244.816L539.826 338.447L534.5 342.584L370.334 248.953L375.66 244.816Z" fill="#434343"/>
<path d="M384.537 237.918L548.715 331.549L543.389 335.686L379.211 242.055L384.537 237.918Z" fill="#434343"/>
<path d="M393.414 231.032L557.592 324.663L552.266 328.799L388.088 235.156L393.414 231.032Z" fill="#434343"/>
</g>
<path d="M312.906 267.341L324.943 113.615L323.042 112.883L325.673 110.916V110.941C326.177 110.5 326.932 110.474 327.801 110.954L518.447 216.301C520.008 217.171 521.317 219.58 521.179 221.333L509.053 376.283C508.99 377.09 508.676 377.645 508.197 377.91L505.629 379.852L504.961 377.052L505.125 377.09L315.638 272.386C314.077 271.516 312.767 269.107 312.906 267.354V267.341Z" fill="#0D0F10"/>
<path d="M517.728 220.526L520.624 218.823C521.027 219.656 521.254 220.551 521.191 221.333L509.066 376.283C509.003 377.09 508.688 377.645 508.209 377.91L505.641 379.852L504.973 377.052L505.137 377.09L495.542 371.793L517.728 220.526Z" fill="#0D0F10"/>
<path d="M312.905 274.429L503.551 379.777C505.024 380.596 506.195 379.978 506.321 378.326L518.446 223.376C518.585 221.611 517.275 219.202 515.714 218.344L325.069 112.997C323.596 112.177 322.425 112.795 322.299 114.447L310.173 269.397C310.035 271.163 311.344 273.572 312.905 274.429Z" fill="#F5F5F5"/>
<path d="M312.905 274.429L503.551 379.777C505.024 380.596 506.195 379.978 506.321 378.326L518.446 223.376C518.585 221.611 517.275 219.202 515.714 218.344L325.069 112.997C323.596 112.177 322.425 112.795 322.299 114.447L310.173 269.397C310.035 271.163 311.344 273.572 312.905 274.429Z" fill="#EAEAEA"/>
<path d="M325.988 121.409L514.291 225.47L502.732 371.415L314.555 267.417L325.988 121.409Z" fill="#1F1F1F"/>
<path d="M301.51 296.26L437.723 371.528L443.251 367.366L307.038 292.086L301.51 296.26Z" fill="#BFBFBF"/>
<path d="M287.962 306.489L415.726 377.077L421.254 372.915L293.49 302.314L287.962 306.489Z" fill="#BFBFBF"/>
<path d="M279.148 313.135L429.577 396.26L435.092 392.098L284.663 308.973L279.148 313.135Z" fill="#BFBFBF"/>
<path d="M270.321 319.794L420.75 402.919L426.278 398.757L275.849 315.632L270.321 319.794Z" fill="#BFBFBF"/>
<path d="M261.507 326.453L411.936 409.579L417.451 405.404L267.022 322.292L261.507 326.453Z" fill="#BFBFBF"/>
<path d="M445.958 376.081L452.014 379.423L457.529 375.249L451.473 371.907L445.958 376.081Z" fill="#BFBFBF"/>
<path d="M425.9 382.702L438.466 389.652L443.994 385.477L431.415 378.528L425.9 382.702Z" fill="#BFBFBF"/>
<path d="M336.451 153.62L350.075 161.54L350.276 158.854L336.64 150.921L336.451 153.62Z" fill="#FDB602"/>
<path d="M352.266 162.814L359.695 167.127L359.884 164.441L352.468 160.127L352.266 162.814Z" fill="#FDB602"/>
<path d="M371.254 173.849L376.63 176.977L376.819 174.291L371.443 171.163L371.254 173.849Z" fill="#FDB602"/>
<path d="M367.338 171.567L369.164 172.639L369.365 169.952L367.527 168.88L367.338 171.567Z" fill="#FDB602"/>
<path d="M361.911 168.414L365.248 170.356L365.449 167.67L362.113 165.728L361.911 168.414Z" fill="#FDB602"/>
<path d="M348.174 173.231L353.55 176.359L353.752 173.673L348.375 170.545L348.174 173.231Z" fill="#FDB602"/>
<path d="M335.57 165.891L346.096 172.021L346.285 169.334L335.759 163.205L335.57 165.891Z" fill="#FDB602"/>
<path d="M353.021 208.002L363.56 214.132L363.749 211.433L353.223 205.316L353.021 208.002Z" fill="#FDB602"/>
<path d="M347.607 204.849L350.944 206.792L351.133 204.105L347.809 202.163L347.607 204.849Z" fill="#FDB602"/>
<path d="M353.84 195.706L364.366 201.835L364.568 199.149L354.029 193.02L353.84 195.706Z" fill="#FDB602"/>
<path d="M348.426 192.553L351.762 194.495L351.951 191.809L348.615 189.867L348.426 192.553Z" fill="#FDB602"/>
<path d="M349.345 261.061L329.513 249.521L329.312 252.22L349.143 263.76L349.345 261.061Z" fill="#FDB602"/>
<path d="M356.333 265.134L351.422 262.271L351.233 264.97L356.144 267.821L356.333 265.134Z" fill="#FDB602"/>
<path d="M389.763 265.349L369.931 253.809L369.73 256.495L389.574 268.035L389.763 265.349Z" fill="#FDB602"/>
<path d="M396.751 269.422L391.841 266.56L391.652 269.246L396.562 272.109L396.751 269.422Z" fill="#FDB602"/>
<path d="M335.318 246.507L329.942 243.379L329.753 246.078L335.129 249.193L335.318 246.507Z" fill="#FDB602"/>
<path d="M367.061 252.169L361.697 249.042L361.496 251.74L366.872 254.868L367.061 252.169Z" fill="#FDB602"/>
<path d="M347.934 253.847L337.408 247.717L337.207 250.416L347.745 256.533L347.934 253.847Z" fill="#FDB602"/>
<path d="M353.349 257L350.012 255.058L349.823 257.744L353.16 259.686L353.349 257Z" fill="#FDB602"/>
<path d="M366.054 264.378L355.527 258.261L355.338 260.947L365.865 267.064L366.054 264.378Z" fill="#FDB602"/>
<path d="M371.468 267.531L368.144 265.588L367.942 268.275L371.279 270.217L371.468 267.531Z" fill="#FDB602"/>
<path d="M366.633 258.324L361.256 255.196L361.067 257.883L366.431 261.01L366.633 258.324Z" fill="#FDB602"/>
<path d="M379.237 265.651L368.71 259.535L368.521 262.221L379.048 268.35L379.237 265.651Z" fill="#FDB602"/>
<path d="M384.651 268.805L381.327 266.862L381.125 269.561L384.462 271.491L384.651 268.805Z" fill="#FDB602"/>
<path d="M341.387 243.644L330.382 237.25L330.193 239.936L341.186 246.33L341.387 243.644Z" fill="#FDB602"/>
<path d="M351.41 249.483L343.465 244.854L343.276 247.541L351.221 252.169L351.41 249.483Z" fill="#FDB602"/>
<path d="M358.876 253.822L353.5 250.694L353.311 253.38L358.675 256.508L358.876 253.822Z" fill="#FDB602"/>
<path d="M410.514 277.393L399.509 270.999L399.32 273.685L410.312 280.08L410.514 277.393Z" fill="#FDB602"/>
<path d="M420.536 283.233L412.591 278.604L412.402 281.29L420.347 285.919L420.536 283.233Z" fill="#FDB602"/>
<path d="M428.003 287.571L422.626 284.443L422.438 287.13L427.801 290.257L428.003 287.571Z" fill="#FDB602"/>
<path d="M400.717 197.371L411.709 203.765L411.898 201.079L400.906 194.672L400.717 197.371Z" fill="#FDB602"/>
<path d="M390.682 191.531L398.627 196.16L398.829 193.461L390.871 188.833L390.682 191.531Z" fill="#FDB602"/>
<path d="M383.228 187.193L388.592 190.32L388.793 187.621L383.417 184.506L383.228 187.193Z" fill="#FDB602"/>
<path d="M396.587 188.542L407.58 194.937L407.781 192.25L396.776 185.856L396.587 188.542Z" fill="#FDB602"/>
<path d="M386.552 182.703L394.51 187.332L394.699 184.645L386.754 180.017L386.552 182.703Z" fill="#FDB602"/>
<path d="M379.098 178.365L384.475 181.492L384.664 178.806L379.287 175.678L379.098 178.365Z" fill="#FDB602"/>
<path d="M355.036 202.806L358.751 204.963L358.939 202.277L355.225 200.12L355.036 202.806Z" fill="#FDB602"/>
<path d="M348.048 198.732L352.959 201.595L353.147 198.909L348.237 196.046L348.048 198.732Z" fill="#FDB602"/>
<path d="M341.891 237.527L330.898 231.133L330.709 233.819L341.702 240.226L341.891 237.527Z" fill="#FDB602"/>
<path d="M351.926 243.366L343.981 238.738L343.779 241.437L351.737 246.053L351.926 243.366Z" fill="#FDB602"/>
<path d="M359.38 247.705L354.004 244.577L353.815 247.276L359.191 250.391L359.38 247.705Z" fill="#FDB602"/>
<path d="M335.054 227.16L331.339 224.991L331.15 227.677L334.865 229.846L335.054 227.16Z" fill="#FDB602"/>
<path d="M342.042 231.221L337.131 228.371L336.942 231.057L341.853 233.907L342.042 231.221Z" fill="#FDB602"/>
<path d="M352.027 237.035L344.12 232.432L343.931 235.118L351.838 239.721L352.027 237.035Z" fill="#FDB602"/>
<path d="M358.675 185.705L362.377 187.861L362.578 185.175L358.864 183.006L358.675 185.705Z" fill="#FDB602"/>
<path d="M351.674 181.631L356.585 184.494L356.774 181.795L351.876 178.945L351.674 181.631Z" fill="#FDB602"/>
<path d="M341.689 175.817L349.597 180.42L349.786 177.734L341.878 173.13L341.689 175.817Z" fill="#FDB602"/>
<path d="M364.769 195.189L372.676 199.78L372.865 197.093L364.958 192.502L364.769 195.189Z" fill="#FDB602"/>
<path d="M351.863 188.138L362.528 194.344L362.717 191.645L352.052 185.452L351.863 188.138Z" fill="#FDB602"/>
<path d="M346.449 184.986L349.785 186.928L349.974 184.242L346.638 182.299L346.449 184.986Z" fill="#FDB602"/>
<path d="M341.249 181.959L344.585 183.901L344.774 181.215L341.437 179.272L341.249 181.959Z" fill="#FDB602"/>
<path d="M344.371 216.263L354.897 222.38L355.086 219.694L344.56 213.577L344.371 216.263Z" fill="#FDB602"/>
<path d="M338.944 213.11L342.281 215.052L342.482 212.366L339.146 210.424L338.944 213.11Z" fill="#FDB602"/>
<path d="M345.567 223.364L349.282 225.521L349.471 222.834L345.756 220.678L345.567 223.364Z" fill="#FDB602"/>
<path d="M357.73 217.6L361.445 219.757L361.634 217.071L357.919 214.914L357.73 217.6Z" fill="#FDB602"/>
<path d="M363.019 220.677L371.933 225.861L372.122 223.162L363.207 217.979L363.019 220.677Z" fill="#FDB602"/>
<path d="M373.507 226.769L378.808 229.846L378.997 227.16L373.696 224.083L373.507 226.769Z" fill="#FDB602"/>
<path d="M338.579 219.29L343.477 222.141L343.679 219.454L338.768 216.604L338.579 219.29Z" fill="#FDB602"/>
<path d="M338.579 225.571L342.294 227.728L342.482 225.041L338.768 222.885L338.579 225.571Z" fill="#FDB602"/>
<path d="M331.591 221.497L336.489 224.36L336.69 221.674L331.78 218.811L331.591 221.497Z" fill="#FDB602"/>
<path d="M352.341 214.46L355.665 216.402L355.867 213.716L352.53 211.773L352.341 214.46Z" fill="#FDB602"/>
<path d="M347.141 211.446L350.478 213.375L350.667 210.689L347.33 208.759L347.141 211.446Z" fill="#FDB602"/>
<path d="M369.403 179.146L380.785 185.768L380.974 183.081L369.592 176.46L369.403 179.146Z" fill="#FDB602"/>
<path d="M356.661 171.743L367.325 177.936L367.514 175.249L356.862 169.044L356.661 171.743Z" fill="#FDB602"/>
<path d="M351.246 168.59L354.583 170.52L354.772 167.833L351.435 165.891L351.246 168.59Z" fill="#FDB602"/>
<path d="M346.046 165.563L349.383 167.506L349.571 164.807L346.235 162.877L346.046 165.563Z" fill="#FDB602"/>
<path d="M343.213 163.911L336.011 159.724L336.2 157.025L343.402 161.225L343.213 163.911Z" fill="#FDB602"/>
<path d="M657.543 422.758C672.125 422.758 683.947 410.917 683.947 396.311C683.947 381.705 672.125 369.864 657.543 369.864C642.96 369.864 631.139 381.705 631.139 396.311C631.139 410.917 642.96 422.758 657.543 422.758Z" fill="#FDB602"/>
<path d="M131.376 142.282C141.758 142.282 150.175 133.851 150.175 123.452C150.175 113.053 141.758 104.623 131.376 104.623C120.994 104.623 112.577 113.053 112.577 123.452C112.577 133.851 120.994 142.282 131.376 142.282Z" fill="#D1D0CF"/>
<path d="M669.82 319.265C679.145 319.265 686.705 311.693 686.705 302.352C686.705 293.011 679.145 285.439 669.82 285.439C660.494 285.439 652.935 293.011 652.935 302.352C652.935 311.693 660.494 319.265 669.82 319.265Z" fill="#272623"/>
<path opacity="0.8" d="M315.424 38.2966C318.08 38.2966 320.234 36.1397 320.234 33.4789C320.234 30.8181 318.08 28.6611 315.424 28.6611C312.767 28.6611 310.614 30.8181 310.614 33.4789C310.614 36.1397 312.767 38.2966 315.424 38.2966Z" fill="#FDB602"/>
<path d="M171.14 541.348C174.345 541.348 176.944 538.745 176.944 535.534C176.944 532.323 174.345 529.72 171.14 529.72C167.934 529.72 165.335 532.323 165.335 535.534C165.335 538.745 167.934 541.348 171.14 541.348Z" fill="#D1D0CF"/>
<path d="M137.344 509.818C137.344 511.47 136.01 512.807 134.36 512.807C132.711 512.807 131.376 511.47 131.376 509.818C131.376 508.166 132.711 506.829 134.36 506.829C136.01 506.829 137.344 508.166 137.344 509.818Z" fill="#D1D0CF"/>
<path d="M644.246 399.401C644.246 401.104 642.861 402.491 641.162 402.491C639.462 402.491 638.077 401.104 638.077 399.401C638.077 397.698 639.462 396.311 641.162 396.311C642.861 396.311 644.246 397.698 644.246 399.401Z" fill="#272623"/>
<path d="M596.878 465.084C599.166 465.084 601.02 463.186 601.02 460.846C601.02 458.506 599.166 456.608 596.878 456.608C594.59 456.608 592.735 458.506 592.735 460.846C592.735 463.186 594.59 465.084 596.878 465.084Z" fill="#FDB602"/>
<path d="M397.872 31.9148C397.872 34.2607 396.021 36.1525 393.729 36.1525C391.437 36.1525 389.586 34.2481 389.586 31.9148C389.586 29.5816 391.437 27.6772 393.729 27.6772C396.021 27.6772 397.872 29.5816 397.872 31.9148Z" fill="#FDB602"/>
<path d="M621.192 446.342C621.192 447.641 620.172 448.688 618.9 448.688C617.628 448.688 616.608 447.641 616.608 446.342C616.608 445.043 617.628 443.997 618.9 443.997C620.172 443.997 621.192 445.043 621.192 446.342Z" fill="#FDB602"/>
<path d="M504.986 47.5788C504.986 49.1553 503.714 50.4291 502.141 50.4291C500.567 50.4291 499.295 49.1553 499.295 47.5788C499.295 46.0023 500.567 44.7285 502.141 44.7285C503.714 44.7285 504.986 46.0023 504.986 47.5788Z" fill="#FDB602"/>
<path d="M56.0422 333.402L54.9971 329.682L63.2696 327.374L60.9528 319.088L64.6672 318.054L68.0165 330.048L56.0422 333.402Z" fill="#272623"/>
<path d="M48.7516 346.38L47.7065 342.66L55.9665 340.339L53.6622 332.066L57.3767 331.019L60.726 343.026L48.7516 346.38Z" fill="#272623"/>
<path d="M56.4952 342.206L53.1333 330.199L65.1203 326.844L66.1653 330.577L57.8928 332.885L60.2096 341.159L56.4952 342.206Z" fill="#272623"/>
<path d="M373.104 56.7855C368.043 56.7855 363.913 52.6614 363.913 47.5788C363.913 42.4962 368.03 38.3721 373.104 38.3721C378.179 38.3721 382.296 42.4962 382.296 47.5788C382.296 52.6614 378.179 56.7855 373.104 56.7855ZM373.104 42.2439C370.171 42.2439 367.778 44.6402 367.778 47.5788C367.778 50.5173 370.171 52.9136 373.104 52.9136C376.038 52.9136 378.43 50.5173 378.43 47.5788C378.43 44.6402 376.038 42.2439 373.104 42.2439Z" fill="#1A2E35"/>
<path d="M574.654 517.272L564.229 506.829L574.654 496.386L585.08 506.829L574.654 517.272ZM569.681 506.829L574.654 511.811L579.628 506.829L574.654 501.847L569.681 506.829Z" fill="#1A2E35"/>
<path d="M621.584 142.967L618.852 145.705L630.018 156.886L632.751 154.148L621.584 142.967Z" fill="#FDB602"/>
<path d="M630.064 143.026L618.899 154.209L621.633 156.947L632.798 145.764L630.064 143.026Z" fill="#FDB602"/>
<path d="M482.775 514.346C457.366 517.36 442.03 536.379 440.368 556.974C438.076 585.616 459.141 611.659 497.885 605.025C532.171 599.161 539.235 561.93 530.723 541.638C523.382 524.133 505.918 511.596 482.775 514.333V514.346Z" fill="#E1E1E1" stroke="#F0F0F0" stroke-miterlimit="10"/>
<path d="M481.012 596.247C479.501 596.26 478.003 596.26 476.504 596.247C478.406 600.359 480.647 603.512 483.002 605.921C487.459 606.186 492.244 605.921 497.33 605.113C499.093 602.314 500.541 598.871 501.674 594.81C495.127 595.655 488.051 596.172 481.012 596.26V596.247Z" fill="#0D0D0D" stroke="#F0F0F0" stroke-miterlimit="10"/>
<path d="M502.443 591.657C503.966 584.758 504.684 576.359 504.533 566.635C496.449 567.846 487.32 568.577 478.28 568.691C475.787 568.716 473.294 568.69 470.838 568.627C471.254 579.032 472.891 587.041 475.22 593.208C484.374 593.422 493.918 592.83 502.43 591.657H502.443Z" fill="#0D0D0D" stroke="#F0F0F0" stroke-miterlimit="10"/>
<path d="M503.765 536.164C505.855 544.526 507.127 553.695 507.467 563.103C512.327 562.258 516.696 561.236 520.297 560.076C523.055 559.193 525.46 558.26 527.55 557.352C526.92 547.288 524.352 538.649 519.857 531.498C518.497 532.103 517.036 532.683 515.5 533.225C512.252 534.386 508.222 535.382 503.752 536.177L503.765 536.164Z" fill="#0D0D0D" stroke="#F0F0F0" stroke-miterlimit="10"/>
<path d="M467.817 568.514C460.74 568.198 454.004 567.429 448.174 566.155C448.565 575.677 450.504 583.951 453.992 590.9C459.355 592.098 465.525 592.804 471.972 593.094C469.567 586.271 468.182 578.061 467.817 568.514Z" fill="#0D0D0D" stroke="#F0F0F0" stroke-miterlimit="10"/>
<path d="M533.745 554.174C533.292 549.747 532.272 545.573 530.761 541.953C528.91 537.526 526.404 533.427 523.332 529.82C523.08 529.959 522.816 530.085 522.551 530.224C526.593 536.769 529.64 545.194 530.484 555.99C531.718 555.372 532.801 554.767 533.745 554.187V554.174Z" fill="#0D0D0D" stroke="#F0F0F0" stroke-miterlimit="10"/>
<path d="M527.688 560.581C525.586 561.464 523.395 562.271 521.229 562.965C517.414 564.201 512.742 565.273 507.555 566.156C507.718 575.753 507.064 584.14 505.616 591.19C511.332 590.27 516.469 589.084 520.549 587.684C521.582 587.331 522.564 586.978 523.483 586.612C526.505 579.247 527.928 570.544 527.688 560.581Z" fill="#0D0D0D" stroke="#F0F0F0" stroke-miterlimit="10"/>
<path d="M440.959 564.175C441.476 573.634 444.611 582.526 450.151 589.639C447.394 583.257 445.442 575.299 445.127 565.436C443.604 565.033 442.219 564.617 440.959 564.175Z" fill="#0D0D0D" stroke="#F0F0F0" stroke-miterlimit="10"/>
<path d="M502.984 533.238C507.378 532.469 511.332 531.498 514.505 530.363C515.815 529.896 517.023 529.417 518.144 528.938C514.832 524.397 510.665 520.513 505.653 517.322C502.405 516.099 498.93 515.229 495.253 514.787C497.809 518.823 500.151 524.069 502.077 530.211C502.392 531.208 502.682 532.217 502.971 533.238H502.984Z" fill="#0D0D0D" stroke="#F0F0F0" stroke-miterlimit="10"/>
<path d="M504.457 563.595C504.117 553.607 502.745 544.476 500.768 536.644C494.8 537.539 488.202 538.081 481.654 538.157C478.872 538.195 476.089 538.144 473.369 538.006C471.695 545.27 470.612 554.237 470.75 565.197C470.75 565.336 470.75 565.474 470.75 565.613C482.133 565.941 494.17 565.159 504.457 563.595Z" fill="#0D0D0D" stroke="#F0F0F0" stroke-miterlimit="10"/>
<path d="M504.885 594.343C503.916 598.139 502.694 601.481 501.221 604.344C508.071 602.717 513.724 599.754 518.308 595.92C519.554 594.217 520.687 592.401 521.682 590.484C521.632 590.496 521.581 590.522 521.518 590.534C517.023 592.073 511.269 593.372 504.885 594.331V594.343Z" fill="#0D0D0D" stroke="#F0F0F0" stroke-miterlimit="10"/>
<path d="M533.971 557.554C532.939 558.134 531.831 558.702 530.672 559.244C531.05 569.447 529.803 577.922 527.411 584.935C527.424 584.935 527.436 584.935 527.449 584.922C532.309 576.497 534.299 566.635 533.971 557.554Z" fill="#0D0D0D" stroke="#F0F0F0" stroke-miterlimit="10"/>
<path d="M445.077 561.804C445.177 550.113 447.494 540.894 450.894 533.655C450.604 533.529 450.327 533.402 450.05 533.264C444.825 540.251 441.727 548.587 441.035 557.188C440.934 558.437 440.884 559.686 440.871 560.922C442.042 561.363 443.427 561.817 445.064 562.271C445.064 562.107 445.064 561.956 445.064 561.792L445.077 561.804Z" fill="#0D0D0D" stroke="#F0F0F0" stroke-miterlimit="10"/>
<path d="M455.93 594.394C456.522 595.339 457.139 596.26 457.794 597.156C463.422 601.381 470.385 604.332 478.595 605.479C476.479 602.806 474.653 599.703 473.155 596.159C467.073 595.945 461.193 595.377 455.93 594.394Z" fill="#0D0D0D" stroke="#F0F0F0" stroke-miterlimit="10"/>
<path d="M499.975 533.73C497.595 525.406 494.548 518.772 491.388 514.484C488.869 514.383 486.276 514.484 483.606 514.774C482.825 515.783 482.032 516.906 481.252 518.154C478.809 522.026 476.14 527.525 474.112 535.042C482.712 535.445 491.916 534.928 499.975 533.73Z" fill="#0D0D0D" stroke="#F0F0F0" stroke-miterlimit="10"/>
<path d="M471.04 534.853C473.218 526.529 476.165 520.5 478.859 516.288C479.061 515.985 479.25 515.683 479.451 515.393C473.369 516.54 467.943 518.634 463.196 521.472C459.972 524.549 457.265 528.068 455.074 532.015C455.691 532.217 456.371 532.419 457.101 532.62C461.194 533.756 465.978 534.487 471.053 534.865L471.04 534.853Z" fill="#0D0D0D" stroke="#F0F0F0" stroke-miterlimit="10"/>
<path d="M448.099 563.04C453.878 564.377 460.627 565.159 467.729 565.499C467.729 565.411 467.729 565.323 467.729 565.235C467.59 554.262 468.648 545.219 470.31 537.804C465.21 537.4 460.4 536.656 456.27 535.508C455.339 535.256 454.47 534.979 453.651 534.701C450.038 542.306 448.174 551.362 448.099 561.817C448.099 562.22 448.099 562.624 448.099 563.028V563.04Z" fill="#0D0D0D" stroke="#F0F0F0" stroke-miterlimit="10"/>
<g style="mix-blend-mode:multiply" opacity="0.5">
<path d="M525.913 550.668C517.401 551.5 514.581 558.765 517.313 565.764C520.272 573.369 526.228 576.585 528.431 576.371C530.635 576.157 534.941 570.57 536.439 565.348C538.504 558.172 535.306 549.747 525.913 550.668Z" fill="url(#paint1_linear_1060_20350)" style="mix-blend-mode:multiply"/>
<path d="M525.913 550.668C517.401 551.5 514.581 558.765 517.313 565.764C520.272 573.369 526.228 576.585 528.431 576.371C530.635 576.157 534.941 570.57 536.439 565.348C538.504 558.172 535.306 549.747 525.913 550.668Z" stroke="#F0F0F0" stroke-miterlimit="10"/>
</g>
<path d="M528.885 543.013C520.373 543.845 517.552 551.11 520.285 558.109C523.244 565.714 529.199 568.93 531.403 568.716C533.606 568.501 537.913 562.914 539.411 557.693C541.476 550.517 538.278 542.092 528.885 543.013Z" fill="#FDB602" stroke="#F0F0F0" stroke-miterlimit="10"/>
<path d="M528.985 546.607C523.445 546.986 523.168 552.232 523.445 553.909C523.722 555.574 525.132 559.055 530.672 558.513C534.362 558.147 535.797 554.326 535.709 552.22C535.621 550.113 534.299 546.241 528.998 546.607H528.985Z" fill="#EFF4F3" stroke="#F0F0F0" stroke-miterlimit="10"/>
<g style="mix-blend-mode:multiply" opacity="0.5">
<path d="M478.217 581.113C469.705 581.946 466.885 589.21 469.617 596.21C472.576 603.815 478.532 607.031 480.735 606.816C482.939 606.602 487.245 601.015 488.743 595.794C490.808 588.617 487.61 580.193 478.217 581.113Z" fill="url(#paint2_linear_1060_20350)" style="mix-blend-mode:multiply"/>
<path d="M478.217 581.113C469.705 581.946 466.885 589.21 469.617 596.21C472.576 603.815 478.532 607.031 480.735 606.816C482.939 606.602 487.245 601.015 488.743 595.794C490.808 588.617 487.61 580.193 478.217 581.113Z" stroke="#F0F0F0" stroke-miterlimit="10"/>
</g>
<path d="M472.69 576.989C464.178 577.822 461.357 585.086 464.09 592.086C467.049 599.691 473.004 602.907 475.208 602.692C477.411 602.478 481.718 596.891 483.216 591.67C485.281 584.493 482.083 576.069 472.69 576.989Z" fill="#FDB602" stroke="#F0F0F0" stroke-miterlimit="10"/>
<path d="M472.79 580.571C467.25 580.949 466.973 586.196 467.25 587.873C467.527 589.538 468.937 593.019 474.478 592.477C478.167 592.111 479.602 588.29 479.514 586.183C479.426 584.077 478.104 580.205 472.803 580.571H472.79Z" fill="#EFF4F3" stroke="#F0F0F0" stroke-miterlimit="10"/>
<g style="mix-blend-mode:multiply" opacity="0.5">
<path d="M455.389 525.469C446.877 526.302 444.057 533.566 446.789 540.566C449.748 548.171 455.704 551.387 457.907 551.172C460.111 550.958 464.417 545.371 465.915 540.15C467.98 532.973 464.782 524.549 455.389 525.469Z" fill="url(#paint3_linear_1060_20350)" style="mix-blend-mode:multiply"/>
<path d="M455.389 525.469C446.877 526.302 444.057 533.566 446.789 540.566C449.748 548.171 455.704 551.387 457.907 551.172C460.111 550.958 464.417 545.371 465.915 540.15C467.98 532.973 464.782 524.549 455.389 525.469Z" stroke="#F0F0F0" stroke-miterlimit="10"/>
</g>
<path d="M451.851 521.131C443.339 521.963 440.519 529.228 443.251 536.227C446.21 543.832 452.166 547.048 454.369 546.834C456.573 546.62 460.879 541.032 462.377 535.811C464.442 528.635 461.244 520.21 451.851 521.131Z" fill="#FDB602" stroke="#F0F0F0" stroke-miterlimit="10"/>
<path d="M451.951 524.725C446.411 525.104 446.134 530.35 446.411 532.028C446.688 533.692 448.098 537.173 453.639 536.631C457.328 536.265 458.763 532.444 458.675 530.338C458.587 528.231 457.265 524.36 451.964 524.725H451.951Z" fill="#EFF4F3" stroke="#F0F0F0" stroke-miterlimit="10"/>
<path d="M82.0432 388.882C56.6339 391.897 41.2977 410.915 39.6356 431.511C37.344 460.152 58.4093 486.196 97.1528 479.562C131.439 473.697 138.503 436.467 129.991 416.174C122.65 398.669 105.186 386.133 82.0432 388.87V388.882Z" fill="#E1E1E1" stroke="#F0F0F0" stroke-miterlimit="10"/>
<path d="M80.268 470.771C78.757 470.784 77.2586 470.784 75.7603 470.771C77.6615 474.883 79.9028 478.036 82.2574 480.445C86.7147 480.709 91.4994 480.445 96.5863 479.637C98.3491 476.838 99.7971 473.395 100.93 469.333C94.3828 470.178 87.3065 470.696 80.268 470.784V470.771Z" fill="#0D0D0D" stroke="#F0F0F0" stroke-miterlimit="10"/>
<path d="M101.711 466.193C103.234 459.294 103.952 450.895 103.801 441.171C95.7172 442.382 86.5885 443.113 77.5479 443.227C75.0548 443.252 72.5618 443.227 70.1064 443.164C70.522 453.568 72.1588 461.577 74.4882 467.744C83.6421 467.959 93.1864 467.366 101.698 466.193H101.711Z" fill="#0D0D0D" stroke="#F0F0F0" stroke-miterlimit="10"/>
<path d="M103.033 410.701C105.123 419.062 106.395 428.231 106.735 437.64C111.595 436.795 115.964 435.773 119.566 434.613C122.323 433.73 124.728 432.797 126.818 431.889C126.189 421.824 123.62 413.185 119.125 406.034C117.765 406.64 116.304 407.22 114.768 407.762C111.52 408.922 107.49 409.919 103.021 410.713L103.033 410.701Z" fill="#0D0D0D" stroke="#F0F0F0" stroke-miterlimit="10"/>
<path d="M67.0844 443.05C60.0081 442.735 53.2717 441.966 47.4419 440.692C47.8322 450.214 49.7713 458.487 53.2591 465.436C58.623 466.635 64.7928 467.341 71.2395 467.631C68.8346 460.808 67.4495 452.598 67.0844 443.05Z" fill="#0D0D0D" stroke="#F0F0F0" stroke-miterlimit="10"/>
<path d="M133.013 428.711C132.56 424.284 131.54 420.109 130.029 416.49C128.178 412.063 125.672 407.964 122.6 404.357C122.348 404.496 122.084 404.622 121.819 404.761C125.861 411.306 128.908 419.731 129.752 430.527C130.986 429.909 132.069 429.303 133.013 428.723V428.711Z" fill="#0D0D0D" stroke="#F0F0F0" stroke-miterlimit="10"/>
<path d="M126.956 435.105C124.854 435.988 122.663 436.795 120.497 437.489C116.682 438.725 112.01 439.797 106.823 440.679C106.987 450.277 106.332 458.664 104.884 465.714C110.6 464.793 115.738 463.608 119.817 462.208C120.85 461.855 121.832 461.502 122.751 461.136C125.773 453.771 127.196 445.068 126.956 435.105Z" fill="#0D0D0D" stroke="#F0F0F0" stroke-miterlimit="10"/>
<path d="M40.2275 438.699C40.7438 448.158 43.879 457.05 49.4192 464.163C46.6617 457.781 44.7101 449.823 44.3953 439.96C42.8717 439.557 41.4867 439.141 40.2275 438.699Z" fill="#0D0D0D" stroke="#F0F0F0" stroke-miterlimit="10"/>
<path d="M102.252 407.775C106.646 407.006 110.6 406.034 113.773 404.899C115.083 404.433 116.291 403.954 117.412 403.474C114.101 398.934 109.933 395.05 104.921 391.859C101.673 390.635 98.1977 389.765 94.521 389.324C97.077 393.36 99.419 398.606 101.345 404.748C101.66 405.744 101.95 406.753 102.239 407.775H102.252Z" fill="#0D0D0D" stroke="#F0F0F0" stroke-miterlimit="10"/>
<path d="M103.725 438.132C103.385 428.143 102.013 419.012 100.036 411.18C94.0677 412.076 87.4698 412.618 80.9223 412.694C78.1396 412.731 75.357 412.681 72.6372 412.542C70.9626 419.807 69.8797 428.774 70.0182 439.734C70.0182 439.872 70.0182 440.011 70.0182 440.15C81.4008 440.478 93.4381 439.696 103.725 438.132Z" fill="#0D0D0D" stroke="#F0F0F0" stroke-miterlimit="10"/>
<path d="M104.153 468.879C103.184 472.675 101.962 476.018 100.489 478.881C107.339 477.254 112.992 474.29 117.576 470.456C118.822 468.753 119.955 466.937 120.95 465.02C120.9 465.033 120.849 465.058 120.786 465.07C116.291 466.609 110.537 467.908 104.153 468.867V468.879Z" fill="#0D0D0D" stroke="#F0F0F0" stroke-miterlimit="10"/>
<path d="M133.239 432.078C132.207 432.658 131.099 433.226 129.94 433.768C130.318 443.971 129.072 452.446 126.679 459.459C126.692 459.459 126.704 459.459 126.717 459.446C131.577 451.021 133.567 441.159 133.239 432.078Z" fill="#0D0D0D" stroke="#F0F0F0" stroke-miterlimit="10"/>
<path d="M44.3447 436.341C44.4454 424.649 46.7622 415.43 50.1619 408.191C49.8723 408.065 49.5953 407.939 49.3182 407.8C44.0928 414.787 40.9954 423.123 40.3028 431.725C40.2021 432.973 40.1518 434.222 40.1392 435.458C41.3102 435.899 42.6952 436.353 44.3321 436.807C44.3321 436.643 44.3321 436.492 44.3321 436.328L44.3447 436.341Z" fill="#0D0D0D" stroke="#F0F0F0" stroke-miterlimit="10"/>
<path d="M55.1982 468.93C55.79 469.876 56.407 470.796 57.0618 471.692C62.6901 475.917 69.6531 478.868 77.8626 480.016C75.7473 477.342 73.9216 474.239 72.4232 470.695C66.3416 470.481 60.4614 469.913 55.1982 468.93Z" fill="#0D0D0D" stroke="#F0F0F0" stroke-miterlimit="10"/>
<path d="M99.243 408.254C96.8632 399.93 93.8161 393.296 90.6557 389.008C88.1374 388.907 85.5436 389.008 82.8742 389.298C82.0936 390.307 81.3003 391.43 80.5197 392.678C78.0769 396.55 75.4076 402.049 73.3804 409.566C81.9803 409.969 91.1845 409.452 99.243 408.254Z" fill="#0D0D0D" stroke="#F0F0F0" stroke-miterlimit="10"/>
<path d="M70.3081 409.377C72.4864 401.053 75.4328 395.024 78.1273 390.812C78.3288 390.509 78.5177 390.207 78.7191 389.917C72.6375 391.064 67.2106 393.158 62.4637 395.995C59.2403 399.073 56.5332 402.591 54.3423 406.539C54.9593 406.741 55.6392 406.943 56.3695 407.144C60.4617 408.279 65.2464 409.011 70.3207 409.389L70.3081 409.377Z" fill="#0D0D0D" stroke="#F0F0F0" stroke-miterlimit="10"/>
<path d="M47.3667 437.577C53.1461 438.914 59.8951 439.696 66.9966 440.036C66.9966 439.948 66.9966 439.86 66.9966 439.771C66.8581 428.799 67.9158 419.756 69.5778 412.34C64.4783 411.937 59.6684 411.193 55.5385 410.045C54.6067 409.793 53.7379 409.515 52.9195 409.238C49.3058 416.843 47.4422 425.898 47.3667 436.353C47.3667 436.757 47.3667 437.161 47.3667 437.564V437.577Z" fill="#0D0D0D" stroke="#F0F0F0" stroke-miterlimit="10"/>
<g style="mix-blend-mode:multiply" opacity="0.5">
<path d="M125.181 425.205C116.669 426.037 113.849 433.301 116.581 440.301C119.54 447.906 125.496 451.122 127.699 450.908C129.903 450.693 134.209 445.106 135.707 439.885C137.772 432.709 134.574 424.284 125.181 425.205Z" fill="url(#paint4_linear_1060_20350)" style="mix-blend-mode:multiply"/>
<path d="M125.181 425.205C116.669 426.037 113.849 433.301 116.581 440.301C119.54 447.906 125.496 451.122 127.699 450.908C129.903 450.693 134.209 445.106 135.707 439.885C137.772 432.709 134.574 424.284 125.181 425.205Z" stroke="#F0F0F0" stroke-miterlimit="10"/>
</g>
<path d="M128.153 417.549C119.641 418.382 116.82 425.646 119.553 432.646C122.512 440.251 128.467 443.467 130.671 443.252C132.874 443.038 137.181 437.451 138.679 432.23C140.744 425.053 137.546 416.629 128.153 417.549Z" fill="#FDB602" stroke="#F0F0F0" stroke-miterlimit="10"/>
<path d="M128.253 421.131C122.713 421.509 122.436 426.756 122.713 428.433C122.99 430.098 124.4 433.579 129.94 433.037C133.63 432.671 135.065 428.85 134.977 426.743C134.889 424.637 133.567 420.765 128.266 421.131H128.253Z" fill="#EFF4F3" stroke="#F0F0F0" stroke-miterlimit="10"/>
<g style="mix-blend-mode:multiply" opacity="0.5">
<path d="M77.4851 455.65C68.9734 456.482 66.1529 463.747 68.8852 470.746C71.8442 478.351 77.7999 481.567 80.0034 481.353C82.2068 481.139 86.5131 475.551 88.0114 470.33C90.0764 463.154 86.8782 454.729 77.4851 455.65Z" fill="url(#paint5_linear_1060_20350)" style="mix-blend-mode:multiply"/>
<path d="M77.4851 455.65C68.9734 456.482 66.1529 463.747 68.8852 470.746C71.8442 478.351 77.7999 481.567 80.0034 481.353C82.2068 481.139 86.5131 475.551 88.0114 470.33C90.0764 463.154 86.8782 454.729 77.4851 455.65Z" stroke="#F0F0F0" stroke-miterlimit="10"/>
</g>
<path d="M71.9577 451.513C63.446 452.346 60.6255 459.61 63.3579 466.61C66.3168 474.215 72.2725 477.431 74.476 477.216C76.6795 477.002 80.9857 471.415 82.4841 466.193C84.5491 459.017 81.3509 450.593 71.9577 451.513Z" fill="#FDB602" stroke="#F0F0F0" stroke-miterlimit="10"/>
<path d="M72.0583 455.108C66.5181 455.486 66.2411 460.733 66.5182 462.41C66.7952 464.075 68.2054 467.556 73.7456 467.013C77.4348 466.648 78.8702 462.826 78.7821 460.72C78.694 458.614 77.3719 454.742 72.0709 455.108H72.0583Z" fill="#EFF4F3" stroke="#F0F0F0" stroke-miterlimit="10"/>
<g style="mix-blend-mode:multiply" opacity="0.5">
<path d="M54.657 400.006C46.1452 400.838 43.3248 408.103 46.0571 415.102C49.0161 422.707 54.9717 425.923 57.1752 425.709C59.3787 425.495 63.6849 419.907 65.1833 414.686C67.2483 407.51 64.0501 399.085 54.657 400.006Z" fill="url(#paint6_linear_1060_20350)" style="mix-blend-mode:multiply"/>
<path d="M54.657 400.006C46.1452 400.838 43.3248 408.103 46.0571 415.102C49.0161 422.707 54.9717 425.923 57.1752 425.709C59.3787 425.495 63.6849 419.907 65.1833 414.686C67.2483 407.51 64.0501 399.085 54.657 400.006Z" stroke="#F0F0F0" stroke-miterlimit="10"/>
</g>
<path d="M51.1189 395.667C42.6071 396.5 39.7867 403.764 42.519 410.764C45.478 418.369 51.4337 421.585 53.6371 421.371C55.8406 421.156 60.1469 415.569 61.6452 410.348C63.7102 403.172 60.512 394.747 51.1189 395.667Z" fill="#FDB602" stroke="#F0F0F0" stroke-miterlimit="10"/>
<path d="M51.2195 399.249C45.6793 399.628 45.4023 404.874 45.6793 406.552C45.9563 408.216 47.3665 411.697 52.9067 411.155C56.596 410.789 58.0314 406.968 57.9432 404.862C57.8551 402.755 56.533 398.884 51.2321 399.249H51.2195Z" fill="#EFF4F3" stroke="#F0F0F0" stroke-miterlimit="10"/>
<path d="M205.917 24.4106C180.507 27.4249 165.171 46.4437 163.509 67.0389C161.218 95.6806 182.283 121.724 221.026 115.09C255.313 109.226 262.376 71.9954 253.865 51.7028C246.524 34.1975 229.06 21.6612 205.917 24.398V24.4106Z" fill="#E1E1E1" stroke="#F0F0F0" stroke-miterlimit="10"/>
<path d="M204.141 106.312C202.631 106.325 201.132 106.325 199.634 106.312C201.535 110.424 203.776 113.577 206.131 115.986C210.588 116.25 215.373 115.986 220.46 115.178C222.223 112.379 223.671 108.936 224.804 104.875C218.256 105.72 211.18 106.237 204.141 106.325V106.312Z" fill="#0D0D0D" stroke="#F0F0F0" stroke-miterlimit="10"/>
<path d="M225.572 101.722C227.095 94.823 227.813 86.4235 227.662 76.6997C219.578 77.9105 210.449 78.6419 201.409 78.7555C198.916 78.7807 196.423 78.7555 193.967 78.6924C194.383 89.0972 196.02 97.1058 198.349 103.273C207.503 103.487 217.047 102.895 225.559 101.722H225.572Z" fill="#0D0D0D" stroke="#F0F0F0" stroke-miterlimit="10"/>
<path d="M226.907 46.2289C228.997 54.5906 230.269 63.7595 230.609 73.168C235.469 72.323 239.838 71.3014 243.439 70.1411C246.197 69.2583 248.602 68.325 250.692 67.4169C250.062 57.3526 247.493 48.7135 242.998 41.5625C241.639 42.1679 240.178 42.748 238.642 43.2903C235.393 44.4506 231.364 45.447 226.894 46.2415L226.907 46.2289Z" fill="#0D0D0D" stroke="#F0F0F0" stroke-miterlimit="10"/>
<path d="M190.946 78.5786C183.869 78.2633 177.133 77.494 171.303 76.2202C171.694 85.7422 173.633 94.0156 177.12 100.965C182.484 102.163 188.654 102.869 195.101 103.159C192.696 96.3362 191.311 88.1259 190.946 78.5786Z" fill="#0D0D0D" stroke="#F0F0F0" stroke-miterlimit="10"/>
<path d="M256.874 64.2389C256.421 59.8121 255.401 55.6375 253.89 52.0179C252.039 47.5911 249.533 43.4923 246.461 39.8853C246.209 40.024 245.945 40.1501 245.68 40.2888C249.722 46.8344 252.769 55.2592 253.613 66.055C254.847 65.437 255.93 64.8316 256.874 64.2515V64.2389Z" fill="#0D0D0D" stroke="#F0F0F0" stroke-miterlimit="10"/>
<path d="M250.817 70.646C248.714 71.5288 246.524 72.336 244.358 73.0296C240.543 74.2656 235.871 75.3376 230.684 76.2205C230.847 85.8181 230.193 94.205 228.745 101.255C234.461 100.334 239.598 99.1489 243.678 97.749C244.71 97.3959 245.693 97.0427 246.612 96.677C249.634 89.3116 251.056 80.6094 250.817 70.646Z" fill="#0D0D0D" stroke="#F0F0F0" stroke-miterlimit="10"/>
<path d="M164.101 74.2402C164.617 83.6992 167.753 92.5906 173.293 99.7037C170.535 93.3221 168.584 85.3639 168.269 75.5014C166.745 75.0978 165.36 74.6817 164.101 74.2402Z" fill="#0D0D0D" stroke="#F0F0F0" stroke-miterlimit="10"/>
<path d="M226.126 43.3033C230.52 42.534 234.474 41.5628 237.647 40.4278C238.956 39.9611 240.165 39.4819 241.286 39.0026C237.974 34.4623 233.806 30.5779 228.795 27.387C225.546 26.1637 222.071 25.2935 218.395 24.8521C220.951 28.8879 223.293 34.1344 225.219 40.2764C225.534 41.2728 225.823 42.2817 226.113 43.3033H226.126Z" fill="#0D0D0D" stroke="#F0F0F0" stroke-miterlimit="10"/>
<path d="M227.599 73.6602C227.259 63.6715 225.886 54.5405 223.91 46.7085C217.941 47.6039 211.343 48.1463 204.796 48.2219C202.013 48.2598 199.231 48.2093 196.511 48.0706C194.836 55.335 193.753 64.3021 193.892 75.2619C193.892 75.4006 193.892 75.5393 193.892 75.6781C205.274 76.006 217.312 75.224 227.599 73.6602Z" fill="#0D0D0D" stroke="#F0F0F0" stroke-miterlimit="10"/>
<path d="M228.015 104.408C227.045 108.204 225.824 111.546 224.351 114.409C231.2 112.782 236.854 109.819 241.437 105.985C242.684 104.282 243.817 102.466 244.812 100.549C244.761 100.561 244.711 100.587 244.648 100.599C240.153 102.138 234.398 103.437 228.015 104.395V104.408Z" fill="#0D0D0D" stroke="#F0F0F0" stroke-miterlimit="10"/>
<path d="M257.113 67.6191C256.08 68.1993 254.972 68.7668 253.814 69.3091C254.192 79.5122 252.945 87.9874 250.553 94.9996C250.565 94.9996 250.578 94.9996 250.591 94.987C255.451 86.5622 257.44 76.6997 257.113 67.6191Z" fill="#0D0D0D" stroke="#F0F0F0" stroke-miterlimit="10"/>
<path d="M168.218 71.8694C168.319 60.1781 170.636 50.9588 174.035 43.7196C173.746 43.5935 173.469 43.4673 173.192 43.3286C167.966 50.3156 164.869 58.6521 164.176 67.2534C164.076 68.502 164.025 69.7506 164.013 70.9865C165.184 71.428 166.569 71.882 168.206 72.336C168.206 72.1721 168.206 72.0207 168.206 71.8568L168.218 71.8694Z" fill="#0D0D0D" stroke="#F0F0F0" stroke-miterlimit="10"/>
<path d="M179.072 104.458C179.664 105.404 180.281 106.325 180.935 107.221C186.564 111.445 193.527 114.397 201.736 115.544C199.621 112.871 197.795 109.768 196.297 106.224C190.215 106.01 184.335 105.442 179.072 104.458Z" fill="#0D0D0D" stroke="#F0F0F0" stroke-miterlimit="10"/>
<path d="M223.117 43.795C220.737 35.4712 217.69 28.8373 214.529 24.5493C212.011 24.4484 209.417 24.5493 206.748 24.8393C205.967 25.8483 205.174 26.9708 204.393 28.2193C201.95 32.0912 199.281 37.59 197.254 45.1067C205.854 45.5103 215.058 44.9932 223.117 43.795Z" fill="#0D0D0D" stroke="#F0F0F0" stroke-miterlimit="10"/>
<path d="M194.169 44.9177C196.347 36.5938 199.294 30.5653 201.988 26.353C202.19 26.0503 202.378 25.7476 202.58 25.4575C196.498 26.6052 191.071 28.6988 186.325 31.5365C183.101 34.6138 180.394 38.1325 178.203 42.08C178.82 42.2818 179.5 42.4836 180.23 42.6854C184.323 43.8205 189.107 44.552 194.182 44.9303L194.169 44.9177Z" fill="#0D0D0D" stroke="#F0F0F0" stroke-miterlimit="10"/>
<path d="M171.24 73.1051C177.02 74.4419 183.769 75.2239 190.87 75.5644C190.87 75.4761 190.87 75.3878 190.87 75.2996C190.732 64.3272 191.789 55.2845 193.451 47.8686C188.352 47.4651 183.542 46.721 179.412 45.5733C178.48 45.321 177.611 45.0436 176.793 44.7661C173.179 52.3711 171.316 61.4265 171.24 71.8817C171.24 72.2853 171.24 72.6889 171.24 73.0925V73.1051Z" fill="#0D0D0D" stroke="#F0F0F0" stroke-miterlimit="10"/>
<g style="mix-blend-mode:multiply" opacity="0.5">
<path d="M249.054 60.7329C240.543 61.5653 237.722 68.8298 240.455 75.8294C243.414 83.4344 249.369 86.6504 251.573 86.436C253.776 86.2216 258.082 80.6345 259.581 75.4132C261.646 68.237 258.448 59.8123 249.054 60.7329Z" fill="url(#paint7_linear_1060_20350)" style="mix-blend-mode:multiply"/>
<path d="M249.054 60.7329C240.543 61.5653 237.722 68.8298 240.455 75.8294C243.414 83.4344 249.369 86.6504 251.573 86.436C253.776 86.2216 258.082 80.6345 259.581 75.4132C261.646 68.237 258.448 59.8123 249.054 60.7329Z" stroke="#F0F0F0" stroke-miterlimit="10"/>
</g>
<path d="M252.026 53.0776C243.514 53.91 240.694 61.1745 243.426 68.1741C246.385 75.7791 252.341 78.9951 254.544 78.7807C256.748 78.5663 261.054 72.9792 262.552 67.7579C264.617 60.5817 261.419 52.157 252.026 53.0776Z" fill="#FDB602" stroke="#F0F0F0" stroke-miterlimit="10"/>
<path d="M252.127 56.6721C246.587 57.0505 246.31 62.297 246.587 63.9744C246.864 65.6392 248.274 69.1201 253.814 68.5778C257.503 68.212 258.939 64.3906 258.85 62.2844C258.762 60.1782 257.44 56.3064 252.139 56.6721H252.127Z" fill="#EFF4F3" stroke="#F0F0F0" stroke-miterlimit="10"/>
<g style="mix-blend-mode:multiply" opacity="0.5">
<path d="M201.346 91.1782C192.834 92.0106 190.014 99.2751 192.746 106.275C195.705 113.88 201.661 117.096 203.864 116.881C206.068 116.667 210.374 111.08 211.872 105.859C213.937 98.6823 210.739 90.2576 201.346 91.1782Z" fill="url(#paint8_linear_1060_20350)" style="mix-blend-mode:multiply"/>
<path d="M201.346 91.1782C192.834 92.0106 190.014 99.2751 192.746 106.275C195.705 113.88 201.661 117.096 203.864 116.881C206.068 116.667 210.374 111.08 211.872 105.859C213.937 98.6823 210.739 90.2576 201.346 91.1782Z" stroke="#F0F0F0" stroke-miterlimit="10"/>
</g>
<path d="M195.831 87.0415C187.319 87.8739 184.499 95.1384 187.231 102.138C190.19 109.743 196.146 112.959 198.349 112.745C200.553 112.53 204.859 106.943 206.357 101.722C208.422 94.5456 205.224 86.1208 195.831 87.0415Z" fill="#FDB602" stroke="#F0F0F0" stroke-miterlimit="10"/>
<path d="M195.931 90.636C190.391 91.0144 190.114 96.2609 190.391 97.9383C190.668 99.6031 192.078 103.084 197.619 102.542C201.308 102.176 202.743 98.3545 202.655 96.2483C202.567 94.1421 201.245 90.2703 195.944 90.636H195.931Z" fill="#EFF4F3" stroke="#F0F0F0" stroke-miterlimit="10"/>
<g style="mix-blend-mode:multiply" opacity="0.5">
<path d="M178.531 35.5342C170.019 36.3666 167.198 43.631 169.931 50.6307C172.89 58.2356 178.845 61.4517 181.049 61.2373C183.252 61.0229 187.558 55.4358 189.057 50.2145C191.122 43.0383 187.924 34.6135 178.531 35.5342Z" fill="url(#paint9_linear_1060_20350)" style="mix-blend-mode:multiply"/>
<path d="M178.531 35.5342C170.019 36.3666 167.198 43.631 169.931 50.6307C172.89 58.2356 178.845 61.4517 181.049 61.2373C183.252 61.0229 187.558 55.4358 189.057 50.2145C191.122 43.0383 187.924 34.6135 178.531 35.5342Z" stroke="#F0F0F0" stroke-miterlimit="10"/>
</g>
<path d="M174.98 31.1958C166.468 32.0282 163.648 39.2927 166.38 46.2923C169.339 53.8973 175.295 57.1133 177.498 56.8989C179.701 56.6845 184.008 51.0974 185.506 45.8761C187.571 38.6999 184.373 30.2751 174.98 31.1958Z" fill="#FDB602" stroke="#F0F0F0" stroke-miterlimit="10"/>
<path d="M175.08 34.7903C169.54 35.1687 169.263 40.4152 169.54 42.0926C169.817 43.7574 171.227 47.2383 176.768 46.6959C180.457 46.3302 181.892 42.5088 181.804 40.4026C181.716 38.2964 180.394 34.4245 175.093 34.7903H175.08Z" fill="#EFF4F3" stroke="#F0F0F0" stroke-miterlimit="10"/>
<path d="M651.335 190.472C633.443 192.212 627.5 207.498 633.241 222.216C639.474 238.208 651.99 244.993 656.611 244.539C661.232 244.085 670.31 232.331 673.458 221.358C677.79 206.274 671.078 188.555 651.335 190.472Z" fill="#FDB602"/>
<path d="M651.55 198.026C639.903 198.833 639.311 209.856 639.89 213.375C640.469 216.881 643.441 224.208 655.088 223.061C662.857 222.304 665.866 214.258 665.677 209.831C665.476 205.391 662.693 197.257 651.55 198.026Z" fill="#EFF4F3"/>
<path d="M217.538 521.295C199.646 523.035 193.703 538.321 199.445 553.039C205.677 569.031 218.193 575.816 222.814 575.362C227.435 574.908 236.514 563.154 239.661 552.181C243.993 537.098 237.282 519.378 217.538 521.295Z" fill="#1A2E35"/>
<path d="M217.753 528.837C206.106 529.644 205.514 540.667 206.093 544.186C206.672 547.692 209.644 555.019 221.291 553.872C229.06 553.115 232.069 545.069 231.88 540.642C231.679 536.202 228.896 528.068 217.753 528.837Z" fill="#EFF4F3"/>
<path d="M447.948 17.1211C430.055 18.8615 424.112 34.1472 429.854 48.8653C436.086 64.8572 448.602 71.6424 453.223 71.1884C457.844 70.7343 466.923 58.98 470.071 48.0077C474.402 32.9238 467.691 15.2041 447.948 17.1211Z" fill="#A8A8A8"/>
<path d="M448.161 24.6754C436.514 25.4826 435.923 36.5054 436.502 40.0241C437.081 43.5302 440.053 50.8578 451.7 49.7101C459.468 48.9534 462.478 40.907 462.289 36.4802C462.087 32.0408 459.305 23.9061 448.161 24.6754Z" fill="#EFF4F3"/>
<path d="M23.9458 241.336L73.2702 270.007L127.845 237.887L78.8895 209.613L23.9458 241.336Z" fill="#EAEAEA"/>
<path d="M36.0498 241.507L72.7735 262.598L72.7593 227.185L54.44 202.744L36.0498 206.079V241.507Z" fill="#ECE5D9"/>
<path d="M115.656 238.171L72.7735 262.598L72.7593 227.185L115.656 202.744V238.171Z" fill="#C3BEB1"/>
<path d="M30.8281 206.945V208.62L53.745 204.688L73.2137 230.734L74.661 229.584L54.4403 202.744L30.8281 206.945Z" fill="#E8A40B"/>
<path d="M74.6607 229.583L54.4399 202.743L97.762 177.464L118.55 205.454L74.6607 229.583Z" fill="#F3B324"/>
<path d="M78.2795 179.537L30.8281 206.945L54.4403 202.743L97.7624 177.464L78.2795 179.537Z" fill="#EDA107"/>
<path d="M87.7721 230.62L87.2612 245.055L102.799 235.786L102.544 221.806L87.7721 230.62Z" fill="white"/>
<path d="M87.7721 230.62L87.2612 245.055L101.622 236.468L101.38 222.473L87.7721 230.62Z" fill="#E6B948"/>
<path d="M93.6758 227.1L93.9028 241.095L95.2083 240.315L94.8394 226.433L93.6758 227.1Z" fill="#F6F7FF"/>
<path d="M94.4414 225.951L94.6826 240.627L95.9881 239.861L95.605 225.284L94.4414 225.951Z" fill="#EEBD6C"/>
<path d="M87.2612 245.055L88.5809 245.992L104.105 236.724L102.927 235.716L87.2612 245.055Z" fill="white"/>
<path d="M88.5099 245.949V247.88L87.2612 247.142V245.055L88.5099 245.949Z" fill="#E8A40B"/>
<path d="M88.5098 245.95V247.88L104.048 238.612L104.176 236.61L88.5098 245.95Z" fill="#F3B324"/>
<path d="M45.4009 246.928V225.467L58.2712 232.564V254.294L45.4009 246.928Z" fill="#EEBD6C"/>
<path d="M46.2808 247.467L46.4369 226.077L58.2713 232.578V254.323L46.2808 247.467Z" fill="#F9F2E6"/>
<path d="M56.5967 243.606C56.9964 243.606 57.3204 243.066 57.3204 242.4C57.3204 241.733 56.9964 241.193 56.5967 241.193C56.1971 241.193 55.873 241.733 55.873 242.4C55.873 243.066 56.1971 243.606 56.5967 243.606Z" fill="#F3B324"/>
<path d="M56.9136 223.122C59.0757 221.408 58.6152 217.225 55.8849 213.778C53.1547 210.331 49.1885 208.926 47.0263 210.64C44.8641 212.353 45.3247 216.536 48.0549 219.983C50.7852 223.43 54.7514 224.835 56.9136 223.122Z" fill="#EEBD6C"/>
<path d="M56.8137 222.223C58.767 220.675 58.3502 216.895 55.8828 213.78C53.4153 210.665 49.8315 209.395 47.8782 210.943C45.9248 212.491 46.3416 216.271 48.8091 219.386C51.2765 222.501 54.8603 223.771 56.8137 222.223Z" fill="#F6C958"/>
<g clip-path="url(#clip1_1060_20350)">
<path d="M326.617 499.232L357.014 481.517L326.617 463.802L296.06 481.517L326.617 499.232Z" fill="#FFF9ED"/>
<path d="M326.617 497.943L298.3 481.517L326.617 465.091L354.934 481.517L326.617 497.943Z" fill="#FDB602"/>
<path d="M326.617 499.232L357.013 481.517V600.688L326.617 618.403V499.232Z" fill="#C3BEB1"/>
<path d="M296.06 481.517L326.617 499.232V618.403L296.06 600.688V481.517Z" fill="#ECE5D9"/>
<path opacity="0.6" d="M324.217 555.435L321.977 554.147V503.097L324.217 504.385V555.435ZM319.417 501.486L317.178 500.198V551.409L319.417 552.698V501.486ZM314.618 498.748L312.378 497.46V548.672L314.618 549.96V498.748ZM309.818 496.011L307.579 494.722V545.934L309.818 547.222V496.011ZM305.019 493.273L302.779 491.985V543.196L305.019 544.323V493.273ZM298.14 489.086V540.297L300.219 541.586V490.374L298.14 489.086Z" fill="#FDB602"/>
<path opacity="0.6" d="M328.856 504.224L331.096 503.097V604.714L328.856 606.003V504.224ZM333.656 603.104L335.896 601.816V500.198L333.656 501.486V603.104ZM338.455 600.366L340.695 599.078V497.46L338.455 498.748V600.366ZM343.255 597.628L345.495 596.34V494.722L343.255 496.011V597.628ZM348.054 594.891L350.294 593.602V491.985L348.054 493.273V594.73V594.891ZM352.854 490.374V591.992L355.094 590.704V489.086L352.854 490.374Z" fill="#FDB602"/>
<path opacity="0.6" d="M322.297 558.173L324.057 559.139V562.36L322.297 561.394V558.173ZM318.777 559.3L320.537 560.266V557.046L318.777 556.079V559.3ZM315.258 557.207L317.018 558.334V555.113L315.258 553.986V557.207ZM322.297 564.293L324.057 565.42V568.641L322.297 567.674V564.293ZM318.777 565.581L320.537 566.547V563.326L318.777 562.36V565.581ZM315.258 563.487L317.018 564.454V561.233L315.258 560.266V563.487ZM322.297 570.573L324.057 571.701V574.921L322.297 573.794V570.573ZM318.777 571.862L320.537 572.828V569.607L318.777 568.48V571.862ZM315.258 569.768L317.018 570.734V567.513L315.258 566.547V569.768ZM322.297 576.854L324.057 577.981V581.202L322.297 580.075V576.854ZM318.777 577.981L320.537 579.108V575.888L318.777 574.76V577.981ZM315.258 576.049L317.018 577.015V573.794L315.258 572.667V576.049ZM322.297 583.135L324.057 584.101V587.322L322.297 586.355V583.135ZM318.777 584.262L320.537 585.389V582.168L318.777 581.041V584.262ZM315.258 582.168L317.018 583.296V580.075L315.258 578.947V582.168ZM322.297 589.415L324.057 590.381V593.602L322.297 592.636V589.415ZM318.777 590.542L320.537 591.509V588.288L318.777 587.322V590.542ZM315.258 588.449L317.018 589.576V586.355L315.258 585.228V588.449ZM322.297 595.535L324.057 596.662V599.883L322.297 598.917V595.535ZM318.777 596.823L320.537 597.789V594.569L318.777 593.602V596.823ZM315.258 594.73L317.018 595.696V592.475L315.258 591.509V594.73ZM322.297 601.815L324.057 602.943V606.164L322.297 605.036V601.815ZM318.777 603.104L320.537 604.07V600.849L318.777 599.883V603.104ZM315.258 601.01L317.018 601.976V598.756L315.258 597.789V601.01Z" fill="#FDB602"/>
<path opacity="0.6" d="M305.179 549.477L306.939 550.604V553.825L305.179 552.698V549.477ZM301.659 550.765L303.419 551.731V548.51L301.659 547.383V550.765ZM298.14 548.672L299.899 549.638V546.417L298.14 545.451V548.672ZM305.179 555.757L306.939 556.885V560.106L305.179 558.978V555.757ZM301.659 556.885L303.419 558.012V554.791L301.659 553.664V556.885ZM298.14 554.952L299.899 555.918V552.698L298.14 551.731V554.952ZM305.179 562.038L306.939 563.004V566.386L305.179 565.259V562.038ZM301.659 563.165L303.419 564.293V561.072L301.659 559.944V563.165ZM298.14 561.072L299.899 562.199V558.978L298.14 557.851V561.072ZM305.179 568.319L306.939 569.285V572.506L305.179 571.54V568.319ZM301.659 569.446L303.419 570.573V567.191L301.659 566.225V569.446ZM298.14 567.352L299.899 568.48V565.259L298.14 564.132V567.352ZM305.179 574.599L306.939 575.566V578.786L305.179 577.82V574.599ZM301.659 575.727L303.419 576.693V573.472L301.659 572.506V575.727ZM298.14 573.633L299.899 574.76V571.379L298.14 570.412V573.633ZM305.179 580.719L306.939 581.846V585.067L305.179 583.94V580.719ZM301.659 582.007L303.419 582.974V579.753L301.659 578.786V582.007ZM298.14 579.914L299.899 580.88V577.659L298.14 576.693V579.914ZM305.179 587L306.939 588.127V591.348L305.179 590.22V587ZM301.659 588.127L303.419 589.254V586.033L301.659 584.906V588.127ZM298.14 586.194L299.899 587.161V583.94L298.14 582.974V586.194ZM305.179 593.28L306.939 594.408V597.628L305.179 596.501V593.28ZM301.659 594.408L303.419 595.535V592.314L301.659 591.187V594.408ZM298.14 592.475L299.899 593.441V590.22L298.14 589.093V592.475Z" fill="#FDB602"/>
</g>
<g clip-path="url(#clip2_1060_20350)">
<path d="M571.915 55.9866L601.916 38.5806L557.902 13.0649L527.901 30.471L571.915 55.9866Z" fill="#FFF9ED"/>
<path d="M557.902 17.0208L595.008 38.3828L571.718 51.8329L534.612 30.4709L557.902 17.0208ZM557.902 15.6362L532.44 30.4709L571.718 53.2174L597.376 38.3828L557.902 15.6362Z" fill="#FDB602"/>
<path d="M571.915 55.9866L601.916 38.5806V120.864L571.915 138.27V55.9866Z" fill="#C3BEB1"/>
<path d="M527.901 30.4712L571.915 55.9869V138.27L527.901 112.754V30.4712Z" fill="#ECE5D9"/>
<path opacity="0.6" d="M566.389 58.9536L568.955 60.5359V65.0853L566.389 63.5029V58.9536ZM561.257 60.5359L563.823 62.1183V57.569L561.257 55.9866V60.5359ZM556.125 57.7668L558.691 59.1514V54.6021L556.125 53.0197V57.7668ZM550.994 54.7999L553.559 56.1844V51.6351L550.994 50.0528V54.7999ZM545.862 51.8329L548.428 53.2175V48.6682L545.862 47.0858V51.8329ZM540.73 48.866L543.296 50.2506V45.7013L540.73 44.1189V48.866ZM535.796 45.899L538.362 47.4814V42.7343L535.796 41.3498V45.899ZM530.664 42.9321L533.23 44.5145V39.7674L530.664 38.3828V42.9321ZM566.389 67.8544L568.955 69.4368V73.9861L566.389 72.6015V67.8544ZM561.257 69.6346L563.823 71.2169V66.4698L561.257 65.0853V69.6346ZM556.125 66.6676L558.691 68.25V63.5029L556.125 62.1183V66.6676ZM550.994 63.7007L553.559 65.283V60.5359L550.994 59.1514V63.7007ZM545.862 60.7337L548.428 62.3161V57.569L545.862 56.1844V60.7337ZM540.73 57.7668L543.296 59.3492V54.7999L540.73 53.2175V57.7668ZM535.599 54.7999L538.362 56.3822V51.8329L535.599 50.2506V54.7999ZM530.664 52.0307L533.23 53.4153V48.866L530.664 47.2836V52.0307ZM566.191 76.953L568.955 78.5354V83.0847L566.191 81.5023V76.953ZM561.257 78.5354L563.823 80.1177V75.5684L561.257 73.9861V78.5354ZM556.125 75.7662L558.691 77.1508V72.6015L556.125 71.0191V75.7662ZM550.994 72.7993L553.559 74.1838V69.6346L550.994 68.0522V72.7993ZM545.862 69.8323L548.428 71.2169V66.6676L545.862 65.0853V69.8323ZM540.73 66.8654L543.296 68.25V63.7007L540.73 62.1183V66.8654ZM535.599 63.8985L538.164 65.4808V60.7337L535.599 59.3492V63.8985ZM530.467 60.9315L533.23 62.5139V57.7668L530.467 56.3822V60.9315ZM566.191 85.8538L568.757 87.4362V91.9855L566.191 90.6009V85.8538ZM561.257 87.634L563.823 89.2163V84.4693L561.257 83.0847V87.634ZM556.125 84.667L558.691 86.2494V81.5023L556.125 80.1177V84.667ZM550.994 81.7001L553.559 83.2825V78.5354L550.994 77.1508V81.7001ZM545.862 78.7332L548.428 80.3155V75.5684L545.862 74.1838V78.7332ZM540.73 75.7662L543.296 77.3486V72.7993L540.73 71.2169V75.7662ZM535.599 72.7993L538.164 74.3817V69.8323L535.599 68.25V72.7993ZM530.467 70.0302L533.033 71.4147V66.8654L530.467 65.283V70.0302ZM566.191 94.9524L568.757 96.337V101.084L566.191 99.5017V94.9524ZM561.06 96.5348L563.823 98.1172V93.5678L561.06 91.9855V96.5348ZM556.125 93.7657L558.691 95.1502V90.6009L556.125 89.0185V93.7657ZM550.994 90.7987L553.559 92.1833V87.634L550.994 86.0516V90.7987ZM545.862 87.8318L548.428 89.2163V84.667L545.862 83.0847V87.8318ZM540.73 84.8648L543.296 86.2494V81.7001L540.73 80.1177V84.8648ZM535.599 81.8979L538.164 83.2825V78.7332L535.599 77.1508V81.8979ZM530.467 78.931L533.033 80.5133V75.7662L530.467 74.3817V78.931ZM566.191 103.853L568.757 105.436V109.985L566.191 108.6V103.853ZM561.06 105.633L563.626 107.018V102.469L561.06 100.886V105.633ZM555.928 102.666L558.691 104.249V99.5017L555.928 98.1172V102.666ZM550.994 99.6995L553.559 101.282V96.5348L550.994 95.1502V99.6995ZM545.862 96.7326L548.428 98.315V93.5678L545.862 92.1833V96.7326ZM540.73 93.7657L543.296 95.348V90.6009L540.73 89.2163V93.7657ZM535.599 90.7987L538.164 92.3811V87.8318L535.599 86.2494V90.7987ZM530.467 87.8318L533.033 89.4142V84.8648L530.467 83.2825V87.8318ZM566.191 112.952L568.757 114.336V119.084L566.191 117.501V112.952ZM561.06 114.534L563.626 116.117V111.567L561.06 109.985V114.534ZM555.928 111.567L558.494 113.15V108.6L555.928 107.018V111.567ZM550.994 108.798L553.559 110.183V105.633L550.994 104.051V108.798ZM545.862 105.831L548.428 107.216V102.666L545.862 101.084V105.831ZM540.73 102.864L543.296 104.249V99.6995L540.73 98.1172V102.864ZM535.599 99.8973L538.164 101.282V96.7326L535.599 95.1502V99.8973ZM530.467 96.9304L533.033 98.5127V93.7657L530.467 92.3811V96.9304Z" fill="#FDB602"/>
<path opacity="0.6" d="M577.244 63.503L574.678 65.0854V60.3383L577.244 58.9537V63.503ZM582.376 55.9868L579.81 57.5691V62.1184L582.376 60.5361V55.9868ZM587.507 53.0198L584.942 54.6022V59.1515L587.507 57.5691V53.0198ZM592.639 50.0529L590.073 51.6352V56.1846L592.639 54.8V50.0529ZM597.771 47.0859L595.008 48.6683V53.2176L597.771 51.833V47.0859ZM577.244 72.6016L574.678 73.9862V69.4369L577.244 67.8545V72.6016ZM582.376 64.8876L579.81 66.4699V71.0192L582.376 69.6347V64.8876ZM587.507 61.9206L584.942 63.503V68.0523L587.507 66.6677V61.9206ZM592.639 59.1515L590.073 60.5361V65.2831L592.639 63.7008V59.1515ZM597.771 56.1846L595.008 57.5691V62.3162L597.771 60.7339V56.1846ZM577.244 81.5024L574.678 83.0848V78.3377L577.244 76.9531V81.5024ZM582.376 73.9862L579.81 75.3708V80.1178L582.376 78.5355V73.9862ZM587.507 71.0192L584.942 72.4038V77.1509L587.507 75.5686V71.0192ZM592.639 68.0523L590.073 69.6347V74.184L592.639 72.6016V68.0523ZM597.771 65.0854L595.008 66.6677V71.217L597.771 69.6347V65.0854ZM577.244 90.601L574.678 91.9856V87.4363L577.244 85.8539V90.601ZM582.376 82.887L579.81 84.4694V89.0187L582.376 87.6341V82.887ZM587.507 79.9201L584.942 81.5024V86.0517L587.507 84.6671V79.9201ZM592.639 76.9531L590.073 78.5355V83.0848L592.639 81.7002V76.9531ZM597.771 73.9862L595.008 75.5686V80.1178L597.771 78.7333V73.9862ZM577.244 99.5018L574.678 100.886V96.3371L577.244 94.9525V99.5018ZM582.376 91.9856L579.81 93.3702V97.9195L582.376 96.5349V91.9856ZM587.507 89.0187L584.942 90.4032V95.1503L587.507 93.568V89.0187ZM592.639 86.0517L590.073 87.4363V92.1834L592.639 90.601V86.0517ZM597.771 83.0848L595.008 84.4694V89.2165L597.771 87.6341V83.0848ZM577.244 108.403L574.678 109.985V105.238L577.244 103.853V108.403ZM582.376 100.886L579.81 102.271V107.018L582.376 105.436V100.886ZM587.507 97.9195L584.942 99.5018V104.051L587.507 102.469V97.9195ZM592.639 94.9525L590.073 96.5349V101.084L592.639 99.5018V94.9525ZM597.771 91.9856L595.008 93.568V98.1173L597.771 96.7327V91.9856ZM577.244 117.501L574.678 118.886V114.337L577.244 112.754V117.501ZM582.376 109.787L579.81 111.37V115.919L582.376 114.534V109.787ZM587.507 106.82L584.942 108.403V112.952L587.507 111.567V106.82ZM592.639 103.853L590.073 105.436V109.985L592.639 108.6V103.853ZM597.771 101.084L595.008 102.469V107.216L597.771 105.634V101.084Z" fill="#FDB602"/>
</g>
<defs>
<filter id="filter0_i_1060_20350" x="268.849" y="357.106" width="91.4302" height="53.3481" filterUnits="userSpaceOnUse" color-interpolation-filters="sRGB">
<feFlood flood-opacity="0" result="BackgroundImageFix"/>
<feBlend mode="normal" in="SourceGraphic" in2="BackgroundImageFix" result="shape"/>
<feColorMatrix in="SourceAlpha" type="matrix" values="0 0 0 0 0 0 0 0 0 0 0 0 0 0 0 0 0 0 127 0" result="hardAlpha"/>
<feOffset dy="2"/>
<feComposite in2="hardAlpha" operator="arithmetic" k2="-1" k3="1"/>
<feColorMatrix type="matrix" values="0 0 0 0 0 0 0 0 0 0 0 0 0 0 0 0 0 0 0.11 0"/>
<feBlend mode="normal" in2="shape" result="effect1_innerShadow_1060_20350"/>
</filter>
<linearGradient id="paint0_linear_1060_20350" x1="203.373" y1="407.346" x2="507.391" y2="407.346" gradientUnits="userSpaceOnUse">
<stop stop-color="#FFEF26"/>
<stop offset="0.02" stop-color="#FEE921"/>
<stop offset="0.1" stop-color="#FDD70E"/>
<stop offset="0.19" stop-color="#FDCB03"/>
<stop offset="0.28" stop-color="#FDC800"/>
<stop offset="0.67" stop-color="#F18F34"/>
<stop offset="0.89" stop-color="#E95F32"/>
<stop offset="1" stop-color="#E3312D"/>
</linearGradient>
<linearGradient id="paint1_linear_1060_20350" x1="516.306" y1="563.494" x2="537.031" y2="563.494" gradientUnits="userSpaceOnUse">
<stop stop-color="#00ADE2"/>
<stop offset="1" stop-color="#FC6262" stop-opacity="0"/>
</linearGradient>
<linearGradient id="paint2_linear_1060_20350" x1="468.61" y1="593.94" x2="489.335" y2="593.94" gradientUnits="userSpaceOnUse">
<stop stop-color="#00ADE2"/>
<stop offset="1" stop-color="#FC6262" stop-opacity="0"/>
</linearGradient>
<linearGradient id="paint3_linear_1060_20350" x1="445.782" y1="538.296" x2="466.507" y2="538.296" gradientUnits="userSpaceOnUse">
<stop stop-color="#00ADE2"/>
<stop offset="1" stop-color="#FC6262" stop-opacity="0"/>
</linearGradient>
<linearGradient id="paint4_linear_1060_20350" x1="115.574" y1="438.018" x2="136.299" y2="438.018" gradientUnits="userSpaceOnUse">
<stop stop-color="#00ADE2"/>
<stop offset="1" stop-color="#FC6262" stop-opacity="0"/>
</linearGradient>
<linearGradient id="paint5_linear_1060_20350" x1="67.8779" y1="468.464" x2="88.6032" y2="468.464" gradientUnits="userSpaceOnUse">
<stop stop-color="#00ADE2"/>
<stop offset="1" stop-color="#FC6262" stop-opacity="0"/>
</linearGradient>
<linearGradient id="paint6_linear_1060_20350" x1="45.0498" y1="412.82" x2="65.7751" y2="412.82" gradientUnits="userSpaceOnUse">
<stop stop-color="#00ADE2"/>
<stop offset="1" stop-color="#FC6262" stop-opacity="0"/>
</linearGradient>
<linearGradient id="paint7_linear_1060_20350" x1="239.447" y1="73.5592" x2="260.173" y2="73.5592" gradientUnits="userSpaceOnUse">
<stop stop-color="#00ADE2"/>
<stop offset="1" stop-color="#FC6262" stop-opacity="0"/>
</linearGradient>
<linearGradient id="paint8_linear_1060_20350" x1="191.751" y1="104.005" x2="212.477" y2="104.005" gradientUnits="userSpaceOnUse">
<stop stop-color="#00ADE2"/>
<stop offset="1" stop-color="#FC6262" stop-opacity="0"/>
</linearGradient>
<linearGradient id="paint9_linear_1060_20350" x1="168.923" y1="48.3605" x2="189.649" y2="48.3605" gradientUnits="userSpaceOnUse">
<stop stop-color="#00ADE2"/>
<stop offset="1" stop-color="#FC6262" stop-opacity="0"/>
</linearGradient>
<clipPath id="clip0_1060_20350">
<rect width="57.3071" height="60.812" fill="white" transform="matrix(0.587686 0.809089 -0.896827 0.442381 394.136 388.679)"/>
</clipPath>
<clipPath id="clip1_1060_20350">
<rect width="60.9535" height="154.601" fill="white" transform="translate(296.06 463.802)"/>
</clipPath>
<clipPath id="clip2_1060_20350">
<rect width="74.015" height="125.205" fill="white" transform="translate(527.901 13.0649)"/>
</clipPath>
</defs>
</svg>
