<svg width="876" height="655" viewBox="0 0 876 655" fill="none" xmlns="http://www.w3.org/2000/svg">
<path d="M532.628 332.549C532.715 331.569 533.118 330.536 534.01 330.011L515.893 340.548C514.843 341.178 514.475 342.473 514.493 343.646L532.61 333.109C532.61 332.916 532.61 332.741 532.645 332.549H532.628Z" fill="#0D0D0D"/>
<path d="M516.383 331.726C518.361 331.323 520.374 332.006 522.09 332.986L540.207 322.449C538.089 321.207 535.271 320.436 533.013 321.749L514.896 332.286C515.351 332.024 515.858 331.831 516.383 331.726Z" fill="#262626"/>
<path d="M513.232 420.677C513.232 421.009 513.127 421.359 512.847 421.534L530.964 410.997C531.262 410.822 531.349 410.455 531.349 410.14L513.232 420.677Z" fill="#3C3C3F"/>
<path d="M514.23 373.996L514.09 419.959L531.735 409.72L531.84 369.34L514.23 373.996Z" fill="#0D0D0D"/>
<path d="M513.057 420.536C512.269 421.937 516.015 424.667 514.808 422.182V372.105L513.057 372.858V420.536Z" fill="#1F1F1F"/>
<path d="M576.704 486.471C576.546 492.754 571.173 502.731 564.346 500.368C571.978 507.719 579.925 496.78 580.117 488.589L576.721 486.471H576.704Z" fill="#FDB602"/>
<path d="M550.429 502.573C550.289 508.349 544.986 517.521 538.281 515.35C545.773 522.124 553.598 512.042 553.773 504.516L550.429 502.573Z" fill="#FDB602"/>
<path d="M579.889 428.08L576.528 426.155L576.703 486.715L580.047 488.658L579.889 428.08Z" fill="#FDB602"/>
<path d="M524.015 517.311C523.857 523.087 517.906 532.259 510.379 530.088C518.781 536.862 527.551 526.78 527.761 519.254L524.015 517.311Z" fill="#FDB602"/>
<path d="M575.268 422.269C576.231 423.319 576.528 424.79 576.546 426.19L579.889 428.133C580.344 424.755 577.001 422.917 574.463 421.622C574.76 421.797 575.023 422.024 575.268 422.269Z" fill="#FDB602"/>
<path d="M553.597 442.958L550.271 440.98L550.447 502.853L553.772 504.831L553.597 442.958Z" fill="#FDB602"/>
<path d="M548.994 437.532C549.956 438.582 550.254 440.052 550.272 441.453L553.615 443.395C554.07 440.017 550.727 438.18 548.188 436.884C548.486 437.059 548.749 437.287 548.994 437.532Z" fill="#FDB602"/>
<path d="M527.673 519.306L524.015 517.346V455.718L527.673 457.678V519.306Z" fill="#FDB602"/>
<path d="M522.754 452.235C523.717 453.285 524.015 454.755 524.032 456.155L527.376 458.098C527.831 454.72 524.487 452.882 521.949 451.587C522.247 451.762 522.509 451.989 522.754 452.235Z" fill="#FDB602"/>
<path d="M473.584 469.405L476.857 567.982L614.864 488.308L617.577 386.283L473.584 469.405ZM520.444 531.191C516.523 533.449 513.337 531.628 513.337 527.13L513.162 466.447C513.162 461.949 516.313 456.47 520.234 454.212C524.155 451.954 527.341 453.775 527.341 458.255L527.516 518.938C527.516 523.437 524.365 528.915 520.444 531.173V531.191ZM546.701 516.471C542.78 518.728 539.594 516.908 539.594 512.41L539.419 451.727C539.419 447.228 542.57 441.75 546.491 439.492C550.412 437.234 553.598 439.054 553.598 443.553L553.773 504.236C553.773 508.734 550.622 514.213 546.701 516.471ZM572.958 501.225C569.037 503.483 565.851 501.663 565.851 497.165L565.676 436.482C564.433 429.515 578.227 415.88 579.855 428.29L580.03 488.973C580.03 493.472 576.879 498.95 572.958 501.208V501.225Z" fill="#FDB602"/>
<path d="M473.619 469.37L470.258 467.41L473.549 565.987L476.892 567.93L473.619 469.37Z" fill="#FDB602"/>
<path d="M614.251 384.288L470.258 467.41L473.619 469.37L617.612 386.23L614.251 384.288Z" fill="#FDB602"/>
<path d="M716.496 541.553L573.763 621.735L470.626 563.939L615.267 485.578L716.496 541.553Z" fill="#0D0D0D"/>
<path d="M574.184 621.769L574.166 623.502L470.906 565.637V563.904L574.184 621.769Z" fill="#1A2E35"/>
<path d="M712.663 446.144L711.857 543.706L611.136 486.418L611.328 388.541L712.663 446.144Z" fill="#FDB602"/>
<path d="M712.663 445.986L717.914 443.833V542.113L712.663 544.266V445.986Z" fill="#FDB602"/>
<path d="M611.73 387.981L615.441 385.828L717.511 443.833L713.8 445.986L611.73 387.981Z" fill="#FDB602"/>
<path d="M677.881 540.905C677.723 547.241 672.244 557.271 665.312 554.89C673.067 562.294 681.137 551.267 681.329 543.041L677.863 540.905H677.881Z" fill="#FDB602"/>
<path d="M649.961 555.818C649.803 562.277 643.799 572.516 636.22 570.083C644.692 577.644 653.532 566.39 653.759 557.988L649.978 555.818H649.961Z" fill="#FDB602"/>
<path d="M681.014 481.92L677.688 479.959L677.846 541.395L681.189 543.356L681.014 481.92Z" fill="#FDB602"/>
<path d="M625.314 571.623C625.174 577.399 619.87 586.571 613.166 584.4C620.658 591.174 628.483 581.092 628.658 573.566L625.314 571.623Z" fill="#FDB602"/>
<path d="M676.393 476.704C677.356 477.754 677.653 479.224 677.671 480.624L681.014 482.567C681.469 479.189 678.126 477.351 675.588 476.056C675.885 476.231 676.148 476.459 676.393 476.704Z" fill="#FDB602"/>
<path d="M654.494 497.812L649.663 495.87L649.908 556.623L654.757 558.566L654.494 497.812Z" fill="#FDB602"/>
<path d="M648.385 491.966C649.348 493.017 649.646 494.487 649.663 495.887L653.007 497.83C653.462 494.452 650.118 492.614 647.58 491.319C647.878 491.494 648.14 491.721 648.385 491.966Z" fill="#FDB602"/>
<path d="M628.833 573.618L625.332 571.675V510.765L628.833 512.707V573.618Z" fill="#FDB602"/>
<path d="M624.037 506.792C625.017 507.894 625.297 509.417 625.315 510.87L628.658 512.9C629.131 509.452 625.84 507.492 623.231 506.126C623.529 506.301 623.792 506.547 624.037 506.809V506.792Z" fill="#FDB602"/>
<path d="M574.236 523.805L573.396 624.01L715.516 542.708L718.229 440.683L574.236 523.805ZM621.603 585.591C617.682 587.848 614.496 586.028 614.496 581.53L614.321 520.847C613.079 513.88 626.855 500.246 628.5 512.655L628.675 573.338C628.675 577.837 625.524 583.315 621.603 585.573V585.591ZM646.11 570.87C642.189 573.128 639.003 571.308 639.003 566.81L638.828 506.127C638.828 501.628 641.979 496.15 645.9 493.892C649.821 491.634 653.007 493.454 653.007 497.953L653.182 558.636C653.182 563.134 650.031 568.613 646.11 570.87ZM674.117 555.625C670.196 557.883 667.01 556.063 667.01 551.565L666.835 490.881C665.592 483.915 679.386 470.28 681.014 482.69L681.189 543.373C681.189 547.871 678.038 553.35 674.117 555.608V555.625Z" fill="#FDB602"/>
<path d="M574.638 523.805L571.295 521.862L574.043 620.422L577.264 621.909L574.638 523.805Z" fill="#FDB602"/>
<path d="M715.288 438.722L571.295 521.862L574.638 523.805L718.631 440.665L715.288 438.722Z" fill="#FDB602"/>
<path d="M571.61 525.31L573.43 624.115L469.348 565.882L469.558 467.305L571.61 525.31Z" fill="#FDB602"/>
<path d="M571.452 525.24L574.568 522.037L581.29 619.144L573.273 624.045L571.452 525.24Z" fill="#FDB602"/>
<path d="M470.013 467.305L473.724 465.134L575.793 523.157L572.082 525.31L470.013 467.305Z" fill="#FDB602"/>
<path d="M581.29 510.537C581.167 508.945 580.502 507.422 579.557 506.144C579.154 505.601 578.682 505.094 578.156 504.656L567.741 510.59C569.562 512.078 570.822 514.353 570.962 516.716L570.892 516.768C570.524 518.781 571.89 526.115 569.684 527.34C569.929 527.148 581.43 520.724 580.94 520.479C581.797 519.341 581.255 512.06 581.412 510.66L581.307 510.73C581.307 510.73 581.307 510.607 581.307 510.555L581.29 510.537Z" fill="#C58A00"/>
<path d="M566.429 510.135C565.116 511.553 564.171 513.425 564.136 515.386L575.286 521.862C575.321 519.867 576.302 517.924 577.684 516.506L566.481 510.065C566.481 510.065 566.446 510.1 566.411 510.135H566.429Z" fill="#DA9900"/>
<path d="M610.698 374.084L472.167 454.79C470.259 455.91 468.701 458.641 468.701 460.864C469.558 462.982 466.373 475.531 472.219 472.328L610.751 391.622C612.659 390.519 614.199 387.788 614.199 385.566C613.324 383.465 616.527 370.88 610.698 374.066V374.084Z" fill="#D8D8D8"/>
<path d="M699.306 427.748C697.38 429.428 593.228 360.204 596.764 373.488C596.886 378.442 595.591 386.546 601.017 389.329L699.218 446.021C705.538 449.434 703.069 437.97 703.56 435.134C703.56 432.421 701.652 429.078 699.288 427.73L699.306 427.748Z" fill="#D8D8D8"/>
<path d="M608.072 364.929C558.394 393.582 505.075 421.919 457.83 452.515C457.235 453.582 456.814 454.79 456.814 456.033L467.965 462.509C468 460.566 468.928 458.711 470.223 457.293C470.293 457.223 466.057 463.121 466.127 463.051L558.114 513.565C558.236 513.635 560.337 517.258 560.442 517.328C560.494 517.363 559.969 508.822 560.004 508.857C560.057 508.892 566.183 518.151 566.254 518.186C567.094 517.766 571.837 515.368 572.345 514.685C572.713 514.44 703.297 439.65 703.717 439.405V445.601C701.739 445.776 703.087 447.579 701.424 448.366L712.575 441.89C712.767 441.785 712.925 441.645 713.065 441.488C713.888 440.858 713.362 439.65 714.203 439.195C714.203 439.107 714.203 433.051 714.203 432.981C715.831 432.281 719.332 428.815 721.257 429.953C720.469 429.673 609.087 364.894 608.3 364.947M571.365 501.296C571.365 501.296 481.566 449.434 481.549 449.417L608.055 376.394L697.906 428.255L571.365 501.313V501.296Z" fill="white"/>
<path d="M456.727 463.944C455.817 466.675 467.685 471.453 468.98 472.766C468.858 472.696 468.753 472.608 468.648 472.521L547.419 517.836C547.646 518.116 549.922 519.254 550.254 519.464C568.844 529.231 569.492 534.849 588.887 521.687C617.14 505.374 645.392 489.061 673.645 472.748C683.5 464.977 721.677 449.959 722.798 440.14C721.87 437.917 725.248 424.807 719.087 428.168C717.616 429.236 572.958 512.13 571.733 513.443C566.044 510.502 469.838 454.79 461.033 449.749C457.62 447.701 456.29 451.167 456.727 454.107" fill="#EDEDED"/>
<path d="M531.84 333.477L514.23 343.716L514.143 374.066L531.735 369.393L531.84 333.477Z" fill="#0D0D0D"/>
<path d="M638.968 490.934C638.968 491.249 638.863 491.582 638.601 491.739L655.895 481.815C656.175 481.657 656.263 481.307 656.263 481.01L638.968 490.934Z" fill="#3C3C3F"/>
<path d="M639.195 410.962L656.49 400.916L656.262 481.027L638.985 491.056L639.195 410.962Z" fill="#0D0D0D"/>
<path d="M540.242 322.379L522.107 332.916L628.606 394.387L646.723 383.868L540.242 322.379Z" fill="#262626"/>
<path d="M630.268 395.507C634.942 399.445 638.215 405.414 638.355 411.575L656.472 401.038C656.262 394.124 652.271 387.246 646.39 383.587L628.272 394.124C628.973 394.527 629.638 394.999 630.268 395.507Z" fill="#1F1F1F"/>
<path d="M629.34 391.429L523.192 331.428C517.625 328.278 513.092 330.816 513.074 337.064V375.203L514.825 374.503L514.912 343.558C514.912 340.565 517.083 339.34 519.726 340.845L632.561 404.626C643.449 408.127 633.699 484.493 638.267 491.651C640.683 492.282 638.547 409.194 639.353 408.442C639.353 402.176 634.871 394.562 629.305 391.411L629.34 391.429Z" fill="#1F1F1F"/>
<path d="M444.457 63.246L506.756 100.563L570.14 65.1364L507.841 27.8198L444.457 63.246Z" fill="#FDB602"/>
<path d="M506.721 100.562L503.78 285.045L567.217 249.671L570.14 65.1362L506.721 100.562Z" fill="#CC8E02"/>
<path d="M441.517 247.676L503.781 285.045L506.721 100.563L444.457 63.2461L441.517 247.676Z" fill="#EDA107"/>
<path d="M522.021 153.824L584.495 190.808L647.721 155.085L585.23 118.083L522.021 153.824Z" fill="#BFBFBF"/>
<path d="M520.603 294.811L583.077 331.813L584.494 190.808L522.02 153.824L520.603 294.811Z" fill="#D9D9D9"/>
<path d="M584.494 190.808L583.076 331.813L646.303 296.089L647.721 155.084L584.494 190.808Z" fill="#8C8C8C"/>
<path d="M600.091 246.591L663.598 281.807L725.792 244.298L662.285 209.082L600.091 246.591Z" fill="#FDB602"/>
<path d="M601.701 335.261L665.208 370.478L663.598 281.702L600.091 246.486L601.701 335.261Z" fill="#EDA107"/>
<path d="M663.58 281.124L665.208 370.478L727.402 332.969L725.774 243.633L663.58 281.124Z" fill="#CC8E02"/>
<path d="M691.465 76.2335L754.359 112.552L817.183 76.1284L754.289 39.8096L691.465 76.2335Z" fill="#BFBFBF"/>
<path d="M754.359 112.552L754.622 421.499L817.446 385.093L817.184 76.1284L754.359 112.552Z" fill="#8C8C8C"/>
<path d="M691.727 385.198L754.622 421.499L754.359 112.552L691.465 76.2334L691.727 385.198Z" fill="#D9D9D9"/>
<path opacity="0.8" d="M67.477 404.574L323.36 545.718C326.161 547.259 330.222 547.171 332.445 545.491L471.712 440.56C473.917 438.897 473.445 436.289 470.644 434.749L214.761 293.604C211.96 292.064 207.899 292.151 205.676 293.832L66.4092 398.763C64.2037 400.425 64.6763 403.033 67.477 404.574Z" fill="#272623"/>
<path d="M77.4023 362.321L91.4936 369.164L221.028 273.02C223.199 271.41 227.172 271.305 229.92 272.793L474.495 405.431C476.631 403.891 486.468 397.747 486.468 397.747L482.53 412.362H482.512C482.355 413.01 481.952 413.64 481.252 414.165L344.821 515.438C342.65 517.048 338.677 517.153 335.928 515.665L85.647 379.929C84.5267 379.316 83.809 378.529 83.4765 377.706H83.459L77.4199 362.356L77.4023 362.321Z" fill="#0D0F10"/>
<path d="M77.2619 362.793L335.543 502.888C338.379 504.428 342.475 504.323 344.715 502.661L485.505 398.15C487.746 396.487 487.256 393.896 484.437 392.374L226.156 252.279C223.321 250.739 219.225 250.844 216.984 252.507L76.1941 357.017C73.9535 358.68 74.4436 361.271 77.2619 362.793Z" fill="#F5F5F5"/>
<path d="M77.1575 360.238L335.561 501.121C338.397 502.661 342.493 502.556 344.733 500.893L485.523 395.892C486.048 395.49 486.434 395.052 486.661 394.562C487.484 395.91 487.221 397.45 485.716 398.57L344.926 503.571C342.685 505.234 338.589 505.339 335.754 503.799L77.35 362.916C75.1969 361.744 74.4092 359.958 75.1444 358.436C75.547 359.101 76.2297 359.731 77.1575 360.238Z" fill="url(#paint0_linear_1056_20189)"/>
<path d="M237.814 38.5493L483.23 178.276L468.421 375.764L223.163 236.124L237.814 38.5493Z" fill="#434343"/>
<mask id="mask0_1056_20189" style="mask-type:luminance" maskUnits="userSpaceOnUse" x="223" y="38" width="261" height="338">
<path d="M237.814 38.5493L483.23 178.276L468.421 375.764L223.163 236.124L237.814 38.5493Z" fill="white"/>
</mask>
<g mask="url(#mask0_1056_20189)">
<path d="M219.627 244.438L496.603 402.141C499.631 403.873 504.025 403.768 506.423 401.913L656.77 285.43C659.151 283.575 658.643 280.687 655.598 278.954L378.622 121.251C375.593 119.518 371.2 119.623 368.802 121.479L218.454 237.962C216.074 239.817 216.581 242.705 219.627 244.438Z" fill="#434343"/>
<path d="M277.234 235.879L477.75 350.051L470.521 355.635L270.005 241.48L277.234 235.879Z" fill="#434343"/>
<path d="M296.454 220.984L487.045 329.503L479.815 335.104L289.225 226.585L296.454 220.984Z" fill="#434343"/>
<path d="M487.447 355.565L499.858 362.636L492.629 368.22L480.235 361.166L487.447 355.565Z" fill="#434343"/>
<path d="M308.498 211.655L531.104 338.412L523.893 344.013L301.269 217.256L308.498 211.655Z" fill="#434343"/>
<path d="M320.541 202.326L543.147 329.083L535.918 334.684L313.312 207.927L320.541 202.326Z" fill="#434343"/>
<path d="M332.584 192.997L555.19 319.754L547.961 325.337L325.354 198.598L332.584 192.997Z" fill="#434343"/>
</g>
<path d="M223.391 242.162L239.705 34.0859L237.132 33.0882L240.703 30.4103C241.386 29.8502 242.419 29.7976 243.591 30.4628L502.1 173.06C504.218 174.233 506.004 177.489 505.811 179.886L489.357 389.626C489.269 390.711 488.849 391.464 488.201 391.831L484.718 394.457L483.825 390.676L484.035 390.728L227.085 248.989C224.967 247.816 223.181 244.56 223.374 242.162H223.391Z" fill="#0D0F10"/>
<path d="M501.137 178.784L505.058 176.474C505.601 177.611 505.916 178.819 505.829 179.869L489.374 389.609C489.287 390.694 488.867 391.446 488.219 391.814L484.736 394.439L483.843 390.659L484.053 390.711L471.047 383.535L501.137 178.767V178.784Z" fill="#0D0F10"/>
<path d="M223.409 251.754L481.917 394.352C483.913 395.454 485.488 394.614 485.681 392.374L502.135 182.634C502.328 180.254 500.542 176.981 498.424 175.808L239.898 33.2282C237.903 32.1255 236.327 32.9656 236.135 35.1885L219.68 244.928C219.488 247.308 221.273 250.581 223.391 251.754H223.409Z" fill="#F5F5F5"/>
<path d="M223.409 251.754L481.917 394.352C483.913 395.454 485.488 394.614 485.681 392.374L502.135 182.634C502.328 180.254 500.542 176.981 498.424 175.808L239.898 33.2282C237.903 32.1255 236.327 32.9656 236.135 35.1885L219.68 244.928C219.488 247.308 221.273 250.581 223.391 251.754H223.409Z" fill="#F5F5F5"/>
<path d="M241.141 44.6226L496.481 185.487L480.797 383.027L225.632 242.25L241.141 44.6226Z" fill="#1F1F1F"/>
<path d="M323.921 162.373C323.561 159.044 322.825 155.654 321.761 152.31C321.761 152.31 321.761 152.279 321.761 152.263C321.573 151.685 321.37 151.091 321.166 150.513C321.104 150.357 321.057 150.217 321.01 150.076C320.775 149.451 320.54 148.81 320.29 148.185C320.024 147.498 319.726 146.826 319.429 146.138C319.132 145.467 318.819 144.795 318.49 144.123C318.177 143.467 317.833 142.795 317.488 142.139C317.128 141.482 316.768 140.81 316.408 140.17C316.033 139.514 315.641 138.873 315.266 138.232C314.483 136.951 313.654 135.701 312.777 134.482C312.339 133.873 311.901 133.279 311.462 132.717C310.586 131.576 309.678 130.451 308.739 129.404C308.489 129.123 308.223 128.842 307.972 128.545C307.722 128.279 307.487 128.03 307.237 127.764C306.939 127.451 306.642 127.155 306.344 126.858C306.063 126.576 305.765 126.295 305.468 125.998C305.39 125.92 305.296 125.842 305.217 125.78C305.155 125.701 305.077 125.639 304.998 125.561C304.732 125.326 304.482 125.092 304.231 124.873C304.184 124.826 304.138 124.78 304.091 124.748C303.887 124.545 303.668 124.373 303.449 124.186C303.292 124.061 303.136 123.92 302.964 123.795C302.87 123.717 302.776 123.639 302.666 123.545C302.369 123.311 302.072 123.076 301.774 122.842C301.242 122.436 300.741 122.061 300.209 121.686C299.943 121.498 299.693 121.327 299.442 121.155C299.082 120.92 298.738 120.702 298.378 120.467C297.987 120.217 297.611 119.983 297.204 119.748C296.014 119.061 294.809 118.452 293.635 117.952C292.368 117.405 291.116 116.983 289.91 116.67C277.89 113.545 269.611 121.67 270.049 136.404C270.08 137.389 270.143 138.389 270.252 139.42C270.409 140.982 270.675 142.576 271.004 144.154C271.223 145.185 271.457 146.201 271.755 147.232C272.177 148.795 272.678 150.373 273.273 151.951C276.732 161.388 282.711 170.341 289.738 176.685C290.521 177.388 291.319 178.075 292.133 178.7C292.462 178.966 292.79 179.232 293.119 179.466C294.434 180.45 295.748 181.325 297.094 182.106C298.785 183.091 300.444 183.856 302.072 184.435C302.338 184.528 302.604 184.622 302.87 184.716C303.105 184.794 303.324 184.856 303.558 184.919C303.856 185.013 304.153 185.091 304.451 185.153C304.623 185.216 304.779 185.247 304.936 185.278C305.891 185.497 306.83 185.653 307.722 185.716C308.05 185.731 308.363 185.747 308.708 185.763H309.662C309.976 185.747 310.289 185.731 310.602 185.716C311.228 185.684 311.838 185.591 312.417 185.45C314.499 185.028 316.361 184.138 317.942 182.841C318.631 182.294 319.272 181.685 319.836 180.966C320.446 180.247 320.978 179.45 321.479 178.575C321.964 177.732 322.371 176.81 322.731 175.81C322.841 175.528 322.935 175.232 323.029 174.935C323.029 174.888 323.06 174.841 323.076 174.794C324.14 171.341 324.484 167.154 323.983 162.388L323.921 162.373ZM298.613 165.607C291.992 162.779 285.919 153.888 285.074 145.763C284.229 137.623 288.893 133.326 295.514 136.17C296.907 136.764 298.253 137.623 299.552 138.686C300.115 139.139 300.663 139.639 301.195 140.17C304.231 143.185 306.751 147.295 308.097 151.529C308.583 153.029 308.911 154.545 309.068 156.029C309.302 158.169 309.13 160.029 308.661 161.56C307.346 165.919 303.511 167.701 298.613 165.607Z" fill="#8C8C8C"/>
<path d="M306.298 126.873L301.196 140.154C300.664 139.623 300.116 139.123 299.552 138.67C298.253 137.607 296.907 136.748 295.514 136.154C288.894 133.326 284.214 137.623 285.075 145.748L270.222 139.389C268.484 122.873 277.14 113.374 289.864 116.639C291.069 116.952 292.321 117.373 293.589 117.92C294.779 118.42 295.968 119.03 297.158 119.717C297.549 119.952 297.94 120.186 298.332 120.436C298.692 120.67 299.036 120.889 299.396 121.123C299.662 121.295 299.912 121.467 300.163 121.655C300.679 122.03 301.196 122.405 301.728 122.811C302.025 123.045 302.323 123.28 302.62 123.514C302.73 123.592 302.823 123.686 302.917 123.764C303.293 124.076 303.653 124.389 304.029 124.717C304.076 124.748 304.123 124.795 304.17 124.842C304.498 125.139 304.827 125.451 305.156 125.748C305.547 126.108 305.907 126.451 306.282 126.826L306.298 126.873Z" fill="#FDB602"/>
<path d="M321.762 152.31L308.114 151.529C306.768 147.279 304.248 143.186 301.212 140.17C300.68 139.639 300.132 139.139 299.568 138.686L302.636 123.561C302.746 123.639 302.839 123.733 302.933 123.811C303.09 123.936 303.246 124.077 303.419 124.202C303.638 124.389 303.857 124.577 304.06 124.764C304.107 124.795 304.154 124.842 304.201 124.889C304.467 125.123 304.718 125.342 304.968 125.577C305.109 125.717 305.281 125.858 305.438 126.014C305.735 126.295 306.032 126.592 306.314 126.873C306.627 127.17 306.925 127.467 307.206 127.78C307.457 128.045 307.691 128.295 307.942 128.561C308.208 128.842 308.458 129.139 308.709 129.42C309.648 130.483 310.556 131.592 311.432 132.733C311.87 133.295 312.324 133.905 312.747 134.498C313.185 135.108 313.592 135.717 314.015 136.342C314.437 136.967 314.828 137.608 315.235 138.233C315.627 138.858 316.002 139.514 316.378 140.17C316.738 140.811 317.114 141.483 317.458 142.139C317.802 142.795 318.147 143.467 318.46 144.123C318.788 144.795 319.101 145.467 319.399 146.139C319.712 146.826 319.993 147.498 320.259 148.186C320.51 148.795 320.745 149.435 320.979 150.076C321.042 150.217 321.089 150.357 321.136 150.514C321.339 151.092 321.527 151.67 321.731 152.264C321.731 152.264 321.731 152.295 321.731 152.31H321.762Z" fill="#828282"/>
<path d="M323.014 174.779C323.014 174.779 322.983 174.872 322.967 174.919C322.873 175.216 322.779 175.513 322.67 175.794C322.31 176.794 321.903 177.716 321.417 178.56C320.932 179.435 320.384 180.232 319.774 180.95C319.195 181.653 318.553 182.263 317.88 182.825C316.284 184.122 314.421 184.997 312.355 185.435C311.761 185.56 311.166 185.638 310.54 185.7C310.227 185.716 309.914 185.731 309.601 185.747H308.646C308.317 185.731 308.004 185.716 307.66 185.7C306.752 185.622 305.813 185.481 304.874 185.263C304.717 185.231 304.561 185.2 304.389 185.138C304.091 185.075 303.794 184.997 303.497 184.903C303.262 184.841 303.043 184.778 302.808 184.7C302.542 184.622 302.276 184.528 302.01 184.419C300.398 183.841 298.739 183.075 297.033 182.091C295.671 181.31 294.356 180.435 293.057 179.45C292.728 179.216 292.4 178.95 292.071 178.685C291.257 178.044 290.475 177.372 289.676 176.669C282.633 170.294 276.686 161.31 273.211 151.935C272.648 150.373 272.131 148.795 271.693 147.217C271.411 146.185 271.161 145.17 270.942 144.139C270.613 142.56 270.347 140.967 270.19 139.404L285.044 145.764C285.889 153.888 291.962 162.779 298.582 165.607C303.481 167.701 307.316 165.919 308.63 161.56L322.983 174.779H323.014Z" fill="#666666"/>
<path d="M394.087 202.809C393.711 199.262 392.897 195.653 391.724 192.106C391.505 191.45 391.285 190.809 391.035 190.168C390.957 189.934 390.863 189.7 390.769 189.481C390.612 189.028 390.409 188.559 390.221 188.09C390.002 187.543 389.767 186.997 389.517 186.45C389.423 186.231 389.329 186.012 389.219 185.793C388.953 185.184 388.656 184.59 388.374 183.997C388.061 183.387 387.764 182.794 387.435 182.184C387.153 181.653 386.856 181.122 386.543 180.59C386.418 180.372 386.308 180.169 386.167 179.934C385.854 179.403 385.557 178.887 385.228 178.372C384.868 177.809 384.524 177.262 384.148 176.7C384.117 176.637 384.07 176.591 384.039 176.528C383.694 176.012 383.35 175.512 382.99 175.028C382.834 174.794 382.677 174.575 382.505 174.356C382.301 174.075 382.082 173.794 381.863 173.497C381.675 173.231 381.472 172.966 381.253 172.7C380.893 172.231 380.502 171.763 380.11 171.294C379.656 170.747 379.187 170.216 378.717 169.7C378.248 169.169 377.778 168.653 377.277 168.153C377.011 167.888 376.745 167.591 376.464 167.325C376.26 167.106 376.041 166.903 375.822 166.7C375.681 166.575 375.556 166.434 375.415 166.325C375.399 166.294 375.368 166.278 375.352 166.263C375.039 165.95 374.726 165.669 374.413 165.388C374.351 165.325 374.288 165.278 374.225 165.231C374.084 165.106 373.959 164.997 373.834 164.888C373.599 164.669 373.365 164.481 373.13 164.278C373.083 164.231 373.02 164.2 372.989 164.153C372.926 164.106 372.879 164.075 372.832 164.028C372.535 163.794 372.238 163.56 371.94 163.325C371.408 162.919 370.876 162.513 370.344 162.138C370.109 161.966 369.859 161.794 369.624 161.638C369.264 161.388 368.904 161.153 368.544 160.935C368.153 160.685 367.761 160.45 367.37 160.216L367.229 160.138C366.854 159.919 366.478 159.716 366.102 159.528C365.946 159.435 365.774 159.357 365.601 159.263C365.288 159.091 364.991 158.95 364.678 158.81C364.475 158.716 364.255 158.622 364.052 158.528C363.692 158.372 363.316 158.216 362.956 158.075C362.628 157.935 362.315 157.825 361.986 157.716C361.892 157.669 361.814 157.653 361.72 157.638C361.313 157.497 360.906 157.372 360.515 157.263C348.995 154.013 340.794 160.966 340.215 174.184C340.199 174.716 340.184 175.231 340.184 175.762C340.184 175.919 340.184 176.091 340.184 176.247C340.184 176.747 340.215 177.247 340.231 177.747C340.246 178.137 340.278 178.528 340.309 178.934C340.34 179.247 340.34 179.559 340.371 179.872C340.403 180.153 340.434 180.434 340.481 180.715C340.481 180.809 340.497 180.919 340.512 180.997C340.653 182.028 340.825 183.075 341.044 184.122C341.107 184.481 341.185 184.84 341.279 185.2C341.514 186.278 341.78 187.372 342.109 188.45C343.048 191.762 344.331 195.059 345.896 198.246C346.069 198.606 346.256 198.965 346.413 199.309C346.601 199.668 346.773 200.012 346.976 200.371C347.352 201.074 347.743 201.777 348.15 202.481C348.338 202.824 348.541 203.168 348.761 203.512C348.761 203.512 348.761 203.527 348.776 203.559C349.183 204.246 349.606 204.902 350.044 205.559C350.498 206.246 350.952 206.918 351.437 207.59C351.672 207.918 351.891 208.23 352.126 208.559C352.173 208.621 352.235 208.699 352.266 208.762C352.454 209.012 352.658 209.277 352.846 209.512C352.877 209.559 352.924 209.621 352.971 209.684C353.253 210.059 353.534 210.418 353.832 210.777C354.098 211.121 354.379 211.449 354.661 211.777C355.099 212.293 355.538 212.793 355.976 213.293C356.148 213.48 356.336 213.683 356.508 213.871C356.821 214.199 357.118 214.512 357.431 214.84C357.744 215.152 358.057 215.465 358.37 215.777C358.684 216.074 358.997 216.387 359.31 216.668C359.623 216.965 359.951 217.262 360.264 217.527C360.906 218.09 361.563 218.636 362.221 219.168C362.409 219.308 362.581 219.449 362.769 219.59C363.254 219.98 363.755 220.34 364.255 220.699C364.553 220.902 364.85 221.105 365.148 221.308C365.836 221.761 366.525 222.199 367.214 222.59H367.245C367.636 222.84 368.043 223.058 368.434 223.261C369.201 223.668 369.968 224.027 370.735 224.355C371.111 224.511 371.486 224.668 371.846 224.808C371.878 224.824 371.925 224.839 371.956 224.855C372.285 224.98 372.613 225.105 372.942 225.199C373.302 225.324 373.631 225.433 373.991 225.511C374.257 225.589 374.507 225.668 374.757 225.714C374.836 225.746 374.93 225.777 375.024 225.793C375.368 225.871 375.712 225.949 376.057 225.996C376.119 226.027 376.197 226.027 376.291 226.043C376.604 226.105 376.917 226.136 377.23 226.168C377.293 226.183 377.356 226.199 377.418 226.199C377.794 226.23 378.17 226.261 378.545 226.277C378.936 226.277 379.312 226.308 379.703 226.277C380.095 226.277 380.47 226.261 380.846 226.214C381.159 226.199 381.456 226.136 381.754 226.105C383.272 225.871 384.696 225.386 386.027 224.683C391.974 221.496 395.214 213.699 394.071 202.871L394.087 202.809ZM368.794 206.059C365.899 204.824 363.113 202.434 360.812 199.449C360.703 199.309 360.593 199.168 360.499 199.028C357.713 195.262 355.725 190.637 355.256 186.215C354.395 178.075 359.075 173.778 365.695 176.622C367.088 177.216 368.434 178.075 369.733 179.137C370.297 179.59 370.845 180.09 371.361 180.606C374.335 183.575 376.808 187.543 378.17 191.7C378.702 193.293 379.062 194.903 379.234 196.481C379.75 201.324 378.295 204.809 375.634 206.231C373.834 207.199 371.471 207.23 368.779 206.074L368.794 206.059Z" fill="#8C8C8C"/>
<path d="M376.464 167.31L371.361 180.591C370.845 180.06 370.297 179.575 369.733 179.122C368.434 178.06 367.088 177.2 365.695 176.606C359.075 173.778 354.379 178.06 355.256 186.2C355.725 190.606 357.713 195.231 360.499 199.012C360.609 199.153 360.703 199.293 360.812 199.434L352.861 209.481L352.846 209.434C352.611 209.137 352.36 208.825 352.141 208.496C351.907 208.184 351.672 207.871 351.453 207.543C350.967 206.871 350.514 206.2 350.06 205.512C349.621 204.856 349.214 204.2 348.792 203.512C348.792 203.497 348.776 203.481 348.776 203.465C348.557 203.122 348.354 202.778 348.166 202.434C347.759 201.747 347.368 201.028 346.992 200.325C346.804 199.965 346.616 199.606 346.429 199.262C346.256 198.918 346.069 198.559 345.912 198.2C344.347 194.965 343.063 191.684 342.124 188.403C341.811 187.325 341.53 186.231 341.295 185.153C341.217 184.794 341.138 184.434 341.06 184.075C340.857 183.028 340.669 181.997 340.528 180.95C340.528 180.872 340.512 180.763 340.497 180.669C340.293 178.997 340.184 177.325 340.184 175.716C340.184 175.185 340.184 174.653 340.215 174.138C340.825 160.747 349.308 154.107 360.515 157.216C360.906 157.31 361.313 157.435 361.72 157.591C361.814 157.623 361.892 157.638 361.986 157.669C362.299 157.779 362.628 157.888 362.956 158.029C363.316 158.154 363.692 158.31 364.052 158.482C364.255 158.576 364.475 158.669 364.678 158.763C364.991 158.904 365.288 159.044 365.601 159.216C365.774 159.294 365.946 159.388 366.102 159.482C366.478 159.669 366.854 159.872 367.229 160.091L367.37 160.169C367.761 160.388 368.153 160.638 368.544 160.888C368.904 161.107 369.264 161.341 369.624 161.591C369.859 161.763 370.109 161.919 370.344 162.091C370.876 162.466 371.408 162.872 371.94 163.279C372.238 163.513 372.535 163.747 372.832 163.982C372.895 164.029 372.942 164.06 372.989 164.107C373.036 164.154 373.098 164.185 373.13 164.232C373.365 164.435 373.599 164.622 373.834 164.841C373.975 164.966 374.1 165.075 374.225 165.185C374.554 165.482 374.867 165.763 375.196 166.075C375.258 166.122 375.305 166.154 375.352 166.216C375.368 166.216 375.399 166.263 375.415 166.279C375.697 166.544 375.978 166.81 376.26 167.091C376.323 167.138 376.385 167.216 376.464 167.294V167.31Z" fill="#FDB602"/>
<path d="M391.724 192.106L378.185 191.684C376.823 187.544 374.351 183.56 371.377 180.591C370.86 180.06 370.312 179.575 369.749 179.122L372.817 163.998C372.817 163.998 372.926 164.076 372.973 164.123C373.02 164.169 373.083 164.201 373.114 164.248C373.349 164.451 373.584 164.638 373.818 164.857C373.959 164.982 374.084 165.091 374.21 165.201C374.272 165.248 374.319 165.294 374.397 165.357C374.664 165.591 374.93 165.826 375.18 166.091C375.243 166.138 375.29 166.169 375.337 166.232C375.352 166.232 375.383 166.279 375.399 166.294C375.54 166.419 375.665 166.544 375.806 166.669C375.947 166.81 376.103 166.951 376.244 167.107C376.307 167.154 376.385 167.232 376.448 167.31C376.73 167.576 377.011 167.872 377.262 168.138C377.747 168.638 378.232 169.154 378.702 169.685C379.171 170.201 379.641 170.732 380.095 171.279C380.486 171.732 380.862 172.216 381.237 172.685C381.456 172.95 381.66 173.216 381.848 173.482C382.067 173.763 382.286 174.044 382.489 174.341C382.646 174.544 382.802 174.779 382.974 175.013C383.334 175.497 383.679 175.997 384.023 176.513C384.054 176.575 384.101 176.622 384.133 176.685C384.508 177.247 384.868 177.794 385.213 178.357C385.541 178.872 385.854 179.388 386.152 179.919C386.293 180.138 386.402 180.357 386.527 180.575C386.84 181.107 387.138 181.638 387.419 182.169C387.748 182.778 388.061 183.372 388.358 183.981C388.656 184.591 388.938 185.185 389.204 185.778C389.313 185.997 389.407 186.216 389.501 186.435C389.751 186.981 389.986 187.528 390.205 188.075C390.393 188.544 390.597 189.013 390.753 189.466C390.863 189.7 390.941 189.934 391.019 190.153C391.254 190.809 391.489 191.45 391.708 192.091L391.724 192.106Z" fill="#828282"/>
<path d="M386.043 224.605C384.728 225.309 383.303 225.793 381.77 226.027C381.457 226.059 381.159 226.105 380.862 226.137C380.486 226.183 380.111 226.199 379.719 226.199C379.328 226.199 378.952 226.199 378.561 226.199C378.186 226.184 377.81 226.152 377.434 226.121C377.372 226.121 377.309 226.121 377.246 226.09C376.933 226.058 376.62 226.012 376.307 225.965C376.229 225.965 376.151 225.965 376.073 225.918C375.728 225.871 375.384 225.793 375.04 225.715C374.946 225.715 374.852 225.668 374.773 225.637C374.507 225.59 374.257 225.527 374.007 225.434C373.647 225.355 373.318 225.246 372.958 225.121C372.645 225.027 372.316 224.902 371.972 224.777C371.941 224.777 371.894 224.762 371.862 224.73C371.502 224.605 371.127 224.449 370.751 224.277C369.984 223.949 369.233 223.59 368.45 223.184C368.059 222.98 367.652 222.762 367.261 222.527H367.23C366.541 222.121 365.852 221.684 365.164 221.23C364.866 221.027 364.569 220.84 364.271 220.621C363.771 220.262 363.27 219.902 362.785 219.512C362.597 219.387 362.425 219.231 362.237 219.09C361.579 218.559 360.922 218.027 360.28 217.449C359.967 217.168 359.639 216.887 359.326 216.59C359.013 216.309 358.684 215.981 358.386 215.699C358.073 215.387 357.745 215.074 357.447 214.762C357.134 214.434 356.837 214.121 356.524 213.793C356.336 213.59 356.164 213.403 355.992 213.215C355.554 212.731 355.1 212.215 354.677 211.699C354.395 211.371 354.114 211.043 353.848 210.699C353.55 210.34 353.269 209.981 352.987 209.606C352.94 209.559 352.893 209.481 352.862 209.434L352.846 209.387C352.658 209.153 352.47 208.903 352.282 208.668C352.236 208.606 352.173 208.528 352.142 208.465L360.499 198.965C360.609 199.106 360.703 199.247 360.812 199.387C363.113 202.372 365.899 204.778 368.795 205.996C371.487 207.153 373.834 207.121 375.65 206.153L386.043 224.559V224.605Z" fill="#666666"/>
<path d="M408.235 195.95L404.291 193.684V189.138L408.235 191.403V195.95Z" fill="#0D0F10"/>
<path d="M408.235 202.715L404.291 200.45V195.918L408.235 198.184V202.715Z" fill="#FDB602"/>
<path d="M408.235 209.496L404.291 207.231V202.7L408.235 204.965V209.496Z" fill="#EAEAEA"/>
<path d="M408.235 216.278L404.291 214.012V209.465L408.235 211.731V216.278Z" fill="#666666"/>
<path d="M436.345 208.606L414.59 196.075V195.075L436.345 207.621V208.606Z" fill="#FDB602"/>
<path d="M436.345 211.606L414.59 199.059V198.059L436.345 210.606V211.606Z" fill="#FDB602"/>
<path d="M436.345 214.59L414.59 202.043V201.059L436.345 213.59V214.59Z" fill="#FDB602"/>
<path d="M436.002 217.371L414.246 204.84V203.84L436.002 216.371V217.371Z" fill="#FDB602"/>
<path d="M436.345 221.715L414.59 209.184V208.184L436.345 220.731V221.715Z" fill="#FDB602"/>
<path d="M436.345 224.715L414.59 212.168V211.168L436.345 223.715V224.715Z" fill="#FDB602"/>
<path d="M436.345 227.699L414.59 215.168V214.168L436.345 226.699V227.699Z" fill="#FDB602"/>
<path d="M436.002 230.48L414.246 217.949V216.949L436.002 229.48V230.48Z" fill="#FDB602"/>
<path d="M316.253 208.84L270.019 182.184V178.528L316.253 205.184V208.84Z" fill="#FDB602"/>
<path d="M335.41 232.121L270.019 194.419V190.7L335.41 228.403V232.121Z" fill="#FDB602"/>
<path d="M335.41 239.324L270.019 201.638V197.919L335.41 235.621V239.324Z" fill="#FDB602"/>
<path d="M335.41 246.543L270.019 208.84V205.137L335.41 242.824V246.543Z" fill="#FDB602"/>
<path d="M335.41 253.761L270.019 216.059V212.34L335.41 250.043V253.761Z" fill="#FDB602"/>
<path d="M335.41 260.964L270.019 223.278V219.559L335.41 257.261V260.964Z" fill="#FDB602"/>
<path d="M436.987 290.667L371.596 252.964V249.246L436.987 286.948V290.667Z" fill="#FDB602"/>
<path d="M436.987 297.885L371.596 260.183V256.464L436.987 294.167V297.885Z" fill="#FDB602"/>
<path d="M436.987 305.088L371.596 267.401V263.683L436.987 301.369V305.088Z" fill="#FDB602"/>
<path d="M436.987 312.307L371.596 274.604V270.901L436.987 308.588V312.307Z" fill="#FDB602"/>
<path d="M436.987 319.525L371.596 281.823V278.104L436.987 315.807V319.525Z" fill="#FDB602"/>
<path d="M436.987 250.167L399.596 228.621V224.902L436.987 246.449V250.167Z" fill="#FDB602"/>
<path d="M436.987 257.386L399.596 235.824V232.121L436.987 253.668V257.386Z" fill="#FDB602"/>
<path d="M436.987 264.589L399.596 243.042V239.324L436.987 260.886V264.589Z" fill="#FDB602"/>
<path d="M436.987 271.808L399.596 250.261V246.542L436.987 268.089V271.808Z" fill="#FDB602"/>
<path d="M436.987 279.026L399.596 257.464V253.761L436.987 275.308V279.026Z" fill="#FDB602"/>
<path d="M364.334 277.636L341.858 264.683V232.121L364.334 245.074V277.636Z" fill="#FDB602"/>
<path d="M207.952 281.299L392.644 383.184L400.136 377.548L215.444 275.663L207.952 281.299Z" fill="#BFBFBF"/>
<path d="M189.59 295.144L362.833 390.711L370.325 385.058L197.082 289.491L189.59 295.144Z" fill="#BFBFBF"/>
<path d="M177.616 304.158L381.598 416.668L389.09 411.032L185.108 298.505L177.616 304.158Z" fill="#BFBFBF"/>
<path d="M165.66 313.155L369.642 425.682L377.134 420.046L173.152 307.519L165.66 313.155Z" fill="#BFBFBF"/>
<path d="M153.705 322.169L357.669 434.696L365.161 429.043L161.197 316.533L153.705 322.169Z" fill="#BFBFBF"/>
<path d="M403.812 389.346L412.021 393.879L419.513 388.226L411.304 383.692L403.812 389.346Z" fill="#BFBFBF"/>
<path d="M376.609 398.307L393.659 407.707L401.151 402.071L384.101 392.671L376.609 398.307Z" fill="#BFBFBF"/>
<path d="M495.702 524.12C500.618 518.713 509.43 521.218 513.219 523.146C515.742 525.069 521.698 529.795 525.381 533.298C529.98 537.671 534.399 548.944 534.96 555.348C535.52 561.752 533.906 567.366 528.604 572.21C523.303 577.054 513.752 574.989 508.826 574.092C503.9 573.195 499.419 568.029 499.775 565.274C500.243 561.588 501.338 558.301 501.203 555.156C501.1 552.649 498.01 546.512 496.48 543.758C494.17 539.465 490.789 529.536 495.702 524.12Z" fill="#EDEDED"/>
<path fill-rule="evenodd" clip-rule="evenodd" d="M494.337 522.848C499.627 517.039 509.105 519.713 513.31 521.852L513.533 521.961L513.745 522.122C516.281 524.057 522.346 528.86 526.153 532.488C527.582 533.846 528.865 535.605 530.005 537.483C531.152 539.381 532.201 541.507 533.107 543.66C534.907 547.953 536.218 552.553 536.508 555.949C537.096 562.68 535.377 568.53 529.913 573.516C524.549 578.403 515.158 576.663 510.098 575.73C509.816 575.674 509.544 575.62 509.295 575.58C506.354 575.05 503.514 573.228 501.452 571.093C499.447 569.016 497.973 566.411 498.223 564.424C498.399 563.01 498.675 561.643 498.931 560.364C499.014 559.94 499.098 559.516 499.177 559.11C499.489 557.438 499.711 555.932 499.655 554.499C499.643 554.075 499.484 553.392 499.177 552.477C498.875 551.583 498.456 550.554 497.98 549.497C497.036 547.373 495.91 545.214 495.172 543.893L495.166 543.873L495.16 543.854C492.707 539.284 489.047 528.685 494.348 522.85L494.337 522.848ZM512.914 524.333C509.423 522.629 501.515 520.478 497.052 525.379C492.52 530.357 495.631 539.608 497.789 543.634C498.581 545.066 499.771 547.339 500.776 549.594C501.286 550.732 501.753 551.88 502.104 552.931C502.448 553.963 502.716 554.989 502.749 555.812C502.815 557.513 502.553 559.222 502.244 560.903C502.157 561.345 502.07 561.786 501.993 562.229C501.743 563.501 501.494 564.772 501.323 566.114C501.23 566.894 501.818 568.249 503.192 569.669C504.509 571.032 506.374 572.247 508.356 572.604C508.577 572.648 508.819 572.696 509.057 572.734C514.188 573.682 522.562 575.219 527.295 570.904C532.447 566.214 533.946 560.834 533.413 554.756C533.153 551.75 531.963 547.505 530.274 543.472C529.431 541.46 528.477 539.546 527.488 537.909C526.48 536.241 525.498 534.954 524.621 534.119C521.168 530.836 515.533 526.349 512.93 524.354L512.914 524.333Z" fill="#0D0F10"/>
<path d="M525.516 544.479C518.313 538.405 515.729 527.295 516.45 523.724C521.926 523.107 534.668 532.705 539.147 537.834C546.021 545.705 546.584 553.523 548.072 558.8C542.807 555.752 532.722 550.563 525.519 544.489L525.516 544.479Z" fill="#FDB602"/>
<path fill-rule="evenodd" clip-rule="evenodd" d="M528.549 527.498C533.119 530.553 537.659 534.41 540.126 537.231C543.88 541.527 545.873 545.777 547.118 549.538C547.738 551.413 548.179 553.198 548.545 554.803C548.631 555.196 548.722 555.572 548.802 555.945C549.068 557.118 549.305 558.165 549.571 559.126C549.708 559.621 549.585 560.037 549.235 560.215C548.886 560.393 548.364 560.326 547.843 560.02C546.944 559.502 545.854 558.891 544.625 558.197C542.446 556.975 539.865 555.526 537.264 553.981C533.136 551.517 528.66 548.609 524.877 545.416C520.722 541.911 518.069 537.127 516.552 532.982C515.032 528.827 514.492 524.876 514.906 522.811C514.977 522.468 515.222 522.26 515.585 522.213C517.288 522.019 519.445 522.632 521.635 523.59C523.848 524.563 526.228 525.944 528.536 527.486L528.549 527.498ZM518.199 528.787C518.453 530.159 518.871 531.718 519.464 533.359C520.859 537.178 523.098 540.981 526.156 543.552C529.577 546.434 533.741 549.161 537.776 551.569C540.347 553.108 542.732 554.445 544.838 555.616C545.24 555.842 545.639 556.059 546.021 556.282C545.931 555.879 545.832 555.474 545.739 555.061C545.655 554.705 545.581 554.351 545.496 553.994C545.127 552.407 544.719 550.758 544.155 549.031C543.026 545.605 541.294 542.004 538.174 538.429C536.164 536.131 532.094 532.624 527.799 529.752C525.669 528.328 523.568 527.112 521.708 526.302C520.645 525.833 519.695 525.516 518.897 525.348C519.28 525.966 519.657 526.591 520.047 527.228C523.462 532.87 527.524 539.577 538.537 546.868C539.371 547.419 539.89 548.375 539.693 549.006C539.496 549.636 538.657 549.699 537.822 549.147C526.525 541.671 521.586 534.341 518.199 528.787Z" fill="#0D0F10"/>
<path d="M512.635 516.066C508.903 514.26 509.993 518.697 511 521.135L515.658 523.126C516.21 521.529 516.37 517.883 512.625 516.064L512.635 516.066Z" fill="#F5F5F5"/>
<path fill-rule="evenodd" clip-rule="evenodd" d="M512.056 520.235L514.356 521.216C514.434 520.626 514.42 519.953 514.246 519.313C514.115 518.838 513.926 518.479 513.708 518.206C513.509 517.965 513.187 517.662 512.574 517.366C511.972 517.072 511.824 517.144 511.8 517.157C511.735 517.19 511.607 517.321 511.584 517.756C511.552 518.401 511.751 519.331 512.049 520.216L512.056 520.235ZM509.516 514.318C510.311 513.935 511.429 514.13 512.691 514.747C513.949 515.356 515.005 516.189 515.81 517.184C516.599 518.158 517.036 519.153 517.26 520.014C517.708 521.699 517.474 523.23 517.165 524.132L516.874 524.973L510.002 522.037L509.575 521.017C509.026 519.697 508.399 517.71 508.476 516.221C508.521 515.468 508.753 514.68 509.506 514.316L509.516 514.318ZM527.827 561.203C528.665 561.764 529.164 562.717 528.957 563.345C528.66 564.259 527.996 565.622 526.96 566.883C525.935 568.147 524.492 569.374 522.579 569.892C519.075 570.837 515.166 570.977 513.601 570.923C512.829 570.897 511.9 570.199 511.523 569.363C511.145 568.526 511.465 567.865 512.23 567.898C513.623 567.946 517.31 567.817 520.579 566.935C522.059 566.541 523.273 565.544 524.197 564.407C525.124 563.28 525.703 562.065 525.94 561.323C526.15 560.705 526.993 560.652 527.817 561.201L527.827 561.203Z" fill="#0D0F10"/>
<path d="M522.213 398.727C522.213 385.092 531.84 379.614 543.726 386.458C555.612 393.319 565.239 409.929 565.239 423.564C565.239 435.116 558.325 440.822 548.977 438.109L543.726 445.513L538.475 432.036C529.127 423.949 522.213 410.262 522.213 398.71V398.727Z" fill="#F0F0F0"/>
<path d="M540.505 411.452C540.505 413.5 541.958 415.985 543.726 417.018C545.511 418.051 546.947 417.228 546.947 415.18C546.947 413.132 545.494 410.647 543.726 409.614C541.94 408.582 540.505 409.404 540.505 411.452Z" fill="#FDB602"/>
<path d="M530.09 405.431C530.09 407.479 531.543 409.964 533.311 410.997C535.096 412.03 536.532 411.207 536.532 409.159C536.532 407.111 535.079 404.626 533.311 403.593C531.525 402.561 530.09 403.383 530.09 405.431Z" fill="#FDB602"/>
<path d="M557.362 421.184C557.362 423.231 555.909 424.054 554.141 423.021C552.355 421.989 550.92 419.503 550.92 417.455C550.92 415.408 552.373 414.585 554.141 415.618C555.926 416.65 557.362 419.136 557.362 421.184Z" fill="#FDB602"/>
<g opacity="0.8">
<path d="M565.24 423.564C565.24 409.929 555.612 393.319 543.726 386.458C537.81 383.045 532.436 382.695 528.55 384.882C529.67 384.235 534.344 381.539 534.344 381.539C538.23 379.369 543.569 379.719 549.485 383.132C561.371 389.993 570.999 406.604 570.999 420.239C570.999 426.977 568.635 431.721 564.819 433.979L558.938 437.374C562.841 435.151 565.24 430.373 565.24 423.564Z" fill="#272623"/>
<path d="M528.305 385.04C528.305 385.04 528.375 384.987 528.479 384.935C528.427 384.97 528.357 385.005 528.305 385.04Z" fill="#272623"/>
<path d="M548.26 439.125L548.978 438.109C550.011 438.407 550.991 438.599 551.954 438.687L549.468 442.205L543.727 445.513L548.26 439.107V439.125Z" fill="#272623"/>
</g>
<path d="M575.287 290.594C575.287 275.786 585.755 269.817 598.673 277.256C611.592 284.713 622.06 302.758 622.06 317.583C622.06 330.133 614.55 336.329 604.397 333.406L598.691 341.458L592.984 326.807C582.832 318.021 575.322 303.143 575.322 290.594H575.287Z" fill="#F0F0F0"/>
<path d="M598.656 315.885C592.354 309.392 587.488 295.512 591.286 293.534C594.227 292.011 598.656 302.128 598.656 302.128C598.656 302.128 603.102 297.14 606.025 302.058C609.824 308.412 604.94 316.673 598.656 315.885Z" fill="#FDB602"/>
<path d="M622.043 317.583C622.043 302.776 611.575 284.713 598.656 277.256C592.215 273.546 586.386 273.161 582.167 275.559C583.392 274.858 588.451 271.935 588.451 271.935C592.67 269.572 598.481 269.958 604.906 273.668C617.824 281.125 628.292 299.17 628.292 313.995C628.292 321.329 625.719 326.475 621.57 328.925L615.181 332.619C619.417 330.203 622.043 325.022 622.043 317.601V317.583Z" fill="#272623"/>
<path d="M581.904 275.716C581.904 275.716 581.974 275.664 582.096 275.594C582.026 275.629 581.974 275.681 581.904 275.716Z" fill="#272623"/>
<path d="M603.592 334.491L604.363 333.389C605.483 333.704 606.551 333.914 607.601 334.019L604.888 337.834L598.639 341.44L603.575 334.474L603.592 334.491Z" fill="#272623"/>
<path d="M590.043 381.609C590.043 366.207 600.931 359.993 614.357 367.747C627.783 375.501 638.671 394.264 638.671 409.684C638.671 422.741 630.846 429.183 620.291 426.137L614.357 434.521L608.423 419.293C597.868 410.157 590.043 394.684 590.043 381.627V381.609Z" fill="#F0F0F0"/>
<path d="M618.769 398.29C618.769 401.055 620.186 404.118 621.937 405.133C623.687 406.148 625.105 404.713 625.105 401.948C625.105 399.182 623.687 396.119 621.937 395.104C620.186 394.089 618.769 395.524 618.769 398.29Z" fill="#FDB602"/>
<path d="M609.946 393.196C609.946 395.962 608.528 397.397 606.778 396.382C605.027 395.367 603.609 392.304 603.609 389.538C603.609 386.773 605.027 385.337 606.778 386.353C608.528 387.368 609.946 390.431 609.946 393.196Z" fill="#FDB602"/>
<path d="M614.357 403.68C616.16 404.731 617.631 403.891 617.631 401.808C617.631 401.44 617.368 400.985 617.053 400.81C616.738 400.617 616.475 400.775 616.475 401.143C616.475 402.49 615.53 403.033 614.357 402.35C613.185 401.668 612.239 400.04 612.239 398.692C612.239 398.325 611.977 397.869 611.662 397.694C611.347 397.502 611.084 397.659 611.084 398.027C611.084 400.092 612.554 402.63 614.357 403.68Z" fill="#FDB602"/>
<path d="M638.671 409.684C638.671 394.281 627.783 375.501 614.357 367.747C607.67 363.879 601.596 363.494 597.202 365.979C598.462 365.244 603.749 362.198 603.749 362.198C608.143 359.748 614.182 360.15 620.851 364.001C634.277 371.755 645.165 390.518 645.165 405.939C645.165 413.552 642.504 418.926 638.181 421.464L631.546 425.297C635.957 422.794 638.671 417.386 638.671 409.684Z" fill="#272623"/>
<path d="M596.922 366.154C596.922 366.154 596.992 366.102 597.114 366.032C597.044 366.067 596.992 366.119 596.922 366.154Z" fill="#272623"/>
<path d="M619.485 427.275L620.29 426.137C621.446 426.47 622.566 426.68 623.651 426.802L620.833 430.776L614.339 434.521L619.468 427.292L619.485 427.275Z" fill="#272623"/>
<path d="M645.218 291.118C645.218 274.141 657.208 267.297 672 275.838C686.791 284.38 698.782 305.068 698.782 322.046C698.782 336.434 690.17 343.54 678.529 340.162L671.982 349.386L665.435 332.601C653.812 322.537 645.183 305.489 645.183 291.101L645.218 291.118Z" fill="#F0F0F0"/>
<path d="M698.799 322.064C698.799 305.086 686.809 284.397 672.017 275.856C664.63 271.603 657.961 271.165 653.112 273.896C654.513 273.09 660.324 269.73 660.324 269.73C665.173 267.017 671.825 267.472 679.177 271.708C693.968 280.249 705.959 300.938 705.959 317.916C705.959 326.317 703.018 332.216 698.257 335.016L690.94 339.252C695.789 336.487 698.799 330.536 698.799 322.047V322.064Z" fill="#272623"/>
<path d="M652.797 274.088C652.797 274.088 652.867 274.035 653.006 273.948C652.937 273.983 652.867 274.035 652.797 274.088Z" fill="#272623"/>
<path d="M677.671 341.44L678.563 340.18C679.841 340.547 681.084 340.792 682.274 340.897L679.176 345.273L672.017 349.404L677.671 341.422V341.44Z" fill="#272623"/>
<path d="M668.796 319.456H670.739C671.334 319.456 671.807 318.983 671.807 318.388V316.585C673.365 316.358 674.73 315.868 675.885 315.115C677.706 313.907 678.634 312.262 678.669 310.144C678.704 308.832 678.336 307.711 677.566 306.784C676.34 305.313 674.415 304.403 671.807 304.036V300.36C672.262 300.57 672.717 300.868 673.137 301.235C673.4 301.445 673.697 301.568 674.047 301.568C674.327 301.568 674.712 301.375 674.712 301.375L676.901 300.01C677.198 299.817 677.356 299.572 677.356 299.292C677.356 299.065 677.268 298.855 677.076 298.68C675.71 297.122 673.96 296.177 671.807 295.792V293.726C671.807 293.131 671.334 292.659 670.739 292.659H668.796C668.201 292.659 667.728 293.131 667.728 293.726V295.739C666.713 295.879 665.803 296.142 664.997 296.509C662.372 297.7 661.094 299.485 661.129 301.865C661.146 303.038 661.496 304.071 662.179 304.963C663.317 306.486 665.172 307.449 667.728 307.851V312.437C666.625 312.052 665.575 311.317 664.595 310.249C664.385 309.969 664.087 309.829 663.737 309.829C663.544 309.829 663.159 310.004 663.159 310.004L661.164 311.177C660.831 311.369 660.656 311.632 660.656 311.965C660.656 312.175 660.744 312.367 660.884 312.525C661.409 313.242 662.092 313.942 662.967 314.608C664.367 315.693 665.96 316.358 667.728 316.638V318.441C667.728 319.036 668.201 319.508 668.796 319.508V319.456ZM671.807 308.306C672.857 308.639 673.382 309.252 673.382 310.144C673.382 310.984 672.997 311.632 672.227 312.087C672.087 312.175 671.947 312.245 671.807 312.315V308.289V308.306ZM666.45 301.848C666.45 301.2 666.818 300.675 667.588 300.325L667.746 300.273V303.528C666.888 303.196 666.468 302.653 666.468 301.865L666.45 301.848Z" fill="#FDB602"/>
<g filter="url(#filter0_f_1056_20189)">
<path fill-rule="evenodd" clip-rule="evenodd" d="M572 623V530H574V623H572Z" fill="#EDA107"/>
</g>
<defs>
<filter id="filter0_f_1056_20189" x="568" y="526" width="10" height="101" filterUnits="userSpaceOnUse" color-interpolation-filters="sRGB">
<feFlood flood-opacity="0" result="BackgroundImageFix"/>
<feBlend mode="normal" in="SourceGraphic" in2="BackgroundImageFix" result="shape"/>
<feGaussianBlur stdDeviation="2" result="effect1_foregroundBlur_1056_20189"/>
</filter>
<linearGradient id="paint0_linear_1056_20189" x1="74.8819" y1="431.668" x2="487.116" y2="431.668" gradientUnits="userSpaceOnUse">
<stop stop-color="#FFEF26"/>
<stop offset="0.02" stop-color="#FEE921"/>
<stop offset="0.1" stop-color="#FDD70E"/>
<stop offset="0.19" stop-color="#FDCB03"/>
<stop offset="0.28" stop-color="#FDC800"/>
<stop offset="0.67" stop-color="#F18F34"/>
<stop offset="0.89" stop-color="#E95F32"/>
<stop offset="1" stop-color="#E3312D"/>
</linearGradient>
</defs>
</svg>
