<svg width="815" height="662" viewBox="0 0 815 662" fill="none" xmlns="http://www.w3.org/2000/svg">
<path d="M592.817 510.127L434.425 623.109C433.732 624.11 432.358 624.36 431.356 623.668L205.717 489.227" stroke="#FDB602" stroke-width="0.07" stroke-miterlimit="10"/>
<path d="M692.799 442.264L534.407 555.246C533.714 556.247 532.34 556.497 531.338 555.805L305.699 421.364" stroke="#FDB602" stroke-width="0.07" stroke-miterlimit="10"/>
<path d="M660.654 425.801L562.804 475.684C562.438 476.213 561.5 476.198 560.708 475.652L385.117 365.694" stroke="#FDB602" stroke-width="0.07" stroke-miterlimit="10"/>
<path opacity="0.8" d="M347.269 493.781L592.603 628.929C595.289 630.409 599.185 630.313 601.307 628.718L734.84 528.24C736.96 526.645 736.503 524.152 733.817 522.672L488.482 387.523C485.796 386.043 481.9 386.139 479.778 387.734L346.246 488.212C344.124 489.808 344.582 492.301 347.269 493.781Z" fill="#272623"/>
<path d="M356.784 453.314L370.288 459.869L494.484 367.804C496.563 366.263 500.376 366.168 503.002 367.591L737.506 494.595C739.559 493.118 748.979 487.232 748.979 487.232L745.2 501.218C745.2 501.218 745.183 501.206 745.18 501.202C745.027 501.822 744.644 502.42 743.969 502.921L613.165 599.884C611.087 601.425 607.273 601.52 604.648 600.099L364.674 470.133C363.595 469.549 362.907 468.798 362.588 468.012L362.57 468.026L356.784 453.314Z" fill="#0D0F10"/>
<path d="M356.654 453.774L604.299 587.91C607.011 589.379 610.946 589.279 613.091 587.69L748.073 487.617C750.216 486.028 749.758 483.549 747.047 482.08L499.402 347.944C496.69 346.475 492.755 346.575 490.61 348.164L355.628 448.238C353.483 449.829 353.943 452.308 356.654 453.774Z" fill="#F5F5F5"/>
<g filter="url(#filter0_i_1045_18169)">
<path d="M497.506 466.127L461.409 488.243C460.853 488.584 460.866 489.396 461.434 489.718L516.421 520.888C516.69 521.041 517.021 521.037 517.287 520.878L554.583 498.525C555.151 498.185 555.136 497.359 554.556 497.04L498.37 466.107C498.099 465.958 497.77 465.965 497.506 466.127Z" fill="#F0F0F0"/>
</g>
<path d="M356.552 451.331L604.307 586.223C607.02 587.7 610.956 587.601 613.101 586.005L748.084 485.475C748.595 485.095 748.952 484.665 749.171 484.208C749.964 485.506 749.701 486.974 748.267 488.043L613.283 588.573C611.138 590.169 607.202 590.268 604.489 588.791L356.734 453.898C354.667 452.774 353.912 451.059 354.618 449.601C355.009 450.241 355.655 450.843 356.552 451.331Z" fill="#FDB602"/>
<path d="M510.593 143.307L745.894 277.1L731.684 466.189L496.538 332.483L510.593 143.307Z" fill="#434343"/>
<mask id="mask0_1045_18169" style="mask-type:luminance" maskUnits="userSpaceOnUse" x="496" y="143" width="250" height="324">
<path d="M510.593 143.307L745.894 277.1L731.684 466.189L496.538 332.483L510.593 143.307Z" fill="white"/>
</mask>
<g mask="url(#mask0_1045_18169)">
<path d="M493.147 340.446L758.709 491.44C761.615 493.094 765.828 492.996 768.117 491.224L912.263 379.685C914.553 377.914 914.052 375.138 911.146 373.484L645.584 222.49C642.677 220.837 638.464 220.935 636.175 222.707L492.03 334.245C489.739 336.019 490.238 338.795 493.147 340.446Z" fill="#434343"/>
<path d="M548.381 332.252L740.634 441.564L733.707 446.924L541.454 337.614L548.381 332.252Z" fill="#434343"/>
<path d="M566.806 317.996L749.54 421.893L742.613 427.253L559.879 323.355L566.806 317.996Z" fill="#434343"/>
<path d="M749.942 446.856L761.825 453.614L754.898 458.973L743.015 452.216L749.942 446.856Z" fill="#434343"/>
<path d="M578.351 309.061L791.796 430.422L784.869 435.782L571.424 314.423L578.351 309.061Z" fill="#434343"/>
<path d="M589.899 300.129L803.342 421.488L796.415 426.849L582.97 305.488L589.899 300.129Z" fill="#434343"/>
<path d="M601.444 291.194L814.887 412.556L807.96 417.915L594.515 296.554L601.444 291.194Z" fill="#434343"/>
</g>
<path d="M496.765 338.269L512.411 139.03L509.947 138.075L513.367 135.519L513.363 135.544C514.021 134.975 515.006 134.937 516.138 135.561L763.993 272.098C766.029 273.219 767.731 276.344 767.55 278.626L751.78 479.448C751.697 480.494 751.289 481.214 750.675 481.559L747.335 484.078L746.472 480.452L746.677 480.505L500.32 344.796C498.286 343.676 496.584 340.553 496.765 338.269Z" fill="#0D0F10"/>
<path d="M763.054 277.583L766.811 275.376C767.328 276.462 767.626 277.623 767.547 278.626L751.776 479.449C751.694 480.494 751.285 481.214 750.671 481.56L747.331 484.079L746.469 480.453L746.673 480.506L734.207 473.639L763.054 277.583Z" fill="#0D0F10"/>
<path d="M496.773 347.452L744.629 483.989C746.542 485.044 748.06 484.248 748.231 482.102L764.001 281.279C764.182 278.997 762.48 275.872 760.444 274.751L512.589 138.214C510.676 137.159 509.158 137.955 508.987 140.099L493.216 340.922C493.035 343.206 494.737 346.329 496.773 347.452Z" fill="#F5F5F5"/>
<path d="M496.773 347.452L744.629 483.989C746.542 485.044 748.06 484.248 748.231 482.102L764.001 281.279C764.182 278.997 762.48 275.872 760.444 274.751L512.589 138.214C510.676 137.159 509.158 137.955 508.987 140.099L493.216 340.922C493.035 343.206 494.737 346.329 496.773 347.452Z" fill="#F5F5F5"/>
<path d="M513.776 149.126L758.591 283.997L743.559 473.143L498.907 338.36L513.776 149.126Z" fill="#1F1F1F"/>
<path d="M481.952 375.745L659.043 473.299L666.225 467.897L489.134 370.341L481.952 375.745Z" fill="#BFBFBF"/>
<path d="M464.342 388.994L630.449 480.497L637.631 475.092L471.524 383.59L464.342 388.994Z" fill="#BFBFBF"/>
<path d="M452.875 397.622L648.446 505.357L655.628 499.955L460.056 392.217L452.875 397.622Z" fill="#BFBFBF"/>
<path d="M441.406 406.252L636.978 513.987L644.16 508.583L448.588 400.847L441.406 406.252Z" fill="#BFBFBF"/>
<path d="M429.938 414.881L625.51 522.616L632.692 517.212L437.121 409.477L429.938 414.881Z" fill="#BFBFBF"/>
<path d="M669.743 479.195L677.617 483.532L684.799 478.128L676.925 473.79L669.743 479.195Z" fill="#BFBFBF"/>
<path d="M643.666 487.778L660.01 496.781L667.192 491.377L650.848 482.374L643.666 487.778Z" fill="#BFBFBF"/>
<path d="M524.395 196.778L540.578 205.7L540.818 202.658L524.634 193.733L524.395 196.778Z" fill="#FDB602"/>
<path d="M543.18 207.122L551.999 211.985L552.239 208.941L543.42 204.08L543.18 207.122Z" fill="#FDB602"/>
<path d="M565.719 219.538L572.099 223.054L572.339 220.012L565.959 216.493L565.719 219.538Z" fill="#FDB602"/>
<path d="M561.066 216.973L563.247 218.173L563.486 215.131L561.306 213.928L561.066 216.973Z" fill="#FDB602"/>
<path d="M554.634 213.426L558.593 215.608L558.833 212.566L554.872 210.382L554.634 213.426Z" fill="#FDB602"/>
<path d="M538.275 218.934L544.655 222.452L544.894 219.41L538.515 215.892L538.275 218.934Z" fill="#FDB602"/>
<path d="M523.302 210.68L535.802 217.571L536.042 214.529L523.541 207.636L523.302 210.68Z" fill="#FDB602"/>
<path d="M543.906 258.256L556.409 265.149L556.648 262.105L544.146 255.214L543.906 258.256Z" fill="#FDB602"/>
<path d="M537.474 254.712L541.435 256.894L541.673 253.852L537.714 251.667L537.474 254.712Z" fill="#FDB602"/>
<path d="M544.92 244.342L557.423 251.233L557.662 248.191L545.16 241.299L544.92 244.342Z" fill="#FDB602"/>
<path d="M538.488 240.795L542.449 242.979L542.687 239.937L538.728 237.753L538.488 240.795Z" fill="#FDB602"/>
<path d="M539.316 318.322L515.766 305.339L515.526 308.384L539.076 321.367L539.316 318.322Z" fill="#FDB602"/>
<path d="M547.616 322.898L541.789 319.687L541.549 322.729L547.377 325.943L547.616 322.898Z" fill="#FDB602"/>
<path d="M587.385 323.016L563.835 310.033L563.595 313.075L587.145 326.058L587.385 323.016Z" fill="#FDB602"/>
<path d="M595.684 327.59L589.858 324.378L589.618 327.421L595.444 330.634L595.684 327.59Z" fill="#FDB602"/>
<path d="M522.694 301.907L516.313 298.391L516.075 301.433L522.454 304.949L522.694 301.907Z" fill="#FDB602"/>
<path d="M560.436 308.192L554.057 304.675L553.817 307.717L560.197 311.236L560.436 308.192Z" fill="#FDB602"/>
<path d="M537.668 310.163L525.167 303.269L524.928 306.314L537.428 313.205L537.668 310.163Z" fill="#FDB602"/>
<path d="M544.1 313.707L540.141 311.525L539.901 314.567L543.86 316.751L544.1 313.707Z" fill="#FDB602"/>
<path d="M559.187 322.011L546.687 315.12L546.447 318.162L558.947 325.053L559.187 322.011Z" fill="#FDB602"/>
<path d="M565.619 325.557L561.66 323.373L561.42 326.415L565.379 328.599L565.619 325.557Z" fill="#FDB602"/>
<path d="M559.89 315.147L553.508 311.629L553.271 314.671L559.65 318.19L559.89 315.147Z" fill="#FDB602"/>
<path d="M574.863 323.401L562.363 316.51L562.123 319.552L574.623 326.445L574.863 323.401Z" fill="#FDB602"/>
<path d="M581.296 326.948L577.336 324.766L577.097 327.808L581.056 329.99L581.296 326.948Z" fill="#FDB602"/>
<path d="M529.916 298.635L516.859 291.439L516.622 294.481L529.676 301.678L529.916 298.635Z" fill="#FDB602"/>
<path d="M541.829 305.204L532.389 299.998L532.149 303.042L541.589 308.246L541.829 305.204Z" fill="#FDB602"/>
<path d="M550.681 310.085L544.301 306.566L544.062 309.61L550.441 313.127L550.681 310.085Z" fill="#FDB602"/>
<path d="M612.018 336.566L598.961 329.37L598.722 332.412L611.778 339.608L612.018 336.566Z" fill="#FDB602"/>
<path d="M623.93 343.134L614.488 337.928L614.249 340.973L623.691 346.176L623.93 343.134Z" fill="#FDB602"/>
<path d="M632.783 348.015L626.401 344.497L626.164 347.539L632.543 351.057L632.783 348.015Z" fill="#FDB602"/>
<path d="M600.674 246.039L613.73 253.236L613.97 250.194L600.913 242.995L600.674 246.039Z" fill="#FDB602"/>
<path d="M588.761 239.471L598.203 244.675L598.443 241.633L589 236.427L588.761 239.471Z" fill="#FDB602"/>
<path d="M579.908 234.59L586.29 238.107L586.528 235.065L580.148 231.548L579.908 234.59Z" fill="#FDB602"/>
<path d="M595.802 236.073L608.856 243.27L609.096 240.228L596.042 233.031L595.802 236.073Z" fill="#FDB602"/>
<path d="M583.889 229.505L593.329 234.709L593.569 231.667L584.129 226.463L583.889 229.505Z" fill="#FDB602"/>
<path d="M575.037 224.624L581.416 228.143L581.656 225.101L575.274 221.582L575.037 224.624Z" fill="#FDB602"/>
<path d="M546.32 252.37L550.728 254.802L550.968 251.757L546.558 249.328L546.32 252.37Z" fill="#FDB602"/>
<path d="M538.019 247.795L543.845 251.006L544.085 247.964L538.259 244.752L538.019 247.795Z" fill="#FDB602"/>
<path d="M530.545 291.719L517.491 284.522L517.251 287.565L530.305 294.763L530.545 291.719Z" fill="#FDB602"/>
<path d="M542.458 298.287L533.018 293.083L532.778 296.126L542.22 301.329L542.458 298.287Z" fill="#FDB602"/>
<path d="M551.313 303.168L544.931 299.649L544.691 302.694L551.073 306.21L551.313 303.168Z" fill="#FDB602"/>
<path d="M522.446 280.003L518.037 277.571L517.797 280.616L522.208 283.045L522.446 280.003Z" fill="#FDB602"/>
<path d="M530.747 284.579L524.919 281.365L524.681 284.41L530.507 287.621L530.747 284.579Z" fill="#FDB602"/>
<path d="M542.607 291.117L533.22 285.94L532.98 288.985L542.37 294.161L542.607 291.117Z" fill="#FDB602"/>
<path d="M550.705 233.001L555.113 235.431L555.353 232.388L550.942 229.957L550.705 233.001Z" fill="#FDB602"/>
<path d="M542.403 228.424L548.231 231.637L548.469 228.595L542.643 225.381L542.403 228.424Z" fill="#FDB602"/>
<path d="M530.543 221.885L539.931 227.061L540.171 224.019L530.783 218.843L530.543 221.885Z" fill="#FDB602"/>
<path d="M557.918 243.709L567.306 248.885L567.546 245.843L558.158 240.667L557.918 243.709Z" fill="#FDB602"/>
<path d="M542.601 235.783L555.256 242.761L555.496 239.718L542.841 232.741L542.601 235.783Z" fill="#FDB602"/>
<path d="M536.169 232.237L540.128 234.421L540.368 231.377L536.409 229.195L536.169 232.237Z" fill="#FDB602"/>
<path d="M529.996 228.834L533.955 231.018L534.195 227.974L530.236 225.792L529.996 228.834Z" fill="#FDB602"/>
<path d="M533.572 267.638L546.073 274.53L546.312 271.488L533.812 264.596L533.572 267.638Z" fill="#FDB602"/>
<path d="M527.14 264.092L531.099 266.276L531.339 263.234L527.38 261.05L527.14 264.092Z" fill="#FDB602"/>
<path d="M534.97 275.668L539.379 278.099L539.619 275.055L535.21 272.625L534.97 275.668Z" fill="#FDB602"/>
<path d="M549.459 269.099L553.868 271.531L554.107 268.489L549.699 266.057L549.459 269.099Z" fill="#FDB602"/>
<path d="M555.744 272.56L566.323 278.39L566.563 275.348L555.984 269.518L555.744 272.56Z" fill="#FDB602"/>
<path d="M568.2 279.42L574.494 282.887L574.734 279.845L568.44 276.376L568.2 279.42Z" fill="#FDB602"/>
<path d="M526.671 271.092L532.497 274.303L532.737 271.261L526.909 268.05L526.671 271.092Z" fill="#FDB602"/>
<path d="M526.648 278.195L531.059 280.626L531.298 277.582L526.888 275.153L526.648 278.195Z" fill="#FDB602"/>
<path d="M518.349 273.619L524.175 276.83L524.415 273.788L518.589 270.577L518.349 273.619Z" fill="#FDB602"/>
<path d="M543.061 265.578L547.02 267.76L547.259 264.718L543.3 262.536L543.061 265.578Z" fill="#FDB602"/>
<path d="M536.888 262.175L540.849 264.357L541.087 261.315L537.128 259.133L536.888 262.175Z" fill="#FDB602"/>
<path d="M563.501 225.547L577.007 232.993L577.246 229.949L563.741 222.503L563.501 225.547Z" fill="#FDB602"/>
<path d="M548.373 217.208L561.028 224.183L561.268 221.14L548.613 214.163L548.373 217.208Z" fill="#FDB602"/>
<path d="M541.941 213.661L545.9 215.843L546.14 212.801L542.181 210.617L541.941 213.661Z" fill="#FDB602"/>
<path d="M535.769 210.259L539.73 212.441L539.967 209.399L536.008 207.214L535.769 210.259Z" fill="#FDB602"/>
<path d="M532.395 208.397L523.852 203.688L524.091 200.644L532.635 205.355L532.395 208.397Z" fill="#FDB602"/>
<path d="M348.874 386.343C347.84 386.343 346.911 386.121 346.189 385.704L230.97 319.279C230.023 318.734 229.48 317.875 229.48 316.924C229.483 315.872 230.145 314.888 231.296 314.222L300.559 274.292C302.345 273.262 304.904 273.178 306.511 274.105L421.73 340.532C422.68 341.08 423.223 341.939 423.223 342.885C423.223 343.934 422.561 344.917 421.404 345.584L352.141 385.514C351.219 386.051 350.057 386.343 348.874 386.343ZM303.832 274.552C302.879 274.552 301.878 274.782 301.101 275.232L231.839 315.162C231.03 315.628 230.563 316.27 230.563 316.924C230.563 317.477 230.91 317.991 231.513 318.338L346.732 384.766C347.934 385.46 350.209 385.379 351.601 384.579L420.864 344.649C421.673 344.18 422.137 343.538 422.137 342.888C422.137 342.337 421.792 341.822 421.187 341.473L305.968 275.048C305.393 274.715 304.63 274.552 303.832 274.552Z" fill="#FDB602"/>
<path opacity="0.8" d="M345.057 166.281H356.204C354.551 162.538 353.525 160.226 353.525 160.226L242.396 116.925L242.405 302.253C242.402 302.275 242.407 302.294 242.405 302.315V302.486C242.445 302.819 242.671 303.139 243.086 303.38L344.414 361.797C344.601 361.905 344.824 361.984 345.054 362.049L345.057 166.281Z" fill="#272623"/>
<path d="M410.298 139.764L346.352 176.198V287.74L346.312 287.715V362.184C346.325 362.184 346.339 362.187 346.352 362.184C347.074 362.154 347.818 361.965 348.41 361.626L409.321 326.509C409.948 326.149 410.268 325.691 410.287 325.249L410.298 139.764Z" fill="#D8D8D8"/>
<path d="M341.763 120.448V360.266L344.414 361.794C344.917 362.084 345.603 362.214 346.309 362.19C347.045 362.165 347.083 361.751 347.685 361.401L348.231 361.176L347.639 332.722V288.136L348.972 120.446L341.763 120.448Z" fill="#0D0F10"/>
<path d="M348.977 333.117V174.702L346.352 176.198V287.74L346.312 287.715V362.184C346.325 362.184 346.339 362.187 346.352 362.184C346.504 362.179 346.656 362.16 346.808 362.141C346.838 362.138 346.865 362.138 346.895 362.133C347.234 362.081 347.566 361.995 347.875 361.873C347.897 361.864 347.918 361.859 347.94 361.851C348.103 361.786 348.26 361.71 348.41 361.623L348.977 361.295V333.117Z" fill="#0D0F10"/>
<path d="M247.407 127.113L336.717 178.599V352.029L247.407 300.543V127.113Z" fill="#D8D8D8"/>
<g opacity="0.51">
<path opacity="0.8" d="M242.397 275.517L341.763 209.094V174.845L242.397 116.925V275.517Z" fill="#272623"/>
</g>
<path d="M344.417 176.374L243.089 117.958C242.066 117.367 242.193 116.337 243.377 115.654L304.288 80.5377C305.471 79.8546 307.257 79.7815 308.283 80.3724L409.611 138.789C410.634 139.379 410.507 140.409 409.324 141.092L348.412 176.209C347.229 176.889 345.44 176.965 344.417 176.374Z" fill="#F0F0F0"/>
<path opacity="0.8" d="M307.274 82.9902H300.035L243.377 115.657C242.193 116.337 242.066 117.369 243.089 117.96L245.838 119.546L333.859 170.292L345.421 170.162L307.274 82.9902Z" fill="#272623"/>
<path d="M307.274 86.5869L258.587 114.657L253.87 113.779V117.378L345.424 170.159L391.779 138.688L307.274 86.5869Z" fill="#0D0F10"/>
<path d="M398.828 135.772V139.371L345.424 170.159V166.56L398.828 135.772Z" fill="#0D0F10"/>
<path d="M345.424 166.56L253.87 113.778L307.274 82.9902L398.828 135.772L345.424 166.56Z" fill="#D8D8D8"/>
<path d="M288.043 109.93L286.583 109.087L286.705 108.407L300.235 100.544L302.114 101.439L301.764 102.019L288.043 109.93Z" fill="#FDB602"/>
<path d="M300.306 101.181L301.764 102.019L302.703 101.479L300.306 100.097L285.647 108.548L286.586 109.09L300.306 101.181Z" fill="#FDB602"/>
<path d="M292.47 112.475L291.01 111.632L291.132 110.952L304.662 103.089L306.541 103.981L306.19 104.564L292.47 112.475Z" fill="#FDB602"/>
<path d="M304.733 103.724L306.19 104.564L307.13 104.022L304.733 102.642L290.074 111.093L291.013 111.635L304.733 103.724Z" fill="#FDB602"/>
<path d="M296.897 115.02L295.437 114.177L295.559 113.494L309.089 105.631L310.967 106.526L310.617 107.108L296.897 115.02Z" fill="#FDB602"/>
<path d="M309.16 106.268L310.617 107.108L311.556 106.566L309.16 105.184L294.5 113.637L295.442 114.179L309.16 106.268Z" fill="#FDB602"/>
<path d="M301.324 117.562L299.866 116.722L299.986 116.039L313.516 108.176L315.394 109.071L315.044 109.653L301.324 117.562Z" fill="#FDB602"/>
<path d="M313.589 108.813L315.044 109.653L315.986 109.111L313.589 107.729L298.927 116.182L299.869 116.724L313.589 108.813Z" fill="#FDB602"/>
<path d="M314.271 125.075L312.813 124.232L312.932 123.552L326.463 115.689L328.341 116.584L327.991 117.164L314.271 125.075Z" fill="#FDB602"/>
<path d="M326.536 116.326L327.991 117.164L328.932 116.624L326.536 115.242L311.876 123.693L312.816 124.235L326.536 116.326Z" fill="#FDB602"/>
<path d="M318.7 127.62L317.24 126.777L317.359 126.097L330.892 118.234L332.77 119.126L332.42 119.709L318.7 127.62Z" fill="#FDB602"/>
<path d="M330.962 118.868L332.42 119.709L333.359 119.167L330.962 117.787L316.303 126.238L317.242 126.78L330.962 118.868Z" fill="#FDB602"/>
<path d="M323.127 130.165L321.667 129.322L321.789 128.641L335.319 120.776L337.197 121.671L336.847 122.253L323.127 130.165Z" fill="#FDB602"/>
<path d="M335.389 121.413L336.847 122.253L337.786 121.711L335.389 120.329L320.73 128.782L321.669 129.324L335.389 121.413Z" fill="#FDB602"/>
<path d="M327.553 132.707L326.093 131.867L326.215 131.184L339.745 123.321L341.624 124.216L341.274 124.798L327.553 132.707Z" fill="#FDB602"/>
<path d="M339.816 123.958L341.274 124.798L342.213 124.256L339.816 122.874L325.157 131.327L326.096 131.869L339.816 123.958Z" fill="#FDB602"/>
<path d="M340.5 140.219L339.042 139.377L339.162 138.696L352.692 130.834L354.57 131.728L354.22 132.308L340.5 140.219Z" fill="#FDB602"/>
<path d="M352.766 131.471L354.22 132.308L355.162 131.769L352.766 130.387L338.104 138.837L339.045 139.379L352.766 131.471Z" fill="#FDB602"/>
<path d="M344.93 142.764L343.47 141.922L343.589 141.241L357.119 133.379L359 134.271L358.647 134.853L344.93 142.764Z" fill="#FDB602"/>
<path d="M357.192 134.016L358.647 134.853L359.589 134.314L357.192 132.932L342.533 141.382L343.472 141.924L357.192 134.016Z" fill="#FDB602"/>
<path d="M349.357 145.309L347.896 144.466L348.019 143.786L361.546 135.921L363.427 136.815L363.077 137.398L349.357 145.309Z" fill="#FDB602"/>
<path d="M361.619 136.558L363.077 137.398L364.016 136.856L361.619 135.477L346.96 143.927L347.899 144.469L361.619 136.558Z" fill="#FDB602"/>
<path d="M353.783 147.851L352.323 147.011L352.445 146.328L365.975 138.466L367.854 139.36L367.503 139.943L353.783 147.851Z" fill="#FDB602"/>
<path d="M366.046 139.103L367.503 139.943L368.443 139.401L366.046 138.019L351.387 146.472L352.326 147.014L366.046 139.103Z" fill="#FDB602"/>
<path d="M339.165 179.231C339.165 178.081 338.357 176.683 337.36 176.108C336.858 175.818 336.405 175.794 336.077 175.986L334.798 176.734L335.588 176.761C335.566 176.881 335.553 177.011 335.553 177.152C335.553 178.301 336.362 179.699 337.358 180.274C337.491 180.35 337.618 180.407 337.743 180.447L337.374 181.136L338.625 180.404C338.959 180.217 339.165 179.811 339.165 179.231Z" fill="#0D0F10"/>
<path d="M337.879 179.984C337.879 181.133 337.07 181.599 336.074 181.025C335.078 180.45 334.269 179.052 334.269 177.903C334.269 176.753 335.078 176.287 336.074 176.862C337.07 177.436 337.879 178.835 337.879 179.984Z" fill="#0D0F10"/>
<path d="M337.111 179.542C337.111 180.204 336.647 180.472 336.071 180.141C335.499 179.811 335.032 179.006 335.032 178.345C335.032 177.683 335.496 177.415 336.071 177.745C336.647 178.076 337.111 178.881 337.111 179.542Z" fill="#0D0F10"/>
<path d="M249.858 128.037C249.858 126.888 249.049 125.489 248.053 124.915C247.551 124.625 247.098 124.6 246.77 124.793L245.491 125.541L246.281 125.568C246.257 125.687 246.246 125.817 246.246 125.958C246.246 127.107 247.055 128.506 248.051 129.08C248.184 129.156 248.311 129.213 248.436 129.254L248.067 129.942L249.318 129.21C249.652 129.021 249.858 128.617 249.858 128.037Z" fill="#0D0F10"/>
<path d="M248.569 128.788C248.569 129.937 247.76 130.403 246.764 129.828C245.768 129.254 244.959 127.855 244.959 126.706C244.959 125.557 245.768 125.091 246.764 125.665C247.76 126.24 248.569 127.639 248.569 128.788Z" fill="#0D0F10"/>
<path d="M247.803 128.346C247.803 129.007 247.339 129.275 246.764 128.945C246.191 128.614 245.724 127.809 245.724 127.148C245.724 126.486 246.188 126.218 246.764 126.549C247.336 126.879 247.803 127.684 247.803 128.346Z" fill="#0D0F10"/>
<path d="M339.165 352.615C339.165 351.466 338.357 350.067 337.36 349.493C336.858 349.203 336.405 349.178 336.077 349.371L334.798 350.119C335.124 349.932 335.575 349.959 336.071 350.246C337.067 350.821 337.876 352.219 337.876 353.368C337.876 353.921 337.686 354.311 337.382 354.507L338.628 353.786C338.959 353.599 339.165 353.192 339.165 352.615Z" fill="#0D0F10"/>
<path d="M337.361 353.656C337.236 353.582 337.114 353.498 336.994 353.401C336.821 353.688 336.476 353.756 336.074 353.523C335.501 353.192 335.035 352.387 335.035 351.726C335.035 351.265 335.263 351 335.596 350.991C335.569 350.837 335.556 350.682 335.556 350.531C335.556 350.39 335.569 350.259 335.591 350.14L334.801 350.113C334.473 350.3 334.269 350.704 334.269 351.281C334.269 352.431 335.078 353.829 336.074 354.404C336.592 354.702 337.056 354.715 337.385 354.501L337.749 353.824C337.621 353.788 337.491 353.731 337.361 353.656Z" fill="#0D0F10"/>
<path d="M337.879 353.366C337.879 352.216 337.07 350.818 336.074 350.243C335.577 349.956 335.127 349.929 334.801 350.116L335.591 350.143C335.569 350.262 335.555 350.392 335.555 350.533C335.555 350.682 335.572 350.837 335.596 350.994C335.74 350.991 335.9 351.029 336.074 351.13C336.647 351.46 337.113 352.265 337.113 352.926C337.113 353.124 337.067 353.282 336.994 353.403C337.113 353.501 337.235 353.585 337.36 353.658C337.493 353.734 337.621 353.791 337.746 353.832L337.382 354.509C337.689 354.309 337.879 353.918 337.879 353.366Z" fill="#0D0F10"/>
<path d="M337.879 353.366C337.879 352.216 337.07 350.818 336.074 350.243C335.577 349.956 335.127 349.929 334.801 350.116L335.591 350.143C335.569 350.262 335.555 350.392 335.555 350.533C335.555 350.682 335.572 350.837 335.596 350.994C335.74 350.991 335.9 351.029 336.074 351.13C336.647 351.46 337.113 352.265 337.113 352.926C337.113 353.124 337.067 353.282 336.994 353.403C337.113 353.501 337.235 353.585 337.36 353.658C337.493 353.734 337.621 353.791 337.746 353.832L337.382 354.509C337.689 354.309 337.879 353.918 337.879 353.366Z" fill="#0D0F10"/>
<path d="M335.034 351.726C335.034 352.387 335.498 353.192 336.074 353.523C336.475 353.756 336.823 353.688 336.994 353.401C336.294 352.831 335.745 351.883 335.596 350.991C335.262 350.999 335.034 351.265 335.034 351.726Z" fill="#0D0F10"/>
<path d="M336.991 353.401C337.064 353.279 337.111 353.122 337.111 352.924C337.111 352.262 336.646 351.457 336.071 351.127C335.897 351.027 335.737 350.989 335.593 350.991C335.742 351.88 336.293 352.832 336.991 353.401Z" fill="#0D0F10"/>
<path d="M248.05 298.296C247.548 298.006 247.095 297.982 246.767 298.174L245.488 298.922C245.814 298.735 246.265 298.762 246.761 299.05C247.757 299.624 248.566 301.023 248.566 302.172C248.566 302.725 248.376 303.115 248.072 303.31L249.318 302.589C249.649 302.402 249.853 301.999 249.853 301.419C249.858 300.27 249.049 298.871 248.05 298.296Z" fill="#0D0F10"/>
<path d="M248.051 302.459C247.926 302.386 247.801 302.302 247.684 302.205C247.513 302.492 247.166 302.56 246.764 302.326C246.191 301.996 245.725 301.191 245.725 300.53C245.725 300.069 245.955 299.803 246.286 299.795C246.259 299.638 246.246 299.486 246.246 299.334C246.246 299.193 246.259 299.063 246.281 298.944L245.491 298.917C245.163 299.104 244.959 299.508 244.959 300.085C244.959 301.234 245.768 302.633 246.764 303.21C247.282 303.508 247.746 303.522 248.075 303.307L248.439 302.63C248.314 302.592 248.183 302.535 248.051 302.459Z" fill="#0D0F10"/>
<path d="M248.569 302.172C248.569 301.023 247.76 299.625 246.764 299.05C246.268 298.763 245.817 298.736 245.491 298.923L246.281 298.95C246.259 299.069 246.246 299.199 246.246 299.34C246.246 299.489 246.259 299.643 246.287 299.801C246.43 299.798 246.591 299.836 246.764 299.936C247.337 300.267 247.804 301.072 247.804 301.733C247.804 301.931 247.758 302.088 247.684 302.21C247.804 302.308 247.926 302.392 248.051 302.465C248.184 302.541 248.311 302.598 248.436 302.638L248.072 303.316C248.379 303.113 248.569 302.722 248.569 302.172Z" fill="#0D0F10"/>
<path d="M248.569 302.172C248.569 301.023 247.76 299.625 246.764 299.05C246.268 298.763 245.817 298.736 245.491 298.923L246.281 298.95C246.259 299.069 246.246 299.199 246.246 299.34C246.246 299.489 246.259 299.643 246.287 299.801C246.43 299.798 246.591 299.836 246.764 299.936C247.337 300.267 247.804 301.072 247.804 301.733C247.804 301.931 247.758 302.088 247.684 302.21C247.804 302.308 247.926 302.392 248.051 302.465C248.184 302.541 248.311 302.598 248.436 302.638L248.072 303.316C248.379 303.113 248.569 302.722 248.569 302.172Z" fill="#0D0F10"/>
<path d="M245.725 300.529C245.725 301.191 246.189 301.996 246.764 302.326C247.166 302.559 247.513 302.492 247.684 302.204C246.987 301.635 246.436 300.687 246.286 299.795C245.955 299.806 245.725 300.069 245.725 300.529Z" fill="#0D0F10"/>
<path d="M247.684 302.204C247.758 302.083 247.804 301.925 247.804 301.727C247.804 301.066 247.34 300.261 246.764 299.931C246.591 299.83 246.431 299.792 246.287 299.795C246.436 300.687 246.987 301.635 247.684 302.204Z" fill="#0D0F10"/>
<path d="M354.818 185.239L400.893 158.717L400.787 317.91L354.709 344.432L354.818 185.239Z" fill="#F0F0F0"/>
<path opacity="0.8" d="M400.787 317.91L354.712 344.432L354.709 347.842L403.743 319.617L403.854 157.015L400.893 158.717L400.787 317.91Z" fill="#272623"/>
<path d="M391.407 241.059L395.223 238.863L395.221 243.265L391.402 245.46L391.407 241.059Z" fill="#FDB602"/>
<path opacity="0.1" d="M383.77 245.452L387.588 243.254L387.583 247.655L383.764 249.851L383.77 245.452Z" fill="#FDB602"/>
<path opacity="0.4" d="M376.132 249.842L379.951 247.647L379.945 252.048L376.126 254.244L376.132 249.842Z" fill="#FDB602"/>
<path d="M368.494 254.236L372.313 252.038L372.308 256.439L368.489 258.634L368.494 254.236Z" fill="#FDB602"/>
<path opacity="0.4" d="M360.857 258.626L364.675 256.431L364.67 260.83L360.851 263.028L360.857 258.626Z" fill="#FDB602"/>
<path d="M391.415 232.224L395.234 230.028L395.229 234.427L391.41 236.625L391.415 232.224Z" fill="#FDB602"/>
<path d="M383.777 236.617L387.596 234.419L387.591 238.82L383.772 241.016L383.777 236.617Z" fill="#FDB602"/>
<path d="M376.14 241.007L379.959 238.812L379.956 243.211L376.137 245.409L376.14 241.007Z" fill="#FDB602"/>
<path d="M368.505 245.398L372.321 243.203L372.318 247.604L368.5 249.799L368.505 245.398Z" fill="#FDB602"/>
<path d="M360.867 249.791L364.686 247.596L364.681 251.995L360.862 254.193L360.867 249.791Z" fill="#FDB602"/>
<path d="M391.426 223.388L395.245 221.193L395.239 225.592L391.42 227.787L391.426 223.388Z" fill="#FDB602"/>
<path d="M383.788 227.779L387.607 225.583L387.602 229.982L383.783 232.18L383.788 227.779Z" fill="#FDB602"/>
<path d="M376.15 232.172L379.969 229.977L379.964 234.375L376.145 236.57L376.15 232.172Z" fill="#FDB602"/>
<path opacity="0.1" d="M368.513 236.562L372.332 234.367L372.327 238.769L368.508 240.964L368.513 236.562Z" fill="#FDB602"/>
<path opacity="0.4" d="M360.875 240.956L364.694 238.761L364.689 243.159L360.873 245.355L360.875 240.956Z" fill="#FDB602"/>
<path opacity="0.4" d="M391.434 214.55L395.253 212.354L395.248 216.756L391.429 218.951L391.434 214.55Z" fill="#FDB602"/>
<path opacity="0.4" d="M383.797 218.943L387.615 216.748L387.61 221.146L383.794 223.342L383.797 218.943Z" fill="#FDB602"/>
<path opacity="0.1" d="M376.159 223.336L379.978 221.138L379.975 225.54L376.156 227.735L376.159 223.336Z" fill="#FDB602"/>
<path d="M368.524 227.727L372.343 225.532L372.337 229.93L368.519 232.126L368.524 227.727Z" fill="#FDB602"/>
<path d="M360.886 232.12L364.705 229.922L364.7 234.324L360.881 236.519L360.886 232.12Z" fill="#FDB602"/>
<path d="M391.445 205.715L395.264 203.52L395.259 207.921L391.44 210.116L391.445 205.715Z" fill="#FDB602"/>
<path d="M383.808 210.108L387.627 207.91L387.621 212.312L383.802 214.507L383.808 210.108Z" fill="#FDB602"/>
<path d="M376.17 214.498L379.989 212.303L379.983 216.705L376.165 218.9L376.17 214.498Z" fill="#FDB602"/>
<path d="M368.532 218.892L372.351 216.694L372.346 221.095L368.527 223.29L368.532 218.892Z" fill="#FDB602"/>
<path d="M360.895 223.283L364.714 221.087L364.711 225.486L360.892 227.684L360.895 223.283Z" fill="#FDB602"/>
<path d="M391.453 196.879L395.272 194.684L395.267 199.083L391.448 201.281L391.453 196.879Z" fill="#FDB602"/>
<path d="M383.816 201.273L387.635 199.075L387.632 203.476L383.813 205.671L383.816 201.273Z" fill="#FDB602"/>
<path opacity="0.4" d="M376.181 205.663L380 203.468L379.994 207.866L376.175 210.064L376.181 205.663Z" fill="#FDB602"/>
<path d="M368.543 210.054L372.362 207.858L372.356 212.26L368.538 214.455L368.543 210.054Z" fill="#FDB602"/>
<path opacity="0.1" d="M360.905 214.447L364.724 212.251L364.719 216.65L360.9 218.848L360.905 214.447Z" fill="#FDB602"/>
<path d="M391.464 188.044L395.283 185.849L395.277 190.247L391.458 192.442L391.464 188.044Z" fill="#FDB602"/>
<path d="M383.826 192.435L387.645 190.239L387.64 194.641L383.821 196.836L383.826 192.435Z" fill="#FDB602"/>
<path opacity="0.4" d="M376.189 196.828L380.008 194.632L380.002 199.031L376.184 201.226L376.189 196.828Z" fill="#FDB602"/>
<path d="M368.551 201.218L372.37 199.023L372.365 203.424L368.548 205.62L368.551 201.218Z" fill="#FDB602"/>
<path d="M360.913 205.612L364.732 203.417L364.73 207.815L360.911 210.01L360.913 205.612Z" fill="#FDB602"/>
<path d="M391.472 179.209L395.291 177.011L395.286 181.412L391.47 183.608L391.472 179.209Z" fill="#FDB602"/>
<path opacity="0.4" d="M383.837 183.6L387.654 181.404L387.651 185.803L383.832 188.001L383.837 183.6Z" fill="#FDB602"/>
<path d="M376.2 187.993L380.019 185.795L380.013 190.196L376.194 192.392L376.2 187.993Z" fill="#FDB602"/>
<path d="M368.562 192.383L372.381 190.188L372.375 194.587L368.557 196.785L368.562 192.383Z" fill="#FDB602"/>
<path d="M360.924 196.777L364.743 194.579L364.738 198.98L360.919 201.175L360.924 196.777Z" fill="#FDB602"/>
<path d="M391.483 170.371L395.302 168.175L395.296 172.577L391.478 174.772L391.483 170.371Z" fill="#FDB602"/>
<path opacity="0.1" d="M383.845 174.764L387.664 172.568L387.659 176.967L383.84 179.162L383.845 174.764Z" fill="#FDB602"/>
<path d="M376.208 179.154L380.026 176.959L380.021 181.36L376.202 183.556L376.208 179.154Z" fill="#FDB602"/>
<path d="M368.57 183.548L372.389 181.353L372.386 185.751L368.567 187.946L368.57 183.548Z" fill="#FDB602"/>
<path d="M360.935 187.939L364.751 185.743L364.748 190.145L360.93 192.34L360.935 187.939Z" fill="#FDB602"/>
<path d="M391.416 311.032L395.234 308.836L395.229 313.235L391.41 315.433L391.416 311.032Z" fill="#FDB602"/>
<path d="M383.778 315.425L387.597 313.227L387.591 317.628L383.772 319.824L383.778 315.425Z" fill="#FDB602"/>
<path d="M376.14 319.815L379.959 317.62L379.957 322.019L376.138 324.217L376.14 319.815Z" fill="#FDB602"/>
<path d="M368.506 324.209L372.322 322.011L372.319 326.412L368.5 328.607L368.506 324.209Z" fill="#FDB602"/>
<path d="M360.868 328.599L364.686 326.404L364.681 330.803L360.862 333.001L360.868 328.599Z" fill="#FDB602"/>
<path d="M391.426 302.196L395.245 300.001L395.24 304.4L391.421 306.595L391.426 302.196Z" fill="#FDB602"/>
<path d="M383.789 306.587L387.608 304.392L387.602 308.793L383.783 310.988L383.789 306.587Z" fill="#FDB602"/>
<path d="M376.151 310.98L379.97 308.785L379.964 313.183L376.146 315.379L376.151 310.98Z" fill="#FDB602"/>
<path opacity="0.1" d="M368.514 315.371L372.332 313.175L372.327 317.577L368.508 319.772L368.514 315.371Z" fill="#FDB602"/>
<path opacity="0.4" d="M360.876 319.764L364.695 317.569L364.689 321.968L360.873 324.163L360.876 319.764Z" fill="#FDB602"/>
<path opacity="0.4" d="M391.435 293.36L395.254 291.163L395.248 295.564L391.429 297.759L391.435 293.36Z" fill="#FDB602"/>
<path opacity="0.4" d="M383.797 297.751L387.616 295.556L387.61 299.954L383.794 302.152L383.797 297.751Z" fill="#FDB602"/>
<path opacity="0.1" d="M376.159 302.144L379.978 299.946L379.976 304.348L376.157 306.543L376.159 302.144Z" fill="#FDB602"/>
<path d="M368.524 306.535L372.343 304.34L372.338 308.738L368.519 310.936L368.524 306.535Z" fill="#FDB602"/>
<path d="M360.887 310.928L364.705 308.73L364.7 313.132L360.881 315.327L360.887 310.928Z" fill="#FDB602"/>
<path d="M391.445 284.522L395.264 282.327L395.259 286.728L391.44 288.924L391.445 284.522Z" fill="#FDB602"/>
<path d="M383.808 288.916L387.627 286.721L387.621 291.119L383.802 293.315L383.808 288.916Z" fill="#FDB602"/>
<path d="M376.17 293.306L379.989 291.111L379.983 295.512L376.165 297.708L376.17 293.306Z" fill="#FDB602"/>
<path d="M368.532 297.7L372.351 295.504L372.346 299.903L368.527 302.098L368.532 297.7Z" fill="#FDB602"/>
<path d="M360.895 302.09L364.714 299.895L364.711 304.296L360.892 306.492L360.895 302.09Z" fill="#FDB602"/>
<path d="M391.454 275.687L395.273 273.492L395.267 277.891L391.448 280.089L391.454 275.687Z" fill="#FDB602"/>
<path d="M383.816 280.081L387.635 277.883L387.632 282.284L383.813 284.48L383.816 280.081Z" fill="#FDB602"/>
<path opacity="0.4" d="M376.181 284.471L380 282.276L379.995 286.675L376.176 288.872L376.181 284.471Z" fill="#FDB602"/>
<path d="M368.543 288.864L372.362 286.667L372.357 291.068L368.538 293.263L368.543 288.864Z" fill="#FDB602"/>
<path opacity="0.1" d="M360.906 293.255L364.725 291.06L364.719 295.458L360.9 297.656L360.906 293.255Z" fill="#FDB602"/>
<path d="M391.464 266.852L395.283 264.657L395.278 269.055L391.459 271.251L391.464 266.852Z" fill="#FDB602"/>
<path d="M383.827 271.243L387.646 269.047L387.64 273.449L383.821 275.644L383.827 271.243Z" fill="#FDB602"/>
<path opacity="0.4" d="M376.189 275.636L380.008 273.44L380.003 277.839L376.184 280.034L376.189 275.636Z" fill="#FDB602"/>
<path d="M368.552 280.026L372.37 277.831L372.365 282.232L368.549 284.428L368.552 280.026Z" fill="#FDB602"/>
<path d="M360.914 284.42L364.733 282.225L364.73 286.623L360.911 288.818L360.914 284.42Z" fill="#FDB602"/>
<path d="M391.473 258.017L395.292 255.819L395.286 260.22L391.47 262.416L391.473 258.017Z" fill="#FDB602"/>
<path opacity="0.4" d="M383.838 262.408L387.654 260.212L387.651 264.614L383.833 266.809L383.838 262.408Z" fill="#FDB602"/>
<path d="M376.2 266.8L380.019 264.603L380.014 269.004L376.195 271.199L376.2 266.8Z" fill="#FDB602"/>
<path d="M368.562 271.191L372.381 268.996L372.376 273.395L368.557 275.593L368.562 271.191Z" fill="#FDB602"/>
<path d="M360.925 275.585L364.744 273.387L364.738 277.788L360.919 279.984L360.925 275.585Z" fill="#FDB602"/>
<path d="M391.484 249.181L395.302 246.983L395.297 251.385L391.478 253.58L391.484 249.181Z" fill="#FDB602"/>
<path opacity="0.1" d="M383.846 253.572L387.665 251.376L387.659 255.775L383.84 257.973L383.846 253.572Z" fill="#FDB602"/>
<path d="M376.208 257.962L380.027 255.767L380.021 260.169L376.203 262.364L376.208 257.962Z" fill="#FDB602"/>
<path d="M368.57 262.356L372.389 260.161L372.387 264.559L368.568 266.757L368.57 262.356Z" fill="#FDB602"/>
<path d="M360.936 266.746L364.752 264.551L364.749 268.952L360.93 271.148L360.936 266.746Z" fill="#FDB602"/>
<path d="M264.92 444.348C263.886 444.348 262.958 444.125 262.236 443.708L147.017 377.283C146.069 376.738 145.526 375.879 145.526 374.928C145.529 373.876 146.191 372.893 147.342 372.226L216.605 332.296C218.391 331.266 220.95 331.182 222.557 332.109L337.776 398.537C338.726 399.084 339.269 399.943 339.269 400.889C339.269 401.938 338.607 402.922 337.451 403.589L268.188 443.518C267.265 444.055 266.103 444.348 264.92 444.348ZM219.878 332.556C218.926 332.556 217.924 332.787 217.148 333.237L147.885 373.166C147.076 373.632 146.609 374.275 146.609 374.928C146.609 375.481 146.957 375.996 147.559 376.343L262.778 442.771C263.981 443.464 266.255 443.383 267.648 442.583L336.911 402.654C337.719 402.185 338.184 401.542 338.184 400.892C338.184 400.342 337.839 399.827 337.234 399.477L222.014 333.052C221.439 332.719 220.676 332.556 219.878 332.556Z" fill="#FDB602"/>
<path opacity="0.8" d="M261.104 224.286H272.251C270.598 220.543 269.572 218.231 269.572 218.231L158.443 174.93L158.451 360.258C158.448 360.279 158.454 360.298 158.451 360.32V360.491C158.492 360.824 158.717 361.144 159.132 361.385L260.46 419.801C260.648 419.91 260.87 419.988 261.101 420.053L261.104 224.286Z" fill="#272623"/>
<path d="M326.344 197.769L262.399 234.202V345.744L262.358 345.72V420.189C262.371 420.189 262.385 420.191 262.399 420.189C263.121 420.159 263.864 419.969 264.456 419.63L325.367 384.514C325.994 384.153 326.314 383.695 326.334 383.254L326.344 197.769Z" fill="#D8D8D8"/>
<path d="M257.809 178.453V418.27L260.461 419.799C260.963 420.088 261.65 420.219 262.355 420.194C263.091 420.17 263.129 419.755 263.731 419.405L264.277 419.181L263.685 390.726V346.14L265.018 178.45L257.809 178.453Z" fill="#0D0F10"/>
<path d="M265.023 391.121V232.706L262.399 234.202V345.744L262.358 345.72V420.189C262.371 420.189 262.385 420.191 262.399 420.189C262.551 420.183 262.703 420.164 262.855 420.145C262.884 420.143 262.912 420.143 262.942 420.137C263.281 420.086 263.612 419.999 263.921 419.877C263.943 419.869 263.965 419.863 263.986 419.855C264.149 419.79 264.307 419.714 264.456 419.628L265.023 419.3V391.121Z" fill="#0D0F10"/>
<path d="M163.454 185.117L252.763 236.603V410.034L163.454 358.547V185.117Z" fill="#D8D8D8"/>
<g opacity="0.51">
<path opacity="0.8" d="M158.443 333.521L257.809 267.099V232.85L158.443 174.93V333.521Z" fill="#272623"/>
</g>
<path d="M260.463 234.378L159.135 175.962C158.112 175.371 158.24 174.341 159.423 173.658L220.334 138.542C221.518 137.859 223.303 137.786 224.329 138.377L325.658 196.793C326.681 197.384 326.553 198.414 325.37 199.097L264.459 234.213C263.275 234.893 261.487 234.969 260.463 234.378Z" fill="#F0F0F0"/>
<path opacity="0.8" d="M223.32 140.995H216.081L159.423 173.661C158.24 174.341 158.112 175.374 159.135 175.965L161.885 177.55L249.905 228.296L261.468 228.166L223.32 140.995Z" fill="#272623"/>
<path d="M223.32 144.591L174.633 172.661L169.916 171.783V175.382L261.47 228.164L307.826 196.693L223.32 144.591Z" fill="#0D0F10"/>
<path d="M314.874 193.776V197.375L261.47 228.164V224.565L314.874 193.776Z" fill="#0D0F10"/>
<path d="M261.47 224.564L169.916 171.783L223.32 140.995L314.874 193.776L261.47 224.564Z" fill="#D8D8D8"/>
<path d="M204.09 167.934L202.63 167.091L202.752 166.411L216.282 158.549L218.16 159.443L217.81 160.023L204.09 167.934Z" fill="#FDB602"/>
<path d="M216.353 159.186L217.81 160.023L218.749 159.484L216.353 158.102L201.693 166.552L202.632 167.094L216.353 159.186Z" fill="#FDB602"/>
<path d="M208.517 170.479L207.057 169.636L207.179 168.956L220.709 161.094L222.587 161.986L222.237 162.568L208.517 170.479Z" fill="#FDB602"/>
<path d="M220.779 161.728L222.237 162.568L223.176 162.026L220.779 160.646L206.12 169.097L207.059 169.639L220.779 161.728Z" fill="#FDB602"/>
<path d="M212.944 173.024L211.483 172.181L211.606 171.498L225.136 163.636L227.014 164.53L226.664 165.113L212.944 173.024Z" fill="#FDB602"/>
<path d="M225.206 164.273L226.664 165.113L227.603 164.571L225.206 163.188L210.547 171.642L211.489 172.184L225.206 164.273Z" fill="#FDB602"/>
<path d="M217.37 175.566L215.913 174.726L216.032 174.043L229.562 166.181L231.44 167.075L231.09 167.658L217.37 175.566Z" fill="#FDB602"/>
<path d="M229.636 166.817L231.09 167.658L232.032 167.116L229.636 165.733L214.974 174.187L215.915 174.729L229.636 166.817Z" fill="#FDB602"/>
<path d="M230.317 183.079L228.859 182.236L228.979 181.556L242.509 173.693L244.387 174.588L244.037 175.168L230.317 183.079Z" fill="#FDB602"/>
<path d="M242.582 174.33L244.037 175.168L244.979 174.628L242.582 173.246L227.923 181.697L228.862 182.239L242.582 174.33Z" fill="#FDB602"/>
<path d="M234.746 185.624L233.286 184.781L233.406 184.101L246.938 176.238L248.817 177.13L248.466 177.713L234.746 185.624Z" fill="#FDB602"/>
<path d="M247.009 176.872L248.466 177.712L249.405 177.17L247.009 175.791L232.35 184.242L233.289 184.784L247.009 176.872Z" fill="#FDB602"/>
<path d="M239.173 188.168L237.713 187.326L237.835 186.645L251.365 178.78L253.243 179.675L252.893 180.257L239.173 188.168Z" fill="#FDB602"/>
<path d="M251.436 179.417L252.893 180.257L253.832 179.715L251.436 178.333L236.776 186.786L237.715 187.328L251.436 179.417Z" fill="#FDB602"/>
<path d="M243.6 190.711L242.14 189.87L242.262 189.188L255.792 181.325L257.67 182.22L257.32 182.802L243.6 190.711Z" fill="#FDB602"/>
<path d="M255.862 181.962L257.32 182.802L258.259 182.26L255.862 180.878L241.203 189.331L242.142 189.873L255.862 181.962Z" fill="#FDB602"/>
<path d="M256.546 198.224L255.089 197.381L255.208 196.701L268.738 188.838L270.617 189.733L270.266 190.313L256.546 198.224Z" fill="#FDB602"/>
<path d="M268.812 189.475L270.267 190.313L271.209 189.773L268.812 188.391L254.15 196.842L255.092 197.384L268.812 189.475Z" fill="#FDB602"/>
<path d="M260.976 200.769L259.516 199.926L259.636 199.246L273.166 191.383L275.047 192.275L274.694 192.858L260.976 200.769Z" fill="#FDB602"/>
<path d="M273.239 192.02L274.694 192.858L275.635 192.318L273.239 190.936L258.58 199.387L259.519 199.929L273.239 192.02Z" fill="#FDB602"/>
<path d="M265.403 203.314L263.943 202.471L264.065 201.79L277.592 193.925L279.473 194.82L279.123 195.402L265.403 203.314Z" fill="#FDB602"/>
<path d="M277.666 194.562L279.123 195.403L280.062 194.861L277.666 193.481L263.006 201.932L263.946 202.474L277.666 194.562Z" fill="#FDB602"/>
<path d="M269.83 205.856L268.37 205.016L268.492 204.333L282.022 196.47L283.9 197.365L283.55 197.947L269.83 205.856Z" fill="#FDB602"/>
<path d="M282.092 197.107L283.55 197.947L284.489 197.405L282.092 196.023L267.433 204.476L268.372 205.018L282.092 197.107Z" fill="#FDB602"/>
<path d="M255.211 237.235C255.211 236.086 254.402 234.687 253.406 234.113C252.904 233.823 252.451 233.798 252.123 233.991L250.844 234.739L251.634 234.766C251.612 234.885 251.599 235.015 251.599 235.156C251.599 236.305 252.408 237.704 253.404 238.278C253.537 238.354 253.664 238.411 253.789 238.452L253.42 239.14L254.671 238.408C255.005 238.222 255.211 237.815 255.211 237.235Z" fill="#0D0F10"/>
<path d="M253.925 237.988C253.925 239.138 253.116 239.604 252.12 239.029C251.124 238.455 250.315 237.056 250.315 235.907C250.315 234.758 251.124 234.292 252.12 234.866C253.116 235.441 253.925 236.839 253.925 237.988Z" fill="#0D0F10"/>
<path d="M253.157 237.547C253.157 238.208 252.693 238.476 252.117 238.146C251.544 237.815 251.078 237.01 251.078 236.349C251.078 235.688 251.542 235.419 252.117 235.75C252.693 236.081 253.157 236.885 253.157 237.547Z" fill="#0D0F10"/>
<path d="M165.904 186.041C165.904 184.892 165.095 183.494 164.099 182.919C163.597 182.629 163.144 182.605 162.815 182.797L161.537 183.545L162.327 183.572C162.302 183.691 162.292 183.821 162.292 183.962C162.292 185.111 163.1 186.51 164.097 187.084C164.23 187.16 164.357 187.217 164.482 187.258L164.113 187.946L165.364 187.215C165.698 187.025 165.904 186.621 165.904 186.041Z" fill="#0D0F10"/>
<path d="M164.615 186.792C164.615 187.941 163.806 188.407 162.81 187.833C161.814 187.258 161.005 185.86 161.005 184.711C161.005 183.561 161.814 183.095 162.81 183.67C163.806 184.244 164.615 185.643 164.615 186.792Z" fill="#0D0F10"/>
<path d="M163.849 186.35C163.849 187.011 163.385 187.28 162.81 186.949C162.237 186.618 161.771 185.813 161.771 185.152C161.771 184.491 162.235 184.223 162.81 184.553C163.383 184.884 163.849 185.689 163.849 186.35Z" fill="#0D0F10"/>
<path d="M255.212 410.619C255.212 409.47 254.403 408.072 253.407 407.497C252.905 407.207 252.451 407.183 252.123 407.375L250.845 408.123C251.17 407.936 251.621 407.963 252.118 408.25C253.114 408.825 253.923 410.223 253.923 411.373C253.923 411.926 253.733 412.316 253.429 412.511L254.674 411.79C255.005 411.603 255.212 411.197 255.212 410.619Z" fill="#0D0F10"/>
<path d="M253.407 411.66C253.282 411.587 253.16 411.503 253.041 411.405C252.867 411.692 252.522 411.76 252.12 411.527C251.548 411.196 251.081 410.391 251.081 409.73C251.081 409.269 251.309 409.004 251.643 408.996C251.616 408.841 251.602 408.687 251.602 408.535C251.602 408.394 251.616 408.264 251.637 408.145L250.847 408.118C250.519 408.305 250.315 408.709 250.315 409.286C250.315 410.435 251.124 411.833 252.12 412.408C252.639 412.706 253.103 412.72 253.431 412.505L253.795 411.828C253.668 411.793 253.537 411.736 253.407 411.66Z" fill="#0D0F10"/>
<path d="M253.925 411.37C253.925 410.221 253.116 408.822 252.12 408.248C251.623 407.961 251.173 407.933 250.847 408.12L251.637 408.147C251.615 408.267 251.602 408.397 251.602 408.538C251.602 408.687 251.618 408.841 251.643 408.999C251.786 408.996 251.947 409.034 252.12 409.134C252.693 409.465 253.16 410.27 253.16 410.931C253.16 411.129 253.114 411.286 253.04 411.408C253.16 411.505 253.282 411.589 253.407 411.663C253.54 411.739 253.667 411.796 253.792 411.836L253.428 412.514C253.735 412.313 253.925 411.923 253.925 411.37Z" fill="#0D0F10"/>
<path d="M253.925 411.37C253.925 410.221 253.116 408.822 252.12 408.248C251.623 407.961 251.173 407.933 250.847 408.12L251.637 408.147C251.615 408.267 251.602 408.397 251.602 408.538C251.602 408.687 251.618 408.841 251.643 408.999C251.786 408.996 251.947 409.034 252.12 409.134C252.693 409.465 253.16 410.27 253.16 410.931C253.16 411.129 253.114 411.286 253.04 411.408C253.16 411.505 253.282 411.589 253.407 411.663C253.54 411.739 253.667 411.796 253.792 411.836L253.428 412.514C253.735 412.313 253.925 411.923 253.925 411.37Z" fill="#0D0F10"/>
<path d="M251.081 409.73C251.081 410.391 251.545 411.196 252.12 411.527C252.522 411.76 252.869 411.692 253.04 411.405C252.34 410.836 251.792 409.887 251.642 408.996C251.309 409.004 251.081 409.269 251.081 409.73Z" fill="#0D0F10"/>
<path d="M253.037 411.405C253.111 411.283 253.157 411.126 253.157 410.928C253.157 410.267 252.693 409.462 252.117 409.131C251.944 409.031 251.784 408.993 251.64 408.996C251.789 409.885 252.34 410.836 253.037 411.405Z" fill="#0D0F10"/>
<path d="M164.097 356.301C163.595 356.011 163.141 355.986 162.813 356.179L161.535 356.927C161.86 356.74 162.311 356.767 162.808 357.054C163.804 357.629 164.613 359.027 164.613 360.176C164.613 360.729 164.423 361.12 164.118 361.315L165.364 360.594C165.695 360.407 165.899 360.003 165.899 359.423C165.904 358.274 165.096 356.875 164.097 356.301Z" fill="#0D0F10"/>
<path d="M164.097 360.464C163.972 360.391 163.847 360.307 163.731 360.209C163.56 360.496 163.212 360.564 162.81 360.331C162.238 360 161.771 359.195 161.771 358.534C161.771 358.073 162.002 357.808 162.333 357.799C162.306 357.642 162.292 357.49 162.292 357.339C162.292 357.198 162.306 357.068 162.327 356.948L161.537 356.921C161.209 357.108 161.005 357.512 161.005 358.089C161.005 359.239 161.814 360.637 162.81 361.214C163.329 361.512 163.793 361.526 164.121 361.312L164.485 360.634C164.36 360.596 164.23 360.54 164.097 360.464Z" fill="#0D0F10"/>
<path d="M164.615 360.177C164.615 359.027 163.807 357.629 162.811 357.054C162.314 356.767 161.863 356.74 161.538 356.927L162.327 356.954C162.306 357.073 162.292 357.203 162.292 357.344C162.292 357.493 162.306 357.648 162.333 357.805C162.477 357.802 162.637 357.84 162.811 357.941C163.383 358.271 163.85 359.076 163.85 359.737C163.85 359.935 163.804 360.093 163.731 360.215C163.85 360.312 163.972 360.396 164.097 360.469C164.23 360.545 164.358 360.602 164.483 360.643L164.119 361.32C164.425 361.117 164.615 360.727 164.615 360.177Z" fill="#0D0F10"/>
<path d="M164.615 360.177C164.615 359.027 163.807 357.629 162.811 357.054C162.314 356.767 161.863 356.74 161.538 356.927L162.327 356.954C162.306 357.073 162.292 357.203 162.292 357.344C162.292 357.493 162.306 357.648 162.333 357.805C162.477 357.802 162.637 357.84 162.811 357.941C163.383 358.271 163.85 359.076 163.85 359.737C163.85 359.935 163.804 360.093 163.731 360.215C163.85 360.312 163.972 360.396 164.097 360.469C164.23 360.545 164.358 360.602 164.483 360.643L164.119 361.32C164.425 361.117 164.615 360.727 164.615 360.177Z" fill="#0D0F10"/>
<path d="M161.771 358.534C161.771 359.195 162.235 360 162.81 360.331C163.212 360.564 163.56 360.496 163.731 360.209C163.033 359.64 162.482 358.691 162.333 357.799C162.002 357.81 161.771 358.073 161.771 358.534Z" fill="#0D0F10"/>
<path d="M163.731 360.209C163.804 360.087 163.85 359.93 163.85 359.732C163.85 359.07 163.386 358.266 162.811 357.935C162.637 357.835 162.477 357.797 162.333 357.799C162.482 358.691 163.033 359.64 163.731 360.209Z" fill="#0D0F10"/>
<path d="M270.864 243.243L316.94 216.721L316.834 375.915L270.755 402.437L270.864 243.243Z" fill="#F0F0F0"/>
<path opacity="0.8" d="M316.834 375.914L270.758 402.437L270.755 405.846L319.79 377.622L319.901 215.019L316.94 216.721L316.834 375.914Z" fill="#272623"/>
<path d="M307.454 299.063L311.27 296.868L311.267 301.27L307.448 303.465L307.454 299.063Z" fill="#FDB602"/>
<path opacity="0.1" d="M299.816 303.457L303.635 301.259L303.629 305.66L299.811 307.856L299.816 303.457Z" fill="#FDB602"/>
<path opacity="0.4" d="M292.178 307.847L295.997 305.652L295.992 310.053L292.173 312.248L292.178 307.847Z" fill="#FDB602"/>
<path d="M284.541 312.24L288.359 310.042L288.354 314.444L284.535 316.639L284.541 312.24Z" fill="#FDB602"/>
<path opacity="0.4" d="M276.903 316.631L280.722 314.436L280.716 318.835L276.897 321.033L276.903 316.631Z" fill="#FDB602"/>
<path d="M307.462 290.228L311.28 288.033L311.275 292.432L307.456 294.63L307.462 290.228Z" fill="#FDB602"/>
<path d="M299.824 294.622L303.643 292.424L303.637 296.825L299.818 299.021L299.824 294.622Z" fill="#FDB602"/>
<path d="M292.186 299.012L296.005 296.817L296.003 301.216L292.184 303.414L292.186 299.012Z" fill="#FDB602"/>
<path d="M284.551 303.403L288.367 301.208L288.365 305.609L284.546 307.804L284.551 303.403Z" fill="#FDB602"/>
<path d="M276.914 307.796L280.733 305.601L280.727 309.999L276.908 312.197L276.914 307.796Z" fill="#FDB602"/>
<path d="M307.472 281.393L311.291 279.198L311.286 283.597L307.467 285.792L307.472 281.393Z" fill="#FDB602"/>
<path d="M299.834 285.784L303.653 283.588L303.648 287.987L299.829 290.185L299.834 285.784Z" fill="#FDB602"/>
<path d="M292.197 290.177L296.016 287.981L296.01 292.38L292.191 294.575L292.197 290.177Z" fill="#FDB602"/>
<path opacity="0.1" d="M284.559 294.567L288.378 292.372L288.372 296.774L284.554 298.969L284.559 294.567Z" fill="#FDB602"/>
<path opacity="0.4" d="M276.922 298.961L280.74 296.766L280.735 301.164L276.919 303.36L276.922 298.961Z" fill="#FDB602"/>
<path opacity="0.4" d="M307.48 272.555L311.299 270.359L311.294 274.761L307.475 276.956L307.48 272.555Z" fill="#FDB602"/>
<path opacity="0.4" d="M299.843 276.948L303.662 274.753L303.657 279.152L299.84 281.347L299.843 276.948Z" fill="#FDB602"/>
<path opacity="0.1" d="M292.205 281.341L296.024 279.143L296.021 283.544L292.203 285.74L292.205 281.341Z" fill="#FDB602"/>
<path d="M284.57 285.732L288.389 283.537L288.384 287.935L284.565 290.131L284.57 285.732Z" fill="#FDB602"/>
<path d="M276.933 290.125L280.752 287.927L280.746 292.329L276.927 294.524L276.933 290.125Z" fill="#FDB602"/>
<path d="M307.491 263.72L311.31 261.524L311.305 265.926L307.486 268.121L307.491 263.72Z" fill="#FDB602"/>
<path d="M299.854 268.113L303.672 265.915L303.667 270.316L299.848 272.512L299.854 268.113Z" fill="#FDB602"/>
<path d="M292.216 272.503L296.035 270.308L296.029 274.71L292.21 276.905L292.216 272.503Z" fill="#FDB602"/>
<path d="M284.578 276.897L288.397 274.699L288.392 279.1L284.573 281.296L284.578 276.897Z" fill="#FDB602"/>
<path d="M276.941 281.288L280.76 279.092L280.757 283.491L276.938 285.689L276.941 281.288Z" fill="#FDB602"/>
<path d="M307.5 254.884L311.319 252.689L311.313 257.088L307.495 259.286L307.5 254.884Z" fill="#FDB602"/>
<path d="M299.862 259.278L303.681 257.08L303.678 261.481L299.859 263.676L299.862 259.278Z" fill="#FDB602"/>
<path opacity="0.4" d="M292.227 263.668L296.046 261.473L296.04 265.871L292.222 268.069L292.227 263.668Z" fill="#FDB602"/>
<path d="M284.589 268.059L288.408 265.863L288.403 270.265L284.584 272.46L284.589 268.059Z" fill="#FDB602"/>
<path opacity="0.1" d="M276.952 272.452L280.771 270.257L280.765 274.656L276.946 276.854L276.952 272.452Z" fill="#FDB602"/>
<path d="M307.51 246.049L311.329 243.854L311.324 248.252L307.505 250.447L307.51 246.049Z" fill="#FDB602"/>
<path d="M299.873 250.439L303.691 248.244L303.686 252.645L299.867 254.841L299.873 250.439Z" fill="#FDB602"/>
<path opacity="0.4" d="M292.235 254.832L296.054 252.637L296.048 257.036L292.229 259.231L292.235 254.832Z" fill="#FDB602"/>
<path d="M284.597 259.223L288.416 257.028L288.411 261.429L284.595 263.624L284.597 259.223Z" fill="#FDB602"/>
<path d="M276.96 263.616L280.779 261.421L280.776 265.82L276.957 268.015L276.96 263.616Z" fill="#FDB602"/>
<path d="M307.519 237.214L311.338 235.016L311.332 239.417L307.516 241.612L307.519 237.214Z" fill="#FDB602"/>
<path opacity="0.4" d="M299.884 241.605L303.7 239.409L303.697 243.808L299.878 246.006L299.884 241.605Z" fill="#FDB602"/>
<path d="M292.246 245.997L296.065 243.799L296.06 248.201L292.241 250.396L292.246 245.997Z" fill="#FDB602"/>
<path d="M284.609 250.388L288.427 248.193L288.422 252.592L284.603 254.79L284.609 250.388Z" fill="#FDB602"/>
<path d="M276.971 254.782L280.79 252.583L280.784 256.985L276.965 259.18L276.971 254.782Z" fill="#FDB602"/>
<path d="M307.529 228.375L311.348 226.18L311.343 230.582L307.524 232.777L307.529 228.375Z" fill="#FDB602"/>
<path opacity="0.1" d="M299.892 232.769L303.71 230.573L303.705 234.972L299.886 237.167L299.892 232.769Z" fill="#FDB602"/>
<path d="M292.254 237.159L296.073 234.964L296.067 239.365L292.249 241.561L292.254 237.159Z" fill="#FDB602"/>
<path d="M284.617 241.553L288.435 239.357L288.433 243.756L284.614 245.951L284.617 241.553Z" fill="#FDB602"/>
<path d="M276.982 245.943L280.798 243.748L280.795 248.149L276.976 250.344L276.982 245.943Z" fill="#FDB602"/>
<path d="M307.462 369.036L311.28 366.841L311.275 371.239L307.456 373.437L307.462 369.036Z" fill="#FDB602"/>
<path d="M299.824 373.429L303.643 371.231L303.637 375.633L299.818 377.828L299.824 373.429Z" fill="#FDB602"/>
<path d="M292.186 377.82L296.005 375.625L296.003 380.023L292.184 382.221L292.186 377.82Z" fill="#FDB602"/>
<path d="M284.551 382.213L288.367 380.015L288.365 384.416L284.546 386.612L284.551 382.213Z" fill="#FDB602"/>
<path d="M276.914 386.603L280.733 384.408L280.727 388.807L276.908 391.005L276.914 386.603Z" fill="#FDB602"/>
<path d="M307.472 360.201L311.291 358.005L311.286 362.404L307.467 364.599L307.472 360.201Z" fill="#FDB602"/>
<path d="M299.834 364.591L303.653 362.396L303.648 366.797L299.829 368.993L299.834 364.591Z" fill="#FDB602"/>
<path d="M292.197 368.984L296.016 366.789L296.01 371.188L292.191 373.383L292.197 368.984Z" fill="#FDB602"/>
<path opacity="0.1" d="M284.559 373.375L288.378 371.18L288.372 375.581L284.554 377.776L284.559 373.375Z" fill="#FDB602"/>
<path opacity="0.4" d="M276.922 377.769L280.74 375.573L280.735 379.972L276.919 382.167L276.922 377.769Z" fill="#FDB602"/>
<path opacity="0.4" d="M307.48 351.365L311.299 349.167L311.294 353.569L307.475 355.764L307.48 351.365Z" fill="#FDB602"/>
<path opacity="0.4" d="M299.843 355.756L303.662 353.561L303.657 357.959L299.84 360.157L299.843 355.756Z" fill="#FDB602"/>
<path opacity="0.1" d="M292.205 360.149L296.024 357.951L296.021 362.352L292.203 364.547L292.205 360.149Z" fill="#FDB602"/>
<path d="M284.57 364.54L288.389 362.344L288.384 366.743L284.565 368.941L284.57 364.54Z" fill="#FDB602"/>
<path d="M276.933 368.933L280.752 366.735L280.746 371.136L276.927 373.332L276.933 368.933Z" fill="#FDB602"/>
<path d="M307.491 342.527L311.31 340.332L311.305 344.733L307.486 346.929L307.491 342.527Z" fill="#FDB602"/>
<path d="M299.854 346.92L303.672 344.725L303.667 349.124L299.848 351.319L299.854 346.92Z" fill="#FDB602"/>
<path d="M292.216 351.311L296.035 349.116L296.029 353.517L292.21 355.713L292.216 351.311Z" fill="#FDB602"/>
<path d="M284.578 355.705L288.397 353.509L288.392 357.908L284.573 360.103L284.578 355.705Z" fill="#FDB602"/>
<path d="M276.941 360.095L280.76 357.9L280.757 362.301L276.938 364.497L276.941 360.095Z" fill="#FDB602"/>
<path d="M307.5 333.692L311.319 331.497L311.313 335.895L307.495 338.093L307.5 333.692Z" fill="#FDB602"/>
<path d="M299.862 338.085L303.681 335.887L303.678 340.289L299.859 342.484L299.862 338.085Z" fill="#FDB602"/>
<path opacity="0.4" d="M292.227 342.476L296.046 340.28L296.04 344.679L292.222 346.877L292.227 342.476Z" fill="#FDB602"/>
<path d="M284.589 346.869L288.408 344.671L288.403 349.072L284.584 351.268L284.589 346.869Z" fill="#FDB602"/>
<path opacity="0.1" d="M276.952 351.26L280.771 349.064L280.765 353.463L276.946 355.661L276.952 351.26Z" fill="#FDB602"/>
<path d="M307.51 324.856L311.329 322.661L311.324 327.06L307.505 329.255L307.51 324.856Z" fill="#FDB602"/>
<path d="M299.873 329.247L303.691 327.052L303.686 331.453L299.867 333.649L299.873 329.247Z" fill="#FDB602"/>
<path opacity="0.4" d="M292.235 333.64L296.054 331.445L296.048 335.844L292.229 338.039L292.235 333.64Z" fill="#FDB602"/>
<path d="M284.597 338.031L288.416 335.835L288.411 340.237L284.595 342.432L284.597 338.031Z" fill="#FDB602"/>
<path d="M276.96 342.424L280.779 340.229L280.776 344.628L276.957 346.823L276.96 342.424Z" fill="#FDB602"/>
<path d="M307.519 316.021L311.338 313.823L311.332 318.225L307.516 320.42L307.519 316.021Z" fill="#FDB602"/>
<path opacity="0.4" d="M299.884 320.412L303.7 318.217L303.697 322.618L299.878 324.813L299.884 320.412Z" fill="#FDB602"/>
<path d="M292.246 324.805L296.065 322.607L296.06 327.008L292.241 329.204L292.246 324.805Z" fill="#FDB602"/>
<path d="M284.609 329.196L288.427 327L288.422 331.399L284.603 333.597L284.609 329.196Z" fill="#FDB602"/>
<path d="M276.971 333.589L280.79 331.391L280.784 335.792L276.965 337.988L276.971 333.589Z" fill="#FDB602"/>
<path d="M307.529 307.186L311.348 304.988L311.343 309.389L307.524 311.584L307.529 307.186Z" fill="#FDB602"/>
<path opacity="0.1" d="M299.892 311.576L303.71 309.381L303.705 313.78L299.886 315.977L299.892 311.576Z" fill="#FDB602"/>
<path d="M292.254 315.967L296.073 313.771L296.067 318.173L292.249 320.368L292.254 315.967Z" fill="#FDB602"/>
<path d="M284.617 320.36L288.435 318.165L288.433 322.564L284.614 324.762L284.617 320.36Z" fill="#FDB602"/>
<path d="M276.982 324.751L280.798 322.555L280.795 326.957L276.976 329.152L276.982 324.751Z" fill="#FDB602"/>
<path d="M182.309 283.446C188.18 276.01 198.262 277.169 202.572 278.668C205.404 280.431 212.122 284.804 216.252 288.205C221.405 292.454 226.097 304.908 226.508 312.397C226.919 319.886 224.856 326.882 218.571 333.733C212.27 340.583 201.319 340.098 195.684 340.069C190.027 340.024 185.051 334.826 185.549 331.47C186.22 327.001 187.603 322.868 187.557 319.163C187.538 316.202 184.173 309.552 182.504 306.599C179.998 301.984 176.437 290.883 182.309 283.446Z" fill="#D8D8D8"/>
<path fill-rule="evenodd" clip-rule="evenodd" d="M180.78 282.221C187.087 274.225 197.934 275.438 202.717 277.108L202.963 277.2L203.197 277.352C206.049 279.13 212.885 283.579 217.156 287.086C218.744 288.401 220.179 290.235 221.41 292.215C222.665 294.225 223.793 296.531 224.772 298.91C226.705 303.637 228.049 308.832 228.266 312.792C228.702 320.668 226.511 327.96 220.024 335.016C213.664 341.925 202.875 341.814 197.068 341.738C196.74 341.734 196.442 341.73 196.145 341.726C192.769 341.697 189.559 340.122 187.263 338.024C185.012 335.971 183.409 333.183 183.773 330.762C184.029 329.055 184.383 327.363 184.727 325.791C184.848 325.272 184.954 324.752 185.049 324.248C185.481 322.2 185.773 320.359 185.772 318.678C185.773 318.172 185.613 317.396 185.286 316.38C184.979 315.38 184.526 314.258 184.012 313.091C183.004 310.771 181.773 308.434 180.962 307.01L180.953 306.98C178.277 302.065 174.445 290.232 180.78 282.221ZM202.169 280.15C198.201 278.849 189.147 277.942 183.827 284.686C178.414 291.534 181.662 301.872 184.019 306.202C184.878 307.731 186.177 310.188 187.246 312.657C187.782 313.899 188.297 315.17 188.654 316.335C189.007 317.485 189.286 318.65 189.302 319.617C189.326 321.626 188.95 323.704 188.538 325.766C188.422 326.3 188.309 326.849 188.193 327.384C187.86 328.941 187.516 330.514 187.28 332.133C187.13 333.068 187.776 334.564 189.313 335.968C190.785 337.311 192.901 338.366 195.166 338.38C195.432 338.384 195.698 338.387 195.964 338.391C201.844 338.453 211.459 338.549 217.081 332.433C223.196 325.789 225.12 319.104 224.735 312.002C224.546 308.488 223.325 303.696 221.511 299.254C220.614 297.04 219.575 294.974 218.491 293.219C217.387 291.449 216.295 290.125 215.317 289.324C211.439 286.134 205.118 281.989 202.169 280.15Z" fill="#828282"/>
<path d="M215.994 301.443C207.893 295.713 205.311 283.078 206.267 278.672C212.6 276.805 226.976 285.563 231.959 290.732C239.612 298.658 239.988 307.813 241.507 313.784C235.54 311.251 224.08 307.173 215.983 301.458L215.994 301.443Z" fill="#D8D8D8"/>
<path fill-rule="evenodd" clip-rule="evenodd" d="M220.092 280.653C225.265 283.339 230.355 286.976 233.11 289.81C237.289 294.134 239.44 298.76 240.732 302.972C241.378 305.079 241.824 307.093 242.184 308.928C242.275 309.375 242.361 309.808 242.442 310.225C242.709 311.553 242.934 312.746 243.222 313.836C243.365 314.403 243.208 314.907 242.798 315.199C242.389 315.491 241.788 315.513 241.209 315.253C240.189 314.823 238.942 314.316 237.557 313.762C235.084 312.762 232.149 311.578 229.208 310.275C224.536 308.206 219.472 305.67 215.216 302.668C210.539 299.363 207.658 294.237 206.055 289.619C204.451 285.001 203.968 280.427 204.531 277.89C204.621 277.475 204.916 277.166 205.329 277.038C207.301 276.454 209.773 276.739 212.26 277.426C214.778 278.114 217.489 279.28 220.083 280.623L220.092 280.653ZM208.092 284.319C208.343 285.9 208.759 287.661 209.396 289.484C210.869 293.729 213.327 297.778 216.751 300.203C220.592 302.917 225.308 305.285 229.877 307.323C232.782 308.611 235.501 309.703 237.887 310.672C238.349 310.856 238.795 311.041 239.237 311.21C239.142 310.747 239.047 310.285 238.967 309.823C238.891 309.42 238.814 309.017 238.717 308.6C238.35 306.794 237.945 304.915 237.339 302.987C236.161 299.148 234.293 295.241 230.819 291.639C228.58 289.319 224.008 286.001 219.152 283.482C216.742 282.231 214.362 281.233 212.248 280.639C211.04 280.311 209.953 280.118 209.04 280.092C209.456 280.737 209.882 281.412 210.307 282.087C214.044 288.072 218.489 295.197 230.953 301.58C231.897 302.068 232.459 303.087 232.206 303.887C231.948 304.672 230.982 304.928 230.037 304.439C217.262 297.904 211.838 290.23 208.124 284.32L208.092 284.319Z" fill="#B3B3B3"/>
<path d="M202.148 270.376C197.891 268.996 199.001 274.039 200.076 276.731L205.382 278.125C206.074 276.11 206.39 271.755 202.148 270.376Z" fill="#F5F5F5"/>
<path fill-rule="evenodd" clip-rule="evenodd" d="M201.321 275.453L203.948 276.142C204.057 275.429 204.076 274.626 203.903 273.909C203.769 273.372 203.572 272.983 203.333 272.712C203.118 272.471 202.745 272.168 202.055 271.951C201.381 271.734 201.198 271.851 201.171 271.865C201.096 271.924 200.947 272.1 200.889 272.62C200.829 273.393 201.03 274.452 201.336 275.453L201.321 275.453ZM198.597 268.96C199.527 268.332 200.81 268.349 202.246 268.814C203.667 269.279 204.867 270.039 205.757 271.062C206.623 272.055 207.098 273.148 207.333 274.118C207.795 276.028 207.48 277.899 207.077 279.024L206.713 280.076L198.878 278.009L198.425 276.888C197.84 275.437 197.184 273.197 197.328 271.428C197.408 270.521 197.7 269.543 198.577 268.945L198.597 268.96ZM218.042 320.826C218.987 321.315 219.537 322.348 219.279 323.134C218.897 324.274 218.08 326.034 216.843 327.744C215.622 329.454 213.898 331.201 211.683 332.214C207.606 334.065 203.086 335.032 201.279 335.291C200.382 335.413 199.344 334.775 198.94 333.862C198.535 332.949 198.931 332.106 199.809 331.969C201.405 331.737 205.677 330.826 209.483 329.105C211.192 328.324 212.641 326.9 213.741 325.352C214.845 323.819 215.549 322.252 215.859 321.333C216.117 320.548 217.088 320.308 218.037 320.811L218.042 320.826Z" fill="#828282"/>
<path d="M169.131 509.992C168.097 509.992 167.169 509.77 166.447 509.352L51.228 442.927C50.2808 442.383 49.7378 441.523 49.7378 440.572C49.7406 439.52 50.4027 438.537 51.5536 437.87L120.816 397.94C122.602 396.91 125.162 396.826 126.769 397.753L241.988 464.181C242.938 464.728 243.481 465.587 243.481 466.533C243.481 467.582 242.818 468.566 241.662 469.233L172.399 509.162C171.476 509.699 170.315 509.992 169.131 509.992ZM124.09 398.2C123.137 398.2 122.136 398.431 121.359 398.881L52.0964 438.81C51.2876 439.277 50.8208 439.919 50.8208 440.572C50.8208 441.125 51.1681 441.64 51.7708 441.987L166.99 508.415C168.192 509.108 170.467 509.027 171.859 508.228L241.122 468.298C241.931 467.829 242.395 467.186 242.395 466.536C242.395 465.986 242.05 465.471 241.445 465.121L126.226 398.696C125.651 398.363 124.888 398.2 124.09 398.2Z" fill="#FDB602"/>
<path opacity="0.8" d="M165.315 289.929H176.462C174.809 286.186 173.783 283.875 173.783 283.875L62.6543 240.573L62.6624 425.901C62.6597 425.923 62.6652 425.942 62.6624 425.964V426.134C62.7032 426.468 62.9284 426.788 63.3437 427.029L164.672 485.445C164.859 485.553 165.082 485.632 165.312 485.697L165.315 289.929Z" fill="#272623"/>
<path d="M230.556 263.413L166.61 299.846V411.388L166.569 411.364V485.833C166.583 485.833 166.597 485.835 166.61 485.833C167.332 485.803 168.076 485.613 168.667 485.274L229.579 450.158C230.206 449.797 230.526 449.339 230.545 448.898L230.556 263.413Z" fill="#D8D8D8"/>
<path d="M162.021 244.097V483.914L164.672 485.443C165.174 485.733 165.861 485.863 166.567 485.838C167.302 485.814 167.34 485.399 167.943 485.05L168.488 484.825L167.897 456.37V411.784L169.229 244.094L162.021 244.097Z" fill="#0D0F10"/>
<path d="M169.235 456.766V298.35L166.61 299.846V411.388L166.569 411.364V485.833C166.583 485.833 166.597 485.835 166.61 485.833C166.762 485.827 166.914 485.808 167.066 485.789C167.096 485.787 167.123 485.787 167.153 485.781C167.492 485.73 167.823 485.643 168.133 485.521C168.154 485.513 168.176 485.508 168.198 485.499C168.361 485.434 168.518 485.358 168.667 485.272L169.235 484.944V456.766Z" fill="#0D0F10"/>
<path d="M67.665 250.761L156.975 302.247V475.678L67.665 424.191V250.761Z" fill="#D8D8D8"/>
<path d="M164.675 300.022L63.3468 241.606C62.3234 241.015 62.4511 239.986 63.6344 239.302L124.546 204.186C125.729 203.503 127.515 203.43 128.541 204.021L229.869 262.437C230.892 263.028 230.765 264.058 229.581 264.741L168.67 299.857C167.487 300.537 165.698 300.613 164.675 300.022Z" fill="#F0F0F0"/>
<path opacity="0.8" d="M127.531 206.639H120.293L63.6344 239.305C62.451 239.985 62.3235 241.018 63.3468 241.609L66.0963 243.194L154.117 293.94L165.679 293.81L127.531 206.639Z" fill="#272623"/>
<path d="M127.531 210.235L78.8445 238.305L74.1274 237.427V241.026L165.682 293.808L212.037 262.337L127.531 210.235Z" fill="#0D0F10"/>
<path d="M219.086 259.42V263.02L165.682 293.808V290.209L219.086 259.42Z" fill="#0D0F10"/>
<path d="M165.682 290.208L74.1274 237.427L127.531 206.639L219.086 259.42L165.682 290.208Z" fill="#D8D8D8"/>
<path d="M86.3087 342.446C92.1801 335.01 102.262 336.169 106.572 337.668C109.404 339.431 116.122 343.804 120.252 347.205C125.405 351.454 130.097 363.908 130.508 371.397C130.919 378.886 128.856 385.882 122.571 392.733C116.27 399.583 105.319 399.098 99.6835 399.069C94.0274 399.024 89.0508 393.826 89.5491 390.47C90.2203 386.001 91.6027 381.868 91.5574 378.163C91.5378 375.202 88.1735 368.552 86.5041 365.599C83.9976 360.984 80.4372 349.883 86.3087 342.446Z" fill="#D8D8D8"/>
<path fill-rule="evenodd" clip-rule="evenodd" d="M84.7795 341.221C91.0872 333.225 101.934 334.438 106.717 336.108L106.963 336.2L107.197 336.352C110.049 338.13 116.885 342.579 121.156 346.086C122.744 347.401 124.179 349.235 125.41 351.215C126.665 353.225 127.793 355.531 128.772 357.91C130.705 362.637 132.049 367.832 132.266 371.792C132.702 379.668 130.511 386.96 124.024 394.016C117.664 400.925 106.875 400.814 101.068 400.738C100.74 400.734 100.442 400.73 100.145 400.726C96.7693 400.697 93.5586 399.122 91.2629 397.024C89.0123 394.971 87.409 392.183 87.7734 389.762C88.029 388.055 88.3832 386.363 88.727 384.791C88.8484 384.272 88.9541 383.752 89.0487 383.248C89.4807 381.2 89.7734 379.359 89.7722 377.678C89.7729 377.172 89.6129 376.396 89.2858 375.38C88.9788 374.38 88.5257 373.258 88.0118 372.091C87.0044 369.771 85.7733 367.434 84.9624 366.01L84.9533 365.98C82.2769 361.065 78.4451 349.232 84.7795 341.221ZM106.169 339.15C102.201 337.849 93.1467 336.942 87.8268 343.686C82.4138 350.534 85.6622 360.872 88.0191 365.202C88.8777 366.731 90.1767 369.188 91.2457 371.657C91.7824 372.899 92.297 374.17 92.6543 375.335C93.0071 376.485 93.2862 377.65 93.3023 378.617C93.326 380.626 92.9502 382.704 92.5384 384.766C92.4216 385.3 92.3094 385.849 92.1926 386.384C91.8599 387.941 91.516 389.514 91.2798 391.133C91.1302 392.068 91.7762 393.564 93.3134 394.968C94.7853 396.311 96.9012 397.366 99.1658 397.38C99.4319 397.384 99.698 397.387 99.964 397.391C105.844 397.453 115.459 397.549 121.081 391.433C127.196 384.789 129.12 378.104 128.735 371.002C128.546 367.488 127.325 362.696 125.511 358.254C124.614 356.04 123.575 353.974 122.491 352.219C121.387 350.449 120.295 349.125 119.317 348.324C115.439 345.134 109.118 340.989 106.169 339.15Z" fill="#B3B3B3"/>
<path d="M119.994 360.443C111.893 354.713 109.311 342.078 110.267 337.672C116.6 335.805 130.976 344.563 135.959 349.732C143.612 357.658 143.988 366.813 145.507 372.784C139.54 370.251 128.08 366.173 119.983 360.458L119.994 360.443Z" fill="#D8D8D8"/>
<path fill-rule="evenodd" clip-rule="evenodd" d="M124.092 339.653C129.265 342.339 134.355 345.976 137.11 348.81C141.289 353.134 143.44 357.76 144.732 361.972C145.378 364.079 145.824 366.093 146.184 367.928C146.275 368.375 146.361 368.808 146.442 369.225C146.709 370.553 146.934 371.746 147.222 372.836C147.365 373.403 147.208 373.907 146.798 374.199C146.389 374.491 145.788 374.513 145.209 374.253C144.189 373.823 142.942 373.316 141.557 372.762C139.084 371.762 136.149 370.578 133.208 369.275C128.536 367.206 123.472 364.67 119.216 361.668C114.539 358.363 111.658 353.237 110.055 348.619C108.451 344.001 107.968 339.427 108.531 336.89C108.621 336.475 108.916 336.166 109.329 336.038C111.301 335.454 113.773 335.739 116.26 336.426C118.778 337.114 121.489 338.28 124.083 339.623L124.092 339.653ZM112.092 343.319C112.343 344.9 112.759 346.661 113.396 348.484C114.869 352.729 117.327 356.778 120.751 359.203C124.592 361.917 129.308 364.285 133.877 366.323C136.782 367.611 139.501 368.703 141.887 369.672C142.349 369.856 142.795 370.041 143.237 370.21C143.142 369.747 143.047 369.285 142.967 368.823C142.891 368.42 142.814 368.017 142.717 367.6C142.35 365.794 141.945 363.915 141.339 361.987C140.161 358.148 138.293 354.241 134.819 350.639C132.58 348.319 128.008 345.001 123.152 342.482C120.742 341.231 118.362 340.233 116.248 339.639C115.04 339.311 113.953 339.118 113.04 339.092C113.456 339.737 113.882 340.412 114.307 341.087C118.044 347.072 122.489 354.197 134.953 360.58C135.897 361.068 136.459 362.087 136.206 362.887C135.948 363.672 134.982 363.928 134.037 363.439C121.262 356.904 115.838 349.23 112.124 343.32L112.092 343.319Z" fill="#B3B3B3"/>
<path d="M106.148 329.376C101.891 327.996 103.001 333.039 104.076 335.731L109.382 337.125C110.074 335.11 110.39 330.755 106.148 329.376Z" fill="#F5F5F5"/>
<path fill-rule="evenodd" clip-rule="evenodd" d="M105.321 334.453L107.948 335.142C108.057 334.429 108.076 333.626 107.903 332.909C107.769 332.372 107.572 331.983 107.333 331.712C107.118 331.471 106.745 331.168 106.055 330.951C105.381 330.734 105.198 330.851 105.171 330.865C105.096 330.924 104.947 331.1 104.889 331.62C104.829 332.393 105.03 333.452 105.336 334.453L105.321 334.453ZM102.597 327.96C103.527 327.332 104.81 327.349 106.246 327.814C107.667 328.279 108.867 329.039 109.757 330.062C110.623 331.055 111.098 332.148 111.333 333.118C111.795 335.028 111.48 336.899 111.077 338.024L110.713 339.076L102.878 337.009L102.425 335.888C101.84 334.437 101.184 332.197 101.328 330.428C101.408 329.521 101.7 328.543 102.577 327.945L102.597 327.96ZM122.042 379.826C122.987 380.315 123.537 381.348 123.279 382.134C122.897 383.274 122.08 385.034 120.843 386.744C119.622 388.454 117.898 390.201 115.683 391.214C111.606 393.065 107.086 394.032 105.279 394.291C104.382 394.413 103.344 393.775 102.94 392.862C102.535 391.949 102.931 391.106 103.809 390.969C105.405 390.737 109.677 389.826 113.483 388.105C115.192 387.324 116.641 385.9 117.741 384.352C118.845 382.819 119.549 381.252 119.859 380.333C120.117 379.548 121.088 379.308 122.037 379.811L122.042 379.826Z" fill="#B3B3B3"/>
<g opacity="0.51">
<path opacity="0.8" d="M62.6548 399.165L162.02 332.743V298.493L62.6548 240.573V399.165Z" fill="#272623"/>
</g>
<path d="M108.302 233.578L106.841 232.736L106.963 232.055L120.494 224.193L122.372 225.087L122.022 225.667L108.302 233.578Z" fill="#FDB602"/>
<path d="M120.564 224.83L122.022 225.667L122.961 225.128L120.564 223.746L105.905 232.196L106.844 232.738L120.564 224.83Z" fill="#FDB602"/>
<path d="M112.728 236.123L111.268 235.28L111.39 234.6L124.92 226.738L126.799 227.63L126.448 228.212L112.728 236.123Z" fill="#FDB602"/>
<path d="M124.991 227.372L126.448 228.212L127.387 227.67L124.991 226.291L110.332 234.741L111.271 235.283L124.991 227.372Z" fill="#FDB602"/>
<path d="M117.155 238.668L115.695 237.825L115.817 237.142L129.347 229.28L131.225 230.174L130.875 230.757L117.155 238.668Z" fill="#FDB602"/>
<path d="M129.418 229.917L130.875 230.757L131.814 230.215L129.418 228.833L114.759 237.286L115.7 237.828L129.418 229.917Z" fill="#FDB602"/>
<path d="M121.581 241.21L120.124 240.37L120.243 239.687L133.773 231.825L135.652 232.719L135.302 233.302L121.581 241.21Z" fill="#FDB602"/>
<path d="M133.847 232.461L135.302 233.302L136.244 232.76L133.847 231.377L119.185 239.831L120.127 240.373L133.847 232.461Z" fill="#FDB602"/>
<path d="M134.528 248.723L133.071 247.88L133.19 247.2L146.72 239.337L148.599 240.232L148.248 240.812L134.528 248.723Z" fill="#FDB602"/>
<path d="M146.794 239.974L148.248 240.812L149.19 240.272L146.794 238.89L132.134 247.341L133.073 247.883L146.794 239.974Z" fill="#FDB602"/>
<path d="M138.957 251.268L137.497 250.425L137.617 249.745L151.149 241.882L153.028 242.774L152.677 243.357L138.957 251.268Z" fill="#FDB602"/>
<path d="M151.22 242.516L152.678 243.356L153.617 242.814L151.22 241.435L136.561 249.886L137.5 250.428L151.22 242.516Z" fill="#FDB602"/>
<path d="M143.385 253.812L141.924 252.97L142.046 252.289L155.577 244.424L157.455 245.319L157.105 245.901L143.385 253.812Z" fill="#FDB602"/>
<path d="M155.647 245.061L157.105 245.901L158.044 245.359L155.647 243.977L140.988 252.43L141.927 252.972L155.647 245.061Z" fill="#FDB602"/>
<path d="M147.811 256.355L146.351 255.514L146.473 254.832L160.003 246.969L161.882 247.864L161.531 248.446L147.811 256.355Z" fill="#FDB602"/>
<path d="M160.074 247.606L161.531 248.446L162.47 247.904L160.074 246.522L145.415 254.975L146.354 255.517L160.074 247.606Z" fill="#FDB602"/>
<path d="M160.758 263.868L159.301 263.025L159.42 262.345L172.95 254.482L174.829 255.377L174.479 255.957L160.758 263.868Z" fill="#FDB602"/>
<path d="M173.024 255.119L174.479 255.957L175.42 255.417L173.024 254.035L158.362 262.486L159.304 263.028L173.024 255.119Z" fill="#FDB602"/>
<path d="M165.188 266.413L163.728 265.57L163.847 264.89L177.377 257.027L179.258 257.919L178.905 258.502L165.188 266.413Z" fill="#FDB602"/>
<path d="M177.451 257.664L178.905 258.502L179.847 257.962L177.451 256.58L162.792 265.031L163.731 265.573L177.451 257.664Z" fill="#FDB602"/>
<path d="M169.615 268.958L168.155 268.115L168.277 267.435L181.804 259.569L183.685 260.464L183.335 261.046L169.615 268.958Z" fill="#FDB602"/>
<path d="M181.877 260.206L183.335 261.047L184.274 260.505L181.877 259.125L167.218 267.576L168.157 268.118L181.877 260.206Z" fill="#FDB602"/>
<path d="M174.042 271.5L172.582 270.66L172.704 269.977L186.234 262.114L188.112 263.009L187.762 263.591L174.042 271.5Z" fill="#FDB602"/>
<path d="M186.304 262.751L187.762 263.591L188.701 263.049L186.304 261.667L171.645 270.12L172.584 270.662L186.304 262.751Z" fill="#FDB602"/>
<path d="M159.423 302.879C159.423 301.73 158.614 300.331 157.618 299.757C157.116 299.467 156.663 299.442 156.335 299.635L155.056 300.383L155.846 300.41C155.824 300.529 155.811 300.659 155.811 300.8C155.811 301.949 156.62 303.348 157.616 303.922C157.749 303.998 157.876 304.055 158.001 304.096L157.632 304.784L158.883 304.052C159.217 303.866 159.423 303.459 159.423 302.879Z" fill="#0D0F10"/>
<path d="M158.137 303.632C158.137 304.782 157.328 305.248 156.332 304.673C155.336 304.099 154.527 302.7 154.527 301.551C154.527 300.402 155.336 299.936 156.332 300.51C157.328 301.085 158.137 302.483 158.137 303.632Z" fill="#0D0F10"/>
<path d="M157.369 303.191C157.369 303.852 156.904 304.12 156.329 303.79C155.756 303.459 155.29 302.654 155.29 301.993C155.29 301.332 155.754 301.063 156.329 301.394C156.904 301.725 157.369 302.529 157.369 303.191Z" fill="#0D0F10"/>
<path d="M70.116 251.685C70.116 250.536 69.3072 249.138 68.3111 248.563C67.8091 248.273 67.3558 248.249 67.0274 248.441L65.749 249.189L66.5389 249.216C66.5144 249.335 66.5036 249.465 66.5036 249.606C66.5036 250.756 67.3124 252.154 68.3085 252.729C68.4416 252.804 68.5691 252.861 68.694 252.902L68.3248 253.59L69.5761 252.859C69.9099 252.669 70.116 252.265 70.116 251.685Z" fill="#0D0F10"/>
<path d="M68.8265 252.436C68.8265 253.585 68.0178 254.051 67.0217 253.477C66.0256 252.902 65.2168 251.504 65.2168 250.355C65.2168 249.205 66.0256 248.739 67.0217 249.314C68.0178 249.888 68.8265 251.287 68.8265 252.436Z" fill="#0D0F10"/>
<path d="M68.0614 251.994C68.0614 252.655 67.5973 252.924 67.0219 252.593C66.4492 252.262 65.9824 251.457 65.9824 250.796C65.9824 250.135 66.4465 249.867 67.0219 250.197C67.5946 250.528 68.0614 251.333 68.0614 251.994Z" fill="#0D0F10"/>
<path d="M159.423 476.263C159.423 475.114 158.614 473.716 157.618 473.141C157.116 472.851 156.662 472.827 156.334 473.019L155.056 473.767C155.381 473.58 155.832 473.607 156.329 473.894C157.325 474.469 158.134 475.868 158.134 477.017C158.134 477.57 157.944 477.96 157.639 478.155L158.885 477.434C159.216 477.247 159.423 476.841 159.423 476.263Z" fill="#0D0F10"/>
<path d="M157.618 477.304C157.493 477.231 157.371 477.147 157.252 477.049C157.078 477.336 156.733 477.404 156.331 477.171C155.759 476.84 155.292 476.036 155.292 475.374C155.292 474.914 155.52 474.648 155.854 474.64C155.827 474.485 155.813 474.331 155.813 474.179C155.813 474.038 155.827 473.908 155.848 473.789L155.058 473.762C154.73 473.949 154.526 474.353 154.526 474.93C154.526 476.079 155.335 477.477 156.331 478.052C156.85 478.35 157.314 478.364 157.642 478.15L158.006 477.472C157.878 477.437 157.748 477.38 157.618 477.304Z" fill="#0D0F10"/>
<path d="M158.136 477.014C158.136 475.865 157.327 474.466 156.331 473.892C155.834 473.605 155.384 473.577 155.058 473.764L155.848 473.792C155.826 473.911 155.813 474.041 155.813 474.182C155.813 474.331 155.829 474.485 155.853 474.643C155.997 474.64 156.157 474.678 156.331 474.778C156.904 475.109 157.371 475.914 157.371 476.575C157.371 476.773 157.325 476.93 157.251 477.052C157.371 477.15 157.493 477.234 157.618 477.307C157.751 477.383 157.878 477.44 158.003 477.48L157.639 478.158C157.946 477.957 158.136 477.567 158.136 477.014Z" fill="#0D0F10"/>
<path d="M158.136 477.014C158.136 475.865 157.327 474.466 156.331 473.892C155.834 473.605 155.384 473.577 155.058 473.764L155.848 473.792C155.826 473.911 155.813 474.041 155.813 474.182C155.813 474.331 155.829 474.485 155.853 474.643C155.997 474.64 156.157 474.678 156.331 474.778C156.904 475.109 157.371 475.914 157.371 476.575C157.371 476.773 157.325 476.93 157.251 477.052C157.371 477.15 157.493 477.234 157.618 477.307C157.751 477.383 157.878 477.44 158.003 477.48L157.639 478.158C157.946 477.957 158.136 477.567 158.136 477.014Z" fill="#0D0F10"/>
<path d="M155.292 475.374C155.292 476.036 155.756 476.84 156.331 477.171C156.733 477.404 157.08 477.336 157.251 477.049C156.551 476.48 156.003 475.531 155.853 474.64C155.519 474.648 155.292 474.913 155.292 475.374Z" fill="#0D0F10"/>
<path d="M157.248 477.049C157.322 476.927 157.368 476.77 157.368 476.572C157.368 475.911 156.904 475.106 156.328 474.775C156.155 474.675 155.995 474.637 155.851 474.64C156 475.529 156.551 476.48 157.248 477.049Z" fill="#0D0F10"/>
<path d="M68.3077 421.945C67.8057 421.655 67.3524 421.63 67.024 421.823L65.7456 422.571C66.0712 422.384 66.5219 422.411 67.0186 422.698C68.0147 423.273 68.8235 424.671 68.8235 425.82C68.8235 426.373 68.6335 426.764 68.3294 426.959L69.5752 426.238C69.9063 426.051 70.1098 425.647 70.1098 425.067C70.1154 423.918 69.3066 422.519 68.3077 421.945Z" fill="#0D0F10"/>
<path d="M68.3079 426.108C68.183 426.035 68.0581 425.951 67.9415 425.853C67.7706 426.14 67.4231 426.208 67.0213 425.975C66.4487 425.644 65.9819 424.839 65.9819 424.178C65.9819 423.717 66.2126 423.452 66.5437 423.444C66.5165 423.286 66.503 423.134 66.503 422.983C66.503 422.842 66.5165 422.712 66.5382 422.592L65.7484 422.565C65.42 422.753 65.2163 423.156 65.2163 423.733C65.2163 424.883 66.0251 426.281 67.0212 426.858C67.5395 427.156 68.0038 427.17 68.3322 426.956L68.6959 426.278C68.571 426.24 68.4407 426.184 68.3079 426.108Z" fill="#0D0F10"/>
<path d="M68.8264 425.821C68.8264 424.671 68.0176 423.273 67.0215 422.698C66.5248 422.411 66.0743 422.384 65.7485 422.571L66.5384 422.598C66.5167 422.717 66.5032 422.847 66.5032 422.988C66.5032 423.137 66.5167 423.292 66.5439 423.449C66.6877 423.446 66.8479 423.484 67.0217 423.585C67.5943 423.915 68.0612 424.72 68.0612 425.381C68.0612 425.579 68.015 425.737 67.9416 425.859C68.0612 425.956 68.1831 426.04 68.308 426.113C68.4411 426.189 68.5686 426.246 68.6935 426.287L68.3297 426.964C68.6364 426.761 68.8264 426.371 68.8264 425.821Z" fill="#0D0F10"/>
<path d="M68.8264 425.821C68.8264 424.671 68.0176 423.273 67.0215 422.698C66.5248 422.411 66.0743 422.384 65.7485 422.571L66.5384 422.598C66.5167 422.717 66.5032 422.847 66.5032 422.988C66.5032 423.137 66.5167 423.292 66.5439 423.449C66.6877 423.446 66.8479 423.484 67.0217 423.585C67.5943 423.915 68.0612 424.72 68.0612 425.381C68.0612 425.579 68.015 425.737 67.9416 425.859C68.0612 425.956 68.1831 426.04 68.308 426.113C68.4411 426.189 68.5686 426.246 68.6935 426.287L68.3297 426.964C68.6364 426.761 68.8264 426.371 68.8264 425.821Z" fill="#0D0F10"/>
<path d="M65.9819 424.178C65.9819 424.839 66.446 425.644 67.0214 425.975C67.4232 426.208 67.7705 426.14 67.9415 425.853C67.244 425.284 66.693 424.335 66.5437 423.443C66.2127 423.454 65.9819 423.717 65.9819 424.178Z" fill="#0D0F10"/>
<path d="M67.9417 425.853C68.015 425.731 68.0612 425.574 68.0612 425.376C68.0612 424.715 67.5971 423.91 67.0217 423.579C66.848 423.479 66.6879 423.441 66.5439 423.443C66.6931 424.335 67.2441 425.284 67.9417 425.853Z" fill="#0D0F10"/>
<path d="M175.075 308.888L221.151 282.365L221.045 441.559L174.967 468.081L175.075 308.888Z" fill="#F0F0F0"/>
<path opacity="0.8" d="M221.045 441.558L174.969 468.081L174.967 471.49L224.001 443.266L224.112 280.663L221.151 282.365L221.045 441.558Z" fill="#272623"/>
<path d="M211.665 364.707L215.481 362.512L215.478 366.913L211.66 369.108L211.665 364.707Z" fill="#FDB602"/>
<path opacity="0.1" d="M204.027 369.1L207.846 366.902L207.841 371.304L204.022 373.499L204.027 369.1Z" fill="#FDB602"/>
<path opacity="0.4" d="M196.39 373.491L200.209 371.295L200.203 375.697L196.384 377.892L196.39 373.491Z" fill="#FDB602"/>
<path d="M188.752 377.884L192.571 375.686L192.566 380.087L188.747 382.283L188.752 377.884Z" fill="#FDB602"/>
<path opacity="0.4" d="M181.114 382.275L184.933 380.08L184.928 384.478L181.109 386.676L181.114 382.275Z" fill="#FDB602"/>
<path d="M211.673 355.872L215.492 353.677L215.486 358.075L211.667 360.273L211.673 355.872Z" fill="#FDB602"/>
<path d="M204.035 360.265L207.854 358.067L207.849 362.469L204.03 364.664L204.035 360.265Z" fill="#FDB602"/>
<path d="M196.398 364.656L200.217 362.46L200.214 366.859L196.395 369.057L196.398 364.656Z" fill="#FDB602"/>
<path d="M188.763 369.046L192.579 366.851L192.576 371.252L188.757 373.448L188.763 369.046Z" fill="#FDB602"/>
<path d="M181.125 373.439L184.944 371.244L184.939 375.643L181.12 377.841L181.125 373.439Z" fill="#FDB602"/>
<path d="M211.684 347.037L215.503 344.841L215.497 349.24L211.678 351.435L211.684 347.037Z" fill="#FDB602"/>
<path d="M204.046 351.427L207.865 349.232L207.859 353.631L204.041 355.829L204.046 351.427Z" fill="#FDB602"/>
<path d="M196.408 355.82L200.227 353.625L200.222 358.024L196.403 360.219L196.408 355.82Z" fill="#FDB602"/>
<path opacity="0.1" d="M188.771 360.211L192.589 358.016L192.584 362.417L188.765 364.612L188.771 360.211Z" fill="#FDB602"/>
<path opacity="0.4" d="M181.133 364.604L184.952 362.409L184.947 366.808L181.13 369.003L181.133 364.604Z" fill="#FDB602"/>
<path opacity="0.4" d="M211.692 338.198L215.511 336.003L215.505 340.404L211.687 342.6L211.692 338.198Z" fill="#FDB602"/>
<path opacity="0.4" d="M204.055 342.592L207.873 340.396L207.868 344.795L204.052 346.99L204.055 342.592Z" fill="#FDB602"/>
<path opacity="0.1" d="M196.417 346.985L200.236 344.787L200.233 349.188L196.414 351.383L196.417 346.985Z" fill="#FDB602"/>
<path d="M188.782 351.376L192.601 349.18L192.595 353.579L188.776 355.774L188.782 351.376Z" fill="#FDB602"/>
<path d="M181.144 355.769L184.963 353.571L184.957 357.972L181.139 360.168L181.144 355.769Z" fill="#FDB602"/>
<path d="M211.703 329.363L215.522 327.168L215.516 331.569L211.697 333.765L211.703 329.363Z" fill="#FDB602"/>
<path d="M204.065 333.757L207.884 331.559L207.878 335.96L204.06 338.155L204.065 333.757Z" fill="#FDB602"/>
<path d="M196.427 338.147L200.246 335.952L200.241 340.353L196.422 342.548L196.427 338.147Z" fill="#FDB602"/>
<path d="M188.79 342.54L192.608 340.342L192.603 344.744L188.784 346.939L188.79 342.54Z" fill="#FDB602"/>
<path d="M181.152 346.931L184.971 344.736L184.968 349.134L181.149 351.332L181.152 346.931Z" fill="#FDB602"/>
<path d="M211.711 320.528L215.53 318.333L215.524 322.731L211.706 324.929L211.711 320.528Z" fill="#FDB602"/>
<path d="M204.074 324.921L207.893 322.723L207.89 327.125L204.071 329.32L204.074 324.921Z" fill="#FDB602"/>
<path opacity="0.4" d="M196.438 329.311L200.257 327.116L200.252 331.515L196.433 333.713L196.438 329.311Z" fill="#FDB602"/>
<path d="M188.801 333.702L192.62 331.507L192.614 335.908L188.795 338.104L188.801 333.702Z" fill="#FDB602"/>
<path opacity="0.1" d="M181.163 338.096L184.982 335.9L184.977 340.299L181.158 342.497L181.163 338.096Z" fill="#FDB602"/>
<path d="M211.722 311.692L215.541 309.497L215.535 313.896L211.716 316.091L211.722 311.692Z" fill="#FDB602"/>
<path d="M204.084 316.083L207.903 313.888L207.897 318.289L204.079 320.484L204.084 316.083Z" fill="#FDB602"/>
<path opacity="0.4" d="M196.446 320.476L200.265 318.281L200.26 322.679L196.441 324.875L196.446 320.476Z" fill="#FDB602"/>
<path d="M188.809 324.867L192.628 322.671L192.622 327.073L188.806 329.268L188.809 324.867Z" fill="#FDB602"/>
<path d="M181.171 329.26L184.99 327.065L184.987 331.464L181.168 333.659L181.171 329.26Z" fill="#FDB602"/>
<path d="M211.73 302.857L215.549 300.659L215.544 305.061L211.728 307.256L211.73 302.857Z" fill="#FDB602"/>
<path opacity="0.4" d="M204.095 307.248L207.911 305.053L207.909 309.451L204.09 311.649L204.095 307.248Z" fill="#FDB602"/>
<path d="M196.458 311.641L200.276 309.443L200.271 313.844L196.452 316.039L196.458 311.641Z" fill="#FDB602"/>
<path d="M188.82 316.032L192.639 313.836L192.633 318.235L188.814 320.433L188.82 316.032Z" fill="#FDB602"/>
<path d="M181.182 320.425L185.001 318.227L184.996 322.628L181.177 324.824L181.182 320.425Z" fill="#FDB602"/>
<path d="M211.741 294.019L215.56 291.824L215.554 296.225L211.735 298.42L211.741 294.019Z" fill="#FDB602"/>
<path opacity="0.1" d="M204.103 298.412L207.922 296.217L207.917 300.615L204.098 302.811L204.103 298.412Z" fill="#FDB602"/>
<path d="M196.465 302.803L200.284 300.607L200.279 305.009L196.46 307.204L196.465 302.803Z" fill="#FDB602"/>
<path d="M188.828 307.196L192.647 305.001L192.644 309.4L188.825 311.595L188.828 307.196Z" fill="#FDB602"/>
<path d="M181.193 311.586L185.009 309.391L185.006 313.793L181.188 315.988L181.193 311.586Z" fill="#FDB602"/>
<path d="M211.673 434.68L215.492 432.485L215.487 436.883L211.668 439.081L211.673 434.68Z" fill="#FDB602"/>
<path d="M204.036 439.074L207.855 436.875L207.849 441.277L204.03 443.472L204.036 439.074Z" fill="#FDB602"/>
<path d="M196.398 443.464L200.217 441.269L200.214 445.667L196.396 447.865L196.398 443.464Z" fill="#FDB602"/>
<path d="M188.763 447.857L192.579 445.659L192.577 450.061L188.758 452.256L188.763 447.857Z" fill="#FDB602"/>
<path d="M181.126 452.248L184.944 450.052L184.939 454.451L181.12 456.649L181.126 452.248Z" fill="#FDB602"/>
<path d="M211.684 425.845L215.503 423.649L215.498 428.048L211.679 430.243L211.684 425.845Z" fill="#FDB602"/>
<path d="M204.046 430.235L207.865 428.04L207.86 432.441L204.041 434.637L204.046 430.235Z" fill="#FDB602"/>
<path d="M196.409 434.628L200.227 432.433L200.222 436.832L196.403 439.027L196.409 434.628Z" fill="#FDB602"/>
<path opacity="0.1" d="M188.771 439.019L192.59 436.824L192.584 441.225L188.766 443.42L188.771 439.019Z" fill="#FDB602"/>
<path opacity="0.4" d="M181.134 443.413L184.952 441.217L184.947 445.616L181.131 447.811L181.134 443.413Z" fill="#FDB602"/>
<path opacity="0.4" d="M211.692 417.009L215.511 414.811L215.506 419.213L211.687 421.408L211.692 417.009Z" fill="#FDB602"/>
<path opacity="0.4" d="M204.055 421.4L207.874 419.205L207.868 423.603L204.052 425.801L204.055 421.4Z" fill="#FDB602"/>
<path opacity="0.1" d="M196.417 425.793L200.236 423.595L200.233 427.996L196.415 430.191L196.417 425.793Z" fill="#FDB602"/>
<path d="M188.782 430.184L192.601 427.988L192.596 432.387L188.777 434.585L188.782 430.184Z" fill="#FDB602"/>
<path d="M181.145 434.577L184.963 432.379L184.958 436.78L181.139 438.976L181.145 434.577Z" fill="#FDB602"/>
<path d="M211.703 408.171L215.522 405.976L215.517 410.377L211.698 412.572L211.703 408.171Z" fill="#FDB602"/>
<path d="M204.065 412.564L207.884 410.369L207.879 414.767L204.06 416.963L204.065 412.564Z" fill="#FDB602"/>
<path d="M196.428 416.955L200.247 414.759L200.241 419.161L196.422 421.356L196.428 416.955Z" fill="#FDB602"/>
<path d="M188.79 421.348L192.609 419.153L192.603 423.552L188.785 425.747L188.79 421.348Z" fill="#FDB602"/>
<path d="M181.153 425.739L184.971 423.543L184.969 427.945L181.15 430.14L181.153 425.739Z" fill="#FDB602"/>
<path d="M211.711 399.336L215.53 397.141L215.525 401.539L211.706 403.737L211.711 399.336Z" fill="#FDB602"/>
<path d="M204.074 403.729L207.893 401.531L207.89 405.933L204.071 408.128L204.074 403.729Z" fill="#FDB602"/>
<path opacity="0.4" d="M196.439 408.12L200.258 405.924L200.252 410.323L196.434 412.521L196.439 408.12Z" fill="#FDB602"/>
<path d="M188.801 412.513L192.62 410.315L192.615 414.716L188.796 416.912L188.801 412.513Z" fill="#FDB602"/>
<path opacity="0.1" d="M181.164 416.904L184.983 414.708L184.977 419.107L181.158 421.305L181.164 416.904Z" fill="#FDB602"/>
<path d="M211.722 390.5L215.541 388.305L215.536 392.704L211.717 394.899L211.722 390.5Z" fill="#FDB602"/>
<path d="M204.084 394.891L207.903 392.696L207.898 397.097L204.079 399.293L204.084 394.891Z" fill="#FDB602"/>
<path opacity="0.4" d="M196.447 399.284L200.266 397.089L200.26 401.488L196.441 403.683L196.447 399.284Z" fill="#FDB602"/>
<path d="M188.809 403.675L192.628 401.479L192.623 405.881L188.807 408.076L188.809 403.675Z" fill="#FDB602"/>
<path d="M181.172 408.068L184.99 405.873L184.988 410.272L181.169 412.467L181.172 408.068Z" fill="#FDB602"/>
<path d="M211.731 381.665L215.55 379.467L215.544 383.869L211.728 386.064L211.731 381.665Z" fill="#FDB602"/>
<path opacity="0.4" d="M204.096 386.056L207.912 383.861L207.909 388.262L204.09 390.457L204.096 386.056Z" fill="#FDB602"/>
<path d="M196.458 390.449L200.277 388.251L200.271 392.652L196.453 394.848L196.458 390.449Z" fill="#FDB602"/>
<path d="M188.82 394.84L192.639 392.645L192.634 397.043L188.815 399.241L188.82 394.84Z" fill="#FDB602"/>
<path d="M181.183 399.233L185.001 397.035L184.996 401.436L181.177 403.632L181.183 399.233Z" fill="#FDB602"/>
<path d="M211.741 372.83L215.56 370.632L215.555 375.033L211.736 377.228L211.741 372.83Z" fill="#FDB602"/>
<path opacity="0.1" d="M204.104 377.22L207.922 375.025L207.917 379.424L204.098 381.622L204.104 377.22Z" fill="#FDB602"/>
<path d="M196.466 381.611L200.285 379.416L200.279 383.817L196.46 386.012L196.466 381.611Z" fill="#FDB602"/>
<path d="M188.828 386.004L192.647 383.809L192.645 388.208L188.826 390.406L188.828 386.004Z" fill="#FDB602"/>
<path d="M181.194 390.394L185.01 388.199L185.007 392.601L181.188 394.796L181.194 390.394Z" fill="#FDB602"/>
<defs>
<filter id="filter0_i_1045_18169" x="461" y="466" width="94" height="55" filterUnits="userSpaceOnUse" color-interpolation-filters="sRGB">
<feFlood flood-opacity="0" result="BackgroundImageFix"/>
<feBlend mode="normal" in="SourceGraphic" in2="BackgroundImageFix" result="shape"/>
<feColorMatrix in="SourceAlpha" type="matrix" values="0 0 0 0 0 0 0 0 0 0 0 0 0 0 0 0 0 0 127 0" result="hardAlpha"/>
<feOffset dy="2"/>
<feComposite in2="hardAlpha" operator="arithmetic" k2="-1" k3="1"/>
<feColorMatrix type="matrix" values="0 0 0 0 0 0 0 0 0 0 0 0 0 0 0 0 0 0 0.11 0"/>
<feBlend mode="normal" in2="shape" result="effect1_innerShadow_1045_18169"/>
</filter>
</defs>
</svg>
