<svg width="863" height="649" viewBox="0 0 863 649" fill="none" xmlns="http://www.w3.org/2000/svg">
<g clip-path="url(#clip0_1071_20901)">
<path d="M618.472 421.508C623.751 424.561 623.77 429.494 618.531 432.547L338.644 595.388C333.404 598.441 324.899 598.422 319.621 595.388L150.684 497.742C145.405 494.689 145.366 489.756 150.605 486.703L430.493 323.862C435.732 320.809 444.256 320.809 449.535 323.862L618.472 421.508Z" fill="#2D4483"/>
<path d="M618.531 432.292L338.644 595.133C333.404 598.186 324.899 598.167 319.621 595.133L150.684 497.487C148.025 495.941 146.695 493.945 146.695 491.929L146.637 515.611C146.637 517.627 147.966 519.643 150.625 521.17L319.562 618.816C324.841 621.869 333.345 621.869 338.585 618.816L618.472 455.975C621.072 454.468 622.382 452.471 622.382 450.494L622.441 426.812C622.441 428.789 621.131 430.785 618.531 432.292Z" fill="#0D0D0D"/>
<path d="M371.489 576.266L338.702 595.349C333.463 598.402 324.958 598.383 319.699 595.349L150.762 497.703C145.503 494.669 145.464 489.737 150.703 486.684L183.49 467.601L371.508 576.266H371.489Z" fill="#EAEAEA"/>
<path d="M601.913 442.196L371.489 576.266L183.47 467.601L413.894 333.531L601.913 442.196Z" fill="#262626"/>
<path d="M618.277 421.626C623.536 424.659 623.809 429.474 618.57 432.508L601.913 442.196L413.894 333.531L430.551 323.843C435.791 320.79 444.061 320.946 449.32 323.98L618.277 421.626Z" fill="#EAEAEA"/>
<path d="M245.055 525.3C252.64 520.916 264.918 520.916 272.504 525.3C280.089 529.684 280.089 536.789 272.504 541.173C264.918 545.557 252.64 545.557 245.055 541.173C237.469 536.789 237.469 529.684 245.055 525.3Z" fill="#FDB602"/>
<path d="M288.32 591.141C288.32 588.929 289.865 588.029 291.781 589.144C293.697 590.26 295.241 592.941 295.241 595.153C295.241 597.364 293.697 598.265 291.781 597.149C289.865 596.034 288.32 593.352 288.32 591.141Z" fill="#FDB602"/>
<path d="M583.731 464.763C583.731 461.396 586.096 457.306 589.009 455.623C591.922 453.939 594.288 455.31 594.288 458.676C594.288 462.042 591.922 466.133 589.009 467.816C586.096 469.499 583.731 468.129 583.731 464.763Z" fill="#FDB602"/>
<path d="M565.333 475.136C565.333 471.77 567.699 467.679 570.612 465.996C573.525 464.312 575.891 465.683 575.891 469.049C575.891 472.415 573.525 476.506 570.612 478.189C567.699 479.872 565.333 478.502 565.333 475.136Z" fill="#FDB602"/>
<path d="M462.742 -4.59492L482.333 -16L542.234 33.5854L522.665 44.9692L462.742 -4.59492Z" fill="#CC8E02"/>
<path d="M522.665 44.9691L542.234 33.5854L603.349 18.3218L583.779 29.7269L522.665 44.9691Z" fill="#EDA107"/>
<path d="M583.779 29.7269L603.349 18.3218L663.059 74.3026L643.468 85.6863L583.779 29.7269Z" fill="#CC8E02"/>
<path d="M682.607 32.3489L702.176 20.9438L779.837 79.3123L760.246 90.7173L682.607 32.3489Z" fill="#CC8E02"/>
<path d="M824.449 79.248L844.018 67.8643L843.103 394.604L823.512 406.009L824.449 79.248Z" fill="#CC8E02"/>
<path d="M824.449 79.2486L823.512 406.009L462.167 197.137L462.742 -4.59473L522.665 44.9694L583.779 29.7271L643.468 85.6866L682.607 32.3492L760.246 90.7176L824.449 79.2486Z" fill="#FDB602"/>
<path d="M760.246 90.717L779.837 79.312L844.018 67.8643L824.449 79.248L760.246 90.717Z" fill="#EDA107"/>
<path d="M682.607 32.626V321.91" stroke="white" stroke-width="0.49" stroke-linecap="round" stroke-linejoin="round"/>
<path d="M583.779 30.0039V267.635" stroke="white" stroke-width="0.49" stroke-linecap="round" stroke-linejoin="round"/>
<path d="M760.246 90.9941V367.828" stroke="white" stroke-width="0.49" stroke-linecap="round" stroke-linejoin="round"/>
<path d="M522.665 45.2676V231.778" stroke="white" stroke-width="0.49" stroke-linecap="round" stroke-linejoin="round"/>
<path d="M757.009 89.1185C757.009 87.0507 758.457 86.2193 760.246 87.2426C762.035 88.2658 763.483 90.7813 763.483 92.8278C763.483 94.8744 762.035 95.7271 760.246 94.7038C758.457 93.6806 757.009 91.1651 757.009 89.1185Z" fill="white"/>
<path d="M679.37 30.7499C679.37 28.682 680.818 27.8506 682.607 28.8739C684.395 29.8972 685.843 32.4127 685.843 34.4592C685.843 36.5057 684.395 37.3584 682.607 36.3352C680.818 35.3119 679.37 32.7964 679.37 30.7499Z" fill="white"/>
<path d="M580.543 28.1493C580.543 26.0815 581.991 25.2501 583.78 26.2733C585.568 27.2966 587.016 29.8121 587.016 31.8586C587.016 33.9051 585.568 34.7578 583.78 33.7346C581.991 32.7113 580.543 30.1958 580.543 28.1493Z" fill="white"/>
<path d="M519.428 43.3915C519.428 41.3236 520.876 40.4922 522.665 41.5155C524.453 42.5388 525.901 45.0543 525.901 47.1008C525.901 49.1473 524.453 50 522.665 48.9768C520.876 47.9535 519.428 45.438 519.428 43.3915Z" fill="white"/>
<path d="M759.416 148.552L721.128 80.8682L682.841 104.297L703.795 116.405V275.287L738.462 295.326V136.444L759.416 148.552Z" fill="url(#paint0_linear_1071_20901)"/>
<path d="M429.289 38.7234L448.879 27.3184L501.391 102.784L481.801 114.167L429.289 38.7234Z" fill="#8C8C8C"/>
<path d="M481.801 114.167L501.391 102.784L569.704 116.406L550.113 127.79L481.801 114.167Z" fill="#BFBFBF"/>
<path d="M550.113 127.79L569.704 116.406L666.785 228.644L647.194 240.028L550.113 127.79Z" fill="#8C8C8C"/>
<path d="M647.194 240.028L666.785 228.644L724.727 214.063L705.157 225.468L647.194 240.028Z" fill="#BFBFBF"/>
<path d="M429.289 38.7231L481.801 114.167L550.113 127.789L647.194 240.028L705.157 225.468L789.206 286.906L788.802 429.374L428.778 221.29L429.289 38.7231Z" fill="#D9D9D9"/>
<path d="M705.157 225.468L724.727 214.063L808.776 275.523L789.206 286.906L705.157 225.468Z" fill="#8C8C8C"/>
<path d="M789.206 286.906L808.776 275.522L808.393 417.99L788.802 429.374L789.206 286.906Z" fill="#8C8C8C"/>
<path d="M550.113 128.067V290.85" stroke="white" stroke-width="0.49" stroke-linecap="round" stroke-linejoin="round"/>
<path d="M705.157 225.745V383.284" stroke="white" stroke-width="0.49" stroke-linecap="round" stroke-linejoin="round"/>
<path d="M481.801 114.444V253.394" stroke="white" stroke-width="0.49" stroke-linecap="round" stroke-linejoin="round"/>
<path d="M647.194 240.327V345.68" stroke="white" stroke-width="0.49" stroke-linecap="round" stroke-linejoin="round"/>
<path d="M478.585 112.59C478.585 110.522 480.033 109.69 481.822 110.714C483.611 111.737 485.059 114.253 485.059 116.299C485.059 118.346 483.611 119.198 481.822 118.175C480.033 117.152 478.585 114.636 478.585 112.59Z" fill="white"/>
<path d="M546.898 126.212C546.898 124.144 548.346 123.313 550.134 124.336C551.923 125.36 553.371 127.875 553.371 129.922C553.371 131.968 551.923 132.821 550.134 131.798C548.346 130.774 546.898 128.259 546.898 126.212Z" fill="white"/>
<path d="M643.979 238.451C643.979 236.383 645.427 235.551 647.215 236.575C649.004 237.598 650.452 240.113 650.452 242.16C650.452 244.206 649.004 245.059 647.215 244.036C645.427 243.013 643.979 240.497 643.979 238.451Z" fill="white"/>
<path d="M701.921 223.869C701.921 221.801 703.369 220.97 705.157 221.993C706.946 223.016 708.394 225.532 708.394 227.578C708.394 229.625 706.946 230.478 705.157 229.454C703.369 228.431 701.921 225.916 701.921 223.869Z" fill="white"/>
<path d="M384.613 180.551L404.204 169.167L451.307 172.365L431.716 183.749L384.613 180.551Z" fill="#EDA107"/>
<path d="M431.716 183.749L451.307 172.366L509.909 238.131L490.318 249.537L431.716 183.749Z" fill="#CC8E02"/>
<path d="M490.318 249.536L509.909 238.131L571.045 246.061L551.454 257.466L490.318 249.536Z" fill="#EDA107"/>
<path d="M551.454 257.467L571.045 246.062L626.113 289.23L606.522 300.635L551.454 257.467Z" fill="#CC8E02"/>
<path d="M606.522 300.636L626.113 289.23L698.322 294.539L678.752 305.922L606.522 300.636Z" fill="#EDA107"/>
<path d="M744.722 360.581L764.292 349.197L764.036 444.552L744.446 455.936L744.722 360.581Z" fill="#CC8E02"/>
<path d="M678.752 305.922L698.322 294.539L764.292 349.198L744.722 360.581L678.752 305.922Z" fill="#CC8E02"/>
<path d="M678.752 305.922L744.722 360.581L744.446 455.936L384.421 247.852L384.613 180.552L431.716 183.749L490.318 249.536L551.454 257.467L606.522 300.635L678.752 305.922Z" fill="#FDB602"/>
<path d="M431.716 184.026V273.625" stroke="white" stroke-width="0.49" stroke-linecap="round" stroke-linejoin="round"/>
<path d="M551.454 257.744V343.442" stroke="white" stroke-width="0.49" stroke-linecap="round" stroke-linejoin="round"/>
<path d="M678.752 306.22V416.817" stroke="white" stroke-width="0.49" stroke-linecap="round" stroke-linejoin="round"/>
<path d="M606.522 300.912V375.205" stroke="white" stroke-width="0.49" stroke-linecap="round" stroke-linejoin="round"/>
<path d="M490.318 249.813V309.333" stroke="white" stroke-width="0.49" stroke-linecap="round" stroke-linejoin="round"/>
<path d="M675.516 303.47C675.516 301.402 676.964 300.571 678.752 301.594C680.541 302.617 681.989 305.133 681.989 307.179C681.989 309.226 680.541 310.079 678.752 309.055C676.964 308.032 675.516 305.517 675.516 303.47Z" fill="white"/>
<path d="M548.239 255.868C548.239 253.8 549.687 252.969 551.476 253.992C553.264 255.015 554.712 257.531 554.712 259.577C554.712 261.624 553.264 262.477 551.476 261.453C549.687 260.43 548.239 257.915 548.239 255.868Z" fill="white"/>
<path d="M433.98 187.854C435.242 187.124 435.246 184.763 433.988 182.581C432.729 180.399 430.685 179.222 429.423 179.952C428.16 180.682 428.156 183.043 429.414 185.225C430.673 187.407 432.717 188.584 433.98 187.854Z" fill="white"/>
<path d="M608.779 305.076C610.042 304.346 610.045 301.985 608.787 299.803C607.529 297.621 605.485 296.444 604.222 297.174C602.959 297.904 602.955 300.264 604.214 302.446C605.472 304.628 607.516 305.805 608.779 305.076Z" fill="white"/>
<path d="M487.103 247.937C487.103 245.87 488.551 245.038 490.34 246.061C492.128 247.085 493.576 249.6 493.576 251.647C493.576 253.693 492.128 254.546 490.34 253.523C488.551 252.499 487.103 249.984 487.103 247.937Z" fill="white"/>
<path d="M214.527 295.09C218.673 292.697 222.048 294.627 222.048 299.376L222.202 353.991C222.202 358.759 218.866 364.57 214.72 366.964L131.664 414.957L140.708 398.258L140.554 346.481C140.554 341.713 143.89 335.902 148.036 333.508L214.508 295.09H214.527Z" fill="#E1E1E1"/>
<path opacity="0.8" d="M217.42 294.087C217.42 294.087 217.497 294.087 217.535 294.087C217.96 294.048 218.365 294.087 218.75 294.144C218.77 294.144 218.789 294.144 218.808 294.144C219.194 294.222 219.56 294.357 219.888 294.55L213.929 291.075C213.929 291.075 213.91 291.075 213.891 291.056C213.775 290.978 213.64 290.92 213.505 290.863C213.37 290.805 213.235 290.766 213.1 290.727C213.004 290.708 212.927 290.689 212.83 290.67C212.811 290.67 212.792 290.67 212.772 290.67C212.734 290.67 212.714 290.67 212.676 290.65C212.522 290.631 212.387 290.612 212.213 290.592C212.059 290.592 211.885 290.592 211.712 290.592C211.654 290.592 211.596 290.592 211.538 290.592C211.5 290.592 211.461 290.592 211.422 290.592C211.326 290.592 211.23 290.592 211.133 290.612C210.921 290.65 210.69 290.689 210.477 290.747C210.381 290.766 210.285 290.824 210.188 290.843C210.092 290.863 210.015 290.901 209.918 290.94C209.802 290.978 209.706 291.017 209.59 291.056C209.243 291.191 208.896 291.365 208.549 291.577L142.077 329.994C141.595 330.265 141.132 330.612 140.67 330.979C140.515 331.095 140.38 331.23 140.245 331.365C140.033 331.558 139.802 331.732 139.59 331.944C139.493 332.041 139.397 332.156 139.3 332.253C139.223 332.35 139.127 332.427 139.05 332.523C138.953 332.62 138.857 332.716 138.76 332.832C138.548 333.064 138.355 333.315 138.143 333.566C138.066 333.662 138.008 333.74 137.951 333.836C137.912 333.875 137.873 333.933 137.854 333.971C137.796 334.068 137.719 334.145 137.661 334.241C137.507 334.454 137.372 334.666 137.218 334.898C137.083 335.11 136.948 335.323 136.832 335.535C136.832 335.535 136.813 335.574 136.793 335.593C136.793 335.593 136.793 335.631 136.774 335.631C136.678 335.805 136.581 335.979 136.485 336.153C136.369 336.365 136.273 336.577 136.157 336.79C136.061 336.983 135.984 337.176 135.887 337.369C135.887 337.369 135.887 337.388 135.887 337.407C135.887 337.407 135.887 337.427 135.887 337.446C135.791 337.678 135.694 337.89 135.617 338.122C135.521 338.353 135.444 338.585 135.366 338.836C135.328 338.952 135.289 339.068 135.251 339.184C135.251 339.242 135.212 339.28 135.212 339.338C135.193 339.415 135.154 339.512 135.135 339.589C135.058 339.879 134.981 340.168 134.923 340.458C134.884 340.631 134.865 340.805 134.827 340.979C134.827 341.075 134.788 341.153 134.788 341.249C134.788 341.326 134.749 341.423 134.749 341.5C134.692 342.002 134.653 342.485 134.653 342.967L134.807 394.744L125.763 411.443L131.722 414.918L140.766 398.219L140.612 346.442C140.612 345.882 140.67 345.303 140.747 344.724C140.747 344.628 140.785 344.55 140.785 344.454C140.882 343.913 140.997 343.373 141.171 342.813C141.171 342.755 141.21 342.716 141.21 342.659C141.383 342.06 141.614 341.462 141.865 340.882C141.865 340.882 141.865 340.863 141.865 340.844C142.135 340.245 142.424 339.666 142.752 339.087C142.752 339.087 142.752 339.048 142.772 339.029C143.099 338.469 143.446 337.948 143.813 337.427C143.851 337.388 143.89 337.33 143.909 337.292C144.256 336.828 144.623 336.384 145.008 335.979C145.086 335.882 145.182 335.805 145.259 335.709C145.568 335.4 145.876 335.11 146.204 334.821C146.358 334.685 146.493 334.55 146.648 334.434C147.11 334.068 147.573 333.74 148.055 333.45L214.527 295.032C215.009 294.762 215.453 294.55 215.916 294.395C216.012 294.357 216.089 294.338 216.185 294.299C216.61 294.164 217.015 294.067 217.42 294.029V294.087Z" fill="#272623"/>
<path opacity="0.8" d="M209.802 323.373C209.802 317.639 205.734 315.342 200.739 318.218L167.744 337.292C162.769 340.168 158.739 347.157 158.758 352.871L158.796 366.211C158.796 371.945 162.865 374.261 167.86 371.385V379.261L174.706 367.408L200.855 352.292C205.83 349.415 209.86 342.427 209.841 336.693L209.802 323.353V323.373ZM173.028 354.763C171.235 355.805 169.788 354.975 169.769 352.91C169.769 350.844 171.215 348.354 172.989 347.311C174.783 346.269 176.229 347.099 176.248 349.164C176.248 351.23 174.802 353.72 173.028 354.763ZM185.447 347.581C183.653 348.624 182.207 347.794 182.188 345.728C182.188 343.662 183.634 341.172 185.408 340.13C187.202 339.087 188.648 339.917 188.667 341.983C188.667 344.049 187.221 346.539 185.447 347.581ZM197.866 340.4C196.072 341.442 194.626 340.612 194.607 338.547C194.607 336.481 196.053 333.991 197.827 332.948C199.621 331.906 201.067 332.755 201.067 334.801C201.067 336.867 199.64 339.357 197.846 340.4H197.866Z" fill="#272623"/>
<path d="M187.915 244.742C190.885 243.024 193.315 244.395 193.315 247.831L193.392 275.322C193.392 278.739 191.001 282.909 188.012 284.627L128.386 319.087L134.884 307.098L134.807 281.635C134.807 278.218 137.198 274.048 140.187 272.33L187.915 244.742Z" fill="#E1E1E1"/>
<path opacity="0.8" d="M189.979 244.028C189.979 244.028 190.036 244.028 190.056 244.028C190.364 244.009 190.654 244.028 190.923 244.067H190.962C191.232 244.125 191.502 244.221 191.733 244.356L187.452 241.866C187.452 241.866 187.433 241.866 187.414 241.866C187.317 241.808 187.24 241.769 187.144 241.731C187.047 241.692 186.951 241.654 186.855 241.634C186.797 241.634 186.72 241.596 186.662 241.596H186.623C186.604 241.596 186.585 241.596 186.565 241.596C186.45 241.596 186.353 241.557 186.237 241.557C186.122 241.557 186.006 241.557 185.89 241.557C185.852 241.557 185.813 241.557 185.775 241.557C185.755 241.557 185.717 241.557 185.698 241.557C185.62 241.557 185.563 241.557 185.485 241.576C185.331 241.596 185.177 241.634 185.003 241.673C184.945 241.673 184.868 241.731 184.791 241.75C184.733 241.769 184.675 241.789 184.598 241.808C184.521 241.847 184.444 241.866 184.367 241.885C184.116 241.982 183.866 242.117 183.615 242.252L135.887 269.839C135.54 270.032 135.212 270.283 134.865 270.534C134.749 270.611 134.653 270.727 134.556 270.805C134.402 270.94 134.229 271.075 134.074 271.229C133.997 271.306 133.939 271.384 133.862 271.442C133.804 271.5 133.747 271.577 133.689 271.635C133.612 271.712 133.554 271.77 133.477 271.847C133.322 272.021 133.187 272.195 133.033 272.388C132.975 272.446 132.937 272.523 132.898 272.581C132.879 272.619 132.84 272.639 132.821 272.677C132.782 272.735 132.725 272.812 132.686 272.87C132.57 273.025 132.474 273.179 132.377 273.334C132.281 273.488 132.185 273.642 132.107 273.797C132.107 273.797 132.107 273.816 132.088 273.835C132.088 273.835 132.088 273.855 132.088 273.874C132.011 274.009 131.953 274.125 131.876 274.26C131.799 274.415 131.722 274.569 131.645 274.724C131.587 274.859 131.51 274.994 131.452 275.148C131.452 275.148 131.452 275.148 131.452 275.168C131.452 275.168 131.452 275.168 131.452 275.187C131.375 275.341 131.317 275.515 131.259 275.669C131.201 275.843 131.124 276.017 131.085 276.171C131.066 276.249 131.028 276.345 131.008 276.422C131.008 276.461 130.989 276.5 130.97 276.538C130.97 276.596 130.931 276.654 130.912 276.731C130.854 276.944 130.796 277.137 130.758 277.349C130.738 277.465 130.719 277.6 130.7 277.716C130.7 277.774 130.68 277.851 130.661 277.909C130.661 277.967 130.642 278.025 130.623 278.083C130.584 278.449 130.545 278.797 130.545 279.144L130.623 304.608L124.124 316.597L128.405 319.087L134.904 307.098L134.826 281.635C134.826 281.229 134.865 280.824 134.923 280.399C134.923 280.341 134.942 280.264 134.961 280.206C135.019 279.82 135.116 279.415 135.231 279.029C135.231 278.99 135.251 278.951 135.27 278.913C135.405 278.488 135.559 278.063 135.733 277.639C135.733 277.639 135.733 277.639 135.733 277.619C135.926 277.195 136.138 276.77 136.369 276.364C136.369 276.364 136.369 276.345 136.388 276.326C136.62 275.92 136.871 275.534 137.141 275.168C137.16 275.129 137.198 275.11 137.218 275.071C137.468 274.743 137.738 274.415 138.008 274.125C138.066 274.067 138.124 273.99 138.182 273.932C138.394 273.7 138.625 273.507 138.857 273.295C138.953 273.198 139.069 273.102 139.165 273.025C139.493 272.754 139.84 272.523 140.187 272.33L187.915 244.742C188.262 244.549 188.59 244.395 188.918 244.279C188.976 244.26 189.053 244.241 189.111 244.221C189.419 244.125 189.709 244.048 189.998 244.028H189.979Z" fill="#272623"/>
<path opacity="0.8" d="M179.546 264.144C179.546 260.631 177.058 259.221 173.992 260.978L153.783 272.658C150.736 274.415 148.267 278.7 148.267 282.214V290.38C148.306 293.894 150.794 295.303 153.84 293.546V298.372L158.044 291.114L174.05 281.866C177.097 280.11 179.565 275.824 179.565 272.31V264.144H179.546ZM156.984 283.372C155.885 284.009 154.997 283.488 154.997 282.233C154.997 280.978 155.885 279.434 156.984 278.797C158.083 278.16 158.97 278.681 158.97 279.936C158.97 281.191 158.083 282.735 156.984 283.372ZM164.582 278.971C163.482 279.608 162.595 279.086 162.595 277.832C162.595 276.577 163.482 275.032 164.582 274.395C165.681 273.758 166.568 274.279 166.568 275.534C166.568 276.789 165.681 278.334 164.582 278.971ZM172.199 274.569C171.1 275.206 170.212 274.685 170.212 273.43C170.212 272.175 171.1 270.631 172.199 269.994C173.298 269.357 174.185 269.878 174.185 271.133C174.185 272.388 173.317 273.932 172.218 274.55L172.199 274.569Z" fill="#272623"/>
<path d="M332.043 242.696C336.344 239.935 339.853 242.155 339.873 247.657L339.95 280.206C339.95 285.708 336.479 292.407 332.178 295.167L245.806 350.574L255.197 331.307L255.12 302.021C255.12 296.519 258.591 289.82 262.891 287.059L332.024 242.715L332.043 242.696Z" fill="#E1E1E1"/>
<path opacity="0.8" d="M333.76 241.866C334.203 241.711 334.627 241.596 335.032 241.557C335.071 241.557 335.11 241.557 335.148 241.557C335.592 241.518 336.016 241.557 336.402 241.634C336.421 241.634 336.44 241.634 336.459 241.634C336.864 241.731 337.25 241.885 337.578 242.117L331.369 238.121C331.369 238.121 331.349 238.121 331.33 238.101C331.195 238.024 331.079 237.947 330.944 237.889C330.809 237.831 330.674 237.773 330.539 237.735C330.443 237.696 330.346 237.677 330.269 237.657C330.25 237.657 330.231 237.657 330.211 237.657C330.173 237.657 330.154 237.657 330.115 237.638C329.961 237.599 329.807 237.58 329.652 237.58C329.479 237.58 329.305 237.58 329.132 237.58C329.074 237.58 329.016 237.58 328.958 237.599C328.919 237.599 328.881 237.599 328.842 237.599C328.746 237.599 328.649 237.599 328.553 237.638C328.322 237.677 328.09 237.735 327.859 237.792C327.762 237.831 327.666 237.87 327.57 237.908C327.473 237.947 327.396 237.985 327.3 238.005C327.184 238.043 327.068 238.082 326.952 238.14C326.586 238.314 326.239 238.507 325.853 238.738L256.72 283.083C256.219 283.411 255.737 283.797 255.255 284.222C255.101 284.357 254.946 284.511 254.811 284.666C254.58 284.897 254.348 285.09 254.117 285.341C254.021 285.457 253.924 285.573 253.828 285.689C253.731 285.785 253.654 285.882 253.577 285.998C253.481 286.113 253.384 286.229 253.288 286.345C253.076 286.615 252.864 286.905 252.651 287.195C252.574 287.291 252.516 287.407 252.439 287.503C252.401 287.561 252.362 287.619 252.324 287.677C252.266 287.774 252.189 287.87 252.131 287.986C251.976 288.237 251.822 288.488 251.687 288.739C251.552 288.971 251.417 289.222 251.282 289.473C251.282 289.492 251.263 289.511 251.244 289.53C251.244 289.55 251.244 289.569 251.205 289.588C251.109 289.781 250.993 289.994 250.897 290.206C250.781 290.457 250.665 290.689 250.569 290.94C250.472 291.171 250.376 291.384 250.299 291.615C250.299 291.615 250.299 291.635 250.299 291.654C250.299 291.673 250.299 291.673 250.299 291.693C250.202 291.944 250.106 292.214 250.01 292.465C249.913 292.735 249.836 293.005 249.74 293.276C249.701 293.411 249.662 293.546 249.624 293.681C249.624 293.739 249.585 293.797 249.566 293.855C249.547 293.951 249.508 294.048 249.489 294.144C249.412 294.473 249.335 294.801 249.277 295.148C249.238 295.341 249.219 295.554 249.18 295.747C249.18 295.843 249.142 295.959 249.122 296.056C249.122 296.152 249.084 296.249 249.084 296.345C249.026 296.924 248.987 297.484 248.987 298.044L249.065 327.33L239.673 346.597L245.883 350.612L255.274 331.346L255.197 302.06C255.197 301.403 255.255 300.747 255.332 300.071C255.332 299.975 255.37 299.859 255.39 299.762C255.486 299.144 255.621 298.507 255.775 297.87C255.775 297.812 255.814 297.754 255.833 297.697C256.026 297.002 256.238 296.326 256.508 295.65C256.508 295.65 256.508 295.631 256.508 295.612C256.778 294.917 257.087 294.241 257.434 293.585C257.434 293.565 257.434 293.546 257.472 293.527C257.8 292.89 258.167 292.272 258.572 291.673C258.61 291.615 258.649 291.558 258.687 291.519C259.054 290.978 259.42 290.476 259.825 289.994C259.902 289.897 259.999 289.781 260.076 289.685C260.384 289.318 260.731 288.99 261.059 288.662C261.213 288.507 261.348 288.353 261.503 288.218C261.985 287.793 262.467 287.407 262.968 287.079L332.101 242.735C332.603 242.426 333.065 242.194 333.548 242.001C333.644 241.962 333.74 241.924 333.818 241.904L333.76 241.866Z" fill="#272623"/>
<path opacity="0.8" d="M321.823 268.874C321.823 263.14 317.754 260.843 312.76 263.72L279.765 282.793C274.789 285.67 270.759 292.658 270.778 298.373L270.817 311.712C270.817 317.446 274.886 319.763 279.88 316.886V324.763L286.726 312.909L312.875 297.793C317.85 294.917 321.881 287.928 321.862 282.195L321.823 268.855V268.874ZM285.048 300.264C283.255 301.307 281.809 300.477 281.79 298.411C281.79 296.345 283.236 293.855 285.01 292.813C286.803 291.77 288.25 292.6 288.269 294.666C288.269 296.732 286.823 299.222 285.048 300.264ZM297.467 293.083C295.674 294.125 294.228 293.295 294.208 291.23C294.208 289.164 295.655 286.674 297.429 285.631C299.222 284.589 300.668 285.419 300.688 287.484C300.688 289.55 299.241 292.04 297.467 293.083ZM309.886 285.901C308.093 286.944 306.647 286.114 306.627 284.048C306.627 281.982 308.074 279.492 309.848 278.45C311.641 277.407 313.087 278.256 313.087 280.303C313.087 282.368 311.66 284.859 309.867 285.901H309.886Z" fill="#272623"/>
<g opacity="0.8">
<path d="M311.371 163.854C311.371 163.854 311.371 163.757 311.371 163.699C311.371 163.661 311.371 163.641 311.371 163.603C311.371 163.603 311.371 163.584 311.371 163.564C311.371 163.506 311.371 163.468 311.332 163.41C311.332 163.352 311.313 163.294 311.294 163.255C311.294 163.197 311.255 163.14 311.236 163.082C311.217 163.024 311.178 162.966 311.159 162.908C311.12 162.831 311.082 162.753 311.043 162.696C311.005 162.638 310.966 162.58 310.927 162.541C310.792 162.387 310.657 162.251 310.503 162.174L300.726 156.499C300.881 156.595 301.035 156.711 301.151 156.865C301.382 157.155 301.517 157.522 301.594 157.946C301.652 158.371 301.652 158.834 301.555 159.336C301.478 159.838 301.305 160.36 301.073 160.881C300.842 161.402 300.553 161.904 300.186 162.387L267.616 205.013C267.365 205.341 267.076 205.65 266.806 205.901C266.517 206.152 266.227 206.364 265.938 206.538C265.649 206.711 265.359 206.827 265.07 206.904C264.781 206.982 264.511 207.001 264.26 206.962L231.555 202.078C231.343 202.04 231.169 201.982 231.015 201.885L240.792 207.561C240.792 207.561 240.946 207.638 241.042 207.677C241.12 207.696 241.177 207.715 241.255 207.735C241.274 207.735 241.312 207.735 241.332 207.735L274.037 212.619C274.037 212.619 274.095 212.619 274.134 212.619C274.192 212.619 274.249 212.619 274.288 212.619C274.346 212.619 274.384 212.619 274.442 212.619C274.481 212.619 274.539 212.619 274.577 212.619C274.616 212.619 274.674 212.619 274.712 212.6C274.751 212.6 274.789 212.6 274.847 212.58C274.886 212.58 274.944 212.561 274.982 212.542C275.021 212.542 275.059 212.522 275.117 212.503C275.156 212.503 275.194 212.464 275.252 212.464C275.291 212.464 275.329 212.426 275.387 212.406C275.426 212.406 275.464 212.368 275.503 212.349C275.541 212.329 275.58 212.31 275.619 212.291C275.657 212.291 275.676 212.252 275.715 212.233C275.715 212.233 275.734 212.233 275.754 212.233C275.792 212.213 275.831 212.175 275.889 212.156C275.927 212.136 275.985 212.098 276.023 212.059C276.062 212.02 276.12 212.001 276.158 211.962C276.197 211.924 276.255 211.885 276.293 211.847C276.332 211.808 276.39 211.769 276.428 211.731C276.467 211.692 276.525 211.654 276.563 211.615C276.602 211.576 276.641 211.538 276.679 211.499C276.718 211.461 276.776 211.403 276.814 211.364C276.853 211.325 276.911 211.267 276.949 211.229C276.988 211.19 277.026 211.132 277.065 211.094C277.103 211.055 277.142 210.997 277.181 210.959C277.219 210.901 277.258 210.862 277.296 210.804C277.296 210.785 277.335 210.766 277.354 210.727L309.925 168.101C309.925 168.101 309.983 168.043 310.002 168.004C310.079 167.908 310.137 167.811 310.195 167.715C310.272 167.599 310.349 167.483 310.407 167.367C310.465 167.271 310.522 167.174 310.58 167.078C310.619 167.02 310.657 166.943 310.677 166.885C310.696 166.827 310.735 166.788 310.754 166.73C310.773 166.692 310.792 166.634 310.812 166.595C310.831 166.537 310.85 166.499 310.87 166.441C310.889 166.383 310.908 166.344 310.927 166.286C310.947 166.228 310.966 166.19 310.985 166.132C310.985 166.074 311.024 166.035 311.043 165.977C311.043 165.919 311.082 165.862 311.101 165.804C311.101 165.746 311.14 165.688 311.159 165.63C311.159 165.572 311.197 165.514 311.197 165.456C311.197 165.398 311.217 165.34 311.236 165.282C311.236 165.224 311.255 165.167 311.275 165.109C311.275 165.089 311.275 165.051 311.275 165.031C311.275 165.012 311.275 164.974 311.275 164.954C311.275 164.896 311.275 164.858 311.294 164.8C311.294 164.742 311.294 164.703 311.294 164.645C311.294 164.587 311.294 164.549 311.294 164.491C311.294 164.433 311.294 164.394 311.294 164.336C311.294 164.279 311.294 164.24 311.294 164.182C311.294 164.124 311.294 164.085 311.294 164.028C311.294 163.97 311.294 163.931 311.294 163.873L311.371 163.854Z" fill="#272623"/>
<path d="M318.255 138.255C319.104 137.965 319.933 137.792 320.724 137.714C320.743 137.714 320.762 137.714 320.782 137.714C321.572 137.656 322.324 137.695 323.038 137.83C323.038 137.83 323.057 137.83 323.076 137.83C323.79 137.985 324.446 138.236 325.043 138.583L315.266 132.907C314.919 132.714 314.553 132.541 314.186 132.405C313.897 132.309 313.608 132.232 313.299 132.154C313.299 132.154 313.28 132.154 313.261 132.154C313.261 132.154 313.261 132.154 313.242 132.154C312.991 132.097 312.74 132.058 312.47 132.039C312.239 132.019 312.007 132 311.776 132C311.564 132 311.352 132 311.14 132.019C311.101 132.019 311.043 132.019 311.005 132.019C311.005 132.019 310.966 132.019 310.947 132.019C310.812 132.019 310.677 132.039 310.542 132.058C310.349 132.077 310.156 132.116 309.963 132.154C309.79 132.193 309.597 132.232 309.423 132.27C309.25 132.309 309.057 132.367 308.864 132.425C308.729 132.463 308.613 132.502 308.478 132.56C308.478 132.56 308.459 132.56 308.44 132.56C308.401 132.56 308.363 132.579 308.324 132.598C308.151 132.656 307.958 132.734 307.784 132.811C307.611 132.888 307.437 132.965 307.244 133.042C307.071 133.12 306.878 133.216 306.704 133.293C306.531 133.39 306.338 133.487 306.164 133.583C306.029 133.66 305.875 133.737 305.74 133.815L225.789 180.012C225.789 180.012 225.692 180.07 225.654 180.089C225.461 180.205 225.268 180.321 225.095 180.437C224.902 180.553 224.709 180.688 224.535 180.804C224.343 180.939 224.15 181.074 223.957 181.209C223.764 181.344 223.571 181.499 223.378 181.653C223.301 181.711 223.224 181.788 223.147 181.846C223.128 181.846 223.108 181.885 223.089 181.904C222.993 181.981 222.896 182.058 222.8 182.136C222.607 182.309 222.395 182.483 222.202 182.657C222.009 182.831 221.816 183.024 221.624 183.197C221.431 183.371 221.238 183.564 221.064 183.757C220.929 183.892 220.794 184.047 220.659 184.182L220.621 184.221C220.582 184.259 220.563 184.279 220.524 184.317C220.351 184.51 220.177 184.703 220.004 184.896C219.83 185.089 219.657 185.302 219.483 185.495C219.309 185.707 219.136 185.92 218.962 186.132C218.769 186.383 218.557 186.653 218.365 186.904C218.075 187.29 217.805 187.696 217.535 188.082C217.188 188.603 216.86 189.143 216.533 189.684C216.494 189.742 216.475 189.8 216.436 189.858C216.417 189.896 216.378 189.954 216.359 190.012C216.205 190.302 216.031 190.572 215.877 190.862C215.742 191.132 215.588 191.402 215.453 191.672C215.337 191.904 215.221 192.136 215.106 192.387C215.009 192.599 214.913 192.811 214.816 193.043C214.816 193.082 214.797 193.101 214.778 193.14C214.778 193.14 214.778 193.159 214.778 193.178C214.701 193.352 214.623 193.506 214.566 193.68C214.469 193.893 214.392 194.105 214.296 194.337C214.218 194.549 214.122 194.781 214.045 194.993C213.968 195.225 213.891 195.456 213.814 195.669C213.736 195.9 213.659 196.132 213.582 196.364C213.582 196.402 213.582 196.422 213.563 196.46V196.499C213.505 196.692 213.447 196.885 213.389 197.059C213.331 197.29 213.254 197.541 213.196 197.773C213.139 198.005 213.081 198.236 213.042 198.468C212.984 198.7 212.946 198.931 212.907 199.163C212.869 199.375 212.83 199.588 212.791 199.8C212.791 199.8 212.791 199.819 212.791 199.839C212.753 200.07 212.734 200.283 212.695 200.514C212.676 200.727 212.637 200.958 212.618 201.171C212.599 201.383 212.579 201.595 212.56 201.827C212.56 202.039 212.541 202.252 212.521 202.464C212.521 202.657 212.521 202.869 212.521 203.063L212.656 252.986V253.024C212.656 253.237 212.656 253.449 212.656 253.662C212.656 253.874 212.676 254.086 212.695 254.299C212.695 254.511 212.734 254.723 212.753 254.936C212.772 255.148 212.811 255.36 212.849 255.573C212.849 255.669 212.888 255.766 212.907 255.862C212.907 255.882 212.907 255.92 212.907 255.94C212.926 256.036 212.946 256.133 212.965 256.229C213.023 256.461 213.081 256.692 213.139 256.905C213.216 257.156 213.293 257.387 213.37 257.6C213.466 257.831 213.563 258.063 213.659 258.295C213.659 258.295 213.659 258.314 213.659 258.333C213.659 258.333 213.659 258.353 213.659 258.372C213.814 258.7 213.987 259.009 214.161 259.279C214.296 259.511 214.488 259.685 214.643 259.878C214.758 260.032 214.874 260.206 215.009 260.341C215.453 260.805 215.935 261.229 216.475 261.557L226.252 267.233C225.712 266.924 225.23 266.5 224.786 266.017C224.651 265.882 224.535 265.708 224.42 265.554C224.053 265.09 223.687 264.588 223.417 263.99C223.417 263.99 223.417 263.99 223.417 263.971C223.089 263.256 222.838 262.465 222.665 261.596C222.665 261.577 222.665 261.538 222.665 261.519C222.491 260.631 222.395 259.685 222.395 258.642L222.26 208.719C222.26 207.657 222.356 206.576 222.53 205.476C222.703 204.375 222.954 203.275 223.301 202.175V202.136C223.629 201.036 224.034 199.935 224.516 198.854C224.516 198.854 224.516 198.835 224.516 198.815C224.979 197.754 225.519 196.711 226.097 195.707C226.117 195.649 226.155 195.611 226.175 195.553C226.772 194.53 227.409 193.545 228.103 192.599C228.816 191.634 229.568 190.727 230.359 189.896C230.359 189.896 230.378 189.877 230.398 189.858C231.188 189.028 231.998 188.255 232.847 187.56C232.866 187.56 232.885 187.522 232.905 187.503C233.772 186.808 234.659 186.19 235.566 185.649L315.517 139.452C316.443 138.911 317.33 138.506 318.217 138.216C318.217 138.216 318.236 138.216 318.255 138.216V138.255Z" fill="#272623"/>
</g>
<path d="M315.517 139.51C322.884 135.243 328.919 138.68 328.939 147.174L329.074 197.097C329.093 205.572 323.115 215.958 315.749 220.225L235.797 266.422C228.431 270.689 222.395 267.252 222.376 258.758L222.241 208.835C222.221 200.36 228.199 189.974 235.566 185.707L315.517 139.51Z" fill="#E1E1E1"/>
<path d="M241.293 207.715L273.999 212.6C274.519 212.677 275.098 212.522 275.676 212.194C276.255 211.866 276.834 211.326 277.354 210.669L309.925 168.043C311.39 166.132 311.795 163.661 310.889 162.503C310.291 161.75 309.269 161.75 308.228 162.348C307.649 162.676 307.071 163.198 306.55 163.893L275.657 204.337L244.629 199.685C244.109 199.607 243.53 199.762 242.952 200.09C241.91 200.688 240.888 201.885 240.31 203.295C239.384 205.515 239.828 207.484 241.274 207.715" fill="#FDB602"/>
<path d="M53.1204 467.274C51.809 467.274 50.4977 467.12 49.225 466.83C49.1093 466.811 49.0322 466.676 49.0514 466.56C49.0707 466.444 49.2057 466.367 49.3214 466.386C50.5749 466.676 51.8476 466.83 53.1204 466.83C53.4096 466.849 53.6603 466.83 53.9303 466.811C54.0653 466.811 54.1617 466.907 54.1617 467.023C54.1617 467.139 54.0653 467.255 53.9496 467.255C53.6796 467.255 53.3903 467.274 53.1204 467.274ZM58.5006 466.193C58.5006 466.193 58.327 466.154 58.2885 466.058C58.2306 465.942 58.2885 465.807 58.3849 465.749C58.5584 465.652 58.7513 465.575 58.9055 465.479L62.9937 463.123C63.0902 463.065 63.2444 463.104 63.3023 463.201C63.3601 463.316 63.3216 463.452 63.2252 463.51L59.137 465.865C58.9634 465.961 58.7706 466.058 58.5777 466.154C58.5391 466.154 58.5199 466.174 58.4813 466.174L58.5006 466.193ZM44.9247 465.035C44.9247 465.035 44.8475 465.035 44.809 464.996C43.1698 463.934 42.1285 462.583 41.8971 461.212C41.8778 461.096 41.955 460.981 42.0899 460.961C42.2057 460.942 42.3214 461.019 42.3406 461.154C42.5528 462.39 43.4977 463.625 45.0404 464.629C45.1368 464.706 45.1754 464.842 45.0982 464.938C45.0597 464.996 44.9825 465.035 44.9054 465.035H44.9247ZM67.1976 461.193C67.1976 461.193 67.0434 461.154 67.0048 461.077C66.947 460.961 66.9855 460.826 67.0819 460.768L71.1701 458.413C71.2666 458.355 71.4208 458.394 71.4787 458.49C71.5365 458.606 71.498 458.741 71.4015 458.799L67.3133 461.154C67.3133 461.154 67.2362 461.193 67.1976 461.193ZM44.269 457.563C44.269 457.563 44.1148 457.525 44.0762 457.448C44.0183 457.351 44.0376 457.197 44.1533 457.139C44.2112 457.1 44.269 457.081 44.3076 457.042L48.2222 454.784C48.3187 454.726 48.4729 454.764 48.5308 454.861C48.5886 454.977 48.5501 455.112 48.4536 455.17L44.539 457.428C44.539 457.428 44.4426 457.486 44.3847 457.525C44.3462 457.544 44.3076 457.563 44.269 457.563ZM75.3548 456.482C75.3548 456.482 75.2005 456.444 75.1619 456.367C75.1041 456.251 75.1426 456.116 75.239 456.058L79.3272 453.702C79.443 453.645 79.5779 453.683 79.6358 453.78C79.6936 453.896 79.6551 454.031 79.5587 454.089L75.4705 456.444C75.4705 456.444 75.3933 456.482 75.3548 456.482ZM52.4261 452.853C52.4261 452.853 52.2719 452.814 52.2333 452.737C52.1754 452.621 52.214 452.486 52.3104 452.428L56.3986 450.073C56.4951 450.015 56.6493 450.054 56.7072 450.15C56.765 450.266 56.7265 450.401 56.63 450.459L52.5418 452.814C52.5418 452.814 52.4647 452.853 52.4261 452.853ZM83.5119 451.772C83.5119 451.772 83.3576 451.733 83.319 451.656C83.2612 451.54 83.2997 451.405 83.3962 451.347L87.4843 448.992C87.5808 448.934 87.735 448.973 87.7929 449.069C87.8507 449.185 87.8122 449.32 87.7158 449.378L83.6276 451.733C83.6276 451.733 83.5504 451.772 83.5119 451.772ZM60.5832 448.143C60.5832 448.143 60.429 448.104 60.3904 448.027C60.3326 447.911 60.3711 447.776 60.4675 447.718L64.5557 445.363C64.6522 445.305 64.8064 445.343 64.8643 445.44C64.9221 445.556 64.8836 445.691 64.7871 445.749L60.6989 448.104C60.6989 448.104 60.6218 448.143 60.5832 448.143ZM91.669 447.061C91.669 447.061 91.5147 447.023 91.4761 446.946C91.4183 446.83 91.4568 446.695 91.5533 446.637L95.6415 444.281C95.7379 444.224 95.8922 444.262 95.95 444.359C96.0079 444.475 95.9693 444.61 95.8729 444.668L91.7847 447.023C91.7847 447.023 91.7075 447.061 91.669 447.061ZM68.7404 443.432C68.7404 443.432 68.5861 443.393 68.5475 443.316C68.4897 443.2 68.5282 443.065 68.6246 443.007L72.7129 440.652C72.8093 440.594 72.9635 440.633 73.0214 440.729C73.0792 440.845 73.0407 440.98 72.9443 441.038L68.8561 443.393C68.8561 443.393 68.7789 443.432 68.7404 443.432ZM99.8261 442.351C99.8261 442.351 99.6718 442.312 99.6332 442.235C99.5754 442.119 99.614 441.984 99.7104 441.926L103.799 439.571C103.914 439.513 104.049 439.552 104.107 439.648C104.165 439.764 104.126 439.899 104.03 439.957L99.9418 442.312C99.9418 442.312 99.8646 442.351 99.8261 442.351ZM76.8975 438.722C76.8975 438.722 76.7432 438.683 76.7046 438.606C76.6468 438.49 76.6853 438.355 76.7818 438.297L80.87 435.942C80.9664 435.884 81.1207 435.922 81.1785 436.019C81.2364 436.135 81.1978 436.27 81.1014 436.328L77.0132 438.683C77.0132 438.683 76.936 438.722 76.8975 438.722ZM107.964 437.621C107.964 437.621 107.829 437.583 107.771 437.525C107.694 437.428 107.733 437.274 107.829 437.216C109.044 436.405 109.68 435.362 109.68 434.243C109.68 433.992 109.642 433.722 109.584 433.471C109.545 433.355 109.622 433.22 109.738 433.2C109.854 433.162 109.989 433.239 110.008 433.355C110.085 433.644 110.124 433.953 110.124 434.243C110.124 435.536 109.41 436.695 108.08 437.602C108.041 437.621 108.002 437.641 107.964 437.641V437.621ZM85.0546 433.992C85.0546 433.992 84.9003 433.953 84.8617 433.876C84.8039 433.76 84.8424 433.625 84.9389 433.567L89.0271 431.212C89.1235 431.154 89.2778 431.193 89.3356 431.289C89.3935 431.405 89.3549 431.54 89.2585 431.598L85.1703 433.953C85.1703 433.953 85.0932 433.992 85.0546 433.992ZM106.807 430.131C106.807 430.131 106.73 430.131 106.691 430.092C106.614 430.054 106.537 429.996 106.46 429.957C105.283 429.281 103.876 428.76 102.372 428.432C102.256 428.413 102.179 428.277 102.198 428.162C102.217 428.046 102.333 427.949 102.468 427.988C104.011 428.316 105.476 428.857 106.672 429.571C106.749 429.61 106.826 429.667 106.903 429.706C107 429.764 107.038 429.918 106.98 430.015C106.942 430.092 106.865 430.131 106.788 430.131H106.807ZM93.2117 429.281C93.2117 429.281 93.0574 429.243 93.0188 429.166C92.961 429.05 93.0189 428.915 93.1153 428.857C94.3687 428.2 95.9693 427.775 97.7241 427.66C97.8398 427.66 97.9555 427.737 97.9555 427.872C97.9555 427.988 97.8784 428.104 97.7434 428.104C96.0464 428.22 94.5037 428.625 93.3081 429.262C93.2695 429.262 93.231 429.281 93.2117 429.281Z" fill="white"/>
<path d="M109.931 366.076V424.552C109.931 425.826 109.14 427.023 107.578 427.93L59.0406 455.981C55.5502 458.008 49.4372 457.737 45.4068 455.421C43.1506 454.108 42.0129 452.428 42.0707 450.845V392.351L109.931 366.076Z" fill="#FDB602"/>
<path d="M59.0404 397.505L107.578 369.454C111.069 367.427 110.625 363.914 106.595 361.578C102.564 359.242 96.4513 358.991 92.9609 361.018L44.4232 389.068C40.9328 391.095 41.3764 394.609 45.4067 396.945C49.437 399.281 55.55 399.532 59.0404 397.505Z" fill="#CC8E02"/>
<path d="M54.2004 393.74C56.5144 393.74 58.385 391.868 58.385 389.551V363.566C58.385 354.705 64.8644 343.469 72.5201 339.048L83.6662 332.62C86.6167 330.921 89.2586 330.496 90.9556 331.481C92.6525 332.465 93.6167 334.975 93.6167 338.373V364.358C93.6167 366.674 95.4873 368.547 97.8014 368.547C100.115 368.547 101.986 366.674 101.986 364.358V338.373C101.986 331.79 99.5562 326.77 95.1402 324.222C90.7241 321.674 85.1511 322.079 79.4623 325.361L68.3162 331.79C58.0379 337.736 49.9772 351.693 49.9772 363.585V389.57C49.9772 391.887 51.8477 393.759 54.1618 393.759L54.2004 393.74Z" fill="#FDB602"/>
<g opacity="0.8">
<path d="M458.469 410.661C454.309 405.34 446.897 411.583 443.71 415.375L449.497 421.689C454.227 420.233 462.629 415.983 458.469 410.661Z" fill="#272623"/>
</g>
<path d="M400.736 402.236C423.426 399.88 437.138 410.314 441.157 415.828C442.407 420.261 444.993 430.948 445.298 438.253C445.68 447.388 430.436 464.637 417.502 472.807C404.578 480.968 388.661 486.359 366.37 487.708C344.079 489.056 327.79 478.528 319.015 473.323C310.238 468.102 311.86 458.131 318.731 455.102C327.899 451.064 337.542 448.032 344.205 444.161C349.537 441.063 356.335 431.091 359.069 426.491C363.511 419.399 378.068 404.607 400.747 402.244L400.736 402.236Z" fill="#ECECEC"/>
<path fill-rule="evenodd" clip-rule="evenodd" d="M400.58 399.567C424.967 397.036 439.764 408.236 444.224 414.349L444.463 414.667L444.566 415.026C445.829 419.482 448.458 430.367 448.78 437.93C448.897 440.746 447.818 443.968 446.153 447.169C444.461 450.415 442.066 453.845 439.275 457.2C433.721 463.882 426.414 470.5 419.562 474.828C405.972 483.412 389.309 488.993 366.344 490.389C343.828 491.753 327.152 481.745 318.173 476.352C317.677 476.044 317.205 475.768 316.756 475.505C311.515 472.381 309.333 467.805 309.544 463.517C309.745 459.332 312.287 454.954 317.232 452.778C320.745 451.235 324.358 449.815 327.743 448.486C328.871 448.038 329.979 447.609 331.045 447.184C335.432 445.437 339.238 443.812 342.275 442.051C343.179 441.526 344.351 440.578 345.705 439.215C347.019 437.89 348.371 436.31 349.682 434.641C352.302 431.305 354.61 427.758 355.937 425.542L355.957 425.523L355.965 425.497C360.692 417.947 376.131 402.12 400.582 399.583L400.58 399.567ZM437.862 416.995C433.997 412.011 421.48 402.766 400.913 404.904C380.025 407.076 366.368 420.797 362.192 427.449C360.764 429.835 358.325 433.564 355.545 437.128C354.15 438.914 352.626 440.698 351.088 442.256C349.579 443.787 347.901 445.243 346.144 446.262C342.528 448.362 338.193 450.187 333.796 451.943C332.637 452.403 331.478 452.863 330.308 453.316C326.954 454.632 323.6 455.949 320.261 457.415C318.335 458.268 316.631 460.39 316.494 463.251C316.368 466.009 317.758 469.026 321.293 471.123C321.686 471.367 322.112 471.615 322.537 471.863C331.65 477.309 346.548 486.214 366.428 485.015C388.033 483.707 403.206 478.521 415.473 470.775C421.547 466.942 428.328 460.85 433.536 454.575C436.126 451.451 438.276 448.349 439.745 445.539C441.241 442.684 441.915 440.311 441.838 438.573C441.548 431.712 439.163 421.599 437.884 416.993L437.862 416.995Z" fill="#353535"/>
<path d="M420.878 451.798C418.566 438.429 437.457 422.912 446.944 419.226C460.246 423.097 466.905 445.361 465.344 455.292C462.972 470.549 446.949 480.402 438.516 487.997C433.758 479.902 423.189 465.167 420.878 451.798Z" fill="#FDB602"/>
<path fill-rule="evenodd" clip-rule="evenodd" d="M465.018 433.945C468.247 441.465 469.645 449.912 468.795 455.385C467.494 463.71 462.469 470.486 456.872 476.056C454.073 478.833 451.104 481.334 448.356 483.585C447.692 484.134 447.036 484.658 446.411 485.17C444.406 486.795 442.61 488.255 441.076 489.646C440.278 490.361 439.101 490.747 437.939 490.679C436.778 490.61 435.805 490.085 435.331 489.279C434.525 487.896 433.474 486.238 432.327 484.379C430.26 481.083 427.814 477.165 425.58 473.114C422.024 466.678 418.66 459.416 417.445 452.385C416.116 444.678 420.884 436.703 426.751 430.432C432.618 424.162 440.153 418.972 445.621 416.841C446.521 416.484 447.541 416.434 448.421 416.7C452.574 417.909 455.93 420.454 458.591 423.451C461.276 426.48 463.426 430.153 465.051 433.95L465.018 433.945ZM439.574 426.783C437.098 428.643 434.552 430.864 432.238 433.337C426.866 439.092 423.339 445.557 424.321 451.22C425.419 457.558 428.505 464.338 431.992 470.638C434.211 474.649 436.474 478.268 438.465 481.455C438.854 482.068 439.22 482.667 439.584 483.249C440.257 482.69 440.962 482.119 441.657 481.557C442.263 481.064 442.868 480.571 443.483 480.069C446.192 477.856 448.952 475.52 451.506 472.979C456.606 467.908 460.789 462.128 461.872 455.203C462.562 450.747 461.421 443.095 458.381 436.033C456.885 432.533 454.965 429.297 452.709 426.752C451.41 425.296 450.054 424.115 448.666 423.239C448.143 424.294 447.59 425.378 447.015 426.464C442.006 436.118 436.069 447.601 444.023 465.63C444.622 466.993 443.638 468.584 441.813 469.174C439.989 469.764 438.023 469.136 437.413 467.765C429.247 449.264 434.659 436.309 439.541 426.778L439.574 426.783Z" fill="#262626"/>
<path d="M455.525 406.821C451.365 401.499 443.953 407.742 440.766 411.535L446.552 417.849C451.283 416.393 459.685 412.143 455.525 406.821Z" fill="#1F1F1F"/>
<path fill-rule="evenodd" clip-rule="evenodd" d="M445.038 411.347L447.895 414.467C449.358 413.823 450.824 413.011 451.86 412.102C452.639 411.422 453.007 410.829 453.136 410.32C453.249 409.863 453.203 409.23 452.517 408.354C451.843 407.503 451.375 407.461 451.278 407.463C451.05 407.445 450.484 407.498 449.47 408.001C447.963 408.742 446.364 410.03 445.038 411.347ZM452.561 402.103C455.139 402.306 457.142 403.485 458.554 405.289C459.952 407.071 460.423 408.959 459.978 410.854C459.538 412.69 458.312 414.24 456.901 415.474C454.169 417.874 450.258 419.528 447.606 420.349L445.121 421.119L436.586 411.8L437.927 410.212C439.64 408.173 442.66 405.239 446.113 403.533C447.865 402.666 450.136 401.918 452.573 402.111L452.561 402.103ZM388.976 473.842C389.564 475.215 388.557 476.792 386.721 477.375C384.059 478.206 379.591 479.298 374.537 479.948C369.516 480.604 363.643 480.856 358.328 479.873C348.588 478.054 339.744 474.93 336.436 473.547C334.81 472.865 334.324 471.246 335.337 469.92C336.361 468.601 338.504 468.069 340.131 468.751C343.066 469.981 351.397 472.942 360.485 474.621C364.59 475.381 369.426 475.216 373.959 474.629C378.47 474.045 382.411 473.076 384.572 472.4C386.398 471.826 388.365 472.472 388.943 473.837L388.976 473.842Z" fill="#363636"/>
<path d="M601.913 442.195L371.489 576.265L183.47 467.6L413.894 333.53L601.913 442.195Z" fill="url(#paint1_linear_1071_20901)" fill-opacity="0.56"/>
<path d="M336.18 552.211L336.141 560.099L316.062 557.515L316.082 549.627L336.18 552.211Z" fill="#CC8E02"/>
<path d="M368.928 563.172L368.908 571.059L352.075 564.17L352.094 556.282L368.928 563.172Z" fill="#CC8E02"/>
<path d="M367.989 522.755L368.927 563.172L352.094 556.282L330.804 584.368L314.889 580.297L336.18 552.211L316.082 549.628L367.989 522.755Z" fill="#FDB602"/>
<path d="M352.094 556.282L352.075 564.17L330.784 592.276L330.804 584.368L352.094 556.282Z" fill="#CC8E02"/>
<path d="M330.804 584.368L330.784 592.276L314.87 588.185L314.889 580.297L330.804 584.368Z" fill="#CC8E02"/>
</g>
<defs>
<linearGradient id="paint0_linear_1071_20901" x1="678.625" y1="84.2151" x2="735.63" y2="221.309" gradientUnits="userSpaceOnUse">
<stop stop-color="white"/>
<stop offset="1" stop-color="#FFA742"/>
</linearGradient>
<linearGradient id="paint1_linear_1071_20901" x1="392.691" y1="576.265" x2="392.691" y2="333.53" gradientUnits="userSpaceOnUse">
<stop stop-color="#262626"/>
<stop offset="1" stop-color="#8C8C8C"/>
</linearGradient>
<clipPath id="clip0_1071_20901">
<rect width="863" height="649" fill="white"/>
</clipPath>
</defs>
</svg>
