<svg width="964" height="566" viewBox="0 0 964 566" fill="none" xmlns="http://www.w3.org/2000/svg">
<path d="M273.146 361.525H271.379V360.346H271.968V359.756H273.146V361.525Z" fill="#D9D9D9"/>
<path d="M269.017 361.524H266.661V360.345H269.017V361.524ZM264.305 361.524H261.949V360.345H264.305V361.524ZM259.593 361.524H257.237V360.345H259.593V361.524ZM254.881 361.524H252.525V360.345H254.881V361.524ZM250.169 361.524H247.814V360.345H250.169V361.524ZM245.458 361.524H243.102V360.345H245.458V361.524ZM240.746 361.524H238.39V360.345H240.746V361.524ZM236.034 361.524H233.678V360.345H236.034V361.524ZM231.322 361.524H228.966V360.345H231.322V361.524ZM226.611 361.524H224.255V360.345H226.611V361.524ZM221.899 361.524H219.543V360.345H221.899V361.524ZM217.187 361.524H214.831V360.345H217.187V361.524ZM212.475 361.524H210.119V360.345H212.475V361.524ZM207.763 361.524H205.408V360.345H207.763V361.524ZM203.052 361.524H200.696V360.345H203.052V361.524ZM198.34 361.524H195.984V360.345H198.34V361.524ZM193.481 361.524H191.125V360.345H193.481V361.524Z" fill="#D9D9D9"/>
<path d="M188.779 361.525H187.012V359.756H188.19V360.346H188.779V361.525Z" fill="#D9D9D9"/>
<path d="M188.19 357.395H187.012V355.036H188.19V357.395ZM188.19 352.677H187.012V350.318H188.19V352.677ZM188.19 347.959H187.012V345.6H188.19V347.959ZM188.19 343.241H187.012V340.882H188.19V343.241ZM188.19 338.523H187.012V336.164H188.19V338.523ZM188.19 333.805H187.012V331.446H188.19V333.805ZM188.19 329.087H187.012V326.728H188.19V329.087ZM188.19 324.369H187.012V322.01H188.19V324.369ZM188.19 319.651H187.012V317.292H188.19V319.651ZM188.19 314.933H187.012V312.574H188.19V314.933ZM188.19 310.214H187.012V307.855H188.19V310.214ZM188.19 305.496H187.012V303.137H188.19V305.496ZM188.19 300.778H187.012V298.272H188.19V300.778ZM188.19 295.913H187.012V293.554H188.19V295.913ZM188.19 291.195H187.012V288.836H188.19V291.195ZM188.19 286.477H187.012V284.118H188.19V286.477ZM188.19 281.758H187.012V279.399H188.19V281.758Z" fill="#D9D9D9"/>
<path d="M188.19 277.04H187.012V275.271H188.779V276.45H188.19V277.04Z" fill="#D9D9D9"/>
<path d="M269.017 276.451H266.661V275.271H269.017V276.451ZM264.305 276.451H261.949V275.271H264.305V276.451ZM259.593 276.451H257.237V275.271H259.593V276.451ZM254.881 276.451H252.525V275.271H254.881V276.451ZM250.169 276.451H247.814V275.271H250.169V276.451ZM245.458 276.451H243.102V275.271H245.458V276.451ZM240.746 276.451H238.39V275.271H240.746V276.451ZM236.034 276.451H233.678V275.271H236.034V276.451ZM231.322 276.451H228.966V275.271H231.322V276.451ZM226.611 276.451H224.255V275.271H226.611V276.451ZM221.899 276.451H219.543V275.271H221.899V276.451ZM217.187 276.451H214.831V275.271H217.187V276.451ZM212.475 276.451H210.119V275.271H212.475V276.451ZM207.763 276.451H205.408V275.271H207.763V276.451ZM203.052 276.451H200.696V275.271H203.052V276.451ZM198.34 276.451H195.984V275.271H198.34V276.451ZM193.481 276.451H191.125V275.271H193.481V276.451Z" fill="#D9D9D9"/>
<path d="M273.146 277.04H271.968V276.45H271.379V275.271H273.146V277.04Z" fill="#D9D9D9"/>
<path d="M273.139 357.395H271.961V355.036H273.139V357.395ZM273.139 352.677H271.961V350.318H273.139V352.677ZM273.139 347.959H271.961V345.6H273.139V347.959ZM273.139 343.241H271.961V340.882H273.139V343.241ZM273.139 338.523H271.961V336.164H273.139V338.523ZM273.139 333.805H271.961V331.446H273.139V333.805ZM273.139 329.087H271.961V326.728H273.139V329.087ZM273.139 324.369H271.961V322.01H273.139V324.369ZM273.139 319.651H271.961V317.292H273.139V319.651ZM273.139 314.933H271.961V312.574H273.139V314.933ZM273.139 310.214H271.961V307.855H273.139V310.214ZM273.139 305.496H271.961V303.137H273.139V305.496ZM273.139 300.778H271.961V298.272H273.139V300.778ZM273.139 295.913H271.961V293.554H273.139V295.913ZM273.139 291.195H271.961V288.836H273.139V291.195ZM273.139 286.477H271.961V284.118H273.139V286.477ZM273.139 281.758H271.961V279.399H273.139V281.758Z" fill="#D9D9D9"/>
<path d="M192.891 355.627H182.289V366.228H192.891V355.627Z" fill="white"/>
<path d="M193.486 366.833H181.707V355.038H193.486V366.833ZM183.032 365.654H192.309V356.218H183.032V365.654Z" fill="#D9D9D9"/>
<path d="M193.047 313.017H182.445V323.618H193.047V313.017Z" fill="white"/>
<path d="M193.486 324.369H181.707V312.574H193.486V324.369ZM183.032 323.19H192.309V313.754H183.032V323.19Z" fill="#D9D9D9"/>
<path d="M193.047 270.553H182.445V281.154H193.047V270.553Z" fill="white"/>
<path d="M193.486 281.759H181.707V269.964H193.486V281.759ZM183.032 280.58H192.309V271.143H183.032V280.58Z" fill="#D9D9D9"/>
<path d="M277.851 355.627H267.25V366.228H277.851V355.627Z" fill="white"/>
<path d="M278.447 366.833H266.668V355.038H278.447V366.833ZM267.846 365.654H277.269V356.218H267.846V365.654Z" fill="#D9D9D9"/>
<path d="M277.851 313.016H267.25V323.617H277.851V313.016Z" fill="white"/>
<path d="M278.447 324.369H266.668V312.574H278.447V324.369ZM267.846 323.19H277.269V313.754H267.846V323.19Z" fill="#D9D9D9"/>
<path d="M277.851 270.554H267.25V281.155H277.851V270.554Z" fill="white"/>
<path d="M278.447 281.759H266.668V269.964H278.447V281.759ZM267.846 280.58H277.269V271.143H267.846V280.58Z" fill="#D9D9D9"/>
<path d="M235.449 270.554H224.848V281.155H235.449V270.554Z" fill="white"/>
<path d="M236.033 281.759H224.254V269.964H236.033V281.759ZM225.432 280.58H234.855V271.143H225.432V280.58Z" fill="#D9D9D9"/>
<path d="M235.449 355.627H224.848V366.228H235.449V355.627Z" fill="white"/>
<path d="M236.033 366.833H224.254V355.038H236.033V366.833ZM225.432 365.654H234.855V356.218H225.432V365.654Z" fill="#D9D9D9"/>
<path d="M781.724 180.615H779.957V179.436H780.546V178.846H781.724V180.615Z" fill="#D9D9D9"/>
<path d="M777.592 180.615H775.236V179.435H777.592V180.615ZM772.88 180.615H770.524V179.435H772.88V180.615ZM768.168 180.615H765.813V179.435H768.168V180.615ZM763.457 180.615H761.101V179.435H763.457V180.615ZM758.745 180.615H756.389V179.435H758.745V180.615ZM754.033 180.615H751.677V179.435H754.033V180.615ZM749.321 180.615H746.965V179.435H749.321V180.615ZM744.609 180.615H742.254V179.435H744.609V180.615ZM739.898 180.615H737.542V179.435H739.898V180.615ZM735.186 180.615H732.83V179.435H735.186V180.615ZM730.474 180.615H728.118V179.435H730.474V180.615ZM725.762 180.615H723.407V179.435H725.762V180.615ZM721.051 180.615H718.695V179.435H721.051V180.615ZM716.339 180.615H713.983V179.435H716.339V180.615ZM711.627 180.615H709.271V179.435H711.627V180.615ZM706.915 180.615H704.559V179.435H706.915V180.615ZM702.204 180.615H699.848V179.435H702.204V180.615Z" fill="#D9D9D9"/>
<path d="M697.353 180.615H695.586V178.846H696.764V179.436H697.353V180.615Z" fill="#D9D9D9"/>
<path d="M696.912 176.486H695.734V174.127H696.912V176.486ZM696.912 171.768H695.734V169.409H696.912V171.768ZM696.912 167.05H695.734V164.691H696.912V167.05ZM696.912 162.332H695.734V159.972H696.912V162.332ZM696.912 157.613H695.734V155.254H696.912V157.613ZM696.912 152.895H695.734V150.536H696.912V152.895ZM696.912 148.177H695.734V145.818H696.912V148.177ZM696.912 143.459H695.734V141.1H696.912V143.459ZM696.912 138.741H695.734V136.382H696.912V138.741ZM696.912 134.023H695.734V131.664H696.912V134.023ZM696.912 129.305H695.734V126.946H696.912V129.305ZM696.912 124.587H695.734V122.228H696.912V124.587ZM696.912 119.869H695.734V117.51H696.912V119.869ZM696.912 115.151H695.734V112.792H696.912V115.151ZM696.912 110.432H695.734V108.073H696.912V110.432ZM696.912 105.714H695.734V103.355H696.912V105.714ZM696.912 100.996H695.734V98.6372H696.912V100.996Z" fill="#D9D9D9"/>
<path d="M696.764 96.1306H695.586V94.3613H697.353V95.5409H696.764V96.1306Z" fill="#D9D9D9"/>
<path d="M777.592 95.6893H775.236V94.5098H777.592V95.6893ZM772.88 95.6893H770.524V94.5098H772.88V95.6893ZM768.168 95.6893H765.813V94.5098H768.168V95.6893ZM763.457 95.6893H761.101V94.5098H763.457V95.6893ZM758.745 95.6893H756.389V94.5098H758.745V95.6893ZM754.033 95.6893H751.677V94.5098H754.033V95.6893ZM749.321 95.6893H746.965V94.5098H749.321V95.6893ZM744.609 95.6893H742.254V94.5098H744.609V95.6893ZM739.898 95.6893H737.542V94.5098H739.898V95.6893ZM735.186 95.6893H732.83V94.5098H735.186V95.6893ZM730.474 95.6893H728.118V94.5098H730.474V95.6893ZM725.762 95.6893H723.407V94.5098H725.762V95.6893ZM721.051 95.6893H718.695V94.5098H721.051V95.6893ZM716.339 95.6893H713.983V94.5098H716.339V95.6893ZM711.627 95.6893H709.271V94.5098H711.627V95.6893ZM706.915 95.6893H704.559V94.5098H706.915V95.6893ZM702.204 95.6893H699.848V94.5098H702.204V95.6893Z" fill="#D9D9D9"/>
<path d="M781.724 96.1321H780.546V95.5423H779.957V94.3628H781.724V96.1321Z" fill="#D9D9D9"/>
<path d="M781.717 176.486H780.539V174.127H781.717V176.486ZM781.717 171.768H780.539V169.409H781.717V171.768ZM781.717 167.05H780.539V164.691H781.717V167.05ZM781.717 162.332H780.539V159.972H781.717V162.332ZM781.717 157.613H780.539V155.254H781.717V157.613ZM781.717 152.895H780.539V150.536H781.717V152.895ZM781.717 148.177H780.539V145.818H781.717V148.177ZM781.717 143.459H780.539V141.1H781.717V143.459ZM781.717 138.741H780.539V136.382H781.717V138.741ZM781.717 134.023H780.539V131.664H781.717V134.023ZM781.717 129.305H780.539V126.946H781.717V129.305ZM781.717 124.587H780.539V122.228H781.717V124.587ZM781.717 119.869H780.539V117.51H781.717V119.869ZM781.717 115.151H780.539V112.792H781.717V115.151ZM781.717 110.432H780.539V108.073H781.717V110.432ZM781.717 105.714H780.539V103.355H781.717V105.714ZM781.717 100.996H780.539V98.6372H781.717V100.996Z" fill="#D9D9D9"/>
<path d="M701.613 174.717H691.012V185.318H701.613V174.717Z" fill="white"/>
<path d="M702.209 185.923H690.43V174.128H702.209V185.923ZM691.608 184.744H701.031V175.307H691.608V184.744Z" fill="#D9D9D9"/>
<path d="M701.613 132.254H691.012V142.855H701.613V132.254Z" fill="white"/>
<path d="M702.209 143.46H690.43V131.665H702.209V143.46ZM691.608 142.28H701.031V132.844H691.608V142.28Z" fill="#D9D9D9"/>
<path d="M701.613 89.6431H691.012V100.244H701.613V89.6431Z" fill="white"/>
<path d="M702.209 100.996H690.43V89.2012H702.209V100.996ZM691.608 99.8169H701.031V90.3807H691.608V99.8169Z" fill="#D9D9D9"/>
<path d="M786.574 174.717H775.973V185.318H786.574V174.717Z" fill="white"/>
<path d="M787.023 185.923H775.391V174.128H787.023V185.923ZM776.569 184.744H785.845V175.307H776.569V184.744Z" fill="#D9D9D9"/>
<path d="M786.574 132.254H775.973V142.855H786.574V132.254Z" fill="white"/>
<path d="M787.023 143.46H775.391V131.665H787.023V143.46ZM776.569 142.28H785.845V132.844H776.569V142.28Z" fill="#D9D9D9"/>
<path d="M786.574 89.6431H775.973V100.244H786.574V89.6431Z" fill="white"/>
<path d="M787.023 100.996H775.391V89.2012H787.023V100.996ZM776.569 99.8169H785.845V90.3807H776.569V99.8169Z" fill="#D9D9D9"/>
<path d="M744.027 89.6431H733.426V100.244H744.027V89.6431Z" fill="white"/>
<path d="M744.611 100.996H732.832V89.2012H744.611V100.996ZM734.01 99.8169H743.434V90.3807H734.01V99.8169Z" fill="#D9D9D9"/>
<path d="M744.027 174.717H733.426V185.318H744.027V174.717Z" fill="white"/>
<path d="M744.611 185.923H732.832V174.128H744.611V185.923ZM734.01 184.744H743.434V175.307H734.01V184.744Z" fill="#D9D9D9"/>
<path d="M241.191 25.9497H56.2539V152.218H241.191V25.9497Z" stroke="#D9D9D9" stroke-miterlimit="10"/>
<path d="M70.2399 33.4687C70.2399 34.4854 69.8365 35.4605 69.1186 36.1794C68.4006 36.8983 67.4269 37.3022 66.4115 37.3022C65.4219 37.264 64.4856 36.8434 63.7992 36.1286C63.1128 35.4137 62.7297 34.4604 62.7305 33.4687C62.7305 32.4911 63.1183 31.5536 63.8086 30.8623C64.499 30.1711 65.4353 29.7827 66.4115 29.7827C67.4019 29.782 68.354 30.1656 69.0678 30.8529C69.7817 31.5402 70.2018 32.4778 70.2399 33.4687Z" fill="#BFBFBF"/>
<path d="M85.4117 33.4682C85.4117 34.4849 85.0084 35.46 84.2905 36.1789C83.5725 36.8978 82.5988 37.3017 81.5834 37.3017C80.5938 37.2636 79.6575 36.8429 78.9711 36.1281C78.2847 35.4133 77.9016 34.4599 77.9023 33.4682C77.9023 32.4906 78.2902 31.5531 78.9805 30.8618C79.6708 30.1706 80.6071 29.7822 81.5834 29.7822C82.5737 29.7815 83.5258 30.1651 84.2397 30.8524C84.9536 31.5397 85.3736 32.4773 85.4117 33.4682Z" fill="#D9D9D9"/>
<path d="M100.425 33.4682C100.425 34.4458 100.037 35.3834 99.3465 36.0746C98.6561 36.7659 97.7199 37.1543 96.7436 37.1543C95.7673 37.1543 94.831 36.7659 94.1407 36.0746C93.4503 35.3834 93.0625 34.4458 93.0625 33.4682C93.0625 32.4906 93.4503 31.5531 94.1407 30.8618C94.831 30.1706 95.7673 29.7822 96.7436 29.7822C97.7199 29.7822 98.6561 30.1706 99.3465 30.8618C100.037 31.5531 100.425 32.4906 100.425 33.4682Z" fill="#FDB602"/>
<path d="M56.2539 40.6943H241.338" stroke="#D9D9D9" stroke-miterlimit="10"/>
<path d="M194.803 243.866C195.296 243.581 195.854 243.432 196.423 243.432C196.992 243.432 197.55 243.581 198.043 243.866L198.926 244.308L199.81 244.751C200.322 245.039 200.761 245.442 201.093 245.928C201.425 246.414 201.641 246.969 201.724 247.552V251.68L214.976 251.238V247.11C214.961 246.539 215.105 245.975 215.391 245.48C215.677 244.986 216.094 244.58 216.595 244.308L218.362 243.276C218.814 242.914 219.362 242.693 219.938 242.64C220.514 242.588 221.092 242.707 221.602 242.981L225.135 244.898L231.467 233.25L227.933 231.334C227.392 231.057 226.94 230.634 226.627 230.113C226.315 229.592 226.155 228.993 226.166 228.385C226.239 227.748 226.239 227.105 226.166 226.468C226.09 225.886 226.19 225.294 226.452 224.768C226.715 224.243 227.128 223.808 227.639 223.519L231.025 221.308L224.105 209.955L220.571 212.166C220.078 212.451 219.52 212.601 218.951 212.601C218.383 212.601 217.824 212.451 217.332 212.166L216.448 211.577L215.565 211.134C215.047 210.908 214.605 210.538 214.292 210.067C213.979 209.597 213.807 209.046 213.798 208.48V204.352L200.546 204.794V208.775C200.609 209.374 200.487 209.977 200.197 210.504C199.908 211.031 199.464 211.457 198.926 211.724C198.335 211.979 197.788 212.328 197.307 212.756C196.812 213.086 196.243 213.287 195.651 213.338C195.059 213.39 194.464 213.291 193.92 213.051L190.386 210.987L184.055 222.782L187.736 224.699C188.249 224.995 188.672 225.427 188.957 225.946C189.243 226.466 189.381 227.055 189.355 227.648V229.564C189.431 230.147 189.332 230.739 189.069 231.264C188.807 231.789 188.394 232.224 187.883 232.513L184.496 234.725L191.417 245.93L194.803 243.866ZM198.043 222.782C199.443 220.235 201.789 218.343 204.572 217.515C207.356 216.687 210.353 216.99 212.914 218.359C214.796 219.397 216.33 220.969 217.322 222.878C218.314 224.786 218.721 226.946 218.491 229.085C218.26 231.224 217.404 233.247 216.028 234.9C214.652 236.553 212.82 237.762 210.76 238.375C208.7 238.987 206.505 238.976 204.452 238.343C202.398 237.71 200.577 236.484 199.218 234.817C197.859 233.151 197.022 231.119 196.813 228.978C196.604 226.836 197.032 224.681 198.043 222.782Z" fill="#D9D9D9"/>
<path d="M228.671 193C228.891 192.648 229.194 192.356 229.554 192.15C229.913 191.944 230.319 191.831 230.733 191.821H232.205C232.619 191.831 233.025 191.944 233.384 192.15C233.744 192.356 234.047 192.648 234.267 193L235.592 195.507L243.69 190.789L242.218 188.282C242.017 187.915 241.924 187.499 241.95 187.081C241.976 186.664 242.12 186.262 242.365 185.923C242.643 185.551 242.889 185.157 243.101 184.743C243.255 184.37 243.523 184.055 243.867 183.843C244.211 183.631 244.613 183.533 245.015 183.564H247.813V174.275H245.015C244.6 174.273 244.195 174.145 243.853 173.908C243.512 173.671 243.25 173.337 243.101 172.948C242.823 172.577 242.577 172.182 242.365 171.769C242.133 171.452 241.996 171.076 241.97 170.684C241.944 170.293 242.03 169.902 242.218 169.557L243.69 167.051L235.592 162.333L234.267 164.839C234.065 165.197 233.761 165.487 233.393 165.67C233.026 165.854 232.612 165.924 232.205 165.871H230.733C230.326 165.924 229.912 165.854 229.545 165.67C229.177 165.487 228.873 165.197 228.671 164.839L227.346 162.333L219.248 167.051L220.72 169.41C220.879 169.788 220.949 170.197 220.923 170.607C220.898 171.016 220.778 171.414 220.573 171.769C220.361 172.182 220.115 172.577 219.837 172.948C219.688 173.337 219.426 173.671 219.085 173.908C218.743 174.145 218.338 174.273 217.923 174.275H215.125V183.564H217.923C218.325 183.533 218.727 183.631 219.071 183.843C219.415 184.055 219.683 184.37 219.837 184.743C220.049 185.157 220.295 185.551 220.573 185.923C220.778 186.278 220.898 186.676 220.923 187.085C220.949 187.495 220.879 187.904 220.72 188.282L219.248 190.789L227.346 195.507L228.671 193ZM223.812 178.846C223.812 177.33 224.261 175.847 225.103 174.586C225.944 173.326 227.14 172.343 228.539 171.763C229.938 171.182 231.477 171.03 232.963 171.326C234.448 171.622 235.812 172.352 236.883 173.425C237.954 174.497 238.683 175.863 238.979 177.35C239.274 178.837 239.122 180.379 238.543 181.78C237.963 183.181 236.982 184.378 235.723 185.221C234.464 186.063 232.983 186.513 231.469 186.513C230.458 186.533 229.453 186.348 228.515 185.97C227.577 185.592 226.725 185.028 226.01 184.312C225.295 183.596 224.732 182.743 224.354 181.803C223.977 180.864 223.792 179.858 223.812 178.846Z" fill="#D9D9D9"/>
<path d="M758.892 440.847C758.535 440.645 758.245 440.34 758.062 439.973C757.878 439.605 757.808 439.191 757.861 438.783V437.308C757.808 436.901 757.878 436.486 758.062 436.119C758.245 435.751 758.535 435.446 758.892 435.244L761.395 433.917L756.684 425.808L754.18 427.282C753.828 427.441 753.443 427.51 753.058 427.485C752.673 427.459 752.3 427.339 751.972 427.135L750.794 426.398C750.393 426.269 750.046 426.011 749.807 425.664C749.567 425.318 749.448 424.902 749.469 424.481V421.68H740.192V424.481C740.223 424.884 740.125 425.287 739.914 425.631C739.702 425.975 739.387 426.243 739.014 426.398L737.836 427.135C737.482 427.34 737.085 427.46 736.676 427.486C736.267 427.511 735.858 427.442 735.48 427.282L732.977 425.808L728.266 433.917L730.769 435.244C731.12 435.464 731.412 435.767 731.618 436.128C731.823 436.488 731.936 436.894 731.947 437.308V438.783C731.936 439.198 731.823 439.603 731.618 439.964C731.412 440.324 731.12 440.627 730.769 440.847L728.266 442.174L732.977 450.283L735.48 448.809C735.847 448.608 736.263 448.515 736.68 448.541C737.097 448.567 737.498 448.711 737.836 448.956L739.014 449.693C739.387 449.848 739.702 450.116 739.914 450.46C740.125 450.805 740.223 451.207 740.192 451.61V454.412H749.469V451.61C749.471 451.194 749.599 450.789 749.835 450.447C750.072 450.104 750.406 449.842 750.794 449.693L751.972 448.956C752.31 448.711 752.711 448.567 753.128 448.541C753.545 448.515 753.961 448.608 754.328 448.809L756.684 450.283L761.395 442.174L758.892 440.847ZM744.904 445.713C743.384 445.742 741.889 445.317 740.611 444.493C739.333 443.668 738.328 442.481 737.726 441.083C737.124 439.685 736.951 438.139 737.23 436.642C737.508 435.145 738.226 433.766 739.29 432.679C740.355 431.592 741.719 430.847 743.208 430.539C744.697 430.231 746.244 430.374 747.652 430.949C749.06 431.525 750.264 432.507 751.112 433.771C751.96 435.035 752.413 436.523 752.413 438.046C752.414 440.054 751.627 441.982 750.223 443.415C748.819 444.849 746.909 445.674 744.904 445.713Z" fill="#D9D9D9"/>
<path d="M71.5658 329.677C72.4388 329.172 73.4291 328.907 74.4371 328.907C75.4451 328.907 76.4354 329.172 77.3083 329.677L78.928 330.562L80.4004 331.299C81.3256 331.746 82.1141 332.433 82.6839 333.288C83.2536 334.144 83.5837 335.137 83.6398 336.164V343.242L106.904 342.504L106.61 335.28C106.622 334.279 106.902 333.3 107.419 332.445C107.937 331.589 108.675 330.888 109.555 330.414L112.352 328.645C113.195 328.028 114.193 327.66 115.234 327.582C116.275 327.504 117.317 327.719 118.242 328.203L124.426 331.594L135.469 311.1L129.138 307.708C128.241 307.229 127.5 306.502 127.004 305.613C126.508 304.725 126.277 303.712 126.34 302.695C126.365 301.563 126.316 300.43 126.193 299.304C126.09 298.296 126.27 297.279 126.712 296.368C127.155 295.456 127.841 294.686 128.696 294.144L134.733 290.31L122.512 270.701L116.475 274.387C115.656 274.964 114.679 275.274 113.677 275.274C112.676 275.274 111.699 274.964 110.88 274.387L109.26 273.502L107.64 272.765C106.711 272.339 105.925 271.653 105.377 270.789C104.828 269.926 104.541 268.923 104.548 267.899L104.254 260.822L81.1366 261.559V268.637C81.2187 269.656 80.9966 270.676 80.4985 271.569C80.0004 272.461 79.2488 273.186 78.339 273.65L75.2469 275.566C74.4421 276.151 73.4856 276.489 72.4928 276.542C71.5001 276.594 70.5134 276.358 69.6517 275.861L63.3202 272.47L52.7188 292.964L58.903 296.355C59.816 296.828 60.5771 297.549 61.0982 298.436C61.6192 299.323 61.8791 300.34 61.8478 301.368C61.8233 302.501 61.8725 303.634 61.9951 304.76C62.0658 305.78 61.8562 306.8 61.389 307.71C60.9218 308.62 60.2148 309.384 59.3447 309.92L53.3077 313.753L65.5289 333.363L71.5658 329.677ZM76.4249 295.323C77.8273 291.602 80.3596 288.414 83.6656 286.209C86.9715 284.004 90.8848 282.892 94.8547 283.03C98.8247 283.168 102.652 284.548 105.797 286.978C108.942 289.407 111.248 292.763 112.389 296.573C113.531 300.383 113.451 304.455 112.16 308.217C110.87 311.979 108.434 315.241 105.195 317.544C101.957 319.848 98.0785 321.077 94.1062 321.058C90.1339 321.039 86.2674 319.773 83.0508 317.439C79.657 315.008 77.1652 311.517 75.966 307.514C74.7669 303.512 74.9283 299.224 76.4249 295.323Z" fill="#D9D9D9"/>
<path d="M140.03 256.546C140.42 255.929 140.966 255.427 141.613 255.09C142.259 254.753 142.983 254.594 143.711 254.629H146.067C146.776 254.589 147.482 254.747 148.106 255.086C148.73 255.424 149.247 255.93 149.601 256.546L152.104 260.822L166.092 252.712L163.736 248.437C163.365 247.806 163.181 247.082 163.207 246.351C163.233 245.619 163.468 244.91 163.884 244.308C164.325 243.718 164.62 242.981 165.062 242.244C165.355 241.6 165.835 241.06 166.439 240.692C167.042 240.324 167.742 240.145 168.448 240.18H173.455V223.814H168.448C167.742 223.849 167.042 223.67 166.439 223.302C165.835 222.934 165.355 222.394 165.062 221.75C164.62 221.013 164.325 220.275 163.884 219.686C163.468 219.083 163.233 218.375 163.207 217.643C163.181 216.912 163.365 216.188 163.736 215.557L166.092 211.282L152.104 203.172L149.601 207.448C149.276 208.089 148.764 208.616 148.133 208.959C147.502 209.301 146.781 209.443 146.067 209.365H143.711C142.979 209.433 142.242 209.289 141.589 208.949C140.936 208.609 140.395 208.088 140.03 207.448L137.527 203.172L123.539 211.282L126.042 215.557C126.382 216.198 126.547 216.917 126.521 217.641C126.496 218.366 126.28 219.071 125.895 219.686C125.417 220.321 125.021 221.015 124.717 221.75C124.37 222.382 123.858 222.908 123.236 223.272C122.613 223.636 121.904 223.823 121.183 223.814H116.324V240.18H121.183C121.904 240.171 122.613 240.358 123.236 240.722C123.858 241.085 124.37 241.612 124.717 242.244C125.021 242.979 125.417 243.673 125.895 244.308C126.28 244.923 126.496 245.628 126.521 246.353C126.547 247.077 126.382 247.796 126.042 248.437L123.539 252.712L137.527 260.822L140.03 256.546ZM131.49 232.071C131.294 230.201 131.492 228.31 132.072 226.522C132.652 224.733 133.601 223.087 134.858 221.689C136.114 220.292 137.65 219.174 139.365 218.409C141.081 217.644 142.938 217.249 144.816 217.249C146.694 217.249 148.551 217.644 150.266 218.409C151.982 219.174 153.517 220.292 154.774 221.689C156.03 223.087 156.979 224.733 157.56 226.522C158.14 228.31 158.338 230.201 158.141 232.071C157.795 235.368 156.241 238.42 153.781 240.638C151.32 242.856 148.127 244.083 144.816 244.083C141.505 244.083 138.311 242.856 135.851 240.638C133.39 238.42 131.837 235.368 131.49 232.071Z" fill="#D9D9D9"/>
<path d="M911.435 209.808L903.337 195.801L899.067 198.16C898.44 198.523 897.729 198.713 897.005 198.713C896.282 198.713 895.571 198.523 894.944 198.16L892.883 196.833C892.24 196.539 891.7 196.059 891.332 195.454C890.965 194.85 890.787 194.149 890.821 193.442V188.429H874.477V193.442C874.512 194.149 874.334 194.85 873.966 195.454C873.599 196.059 873.059 196.539 872.416 196.833L870.355 198.16C869.728 198.523 869.017 198.713 868.293 198.713C867.569 198.713 866.858 198.523 866.232 198.16L861.962 195.801L853.863 209.808L858.133 212.315C858.749 212.669 859.253 213.187 859.591 213.812C859.929 214.437 860.087 215.144 860.048 215.853V218.36C860.071 219.067 859.906 219.767 859.57 220.389C859.233 221.011 858.738 221.532 858.133 221.898L853.863 224.405L861.962 238.412L866.232 235.905C866.871 235.565 867.589 235.399 868.313 235.425C869.037 235.451 869.741 235.667 870.355 236.052L872.416 237.232C873.047 237.579 873.573 238.092 873.936 238.715C874.299 239.339 874.486 240.049 874.477 240.771V245.784H890.821V240.771C890.812 240.049 890.999 239.339 891.363 238.715C891.726 238.092 892.251 237.579 892.883 237.232L894.944 236.052C895.558 235.667 896.262 235.451 896.986 235.425C897.71 235.399 898.427 235.565 899.067 235.905L903.337 238.412L911.435 224.405L907.165 221.898C906.561 221.532 906.065 221.011 905.729 220.389C905.392 219.767 905.227 219.067 905.251 218.36V215.853C905.211 215.144 905.369 214.437 905.707 213.812C906.045 213.187 906.55 212.669 907.165 212.315L911.435 209.808ZM895.975 217.033C896.004 219.699 895.239 222.313 893.778 224.542C892.317 226.771 890.226 228.513 887.772 229.547C885.317 230.581 882.611 230.859 879.998 230.346C877.386 229.833 874.985 228.552 873.102 226.667C871.219 224.781 869.94 222.377 869.428 219.761C868.915 217.145 869.193 214.435 870.225 211.977C871.258 209.52 872.998 207.426 875.224 205.963C877.45 204.5 880.06 203.734 882.723 203.763C886.226 203.801 889.574 205.212 892.051 207.692C894.528 210.172 895.936 213.525 895.975 217.033Z" fill="#D9D9D9"/>
<path d="M809.697 42.6104C805.615 53.0301 803.18 64.0237 802.482 75.1948H773.77V74.3101C773.917 73.5729 773.917 72.8357 774.064 72.0985C774.331 68.3092 774.972 64.5557 775.978 60.893C777.424 54.7303 779.547 48.747 782.31 43.0527C782.371 42.9111 782.475 42.7923 782.607 42.713C782.739 42.6336 782.892 42.5977 783.046 42.6104H809.697Z" fill="#D9D9D9"/>
<path d="M808.813 115.298H782.31C782.015 115.298 781.868 115.151 781.721 114.856C777.072 105.478 774.415 95.2363 773.917 84.7782C773.832 84.7025 773.779 84.5969 773.77 84.4833V83.5986H802.04C802.482 83.5986 802.482 83.5986 802.629 84.041L803.071 90.9707C803.513 94.6567 804.102 98.3427 804.838 101.881C805.801 106.293 807.081 110.629 808.666 114.856C808.659 114.936 808.669 115.016 808.694 115.092C808.72 115.168 808.76 115.239 808.813 115.298Z" fill="#D9D9D9"/>
<path d="M919.976 123.703L919.681 124.145C917.391 127.548 914.882 130.798 912.172 133.876C908.902 137.592 905.25 140.953 901.276 143.902C893.57 149.798 884.831 154.199 875.509 156.877C871.876 157.874 868.188 158.662 864.465 159.236H862.846L862.109 158.794L862.846 158.351C870.887 152.828 877.954 146.001 883.754 138.152C886.938 133.675 889.746 128.94 892.147 123.998C892.208 123.856 892.312 123.737 892.444 123.658C892.576 123.578 892.73 123.543 892.883 123.555H919.976V123.703Z" fill="#D9D9D9"/>
<path d="M893.476 75.1952H856.371V42.6108H885.378C885.672 42.6108 885.82 42.7583 885.967 43.0532C888.591 49.1685 890.566 55.5436 891.857 62.073C892.524 65.4804 892.967 68.9281 893.182 72.3938C893.329 73.2785 893.329 74.1631 893.476 75.1952Z" fill="#D9D9D9"/>
<path d="M893.187 83.894V86.1057C893.04 87.8749 892.893 89.7917 892.598 91.561C892.304 93.3302 891.862 96.5739 891.42 98.933C890.248 104.368 888.623 109.694 886.561 114.857C886.5 114.998 886.396 115.117 886.264 115.196C886.132 115.276 885.979 115.312 885.825 115.299H856.082V83.894H893.187Z" fill="#D9D9D9"/>
<path d="M847.982 42.9053V75.3422H811.76C811.736 74.553 811.785 73.7632 811.907 72.9831C812.054 71.2139 812.202 69.2971 812.496 67.5278C812.791 65.7586 813.38 62.0725 813.969 59.2712C815.223 53.758 816.998 48.3768 819.269 43.2002C819.417 42.9053 819.564 42.9053 819.858 42.9053H847.982Z" fill="#D9D9D9"/>
<path d="M847.976 84.1894V115.299H819.116C818.963 115.312 818.809 115.276 818.677 115.197C818.545 115.117 818.441 114.999 818.38 114.857C816.183 109.59 814.554 104.104 813.521 98.4911C812.932 95.5423 812.49 92.7409 812.196 89.7921C811.901 86.8433 811.901 85.9587 811.754 84.042V83.7471H847.534C847.976 83.7471 847.976 83.8945 847.976 84.1894Z" fill="#D9D9D9"/>
<path d="M932.794 75.3417H902.462C901.798 64.1326 899.414 53.0927 895.395 42.6099H923.665C923.819 42.5973 923.972 42.6331 924.104 42.7125C924.236 42.7918 924.34 42.9107 924.401 43.0522C929.307 52.9958 932.161 63.827 932.794 74.8994V75.3417Z" fill="#D9D9D9"/>
<path d="M932.796 83.5996V85.6638C932.502 88.4651 932.207 91.2665 931.766 93.9204C930.642 100.218 928.763 106.357 926.17 112.203L924.845 115.004C924.845 115.299 924.698 115.299 924.403 115.299H896.133C896.541 114.34 896.886 113.355 897.164 112.351C898.818 107.542 900.098 102.613 900.992 97.6065C901.581 93.9696 902.023 90.2836 902.317 86.5484C902.293 85.6612 902.342 84.7735 902.464 83.8945C902.464 83.747 902.464 83.5996 902.759 83.5996H932.796Z" fill="#D9D9D9"/>
<path d="M919.09 34.3536C919.09 34.373 919.086 34.3922 919.078 34.4101C919.071 34.428 919.06 34.4442 919.047 34.4579C919.033 34.4716 919.017 34.4824 918.999 34.4899C918.981 34.4973 918.962 34.5011 918.942 34.5011H891.997C891.703 34.5011 891.555 34.3536 891.408 34.0588C887.836 27.0329 883.383 20.4926 878.156 14.5966C875.098 11.1145 871.694 7.95289 867.996 5.16042L862.548 1.17952C862.401 1.03208 862.254 1.03209 862.254 0.884646C862.254 0.737206 862.401 0.737205 862.548 0.589764C862.696 0.442324 862.401 0.294881 862.401 0C871.78 1.14018 880.894 3.88304 889.347 8.10923C901.34 14.1645 911.582 23.2009 919.09 34.3536Z" fill="#D9D9D9"/>
<path d="M842.823 158.942H842.087C839.154 158.629 836.249 158.087 833.4 157.32C828.052 155.975 822.867 154.047 817.939 151.57C812.324 148.722 807.04 145.26 802.184 141.249C798.791 138.367 795.639 135.211 792.761 131.813C790.619 129.193 788.651 126.435 786.871 123.556V123.409H811.902C812.197 123.409 812.344 123.556 812.491 123.851C815.11 129.064 818.164 134.045 821.62 138.742C824.849 142.984 828.446 146.931 832.369 150.538C835.549 153.536 838.944 156.296 842.529 158.794L842.823 158.942Z" fill="#D9D9D9"/>
<path d="M842.531 0.884664L838.703 3.68603C834.415 7.01951 830.424 10.7194 826.776 14.7441C821.79 20.1615 817.533 26.2087 814.113 32.7318C813.978 33.1991 813.78 33.6456 813.524 34.0588H813.082C812.644 34.133 812.196 34.133 811.757 34.0588H787.609C801.008 15.039 819.119 3.53859 842.236 0.147461C842.151 0.223081 842.099 0.328716 842.089 0.442338L842.531 0.884664Z" fill="#D9D9D9"/>
<path d="M882.439 123.703C879.004 129.737 874.851 135.332 870.07 140.364C865.925 144.873 861.225 148.836 856.082 152.159V123.703H882.439Z" fill="#D9D9D9"/>
<path d="M847.975 123.703V151.717C837.491 144.501 828.862 134.901 822.797 123.703H847.975Z" fill="#D9D9D9"/>
<path d="M881.55 34.2063H856.371V7.66699C861.537 11.0189 866.282 14.9789 870.506 19.4622C874.684 23.9833 878.385 28.9242 881.55 34.2063Z" fill="#D9D9D9"/>
<path d="M847.984 8.40332V34.5003H823.836C829.748 24.0387 838.017 15.1028 847.984 8.40332Z" fill="#D9D9D9"/>
<path d="M0 481.836L120.445 481.541L241.037 481.394L482.074 481.099L723.11 481.394L843.555 481.541L964 481.836L843.555 482.278L723.11 482.426L482.074 482.573L241.037 482.278H120.445L0 481.836Z" fill="#0D0D0D"/>
<path d="M805.716 55.4375H155.785V490.815H805.716V55.4375Z" fill="#F5F5F5"/>
<path d="M801.015 60.7461H160.508V485.508H801.015V60.7461Z" fill="#0D0D0D"/>
<path d="M890.385 523.414H71.125V553.3H890.385V523.414Z" fill="#D9D9D9"/>
<path d="M71.125 523.413L155.79 490.829H805.868L890.532 523.413H71.125Z" fill="#F5F5F5"/>
<path d="M163.293 511.914L217.92 490.83H743.578L798.205 511.914H163.293Z" fill="#0D0D0D"/>
<path d="M764.933 93.0356H196.723V453.262H764.933V93.0356Z" fill="white"/>
<path d="M764.926 93.0356H196.273V106.895H764.926V93.0356Z" fill="#262626"/>
<path d="M207.326 99.9646C207.433 100.479 207.423 101.011 207.299 101.522C207.175 102.033 206.938 102.509 206.607 102.917C206.275 103.324 205.857 103.653 205.383 103.879C204.909 104.105 204.391 104.222 203.866 104.222C203.341 104.222 202.823 104.105 202.348 103.879C201.874 103.653 201.456 103.324 201.125 102.917C200.794 102.509 200.557 102.033 200.433 101.522C200.308 101.011 200.299 100.479 200.406 99.9646C200.571 99.1678 201.005 98.4523 201.635 97.9386C202.265 97.425 203.053 97.1445 203.866 97.1445C204.679 97.1445 205.466 97.425 206.097 97.9386C206.727 98.4523 207.161 99.1678 207.326 99.9646Z" fill="#D9D9D9"/>
<path d="M221.307 99.9651C221.327 100.423 221.254 100.88 221.093 101.308C220.932 101.737 220.685 102.128 220.369 102.459C220.052 102.79 219.672 103.053 219.251 103.232C218.831 103.412 218.378 103.504 217.921 103.504C217.456 103.504 216.997 103.412 216.568 103.234C216.139 103.057 215.75 102.796 215.422 102.467C215.094 102.139 214.833 101.749 214.656 101.319C214.478 100.89 214.387 100.43 214.387 99.9651C214.386 99.5071 214.479 99.0538 214.658 98.6324C214.837 98.2111 215.1 97.8305 215.43 97.5136C215.76 97.1967 216.151 96.95 216.579 96.7886C217.007 96.6271 217.464 96.5541 217.921 96.574C218.819 96.574 219.68 96.9313 220.315 97.5672C220.95 98.2032 221.307 99.0657 221.307 99.9651Z" fill="white"/>
<path d="M235.304 99.9649C235.304 100.864 234.948 101.727 234.313 102.363C233.677 102.999 232.816 103.356 231.918 103.356C231.02 103.356 230.158 102.999 229.523 102.363C228.888 101.727 228.531 100.864 228.531 99.9649C228.531 99.0655 228.888 98.2029 229.523 97.567C230.158 96.931 231.02 96.5737 231.918 96.5737C232.816 96.5737 233.677 96.931 234.313 97.567C234.948 98.2029 235.304 99.0655 235.304 99.9649Z" fill="#FDB602"/>
<path d="M621.231 232.957H342.941V270.967H621.231V232.957Z" fill="white" stroke="#D9D9D9" stroke-miterlimit="10"/>
<path d="M621.227 232.957H583.238V270.967H621.227V232.957Z" fill="#FDB602"/>
<path d="M614.302 262.739L610.768 265.392L604.289 256.841L601.934 253.597L603.259 252.86C604.092 252.291 604.713 251.461 605.026 250.501L607.529 253.892L614.302 262.739Z" fill="white"/>
<path d="M607.388 242.54C605.794 240.679 603.549 239.5 601.114 239.246C598.679 238.992 596.24 239.682 594.297 241.174C592.354 242.666 591.057 244.846 590.671 247.267C590.285 249.688 590.84 252.165 592.222 254.188C593.596 255.989 595.563 257.243 597.773 257.729C599.984 258.215 602.295 257.901 604.296 256.842L605.621 255.958C606.37 255.382 607.018 254.684 607.535 253.893C608.722 252.232 609.348 250.235 609.321 248.193C609.295 246.15 608.617 244.17 607.388 242.54ZM603.265 252.861L601.94 253.599C600.774 254.092 599.478 254.187 598.253 253.867C597.028 253.547 595.943 252.83 595.167 251.829C594.275 250.588 593.9 249.049 594.119 247.536C594.339 246.023 595.137 244.655 596.345 243.72C596.94 243.263 597.62 242.931 598.346 242.742C599.072 242.554 599.828 242.513 600.57 242.624C601.311 242.734 602.023 242.992 602.663 243.383C603.304 243.774 603.859 244.289 604.296 244.9C604.903 245.684 605.292 246.617 605.421 247.601C605.55 248.586 605.416 249.587 605.032 250.502C604.719 251.462 604.098 252.292 603.265 252.861Z" fill="white"/>
<path d="M352.944 240.476H350.883V263.551H352.944V240.476Z" fill="#0D0D0D"/>
<path d="M407.287 285.887H342.941V306.278H407.287V285.887Z" fill="#D9D9D9"/>
<path d="M514.177 285.887H449.832V306.278H514.177V285.887Z" fill="#FDB602"/>
<path d="M622.107 285.887H557.762V306.278H622.107V285.887Z" fill="#D9D9D9"/>
<path d="M570.86 191.82H393.285V204.161H570.86V191.82Z" fill="#1F1F1F"/>
<path d="M296.849 327.761H200.258V203.616H271.965L296.849 227.354V327.761Z" fill="#D9D9D9"/>
<path d="M271.961 203.616L296.845 227.354H271.961V203.616Z" fill="#F5F5F5"/>
<path d="M209.526 227.647H263.27V224.463H209.526V227.647Z" fill="#F5F5F5"/>
<path d="M209.526 235.61H263.27V232.426H209.526V235.61Z" fill="#F5F5F5"/>
<path d="M209.526 243.867H263.27V240.682H209.526V243.867Z" fill="#F5F5F5"/>
<path d="M209.681 251.828H288.309V248.643H209.681V251.828Z" fill="#F5F5F5"/>
<path d="M209.681 259.937H288.309V256.752H209.681V259.937Z" fill="#F5F5F5"/>
<path d="M209.681 267.9H288.309V264.716H209.681V267.9Z" fill="#F5F5F5"/>
<path d="M209.681 276.009H288.309V272.824H209.681V276.009Z" fill="#F5F5F5"/>
<path d="M209.681 283.971H288.309V280.786H209.681V283.971Z" fill="#F5F5F5"/>
<path d="M209.681 291.932H288.309V288.747H209.681V291.932Z" fill="#F5F5F5"/>
<path d="M209.681 300.189H288.309V297.005H209.681V300.189Z" fill="#F5F5F5"/>
<path d="M209.681 308.15H288.309V304.966H209.681V308.15Z" fill="#F5F5F5"/>
<path d="M209.681 316.26H288.309V313.075H209.681V316.26Z" fill="#F5F5F5"/>
<path d="M865.055 376.563V285.739H688.569V376.563H865.055Z" fill="white" stroke="#F0F0F0" stroke-width="0.5" stroke-miterlimit="10"/>
<path d="M699.405 364.768H773.469V297.594H699.405V364.768Z" fill="#D9D9D9"/>
<path d="M708.976 312.279C708.566 314.351 708.995 316.502 710.168 318.258C711.342 320.014 713.164 321.231 715.234 321.641C717.303 322.052 719.451 321.623 721.205 320.447C722.958 319.272 724.174 317.448 724.584 315.375C724.82 314.084 724.739 312.755 724.349 311.502C723.959 310.249 723.271 309.11 722.344 308.182C721.417 307.254 720.279 306.565 719.028 306.174C717.777 305.784 716.449 305.703 715.16 305.939C713.634 306.298 712.242 307.085 711.147 308.208C710.051 309.331 709.298 310.743 708.976 312.279Z" fill="#F5F5F5"/>
<path d="M720.168 350.172H773.47L746.819 314.049L720.168 350.172Z" fill="#D9D9D9"/>
<path d="M699.402 350.172H743.281L721.342 326.729L699.402 350.172Z" fill="#F5F5F5"/>
<path d="M773.466 350.171H699.402V364.65H773.466V350.171Z" fill="#F5F5F5"/>
<path d="M849.011 297.535H785.844V302.135H849.011V297.535Z" fill="#D9D9D9"/>
<path d="M849.011 306.971H785.844V311.571H849.011V306.971Z" fill="#D9D9D9"/>
<path d="M849.011 316.556H785.844V321.156H849.011V316.556Z" fill="#D9D9D9"/>
<path d="M849.011 326.139H785.844V330.739H849.011V326.139Z" fill="#D9D9D9"/>
<path d="M849.011 335.575H785.844V340.175H849.011V335.575Z" fill="#D9D9D9"/>
<path d="M265.776 277.041H98.9492V490.27H265.776V277.041Z" fill="white" stroke="#D9D9D9" stroke-miterlimit="10"/>
<path d="M265.776 277.041H98.9492V293.009H265.776V277.041Z" fill="#FDB602" stroke="#D9D9D9" stroke-miterlimit="10"/>
<path d="M113.973 285.15C113.935 286.219 113.484 287.232 112.715 287.974C111.946 288.717 110.919 289.131 109.851 289.131C108.796 289.131 107.785 288.711 107.039 287.965C106.294 287.218 105.875 286.206 105.875 285.15C105.875 284.094 106.294 283.081 107.039 282.335C107.785 281.588 108.796 281.169 109.851 281.169C110.919 281.168 111.946 281.583 112.715 282.326C113.484 283.068 113.935 284.081 113.973 285.15Z" fill="#0D0D0D"/>
<path d="M130.318 285.15C130.318 286.206 129.899 287.218 129.154 287.965C128.408 288.711 127.397 289.131 126.343 289.131C125.288 289.131 124.277 288.711 123.532 287.965C122.786 287.218 122.367 286.206 122.367 285.15C122.367 284.094 122.786 283.081 123.532 282.335C124.277 281.588 125.288 281.169 126.343 281.169C127.397 281.169 128.408 281.588 129.154 282.335C129.899 283.081 130.318 284.094 130.318 285.15Z" fill="#D9D9D9"/>
<path d="M146.65 285.15C146.65 285.937 146.417 286.707 145.98 287.362C145.543 288.016 144.923 288.526 144.196 288.828C143.47 289.129 142.67 289.208 141.899 289.054C141.128 288.901 140.42 288.522 139.864 287.965C139.308 287.408 138.929 286.699 138.776 285.926C138.622 285.154 138.701 284.354 139.002 283.626C139.303 282.899 139.812 282.277 140.466 281.84C141.12 281.402 141.888 281.169 142.675 281.169C143.729 281.169 144.74 281.588 145.486 282.335C146.231 283.081 146.65 284.094 146.65 285.15Z" fill="#262626"/>
<path d="M98.9492 292.965H265.628" stroke="#D9D9D9" stroke-miterlimit="10"/>
<path d="M192.453 441.731H110.586V449.384H192.453V441.731Z" fill="#D9D9D9"/>
<path d="M254.148 456.624H110.586V461.239H254.148V456.624Z" fill="#D9D9D9"/>
<path d="M254.148 465.322H110.586V469.937H254.148V465.322Z" fill="#D9D9D9"/>
<path d="M254.148 474.169H110.586V478.784H254.148V474.169Z" fill="#D9D9D9"/>
<path d="M110.58 432.296H253.848L253.848 302.489H110.58L110.58 432.296Z" fill="#D9D9D9"/>
<path d="M129.131 331.003C128.498 334.228 128.917 337.571 130.326 340.539C131.734 343.508 134.058 345.945 136.954 347.491C139.851 349.036 143.167 349.61 146.413 349.125C149.659 348.641 152.664 347.125 154.985 344.801C157.306 342.478 158.82 339.468 159.303 336.218C159.787 332.967 159.214 329.647 157.671 326.746C156.127 323.846 153.693 321.519 150.729 320.109C147.764 318.698 144.426 318.279 141.205 318.913C138.221 319.5 135.479 320.963 133.329 323.116C131.179 325.269 129.717 328.015 129.131 331.003Z" fill="#F5F5F5"/>
<path d="M150.93 404.282H253.853L202.465 334.396L150.93 404.282Z" fill="#D9D9D9"/>
<path d="M110.586 404.429H195.692L153.139 358.87L110.586 404.429Z" fill="#F5F5F5"/>
<path d="M253.853 404.282H110.586V432.252H253.853V404.282Z" fill="#F5F5F5"/>
<path d="M813.817 152.748H710.895V65.4632L762.282 32.7314L813.817 65.4632V152.748Z" fill="#FDB602"/>
<path opacity="0.2" d="M813.817 152.748H710.895V65.4632L762.282 32.7314L813.817 65.4632V152.748Z" fill="#0D0D0D"/>
<path d="M807.923 138.742H716.633V21.3789H784.365L807.923 43.7899V138.742Z" fill="#D9D9D9"/>
<path d="M784.367 21.3789L807.926 43.7899H784.367V21.3789Z" fill="#F5F5F5"/>
<path d="M725.467 44.2324L776.266 44.2324V41.2246L725.467 41.2246V44.2324Z" fill="#F5F5F5"/>
<path d="M725.467 51.752L776.266 51.752V48.7442L725.467 48.7442V51.752Z" fill="#F5F5F5"/>
<path d="M725.467 59.2715L776.266 59.2715V56.2637L725.467 56.2637V59.2715Z" fill="#F5F5F5"/>
<path d="M725.47 66.938L799.828 66.938V63.9302L725.47 63.9302V66.938Z" fill="#F5F5F5"/>
<path d="M725.47 74.4575L799.828 74.4575V71.4497L725.47 71.4497V74.4575Z" fill="#F5F5F5"/>
<path d="M725.47 82.2715L799.828 82.2715V79.2637L725.47 79.2637V82.2715Z" fill="#F5F5F5"/>
<path d="M725.47 89.791L799.828 89.791V86.7832L725.47 86.7832V89.791Z" fill="#F5F5F5"/>
<path d="M725.47 97.3105L799.828 97.3105V94.3028L725.47 94.3028V97.3105Z" fill="#F5F5F5"/>
<path d="M725.47 104.978L799.828 104.978V101.97L725.47 101.97V104.978Z" fill="#F5F5F5"/>
<path d="M725.47 112.497L799.828 112.497V109.489L725.47 109.489V112.497Z" fill="#F5F5F5"/>
<path d="M725.47 120.312L799.828 120.312V117.304L725.47 117.304V120.312Z" fill="#F5F5F5"/>
<path d="M725.47 127.831L799.828 127.831V124.823L725.47 124.823V127.831Z" fill="#F5F5F5"/>
<path d="M813.817 87.4321V152.748H710.895V87.4321L723.999 95.099L737.104 102.913L751.534 111.907L762.282 118.69L773.178 111.907C773.031 111.907 773.031 111.907 773.031 111.76C773.031 111.799 773.047 111.836 773.074 111.864C773.102 111.892 773.139 111.907 773.178 111.907L787.608 102.913L800.713 95.099C804.983 92.4451 809.4 89.9386 813.817 87.4321Z" fill="#FDB602"/>
<path d="M813.817 87.4321L801.154 95.9837L788.492 104.388L775.24 113.087L774.798 113.382L762.871 120.901L762.282 121.196L761.693 120.901L749.914 113.382L749.472 113.087L736.073 104.388L723.41 95.9837L710.895 87.4321L723.999 95.099L737.104 102.913L751.534 111.907L762.282 118.69L773.178 111.907L787.608 102.913L800.713 95.099C804.983 92.4451 809.4 89.9386 813.817 87.4321Z" fill="white"/>
<path d="M751.635 111.865C751.607 111.892 751.57 111.908 751.531 111.908L749.911 113.382L741.96 119.575L731.948 126.947L721.788 133.729C718.254 136.088 714.72 138.152 711.039 140.216C714.278 137.415 717.518 134.908 720.757 132.402C723.996 129.895 727.383 127.536 730.77 125.177C734.156 122.818 737.543 120.459 741.077 118.248L749.469 113.087L751.531 111.908C751.57 111.908 751.607 111.892 751.635 111.865Z" fill="white"/>
<path d="M813.523 140.216C809.842 138.152 806.455 136.088 802.922 133.729L792.615 126.947L782.602 119.575C779.952 117.658 777.301 115.446 774.798 113.382L773.179 111.908C773.031 111.908 773.031 111.908 773.031 111.76C773.031 111.799 773.047 111.837 773.074 111.865C773.102 111.892 773.139 111.908 773.179 111.908L775.24 113.087L783.633 118.248C787.167 120.459 790.553 122.818 793.94 125.177L803.952 132.402C807.192 134.908 810.431 137.415 813.523 140.216Z" fill="white"/>
<path d="M929.103 361.229C912.612 383.493 895.384 409.59 891.262 437.604C891.114 438.046 891.851 438.193 891.998 437.751C893.89 430.077 896.3 422.54 899.213 415.193C910.109 412.244 920.71 409.885 926.453 398.974C932.195 388.064 931.459 373.467 930.428 361.377C930.281 360.787 929.397 360.787 929.103 361.229Z" fill="#FDB602"/>
<path d="M899.361 415.046C906.871 398.385 916.294 381.724 928.368 368.012C928.515 367.865 928.663 368.012 928.515 368.16C920.564 377.891 914.675 388.506 908.785 399.27C914.233 393.814 920.123 388.801 925.276 382.904C925.423 382.756 925.571 382.904 925.571 383.051C920.417 389.244 914.822 395.879 908.049 400.449L902.601 410.475L904.073 409.738C904.073 409.738 904.22 409.885 904.073 409.885L902.601 410.623L899.95 415.341C899.656 415.636 899.214 415.341 899.361 415.046Z" fill="#0D0D0D"/>
<path d="M904.954 409.295C909.375 406.753 913.607 403.895 917.616 400.743H917.764C913.891 404.121 909.642 407.04 905.101 409.442C904.806 409.59 904.659 409.295 904.954 409.295Z" fill="#0D0D0D"/>
<path d="M889.335 433.475C889.335 433.77 889.924 433.77 889.924 433.328C889.924 424.186 889.924 414.898 890.071 405.609C892.427 400.743 897.433 398.089 900.967 394.403C903.504 391.555 905.725 388.441 907.593 385.115C911.833 377.215 914.437 368.539 915.25 359.608C916.133 349.729 912.452 317.145 908.329 318.324C904.206 319.504 899.2 334.985 897.286 340.44C894.267 349.215 892.05 358.246 890.66 367.422C887.421 389.243 887.568 411.507 889.335 433.475Z" fill="#FDB602"/>
<path d="M889.19 393.518C889.779 381.87 892.43 370.075 894.786 358.722C897.142 347.369 900.675 334.984 906.86 324.074C907.007 323.926 907.301 324.074 907.154 324.221C903.009 332.692 899.799 341.592 897.583 350.761L898.908 348.991C899.056 348.696 899.497 348.844 899.35 349.139C898.797 350.164 898.103 351.107 897.289 351.94C895.08 360.639 893.608 369.633 892.283 378.479L892.577 378.184H892.724L892.135 379.069C891.399 383.492 890.81 388.063 890.221 392.486C898.32 385.704 905.093 377.595 908.921 367.569H909.068C905.24 377.89 899.35 387.178 890.074 393.371L889.632 397.057C889.485 397.352 889.19 397.204 889.19 397.057V393.813C889.19 393.813 889.043 393.666 889.19 393.518Z" fill="#0D0D0D"/>
<path d="M893.025 376.564C899.209 367.422 904.951 358.576 909.369 348.402C909.369 348.255 909.663 348.402 909.516 348.402C905.942 358.819 900.448 368.471 893.319 376.858C893.172 377.006 892.877 376.858 893.025 376.564Z" fill="#0D0D0D"/>
<path d="M901.127 346.044C903.778 341.62 906.428 337.197 908.784 332.626C908.931 332.479 909.078 332.627 908.931 332.774C906.975 337.549 904.507 342.097 901.569 346.338C901.422 346.633 900.98 346.338 901.127 346.044Z" fill="#0D0D0D"/>
<path d="M883.01 406.641C882.914 412.788 882.224 418.91 880.948 424.924C880.975 425.571 881.073 426.214 881.243 426.84C883.048 420.244 884.134 413.471 884.482 406.641C884.482 406.346 884.629 406.199 884.482 405.904C884.681 396.717 883.991 387.533 882.421 378.48C879.623 361.524 873.292 345.158 861.512 332.478C861.41 332.399 861.291 332.343 861.164 332.315C861.038 332.287 860.907 332.287 860.78 332.315C860.654 332.343 860.535 332.399 860.433 332.478C860.33 332.557 860.246 332.658 860.187 332.773C855.475 344.863 857.095 359.313 861.07 371.55C863.408 378.073 866.575 384.268 870.494 389.98C874.617 395.583 879.77 400.448 883.01 406.641Z" fill="#FDB602"/>
<path d="M862.835 338.082C874.025 356.364 881.829 377.891 882.86 399.417C882.833 399.487 882.79 399.55 882.732 399.599C882.675 399.648 882.606 399.681 882.533 399.696C882.459 399.711 882.383 399.706 882.311 399.683C882.239 399.66 882.175 399.619 882.124 399.564L881.24 393.814C876.675 389.391 871.816 384.673 868.577 379.07H868.724C872.535 383.867 876.668 388.399 881.093 392.635C880.209 387.769 879.326 383.198 878.148 378.48L877.265 377.448C877.117 377.301 877.412 376.859 877.706 377.153C878.001 377.448 877.853 377.301 877.853 377.448C876.319 371.144 874.401 364.94 872.111 358.871C869.166 355.48 866.074 352.531 863.865 348.402C863.865 348.363 863.881 348.326 863.908 348.298C863.936 348.271 863.974 348.255 864.013 348.255C865.78 350.614 867.399 352.973 869.313 355.185L871.669 357.691C869.027 351.093 865.927 344.689 862.393 338.524C862.246 338.082 862.687 337.934 862.835 338.082Z" fill="#0D0D0D"/>
<path d="M865.194 360.639C868.728 365.505 872.851 370.223 876.237 375.236C876.384 375.383 876.09 375.531 876.09 375.383C871.745 371.023 867.984 366.116 864.9 360.787C864.752 360.639 865.047 360.492 865.194 360.639Z" fill="#0D0D0D"/>
<path d="M876.825 376.268H876.973V376.562H876.678C876.531 376.415 876.678 376.268 876.825 376.268Z" fill="#0D0D0D"/>
<path d="M845.316 373.172C846.2 382.461 851.206 393.666 857.096 400.891C859.718 404.109 863.042 406.682 866.814 408.41C870.937 410.474 875.207 412.833 879.477 414.603C881.615 419.764 883.147 425.158 884.041 430.674L884.483 429.199C881.685 405.461 866.372 385.262 846.789 372.287C846.053 371.697 845.316 372.287 845.316 373.172Z" fill="#FDB602"/>
<path d="M852.084 380.103C851.937 380.103 852.084 379.808 852.232 379.955C863.078 387.906 871.698 398.518 877.263 410.77C877.41 411.065 876.968 411.36 876.821 411.065L874.024 406.347C869.459 405.463 865.336 402.366 861.95 399.418C861.802 399.27 861.95 399.123 862.097 399.27C863.802 400.809 865.68 402.145 867.692 403.251L873.435 405.463C871.815 402.809 870.048 400.302 868.281 397.796C863.422 395.967 858.858 393.433 854.735 390.276C854.735 390.129 854.735 389.981 854.882 390.129C859.005 392.488 863.128 394.699 867.398 396.764C864.737 393.09 861.782 389.638 858.563 386.443L853.999 383.936C853.999 383.936 853.999 383.641 854.146 383.789C855.376 384.206 856.561 384.75 857.68 385.411L852.084 380.103Z" fill="#0D0D0D"/>
<path d="M852.527 388.36L853.263 388.949H853.116C852.822 388.949 852.674 388.802 852.38 388.507C852.085 388.212 852.38 388.212 852.527 388.36Z" fill="#0D0D0D"/>
<path d="M915.103 481.983H861.359L865.629 433.033L866.66 422.122H909.802L910.686 433.033L915.103 481.983Z" fill="#262626"/>
<path d="M910.689 433.033H865.633L866.663 422.122H909.806L910.689 433.033Z" fill="#0D0D0D"/>
<path d="M912.307 414.603H864.012V425.292H912.307V414.603Z" fill="#262626"/>
</svg>
