<svg width="145" height="27" viewBox="0 0 145 27" fill="none" xmlns="http://www.w3.org/2000/svg">
<path d="M28.0445 0.541016H0.933594V26.0854H28.0445V0.541016ZM57.4194 0.541016H30.3085V26.0854H57.4194V0.541016ZM86.7944 0.541016H59.6835V26.0854H86.7944V0.541016ZM116.167 0.541016H89.056V26.0854H116.167V0.541016Z" fill="#00B67A"/>
<path d="M145 0.540039H118V26.08H145V0.540039Z" fill="#00B67A"/>
<path d="M14.4923 17.7551L18.616 16.7698L20.3378 21.774L14.4923 17.7551ZM23.9811 11.2894H16.7254L14.4947 4.85205L12.264 11.2894H5.00586L10.8799 15.2801L8.64918 21.7198L14.5232 17.7291L18.138 15.2801L23.9811 11.2894ZM43.8672 17.7551L47.9909 16.7698L49.7127 21.774L43.8672 17.7551ZM53.356 11.2894H46.0956L43.8649 4.85205L41.6341 11.2894H34.376L40.2501 15.2801L38.017 21.7198L43.891 17.7291L47.5058 15.2801L53.356 11.2894ZM73.2398 17.7551L77.3635 16.7698L79.0853 21.774L73.2398 17.7551ZM82.7286 11.2894H75.4705L73.2398 4.85205L71.0091 11.2894H63.751L69.625 15.2801L67.3943 21.7198L73.2683 17.7291L76.8831 15.2801L82.7286 11.2894ZM102.605 17.7551L106.729 16.7698L108.451 21.774L102.605 17.7551ZM112.094 11.2894H104.836L102.605 4.85205L100.374 11.2894H93.1164L98.9904 15.2801L96.7597 21.7198L102.634 17.7291L106.249 15.2801L112.094 11.2894ZM131.971 17.7551L136.092 16.7698L137.816 21.774L131.971 17.7551ZM141.459 11.2894H134.201L131.971 4.85205L129.738 11.2894H122.479L128.356 15.2801L126.123 21.7198L131.997 17.7291L135.614 15.2801L141.459 11.2894Z" fill="white"/>
</svg>
