<svg width="70" height="31" viewBox="0 0 70 31" fill="none" xmlns="http://www.w3.org/2000/svg">
<path d="M48.473 24.1362C47.1735 24.1362 46.0286 23.8848 45.0383 23.3819C44.0804 22.8885 43.2857 22.1279 42.7501 21.1921C42.1995 20.2065 41.9208 19.092 41.9426 17.9629V11.6575C41.9426 10.4239 42.2117 9.3475 42.7501 8.42821C43.2884 7.49007 44.0519 6.76878 45.0407 6.26436C46.0294 5.74578 47.1735 5.48571 48.473 5.48414C49.7584 5.48414 50.8861 5.73557 51.856 6.23843C52.8447 6.74286 53.6083 7.42878 54.1466 8.29621C54.6849 9.16521 54.9541 10.1474 54.9541 11.2426V11.4501C54.9541 11.5365 54.9188 11.6151 54.8481 11.6858C54.8204 11.7116 54.7878 11.7316 54.7522 11.7446C54.7166 11.7575 54.6788 11.7632 54.641 11.7612H52.2727C52.1877 11.7626 52.1047 11.7352 52.0373 11.6834C51.9864 11.6156 51.9598 11.5325 51.9619 11.4477V11.3204C51.9619 10.3823 51.6402 9.60914 50.9967 9.001C50.3736 8.39286 49.5324 8.08878 48.473 8.08878C47.4152 8.08878 46.5654 8.41014 45.9235 9.05286C45.2832 9.67828 44.9622 10.5119 44.9606 11.5538V18.0666C44.9606 19.11 45.2988 19.9523 45.9753 20.5934C46.6533 21.2189 47.5298 21.5316 48.6049 21.5316C49.6454 21.5316 50.4607 21.2629 51.0509 20.7254C51.6582 20.1691 51.9619 19.4133 51.9619 18.4579V16.8432C51.9619 16.7552 51.918 16.7112 51.8301 16.7112H48.6284C48.5442 16.7121 48.4622 16.6847 48.3954 16.6334C48.3436 16.5659 48.3163 16.4828 48.3177 16.3977V14.4719C48.3157 14.4335 48.3216 14.3951 48.3349 14.359C48.3483 14.3229 48.3688 14.29 48.3954 14.2621C48.4257 14.2299 48.4621 14.2042 48.5025 14.1863C48.543 14.1685 48.5866 14.159 48.6308 14.1584H54.641C54.7273 14.1584 54.7963 14.193 54.8481 14.2621C54.9188 14.3156 54.9541 14.3855 54.9541 14.4719V17.8073C54.9541 19.803 54.364 21.3571 53.1837 22.4697C52.0223 23.5823 50.4505 24.1378 48.473 24.1362ZM61.7788 21.1662C61.7443 21.2008 61.727 21.2361 61.727 21.2723C61.7443 21.3053 61.7788 21.3226 61.8306 21.3241H69.2462C69.3341 21.3241 69.4039 21.3587 69.4557 21.4279C69.5264 21.4813 69.5609 21.5504 69.5593 21.6353V23.6153C69.5593 23.7017 69.5248 23.7803 69.4557 23.851C69.4282 23.8773 69.3957 23.8977 69.3601 23.911C69.3245 23.9244 69.2866 23.9304 69.2486 23.9288H58.0545C57.9695 23.9302 57.8865 23.9028 57.8191 23.851C57.7674 23.7835 57.74 23.7004 57.7414 23.6153V21.7414C57.7414 21.5842 57.794 21.4538 57.8991 21.3501C59.4681 19.6598 60.9949 17.9307 62.478 16.1644L63.7022 14.7312C65.2967 12.8738 66.094 11.4674 66.094 10.5119C66.1038 10.1837 66.0415 9.85724 65.9113 9.5558C65.7811 9.25436 65.5863 8.98528 65.3407 8.76764C64.8384 8.31507 64.1871 8.08878 63.3867 8.08878C62.5894 8.08878 61.9397 8.31428 61.4374 8.76528C60.9509 9.21786 60.7077 9.81736 60.7077 10.5638V11.2403C60.7077 11.3267 60.6731 11.4053 60.6041 11.476C60.5765 11.5023 60.544 11.5227 60.5084 11.536C60.4728 11.5494 60.4349 11.5554 60.3969 11.5538H57.9768C57.8918 11.5552 57.8089 11.5278 57.7414 11.476C57.6897 11.4085 57.6623 11.3254 57.6637 11.2403V10.1206C57.6998 9.1825 57.969 8.36614 58.4712 7.67157C58.9734 6.977 59.6498 6.43878 60.5005 6.05693C61.4124 5.66491 62.3967 5.46974 63.389 5.48414C64.5504 5.48414 65.5651 5.701 66.433 6.13471C67.3009 6.56843 67.9679 7.16793 68.434 7.93321C68.9049 8.67964 69.1403 9.52193 69.1403 10.4601C69.1403 11.8838 68.3854 13.5251 66.8756 15.3841C66.0438 16.426 64.6729 17.9896 62.7628 20.0749L61.7788 21.1662Z" fill="#303B45"/>
<mask id="mask0_4001_18245" style="mask-type:luminance" maskUnits="userSpaceOnUse" x="0" y="0" width="32" height="31">
<path d="M0 0.899414H31.1786V30.6984H0V0.899414Z" fill="white"/>
</mask>
<g mask="url(#mask0_4001_18245)">
<path d="M15.5893 30.7008C24.1985 30.7008 31.1786 24.0301 31.1786 15.8013C31.1786 7.57249 24.2008 0.899414 15.5893 0.899414C6.97775 0.899414 0 7.57013 0 15.8013C0 24.0277 6.9801 30.7008 15.5893 30.7008Z" fill="#FF492C"/>
<path d="M22.3437 12.3173H19.6835C19.7542 11.9166 20.0131 11.695 20.5357 11.4404L21.0254 11.2047C21.9011 10.7734 22.3673 10.2878 22.3673 9.4958C22.3739 9.26511 22.3222 9.03649 22.2168 8.83123C22.1114 8.62598 21.9559 8.45077 21.7646 8.32195C21.3644 8.03909 20.8873 7.89766 20.3333 7.89766C19.9063 7.89199 19.4862 8.00632 19.1209 8.22766C18.7746 8.42032 18.4941 8.71266 18.3158 9.06681L19.0856 9.80459C19.3838 9.22945 19.8185 8.94266 20.3898 8.94423C20.8724 8.94423 21.169 9.1823 21.169 9.5123C21.169 9.79045 21.0278 10.0191 20.4698 10.2902L20.1567 10.4339C19.4756 10.7639 18.9985 11.1434 18.7254 11.5724C18.4507 11.9999 18.3142 12.5404 18.3158 13.1942V13.3733H22.3437V12.3173ZM21.9906 14.5872H17.5789L15.373 18.2361H19.7824L21.9859 21.8849L24.1918 18.2361L21.9906 14.5872Z" fill="white"/>
<path d="M15.75 20.6525C12.9438 20.6525 10.6579 18.4674 10.6579 15.785C10.6579 13.1026 12.9438 10.9199 15.75 10.9199L17.492 7.436C16.9177 7.32698 16.3345 7.27174 15.75 7.271C10.8298 7.271 6.8418 11.0849 6.8418 15.785C6.8418 20.4875 10.8298 24.299 15.75 24.299C17.6357 24.3037 19.4719 23.7333 20.995 22.6679L19.067 19.4716C18.1465 20.2329 16.9694 20.6525 15.75 20.6525Z" fill="white"/>
</g>
</svg>
