<svg width="124" height="31" viewBox="0 0 124 31" fill="none" xmlns="http://www.w3.org/2000/svg">
<path d="M32.4314 10.6895H44.9309V13.0112H40.0153V26.0557H37.3137V13.0112H32.4219V10.6895H32.4314ZM44.3959 14.93H46.7074V17.075H46.7502C46.8263 16.7732 46.9674 16.481 47.1735 16.1981C47.3828 15.9152 47.6325 15.6442 47.9274 15.4179C48.2191 15.1822 48.5457 14.9905 48.9072 14.8427C49.2687 14.6997 49.6357 14.6275 50.0083 14.6259C50.2913 14.6259 50.4982 14.6377 50.6076 14.6495C50.717 14.6589 50.824 14.6801 50.9453 14.6919V17.0537C50.768 17.0219 50.5895 16.9967 50.4102 16.9783C50.2334 16.9574 50.0556 16.9464 49.8775 16.9453C49.4621 16.9469 49.0697 17.0302 48.7003 17.1952C48.3299 17.3628 48.0023 17.6109 47.7419 17.9212C47.4527 18.277 47.2311 18.6819 47.0879 19.1162C46.9262 19.5908 46.8462 20.1361 46.8477 20.7521V26.0439H44.3864V14.93H44.3959ZM62.2653 26.0557H59.8467V24.5047H59.8039C59.4995 25.0672 59.0492 25.5151 58.4531 25.8482C57.8982 26.1738 57.2668 26.3494 56.6219 26.3574C55.1475 26.3605 54.0829 25.9991 53.4281 25.2731C52.7765 24.5471 52.4499 23.4526 52.4483 21.9896V14.93H54.9121V21.7492C54.9089 22.7282 55.0975 23.4188 55.478 23.8211C55.8467 24.2218 56.3817 24.4292 57.0571 24.4292C57.5772 24.4292 58.0092 24.3491 58.3532 24.1888C58.6826 24.0489 58.9713 23.8293 59.1927 23.55C59.4115 23.2907 59.5637 22.9655 59.6612 22.5954C59.7563 22.2277 59.8039 21.827 59.8039 21.3932V14.9394H62.2653V26.0557ZM66.4604 22.487C66.5364 23.2004 66.8092 23.7032 67.2784 23.9955C67.7564 24.2784 68.3248 24.4292 68.9907 24.4292C69.2174 24.4261 69.4782 24.408 69.7731 24.375C70.068 24.342 70.351 24.2666 70.6007 24.1676C70.8472 24.0725 71.0673 23.9206 71.2428 23.7245C71.4136 23.5094 71.496 23.2382 71.4735 22.9655C71.4716 22.8201 71.4396 22.6767 71.3795 22.5441C71.3193 22.4115 71.2324 22.2925 71.1239 22.1947C70.8845 21.9778 70.6029 21.8117 70.2963 21.7067C69.9191 21.5749 69.5329 21.4701 69.1405 21.3932C68.7077 21.3037 68.2685 21.2094 67.823 21.1104C67.3723 21.0135 66.9276 20.8907 66.4913 20.7427C66.0816 20.6086 65.6962 20.4105 65.3498 20.1557C65.0086 19.9134 64.7313 19.5932 64.5412 19.2223C64.3234 18.7848 64.2196 18.3002 64.2392 17.8127C64.2407 17.2109 64.389 16.7049 64.6839 16.2947C64.9788 15.8846 65.3593 15.5593 65.8064 15.3095C66.2806 15.0556 66.7916 14.8759 67.3212 14.7767C67.8793 14.6777 68.4104 14.6275 68.9146 14.6259C69.4933 14.6275 70.0442 14.6887 70.5674 14.8097C71.0922 14.9276 71.5678 15.1264 71.9943 15.4061C72.4192 15.6795 72.772 16.0339 73.0526 16.4692C73.338 16.9029 73.5092 17.4356 73.5877 18.0532H71.0121C70.8932 17.4662 70.6316 17.0655 70.2059 16.8699C69.7487 16.6603 69.2494 16.5564 68.7458 16.5658C68.5714 16.5642 68.3652 16.5792 68.1274 16.6106C67.8849 16.6436 67.6685 16.6978 67.4497 16.7732C67.248 16.8475 67.0659 16.9659 66.917 17.1197C66.769 17.283 66.6905 17.4967 66.6982 17.7161C66.6998 18.0178 66.8052 18.2598 67.0145 18.4421C67.2206 18.6244 67.4925 18.78 67.8302 18.9088C68.1679 19.0298 68.5531 19.1343 68.9859 19.2223C69.4204 19.3119 69.8675 19.4062 70.3272 19.5052C70.7711 19.6073 71.2103 19.7307 71.6447 19.8752C72.0791 20.0167 72.4644 20.2115 72.8005 20.4598C73.1382 20.7081 73.4101 21.0145 73.6162 21.3791C73.8231 21.7492 73.9325 22.2159 73.9325 22.758C73.9325 23.4149 73.7803 23.9751 73.4759 24.4387C73.1758 24.8961 72.7728 25.2786 72.2987 25.556C71.8183 25.8388 71.2761 26.0557 70.6863 26.1853C69.4614 26.4563 68.1896 26.441 66.9717 26.1405C66.4122 25.9983 65.8835 25.7563 65.4116 25.4263C64.9797 25.1081 64.626 24.6971 64.3771 24.2242C64.1155 23.689 63.9774 23.1028 63.9728 22.5082H66.458L66.4604 22.487ZM74.5889 14.93H76.4533V11.5899H78.9147V14.93H81.1383V16.7615H78.9147V22.7038C78.9147 22.96 78.9258 23.1839 78.948 23.3756C78.9718 23.5642 79.0225 23.7237 79.1002 23.8541C79.1837 23.9885 79.3101 24.0914 79.4593 24.1464C79.6686 24.2216 79.891 24.2545 80.1133 24.243C80.2877 24.2446 80.4621 24.2415 80.6365 24.2336C80.8109 24.2242 80.9853 24.199 81.1597 24.1582V26.0557C80.8862 26.0863 80.6127 26.1099 80.363 26.1405C80.0993 26.1701 79.8341 26.185 79.5687 26.1853C79.0393 26.1997 78.5106 26.1377 77.9991 26.0015C77.6467 25.9061 77.3264 25.7189 77.0717 25.4593C76.8414 25.2084 76.6836 24.9006 76.6151 24.5683C76.5316 24.1646 76.4838 23.7545 76.4724 23.3426V16.7827H74.6103V14.93H74.5889ZM82.8815 14.93H85.2121V16.4385H85.2573C85.6045 15.7856 86.0849 15.3307 86.7056 15.0478C87.3263 14.765 87.9898 14.6259 88.7222 14.6259C89.6006 14.6227 90.3663 14.7783 91.0195 15.0926C91.6727 15.3959 92.2181 15.8186 92.6557 16.3607C93.0885 16.9029 93.4111 17.5315 93.6236 18.2465C93.8424 18.963 93.9518 19.7299 93.9518 20.547C93.9518 21.2966 93.8535 22.0195 93.6569 22.7156C93.4762 23.3835 93.1784 24.0146 92.777 24.5801C92.3822 25.1191 91.8804 25.5489 91.2716 25.8695C90.6074 26.2052 89.8696 26.3729 89.1241 26.3574C88.7642 26.3574 88.4051 26.3252 88.0468 26.2607C87.6903 26.1957 87.3424 26.0906 87.01 25.9472C86.3513 25.6661 85.7882 25.203 85.3881 24.6131H85.3429V30.1642H82.8815V14.93ZM91.4904 20.5022C91.4904 20.0041 91.4246 19.517 91.293 19.0408C91.1725 18.5906 90.9737 18.1646 90.7056 17.7821C90.4495 17.4235 90.1186 17.1236 89.7353 16.9029C89.3252 16.6774 88.863 16.5613 88.394 16.5658C87.3572 16.5658 86.5763 16.9241 86.0516 17.6407C85.5284 18.3557 85.2668 19.3095 85.2668 20.5022C85.2668 21.068 85.3357 21.5889 85.4737 22.065C85.6164 22.5412 85.8114 22.9537 86.0944 23.3002C86.3671 23.6459 86.6945 23.917 87.0765 24.1134C87.4586 24.3177 87.9018 24.419 88.4059 24.4175C88.9719 24.4175 89.4404 24.2996 89.8328 24.071C90.2128 23.8461 90.5396 23.5431 90.7912 23.1823C91.0449 22.8146 91.2272 22.3982 91.3382 21.933C91.4349 21.4679 91.4872 20.991 91.4904 20.5022ZM95.8353 10.6895H98.2967V13.0112H95.8329L95.8353 10.6895ZM95.8353 14.93H98.2967V26.0557H95.8329L95.8353 14.93ZM100.496 10.6895H102.96V26.0557H100.501L100.496 10.6895ZM110.511 26.3574C109.617 26.3558 108.822 26.2081 108.126 25.9142C107.455 25.6363 106.85 25.2229 106.349 24.7003C105.858 24.163 105.483 23.5317 105.248 22.8452C104.987 22.0843 104.858 21.2848 104.868 20.481C104.869 19.6356 104.996 18.8546 105.248 18.138C105.5 17.4246 105.867 16.807 106.349 16.2853C106.845 15.7572 107.451 15.3429 108.126 15.0714C108.883 14.7681 109.694 14.6167 110.511 14.6259C111.403 14.6259 112.199 14.7744 112.899 15.0714C113.595 15.3637 114.183 15.7762 114.673 16.2853C115.155 16.8039 115.522 17.4215 115.774 18.138C116.026 18.8546 116.153 19.6356 116.154 20.481C116.153 21.3406 116.026 22.1287 115.774 22.8452C115.538 23.5317 115.164 24.163 114.673 24.7003C114.195 25.2189 113.595 25.6196 112.899 25.9142C112.14 26.217 111.328 26.3676 110.511 26.3574ZM110.511 24.4175C111.058 24.4175 111.533 24.302 111.938 24.071C112.34 23.84 112.671 23.5398 112.929 23.1705C113.191 22.8028 113.377 22.3785 113.507 21.9118C113.629 21.4467 113.691 20.9697 113.693 20.481C113.693 20.0049 113.629 19.5382 113.507 19.0597C113.394 18.6092 113.198 18.1833 112.929 17.8033C112.662 17.4137 112.301 17.0965 111.879 16.8808C111.456 16.6651 110.986 16.5576 110.511 16.5682C110.036 16.5582 109.566 16.666 109.143 16.8817C108.721 17.0974 108.36 17.4142 108.092 17.8033C107.828 18.1858 107.632 18.6109 107.514 19.0597C107.395 19.5382 107.329 20.0025 107.329 20.481C107.332 20.9697 107.394 21.4467 107.514 21.9118C107.635 22.3817 107.827 22.8012 108.092 23.1705C108.352 23.5398 108.683 23.84 109.084 24.071C109.488 24.309 109.966 24.4175 110.511 24.4175ZM116.875 14.93H118.737V11.5899H121.201V14.93H123.422V16.7615H121.201V22.7038C121.201 22.96 121.212 23.1839 121.234 23.3756C121.258 23.5642 121.308 23.7237 121.386 23.8541C121.469 23.9881 121.594 24.091 121.743 24.1464C121.953 24.2219 122.176 24.2548 122.399 24.243C122.574 24.2446 122.748 24.2415 122.922 24.2336C123.097 24.2242 123.271 24.199 123.446 24.1582V26.0557C123.172 26.0863 122.899 26.1099 122.649 26.1405C122.389 26.172 122.124 26.1869 121.855 26.1853C121.325 26.1997 120.797 26.1377 120.285 26.0015C119.933 25.9061 119.612 25.7189 119.358 25.4593C119.127 25.2084 118.97 24.9006 118.901 24.5683C118.817 24.1646 118.77 23.7545 118.758 23.3426V16.7827H116.896V14.93H116.875Z" fill="#1B1B21"/>
<path d="M29.5604 10.692H18.2737L14.785 0L11.2891 10.692L0 10.6779L9.14161 17.292L5.64573 27.9722L14.785 21.3699L23.9171 27.9722L20.4307 17.2944L29.5604 10.692Z" fill="#00B67A"/>
</svg>
