<svg width="71" height="31" viewBox="0 0 71 31" fill="none" xmlns="http://www.w3.org/2000/svg">
<path d="M48.973 24.1362C47.6735 24.1362 46.5286 23.8848 45.5383 23.3819C44.5804 22.8885 43.7857 22.1279 43.2501 21.1921C42.6995 20.2065 42.4208 19.092 42.4426 17.9629V11.6575C42.4426 10.4239 42.7117 9.3475 43.2501 8.42821C43.7884 7.49007 44.5519 6.76878 45.5407 6.26436C46.5294 5.74578 47.6735 5.48571 48.973 5.48414C50.2584 5.48414 51.3861 5.73557 52.356 6.23843C53.3447 6.74286 54.1083 7.42878 54.6466 8.29621C55.1849 9.16521 55.4541 10.1474 55.4541 11.2426V11.4501C55.4541 11.5365 55.4188 11.6151 55.3481 11.6858C55.3204 11.7116 55.2878 11.7316 55.2522 11.7446C55.2166 11.7575 55.1788 11.7632 55.141 11.7612H52.7727C52.6877 11.7626 52.6047 11.7352 52.5373 11.6834C52.4864 11.6156 52.4598 11.5325 52.4619 11.4477V11.3204C52.4619 10.3823 52.1402 9.60914 51.4967 9.001C50.8736 8.39286 50.0324 8.08878 48.973 8.08878C47.9152 8.08878 47.0654 8.41014 46.4235 9.05286C45.7832 9.67828 45.4622 10.5119 45.4606 11.5538V18.0666C45.4606 19.11 45.7988 19.9523 46.4753 20.5934C47.1533 21.2189 48.0298 21.5316 49.1049 21.5316C50.1454 21.5316 50.9607 21.2629 51.5509 20.7254C52.1582 20.1691 52.4619 19.4133 52.4619 18.4579V16.8432C52.4619 16.7552 52.418 16.7112 52.3301 16.7112H49.1284C49.0442 16.7121 48.9622 16.6847 48.8954 16.6334C48.8436 16.5659 48.8163 16.4828 48.8177 16.3977V14.4719C48.8157 14.4335 48.8216 14.3951 48.8349 14.359C48.8483 14.3229 48.8688 14.29 48.8954 14.2621C48.9257 14.2299 48.9621 14.2042 49.0025 14.1863C49.043 14.1685 49.0866 14.159 49.1308 14.1584H55.141C55.2273 14.1584 55.2963 14.193 55.3481 14.2621C55.4188 14.3156 55.4541 14.3855 55.4541 14.4719V17.8073C55.4541 19.803 54.864 21.3571 53.6837 22.4697C52.5223 23.5823 50.9505 24.1378 48.973 24.1362ZM62.2788 21.1662C62.2443 21.2008 62.227 21.2361 62.227 21.2723C62.2443 21.3053 62.2788 21.3226 62.3306 21.3241H69.7462C69.8341 21.3241 69.9039 21.3587 69.9557 21.4279C70.0264 21.4813 70.0609 21.5504 70.0593 21.6353V23.6153C70.0593 23.7017 70.0248 23.7803 69.9557 23.851C69.9282 23.8773 69.8957 23.8977 69.8601 23.911C69.8245 23.9244 69.7866 23.9304 69.7486 23.9288H58.5545C58.4695 23.9302 58.3865 23.9028 58.3191 23.851C58.2674 23.7835 58.24 23.7004 58.2414 23.6153V21.7414C58.2414 21.5842 58.294 21.4538 58.3991 21.3501C59.9681 19.6598 61.4949 17.9307 62.978 16.1644L64.2022 14.7312C65.7967 12.8738 66.594 11.4674 66.594 10.5119C66.6038 10.1837 66.5415 9.85724 66.4113 9.5558C66.2811 9.25436 66.0863 8.98528 65.8407 8.76764C65.3384 8.31507 64.6871 8.08878 63.8867 8.08878C63.0894 8.08878 62.4397 8.31428 61.9374 8.76528C61.4509 9.21786 61.2077 9.81736 61.2077 10.5638V11.2403C61.2077 11.3267 61.1731 11.4053 61.1041 11.476C61.0765 11.5023 61.044 11.5227 61.0084 11.536C60.9728 11.5494 60.9349 11.5554 60.8969 11.5538H58.4768C58.3918 11.5552 58.3089 11.5278 58.2414 11.476C58.1897 11.4085 58.1623 11.3254 58.1637 11.2403V10.1206C58.1998 9.1825 58.469 8.36614 58.9712 7.67157C59.4734 6.977 60.1498 6.43878 61.0005 6.05693C61.9124 5.66491 62.8967 5.46974 63.889 5.48414C65.0504 5.48414 66.0651 5.701 66.933 6.13471C67.8009 6.56843 68.4679 7.16793 68.934 7.93321C69.4049 8.67964 69.6403 9.52193 69.6403 10.4601C69.6403 11.8838 68.8854 13.5251 67.3756 15.3841C66.5438 16.426 65.1729 17.9896 63.2628 20.0749L62.2788 21.1662Z" fill="white"/>
<mask id="mask0_3014_18144" style="mask-type:luminance" maskUnits="userSpaceOnUse" x="0" y="0" width="32" height="31">
<path d="M0.5 0.899414H31.6786V30.6984H0.5V0.899414Z" fill="white"/>
</mask>
<g mask="url(#mask0_3014_18144)">
<path d="M16.0893 30.7008C24.6985 30.7008 31.6786 24.0301 31.6786 15.8013C31.6786 7.57249 24.7008 0.899414 16.0893 0.899414C7.47775 0.899414 0.5 7.57013 0.5 15.8013C0.5 24.0277 7.4801 30.7008 16.0893 30.7008Z" fill="#FF492C"/>
<path d="M22.8418 12.3173H20.1816C20.2522 11.9166 20.5112 11.695 21.0338 11.4404L21.5234 11.2047C22.3992 10.7734 22.8653 10.2878 22.8653 9.4958C22.872 9.26511 22.8202 9.03649 22.7148 8.83123C22.6095 8.62598 22.4539 8.45077 22.2627 8.32195C21.8624 8.03909 21.3853 7.89766 20.8313 7.89766C20.4043 7.89199 19.9843 8.00632 19.6189 8.22766C19.2727 8.42032 18.9922 8.71266 18.8138 9.06681L19.5836 9.80459C19.8818 9.22945 20.3165 8.94266 20.8878 8.94423C21.3704 8.94423 21.6671 9.1823 21.6671 9.5123C21.6671 9.79045 21.5258 10.0191 20.9679 10.2902L20.6548 10.4339C19.9736 10.7639 19.4965 11.1434 19.2234 11.5724C18.9488 11.9999 18.8122 12.5404 18.8138 13.1942V13.3733H22.8418V12.3173ZM22.4887 14.5872H18.0769L15.8711 18.2361H20.2804L22.4839 21.8849L24.6898 18.2361L22.4887 14.5872Z" fill="white"/>
<path d="M16.248 20.6525C13.4418 20.6525 11.1559 18.4674 11.1559 15.785C11.1559 13.1026 13.4418 10.9199 16.248 10.9199L17.9901 7.436C17.4158 7.32698 16.8326 7.27174 16.248 7.271C11.3278 7.271 7.33984 11.0849 7.33984 15.785C7.33984 20.4875 11.3278 24.299 16.248 24.299C18.1337 24.3037 19.9699 23.7333 21.4931 22.6679L19.565 19.4716C18.6446 20.2329 17.4675 20.6525 16.248 20.6525Z" fill="white"/>
</g>
</svg>
