<svg width="124" height="31" viewBox="0 0 124 31" fill="none" xmlns="http://www.w3.org/2000/svg">
<path d="M32.9314 10.6895H45.4309V13.0112H40.5153V26.0557H37.8137V13.0112H32.9219V10.6895H32.9314ZM44.8959 14.93H47.2074V17.075H47.2502C47.3263 16.7732 47.4674 16.481 47.6735 16.1981C47.8828 15.9152 48.1325 15.6442 48.4274 15.4179C48.7191 15.1822 49.0457 14.9905 49.4072 14.8427C49.7687 14.6997 50.1357 14.6275 50.5083 14.6259C50.7913 14.6259 50.9982 14.6377 51.1076 14.6495C51.217 14.6589 51.324 14.6801 51.4453 14.6919V17.0537C51.268 17.0219 51.0895 16.9967 50.9102 16.9783C50.7334 16.9574 50.5556 16.9464 50.3775 16.9453C49.9621 16.9469 49.5697 17.0302 49.2003 17.1952C48.8299 17.3628 48.5023 17.6109 48.2419 17.9212C47.9527 18.277 47.7311 18.6819 47.5879 19.1162C47.4262 19.5908 47.3462 20.1361 47.3477 20.7521V26.0439H44.8864V14.93H44.8959ZM62.7653 26.0557H60.3467V24.5047H60.3039C59.9995 25.0672 59.5492 25.5151 58.9531 25.8482C58.3982 26.1738 57.7668 26.3494 57.1219 26.3574C55.6475 26.3605 54.5829 25.9991 53.9281 25.2731C53.2765 24.5471 52.9499 23.4526 52.9483 21.9896V14.93H55.4121V21.7492C55.4089 22.7282 55.5975 23.4188 55.978 23.8211C56.3467 24.2218 56.8817 24.4292 57.5571 24.4292C58.0772 24.4292 58.5092 24.3491 58.8532 24.1888C59.1826 24.0489 59.4713 23.8293 59.6927 23.55C59.9115 23.2907 60.0637 22.9655 60.1612 22.5954C60.2563 22.2277 60.3039 21.827 60.3039 21.3932V14.9394H62.7653V26.0557ZM66.9604 22.487C67.0364 23.2004 67.3092 23.7032 67.7784 23.9955C68.2564 24.2784 68.8248 24.4292 69.4907 24.4292C69.7174 24.4261 69.9782 24.408 70.2731 24.375C70.568 24.342 70.851 24.2666 71.1007 24.1676C71.3472 24.0725 71.5673 23.9206 71.7428 23.7245C71.9136 23.5094 71.996 23.2382 71.9735 22.9655C71.9716 22.8201 71.9396 22.6767 71.8795 22.5441C71.8193 22.4115 71.7324 22.2925 71.6239 22.1947C71.3845 21.9778 71.1029 21.8117 70.7963 21.7067C70.4191 21.5749 70.0329 21.4701 69.6405 21.3932C69.2077 21.3037 68.7685 21.2094 68.323 21.1104C67.8723 21.0135 67.4276 20.8907 66.9913 20.7427C66.5816 20.6086 66.1962 20.4105 65.8498 20.1557C65.5086 19.9134 65.2313 19.5932 65.0412 19.2223C64.8234 18.7848 64.7196 18.3002 64.7392 17.8127C64.7407 17.2109 64.889 16.7049 65.1839 16.2947C65.4788 15.8846 65.8593 15.5593 66.3064 15.3095C66.7806 15.0556 67.2916 14.8759 67.8212 14.7767C68.3793 14.6777 68.9104 14.6275 69.4146 14.6259C69.9933 14.6275 70.5442 14.6887 71.0674 14.8097C71.5922 14.9276 72.0678 15.1264 72.4943 15.4061C72.9192 15.6795 73.272 16.0339 73.5526 16.4692C73.838 16.9029 74.0092 17.4356 74.0877 18.0532H71.5121C71.3932 17.4662 71.1316 17.0655 70.7059 16.8699C70.2487 16.6603 69.7494 16.5564 69.2458 16.5658C69.0714 16.5642 68.8652 16.5792 68.6274 16.6106C68.3849 16.6436 68.1685 16.6978 67.9497 16.7732C67.748 16.8475 67.5659 16.9659 67.417 17.1197C67.269 17.283 67.1905 17.4967 67.1982 17.7161C67.1998 18.0178 67.3052 18.2598 67.5145 18.4421C67.7206 18.6244 67.9925 18.78 68.3302 18.9088C68.6679 19.0298 69.0531 19.1343 69.4859 19.2223C69.9204 19.3119 70.3675 19.4062 70.8272 19.5052C71.2711 19.6073 71.7103 19.7307 72.1447 19.8752C72.5791 20.0167 72.9644 20.2115 73.3005 20.4598C73.6382 20.7081 73.9101 21.0145 74.1162 21.3791C74.3231 21.7492 74.4325 22.2159 74.4325 22.758C74.4325 23.4149 74.2803 23.9751 73.9759 24.4387C73.6758 24.8961 73.2728 25.2786 72.7987 25.556C72.3183 25.8388 71.7761 26.0557 71.1863 26.1853C69.9614 26.4563 68.6896 26.441 67.4717 26.1405C66.9122 25.9983 66.3835 25.7563 65.9116 25.4263C65.4797 25.1081 65.126 24.6971 64.8771 24.2242C64.6155 23.689 64.4774 23.1028 64.4728 22.5082H66.958L66.9604 22.487ZM75.0889 14.93H76.9533V11.5899H79.4147V14.93H81.6383V16.7615H79.4147V22.7038C79.4147 22.96 79.4258 23.1839 79.448 23.3756C79.4718 23.5642 79.5225 23.7237 79.6002 23.8541C79.6837 23.9885 79.8101 24.0914 79.9593 24.1464C80.1686 24.2216 80.391 24.2545 80.6133 24.243C80.7877 24.2446 80.9621 24.2415 81.1365 24.2336C81.3109 24.2242 81.4853 24.199 81.6597 24.1582V26.0557C81.3862 26.0863 81.1127 26.1099 80.863 26.1405C80.5993 26.1701 80.3341 26.185 80.0687 26.1853C79.5393 26.1997 79.0106 26.1377 78.4991 26.0015C78.1467 25.9061 77.8264 25.7189 77.5717 25.4593C77.3414 25.2084 77.1836 24.9006 77.1151 24.5683C77.0316 24.1646 76.9838 23.7545 76.9724 23.3426V16.7827H75.1103V14.93H75.0889ZM83.3815 14.93H85.7121V16.4385H85.7573C86.1045 15.7856 86.5849 15.3307 87.2056 15.0478C87.8263 14.765 88.4898 14.6259 89.2222 14.6259C90.1006 14.6227 90.8663 14.7783 91.5195 15.0926C92.1727 15.3959 92.7181 15.8186 93.1557 16.3607C93.5885 16.9029 93.9111 17.5315 94.1236 18.2465C94.3424 18.963 94.4518 19.7299 94.4518 20.547C94.4518 21.2966 94.3535 22.0195 94.1569 22.7156C93.9762 23.3835 93.6784 24.0146 93.277 24.5801C92.8822 25.1191 92.3804 25.5489 91.7716 25.8695C91.1074 26.2052 90.3696 26.3729 89.6241 26.3574C89.2642 26.3574 88.9051 26.3252 88.5468 26.2607C88.1903 26.1957 87.8424 26.0906 87.51 25.9472C86.8513 25.6661 86.2882 25.203 85.8881 24.6131H85.8429V30.1642H83.3815V14.93ZM91.9904 20.5022C91.9904 20.0041 91.9246 19.517 91.793 19.0408C91.6725 18.5906 91.4737 18.1646 91.2056 17.7821C90.9495 17.4235 90.6186 17.1236 90.2353 16.9029C89.8252 16.6774 89.363 16.5613 88.894 16.5658C87.8572 16.5658 87.0763 16.9241 86.5516 17.6407C86.0284 18.3557 85.7668 19.3095 85.7668 20.5022C85.7668 21.068 85.8357 21.5889 85.9737 22.065C86.1164 22.5412 86.3114 22.9537 86.5944 23.3002C86.8671 23.6459 87.1945 23.917 87.5765 24.1134C87.9586 24.3177 88.4018 24.419 88.9059 24.4175C89.4719 24.4175 89.9404 24.2996 90.3328 24.071C90.7128 23.8461 91.0396 23.5431 91.2912 23.1823C91.5449 22.8146 91.7272 22.3982 91.8382 21.933C91.9349 21.4679 91.9872 20.991 91.9904 20.5022ZM96.3353 10.6895H98.7967V13.0112H96.3329L96.3353 10.6895ZM96.3353 14.93H98.7967V26.0557H96.3329L96.3353 14.93ZM100.996 10.6895H103.46V26.0557H101.001L100.996 10.6895ZM111.011 26.3574C110.117 26.3558 109.322 26.2081 108.626 25.9142C107.955 25.6363 107.35 25.2229 106.849 24.7003C106.358 24.163 105.983 23.5317 105.748 22.8452C105.487 22.0843 105.358 21.2848 105.368 20.481C105.369 19.6356 105.496 18.8546 105.748 18.138C106 17.4246 106.367 16.807 106.849 16.2853C107.345 15.7572 107.951 15.3429 108.626 15.0714C109.383 14.7681 110.194 14.6167 111.011 14.6259C111.903 14.6259 112.699 14.7744 113.399 15.0714C114.095 15.3637 114.683 15.7762 115.173 16.2853C115.655 16.8039 116.022 17.4215 116.274 18.138C116.526 18.8546 116.653 19.6356 116.654 20.481C116.653 21.3406 116.526 22.1287 116.274 22.8452C116.038 23.5317 115.664 24.163 115.173 24.7003C114.695 25.2189 114.095 25.6196 113.399 25.9142C112.64 26.217 111.828 26.3676 111.011 26.3574ZM111.011 24.4175C111.558 24.4175 112.033 24.302 112.438 24.071C112.84 23.84 113.171 23.5398 113.429 23.1705C113.691 22.8028 113.877 22.3785 114.007 21.9118C114.129 21.4467 114.191 20.9697 114.193 20.481C114.193 20.0049 114.129 19.5382 114.007 19.0597C113.894 18.6092 113.698 18.1833 113.429 17.8033C113.162 17.4137 112.801 17.0965 112.379 16.8808C111.956 16.6651 111.486 16.5576 111.011 16.5682C110.536 16.5582 110.066 16.666 109.643 16.8817C109.221 17.0974 108.86 17.4142 108.592 17.8033C108.328 18.1858 108.132 18.6109 108.014 19.0597C107.895 19.5382 107.829 20.0025 107.829 20.481C107.832 20.9697 107.894 21.4467 108.014 21.9118C108.135 22.3817 108.327 22.8012 108.592 23.1705C108.852 23.5398 109.183 23.84 109.584 24.071C109.988 24.309 110.466 24.4175 111.011 24.4175ZM117.375 14.93H119.237V11.5899H121.701V14.93H123.922V16.7615H121.701V22.7038C121.701 22.96 121.712 23.1839 121.734 23.3756C121.758 23.5642 121.808 23.7237 121.886 23.8541C121.969 23.9881 122.094 24.091 122.243 24.1464C122.453 24.2219 122.676 24.2548 122.899 24.243C123.074 24.2446 123.248 24.2415 123.422 24.2336C123.597 24.2242 123.771 24.199 123.946 24.1582V26.0557C123.672 26.0863 123.399 26.1099 123.149 26.1405C122.889 26.172 122.624 26.1869 122.355 26.1853C121.825 26.1997 121.297 26.1377 120.785 26.0015C120.433 25.9061 120.112 25.7189 119.858 25.4593C119.627 25.2084 119.47 24.9006 119.401 24.5683C119.317 24.1646 119.27 23.7545 119.258 23.3426V16.7827H117.396V14.93H117.375Z" fill="white"/>
<path d="M30.0604 10.692H18.7737L15.285 0L11.7891 10.692L0.5 10.6779L9.64161 17.292L6.14573 27.9722L15.285 21.3699L24.4171 27.9722L20.9307 17.2944L30.0604 10.692Z" fill="#00B67A"/>
<path d="M21.7094 19.7104L20.9246 17.292L15.2812 21.3698L21.7094 19.7104Z" fill="#005128"/>
</svg>
