<svg width="139" height="25" viewBox="0 0 139 25" fill="none" xmlns="http://www.w3.org/2000/svg">
<path d="M27.2764 9.90485L18.0386 8.62728L13.9235 0.645996L9.80376 8.62728L0.568359 9.90485L7.24478 16.0782L5.68868 24.9104L13.9235 20.7619L22.1584 24.9104L20.6 16.0782L27.2764 9.90485ZM13.9235 18.8408L8.13701 21.8226L9.24817 15.6492L4.57751 11.2885L11.1433 10.3291L14.0365 4.6885L16.9298 10.3291L23.4956 11.2885L18.8202 15.6516L19.9337 21.8249L13.9235 18.8408ZM55.0979 9.90721L45.8602 8.62964L41.7404 0.648353L37.6253 8.62964L28.3899 9.90721L35.0663 16.0806L33.5079 24.9128L41.7427 20.7642L49.9776 24.9128L48.4191 16.0806L55.0979 9.90721ZM41.7404 18.8408L35.9538 21.8226L37.0674 15.6492L32.392 11.2861L38.9601 10.3268L41.851 4.68614L44.7467 10.3268L51.3101 11.2861L46.637 15.6492L47.7482 21.8226L41.7404 18.8408ZM82.9171 9.90721L73.6794 8.62964L69.5619 0.648353L65.4445 8.62964L56.2091 9.90721L62.8855 16.0806L61.327 24.9128L69.5619 20.7642L77.7968 24.9128L76.2383 16.0806L82.9171 9.90721ZM69.5619 18.8408L63.7754 21.8226L64.8889 15.6492L60.2159 11.2861L66.7816 10.3268L69.6749 4.68614L72.5658 10.3315L79.134 11.2909L74.4586 15.6539L75.5721 21.8273L69.5619 18.8408ZM110.736 9.90721L101.499 8.62964L97.3835 0.648353L93.2637 8.62964L84.0283 9.90721L90.7047 16.0806L89.1486 24.9128L97.3835 20.7642L105.618 24.9128L104.06 16.0806L110.736 9.90721ZM97.3835 18.8408L91.5946 21.8226L92.7081 15.6492L88.0351 11.2861L94.6008 10.3268L97.4941 4.68614L100.387 10.3268L106.953 11.2861L102.275 15.6516L103.389 21.8249L97.3835 18.8408ZM138.558 9.90721L129.32 8.62964L125.2 0.648353L121.085 8.62964L111.85 9.90721L118.526 16.0806L116.968 24.9128L125.203 20.7642L133.438 24.9128L131.879 16.0806L138.558 9.90721ZM125.2 18.8408L119.414 21.8226L120.527 15.6492L115.852 11.2861L122.42 10.3268L125.311 4.68614L128.207 10.3268L134.77 11.2861L130.097 15.6492L131.208 21.8226L125.2 18.8408Z" fill="#FF492C"/>
</svg>
