<svg width="138" height="25" viewBox="0 0 138 25" fill="none" xmlns="http://www.w3.org/2000/svg">
<path d="M113.507 9.69748L120.739 8.52834L124.633 2.03441L125.866 4.84884L127.731 6.67327L128.663 9.69748L134.5 10.5L129.831 15.5987L131 21.5L128.663 21.2687L124.522 19.0648L117.735 22.2563L118.625 14.9138L113.507 9.69748ZM2.33594 9.90962L9.5703 8.74048L13.3534 1.82227L16.8023 8.63441L24.5946 9.91198L19.14 15.0199L20.2535 22.4685L13.3558 19.2769L6.45338 22.4685L7.34561 15.126L2.33594 9.90962ZM30.0445 9.90962L37.2788 8.74048L41.062 1.82227L44.6238 8.63441L52.3008 9.91198L46.8485 15.0199L48.0727 22.4685L41.062 19.2769L34.2749 22.4685L35.1648 15.126L30.0445 9.90962ZM58.311 9.90962L65.543 8.74048L69.3285 1.82227L72.7773 8.63441L80.5672 9.91198L75.115 15.0199L76.3392 22.4685L69.3285 19.2769L62.4284 22.4685L63.3183 15.126L58.311 9.90962ZM85.6852 9.90962L92.9196 8.74048L96.7027 1.82227L100.262 8.63441L107.941 9.91198L102.489 15.0199L103.713 22.4685L96.7027 19.2769L89.9133 22.4685L90.8055 15.126L85.6852 9.90962Z" fill="#FF492C"/>
<path d="M26.708 9.25886L17.4703 7.98129L13.3552 0L9.2354 7.98129L0 9.25886L6.67642 15.4322L5.12032 24.2644L13.3552 20.1159L21.5901 24.2644L20.0316 15.4322L26.708 9.25886ZM13.3552 18.1948L7.56865 21.1766L8.67981 15.0032L4.00915 10.6425L10.5749 9.68314L13.4682 4.0425L16.3615 9.68314L22.9272 10.6425L18.2519 15.0056L19.3654 21.1789L13.3552 18.1948ZM54.5296 9.26121L45.2918 7.98364L41.172 0.00235725L37.0569 7.98364L27.8215 9.26121L34.498 15.4346L32.9395 24.2668L41.1744 20.1182L49.4093 24.2668L47.8508 15.4346L54.5296 9.26121ZM41.172 18.1948L35.3855 21.1766L36.499 15.0032L31.8236 10.6401L38.3918 9.68079L41.2827 4.04014L44.1783 9.68079L50.7417 10.6401L46.0687 15.0032L47.1799 21.1766L41.172 18.1948ZM82.3488 9.26121L73.111 7.98364L68.9936 0.00235725L64.8761 7.98364L55.6407 9.26121L62.3171 15.4346L60.7587 24.2668L68.9936 20.1182L77.2284 24.2668L75.67 15.4346L82.3488 9.26121ZM68.9936 18.1948L63.207 21.1766L64.3205 15.0032L59.6475 10.6401L66.2133 9.68079L69.1066 4.04014L71.9975 9.6855L78.5656 10.6449L73.8902 15.0079L75.0037 21.1813L68.9936 18.1948ZM110.168 9.26121L100.93 7.98364L96.8151 0.00235725L92.6953 7.98364L83.4599 9.26121L90.1363 15.4346L88.5802 24.2668L96.8151 20.1182L105.05 24.2668L103.492 15.4346L110.168 9.26121ZM96.8151 18.1948L91.0262 21.1766L92.1397 15.0032L87.4667 10.6401L94.0325 9.68079L96.9258 4.04014L99.819 9.68079L106.385 10.6401L101.707 15.0056L102.821 21.1789L96.8151 18.1948ZM137.989 9.26121L128.752 7.98364L124.632 0.00235725L120.517 7.98364L111.281 9.26121L117.958 15.4346L116.399 24.2668L124.634 20.1182L132.869 24.2668L131.311 15.4346L137.989 9.26121ZM124.632 18.1948L118.845 21.1766L119.959 15.0032L115.284 10.6401L121.852 9.68079L124.743 4.04014L127.638 9.68079L134.202 10.6401L129.529 15.0032L130.64 21.1766L124.632 18.1948Z" fill="#FF492C"/>
</svg>
