<svg width="503" height="199" viewBox="0 0 503 199" fill="none" xmlns="http://www.w3.org/2000/svg">
<rect x="304" y="4" width="16" height="16" rx="2" fill="#7171FC"/>
<path d="M332.212 18.216C331.468 18.216 330.85 18.09 330.358 17.838C329.878 17.586 329.518 17.25 329.278 16.83C329.038 16.398 328.918 15.93 328.918 15.426C328.918 14.814 329.074 14.298 329.386 13.878C329.71 13.458 330.16 13.14 330.736 12.924C331.324 12.696 332.008 12.582 332.788 12.582H335.2C335.2 12.018 335.11 11.55 334.93 11.178C334.762 10.806 334.51 10.524 334.174 10.332C333.838 10.14 333.43 10.044 332.95 10.044C332.374 10.044 331.87 10.194 331.438 10.494C331.018 10.782 330.76 11.202 330.664 11.754H329.116C329.188 11.118 329.404 10.578 329.764 10.134C330.136 9.69 330.604 9.354 331.168 9.126C331.732 8.886 332.326 8.766 332.95 8.766C333.778 8.766 334.468 8.922 335.02 9.234C335.584 9.534 336.004 9.96 336.28 10.512C336.568 11.052 336.712 11.694 336.712 12.438V18H335.362L335.272 16.398C335.152 16.65 334.996 16.89 334.804 17.118C334.624 17.334 334.408 17.526 334.156 17.694C333.916 17.85 333.634 17.976 333.31 18.072C332.986 18.168 332.62 18.216 332.212 18.216ZM332.446 16.938C332.878 16.938 333.262 16.854 333.598 16.686C333.934 16.506 334.222 16.266 334.462 15.966C334.714 15.666 334.9 15.33 335.02 14.958C335.14 14.574 335.2 14.184 335.2 13.788V13.752H332.914C332.338 13.752 331.87 13.824 331.51 13.968C331.15 14.1 330.892 14.286 330.736 14.526C330.58 14.766 330.502 15.042 330.502 15.354C330.502 15.678 330.574 15.96 330.718 16.2C330.874 16.44 331.096 16.626 331.384 16.758C331.672 16.878 332.026 16.938 332.446 16.938ZM343.047 18.216C342.171 18.216 341.397 18.012 340.725 17.604C340.065 17.184 339.549 16.62 339.177 15.912C338.817 15.192 338.637 14.382 338.637 13.482C338.637 12.57 338.817 11.76 339.177 11.052C339.549 10.344 340.071 9.786 340.743 9.378C341.415 8.97 342.189 8.766 343.065 8.766C343.797 8.766 344.445 8.916 345.009 9.216C345.573 9.516 346.005 9.936 346.305 10.476V5.04H347.817V18H346.449L346.323 16.524C346.131 16.812 345.885 17.088 345.585 17.352C345.285 17.604 344.925 17.814 344.505 17.982C344.085 18.138 343.599 18.216 343.047 18.216ZM343.209 16.902C343.809 16.902 344.337 16.764 344.793 16.488C345.261 16.2 345.621 15.804 345.873 15.3C346.125 14.784 346.251 14.184 346.251 13.5C346.251 12.816 346.125 12.222 345.873 11.718C345.621 11.202 345.261 10.8 344.793 10.512C344.337 10.224 343.809 10.08 343.209 10.08C342.633 10.08 342.111 10.224 341.643 10.512C341.187 10.8 340.827 11.202 340.563 11.718C340.311 12.222 340.185 12.816 340.185 13.5C340.185 14.184 340.311 14.784 340.563 15.3C340.827 15.804 341.187 16.2 341.643 16.488C342.111 16.764 342.633 16.902 343.209 16.902ZM350.48 18V8.982H351.992V18H350.48ZM351.236 7.038C350.936 7.038 350.684 6.942 350.48 6.75C350.288 6.546 350.192 6.294 350.192 5.994C350.192 5.694 350.288 5.454 350.48 5.274C350.684 5.082 350.936 4.986 351.236 4.986C351.524 4.986 351.77 5.082 351.974 5.274C352.178 5.454 352.28 5.694 352.28 5.994C352.28 6.294 352.178 6.546 351.974 6.75C351.77 6.942 351.524 7.038 351.236 7.038ZM358.657 18.216C357.781 18.216 357.007 18.012 356.335 17.604C355.675 17.184 355.159 16.62 354.787 15.912C354.427 15.192 354.247 14.382 354.247 13.482C354.247 12.57 354.427 11.76 354.787 11.052C355.159 10.344 355.681 9.786 356.353 9.378C357.025 8.97 357.799 8.766 358.675 8.766C359.407 8.766 360.055 8.916 360.619 9.216C361.183 9.516 361.615 9.936 361.915 10.476V5.04H363.427V18H362.059L361.933 16.524C361.741 16.812 361.495 17.088 361.195 17.352C360.895 17.604 360.535 17.814 360.115 17.982C359.695 18.138 359.209 18.216 358.657 18.216ZM358.819 16.902C359.419 16.902 359.947 16.764 360.403 16.488C360.871 16.2 361.231 15.804 361.483 15.3C361.735 14.784 361.861 14.184 361.861 13.5C361.861 12.816 361.735 12.222 361.483 11.718C361.231 11.202 360.871 10.8 360.403 10.512C359.947 10.224 359.419 10.08 358.819 10.08C358.243 10.08 357.721 10.224 357.253 10.512C356.797 10.8 356.437 11.202 356.173 11.718C355.921 12.222 355.795 12.816 355.795 13.5C355.795 14.184 355.921 14.784 356.173 15.3C356.437 15.804 356.797 16.2 357.253 16.488C357.721 16.764 358.243 16.902 358.819 16.902ZM368.898 18.216C368.154 18.216 367.536 18.09 367.044 17.838C366.564 17.586 366.204 17.25 365.964 16.83C365.724 16.398 365.604 15.93 365.604 15.426C365.604 14.814 365.76 14.298 366.072 13.878C366.396 13.458 366.846 13.14 367.422 12.924C368.01 12.696 368.694 12.582 369.474 12.582H371.886C371.886 12.018 371.796 11.55 371.616 11.178C371.448 10.806 371.196 10.524 370.86 10.332C370.524 10.14 370.116 10.044 369.636 10.044C369.06 10.044 368.556 10.194 368.124 10.494C367.704 10.782 367.446 11.202 367.35 11.754H365.802C365.874 11.118 366.09 10.578 366.45 10.134C366.822 9.69 367.29 9.354 367.854 9.126C368.418 8.886 369.012 8.766 369.636 8.766C370.464 8.766 371.154 8.922 371.706 9.234C372.27 9.534 372.69 9.96 372.966 10.512C373.254 11.052 373.398 11.694 373.398 12.438V18H372.048L371.958 16.398C371.838 16.65 371.682 16.89 371.49 17.118C371.31 17.334 371.094 17.526 370.842 17.694C370.602 17.85 370.32 17.976 369.996 18.072C369.672 18.168 369.306 18.216 368.898 18.216ZM369.132 16.938C369.564 16.938 369.948 16.854 370.284 16.686C370.62 16.506 370.908 16.266 371.148 15.966C371.4 15.666 371.586 15.33 371.706 14.958C371.826 14.574 371.886 14.184 371.886 13.788V13.752H369.6C369.024 13.752 368.556 13.824 368.196 13.968C367.836 14.1 367.578 14.286 367.422 14.526C367.266 14.766 367.188 15.042 367.188 15.354C367.188 15.678 367.26 15.96 367.404 16.2C367.56 16.44 367.782 16.626 368.07 16.758C368.358 16.878 368.712 16.938 369.132 16.938ZM379.121 18.216C378.389 18.216 377.741 18.096 377.177 17.856C376.625 17.604 376.181 17.25 375.845 16.794C375.509 16.338 375.299 15.804 375.215 15.192H376.763C376.835 15.516 376.967 15.81 377.159 16.074C377.351 16.338 377.615 16.548 377.951 16.704C378.287 16.86 378.683 16.938 379.139 16.938C379.571 16.938 379.919 16.878 380.183 16.758C380.459 16.626 380.663 16.458 380.795 16.254C380.939 16.038 381.011 15.804 381.011 15.552C381.011 15.18 380.921 14.898 380.741 14.706C380.573 14.514 380.321 14.364 379.985 14.256C379.649 14.148 379.247 14.052 378.779 13.968C378.395 13.896 378.011 13.8 377.627 13.68C377.255 13.548 376.913 13.392 376.601 13.212C376.301 13.02 376.061 12.78 375.881 12.492C375.701 12.204 375.611 11.85 375.611 11.43C375.611 10.914 375.743 10.458 376.007 10.062C376.283 9.654 376.661 9.336 377.141 9.108C377.633 8.88 378.215 8.766 378.887 8.766C379.847 8.766 380.627 9 381.227 9.468C381.827 9.936 382.181 10.614 382.289 11.502H380.795C380.735 11.046 380.537 10.692 380.201 10.44C379.877 10.176 379.433 10.044 378.869 10.044C378.305 10.044 377.873 10.158 377.573 10.386C377.285 10.614 377.141 10.914 377.141 11.286C377.141 11.526 377.225 11.736 377.393 11.916C377.561 12.096 377.801 12.252 378.113 12.384C378.437 12.504 378.827 12.612 379.283 12.708C379.871 12.816 380.411 12.96 380.903 13.14C381.395 13.32 381.791 13.584 382.091 13.932C382.403 14.28 382.559 14.778 382.559 15.426C382.571 15.978 382.433 16.464 382.145 16.884C381.857 17.304 381.455 17.634 380.939 17.874C380.435 18.102 379.829 18.216 379.121 18.216ZM385.259 18.09C384.959 18.09 384.707 17.994 384.503 17.802C384.311 17.598 384.215 17.352 384.215 17.064C384.215 16.776 384.311 16.536 384.503 16.344C384.707 16.14 384.959 16.038 385.259 16.038C385.559 16.038 385.805 16.14 385.997 16.344C386.189 16.536 386.285 16.776 386.285 17.064C386.285 17.352 386.189 17.598 385.997 17.802C385.805 17.994 385.559 18.09 385.259 18.09ZM388.773 18V7.524C388.773 6.948 388.869 6.48 389.061 6.12C389.253 5.748 389.535 5.478 389.907 5.31C390.291 5.13 390.759 5.04 391.311 5.04H392.283V6.336H391.545C391.101 6.336 390.777 6.426 390.573 6.606C390.381 6.786 390.285 7.104 390.285 7.56V18H388.773ZM387.405 10.26V8.982H392.535V10.26H387.405ZM394.334 18V8.982H395.702L395.828 10.71C396.02 10.302 396.272 9.954 396.584 9.666C396.908 9.378 397.292 9.156 397.736 9C398.18 8.844 398.684 8.766 399.248 8.766V10.35H398.762C398.366 10.35 397.988 10.404 397.628 10.512C397.28 10.608 396.968 10.77 396.692 10.998C396.428 11.226 396.218 11.538 396.062 11.934C395.918 12.318 395.846 12.804 395.846 13.392V18H394.334Z" fill="black"/>
<rect x="304" y="167" width="16" height="16" rx="2" fill="#E16741"/>
<path d="M329.404 181V171.982H330.916V181H329.404ZM330.16 170.038C329.86 170.038 329.608 169.942 329.404 169.75C329.212 169.546 329.116 169.294 329.116 168.994C329.116 168.694 329.212 168.454 329.404 168.274C329.608 168.082 329.86 167.986 330.16 167.986C330.448 167.986 330.694 168.082 330.898 168.274C331.102 168.454 331.204 168.694 331.204 168.994C331.204 169.294 331.102 169.546 330.898 169.75C330.694 169.942 330.448 170.038 330.16 170.038ZM333.549 181V171.982H334.917L335.007 173.584C335.295 173.02 335.709 172.576 336.249 172.252C336.789 171.928 337.401 171.766 338.085 171.766C338.781 171.766 339.387 171.91 339.903 172.198C340.419 172.474 340.821 172.9 341.109 173.476C341.397 174.052 341.541 174.778 341.541 175.654V181H340.029V175.816C340.029 174.904 339.831 174.22 339.435 173.764C339.039 173.296 338.475 173.062 337.743 173.062C337.227 173.062 336.765 173.188 336.357 173.44C335.961 173.692 335.643 174.052 335.403 174.52C335.175 174.988 335.061 175.564 335.061 176.248V181H333.549ZM347.431 181C346.891 181 346.423 180.916 346.027 180.748C345.631 180.58 345.325 180.298 345.109 179.902C344.905 179.494 344.803 178.948 344.803 178.264V173.26H343.237V171.982H344.803L345.001 169.822H346.315V171.982H348.943V173.26H346.315V178.264C346.315 178.828 346.429 179.212 346.657 179.416C346.885 179.608 347.287 179.704 347.863 179.704H348.817V181H347.431ZM354.649 181.216C353.797 181.216 353.041 181.024 352.381 180.64C351.721 180.244 351.199 179.692 350.815 178.984C350.443 178.264 350.257 177.436 350.257 176.5C350.257 175.54 350.443 174.712 350.815 174.016C351.187 173.308 351.703 172.756 352.363 172.36C353.035 171.964 353.809 171.766 354.685 171.766C355.561 171.766 356.311 171.964 356.935 172.36C357.559 172.756 358.033 173.272 358.357 173.908C358.693 174.544 358.861 175.24 358.861 175.996C358.861 176.116 358.861 176.248 358.861 176.392C358.861 176.524 358.855 176.674 358.843 176.842H351.391V175.672H357.367C357.331 174.844 357.055 174.202 356.539 173.746C356.035 173.278 355.405 173.044 354.649 173.044C354.133 173.044 353.653 173.164 353.209 173.404C352.765 173.632 352.405 173.968 352.129 174.412C351.865 174.856 351.733 175.414 351.733 176.086V176.59C351.733 177.322 351.871 177.94 352.147 178.444C352.423 178.948 352.783 179.326 353.227 179.578C353.671 179.818 354.145 179.938 354.649 179.938C355.273 179.938 355.789 179.8 356.197 179.524C356.617 179.236 356.923 178.846 357.115 178.354H358.609C358.453 178.906 358.195 179.398 357.835 179.83C357.475 180.25 357.025 180.586 356.485 180.838C355.957 181.09 355.345 181.216 354.649 181.216ZM360.883 181V171.982H362.251L362.377 173.71C362.569 173.302 362.821 172.954 363.133 172.666C363.457 172.378 363.841 172.156 364.285 172C364.729 171.844 365.233 171.766 365.797 171.766V173.35H365.311C364.915 173.35 364.537 173.404 364.177 173.512C363.829 173.608 363.517 173.77 363.241 173.998C362.977 174.226 362.767 174.538 362.611 174.934C362.467 175.318 362.395 175.804 362.395 176.392V181H360.883ZM370.912 181.216C370.18 181.216 369.532 181.096 368.968 180.856C368.416 180.604 367.972 180.25 367.636 179.794C367.3 179.338 367.09 178.804 367.006 178.192H368.554C368.626 178.516 368.758 178.81 368.95 179.074C369.142 179.338 369.406 179.548 369.742 179.704C370.078 179.86 370.474 179.938 370.93 179.938C371.362 179.938 371.71 179.878 371.974 179.758C372.25 179.626 372.454 179.458 372.586 179.254C372.73 179.038 372.802 178.804 372.802 178.552C372.802 178.18 372.712 177.898 372.532 177.706C372.364 177.514 372.112 177.364 371.776 177.256C371.44 177.148 371.038 177.052 370.57 176.968C370.186 176.896 369.802 176.8 369.418 176.68C369.046 176.548 368.704 176.392 368.392 176.212C368.092 176.02 367.852 175.78 367.672 175.492C367.492 175.204 367.402 174.85 367.402 174.43C367.402 173.914 367.534 173.458 367.798 173.062C368.074 172.654 368.452 172.336 368.932 172.108C369.424 171.88 370.006 171.766 370.678 171.766C371.638 171.766 372.418 172 373.018 172.468C373.618 172.936 373.972 173.614 374.08 174.502H372.586C372.526 174.046 372.328 173.692 371.992 173.44C371.668 173.176 371.224 173.044 370.66 173.044C370.096 173.044 369.664 173.158 369.364 173.386C369.076 173.614 368.932 173.914 368.932 174.286C368.932 174.526 369.016 174.736 369.184 174.916C369.352 175.096 369.592 175.252 369.904 175.384C370.228 175.504 370.618 175.612 371.074 175.708C371.662 175.816 372.202 175.96 372.694 176.14C373.186 176.32 373.582 176.584 373.882 176.932C374.194 177.28 374.35 177.778 374.35 178.426C374.362 178.978 374.224 179.464 373.936 179.884C373.648 180.304 373.246 180.634 372.73 180.874C372.226 181.102 371.62 181.216 370.912 181.216ZM376.51 184.96V171.982H377.878L378.022 173.458C378.214 173.17 378.46 172.9 378.76 172.648C379.06 172.384 379.42 172.174 379.84 172.018C380.26 171.85 380.746 171.766 381.298 171.766C382.174 171.766 382.936 171.976 383.584 172.396C384.244 172.804 384.76 173.368 385.132 174.088C385.504 174.796 385.69 175.606 385.69 176.518C385.69 177.418 385.504 178.222 385.132 178.93C384.76 179.638 384.244 180.196 383.584 180.604C382.924 181.012 382.156 181.216 381.28 181.216C380.548 181.216 379.9 181.066 379.336 180.766C378.772 180.466 378.334 180.046 378.022 179.506V184.96H376.51ZM381.118 179.902C381.706 179.902 382.228 179.764 382.684 179.488C383.14 179.2 383.494 178.804 383.746 178.3C384.01 177.784 384.142 177.184 384.142 176.5C384.142 175.816 384.01 175.222 383.746 174.718C383.494 174.202 383.14 173.8 382.684 173.512C382.228 173.224 381.706 173.08 381.118 173.08C380.518 173.08 379.984 173.224 379.516 173.512C379.06 173.8 378.7 174.202 378.436 174.718C378.184 175.222 378.058 175.816 378.058 176.5C378.058 177.184 378.184 177.784 378.436 178.3C378.7 178.804 379.06 179.2 379.516 179.488C379.984 179.764 380.518 179.902 381.118 179.902ZM391.863 181.216C391.023 181.216 390.267 181.024 389.595 180.64C388.923 180.244 388.389 179.692 387.993 178.984C387.609 178.276 387.417 177.448 387.417 176.5C387.417 175.54 387.615 174.706 388.011 173.998C388.407 173.29 388.941 172.744 389.613 172.36C390.297 171.964 391.059 171.766 391.899 171.766C392.751 171.766 393.513 171.964 394.185 172.36C394.857 172.744 395.385 173.29 395.769 173.998C396.153 174.706 396.345 175.54 396.345 176.5C396.345 177.448 396.147 178.276 395.751 178.984C395.367 179.692 394.833 180.244 394.149 180.64C393.477 181.024 392.715 181.216 391.863 181.216ZM391.863 179.92C392.391 179.92 392.877 179.794 393.321 179.542C393.765 179.29 394.119 178.906 394.383 178.39C394.659 177.874 394.797 177.244 394.797 176.5C394.797 175.732 394.665 175.096 394.401 174.592C394.137 174.088 393.783 173.71 393.339 173.458C392.895 173.194 392.415 173.062 391.899 173.062C391.395 173.062 390.915 173.194 390.459 173.458C390.015 173.71 389.655 174.088 389.379 174.592C389.103 175.096 388.965 175.732 388.965 176.5C388.965 177.244 389.103 177.874 389.379 178.39C389.655 178.906 390.009 179.29 390.441 179.542C390.885 179.794 391.359 179.92 391.863 179.92ZM398.465 181V171.982H399.833L399.959 173.71C400.151 173.302 400.403 172.954 400.715 172.666C401.039 172.378 401.423 172.156 401.867 172C402.311 171.844 402.815 171.766 403.379 171.766V173.35H402.893C402.497 173.35 402.119 173.404 401.759 173.512C401.411 173.608 401.099 173.77 400.823 173.998C400.559 174.226 400.349 174.538 400.193 174.934C400.049 175.318 399.977 175.804 399.977 176.392V181H398.465ZM408.638 181C408.098 181 407.63 180.916 407.234 180.748C406.838 180.58 406.532 180.298 406.316 179.902C406.112 179.494 406.01 178.948 406.01 178.264V173.26H404.444V171.982H406.01L406.208 169.822H407.522V171.982H410.15V173.26H407.522V178.264C407.522 178.828 407.636 179.212 407.864 179.416C408.092 179.608 408.494 179.704 409.07 179.704H410.024V181H408.638ZM412.628 181.09C412.328 181.09 412.076 180.994 411.872 180.802C411.68 180.598 411.584 180.352 411.584 180.064C411.584 179.776 411.68 179.536 411.872 179.344C412.076 179.14 412.328 179.038 412.628 179.038C412.928 179.038 413.174 179.14 413.366 179.344C413.558 179.536 413.654 179.776 413.654 180.064C413.654 180.352 413.558 180.598 413.366 180.802C413.174 180.994 412.928 181.09 412.628 181.09ZM416.142 181V170.524C416.142 169.948 416.238 169.48 416.43 169.12C416.622 168.748 416.904 168.478 417.276 168.31C417.66 168.13 418.128 168.04 418.68 168.04H419.652V169.336H418.914C418.47 169.336 418.146 169.426 417.942 169.606C417.75 169.786 417.654 170.104 417.654 170.56V181H416.142ZM414.774 173.26V171.982H419.904V173.26H414.774ZM421.703 181V171.982H423.071L423.197 173.71C423.389 173.302 423.641 172.954 423.953 172.666C424.277 172.378 424.661 172.156 425.105 172C425.549 171.844 426.053 171.766 426.617 171.766V173.35H426.131C425.735 173.35 425.357 173.404 424.997 173.512C424.649 173.608 424.337 173.77 424.061 173.998C423.797 174.226 423.587 174.538 423.431 174.934C423.287 175.318 423.215 175.804 423.215 176.392V181H421.703Z" fill="black"/>
<rect x="124" y="179" width="16" height="16" rx="2" fill="#68BBFA"/>
<path d="M149.404 193V183.982H150.916V193H149.404ZM150.16 182.038C149.86 182.038 149.608 181.942 149.404 181.75C149.212 181.546 149.116 181.294 149.116 180.994C149.116 180.694 149.212 180.454 149.404 180.274C149.608 180.082 149.86 179.986 150.16 179.986C150.448 179.986 150.694 180.082 150.898 180.274C151.102 180.454 151.204 180.694 151.204 180.994C151.204 181.294 151.102 181.546 150.898 181.75C150.694 181.942 150.448 182.038 150.16 182.038ZM153.621 188.356V187.078H160.749V188.356H153.621ZM163.287 193V183.982H164.655L164.781 185.71C164.973 185.302 165.225 184.954 165.537 184.666C165.861 184.378 166.245 184.156 166.689 184C167.133 183.844 167.637 183.766 168.201 183.766V185.35H167.715C167.319 185.35 166.941 185.404 166.581 185.512C166.233 185.608 165.921 185.77 165.645 185.998C165.381 186.226 165.171 186.538 165.015 186.934C164.871 187.318 164.799 187.804 164.799 188.392V193H163.287ZM173.19 193.216C172.494 193.216 171.882 193.078 171.354 192.802C170.838 192.514 170.436 192.082 170.148 191.506C169.872 190.93 169.734 190.204 169.734 189.328V183.982H171.246V189.166C171.246 190.09 171.438 190.78 171.822 191.236C172.218 191.692 172.782 191.92 173.514 191.92C174.03 191.92 174.486 191.8 174.882 191.56C175.29 191.308 175.608 190.948 175.836 190.48C176.076 190 176.196 189.424 176.196 188.752V183.982H177.708V193H176.34L176.25 191.416C175.974 191.98 175.566 192.424 175.026 192.748C174.486 193.06 173.874 193.216 173.19 193.216ZM180.215 193V183.982H181.583L181.673 185.584C181.961 185.02 182.375 184.576 182.915 184.252C183.455 183.928 184.067 183.766 184.751 183.766C185.447 183.766 186.053 183.91 186.569 184.198C187.085 184.474 187.487 184.9 187.775 185.476C188.063 186.052 188.207 186.778 188.207 187.654V193H186.695V187.816C186.695 186.904 186.497 186.22 186.101 185.764C185.705 185.296 185.141 185.062 184.409 185.062C183.893 185.062 183.431 185.188 183.023 185.44C182.627 185.692 182.309 186.052 182.069 186.52C181.841 186.988 181.727 187.564 181.727 188.248V193H180.215ZM191.073 193.09C190.773 193.09 190.521 192.994 190.317 192.802C190.125 192.598 190.029 192.352 190.029 192.064C190.029 191.776 190.125 191.536 190.317 191.344C190.521 191.14 190.773 191.038 191.073 191.038C191.373 191.038 191.619 191.14 191.811 191.344C192.003 191.536 192.099 191.776 192.099 192.064C192.099 192.352 192.003 192.598 191.811 192.802C191.619 192.994 191.373 193.09 191.073 193.09ZM194.588 193V182.524C194.588 181.948 194.684 181.48 194.876 181.12C195.068 180.748 195.35 180.478 195.722 180.31C196.106 180.13 196.574 180.04 197.126 180.04H198.098V181.336H197.36C196.916 181.336 196.592 181.426 196.388 181.606C196.196 181.786 196.1 182.104 196.1 182.56V193H194.588ZM193.22 185.26V183.982H198.35V185.26H193.22ZM200.148 193V183.982H201.516L201.642 185.71C201.834 185.302 202.086 184.954 202.398 184.666C202.722 184.378 203.106 184.156 203.55 184C203.994 183.844 204.498 183.766 205.062 183.766V185.35H204.576C204.18 185.35 203.802 185.404 203.442 185.512C203.094 185.608 202.782 185.77 202.506 185.998C202.242 186.226 202.032 186.538 201.876 186.934C201.732 187.318 201.66 187.804 201.66 188.392V193H200.148Z" fill="black"/>
<rect x="74" y="50" width="16" height="16" rx="2" fill="#FFBF49"/>
<path d="M99.242 64V51.04H100.754V64H99.242ZM107.264 64.216C106.412 64.216 105.656 64.024 104.996 63.64C104.336 63.244 103.814 62.692 103.43 61.984C103.058 61.264 102.872 60.436 102.872 59.5C102.872 58.54 103.058 57.712 103.43 57.016C103.802 56.308 104.318 55.756 104.978 55.36C105.65 54.964 106.424 54.766 107.3 54.766C108.176 54.766 108.926 54.964 109.55 55.36C110.174 55.756 110.648 56.272 110.972 56.908C111.308 57.544 111.476 58.24 111.476 58.996C111.476 59.116 111.476 59.248 111.476 59.392C111.476 59.524 111.47 59.674 111.458 59.842H104.006V58.672H109.982C109.946 57.844 109.67 57.202 109.154 56.746C108.65 56.278 108.02 56.044 107.264 56.044C106.748 56.044 106.268 56.164 105.824 56.404C105.38 56.632 105.02 56.968 104.744 57.412C104.48 57.856 104.348 58.414 104.348 59.086V59.59C104.348 60.322 104.486 60.94 104.762 61.444C105.038 61.948 105.398 62.326 105.842 62.578C106.286 62.818 106.76 62.938 107.264 62.938C107.888 62.938 108.404 62.8 108.812 62.524C109.232 62.236 109.538 61.846 109.73 61.354H111.224C111.068 61.906 110.81 62.398 110.45 62.83C110.09 63.25 109.64 63.586 109.1 63.838C108.572 64.09 107.96 64.216 107.264 64.216ZM117.602 64.216C116.75 64.216 115.982 64.018 115.298 63.622C114.626 63.226 114.092 62.674 113.696 61.966C113.312 61.258 113.12 60.436 113.12 59.5C113.12 58.552 113.312 57.724 113.696 57.016C114.092 56.308 114.626 55.756 115.298 55.36C115.982 54.964 116.75 54.766 117.602 54.766C118.682 54.766 119.576 55.048 120.284 55.612C121.004 56.164 121.466 56.908 121.67 57.844H120.122C119.99 57.28 119.69 56.842 119.222 56.53C118.754 56.218 118.208 56.062 117.584 56.062C117.08 56.062 116.606 56.194 116.162 56.458C115.718 56.71 115.358 57.094 115.082 57.61C114.806 58.114 114.668 58.744 114.668 59.5C114.668 60.052 114.746 60.544 114.902 60.976C115.07 61.408 115.286 61.774 115.55 62.074C115.826 62.362 116.138 62.578 116.486 62.722C116.846 62.866 117.212 62.938 117.584 62.938C118.004 62.938 118.388 62.872 118.736 62.74C119.084 62.596 119.378 62.392 119.618 62.128C119.87 61.852 120.038 61.528 120.122 61.156H121.67C121.478 62.068 121.016 62.806 120.284 63.37C119.564 63.934 118.67 64.216 117.602 64.216ZM124.771 67.96L126.985 62.992H126.463L122.899 54.982H124.537L127.507 61.876L130.621 54.982H132.187L126.355 67.96H124.771ZM137.043 64.216C136.191 64.216 135.423 64.018 134.739 63.622C134.067 63.226 133.533 62.674 133.137 61.966C132.753 61.258 132.561 60.436 132.561 59.5C132.561 58.552 132.753 57.724 133.137 57.016C133.533 56.308 134.067 55.756 134.739 55.36C135.423 54.964 136.191 54.766 137.043 54.766C138.123 54.766 139.017 55.048 139.725 55.612C140.445 56.164 140.907 56.908 141.111 57.844H139.563C139.431 57.28 139.131 56.842 138.663 56.53C138.195 56.218 137.649 56.062 137.025 56.062C136.521 56.062 136.047 56.194 135.603 56.458C135.159 56.71 134.799 57.094 134.523 57.61C134.247 58.114 134.109 58.744 134.109 59.5C134.109 60.052 134.187 60.544 134.343 60.976C134.511 61.408 134.727 61.774 134.991 62.074C135.267 62.362 135.579 62.578 135.927 62.722C136.287 62.866 136.653 62.938 137.025 62.938C137.445 62.938 137.829 62.872 138.177 62.74C138.525 62.596 138.819 62.392 139.059 62.128C139.311 61.852 139.479 61.528 139.563 61.156H141.111C140.919 62.068 140.457 62.806 139.725 63.37C139.005 63.934 138.111 64.216 137.043 64.216ZM143.222 64V51.04H144.734V64H143.222ZM151.298 64.216C150.458 64.216 149.702 64.024 149.03 63.64C148.358 63.244 147.824 62.692 147.428 61.984C147.044 61.276 146.852 60.448 146.852 59.5C146.852 58.54 147.05 57.706 147.446 56.998C147.842 56.29 148.376 55.744 149.048 55.36C149.732 54.964 150.494 54.766 151.334 54.766C152.186 54.766 152.948 54.964 153.62 55.36C154.292 55.744 154.82 56.29 155.204 56.998C155.588 57.706 155.78 58.54 155.78 59.5C155.78 60.448 155.582 61.276 155.186 61.984C154.802 62.692 154.268 63.244 153.584 63.64C152.912 64.024 152.15 64.216 151.298 64.216ZM151.298 62.92C151.826 62.92 152.312 62.794 152.756 62.542C153.2 62.29 153.554 61.906 153.818 61.39C154.094 60.874 154.232 60.244 154.232 59.5C154.232 58.732 154.1 58.096 153.836 57.592C153.572 57.088 153.218 56.71 152.774 56.458C152.33 56.194 151.85 56.062 151.334 56.062C150.83 56.062 150.35 56.194 149.894 56.458C149.45 56.71 149.09 57.088 148.814 57.592C148.538 58.096 148.4 58.732 148.4 59.5C148.4 60.244 148.538 60.874 148.814 61.39C149.09 61.906 149.444 62.29 149.876 62.542C150.32 62.794 150.794 62.92 151.298 62.92ZM158.44 64.09C158.14 64.09 157.888 63.994 157.684 63.802C157.492 63.598 157.396 63.352 157.396 63.064C157.396 62.776 157.492 62.536 157.684 62.344C157.888 62.14 158.14 62.038 158.44 62.038C158.74 62.038 158.986 62.14 159.178 62.344C159.37 62.536 159.466 62.776 159.466 63.064C159.466 63.352 159.37 63.598 159.178 63.802C158.986 63.994 158.74 64.09 158.44 64.09ZM161.955 64V53.524C161.955 52.948 162.051 52.48 162.243 52.12C162.435 51.748 162.717 51.478 163.089 51.31C163.473 51.13 163.941 51.04 164.493 51.04H165.465V52.336H164.727C164.283 52.336 163.959 52.426 163.755 52.606C163.563 52.786 163.467 53.104 163.467 53.56V64H161.955ZM160.587 56.26V54.982H165.717V56.26H160.587ZM167.515 64V54.982H168.883L169.009 56.71C169.201 56.302 169.453 55.954 169.765 55.666C170.089 55.378 170.473 55.156 170.917 55C171.361 54.844 171.865 54.766 172.429 54.766V56.35H171.943C171.547 56.35 171.169 56.404 170.809 56.512C170.461 56.608 170.149 56.77 169.873 56.998C169.609 57.226 169.399 57.538 169.243 57.934C169.099 58.318 169.027 58.804 169.027 59.392V64H167.515Z" fill="black"/>
<path d="M214 65C214 45.1177 230.118 29 250 29V29C269.882 29 286 45.1177 286 65V65C286 84.8823 269.882 101 250 101V101C230.118 101 214 84.8823 214 65V65Z" fill="#FDB602"/>
<path d="M261.25 57.9688L256.469 57.9688L256.469 57.4063C256.469 53.8344 253.572 50.9375 250 50.9375C246.428 50.9375 243.531 53.8344 243.531 57.4063L243.531 57.9688L238.75 57.9688C238.128 57.9688 237.625 58.4715 237.625 59.0938L237.625 77.9375C237.625 78.5598 238.128 79.0625 238.75 79.0625L261.25 79.0625C261.872 79.0625 262.375 78.5598 262.375 77.9375L262.375 59.0938C262.375 58.4715 261.872 57.9688 261.25 57.9688ZM253.937 57.9688L246.062 57.9688L246.062 57.4063C246.062 55.2301 247.824 53.4688 250 53.4688C252.176 53.4688 253.937 55.2301 253.937 57.4063L253.937 57.9688Z" fill="#0D0D0D"/>
</svg>
