<svg width="501" height="390" viewBox="0 0 501 390" fill="none" xmlns="http://www.w3.org/2000/svg">
<rect x="141" y="4" width="16" height="16" rx="2" fill="#7171FC"/>
<path d="M169.212 18.216C168.468 18.216 167.85 18.09 167.358 17.838C166.878 17.586 166.518 17.25 166.278 16.83C166.038 16.398 165.918 15.93 165.918 15.426C165.918 14.814 166.074 14.298 166.386 13.878C166.71 13.458 167.16 13.14 167.736 12.924C168.324 12.696 169.008 12.582 169.788 12.582H172.2C172.2 12.018 172.11 11.55 171.93 11.178C171.762 10.806 171.51 10.524 171.174 10.332C170.838 10.14 170.43 10.044 169.95 10.044C169.374 10.044 168.87 10.194 168.438 10.494C168.018 10.782 167.76 11.202 167.664 11.754H166.116C166.188 11.118 166.404 10.578 166.764 10.134C167.136 9.69 167.604 9.354 168.168 9.126C168.732 8.886 169.326 8.766 169.95 8.766C170.778 8.766 171.468 8.922 172.02 9.234C172.584 9.534 173.004 9.96 173.28 10.512C173.568 11.052 173.712 11.694 173.712 12.438V18H172.362L172.272 16.398C172.152 16.65 171.996 16.89 171.804 17.118C171.624 17.334 171.408 17.526 171.156 17.694C170.916 17.85 170.634 17.976 170.31 18.072C169.986 18.168 169.62 18.216 169.212 18.216ZM169.446 16.938C169.878 16.938 170.262 16.854 170.598 16.686C170.934 16.506 171.222 16.266 171.462 15.966C171.714 15.666 171.9 15.33 172.02 14.958C172.14 14.574 172.2 14.184 172.2 13.788V13.752H169.914C169.338 13.752 168.87 13.824 168.51 13.968C168.15 14.1 167.892 14.286 167.736 14.526C167.58 14.766 167.502 15.042 167.502 15.354C167.502 15.678 167.574 15.96 167.718 16.2C167.874 16.44 168.096 16.626 168.384 16.758C168.672 16.878 169.026 16.938 169.446 16.938ZM180.047 18.216C179.171 18.216 178.397 18.012 177.725 17.604C177.065 17.184 176.549 16.62 176.177 15.912C175.817 15.192 175.637 14.382 175.637 13.482C175.637 12.57 175.817 11.76 176.177 11.052C176.549 10.344 177.071 9.786 177.743 9.378C178.415 8.97 179.189 8.766 180.065 8.766C180.797 8.766 181.445 8.916 182.009 9.216C182.573 9.516 183.005 9.936 183.305 10.476V5.04H184.817V18H183.449L183.323 16.524C183.131 16.812 182.885 17.088 182.585 17.352C182.285 17.604 181.925 17.814 181.505 17.982C181.085 18.138 180.599 18.216 180.047 18.216ZM180.209 16.902C180.809 16.902 181.337 16.764 181.793 16.488C182.261 16.2 182.621 15.804 182.873 15.3C183.125 14.784 183.251 14.184 183.251 13.5C183.251 12.816 183.125 12.222 182.873 11.718C182.621 11.202 182.261 10.8 181.793 10.512C181.337 10.224 180.809 10.08 180.209 10.08C179.633 10.08 179.111 10.224 178.643 10.512C178.187 10.8 177.827 11.202 177.563 11.718C177.311 12.222 177.185 12.816 177.185 13.5C177.185 14.184 177.311 14.784 177.563 15.3C177.827 15.804 178.187 16.2 178.643 16.488C179.111 16.764 179.633 16.902 180.209 16.902ZM187.48 18V8.982H188.992V18H187.48ZM188.236 7.038C187.936 7.038 187.684 6.942 187.48 6.75C187.288 6.546 187.192 6.294 187.192 5.994C187.192 5.694 187.288 5.454 187.48 5.274C187.684 5.082 187.936 4.986 188.236 4.986C188.524 4.986 188.77 5.082 188.974 5.274C189.178 5.454 189.28 5.694 189.28 5.994C189.28 6.294 189.178 6.546 188.974 6.75C188.77 6.942 188.524 7.038 188.236 7.038ZM195.657 18.216C194.781 18.216 194.007 18.012 193.335 17.604C192.675 17.184 192.159 16.62 191.787 15.912C191.427 15.192 191.247 14.382 191.247 13.482C191.247 12.57 191.427 11.76 191.787 11.052C192.159 10.344 192.681 9.786 193.353 9.378C194.025 8.97 194.799 8.766 195.675 8.766C196.407 8.766 197.055 8.916 197.619 9.216C198.183 9.516 198.615 9.936 198.915 10.476V5.04H200.427V18H199.059L198.933 16.524C198.741 16.812 198.495 17.088 198.195 17.352C197.895 17.604 197.535 17.814 197.115 17.982C196.695 18.138 196.209 18.216 195.657 18.216ZM195.819 16.902C196.419 16.902 196.947 16.764 197.403 16.488C197.871 16.2 198.231 15.804 198.483 15.3C198.735 14.784 198.861 14.184 198.861 13.5C198.861 12.816 198.735 12.222 198.483 11.718C198.231 11.202 197.871 10.8 197.403 10.512C196.947 10.224 196.419 10.08 195.819 10.08C195.243 10.08 194.721 10.224 194.253 10.512C193.797 10.8 193.437 11.202 193.173 11.718C192.921 12.222 192.795 12.816 192.795 13.5C192.795 14.184 192.921 14.784 193.173 15.3C193.437 15.804 193.797 16.2 194.253 16.488C194.721 16.764 195.243 16.902 195.819 16.902ZM205.898 18.216C205.154 18.216 204.536 18.09 204.044 17.838C203.564 17.586 203.204 17.25 202.964 16.83C202.724 16.398 202.604 15.93 202.604 15.426C202.604 14.814 202.76 14.298 203.072 13.878C203.396 13.458 203.846 13.14 204.422 12.924C205.01 12.696 205.694 12.582 206.474 12.582H208.886C208.886 12.018 208.796 11.55 208.616 11.178C208.448 10.806 208.196 10.524 207.86 10.332C207.524 10.14 207.116 10.044 206.636 10.044C206.06 10.044 205.556 10.194 205.124 10.494C204.704 10.782 204.446 11.202 204.35 11.754H202.802C202.874 11.118 203.09 10.578 203.45 10.134C203.822 9.69 204.29 9.354 204.854 9.126C205.418 8.886 206.012 8.766 206.636 8.766C207.464 8.766 208.154 8.922 208.706 9.234C209.27 9.534 209.69 9.96 209.966 10.512C210.254 11.052 210.398 11.694 210.398 12.438V18H209.048L208.958 16.398C208.838 16.65 208.682 16.89 208.49 17.118C208.31 17.334 208.094 17.526 207.842 17.694C207.602 17.85 207.32 17.976 206.996 18.072C206.672 18.168 206.306 18.216 205.898 18.216ZM206.132 16.938C206.564 16.938 206.948 16.854 207.284 16.686C207.62 16.506 207.908 16.266 208.148 15.966C208.4 15.666 208.586 15.33 208.706 14.958C208.826 14.574 208.886 14.184 208.886 13.788V13.752H206.6C206.024 13.752 205.556 13.824 205.196 13.968C204.836 14.1 204.578 14.286 204.422 14.526C204.266 14.766 204.188 15.042 204.188 15.354C204.188 15.678 204.26 15.96 204.404 16.2C204.56 16.44 204.782 16.626 205.07 16.758C205.358 16.878 205.712 16.938 206.132 16.938ZM216.121 18.216C215.389 18.216 214.741 18.096 214.177 17.856C213.625 17.604 213.181 17.25 212.845 16.794C212.509 16.338 212.299 15.804 212.215 15.192H213.763C213.835 15.516 213.967 15.81 214.159 16.074C214.351 16.338 214.615 16.548 214.951 16.704C215.287 16.86 215.683 16.938 216.139 16.938C216.571 16.938 216.919 16.878 217.183 16.758C217.459 16.626 217.663 16.458 217.795 16.254C217.939 16.038 218.011 15.804 218.011 15.552C218.011 15.18 217.921 14.898 217.741 14.706C217.573 14.514 217.321 14.364 216.985 14.256C216.649 14.148 216.247 14.052 215.779 13.968C215.395 13.896 215.011 13.8 214.627 13.68C214.255 13.548 213.913 13.392 213.601 13.212C213.301 13.02 213.061 12.78 212.881 12.492C212.701 12.204 212.611 11.85 212.611 11.43C212.611 10.914 212.743 10.458 213.007 10.062C213.283 9.654 213.661 9.336 214.141 9.108C214.633 8.88 215.215 8.766 215.887 8.766C216.847 8.766 217.627 9 218.227 9.468C218.827 9.936 219.181 10.614 219.289 11.502H217.795C217.735 11.046 217.537 10.692 217.201 10.44C216.877 10.176 216.433 10.044 215.869 10.044C215.305 10.044 214.873 10.158 214.573 10.386C214.285 10.614 214.141 10.914 214.141 11.286C214.141 11.526 214.225 11.736 214.393 11.916C214.561 12.096 214.801 12.252 215.113 12.384C215.437 12.504 215.827 12.612 216.283 12.708C216.871 12.816 217.411 12.96 217.903 13.14C218.395 13.32 218.791 13.584 219.091 13.932C219.403 14.28 219.559 14.778 219.559 15.426C219.571 15.978 219.433 16.464 219.145 16.884C218.857 17.304 218.455 17.634 217.939 17.874C217.435 18.102 216.829 18.216 216.121 18.216ZM222.259 18.09C221.959 18.09 221.707 17.994 221.503 17.802C221.311 17.598 221.215 17.352 221.215 17.064C221.215 16.776 221.311 16.536 221.503 16.344C221.707 16.14 221.959 16.038 222.259 16.038C222.559 16.038 222.805 16.14 222.997 16.344C223.189 16.536 223.285 16.776 223.285 17.064C223.285 17.352 223.189 17.598 222.997 17.802C222.805 17.994 222.559 18.09 222.259 18.09ZM225.773 18V7.524C225.773 6.948 225.869 6.48 226.061 6.12C226.253 5.748 226.535 5.478 226.907 5.31C227.291 5.13 227.759 5.04 228.311 5.04H229.283V6.336H228.545C228.101 6.336 227.777 6.426 227.573 6.606C227.381 6.786 227.285 7.104 227.285 7.56V18H225.773ZM224.405 10.26V8.982H229.535V10.26H224.405ZM231.334 18V8.982H232.702L232.828 10.71C233.02 10.302 233.272 9.954 233.584 9.666C233.908 9.378 234.292 9.156 234.736 9C235.18 8.844 235.684 8.766 236.248 8.766V10.35H235.762C235.366 10.35 234.988 10.404 234.628 10.512C234.28 10.608 233.968 10.77 233.692 10.998C233.428 11.226 233.218 11.538 233.062 11.934C232.918 12.318 232.846 12.804 232.846 13.392V18H231.334Z" fill="black"/>
<rect x="261" y="4" width="16" height="16" rx="2" fill="#FFBF49"/>
<path d="M286.242 18V5.04H287.754V18H286.242ZM294.264 18.216C293.412 18.216 292.656 18.024 291.996 17.64C291.336 17.244 290.814 16.692 290.43 15.984C290.058 15.264 289.872 14.436 289.872 13.5C289.872 12.54 290.058 11.712 290.43 11.016C290.802 10.308 291.318 9.756 291.978 9.36C292.65 8.964 293.424 8.766 294.3 8.766C295.176 8.766 295.926 8.964 296.55 9.36C297.174 9.756 297.648 10.272 297.972 10.908C298.308 11.544 298.476 12.24 298.476 12.996C298.476 13.116 298.476 13.248 298.476 13.392C298.476 13.524 298.47 13.674 298.458 13.842H291.006V12.672H296.982C296.946 11.844 296.67 11.202 296.154 10.746C295.65 10.278 295.02 10.044 294.264 10.044C293.748 10.044 293.268 10.164 292.824 10.404C292.38 10.632 292.02 10.968 291.744 11.412C291.48 11.856 291.348 12.414 291.348 13.086V13.59C291.348 14.322 291.486 14.94 291.762 15.444C292.038 15.948 292.398 16.326 292.842 16.578C293.286 16.818 293.76 16.938 294.264 16.938C294.888 16.938 295.404 16.8 295.812 16.524C296.232 16.236 296.538 15.846 296.73 15.354H298.224C298.068 15.906 297.81 16.398 297.45 16.83C297.09 17.25 296.64 17.586 296.1 17.838C295.572 18.09 294.96 18.216 294.264 18.216ZM304.602 18.216C303.75 18.216 302.982 18.018 302.298 17.622C301.626 17.226 301.092 16.674 300.696 15.966C300.312 15.258 300.12 14.436 300.12 13.5C300.12 12.552 300.312 11.724 300.696 11.016C301.092 10.308 301.626 9.756 302.298 9.36C302.982 8.964 303.75 8.766 304.602 8.766C305.682 8.766 306.576 9.048 307.284 9.612C308.004 10.164 308.466 10.908 308.67 11.844H307.122C306.99 11.28 306.69 10.842 306.222 10.53C305.754 10.218 305.208 10.062 304.584 10.062C304.08 10.062 303.606 10.194 303.162 10.458C302.718 10.71 302.358 11.094 302.082 11.61C301.806 12.114 301.668 12.744 301.668 13.5C301.668 14.052 301.746 14.544 301.902 14.976C302.07 15.408 302.286 15.774 302.55 16.074C302.826 16.362 303.138 16.578 303.486 16.722C303.846 16.866 304.212 16.938 304.584 16.938C305.004 16.938 305.388 16.872 305.736 16.74C306.084 16.596 306.378 16.392 306.618 16.128C306.87 15.852 307.038 15.528 307.122 15.156H308.67C308.478 16.068 308.016 16.806 307.284 17.37C306.564 17.934 305.67 18.216 304.602 18.216ZM311.771 21.96L313.985 16.992H313.463L309.899 8.982H311.537L314.507 15.876L317.621 8.982H319.187L313.355 21.96H311.771ZM324.043 18.216C323.191 18.216 322.423 18.018 321.739 17.622C321.067 17.226 320.533 16.674 320.137 15.966C319.753 15.258 319.561 14.436 319.561 13.5C319.561 12.552 319.753 11.724 320.137 11.016C320.533 10.308 321.067 9.756 321.739 9.36C322.423 8.964 323.191 8.766 324.043 8.766C325.123 8.766 326.017 9.048 326.725 9.612C327.445 10.164 327.907 10.908 328.111 11.844H326.563C326.431 11.28 326.131 10.842 325.663 10.53C325.195 10.218 324.649 10.062 324.025 10.062C323.521 10.062 323.047 10.194 322.603 10.458C322.159 10.71 321.799 11.094 321.523 11.61C321.247 12.114 321.109 12.744 321.109 13.5C321.109 14.052 321.187 14.544 321.343 14.976C321.511 15.408 321.727 15.774 321.991 16.074C322.267 16.362 322.579 16.578 322.927 16.722C323.287 16.866 323.653 16.938 324.025 16.938C324.445 16.938 324.829 16.872 325.177 16.74C325.525 16.596 325.819 16.392 326.059 16.128C326.311 15.852 326.479 15.528 326.563 15.156H328.111C327.919 16.068 327.457 16.806 326.725 17.37C326.005 17.934 325.111 18.216 324.043 18.216ZM330.222 18V5.04H331.734V18H330.222ZM338.298 18.216C337.458 18.216 336.702 18.024 336.03 17.64C335.358 17.244 334.824 16.692 334.428 15.984C334.044 15.276 333.852 14.448 333.852 13.5C333.852 12.54 334.05 11.706 334.446 10.998C334.842 10.29 335.376 9.744 336.048 9.36C336.732 8.964 337.494 8.766 338.334 8.766C339.186 8.766 339.948 8.964 340.62 9.36C341.292 9.744 341.82 10.29 342.204 10.998C342.588 11.706 342.78 12.54 342.78 13.5C342.78 14.448 342.582 15.276 342.186 15.984C341.802 16.692 341.268 17.244 340.584 17.64C339.912 18.024 339.15 18.216 338.298 18.216ZM338.298 16.92C338.826 16.92 339.312 16.794 339.756 16.542C340.2 16.29 340.554 15.906 340.818 15.39C341.094 14.874 341.232 14.244 341.232 13.5C341.232 12.732 341.1 12.096 340.836 11.592C340.572 11.088 340.218 10.71 339.774 10.458C339.33 10.194 338.85 10.062 338.334 10.062C337.83 10.062 337.35 10.194 336.894 10.458C336.45 10.71 336.09 11.088 335.814 11.592C335.538 12.096 335.4 12.732 335.4 13.5C335.4 14.244 335.538 14.874 335.814 15.39C336.09 15.906 336.444 16.29 336.876 16.542C337.32 16.794 337.794 16.92 338.298 16.92ZM345.44 18.09C345.14 18.09 344.888 17.994 344.684 17.802C344.492 17.598 344.396 17.352 344.396 17.064C344.396 16.776 344.492 16.536 344.684 16.344C344.888 16.14 345.14 16.038 345.44 16.038C345.74 16.038 345.986 16.14 346.178 16.344C346.37 16.536 346.466 16.776 346.466 17.064C346.466 17.352 346.37 17.598 346.178 17.802C345.986 17.994 345.74 18.09 345.44 18.09ZM348.955 18V7.524C348.955 6.948 349.051 6.48 349.243 6.12C349.435 5.748 349.717 5.478 350.089 5.31C350.473 5.13 350.941 5.04 351.493 5.04H352.465V6.336H351.727C351.283 6.336 350.959 6.426 350.755 6.606C350.563 6.786 350.467 7.104 350.467 7.56V18H348.955ZM347.587 10.26V8.982H352.717V10.26H347.587ZM354.515 18V8.982H355.883L356.009 10.71C356.201 10.302 356.453 9.954 356.765 9.666C357.089 9.378 357.473 9.156 357.917 9C358.361 8.844 358.865 8.766 359.429 8.766V10.35H358.943C358.547 10.35 358.169 10.404 357.809 10.512C357.461 10.608 357.149 10.77 356.873 10.998C356.609 11.226 356.399 11.538 356.243 11.934C356.099 12.318 356.027 12.804 356.027 13.392V18H354.515Z" fill="black"/>
<rect x="92.8047" y="189.104" width="23" height="157" rx="3" fill="#7171FC"/>
<rect x="119.543" y="197.396" width="23" height="148" rx="3" fill="#FFBF49"/>
<path d="M80.2 371V359.8H81.768L85.736 367.624L89.704 359.8H91.288V371H89.944V362.2L86.248 369.432H85.24L81.544 362.232V371H80.2ZM96.2284 371.192C95.5777 371.192 95.0337 371.08 94.5964 370.856C94.159 370.621 93.8337 370.317 93.6204 369.944C93.407 369.56 93.3004 369.149 93.3004 368.712C93.3004 368.168 93.439 367.709 93.7164 367.336C94.0044 366.952 94.4044 366.664 94.9164 366.472C95.439 366.269 96.047 366.168 96.7404 366.168H98.8844C98.8844 365.667 98.8044 365.251 98.6444 364.92C98.495 364.589 98.271 364.339 97.9724 364.168C97.6737 363.997 97.311 363.912 96.8844 363.912C96.3724 363.912 95.9297 364.04 95.5564 364.296C95.183 364.552 94.9537 364.931 94.8684 365.432H93.4924C93.5564 364.856 93.7484 364.376 94.0684 363.992C94.399 363.597 94.815 363.299 95.3164 363.096C95.8177 362.883 96.3404 362.776 96.8844 362.776C97.631 362.776 98.2497 362.915 98.7404 363.192C99.231 363.459 99.599 363.837 99.8444 364.328C100.1 364.808 100.228 365.373 100.228 366.024V371H99.0284L98.9484 369.576C98.8417 369.8 98.703 370.013 98.5324 370.216C98.3724 370.408 98.1804 370.579 97.9564 370.728C97.743 370.867 97.4924 370.979 97.2044 371.064C96.9164 371.149 96.591 371.192 96.2284 371.192ZM96.4364 370.056C96.8097 370.056 97.1457 369.981 97.4444 369.832C97.7537 369.672 98.015 369.459 98.2284 369.192C98.4417 368.925 98.6017 368.627 98.7084 368.296C98.8257 367.955 98.8844 367.608 98.8844 367.256V367.208H96.8524C96.3404 367.208 95.9244 367.272 95.6044 367.4C95.2844 367.517 95.055 367.688 94.9164 367.912C94.7777 368.125 94.7084 368.371 94.7084 368.648C94.7084 368.936 94.7724 369.187 94.9004 369.4C95.039 369.603 95.2364 369.763 95.4924 369.88C95.7484 369.997 96.063 370.056 96.4364 370.056ZM102.937 374.52L104.905 370.104H104.441L101.289 362.968H102.745L105.369 369.096L108.137 362.968H109.529L104.345 374.52H102.937ZM115.102 371V370.056C115.87 369.459 116.595 368.856 117.278 368.248C117.96 367.64 118.568 367.037 119.102 366.44C119.635 365.832 120.051 365.24 120.35 364.664C120.659 364.088 120.814 363.533 120.814 363C120.814 362.605 120.744 362.243 120.606 361.912C120.467 361.571 120.248 361.293 119.95 361.08C119.651 360.867 119.24 360.76 118.718 360.76C118.227 360.76 117.811 360.872 117.47 361.096C117.139 361.309 116.888 361.597 116.718 361.96C116.558 362.312 116.478 362.701 116.478 363.128H115.182C115.192 362.392 115.352 361.763 115.662 361.24C115.971 360.707 116.392 360.301 116.926 360.024C117.459 359.747 118.062 359.608 118.734 359.608C119.406 359.608 119.998 359.736 120.51 359.992C121.022 360.237 121.422 360.605 121.71 361.096C122.008 361.587 122.158 362.205 122.158 362.952C122.158 363.475 122.051 363.997 121.838 364.52C121.624 365.043 121.336 365.555 120.974 366.056C120.611 366.547 120.206 367.021 119.758 367.48C119.32 367.939 118.867 368.371 118.398 368.776C117.939 369.181 117.502 369.549 117.086 369.88H122.542V371H115.102ZM128.645 371.192C127.663 371.192 126.815 370.952 126.101 370.472C125.397 369.981 124.853 369.304 124.469 368.44C124.085 367.565 123.893 366.552 123.893 365.4C123.893 364.248 124.085 363.24 124.469 362.376C124.853 361.501 125.397 360.824 126.101 360.344C126.805 359.853 127.653 359.608 128.645 359.608C129.626 359.608 130.463 359.853 131.157 360.344C131.861 360.824 132.399 361.501 132.773 362.376C133.157 363.24 133.349 364.248 133.349 365.4C133.349 366.552 133.157 367.565 132.773 368.44C132.399 369.304 131.861 369.981 131.157 370.472C130.463 370.952 129.626 371.192 128.645 371.192ZM128.629 370.008C129.279 370.008 129.855 369.827 130.357 369.464C130.858 369.091 131.253 368.563 131.541 367.88C131.829 367.187 131.973 366.36 131.973 365.4C131.973 364.44 131.829 363.619 131.541 362.936C131.253 362.243 130.858 361.715 130.357 361.352C129.855 360.989 129.279 360.808 128.629 360.808C127.989 360.808 127.413 360.989 126.901 361.352C126.399 361.715 125.999 362.243 125.701 362.936C125.413 363.619 125.269 364.44 125.269 365.4C125.269 366.36 125.413 367.187 125.701 367.88C125.999 368.563 126.399 369.091 126.901 369.464C127.413 369.827 127.989 370.008 128.629 370.008ZM134.961 371V370.056C135.729 369.459 136.454 368.856 137.137 368.248C137.82 367.64 138.428 367.037 138.961 366.44C139.494 365.832 139.91 365.24 140.209 364.664C140.518 364.088 140.673 363.533 140.673 363C140.673 362.605 140.604 362.243 140.465 361.912C140.326 361.571 140.108 361.293 139.809 361.08C139.51 360.867 139.1 360.76 138.577 360.76C138.086 360.76 137.67 360.872 137.329 361.096C136.998 361.309 136.748 361.597 136.577 361.96C136.417 362.312 136.337 362.701 136.337 363.128H135.041C135.052 362.392 135.212 361.763 135.521 361.24C135.83 360.707 136.252 360.301 136.785 360.024C137.318 359.747 137.921 359.608 138.593 359.608C139.265 359.608 139.857 359.736 140.369 359.992C140.881 360.237 141.281 360.605 141.569 361.096C141.868 361.587 142.017 362.205 142.017 362.952C142.017 363.475 141.91 363.997 141.697 364.52C141.484 365.043 141.196 365.555 140.833 366.056C140.47 366.547 140.065 367.021 139.617 367.48C139.18 367.939 138.726 368.371 138.257 368.776C137.798 369.181 137.361 369.549 136.945 369.88H142.401V371H134.961ZM149.163 371V368.6H143.483V367.56L148.923 359.8H150.491V367.416H152.155V368.6H150.491V371H149.163ZM144.971 367.416H149.227V361.288L144.971 367.416Z" fill="#8C8C8C"/>
<rect x="223.812" y="167.807" width="23" height="178" rx="3" fill="#7171FC"/>
<rect x="250.801" y="154.77" width="23" height="191" rx="3" fill="#FFBF49"/>
<path d="M219.768 371.192C218.947 371.192 218.232 371.043 217.624 370.744C217.016 370.445 216.547 370.029 216.216 369.496C215.885 368.963 215.72 368.344 215.72 367.64H217.128C217.128 368.077 217.229 368.483 217.432 368.856C217.635 369.219 217.928 369.512 218.312 369.736C218.707 369.949 219.192 370.056 219.768 370.056C220.269 370.056 220.696 369.976 221.048 369.816C221.411 369.645 221.683 369.416 221.864 369.128C222.056 368.84 222.152 368.515 222.152 368.152C222.152 367.715 222.056 367.363 221.864 367.096C221.672 366.819 221.416 366.595 221.096 366.424C220.776 366.253 220.408 366.104 219.992 365.976C219.576 365.837 219.133 365.688 218.664 365.528C217.789 365.229 217.144 364.861 216.728 364.424C216.312 363.976 216.104 363.395 216.104 362.68C216.104 362.072 216.243 361.539 216.52 361.08C216.808 360.621 217.213 360.264 217.736 360.008C218.269 359.741 218.899 359.608 219.624 359.608C220.339 359.608 220.957 359.741 221.48 360.008C222.013 360.275 222.429 360.643 222.728 361.112C223.027 361.571 223.176 362.104 223.176 362.712H221.768C221.768 362.403 221.688 362.099 221.528 361.8C221.368 361.501 221.123 361.256 220.792 361.064C220.472 360.861 220.067 360.76 219.576 360.76C219.171 360.749 218.808 360.819 218.488 360.968C218.179 361.107 217.933 361.309 217.752 361.576C217.581 361.843 217.496 362.168 217.496 362.552C217.496 362.915 217.571 363.208 217.72 363.432C217.88 363.656 218.104 363.848 218.392 364.008C218.691 364.157 219.037 364.296 219.432 364.424C219.827 364.552 220.264 364.696 220.744 364.856C221.288 365.037 221.768 365.261 222.184 365.528C222.611 365.784 222.941 366.115 223.176 366.52C223.421 366.925 223.544 367.443 223.544 368.072C223.544 368.605 223.4 369.112 223.112 369.592C222.835 370.061 222.419 370.445 221.864 370.744C221.309 371.043 220.611 371.192 219.768 371.192ZM228.937 371.192C228.191 371.192 227.524 371.016 226.937 370.664C226.351 370.312 225.887 369.821 225.545 369.192C225.215 368.563 225.049 367.827 225.049 366.984C225.049 366.131 225.215 365.395 225.545 364.776C225.876 364.147 226.335 363.656 226.921 363.304C227.519 362.952 228.201 362.776 228.969 362.776C229.759 362.776 230.431 362.952 230.985 363.304C231.54 363.656 231.961 364.115 232.249 364.68C232.548 365.245 232.697 365.869 232.697 366.552C232.697 366.659 232.697 366.771 232.697 366.888C232.697 367.005 232.692 367.139 232.681 367.288H226.057V366.248H231.369C231.337 365.512 231.092 364.941 230.633 364.536C230.185 364.12 229.62 363.912 228.937 363.912C228.489 363.912 228.068 364.019 227.673 364.232C227.279 364.435 226.959 364.733 226.713 365.128C226.479 365.523 226.361 366.019 226.361 366.616V367.064C226.361 367.725 226.484 368.28 226.729 368.728C226.975 369.165 227.289 369.496 227.673 369.72C228.068 369.944 228.489 370.056 228.937 370.056C229.503 370.056 229.967 369.933 230.329 369.688C230.703 369.432 230.975 369.085 231.145 368.648H232.473C232.335 369.139 232.105 369.576 231.785 369.96C231.465 370.333 231.065 370.632 230.585 370.856C230.116 371.08 229.567 371.192 228.937 371.192ZM234.479 374.52V362.968H235.695L235.823 364.28C235.994 364.024 236.212 363.784 236.479 363.56C236.746 363.325 237.066 363.139 237.439 363C237.812 362.851 238.244 362.776 238.735 362.776C239.514 362.776 240.191 362.963 240.767 363.336C241.354 363.699 241.807 364.2 242.127 364.84C242.458 365.469 242.623 366.189 242.623 367C242.623 367.811 242.458 368.531 242.127 369.16C241.807 369.789 241.354 370.285 240.767 370.648C240.18 371.011 239.498 371.192 238.719 371.192C238.068 371.192 237.492 371.059 236.991 370.792C236.49 370.525 236.1 370.152 235.823 369.672V374.52H234.479ZM238.559 370.024C239.092 370.024 239.562 369.901 239.967 369.656C240.372 369.4 240.687 369.043 240.911 368.584C241.146 368.125 241.263 367.592 241.263 366.984C241.263 366.376 241.146 365.843 240.911 365.384C240.687 364.925 240.372 364.573 239.967 364.328C239.562 364.072 239.092 363.944 238.559 363.944C238.026 363.944 237.556 364.072 237.151 364.328C236.746 364.573 236.431 364.925 236.207 365.384C235.983 365.843 235.871 366.376 235.871 366.984C235.871 367.592 235.983 368.125 236.207 368.584C236.431 369.043 236.746 369.4 237.151 369.656C237.556 369.901 238.026 370.024 238.559 370.024ZM248.664 371V370.056C249.432 369.459 250.158 368.856 250.84 368.248C251.523 367.64 252.131 367.037 252.664 366.44C253.198 365.832 253.614 365.24 253.912 364.664C254.222 364.088 254.376 363.533 254.376 363C254.376 362.605 254.307 362.243 254.168 361.912C254.03 361.571 253.811 361.293 253.512 361.08C253.214 360.867 252.803 360.76 252.28 360.76C251.79 360.76 251.374 360.872 251.032 361.096C250.702 361.309 250.451 361.597 250.28 361.96C250.12 362.312 250.04 362.701 250.04 363.128H248.744C248.755 362.392 248.915 361.763 249.224 361.24C249.534 360.707 249.955 360.301 250.488 360.024C251.022 359.747 251.624 359.608 252.296 359.608C252.968 359.608 253.56 359.736 254.072 359.992C254.584 360.237 254.984 360.605 255.272 361.096C255.571 361.587 255.72 362.205 255.72 362.952C255.72 363.475 255.614 363.997 255.4 364.52C255.187 365.043 254.899 365.555 254.536 366.056C254.174 366.547 253.768 367.021 253.32 367.48C252.883 367.939 252.43 368.371 251.96 368.776C251.502 369.181 251.064 369.549 250.648 369.88H256.104V371H248.664ZM262.207 371.192C261.226 371.192 260.378 370.952 259.663 370.472C258.959 369.981 258.415 369.304 258.031 368.44C257.647 367.565 257.455 366.552 257.455 365.4C257.455 364.248 257.647 363.24 258.031 362.376C258.415 361.501 258.959 360.824 259.663 360.344C260.367 359.853 261.215 359.608 262.207 359.608C263.188 359.608 264.026 359.853 264.719 360.344C265.423 360.824 265.962 361.501 266.335 362.376C266.719 363.24 266.911 364.248 266.911 365.4C266.911 366.552 266.719 367.565 266.335 368.44C265.962 369.304 265.423 369.981 264.719 370.472C264.026 370.952 263.188 371.192 262.207 371.192ZM262.191 370.008C262.842 370.008 263.418 369.827 263.919 369.464C264.42 369.091 264.815 368.563 265.103 367.88C265.391 367.187 265.535 366.36 265.535 365.4C265.535 364.44 265.391 363.619 265.103 362.936C264.815 362.243 264.42 361.715 263.919 361.352C263.418 360.989 262.842 360.808 262.191 360.808C261.551 360.808 260.975 360.989 260.463 361.352C259.962 361.715 259.562 362.243 259.263 362.936C258.975 363.619 258.831 364.44 258.831 365.4C258.831 366.36 258.975 367.187 259.263 367.88C259.562 368.563 259.962 369.091 260.463 369.464C260.975 369.827 261.551 370.008 262.191 370.008ZM268.524 371V370.056C269.292 369.459 270.017 368.856 270.7 368.248C271.382 367.64 271.99 367.037 272.524 366.44C273.057 365.832 273.473 365.24 273.772 364.664C274.081 364.088 274.236 363.533 274.236 363C274.236 362.605 274.166 362.243 274.028 361.912C273.889 361.571 273.67 361.293 273.372 361.08C273.073 360.867 272.662 360.76 272.14 360.76C271.649 360.76 271.233 360.872 270.892 361.096C270.561 361.309 270.31 361.597 270.14 361.96C269.98 362.312 269.9 362.701 269.9 363.128H268.604C268.614 362.392 268.774 361.763 269.084 361.24C269.393 360.707 269.814 360.301 270.348 360.024C270.881 359.747 271.484 359.608 272.156 359.608C272.828 359.608 273.42 359.736 273.932 359.992C274.444 360.237 274.844 360.605 275.132 361.096C275.43 361.587 275.58 362.205 275.58 362.952C275.58 363.475 275.473 363.997 275.26 364.52C275.046 365.043 274.758 365.555 274.396 366.056C274.033 366.547 273.628 367.021 273.18 367.48C272.742 367.939 272.289 368.371 271.82 368.776C271.361 369.181 270.924 369.549 270.508 369.88H275.964V371H268.524ZM282.725 371V368.6H277.045V367.56L282.485 359.8H284.053V367.416H285.717V368.6H284.053V371H282.725ZM278.533 367.416H282.789V361.288L278.533 367.416Z" fill="#8C8C8C"/>
<rect x="354.605" y="121" width="23" height="226" rx="3" fill="#7171FC"/>
<rect x="382" y="79" width="23" height="267" rx="3" fill="#FFBF49"/>
<path d="M347.2 371V359.8H348.544L354.512 368.776V359.8H355.856V371H354.512L348.544 362.024V371H347.2ZM361.767 371.192C361.02 371.192 360.348 371.021 359.751 370.68C359.154 370.328 358.679 369.837 358.327 369.208C357.986 368.579 357.815 367.837 357.815 366.984C357.815 366.131 357.991 365.389 358.343 364.76C358.695 364.131 359.17 363.645 359.767 363.304C360.375 362.952 361.052 362.776 361.799 362.776C362.556 362.776 363.234 362.952 363.831 363.304C364.428 363.645 364.898 364.131 365.239 364.76C365.58 365.389 365.751 366.131 365.751 366.984C365.751 367.837 365.575 368.579 365.223 369.208C364.882 369.837 364.407 370.328 363.799 370.68C363.202 371.021 362.524 371.192 361.767 371.192ZM361.767 370.04C362.236 370.04 362.668 369.928 363.063 369.704C363.458 369.469 363.772 369.128 364.007 368.68C364.252 368.221 364.375 367.656 364.375 366.984C364.375 366.301 364.258 365.736 364.023 365.288C363.788 364.84 363.474 364.504 363.079 364.28C362.684 364.045 362.258 363.928 361.799 363.928C361.351 363.928 360.924 364.045 360.519 364.28C360.124 364.504 359.804 364.84 359.559 365.288C359.314 365.736 359.191 366.301 359.191 366.984C359.191 367.656 359.314 368.221 359.559 368.68C359.804 369.128 360.119 369.469 360.503 369.704C360.898 369.928 361.319 370.04 361.767 370.04ZM369.549 371L366.509 362.968H367.917L370.333 369.704L372.781 362.968H374.157L371.101 371H369.549ZM379.805 371V370.056C380.573 369.459 381.298 368.856 381.981 368.248C382.664 367.64 383.272 367.037 383.805 366.44C384.338 365.832 384.754 365.24 385.053 364.664C385.362 364.088 385.517 363.533 385.517 363C385.517 362.605 385.448 362.243 385.309 361.912C385.17 361.571 384.952 361.293 384.653 361.08C384.354 360.867 383.944 360.76 383.421 360.76C382.93 360.76 382.514 360.872 382.173 361.096C381.842 361.309 381.592 361.597 381.421 361.96C381.261 362.312 381.181 362.701 381.181 363.128H379.885C379.896 362.392 380.056 361.763 380.365 361.24C380.674 360.707 381.096 360.301 381.629 360.024C382.162 359.747 382.765 359.608 383.437 359.608C384.109 359.608 384.701 359.736 385.213 359.992C385.725 360.237 386.125 360.605 386.413 361.096C386.712 361.587 386.861 362.205 386.861 362.952C386.861 363.475 386.754 363.997 386.541 364.52C386.328 365.043 386.04 365.555 385.677 366.056C385.314 366.547 384.909 367.021 384.461 367.48C384.024 367.939 383.57 368.371 383.101 368.776C382.642 369.181 382.205 369.549 381.789 369.88H387.245V371H379.805ZM393.348 371.192C392.366 371.192 391.518 370.952 390.804 370.472C390.1 369.981 389.556 369.304 389.172 368.44C388.788 367.565 388.596 366.552 388.596 365.4C388.596 364.248 388.788 363.24 389.172 362.376C389.556 361.501 390.1 360.824 390.804 360.344C391.508 359.853 392.356 359.608 393.348 359.608C394.329 359.608 395.166 359.853 395.86 360.344C396.564 360.824 397.102 361.501 397.476 362.376C397.86 363.24 398.052 364.248 398.052 365.4C398.052 366.552 397.86 367.565 397.476 368.44C397.102 369.304 396.564 369.981 395.86 370.472C395.166 370.952 394.329 371.192 393.348 371.192ZM393.332 370.008C393.982 370.008 394.558 369.827 395.06 369.464C395.561 369.091 395.956 368.563 396.244 367.88C396.532 367.187 396.676 366.36 396.676 365.4C396.676 364.44 396.532 363.619 396.244 362.936C395.956 362.243 395.561 361.715 395.06 361.352C394.558 360.989 393.982 360.808 393.332 360.808C392.692 360.808 392.116 360.989 391.604 361.352C391.102 361.715 390.702 362.243 390.404 362.936C390.116 363.619 389.972 364.44 389.972 365.4C389.972 366.36 390.116 367.187 390.404 367.88C390.702 368.563 391.102 369.091 391.604 369.464C392.116 369.827 392.692 370.008 393.332 370.008ZM399.664 371V370.056C400.432 369.459 401.158 368.856 401.84 368.248C402.523 367.64 403.131 367.037 403.664 366.44C404.198 365.832 404.614 365.24 404.912 364.664C405.222 364.088 405.376 363.533 405.376 363C405.376 362.605 405.307 362.243 405.168 361.912C405.03 361.571 404.811 361.293 404.512 361.08C404.214 360.867 403.803 360.76 403.28 360.76C402.79 360.76 402.374 360.872 402.032 361.096C401.702 361.309 401.451 361.597 401.28 361.96C401.12 362.312 401.04 362.701 401.04 363.128H399.744C399.755 362.392 399.915 361.763 400.224 361.24C400.534 360.707 400.955 360.301 401.488 360.024C402.022 359.747 402.624 359.608 403.296 359.608C403.968 359.608 404.56 359.736 405.072 359.992C405.584 360.237 405.984 360.605 406.272 361.096C406.571 361.587 406.72 362.205 406.72 362.952C406.72 363.475 406.614 363.997 406.4 364.52C406.187 365.043 405.899 365.555 405.536 366.056C405.174 366.547 404.768 367.021 404.32 367.48C403.883 367.939 403.43 368.371 402.96 368.776C402.502 369.181 402.064 369.549 401.648 369.88H407.104V371H399.664ZM413.866 371V368.6H408.186V367.56L413.626 359.8H415.194V367.416H416.858V368.6H415.194V371H413.866ZM409.674 367.416H413.93V361.288L409.674 367.416Z" fill="#8C8C8C"/>
</svg>
