<svg width="501" height="390" viewBox="0 0 501 390" fill="none" xmlns="http://www.w3.org/2000/svg">
<rect x="14" y="4" width="16" height="16" rx="2" fill="#7171FC"/>
<path d="M42.212 18.216C41.468 18.216 40.85 18.09 40.358 17.838C39.878 17.586 39.518 17.25 39.278 16.83C39.038 16.398 38.918 15.93 38.918 15.426C38.918 14.814 39.074 14.298 39.386 13.878C39.71 13.458 40.16 13.14 40.736 12.924C41.324 12.696 42.008 12.582 42.788 12.582H45.2C45.2 12.018 45.11 11.55 44.93 11.178C44.762 10.806 44.51 10.524 44.174 10.332C43.838 10.14 43.43 10.044 42.95 10.044C42.374 10.044 41.87 10.194 41.438 10.494C41.018 10.782 40.76 11.202 40.664 11.754H39.116C39.188 11.118 39.404 10.578 39.764 10.134C40.136 9.69 40.604 9.354 41.168 9.126C41.732 8.886 42.326 8.766 42.95 8.766C43.778 8.766 44.468 8.922 45.02 9.234C45.584 9.534 46.004 9.96 46.28 10.512C46.568 11.052 46.712 11.694 46.712 12.438V18H45.362L45.272 16.398C45.152 16.65 44.996 16.89 44.804 17.118C44.624 17.334 44.408 17.526 44.156 17.694C43.916 17.85 43.634 17.976 43.31 18.072C42.986 18.168 42.62 18.216 42.212 18.216ZM42.446 16.938C42.878 16.938 43.262 16.854 43.598 16.686C43.934 16.506 44.222 16.266 44.462 15.966C44.714 15.666 44.9 15.33 45.02 14.958C45.14 14.574 45.2 14.184 45.2 13.788V13.752H42.914C42.338 13.752 41.87 13.824 41.51 13.968C41.15 14.1 40.892 14.286 40.736 14.526C40.58 14.766 40.502 15.042 40.502 15.354C40.502 15.678 40.574 15.96 40.718 16.2C40.874 16.44 41.096 16.626 41.384 16.758C41.672 16.878 42.026 16.938 42.446 16.938ZM53.0474 18.216C52.1714 18.216 51.3974 18.012 50.7254 17.604C50.0654 17.184 49.5494 16.62 49.1774 15.912C48.8174 15.192 48.6374 14.382 48.6374 13.482C48.6374 12.57 48.8174 11.76 49.1774 11.052C49.5494 10.344 50.0714 9.786 50.7434 9.378C51.4154 8.97 52.1894 8.766 53.0654 8.766C53.7974 8.766 54.4454 8.916 55.0094 9.216C55.5734 9.516 56.0054 9.936 56.3054 10.476V5.04H57.8174V18H56.4494L56.3234 16.524C56.1314 16.812 55.8854 17.088 55.5854 17.352C55.2854 17.604 54.9254 17.814 54.5054 17.982C54.0854 18.138 53.5994 18.216 53.0474 18.216ZM53.2094 16.902C53.8094 16.902 54.3374 16.764 54.7934 16.488C55.2614 16.2 55.6214 15.804 55.8734 15.3C56.1254 14.784 56.2514 14.184 56.2514 13.5C56.2514 12.816 56.1254 12.222 55.8734 11.718C55.6214 11.202 55.2614 10.8 54.7934 10.512C54.3374 10.224 53.8094 10.08 53.2094 10.08C52.6334 10.08 52.1114 10.224 51.6434 10.512C51.1874 10.8 50.8274 11.202 50.5634 11.718C50.3114 12.222 50.1854 12.816 50.1854 13.5C50.1854 14.184 50.3114 14.784 50.5634 15.3C50.8274 15.804 51.1874 16.2 51.6434 16.488C52.1114 16.764 52.6334 16.902 53.2094 16.902ZM60.4802 18V8.982H61.9922V18H60.4802ZM61.2362 7.038C60.9362 7.038 60.6842 6.942 60.4802 6.75C60.2882 6.546 60.1922 6.294 60.1922 5.994C60.1922 5.694 60.2882 5.454 60.4802 5.274C60.6842 5.082 60.9362 4.986 61.2362 4.986C61.5242 4.986 61.7702 5.082 61.9742 5.274C62.1782 5.454 62.2802 5.694 62.2802 5.994C62.2802 6.294 62.1782 6.546 61.9742 6.75C61.7702 6.942 61.5242 7.038 61.2362 7.038ZM68.6568 18.216C67.7808 18.216 67.0068 18.012 66.3348 17.604C65.6748 17.184 65.1588 16.62 64.7868 15.912C64.4268 15.192 64.2468 14.382 64.2468 13.482C64.2468 12.57 64.4268 11.76 64.7868 11.052C65.1588 10.344 65.6808 9.786 66.3528 9.378C67.0248 8.97 67.7988 8.766 68.6748 8.766C69.4068 8.766 70.0548 8.916 70.6188 9.216C71.1828 9.516 71.6148 9.936 71.9148 10.476V5.04H73.4268V18H72.0588L71.9328 16.524C71.7408 16.812 71.4948 17.088 71.1948 17.352C70.8948 17.604 70.5348 17.814 70.1148 17.982C69.6948 18.138 69.2088 18.216 68.6568 18.216ZM68.8188 16.902C69.4188 16.902 69.9468 16.764 70.4028 16.488C70.8708 16.2 71.2308 15.804 71.4828 15.3C71.7348 14.784 71.8608 14.184 71.8608 13.5C71.8608 12.816 71.7348 12.222 71.4828 11.718C71.2308 11.202 70.8708 10.8 70.4028 10.512C69.9468 10.224 69.4188 10.08 68.8188 10.08C68.2428 10.08 67.7208 10.224 67.2528 10.512C66.7968 10.8 66.4368 11.202 66.1728 11.718C65.9208 12.222 65.7948 12.816 65.7948 13.5C65.7948 14.184 65.9208 14.784 66.1728 15.3C66.4368 15.804 66.7968 16.2 67.2528 16.488C67.7208 16.764 68.2428 16.902 68.8188 16.902ZM78.8975 18.216C78.1535 18.216 77.5355 18.09 77.0435 17.838C76.5635 17.586 76.2035 17.25 75.9635 16.83C75.7235 16.398 75.6035 15.93 75.6035 15.426C75.6035 14.814 75.7595 14.298 76.0715 13.878C76.3955 13.458 76.8455 13.14 77.4215 12.924C78.0095 12.696 78.6935 12.582 79.4735 12.582H81.8855C81.8855 12.018 81.7955 11.55 81.6155 11.178C81.4475 10.806 81.1955 10.524 80.8595 10.332C80.5235 10.14 80.1155 10.044 79.6355 10.044C79.0595 10.044 78.5555 10.194 78.1235 10.494C77.7035 10.782 77.4455 11.202 77.3495 11.754H75.8015C75.8735 11.118 76.0895 10.578 76.4495 10.134C76.8215 9.69 77.2895 9.354 77.8535 9.126C78.4175 8.886 79.0115 8.766 79.6355 8.766C80.4635 8.766 81.1535 8.922 81.7055 9.234C82.2695 9.534 82.6895 9.96 82.9655 10.512C83.2535 11.052 83.3975 11.694 83.3975 12.438V18H82.0475L81.9575 16.398C81.8375 16.65 81.6815 16.89 81.4895 17.118C81.3095 17.334 81.0935 17.526 80.8415 17.694C80.6015 17.85 80.3195 17.976 79.9955 18.072C79.6715 18.168 79.3055 18.216 78.8975 18.216ZM79.1315 16.938C79.5635 16.938 79.9475 16.854 80.2835 16.686C80.6195 16.506 80.9075 16.266 81.1475 15.966C81.3995 15.666 81.5855 15.33 81.7055 14.958C81.8255 14.574 81.8855 14.184 81.8855 13.788V13.752H79.5995C79.0235 13.752 78.5555 13.824 78.1955 13.968C77.8355 14.1 77.5775 14.286 77.4215 14.526C77.2655 14.766 77.1875 15.042 77.1875 15.354C77.1875 15.678 77.2595 15.96 77.4035 16.2C77.5595 16.44 77.7815 16.626 78.0695 16.758C78.3575 16.878 78.7115 16.938 79.1315 16.938ZM89.121 18.216C88.389 18.216 87.741 18.096 87.177 17.856C86.625 17.604 86.181 17.25 85.845 16.794C85.509 16.338 85.299 15.804 85.215 15.192H86.763C86.835 15.516 86.967 15.81 87.159 16.074C87.351 16.338 87.615 16.548 87.951 16.704C88.287 16.86 88.683 16.938 89.139 16.938C89.571 16.938 89.919 16.878 90.183 16.758C90.459 16.626 90.663 16.458 90.795 16.254C90.939 16.038 91.011 15.804 91.011 15.552C91.011 15.18 90.921 14.898 90.741 14.706C90.573 14.514 90.321 14.364 89.985 14.256C89.649 14.148 89.247 14.052 88.779 13.968C88.395 13.896 88.011 13.8 87.627 13.68C87.255 13.548 86.913 13.392 86.601 13.212C86.301 13.02 86.061 12.78 85.881 12.492C85.701 12.204 85.611 11.85 85.611 11.43C85.611 10.914 85.743 10.458 86.007 10.062C86.283 9.654 86.661 9.336 87.141 9.108C87.633 8.88 88.215 8.766 88.887 8.766C89.847 8.766 90.627 9 91.227 9.468C91.827 9.936 92.181 10.614 92.289 11.502H90.795C90.735 11.046 90.537 10.692 90.201 10.44C89.877 10.176 89.433 10.044 88.869 10.044C88.305 10.044 87.873 10.158 87.573 10.386C87.285 10.614 87.141 10.914 87.141 11.286C87.141 11.526 87.225 11.736 87.393 11.916C87.561 12.096 87.801 12.252 88.113 12.384C88.437 12.504 88.827 12.612 89.283 12.708C89.871 12.816 90.411 12.96 90.903 13.14C91.395 13.32 91.791 13.584 92.091 13.932C92.403 14.28 92.559 14.778 92.559 15.426C92.571 15.978 92.433 16.464 92.145 16.884C91.857 17.304 91.455 17.634 90.939 17.874C90.435 18.102 89.829 18.216 89.121 18.216ZM95.2586 18.09C94.9586 18.09 94.7066 17.994 94.5026 17.802C94.3106 17.598 94.2146 17.352 94.2146 17.064C94.2146 16.776 94.3106 16.536 94.5026 16.344C94.7066 16.14 94.9586 16.038 95.2586 16.038C95.5586 16.038 95.8046 16.14 95.9966 16.344C96.1886 16.536 96.2846 16.776 96.2846 17.064C96.2846 17.352 96.1886 17.598 95.9966 17.802C95.8046 17.994 95.5586 18.09 95.2586 18.09ZM98.7733 18V7.524C98.7733 6.948 98.8693 6.48 99.0613 6.12C99.2533 5.748 99.5353 5.478 99.9073 5.31C100.291 5.13 100.759 5.04 101.311 5.04H102.283V6.336H101.545C101.101 6.336 100.777 6.426 100.573 6.606C100.381 6.786 100.285 7.104 100.285 7.56V18H98.7733ZM97.4053 10.26V8.982H102.535V10.26H97.4053ZM104.334 18V8.982H105.702L105.828 10.71C106.02 10.302 106.272 9.954 106.584 9.666C106.908 9.378 107.292 9.156 107.736 9C108.18 8.844 108.684 8.766 109.248 8.766V10.35H108.762C108.366 10.35 107.988 10.404 107.628 10.512C107.28 10.608 106.968 10.77 106.692 10.998C106.428 11.226 106.218 11.538 106.062 11.934C105.918 12.318 105.846 12.804 105.846 13.392V18H104.334Z" fill="black"/>
<rect x="134" y="4" width="16" height="16" rx="2" fill="#FFBF49"/>
<path d="M159.242 18V5.04H160.754V18H159.242ZM167.264 18.216C166.412 18.216 165.656 18.024 164.996 17.64C164.336 17.244 163.814 16.692 163.43 15.984C163.058 15.264 162.872 14.436 162.872 13.5C162.872 12.54 163.058 11.712 163.43 11.016C163.802 10.308 164.318 9.756 164.978 9.36C165.65 8.964 166.424 8.766 167.3 8.766C168.176 8.766 168.926 8.964 169.55 9.36C170.174 9.756 170.648 10.272 170.972 10.908C171.308 11.544 171.476 12.24 171.476 12.996C171.476 13.116 171.476 13.248 171.476 13.392C171.476 13.524 171.47 13.674 171.458 13.842H164.006V12.672H169.982C169.946 11.844 169.67 11.202 169.154 10.746C168.65 10.278 168.02 10.044 167.264 10.044C166.748 10.044 166.268 10.164 165.824 10.404C165.38 10.632 165.02 10.968 164.744 11.412C164.48 11.856 164.348 12.414 164.348 13.086V13.59C164.348 14.322 164.486 14.94 164.762 15.444C165.038 15.948 165.398 16.326 165.842 16.578C166.286 16.818 166.76 16.938 167.264 16.938C167.888 16.938 168.404 16.8 168.812 16.524C169.232 16.236 169.538 15.846 169.73 15.354H171.224C171.068 15.906 170.81 16.398 170.45 16.83C170.09 17.25 169.64 17.586 169.1 17.838C168.572 18.09 167.96 18.216 167.264 18.216ZM177.602 18.216C176.75 18.216 175.982 18.018 175.298 17.622C174.626 17.226 174.092 16.674 173.696 15.966C173.312 15.258 173.12 14.436 173.12 13.5C173.12 12.552 173.312 11.724 173.696 11.016C174.092 10.308 174.626 9.756 175.298 9.36C175.982 8.964 176.75 8.766 177.602 8.766C178.682 8.766 179.576 9.048 180.284 9.612C181.004 10.164 181.466 10.908 181.67 11.844H180.122C179.99 11.28 179.69 10.842 179.222 10.53C178.754 10.218 178.208 10.062 177.584 10.062C177.08 10.062 176.606 10.194 176.162 10.458C175.718 10.71 175.358 11.094 175.082 11.61C174.806 12.114 174.668 12.744 174.668 13.5C174.668 14.052 174.746 14.544 174.902 14.976C175.07 15.408 175.286 15.774 175.55 16.074C175.826 16.362 176.138 16.578 176.486 16.722C176.846 16.866 177.212 16.938 177.584 16.938C178.004 16.938 178.388 16.872 178.736 16.74C179.084 16.596 179.378 16.392 179.618 16.128C179.87 15.852 180.038 15.528 180.122 15.156H181.67C181.478 16.068 181.016 16.806 180.284 17.37C179.564 17.934 178.67 18.216 177.602 18.216ZM184.771 21.96L186.985 16.992H186.463L182.899 8.982H184.537L187.507 15.876L190.621 8.982H192.187L186.355 21.96H184.771ZM197.043 18.216C196.191 18.216 195.423 18.018 194.739 17.622C194.067 17.226 193.533 16.674 193.137 15.966C192.753 15.258 192.561 14.436 192.561 13.5C192.561 12.552 192.753 11.724 193.137 11.016C193.533 10.308 194.067 9.756 194.739 9.36C195.423 8.964 196.191 8.766 197.043 8.766C198.123 8.766 199.017 9.048 199.725 9.612C200.445 10.164 200.907 10.908 201.111 11.844H199.563C199.431 11.28 199.131 10.842 198.663 10.53C198.195 10.218 197.649 10.062 197.025 10.062C196.521 10.062 196.047 10.194 195.603 10.458C195.159 10.71 194.799 11.094 194.523 11.61C194.247 12.114 194.109 12.744 194.109 13.5C194.109 14.052 194.187 14.544 194.343 14.976C194.511 15.408 194.727 15.774 194.991 16.074C195.267 16.362 195.579 16.578 195.927 16.722C196.287 16.866 196.653 16.938 197.025 16.938C197.445 16.938 197.829 16.872 198.177 16.74C198.525 16.596 198.819 16.392 199.059 16.128C199.311 15.852 199.479 15.528 199.563 15.156H201.111C200.919 16.068 200.457 16.806 199.725 17.37C199.005 17.934 198.111 18.216 197.043 18.216ZM203.222 18V5.04H204.734V18H203.222ZM211.298 18.216C210.458 18.216 209.702 18.024 209.03 17.64C208.358 17.244 207.824 16.692 207.428 15.984C207.044 15.276 206.852 14.448 206.852 13.5C206.852 12.54 207.05 11.706 207.446 10.998C207.842 10.29 208.376 9.744 209.048 9.36C209.732 8.964 210.494 8.766 211.334 8.766C212.186 8.766 212.948 8.964 213.62 9.36C214.292 9.744 214.82 10.29 215.204 10.998C215.588 11.706 215.78 12.54 215.78 13.5C215.78 14.448 215.582 15.276 215.186 15.984C214.802 16.692 214.268 17.244 213.584 17.64C212.912 18.024 212.15 18.216 211.298 18.216ZM211.298 16.92C211.826 16.92 212.312 16.794 212.756 16.542C213.2 16.29 213.554 15.906 213.818 15.39C214.094 14.874 214.232 14.244 214.232 13.5C214.232 12.732 214.1 12.096 213.836 11.592C213.572 11.088 213.218 10.71 212.774 10.458C212.33 10.194 211.85 10.062 211.334 10.062C210.83 10.062 210.35 10.194 209.894 10.458C209.45 10.71 209.09 11.088 208.814 11.592C208.538 12.096 208.4 12.732 208.4 13.5C208.4 14.244 208.538 14.874 208.814 15.39C209.09 15.906 209.444 16.29 209.876 16.542C210.32 16.794 210.794 16.92 211.298 16.92ZM218.44 18.09C218.14 18.09 217.888 17.994 217.684 17.802C217.492 17.598 217.396 17.352 217.396 17.064C217.396 16.776 217.492 16.536 217.684 16.344C217.888 16.14 218.14 16.038 218.44 16.038C218.74 16.038 218.986 16.14 219.178 16.344C219.37 16.536 219.466 16.776 219.466 17.064C219.466 17.352 219.37 17.598 219.178 17.802C218.986 17.994 218.74 18.09 218.44 18.09ZM221.955 18V7.524C221.955 6.948 222.051 6.48 222.243 6.12C222.435 5.748 222.717 5.478 223.089 5.31C223.473 5.13 223.941 5.04 224.493 5.04H225.465V6.336H224.727C224.283 6.336 223.959 6.426 223.755 6.606C223.563 6.786 223.467 7.104 223.467 7.56V18H221.955ZM220.587 10.26V8.982H225.717V10.26H220.587ZM227.515 18V8.982H228.883L229.009 10.71C229.201 10.302 229.453 9.954 229.765 9.666C230.089 9.378 230.473 9.156 230.917 9C231.361 8.844 231.865 8.766 232.429 8.766V10.35H231.943C231.547 10.35 231.169 10.404 230.809 10.512C230.461 10.608 230.149 10.77 229.873 10.998C229.609 11.226 229.399 11.538 229.243 11.934C229.099 12.318 229.027 12.804 229.027 13.392V18H227.515Z" fill="black"/>
<rect x="257" y="4" width="16" height="16" rx="2" fill="#E16741"/>
<path d="M282.404 18V8.982H283.916V18H282.404ZM283.16 7.038C282.86 7.038 282.608 6.942 282.404 6.75C282.212 6.546 282.116 6.294 282.116 5.994C282.116 5.694 282.212 5.454 282.404 5.274C282.608 5.082 282.86 4.986 283.16 4.986C283.448 4.986 283.694 5.082 283.898 5.274C284.102 5.454 284.204 5.694 284.204 5.994C284.204 6.294 284.102 6.546 283.898 6.75C283.694 6.942 283.448 7.038 283.16 7.038ZM286.549 18V8.982H287.917L288.007 10.584C288.295 10.02 288.709 9.576 289.249 9.252C289.789 8.928 290.401 8.766 291.085 8.766C291.781 8.766 292.387 8.91 292.903 9.198C293.419 9.474 293.821 9.9 294.109 10.476C294.397 11.052 294.541 11.778 294.541 12.654V18H293.029V12.816C293.029 11.904 292.831 11.22 292.435 10.764C292.039 10.296 291.475 10.062 290.743 10.062C290.227 10.062 289.765 10.188 289.357 10.44C288.961 10.692 288.643 11.052 288.403 11.52C288.175 11.988 288.061 12.564 288.061 13.248V18H286.549ZM300.431 18C299.891 18 299.423 17.916 299.027 17.748C298.631 17.58 298.325 17.298 298.109 16.902C297.905 16.494 297.803 15.948 297.803 15.264V10.26H296.237V8.982H297.803L298.001 6.822H299.315V8.982H301.943V10.26H299.315V15.264C299.315 15.828 299.429 16.212 299.657 16.416C299.885 16.608 300.287 16.704 300.863 16.704H301.817V18H300.431ZM307.649 18.216C306.797 18.216 306.041 18.024 305.381 17.64C304.721 17.244 304.199 16.692 303.815 15.984C303.443 15.264 303.257 14.436 303.257 13.5C303.257 12.54 303.443 11.712 303.815 11.016C304.187 10.308 304.703 9.756 305.363 9.36C306.035 8.964 306.809 8.766 307.685 8.766C308.561 8.766 309.311 8.964 309.935 9.36C310.559 9.756 311.033 10.272 311.357 10.908C311.693 11.544 311.861 12.24 311.861 12.996C311.861 13.116 311.861 13.248 311.861 13.392C311.861 13.524 311.855 13.674 311.843 13.842H304.391V12.672H310.367C310.331 11.844 310.055 11.202 309.539 10.746C309.035 10.278 308.405 10.044 307.649 10.044C307.133 10.044 306.653 10.164 306.209 10.404C305.765 10.632 305.405 10.968 305.129 11.412C304.865 11.856 304.733 12.414 304.733 13.086V13.59C304.733 14.322 304.871 14.94 305.147 15.444C305.423 15.948 305.783 16.326 306.227 16.578C306.671 16.818 307.145 16.938 307.649 16.938C308.273 16.938 308.789 16.8 309.197 16.524C309.617 16.236 309.923 15.846 310.115 15.354H311.609C311.453 15.906 311.195 16.398 310.835 16.83C310.475 17.25 310.025 17.586 309.485 17.838C308.957 18.09 308.345 18.216 307.649 18.216ZM313.883 18V8.982H315.251L315.377 10.71C315.569 10.302 315.821 9.954 316.133 9.666C316.457 9.378 316.841 9.156 317.285 9C317.729 8.844 318.233 8.766 318.797 8.766V10.35H318.311C317.915 10.35 317.537 10.404 317.177 10.512C316.829 10.608 316.517 10.77 316.241 10.998C315.977 11.226 315.767 11.538 315.611 11.934C315.467 12.318 315.395 12.804 315.395 13.392V18H313.883ZM323.912 18.216C323.18 18.216 322.532 18.096 321.968 17.856C321.416 17.604 320.972 17.25 320.636 16.794C320.3 16.338 320.09 15.804 320.006 15.192H321.554C321.626 15.516 321.758 15.81 321.95 16.074C322.142 16.338 322.406 16.548 322.742 16.704C323.078 16.86 323.474 16.938 323.93 16.938C324.362 16.938 324.71 16.878 324.974 16.758C325.25 16.626 325.454 16.458 325.586 16.254C325.73 16.038 325.802 15.804 325.802 15.552C325.802 15.18 325.712 14.898 325.532 14.706C325.364 14.514 325.112 14.364 324.776 14.256C324.44 14.148 324.038 14.052 323.57 13.968C323.186 13.896 322.802 13.8 322.418 13.68C322.046 13.548 321.704 13.392 321.392 13.212C321.092 13.02 320.852 12.78 320.672 12.492C320.492 12.204 320.402 11.85 320.402 11.43C320.402 10.914 320.534 10.458 320.798 10.062C321.074 9.654 321.452 9.336 321.932 9.108C322.424 8.88 323.006 8.766 323.678 8.766C324.638 8.766 325.418 9 326.018 9.468C326.618 9.936 326.972 10.614 327.08 11.502H325.586C325.526 11.046 325.328 10.692 324.992 10.44C324.668 10.176 324.224 10.044 323.66 10.044C323.096 10.044 322.664 10.158 322.364 10.386C322.076 10.614 321.932 10.914 321.932 11.286C321.932 11.526 322.016 11.736 322.184 11.916C322.352 12.096 322.592 12.252 322.904 12.384C323.228 12.504 323.618 12.612 324.074 12.708C324.662 12.816 325.202 12.96 325.694 13.14C326.186 13.32 326.582 13.584 326.882 13.932C327.194 14.28 327.35 14.778 327.35 15.426C327.362 15.978 327.224 16.464 326.936 16.884C326.648 17.304 326.246 17.634 325.73 17.874C325.226 18.102 324.62 18.216 323.912 18.216ZM329.51 21.96V8.982H330.878L331.022 10.458C331.214 10.17 331.46 9.9 331.76 9.648C332.06 9.384 332.42 9.174 332.84 9.018C333.26 8.85 333.746 8.766 334.298 8.766C335.174 8.766 335.936 8.976 336.584 9.396C337.244 9.804 337.76 10.368 338.132 11.088C338.504 11.796 338.69 12.606 338.69 13.518C338.69 14.418 338.504 15.222 338.132 15.93C337.76 16.638 337.244 17.196 336.584 17.604C335.924 18.012 335.156 18.216 334.28 18.216C333.548 18.216 332.9 18.066 332.336 17.766C331.772 17.466 331.334 17.046 331.022 16.506V21.96H329.51ZM334.118 16.902C334.706 16.902 335.228 16.764 335.684 16.488C336.14 16.2 336.494 15.804 336.746 15.3C337.01 14.784 337.142 14.184 337.142 13.5C337.142 12.816 337.01 12.222 336.746 11.718C336.494 11.202 336.14 10.8 335.684 10.512C335.228 10.224 334.706 10.08 334.118 10.08C333.518 10.08 332.984 10.224 332.516 10.512C332.06 10.8 331.7 11.202 331.436 11.718C331.184 12.222 331.058 12.816 331.058 13.5C331.058 14.184 331.184 14.784 331.436 15.3C331.7 15.804 332.06 16.2 332.516 16.488C332.984 16.764 333.518 16.902 334.118 16.902ZM344.863 18.216C344.023 18.216 343.267 18.024 342.595 17.64C341.923 17.244 341.389 16.692 340.993 15.984C340.609 15.276 340.417 14.448 340.417 13.5C340.417 12.54 340.615 11.706 341.011 10.998C341.407 10.29 341.941 9.744 342.613 9.36C343.297 8.964 344.059 8.766 344.899 8.766C345.751 8.766 346.513 8.964 347.185 9.36C347.857 9.744 348.385 10.29 348.769 10.998C349.153 11.706 349.345 12.54 349.345 13.5C349.345 14.448 349.147 15.276 348.751 15.984C348.367 16.692 347.833 17.244 347.149 17.64C346.477 18.024 345.715 18.216 344.863 18.216ZM344.863 16.92C345.391 16.92 345.877 16.794 346.321 16.542C346.765 16.29 347.119 15.906 347.383 15.39C347.659 14.874 347.797 14.244 347.797 13.5C347.797 12.732 347.665 12.096 347.401 11.592C347.137 11.088 346.783 10.71 346.339 10.458C345.895 10.194 345.415 10.062 344.899 10.062C344.395 10.062 343.915 10.194 343.459 10.458C343.015 10.71 342.655 11.088 342.379 11.592C342.103 12.096 341.965 12.732 341.965 13.5C341.965 14.244 342.103 14.874 342.379 15.39C342.655 15.906 343.009 16.29 343.441 16.542C343.885 16.794 344.359 16.92 344.863 16.92ZM351.465 18V8.982H352.833L352.959 10.71C353.151 10.302 353.403 9.954 353.715 9.666C354.039 9.378 354.423 9.156 354.867 9C355.311 8.844 355.815 8.766 356.379 8.766V10.35H355.893C355.497 10.35 355.119 10.404 354.759 10.512C354.411 10.608 354.099 10.77 353.823 10.998C353.559 11.226 353.349 11.538 353.193 11.934C353.049 12.318 352.977 12.804 352.977 13.392V18H351.465ZM361.638 18C361.098 18 360.63 17.916 360.234 17.748C359.838 17.58 359.532 17.298 359.316 16.902C359.112 16.494 359.01 15.948 359.01 15.264V10.26H357.444V8.982H359.01L359.208 6.822H360.522V8.982H363.15V10.26H360.522V15.264C360.522 15.828 360.636 16.212 360.864 16.416C361.092 16.608 361.494 16.704 362.07 16.704H363.024V18H361.638ZM365.628 18.09C365.328 18.09 365.076 17.994 364.872 17.802C364.68 17.598 364.584 17.352 364.584 17.064C364.584 16.776 364.68 16.536 364.872 16.344C365.076 16.14 365.328 16.038 365.628 16.038C365.928 16.038 366.174 16.14 366.366 16.344C366.558 16.536 366.654 16.776 366.654 17.064C366.654 17.352 366.558 17.598 366.366 17.802C366.174 17.994 365.928 18.09 365.628 18.09ZM369.142 18V7.524C369.142 6.948 369.238 6.48 369.43 6.12C369.622 5.748 369.904 5.478 370.276 5.31C370.66 5.13 371.128 5.04 371.68 5.04H372.652V6.336H371.914C371.47 6.336 371.146 6.426 370.942 6.606C370.75 6.786 370.654 7.104 370.654 7.56V18H369.142ZM367.774 10.26V8.982H372.904V10.26H367.774ZM374.703 18V8.982H376.071L376.197 10.71C376.389 10.302 376.641 9.954 376.953 9.666C377.277 9.378 377.661 9.156 378.105 9C378.549 8.844 379.053 8.766 379.617 8.766V10.35H379.131C378.735 10.35 378.357 10.404 377.997 10.512C377.649 10.608 377.337 10.77 377.061 10.998C376.797 11.226 376.587 11.538 376.431 11.934C376.287 12.318 376.215 12.804 376.215 13.392V18H374.703Z" fill="black"/>
<rect x="405" y="4" width="16" height="16" rx="2" fill="#68BBFA"/>
<path d="M430.404 18V8.982H431.916V18H430.404ZM431.16 7.038C430.86 7.038 430.608 6.942 430.404 6.75C430.212 6.546 430.116 6.294 430.116 5.994C430.116 5.694 430.212 5.454 430.404 5.274C430.608 5.082 430.86 4.986 431.16 4.986C431.448 4.986 431.694 5.082 431.898 5.274C432.102 5.454 432.204 5.694 432.204 5.994C432.204 6.294 432.102 6.546 431.898 6.75C431.694 6.942 431.448 7.038 431.16 7.038ZM434.621 13.356V12.078H441.749V13.356H434.621ZM444.287 18V8.982H445.655L445.781 10.71C445.973 10.302 446.225 9.954 446.537 9.666C446.861 9.378 447.245 9.156 447.689 9C448.133 8.844 448.637 8.766 449.201 8.766V10.35H448.715C448.319 10.35 447.941 10.404 447.581 10.512C447.233 10.608 446.921 10.77 446.645 10.998C446.381 11.226 446.171 11.538 446.015 11.934C445.871 12.318 445.799 12.804 445.799 13.392V18H444.287ZM454.19 18.216C453.494 18.216 452.882 18.078 452.354 17.802C451.838 17.514 451.436 17.082 451.148 16.506C450.872 15.93 450.734 15.204 450.734 14.328V8.982H452.246V14.166C452.246 15.09 452.438 15.78 452.822 16.236C453.218 16.692 453.782 16.92 454.514 16.92C455.03 16.92 455.486 16.8 455.882 16.56C456.29 16.308 456.608 15.948 456.836 15.48C457.076 15 457.196 14.424 457.196 13.752V8.982H458.708V18H457.34L457.25 16.416C456.974 16.98 456.566 17.424 456.026 17.748C455.486 18.06 454.874 18.216 454.19 18.216ZM461.215 18V8.982H462.583L462.673 10.584C462.961 10.02 463.375 9.576 463.915 9.252C464.455 8.928 465.067 8.766 465.751 8.766C466.447 8.766 467.053 8.91 467.569 9.198C468.085 9.474 468.487 9.9 468.775 10.476C469.063 11.052 469.207 11.778 469.207 12.654V18H467.695V12.816C467.695 11.904 467.497 11.22 467.101 10.764C466.705 10.296 466.141 10.062 465.409 10.062C464.893 10.062 464.431 10.188 464.023 10.44C463.627 10.692 463.309 11.052 463.069 11.52C462.841 11.988 462.727 12.564 462.727 13.248V18H461.215ZM472.073 18.09C471.773 18.09 471.521 17.994 471.317 17.802C471.125 17.598 471.029 17.352 471.029 17.064C471.029 16.776 471.125 16.536 471.317 16.344C471.521 16.14 471.773 16.038 472.073 16.038C472.373 16.038 472.619 16.14 472.811 16.344C473.003 16.536 473.099 16.776 473.099 17.064C473.099 17.352 473.003 17.598 472.811 17.802C472.619 17.994 472.373 18.09 472.073 18.09ZM475.588 18V7.524C475.588 6.948 475.684 6.48 475.876 6.12C476.068 5.748 476.35 5.478 476.722 5.31C477.106 5.13 477.574 5.04 478.126 5.04H479.098V6.336H478.36C477.916 6.336 477.592 6.426 477.388 6.606C477.196 6.786 477.1 7.104 477.1 7.56V18H475.588ZM474.22 10.26V8.982H479.35V10.26H474.22ZM481.148 18V8.982H482.516L482.642 10.71C482.834 10.302 483.086 9.954 483.398 9.666C483.722 9.378 484.106 9.156 484.55 9C484.994 8.844 485.498 8.766 486.062 8.766V10.35H485.576C485.18 10.35 484.802 10.404 484.442 10.512C484.094 10.608 483.782 10.77 483.506 10.998C483.242 11.226 483.032 11.538 482.876 11.934C482.732 12.318 482.66 12.804 482.66 13.392V18H481.148Z" fill="black"/>
<rect x="65.8027" y="189.104" width="23" height="157" rx="3" fill="#E16741"/>
<rect x="92.5449" y="197.395" width="23" height="148" rx="3" fill="#68BBFA"/>
<rect x="119.277" y="320.586" width="23" height="25" rx="3" fill="#7171FC"/>
<rect x="146.02" y="331.247" width="23" height="15" rx="3" fill="#FFBF49"/>
<path d="M83.2 371V359.8H84.768L88.736 367.624L92.704 359.8H94.288V371H92.944V362.2L89.248 369.432H88.24L84.544 362.232V371H83.2ZM99.2284 371.192C98.5777 371.192 98.0337 371.08 97.5964 370.856C97.159 370.621 96.8337 370.317 96.6204 369.944C96.407 369.56 96.3004 369.149 96.3004 368.712C96.3004 368.168 96.439 367.709 96.7164 367.336C97.0044 366.952 97.4044 366.664 97.9164 366.472C98.439 366.269 99.047 366.168 99.7404 366.168H101.884C101.884 365.667 101.804 365.251 101.644 364.92C101.495 364.589 101.271 364.339 100.972 364.168C100.674 363.997 100.311 363.912 99.8844 363.912C99.3724 363.912 98.9297 364.04 98.5564 364.296C98.183 364.552 97.9537 364.931 97.8684 365.432H96.4924C96.5564 364.856 96.7484 364.376 97.0684 363.992C97.399 363.597 97.815 363.299 98.3164 363.096C98.8177 362.883 99.3404 362.776 99.8844 362.776C100.631 362.776 101.25 362.915 101.74 363.192C102.231 363.459 102.599 363.837 102.844 364.328C103.1 364.808 103.228 365.373 103.228 366.024V371H102.028L101.948 369.576C101.842 369.8 101.703 370.013 101.532 370.216C101.372 370.408 101.18 370.579 100.956 370.728C100.743 370.867 100.492 370.979 100.204 371.064C99.9164 371.149 99.591 371.192 99.2284 371.192ZM99.4364 370.056C99.8097 370.056 100.146 369.981 100.444 369.832C100.754 369.672 101.015 369.459 101.228 369.192C101.442 368.925 101.602 368.627 101.708 368.296C101.826 367.955 101.884 367.608 101.884 367.256V367.208H99.8524C99.3404 367.208 98.9244 367.272 98.6044 367.4C98.2844 367.517 98.055 367.688 97.9164 367.912C97.7777 368.125 97.7084 368.371 97.7084 368.648C97.7084 368.936 97.7724 369.187 97.9004 369.4C98.039 369.603 98.2364 369.763 98.4924 369.88C98.7484 369.997 99.063 370.056 99.4364 370.056ZM105.937 374.52L107.905 370.104H107.441L104.289 362.968H105.745L108.369 369.096L111.137 362.968H112.529L107.345 374.52H105.937ZM118.102 371V370.056C118.87 369.459 119.595 368.856 120.278 368.248C120.96 367.64 121.568 367.037 122.102 366.44C122.635 365.832 123.051 365.24 123.35 364.664C123.659 364.088 123.814 363.533 123.814 363C123.814 362.605 123.744 362.243 123.606 361.912C123.467 361.571 123.248 361.293 122.95 361.08C122.651 360.867 122.24 360.76 121.718 360.76C121.227 360.76 120.811 360.872 120.47 361.096C120.139 361.309 119.888 361.597 119.718 361.96C119.558 362.312 119.478 362.701 119.478 363.128H118.182C118.192 362.392 118.352 361.763 118.662 361.24C118.971 360.707 119.392 360.301 119.926 360.024C120.459 359.747 121.062 359.608 121.734 359.608C122.406 359.608 122.998 359.736 123.51 359.992C124.022 360.237 124.422 360.605 124.71 361.096C125.008 361.587 125.158 362.205 125.158 362.952C125.158 363.475 125.051 363.997 124.838 364.52C124.624 365.043 124.336 365.555 123.974 366.056C123.611 366.547 123.206 367.021 122.758 367.48C122.32 367.939 121.867 368.371 121.398 368.776C120.939 369.181 120.502 369.549 120.086 369.88H125.542V371H118.102ZM131.645 371.192C130.663 371.192 129.815 370.952 129.101 370.472C128.397 369.981 127.853 369.304 127.469 368.44C127.085 367.565 126.893 366.552 126.893 365.4C126.893 364.248 127.085 363.24 127.469 362.376C127.853 361.501 128.397 360.824 129.101 360.344C129.805 359.853 130.653 359.608 131.645 359.608C132.626 359.608 133.463 359.853 134.157 360.344C134.861 360.824 135.399 361.501 135.773 362.376C136.157 363.24 136.349 364.248 136.349 365.4C136.349 366.552 136.157 367.565 135.773 368.44C135.399 369.304 134.861 369.981 134.157 370.472C133.463 370.952 132.626 371.192 131.645 371.192ZM131.629 370.008C132.279 370.008 132.855 369.827 133.357 369.464C133.858 369.091 134.253 368.563 134.541 367.88C134.829 367.187 134.973 366.36 134.973 365.4C134.973 364.44 134.829 363.619 134.541 362.936C134.253 362.243 133.858 361.715 133.357 361.352C132.855 360.989 132.279 360.808 131.629 360.808C130.989 360.808 130.413 360.989 129.901 361.352C129.399 361.715 128.999 362.243 128.701 362.936C128.413 363.619 128.269 364.44 128.269 365.4C128.269 366.36 128.413 367.187 128.701 367.88C128.999 368.563 129.399 369.091 129.901 369.464C130.413 369.827 130.989 370.008 131.629 370.008ZM137.961 371V370.056C138.729 369.459 139.454 368.856 140.137 368.248C140.82 367.64 141.428 367.037 141.961 366.44C142.494 365.832 142.91 365.24 143.209 364.664C143.518 364.088 143.673 363.533 143.673 363C143.673 362.605 143.604 362.243 143.465 361.912C143.326 361.571 143.108 361.293 142.809 361.08C142.51 360.867 142.1 360.76 141.577 360.76C141.086 360.76 140.67 360.872 140.329 361.096C139.998 361.309 139.748 361.597 139.577 361.96C139.417 362.312 139.337 362.701 139.337 363.128H138.041C138.052 362.392 138.212 361.763 138.521 361.24C138.83 360.707 139.252 360.301 139.785 360.024C140.318 359.747 140.921 359.608 141.593 359.608C142.265 359.608 142.857 359.736 143.369 359.992C143.881 360.237 144.281 360.605 144.569 361.096C144.868 361.587 145.017 362.205 145.017 362.952C145.017 363.475 144.91 363.997 144.697 364.52C144.484 365.043 144.196 365.555 143.833 366.056C143.47 366.547 143.065 367.021 142.617 367.48C142.18 367.939 141.726 368.371 141.257 368.776C140.798 369.181 140.361 369.549 139.945 369.88H145.401V371H137.961ZM152.163 371V368.6H146.483V367.56L151.923 359.8H153.491V367.416H155.155V368.6H153.491V371H152.163ZM147.971 367.416H152.227V361.288L147.971 367.416Z" fill="#8C8C8C"/>
<rect x="196.814" y="167.807" width="23" height="178" rx="3" fill="#E16741"/>
<rect x="223.801" y="154.77" width="23" height="191" rx="3" fill="#68BBFA"/>
<rect x="250.787" y="234.178" width="23" height="112" rx="3" fill="#7171FC"/>
<rect x="277.762" y="326.622" width="23" height="19" rx="3" fill="#FFBF49"/>
<path d="M220.163 371.192C219.341 371.192 218.627 371.043 218.019 370.744C217.411 370.445 216.941 370.029 216.611 369.496C216.28 368.963 216.115 368.344 216.115 367.64H217.523C217.523 368.077 217.624 368.483 217.827 368.856C218.029 369.219 218.323 369.512 218.707 369.736C219.101 369.949 219.587 370.056 220.163 370.056C220.664 370.056 221.091 369.976 221.443 369.816C221.805 369.645 222.077 369.416 222.259 369.128C222.451 368.84 222.547 368.515 222.547 368.152C222.547 367.715 222.451 367.363 222.259 367.096C222.067 366.819 221.811 366.595 221.491 366.424C221.171 366.253 220.803 366.104 220.387 365.976C219.971 365.837 219.528 365.688 219.059 365.528C218.184 365.229 217.539 364.861 217.123 364.424C216.707 363.976 216.499 363.395 216.499 362.68C216.499 362.072 216.637 361.539 216.915 361.08C217.203 360.621 217.608 360.264 218.131 360.008C218.664 359.741 219.293 359.608 220.019 359.608C220.733 359.608 221.352 359.741 221.875 360.008C222.408 360.275 222.824 360.643 223.123 361.112C223.421 361.571 223.571 362.104 223.571 362.712H222.163C222.163 362.403 222.083 362.099 221.923 361.8C221.763 361.501 221.517 361.256 221.187 361.064C220.867 360.861 220.461 360.76 219.971 360.76C219.565 360.749 219.203 360.819 218.883 360.968C218.573 361.107 218.328 361.309 218.147 361.576C217.976 361.843 217.891 362.168 217.891 362.552C217.891 362.915 217.965 363.208 218.115 363.432C218.275 363.656 218.499 363.848 218.787 364.008C219.085 364.157 219.432 364.296 219.827 364.424C220.221 364.552 220.659 364.696 221.139 364.856C221.683 365.037 222.163 365.261 222.579 365.528C223.005 365.784 223.336 366.115 223.571 366.52C223.816 366.925 223.939 367.443 223.939 368.072C223.939 368.605 223.795 369.112 223.507 369.592C223.229 370.061 222.813 370.445 222.259 370.744C221.704 371.043 221.005 371.192 220.163 371.192ZM229.332 371.192C228.585 371.192 227.918 371.016 227.332 370.664C226.745 370.312 226.281 369.821 225.94 369.192C225.609 368.563 225.444 367.827 225.444 366.984C225.444 366.131 225.609 365.395 225.94 364.776C226.27 364.147 226.729 363.656 227.316 363.304C227.913 362.952 228.596 362.776 229.364 362.776C230.153 362.776 230.825 362.952 231.38 363.304C231.934 363.656 232.356 364.115 232.644 364.68C232.942 365.245 233.092 365.869 233.092 366.552C233.092 366.659 233.092 366.771 233.092 366.888C233.092 367.005 233.086 367.139 233.076 367.288H226.452V366.248H231.764C231.732 365.512 231.486 364.941 231.028 364.536C230.58 364.12 230.014 363.912 229.332 363.912C228.884 363.912 228.462 364.019 228.068 364.232C227.673 364.435 227.353 364.733 227.108 365.128C226.873 365.523 226.756 366.019 226.756 366.616V367.064C226.756 367.725 226.878 368.28 227.124 368.728C227.369 369.165 227.684 369.496 228.068 369.72C228.462 369.944 228.884 370.056 229.332 370.056C229.897 370.056 230.361 369.933 230.724 369.688C231.097 369.432 231.369 369.085 231.54 368.648H232.868C232.729 369.139 232.5 369.576 232.18 369.96C231.86 370.333 231.46 370.632 230.98 370.856C230.51 371.08 229.961 371.192 229.332 371.192ZM234.874 374.52V362.968H236.09L236.218 364.28C236.388 364.024 236.607 363.784 236.874 363.56C237.14 363.325 237.46 363.139 237.834 363C238.207 362.851 238.639 362.776 239.13 362.776C239.908 362.776 240.586 362.963 241.162 363.336C241.748 363.699 242.202 364.2 242.522 364.84C242.852 365.469 243.018 366.189 243.018 367C243.018 367.811 242.852 368.531 242.522 369.16C242.202 369.789 241.748 370.285 241.162 370.648C240.575 371.011 239.892 371.192 239.114 371.192C238.463 371.192 237.887 371.059 237.386 370.792C236.884 370.525 236.495 370.152 236.218 369.672V374.52H234.874ZM238.954 370.024C239.487 370.024 239.956 369.901 240.362 369.656C240.767 369.4 241.082 369.043 241.306 368.584C241.54 368.125 241.658 367.592 241.658 366.984C241.658 366.376 241.54 365.843 241.306 365.384C241.082 364.925 240.767 364.573 240.362 364.328C239.956 364.072 239.487 363.944 238.954 363.944C238.42 363.944 237.951 364.072 237.546 364.328C237.14 364.573 236.826 364.925 236.602 365.384C236.378 365.843 236.266 366.376 236.266 366.984C236.266 367.592 236.378 368.125 236.602 368.584C236.826 369.043 237.14 369.4 237.546 369.656C237.951 369.901 238.42 370.024 238.954 370.024ZM249.059 371V370.056C249.827 369.459 250.552 368.856 251.235 368.248C251.917 367.64 252.525 367.037 253.059 366.44C253.592 365.832 254.008 365.24 254.307 364.664C254.616 364.088 254.771 363.533 254.771 363C254.771 362.605 254.701 362.243 254.563 361.912C254.424 361.571 254.205 361.293 253.907 361.08C253.608 360.867 253.197 360.76 252.675 360.76C252.184 360.76 251.768 360.872 251.427 361.096C251.096 361.309 250.845 361.597 250.675 361.96C250.515 362.312 250.435 362.701 250.435 363.128H249.139C249.149 362.392 249.309 361.763 249.619 361.24C249.928 360.707 250.349 360.301 250.883 360.024C251.416 359.747 252.019 359.608 252.691 359.608C253.363 359.608 253.955 359.736 254.467 359.992C254.979 360.237 255.379 360.605 255.667 361.096C255.965 361.587 256.115 362.205 256.115 362.952C256.115 363.475 256.008 363.997 255.795 364.52C255.581 365.043 255.293 365.555 254.931 366.056C254.568 366.547 254.163 367.021 253.715 367.48C253.277 367.939 252.824 368.371 252.355 368.776C251.896 369.181 251.459 369.549 251.043 369.88H256.499V371H249.059ZM262.602 371.192C261.62 371.192 260.772 370.952 260.058 370.472C259.354 369.981 258.81 369.304 258.426 368.44C258.042 367.565 257.85 366.552 257.85 365.4C257.85 364.248 258.042 363.24 258.426 362.376C258.81 361.501 259.354 360.824 260.058 360.344C260.762 359.853 261.61 359.608 262.602 359.608C263.583 359.608 264.42 359.853 265.114 360.344C265.818 360.824 266.356 361.501 266.73 362.376C267.114 363.24 267.306 364.248 267.306 365.4C267.306 366.552 267.114 367.565 266.73 368.44C266.356 369.304 265.818 369.981 265.114 370.472C264.42 370.952 263.583 371.192 262.602 371.192ZM262.586 370.008C263.236 370.008 263.812 369.827 264.314 369.464C264.815 369.091 265.21 368.563 265.498 367.88C265.786 367.187 265.93 366.36 265.93 365.4C265.93 364.44 265.786 363.619 265.498 362.936C265.21 362.243 264.815 361.715 264.314 361.352C263.812 360.989 263.236 360.808 262.586 360.808C261.946 360.808 261.37 360.989 260.858 361.352C260.356 361.715 259.956 362.243 259.658 362.936C259.37 363.619 259.226 364.44 259.226 365.4C259.226 366.36 259.37 367.187 259.658 367.88C259.956 368.563 260.356 369.091 260.858 369.464C261.37 369.827 261.946 370.008 262.586 370.008ZM268.918 371V370.056C269.686 369.459 270.411 368.856 271.094 368.248C271.777 367.64 272.385 367.037 272.918 366.44C273.451 365.832 273.867 365.24 274.166 364.664C274.475 364.088 274.63 363.533 274.63 363C274.63 362.605 274.561 362.243 274.422 361.912C274.283 361.571 274.065 361.293 273.766 361.08C273.467 360.867 273.057 360.76 272.534 360.76C272.043 360.76 271.627 360.872 271.286 361.096C270.955 361.309 270.705 361.597 270.534 361.96C270.374 362.312 270.294 362.701 270.294 363.128H268.998C269.009 362.392 269.169 361.763 269.478 361.24C269.787 360.707 270.209 360.301 270.742 360.024C271.275 359.747 271.878 359.608 272.55 359.608C273.222 359.608 273.814 359.736 274.326 359.992C274.838 360.237 275.238 360.605 275.526 361.096C275.825 361.587 275.974 362.205 275.974 362.952C275.974 363.475 275.867 363.997 275.654 364.52C275.441 365.043 275.153 365.555 274.79 366.056C274.427 366.547 274.022 367.021 273.574 367.48C273.137 367.939 272.683 368.371 272.214 368.776C271.755 369.181 271.318 369.549 270.902 369.88H276.358V371H268.918ZM283.12 371V368.6H277.44V367.56L282.88 359.8H284.448V367.416H286.112V368.6H284.448V371H283.12ZM278.928 367.416H283.184V361.288L278.928 367.416Z" fill="#8C8C8C"/>
<rect x="327.605" y="121" width="23" height="226" rx="3" fill="#E16741"/>
<rect x="355" y="79" width="23" height="267" rx="3" fill="#68BBFA"/>
<g filter="url(#filter0_d_571_4209)">
<rect x="382" y="142" width="23" height="204" rx="3" fill="#7171FC"/>
</g>
<rect x="409" y="276" width="23" height="71" rx="3" fill="#FFBF49"/>
<path d="M345.805 371V359.8H347.149L353.117 368.776V359.8H354.461V371H353.117L347.149 362.024V371H345.805ZM360.372 371.192C359.626 371.192 358.954 371.021 358.356 370.68C357.759 370.328 357.284 369.837 356.932 369.208C356.591 368.579 356.42 367.837 356.42 366.984C356.42 366.131 356.596 365.389 356.948 364.76C357.3 364.131 357.775 363.645 358.372 363.304C358.98 362.952 359.658 362.776 360.404 362.776C361.162 362.776 361.839 362.952 362.436 363.304C363.034 363.645 363.503 364.131 363.844 364.76C364.186 365.389 364.356 366.131 364.356 366.984C364.356 367.837 364.18 368.579 363.828 369.208C363.487 369.837 363.012 370.328 362.404 370.68C361.807 371.021 361.13 371.192 360.372 371.192ZM360.372 370.04C360.842 370.04 361.274 369.928 361.668 369.704C362.063 369.469 362.378 369.128 362.612 368.68C362.858 368.221 362.98 367.656 362.98 366.984C362.98 366.301 362.863 365.736 362.628 365.288C362.394 364.84 362.079 364.504 361.684 364.28C361.29 364.045 360.863 363.928 360.404 363.928C359.956 363.928 359.53 364.045 359.124 364.28C358.73 364.504 358.41 364.84 358.164 365.288C357.919 365.736 357.796 366.301 357.796 366.984C357.796 367.656 357.919 368.221 358.164 368.68C358.41 369.128 358.724 369.469 359.108 369.704C359.503 369.928 359.924 370.04 360.372 370.04ZM368.154 371L365.114 362.968H366.522L368.938 369.704L371.386 362.968H372.762L369.706 371H368.154ZM378.41 371V370.056C379.178 369.459 379.904 368.856 380.586 368.248C381.269 367.64 381.877 367.037 382.41 366.44C382.944 365.832 383.36 365.24 383.658 364.664C383.968 364.088 384.122 363.533 384.122 363C384.122 362.605 384.053 362.243 383.914 361.912C383.776 361.571 383.557 361.293 383.258 361.08C382.96 360.867 382.549 360.76 382.026 360.76C381.536 360.76 381.12 360.872 380.778 361.096C380.448 361.309 380.197 361.597 380.026 361.96C379.866 362.312 379.786 362.701 379.786 363.128H378.49C378.501 362.392 378.661 361.763 378.97 361.24C379.28 360.707 379.701 360.301 380.234 360.024C380.768 359.747 381.37 359.608 382.042 359.608C382.714 359.608 383.306 359.736 383.818 359.992C384.33 360.237 384.73 360.605 385.018 361.096C385.317 361.587 385.466 362.205 385.466 362.952C385.466 363.475 385.36 363.997 385.146 364.52C384.933 365.043 384.645 365.555 384.282 366.056C383.92 366.547 383.514 367.021 383.066 367.48C382.629 367.939 382.176 368.371 381.706 368.776C381.248 369.181 380.81 369.549 380.394 369.88H385.85V371H378.41ZM391.953 371.192C390.972 371.192 390.124 370.952 389.409 370.472C388.705 369.981 388.161 369.304 387.777 368.44C387.393 367.565 387.201 366.552 387.201 365.4C387.201 364.248 387.393 363.24 387.777 362.376C388.161 361.501 388.705 360.824 389.409 360.344C390.113 359.853 390.961 359.608 391.953 359.608C392.935 359.608 393.772 359.853 394.465 360.344C395.169 360.824 395.708 361.501 396.081 362.376C396.465 363.24 396.657 364.248 396.657 365.4C396.657 366.552 396.465 367.565 396.081 368.44C395.708 369.304 395.169 369.981 394.465 370.472C393.772 370.952 392.935 371.192 391.953 371.192ZM391.937 370.008C392.588 370.008 393.164 369.827 393.665 369.464C394.167 369.091 394.561 368.563 394.849 367.88C395.137 367.187 395.281 366.36 395.281 365.4C395.281 364.44 395.137 363.619 394.849 362.936C394.561 362.243 394.167 361.715 393.665 361.352C393.164 360.989 392.588 360.808 391.937 360.808C391.297 360.808 390.721 360.989 390.209 361.352C389.708 361.715 389.308 362.243 389.009 362.936C388.721 363.619 388.577 364.44 388.577 365.4C388.577 366.36 388.721 367.187 389.009 367.88C389.308 368.563 389.708 369.091 390.209 369.464C390.721 369.827 391.297 370.008 391.937 370.008ZM398.27 371V370.056C399.038 369.459 399.763 368.856 400.446 368.248C401.128 367.64 401.736 367.037 402.27 366.44C402.803 365.832 403.219 365.24 403.518 364.664C403.827 364.088 403.982 363.533 403.982 363C403.982 362.605 403.912 362.243 403.774 361.912C403.635 361.571 403.416 361.293 403.118 361.08C402.819 360.867 402.408 360.76 401.886 360.76C401.395 360.76 400.979 360.872 400.638 361.096C400.307 361.309 400.056 361.597 399.886 361.96C399.726 362.312 399.646 362.701 399.646 363.128H398.35C398.36 362.392 398.52 361.763 398.83 361.24C399.139 360.707 399.56 360.301 400.094 360.024C400.627 359.747 401.23 359.608 401.902 359.608C402.574 359.608 403.166 359.736 403.678 359.992C404.19 360.237 404.59 360.605 404.878 361.096C405.176 361.587 405.326 362.205 405.326 362.952C405.326 363.475 405.219 363.997 405.006 364.52C404.792 365.043 404.504 365.555 404.142 366.056C403.779 366.547 403.374 367.021 402.926 367.48C402.488 367.939 402.035 368.371 401.566 368.776C401.107 369.181 400.67 369.549 400.254 369.88H405.71V371H398.27ZM412.471 371V368.6H406.791V367.56L412.231 359.8H413.799V367.416H415.463V368.6H413.799V371H412.471ZM408.279 367.416H412.535V361.288L408.279 367.416Z" fill="#8C8C8C"/>
<defs>
<filter id="filter0_d_571_4209" x="377" y="139" width="33" height="214" filterUnits="userSpaceOnUse" color-interpolation-filters="sRGB">
<feFlood flood-opacity="0" result="BackgroundImageFix"/>
<feColorMatrix in="SourceAlpha" type="matrix" values="0 0 0 0 0 0 0 0 0 0 0 0 0 0 0 0 0 0 127 0" result="hardAlpha"/>
<feOffset dy="2"/>
<feGaussianBlur stdDeviation="2.5"/>
<feComposite in2="hardAlpha" operator="out"/>
<feColorMatrix type="matrix" values="0 0 0 0 0.6 0 0 0 0 0.6 0 0 0 0 1 0 0 0 0.21 0"/>
<feBlend mode="normal" in2="BackgroundImageFix" result="effect1_dropShadow_571_4209"/>
<feBlend mode="normal" in="SourceGraphic" in2="effect1_dropShadow_571_4209" result="shape"/>
</filter>
</defs>
</svg>
