<svg width="581" height="386" viewBox="0 0 581 386" fill="none" xmlns="http://www.w3.org/2000/svg">
<rect x="40" y="4" width="16" height="16" rx="2" fill="#E16741"/>
<path d="M68.464 18V13.212L64.36 5.4H66.07L69.49 12.276H68.986L72.37 5.4H74.062L69.976 13.212V18H68.464ZM78.1694 18.216C77.3294 18.216 76.5734 18.024 75.9014 17.64C75.2294 17.244 74.6954 16.692 74.2994 15.984C73.9154 15.276 73.7234 14.448 73.7234 13.5C73.7234 12.54 73.9214 11.706 74.3174 10.998C74.7134 10.29 75.2474 9.744 75.9194 9.36C76.6034 8.964 77.3654 8.766 78.2054 8.766C79.0574 8.766 79.8194 8.964 80.4914 9.36C81.1634 9.744 81.6914 10.29 82.0754 10.998C82.4594 11.706 82.6514 12.54 82.6514 13.5C82.6514 14.448 82.4534 15.276 82.0574 15.984C81.6734 16.692 81.1394 17.244 80.4554 17.64C79.7834 18.024 79.0214 18.216 78.1694 18.216ZM78.1694 16.92C78.6974 16.92 79.1834 16.794 79.6274 16.542C80.0714 16.29 80.4254 15.906 80.6894 15.39C80.9654 14.874 81.1034 14.244 81.1034 13.5C81.1034 12.732 80.9714 12.096 80.7074 11.592C80.4434 11.088 80.0894 10.71 79.6454 10.458C79.2014 10.194 78.7214 10.062 78.2054 10.062C77.7014 10.062 77.2214 10.194 76.7654 10.458C76.3214 10.71 75.9614 11.088 75.6854 11.592C75.4094 12.096 75.2714 12.732 75.2714 13.5C75.2714 14.244 75.4094 14.874 75.6854 15.39C75.9614 15.906 76.3154 16.29 76.7474 16.542C77.1914 16.794 77.6654 16.92 78.1694 16.92ZM88.0653 18.216C87.3693 18.216 86.7573 18.078 86.2293 17.802C85.7133 17.514 85.3113 17.082 85.0233 16.506C84.7473 15.93 84.6093 15.204 84.6093 14.328V8.982H86.1213V14.166C86.1213 15.09 86.3133 15.78 86.6973 16.236C87.0933 16.692 87.6573 16.92 88.3893 16.92C88.9053 16.92 89.3613 16.8 89.7573 16.56C90.1653 16.308 90.4833 15.948 90.7113 15.48C90.9513 15 91.0713 14.424 91.0713 13.752V8.982H92.5833V18H91.2153L91.1253 16.416C90.8493 16.98 90.4413 17.424 89.9013 17.748C89.3613 18.06 88.7493 18.216 88.0653 18.216ZM95.0897 18V8.982H96.4577L96.5837 10.71C96.7757 10.302 97.0277 9.954 97.3397 9.666C97.6637 9.378 98.0477 9.156 98.4917 9C98.9357 8.844 99.4397 8.766 100.004 8.766V10.35H99.5177C99.1217 10.35 98.7437 10.404 98.3837 10.512C98.0357 10.608 97.7237 10.77 97.4477 10.998C97.1837 11.226 96.9737 11.538 96.8177 11.934C96.6737 12.318 96.6017 12.804 96.6017 13.392V18H95.0897ZM110.584 18.216C109.732 18.216 108.964 18.018 108.28 17.622C107.608 17.226 107.074 16.674 106.678 15.966C106.294 15.258 106.102 14.436 106.102 13.5C106.102 12.552 106.294 11.724 106.678 11.016C107.074 10.308 107.608 9.756 108.28 9.36C108.964 8.964 109.732 8.766 110.584 8.766C111.664 8.766 112.558 9.048 113.266 9.612C113.986 10.164 114.448 10.908 114.652 11.844H113.104C112.972 11.28 112.672 10.842 112.204 10.53C111.736 10.218 111.19 10.062 110.566 10.062C110.062 10.062 109.588 10.194 109.144 10.458C108.7 10.71 108.34 11.094 108.064 11.61C107.788 12.114 107.65 12.744 107.65 13.5C107.65 14.052 107.728 14.544 107.884 14.976C108.052 15.408 108.268 15.774 108.532 16.074C108.808 16.362 109.12 16.578 109.468 16.722C109.828 16.866 110.194 16.938 110.566 16.938C110.986 16.938 111.37 16.872 111.718 16.74C112.066 16.596 112.36 16.392 112.6 16.128C112.852 15.852 113.02 15.528 113.104 15.156H114.652C114.46 16.068 113.998 16.806 113.266 17.37C112.546 17.934 111.652 18.216 110.584 18.216ZM116.763 18V5.04H118.275V18H116.763ZM120.933 18V8.982H122.445V18H120.933ZM121.689 7.038C121.389 7.038 121.137 6.942 120.933 6.75C120.741 6.546 120.645 6.294 120.645 5.994C120.645 5.694 120.741 5.454 120.933 5.274C121.137 5.082 121.389 4.986 121.689 4.986C121.977 4.986 122.223 5.082 122.427 5.274C122.631 5.454 122.733 5.694 122.733 5.994C122.733 6.294 122.631 6.546 122.427 6.75C122.223 6.942 121.977 7.038 121.689 7.038ZM129.182 18.216C128.33 18.216 127.562 18.018 126.878 17.622C126.206 17.226 125.672 16.674 125.276 15.966C124.892 15.258 124.7 14.436 124.7 13.5C124.7 12.552 124.892 11.724 125.276 11.016C125.672 10.308 126.206 9.756 126.878 9.36C127.562 8.964 128.33 8.766 129.182 8.766C130.262 8.766 131.156 9.048 131.864 9.612C132.584 10.164 133.046 10.908 133.25 11.844H131.702C131.57 11.28 131.27 10.842 130.802 10.53C130.334 10.218 129.788 10.062 129.164 10.062C128.66 10.062 128.186 10.194 127.742 10.458C127.298 10.71 126.938 11.094 126.662 11.61C126.386 12.114 126.248 12.744 126.248 13.5C126.248 14.052 126.326 14.544 126.482 14.976C126.65 15.408 126.866 15.774 127.13 16.074C127.406 16.362 127.718 16.578 128.066 16.722C128.426 16.866 128.792 16.938 129.164 16.938C129.584 16.938 129.968 16.872 130.316 16.74C130.664 16.596 130.958 16.392 131.198 16.128C131.45 15.852 131.618 15.528 131.702 15.156H133.25C133.058 16.068 132.596 16.806 131.864 17.37C131.144 17.934 130.25 18.216 129.182 18.216ZM140.959 18L136.621 13.05L140.563 8.982H142.417L137.899 13.59L137.917 12.51L142.885 18H140.959ZM135.361 18V5.04H136.873V18H135.361ZM147.324 18.216C146.592 18.216 145.944 18.096 145.38 17.856C144.828 17.604 144.384 17.25 144.048 16.794C143.712 16.338 143.502 15.804 143.418 15.192H144.966C145.038 15.516 145.17 15.81 145.362 16.074C145.554 16.338 145.818 16.548 146.154 16.704C146.49 16.86 146.886 16.938 147.342 16.938C147.774 16.938 148.122 16.878 148.386 16.758C148.662 16.626 148.866 16.458 148.998 16.254C149.142 16.038 149.214 15.804 149.214 15.552C149.214 15.18 149.124 14.898 148.944 14.706C148.776 14.514 148.524 14.364 148.188 14.256C147.852 14.148 147.45 14.052 146.982 13.968C146.598 13.896 146.214 13.8 145.83 13.68C145.458 13.548 145.116 13.392 144.804 13.212C144.504 13.02 144.264 12.78 144.084 12.492C143.904 12.204 143.814 11.85 143.814 11.43C143.814 10.914 143.946 10.458 144.21 10.062C144.486 9.654 144.864 9.336 145.344 9.108C145.836 8.88 146.418 8.766 147.09 8.766C148.05 8.766 148.83 9 149.43 9.468C150.03 9.936 150.384 10.614 150.492 11.502H148.998C148.938 11.046 148.74 10.692 148.404 10.44C148.08 10.176 147.636 10.044 147.072 10.044C146.508 10.044 146.076 10.158 145.776 10.386C145.488 10.614 145.344 10.914 145.344 11.286C145.344 11.526 145.428 11.736 145.596 11.916C145.764 12.096 146.004 12.252 146.316 12.384C146.64 12.504 147.03 12.612 147.486 12.708C148.074 12.816 148.614 12.96 149.106 13.14C149.598 13.32 149.994 13.584 150.294 13.932C150.606 14.28 150.762 14.778 150.762 15.426C150.774 15.978 150.636 16.464 150.348 16.884C150.06 17.304 149.658 17.634 149.142 17.874C148.638 18.102 148.032 18.216 147.324 18.216Z" fill="black"/>
<rect x="176" y="4" width="16" height="16" rx="2" fill="#68BBFA"/>
<path d="M205.364 18.216C204.44 18.216 203.636 18.048 202.952 17.712C202.268 17.376 201.74 16.908 201.368 16.308C200.996 15.708 200.81 15.012 200.81 14.22H202.394C202.394 14.712 202.508 15.168 202.736 15.588C202.964 15.996 203.294 16.326 203.726 16.578C204.17 16.818 204.716 16.938 205.364 16.938C205.928 16.938 206.408 16.848 206.804 16.668C207.212 16.476 207.518 16.218 207.722 15.894C207.938 15.57 208.046 15.204 208.046 14.796C208.046 14.304 207.938 13.908 207.722 13.608C207.506 13.296 207.218 13.044 206.858 12.852C206.498 12.648 206.078 12.474 205.598 12.33C205.13 12.186 204.638 12.024 204.122 11.844C203.138 11.508 202.412 11.094 201.944 10.602C201.476 10.098 201.242 9.444 201.242 8.64C201.242 7.956 201.398 7.356 201.71 6.84C202.034 6.324 202.49 5.922 203.078 5.634C203.678 5.334 204.386 5.184 205.202 5.184C206.006 5.184 206.702 5.334 207.29 5.634C207.89 5.934 208.358 6.348 208.694 6.876C209.03 7.392 209.198 7.992 209.198 8.676H207.614C207.614 8.328 207.524 7.986 207.344 7.65C207.164 7.314 206.888 7.038 206.516 6.822C206.156 6.594 205.7 6.48 205.148 6.48C204.692 6.468 204.284 6.546 203.924 6.714C203.576 6.87 203.3 7.098 203.096 7.398C202.904 7.698 202.808 8.064 202.808 8.496C202.808 8.904 202.892 9.234 203.06 9.486C203.24 9.738 203.492 9.954 203.816 10.134C204.152 10.302 204.542 10.458 204.986 10.602C205.43 10.746 205.922 10.908 206.462 11.088C207.074 11.292 207.614 11.544 208.082 11.844C208.562 12.132 208.934 12.504 209.198 12.96C209.474 13.416 209.612 13.998 209.612 14.706C209.612 15.306 209.45 15.876 209.126 16.416C208.814 16.944 208.346 17.376 207.722 17.712C207.098 18.048 206.312 18.216 205.364 18.216ZM215.68 18.216C214.828 18.216 214.072 18.024 213.412 17.64C212.752 17.244 212.23 16.692 211.846 15.984C211.474 15.264 211.288 14.436 211.288 13.5C211.288 12.54 211.474 11.712 211.846 11.016C212.218 10.308 212.734 9.756 213.394 9.36C214.066 8.964 214.84 8.766 215.716 8.766C216.592 8.766 217.342 8.964 217.966 9.36C218.59 9.756 219.064 10.272 219.388 10.908C219.724 11.544 219.892 12.24 219.892 12.996C219.892 13.116 219.892 13.248 219.892 13.392C219.892 13.524 219.886 13.674 219.874 13.842H212.422V12.672H218.398C218.362 11.844 218.086 11.202 217.57 10.746C217.066 10.278 216.436 10.044 215.68 10.044C215.164 10.044 214.684 10.164 214.24 10.404C213.796 10.632 213.436 10.968 213.16 11.412C212.896 11.856 212.764 12.414 212.764 13.086V13.59C212.764 14.322 212.902 14.94 213.178 15.444C213.454 15.948 213.814 16.326 214.258 16.578C214.702 16.818 215.176 16.938 215.68 16.938C216.304 16.938 216.82 16.8 217.228 16.524C217.648 16.236 217.954 15.846 218.146 15.354H219.64C219.484 15.906 219.226 16.398 218.866 16.83C218.506 17.25 218.056 17.586 217.516 17.838C216.988 18.09 216.376 18.216 215.68 18.216ZM224.884 18.216C224.14 18.216 223.522 18.09 223.03 17.838C222.55 17.586 222.19 17.25 221.95 16.83C221.71 16.398 221.59 15.93 221.59 15.426C221.59 14.814 221.746 14.298 222.058 13.878C222.382 13.458 222.832 13.14 223.408 12.924C223.996 12.696 224.68 12.582 225.46 12.582H227.872C227.872 12.018 227.782 11.55 227.602 11.178C227.434 10.806 227.182 10.524 226.846 10.332C226.51 10.14 226.102 10.044 225.622 10.044C225.046 10.044 224.542 10.194 224.11 10.494C223.69 10.782 223.432 11.202 223.336 11.754H221.788C221.86 11.118 222.076 10.578 222.436 10.134C222.808 9.69 223.276 9.354 223.84 9.126C224.404 8.886 224.998 8.766 225.622 8.766C226.45 8.766 227.14 8.922 227.692 9.234C228.256 9.534 228.676 9.96 228.952 10.512C229.24 11.052 229.384 11.694 229.384 12.438V18H228.034L227.944 16.398C227.824 16.65 227.668 16.89 227.476 17.118C227.296 17.334 227.08 17.526 226.828 17.694C226.588 17.85 226.306 17.976 225.982 18.072C225.658 18.168 225.292 18.216 224.884 18.216ZM225.118 16.938C225.55 16.938 225.934 16.854 226.27 16.686C226.606 16.506 226.894 16.266 227.134 15.966C227.386 15.666 227.572 15.33 227.692 14.958C227.812 14.574 227.872 14.184 227.872 13.788V13.752H225.586C225.01 13.752 224.542 13.824 224.182 13.968C223.822 14.1 223.564 14.286 223.408 14.526C223.252 14.766 223.174 15.042 223.174 15.354C223.174 15.678 223.246 15.96 223.39 16.2C223.546 16.44 223.768 16.626 224.056 16.758C224.344 16.878 224.698 16.938 225.118 16.938ZM231.687 18V8.982H233.055L233.181 10.71C233.373 10.302 233.625 9.954 233.937 9.666C234.261 9.378 234.645 9.156 235.089 9C235.533 8.844 236.037 8.766 236.601 8.766V10.35H236.115C235.719 10.35 235.341 10.404 234.981 10.512C234.633 10.608 234.321 10.77 234.045 10.998C233.781 11.226 233.571 11.538 233.415 11.934C233.271 12.318 233.199 12.804 233.199 13.392V18H231.687ZM242.067 18.216C241.215 18.216 240.447 18.018 239.763 17.622C239.091 17.226 238.557 16.674 238.161 15.966C237.777 15.258 237.585 14.436 237.585 13.5C237.585 12.552 237.777 11.724 238.161 11.016C238.557 10.308 239.091 9.756 239.763 9.36C240.447 8.964 241.215 8.766 242.067 8.766C243.147 8.766 244.041 9.048 244.749 9.612C245.469 10.164 245.931 10.908 246.135 11.844H244.587C244.455 11.28 244.155 10.842 243.687 10.53C243.219 10.218 242.673 10.062 242.049 10.062C241.545 10.062 241.071 10.194 240.627 10.458C240.183 10.71 239.823 11.094 239.547 11.61C239.271 12.114 239.133 12.744 239.133 13.5C239.133 14.052 239.211 14.544 239.367 14.976C239.535 15.408 239.751 15.774 240.015 16.074C240.291 16.362 240.603 16.578 240.951 16.722C241.311 16.866 241.677 16.938 242.049 16.938C242.469 16.938 242.853 16.872 243.201 16.74C243.549 16.596 243.843 16.392 244.083 16.128C244.335 15.852 244.503 15.528 244.587 15.156H246.135C245.943 16.068 245.481 16.806 244.749 17.37C244.029 17.934 243.135 18.216 242.067 18.216ZM248.246 18V5.04H249.758V10.512C250.058 9.972 250.478 9.546 251.018 9.234C251.57 8.922 252.176 8.766 252.836 8.766C253.52 8.766 254.12 8.91 254.636 9.198C255.152 9.474 255.548 9.9 255.824 10.476C256.112 11.052 256.256 11.784 256.256 12.672V18H254.762V12.834C254.762 11.922 254.57 11.232 254.186 10.764C253.802 10.296 253.244 10.062 252.512 10.062C251.996 10.062 251.528 10.188 251.108 10.44C250.688 10.692 250.358 11.058 250.118 11.538C249.878 12.006 249.758 12.582 249.758 13.266V18H248.246ZM263.525 18V8.982H265.037V18H263.525ZM264.281 7.038C263.981 7.038 263.729 6.942 263.525 6.75C263.333 6.546 263.237 6.294 263.237 5.994C263.237 5.694 263.333 5.454 263.525 5.274C263.729 5.082 263.981 4.986 264.281 4.986C264.569 4.986 264.815 5.082 265.019 5.274C265.223 5.454 265.325 5.694 265.325 5.994C265.325 6.294 265.223 6.546 265.019 6.75C264.815 6.942 264.569 7.038 264.281 7.038ZM267.67 18V8.982H269.038L269.128 10.584C269.416 10.02 269.83 9.576 270.37 9.252C270.91 8.928 271.522 8.766 272.206 8.766C272.902 8.766 273.508 8.91 274.024 9.198C274.54 9.474 274.942 9.9 275.23 10.476C275.518 11.052 275.662 11.778 275.662 12.654V18H274.15V12.816C274.15 11.904 273.952 11.22 273.556 10.764C273.16 10.296 272.596 10.062 271.864 10.062C271.348 10.062 270.886 10.188 270.478 10.44C270.082 10.692 269.764 11.052 269.524 11.52C269.296 11.988 269.182 12.564 269.182 13.248V18H267.67ZM281.552 18C281.012 18 280.544 17.916 280.148 17.748C279.752 17.58 279.446 17.298 279.23 16.902C279.026 16.494 278.924 15.948 278.924 15.264V10.26H277.358V8.982H278.924L279.122 6.822H280.436V8.982H283.064V10.26H280.436V15.264C280.436 15.828 280.55 16.212 280.778 16.416C281.006 16.608 281.408 16.704 281.984 16.704H282.938V18H281.552ZM288.77 18.216C287.918 18.216 287.162 18.024 286.502 17.64C285.842 17.244 285.32 16.692 284.936 15.984C284.564 15.264 284.378 14.436 284.378 13.5C284.378 12.54 284.564 11.712 284.936 11.016C285.308 10.308 285.824 9.756 286.484 9.36C287.156 8.964 287.93 8.766 288.806 8.766C289.682 8.766 290.432 8.964 291.056 9.36C291.68 9.756 292.154 10.272 292.478 10.908C292.814 11.544 292.982 12.24 292.982 12.996C292.982 13.116 292.982 13.248 292.982 13.392C292.982 13.524 292.976 13.674 292.964 13.842H285.512V12.672H291.488C291.452 11.844 291.176 11.202 290.66 10.746C290.156 10.278 289.526 10.044 288.77 10.044C288.254 10.044 287.774 10.164 287.33 10.404C286.886 10.632 286.526 10.968 286.25 11.412C285.986 11.856 285.854 12.414 285.854 13.086V13.59C285.854 14.322 285.992 14.94 286.268 15.444C286.544 15.948 286.904 16.326 287.348 16.578C287.792 16.818 288.266 16.938 288.77 16.938C289.394 16.938 289.91 16.8 290.318 16.524C290.738 16.236 291.044 15.846 291.236 15.354H292.73C292.574 15.906 292.316 16.398 291.956 16.83C291.596 17.25 291.146 17.586 290.606 17.838C290.078 18.09 289.466 18.216 288.77 18.216ZM295.004 18V8.982H296.372L296.498 10.71C296.69 10.302 296.942 9.954 297.254 9.666C297.578 9.378 297.962 9.156 298.406 9C298.85 8.844 299.354 8.766 299.918 8.766V10.35H299.432C299.036 10.35 298.658 10.404 298.298 10.512C297.95 10.608 297.638 10.77 297.362 10.998C297.098 11.226 296.888 11.538 296.732 11.934C296.588 12.318 296.516 12.804 296.516 13.392V18H295.004ZM305.293 18.216C304.441 18.216 303.685 18.024 303.025 17.64C302.365 17.244 301.843 16.692 301.459 15.984C301.087 15.264 300.901 14.436 300.901 13.5C300.901 12.54 301.087 11.712 301.459 11.016C301.831 10.308 302.347 9.756 303.007 9.36C303.679 8.964 304.453 8.766 305.329 8.766C306.205 8.766 306.955 8.964 307.579 9.36C308.203 9.756 308.677 10.272 309.001 10.908C309.337 11.544 309.505 12.24 309.505 12.996C309.505 13.116 309.505 13.248 309.505 13.392C309.505 13.524 309.499 13.674 309.487 13.842H302.035V12.672H308.011C307.975 11.844 307.699 11.202 307.183 10.746C306.679 10.278 306.049 10.044 305.293 10.044C304.777 10.044 304.297 10.164 303.853 10.404C303.409 10.632 303.049 10.968 302.773 11.412C302.509 11.856 302.377 12.414 302.377 13.086V13.59C302.377 14.322 302.515 14.94 302.791 15.444C303.067 15.948 303.427 16.326 303.871 16.578C304.315 16.818 304.789 16.938 305.293 16.938C305.917 16.938 306.433 16.8 306.841 16.524C307.261 16.236 307.567 15.846 307.759 15.354H309.253C309.097 15.906 308.839 16.398 308.479 16.83C308.119 17.25 307.669 17.586 307.129 17.838C306.601 18.09 305.989 18.216 305.293 18.216ZM314.947 18.216C314.215 18.216 313.567 18.096 313.003 17.856C312.451 17.604 312.007 17.25 311.671 16.794C311.335 16.338 311.125 15.804 311.041 15.192H312.589C312.661 15.516 312.793 15.81 312.985 16.074C313.177 16.338 313.441 16.548 313.777 16.704C314.113 16.86 314.509 16.938 314.965 16.938C315.397 16.938 315.745 16.878 316.009 16.758C316.285 16.626 316.489 16.458 316.621 16.254C316.765 16.038 316.837 15.804 316.837 15.552C316.837 15.18 316.747 14.898 316.567 14.706C316.399 14.514 316.147 14.364 315.811 14.256C315.475 14.148 315.073 14.052 314.605 13.968C314.221 13.896 313.837 13.8 313.453 13.68C313.081 13.548 312.739 13.392 312.427 13.212C312.127 13.02 311.887 12.78 311.707 12.492C311.527 12.204 311.437 11.85 311.437 11.43C311.437 10.914 311.569 10.458 311.833 10.062C312.109 9.654 312.487 9.336 312.967 9.108C313.459 8.88 314.041 8.766 314.713 8.766C315.673 8.766 316.453 9 317.053 9.468C317.653 9.936 318.007 10.614 318.115 11.502H316.621C316.561 11.046 316.363 10.692 316.027 10.44C315.703 10.176 315.259 10.044 314.695 10.044C314.131 10.044 313.699 10.158 313.399 10.386C313.111 10.614 312.967 10.914 312.967 11.286C312.967 11.526 313.051 11.736 313.219 11.916C313.387 12.096 313.627 12.252 313.939 12.384C314.263 12.504 314.653 12.612 315.109 12.708C315.697 12.816 316.237 12.96 316.729 13.14C317.221 13.32 317.617 13.584 317.917 13.932C318.229 14.28 318.385 14.778 318.385 15.426C318.397 15.978 318.259 16.464 317.971 16.884C317.683 17.304 317.281 17.634 316.765 17.874C316.261 18.102 315.655 18.216 314.947 18.216ZM323.704 18C323.164 18 322.696 17.916 322.3 17.748C321.904 17.58 321.598 17.298 321.382 16.902C321.178 16.494 321.076 15.948 321.076 15.264V10.26H319.51V8.982H321.076L321.274 6.822H322.588V8.982H325.216V10.26H322.588V15.264C322.588 15.828 322.702 16.212 322.93 16.416C323.158 16.608 323.56 16.704 324.136 16.704H325.09V18H323.704ZM333.375 18V7.092L331.251 7.596V6.534L333.879 5.4H334.905V18H333.375Z" fill="black"/>
<rect x="361" y="4" width="16" height="16" rx="2" fill="#FFBF49"/>
<path d="M390.364 18.216C389.44 18.216 388.636 18.048 387.952 17.712C387.268 17.376 386.74 16.908 386.368 16.308C385.996 15.708 385.81 15.012 385.81 14.22H387.394C387.394 14.712 387.508 15.168 387.736 15.588C387.964 15.996 388.294 16.326 388.726 16.578C389.17 16.818 389.716 16.938 390.364 16.938C390.928 16.938 391.408 16.848 391.804 16.668C392.212 16.476 392.518 16.218 392.722 15.894C392.938 15.57 393.046 15.204 393.046 14.796C393.046 14.304 392.938 13.908 392.722 13.608C392.506 13.296 392.218 13.044 391.858 12.852C391.498 12.648 391.078 12.474 390.598 12.33C390.13 12.186 389.638 12.024 389.122 11.844C388.138 11.508 387.412 11.094 386.944 10.602C386.476 10.098 386.242 9.444 386.242 8.64C386.242 7.956 386.398 7.356 386.71 6.84C387.034 6.324 387.49 5.922 388.078 5.634C388.678 5.334 389.386 5.184 390.202 5.184C391.006 5.184 391.702 5.334 392.29 5.634C392.89 5.934 393.358 6.348 393.694 6.876C394.03 7.392 394.198 7.992 394.198 8.676H392.614C392.614 8.328 392.524 7.986 392.344 7.65C392.164 7.314 391.888 7.038 391.516 6.822C391.156 6.594 390.7 6.48 390.148 6.48C389.692 6.468 389.284 6.546 388.924 6.714C388.576 6.87 388.3 7.098 388.096 7.398C387.904 7.698 387.808 8.064 387.808 8.496C387.808 8.904 387.892 9.234 388.06 9.486C388.24 9.738 388.492 9.954 388.816 10.134C389.152 10.302 389.542 10.458 389.986 10.602C390.43 10.746 390.922 10.908 391.462 11.088C392.074 11.292 392.614 11.544 393.082 11.844C393.562 12.132 393.934 12.504 394.198 12.96C394.474 13.416 394.612 13.998 394.612 14.706C394.612 15.306 394.45 15.876 394.126 16.416C393.814 16.944 393.346 17.376 392.722 17.712C392.098 18.048 391.312 18.216 390.364 18.216ZM400.68 18.216C399.828 18.216 399.072 18.024 398.412 17.64C397.752 17.244 397.23 16.692 396.846 15.984C396.474 15.264 396.288 14.436 396.288 13.5C396.288 12.54 396.474 11.712 396.846 11.016C397.218 10.308 397.734 9.756 398.394 9.36C399.066 8.964 399.84 8.766 400.716 8.766C401.592 8.766 402.342 8.964 402.966 9.36C403.59 9.756 404.064 10.272 404.388 10.908C404.724 11.544 404.892 12.24 404.892 12.996C404.892 13.116 404.892 13.248 404.892 13.392C404.892 13.524 404.886 13.674 404.874 13.842H397.422V12.672H403.398C403.362 11.844 403.086 11.202 402.57 10.746C402.066 10.278 401.436 10.044 400.68 10.044C400.164 10.044 399.684 10.164 399.24 10.404C398.796 10.632 398.436 10.968 398.16 11.412C397.896 11.856 397.764 12.414 397.764 13.086V13.59C397.764 14.322 397.902 14.94 398.178 15.444C398.454 15.948 398.814 16.326 399.258 16.578C399.702 16.818 400.176 16.938 400.68 16.938C401.304 16.938 401.82 16.8 402.228 16.524C402.648 16.236 402.954 15.846 403.146 15.354H404.64C404.484 15.906 404.226 16.398 403.866 16.83C403.506 17.25 403.056 17.586 402.516 17.838C401.988 18.09 401.376 18.216 400.68 18.216ZM409.884 18.216C409.14 18.216 408.522 18.09 408.03 17.838C407.55 17.586 407.19 17.25 406.95 16.83C406.71 16.398 406.59 15.93 406.59 15.426C406.59 14.814 406.746 14.298 407.058 13.878C407.382 13.458 407.832 13.14 408.408 12.924C408.996 12.696 409.68 12.582 410.46 12.582H412.872C412.872 12.018 412.782 11.55 412.602 11.178C412.434 10.806 412.182 10.524 411.846 10.332C411.51 10.14 411.102 10.044 410.622 10.044C410.046 10.044 409.542 10.194 409.11 10.494C408.69 10.782 408.432 11.202 408.336 11.754H406.788C406.86 11.118 407.076 10.578 407.436 10.134C407.808 9.69 408.276 9.354 408.84 9.126C409.404 8.886 409.998 8.766 410.622 8.766C411.45 8.766 412.14 8.922 412.692 9.234C413.256 9.534 413.676 9.96 413.952 10.512C414.24 11.052 414.384 11.694 414.384 12.438V18H413.034L412.944 16.398C412.824 16.65 412.668 16.89 412.476 17.118C412.296 17.334 412.08 17.526 411.828 17.694C411.588 17.85 411.306 17.976 410.982 18.072C410.658 18.168 410.292 18.216 409.884 18.216ZM410.118 16.938C410.55 16.938 410.934 16.854 411.27 16.686C411.606 16.506 411.894 16.266 412.134 15.966C412.386 15.666 412.572 15.33 412.692 14.958C412.812 14.574 412.872 14.184 412.872 13.788V13.752H410.586C410.01 13.752 409.542 13.824 409.182 13.968C408.822 14.1 408.564 14.286 408.408 14.526C408.252 14.766 408.174 15.042 408.174 15.354C408.174 15.678 408.246 15.96 408.39 16.2C408.546 16.44 408.768 16.626 409.056 16.758C409.344 16.878 409.698 16.938 410.118 16.938ZM416.687 18V8.982H418.055L418.181 10.71C418.373 10.302 418.625 9.954 418.937 9.666C419.261 9.378 419.645 9.156 420.089 9C420.533 8.844 421.037 8.766 421.601 8.766V10.35H421.115C420.719 10.35 420.341 10.404 419.981 10.512C419.633 10.608 419.321 10.77 419.045 10.998C418.781 11.226 418.571 11.538 418.415 11.934C418.271 12.318 418.199 12.804 418.199 13.392V18H416.687ZM427.067 18.216C426.215 18.216 425.447 18.018 424.763 17.622C424.091 17.226 423.557 16.674 423.161 15.966C422.777 15.258 422.585 14.436 422.585 13.5C422.585 12.552 422.777 11.724 423.161 11.016C423.557 10.308 424.091 9.756 424.763 9.36C425.447 8.964 426.215 8.766 427.067 8.766C428.147 8.766 429.041 9.048 429.749 9.612C430.469 10.164 430.931 10.908 431.135 11.844H429.587C429.455 11.28 429.155 10.842 428.687 10.53C428.219 10.218 427.673 10.062 427.049 10.062C426.545 10.062 426.071 10.194 425.627 10.458C425.183 10.71 424.823 11.094 424.547 11.61C424.271 12.114 424.133 12.744 424.133 13.5C424.133 14.052 424.211 14.544 424.367 14.976C424.535 15.408 424.751 15.774 425.015 16.074C425.291 16.362 425.603 16.578 425.951 16.722C426.311 16.866 426.677 16.938 427.049 16.938C427.469 16.938 427.853 16.872 428.201 16.74C428.549 16.596 428.843 16.392 429.083 16.128C429.335 15.852 429.503 15.528 429.587 15.156H431.135C430.943 16.068 430.481 16.806 429.749 17.37C429.029 17.934 428.135 18.216 427.067 18.216ZM433.246 18V5.04H434.758V10.512C435.058 9.972 435.478 9.546 436.018 9.234C436.57 8.922 437.176 8.766 437.836 8.766C438.52 8.766 439.12 8.91 439.636 9.198C440.152 9.474 440.548 9.9 440.824 10.476C441.112 11.052 441.256 11.784 441.256 12.672V18H439.762V12.834C439.762 11.922 439.57 11.232 439.186 10.764C438.802 10.296 438.244 10.062 437.512 10.062C436.996 10.062 436.528 10.188 436.108 10.44C435.688 10.692 435.358 11.058 435.118 11.538C434.878 12.006 434.758 12.582 434.758 13.266V18H433.246ZM448.525 18V8.982H450.037V18H448.525ZM449.281 7.038C448.981 7.038 448.729 6.942 448.525 6.75C448.333 6.546 448.237 6.294 448.237 5.994C448.237 5.694 448.333 5.454 448.525 5.274C448.729 5.082 448.981 4.986 449.281 4.986C449.569 4.986 449.815 5.082 450.019 5.274C450.223 5.454 450.325 5.694 450.325 5.994C450.325 6.294 450.223 6.546 450.019 6.75C449.815 6.942 449.569 7.038 449.281 7.038ZM452.67 18V8.982H454.038L454.128 10.584C454.416 10.02 454.83 9.576 455.37 9.252C455.91 8.928 456.522 8.766 457.206 8.766C457.902 8.766 458.508 8.91 459.024 9.198C459.54 9.474 459.942 9.9 460.23 10.476C460.518 11.052 460.662 11.778 460.662 12.654V18H459.15V12.816C459.15 11.904 458.952 11.22 458.556 10.764C458.16 10.296 457.596 10.062 456.864 10.062C456.348 10.062 455.886 10.188 455.478 10.44C455.082 10.692 454.764 11.052 454.524 11.52C454.296 11.988 454.182 12.564 454.182 13.248V18H452.67ZM466.552 18C466.012 18 465.544 17.916 465.148 17.748C464.752 17.58 464.446 17.298 464.23 16.902C464.026 16.494 463.924 15.948 463.924 15.264V10.26H462.358V8.982H463.924L464.122 6.822H465.436V8.982H468.064V10.26H465.436V15.264C465.436 15.828 465.55 16.212 465.778 16.416C466.006 16.608 466.408 16.704 466.984 16.704H467.938V18H466.552ZM473.77 18.216C472.918 18.216 472.162 18.024 471.502 17.64C470.842 17.244 470.32 16.692 469.936 15.984C469.564 15.264 469.378 14.436 469.378 13.5C469.378 12.54 469.564 11.712 469.936 11.016C470.308 10.308 470.824 9.756 471.484 9.36C472.156 8.964 472.93 8.766 473.806 8.766C474.682 8.766 475.432 8.964 476.056 9.36C476.68 9.756 477.154 10.272 477.478 10.908C477.814 11.544 477.982 12.24 477.982 12.996C477.982 13.116 477.982 13.248 477.982 13.392C477.982 13.524 477.976 13.674 477.964 13.842H470.512V12.672H476.488C476.452 11.844 476.176 11.202 475.66 10.746C475.156 10.278 474.526 10.044 473.77 10.044C473.254 10.044 472.774 10.164 472.33 10.404C471.886 10.632 471.526 10.968 471.25 11.412C470.986 11.856 470.854 12.414 470.854 13.086V13.59C470.854 14.322 470.992 14.94 471.268 15.444C471.544 15.948 471.904 16.326 472.348 16.578C472.792 16.818 473.266 16.938 473.77 16.938C474.394 16.938 474.91 16.8 475.318 16.524C475.738 16.236 476.044 15.846 476.236 15.354H477.73C477.574 15.906 477.316 16.398 476.956 16.83C476.596 17.25 476.146 17.586 475.606 17.838C475.078 18.09 474.466 18.216 473.77 18.216ZM480.004 18V8.982H481.372L481.498 10.71C481.69 10.302 481.942 9.954 482.254 9.666C482.578 9.378 482.962 9.156 483.406 9C483.85 8.844 484.354 8.766 484.918 8.766V10.35H484.432C484.036 10.35 483.658 10.404 483.298 10.512C482.95 10.608 482.638 10.77 482.362 10.998C482.098 11.226 481.888 11.538 481.732 11.934C481.588 12.318 481.516 12.804 481.516 13.392V18H480.004ZM490.293 18.216C489.441 18.216 488.685 18.024 488.025 17.64C487.365 17.244 486.843 16.692 486.459 15.984C486.087 15.264 485.901 14.436 485.901 13.5C485.901 12.54 486.087 11.712 486.459 11.016C486.831 10.308 487.347 9.756 488.007 9.36C488.679 8.964 489.453 8.766 490.329 8.766C491.205 8.766 491.955 8.964 492.579 9.36C493.203 9.756 493.677 10.272 494.001 10.908C494.337 11.544 494.505 12.24 494.505 12.996C494.505 13.116 494.505 13.248 494.505 13.392C494.505 13.524 494.499 13.674 494.487 13.842H487.035V12.672H493.011C492.975 11.844 492.699 11.202 492.183 10.746C491.679 10.278 491.049 10.044 490.293 10.044C489.777 10.044 489.297 10.164 488.853 10.404C488.409 10.632 488.049 10.968 487.773 11.412C487.509 11.856 487.377 12.414 487.377 13.086V13.59C487.377 14.322 487.515 14.94 487.791 15.444C488.067 15.948 488.427 16.326 488.871 16.578C489.315 16.818 489.789 16.938 490.293 16.938C490.917 16.938 491.433 16.8 491.841 16.524C492.261 16.236 492.567 15.846 492.759 15.354H494.253C494.097 15.906 493.839 16.398 493.479 16.83C493.119 17.25 492.669 17.586 492.129 17.838C491.601 18.09 490.989 18.216 490.293 18.216ZM499.947 18.216C499.215 18.216 498.567 18.096 498.003 17.856C497.451 17.604 497.007 17.25 496.671 16.794C496.335 16.338 496.125 15.804 496.041 15.192H497.589C497.661 15.516 497.793 15.81 497.985 16.074C498.177 16.338 498.441 16.548 498.777 16.704C499.113 16.86 499.509 16.938 499.965 16.938C500.397 16.938 500.745 16.878 501.009 16.758C501.285 16.626 501.489 16.458 501.621 16.254C501.765 16.038 501.837 15.804 501.837 15.552C501.837 15.18 501.747 14.898 501.567 14.706C501.399 14.514 501.147 14.364 500.811 14.256C500.475 14.148 500.073 14.052 499.605 13.968C499.221 13.896 498.837 13.8 498.453 13.68C498.081 13.548 497.739 13.392 497.427 13.212C497.127 13.02 496.887 12.78 496.707 12.492C496.527 12.204 496.437 11.85 496.437 11.43C496.437 10.914 496.569 10.458 496.833 10.062C497.109 9.654 497.487 9.336 497.967 9.108C498.459 8.88 499.041 8.766 499.713 8.766C500.673 8.766 501.453 9 502.053 9.468C502.653 9.936 503.007 10.614 503.115 11.502H501.621C501.561 11.046 501.363 10.692 501.027 10.44C500.703 10.176 500.259 10.044 499.695 10.044C499.131 10.044 498.699 10.158 498.399 10.386C498.111 10.614 497.967 10.914 497.967 11.286C497.967 11.526 498.051 11.736 498.219 11.916C498.387 12.096 498.627 12.252 498.939 12.384C499.263 12.504 499.653 12.612 500.109 12.708C500.697 12.816 501.237 12.96 501.729 13.14C502.221 13.32 502.617 13.584 502.917 13.932C503.229 14.28 503.385 14.778 503.385 15.426C503.397 15.978 503.259 16.464 502.971 16.884C502.683 17.304 502.281 17.634 501.765 17.874C501.261 18.102 500.655 18.216 499.947 18.216ZM508.704 18C508.164 18 507.696 17.916 507.3 17.748C506.904 17.58 506.598 17.298 506.382 16.902C506.178 16.494 506.076 15.948 506.076 15.264V10.26H504.51V8.982H506.076L506.274 6.822H507.588V8.982H510.216V10.26H507.588V15.264C507.588 15.828 507.702 16.212 507.93 16.416C508.158 16.608 508.56 16.704 509.136 16.704H510.09V18H508.704ZM516.827 18V16.938C517.691 16.266 518.507 15.588 519.275 14.904C520.043 14.22 520.721 13.542 521.309 12.87C521.909 12.186 522.377 11.52 522.713 10.872C523.061 10.224 523.235 9.6 523.235 9C523.235 8.556 523.157 8.148 523.001 7.776C522.845 7.392 522.599 7.08 522.263 6.84C521.927 6.6 521.471 6.48 520.895 6.48C520.331 6.48 519.863 6.606 519.491 6.858C519.119 7.098 518.837 7.422 518.645 7.83C518.465 8.226 518.375 8.664 518.375 9.144H516.917C516.929 8.316 517.103 7.608 517.439 7.02C517.787 6.42 518.261 5.964 518.861 5.652C519.461 5.34 520.145 5.184 520.913 5.184C521.669 5.184 522.335 5.328 522.911 5.616C523.487 5.892 523.937 6.306 524.261 6.858C524.585 7.41 524.747 8.106 524.747 8.946C524.747 9.534 524.627 10.122 524.387 10.71C524.147 11.298 523.823 11.874 523.415 12.438C523.007 12.99 522.551 13.524 522.047 14.04C521.555 14.556 521.051 15.042 520.535 15.498C520.019 15.954 519.527 16.368 519.059 16.74H525.179V18H516.827Z" fill="black"/>
<path d="M1 127.373L28.1406 132.846L71.7301 125.184L161.376 167.327L203.321 162.948L251.023 166.232L334.912 173.347L423.736 162.948L466.503 153.097L555.327 146.529L580 133.941V285H1V127.373Z" fill="url(#paint0_linear_586_6361)"/>
<path d="M1 127.373L28.1406 132.846L71.7301 125.184L161.376 167.327L203.321 162.948L251.023 166.232L334.912 173.347L423.736 162.948L466.503 153.097L555.327 146.529L580 133.941" stroke="#68BBFA"/>
<path d="M1 266.821L28.9631 285.394L115.32 237.413L161.376 260.629L249.378 252.117L290.5 270.69L378.501 276.107L468.148 225.804L558.616 203.361L580 190.979V386H1V266.821Z" fill="url(#paint1_linear_586_6361)"/>
<path d="M1 266.821L28.9631 285.394L115.32 237.413L161.376 260.629L249.378 252.117L290.5 270.69L378.501 276.107L468.148 225.804L558.616 203.361L580 190.979" stroke="#FFBF49"/>
<path d="M1 53.3485L33.8977 63.1587L115.32 82.2021H163.021L206.611 87.3957L251.023 67.7753L380.146 87.9728L466.503 79.3167L511.737 56.2338L580 37.1904V193H1V53.3485Z" fill="url(#paint2_linear_586_6361)"/>
<path d="M1 53.3485L33.8977 63.1587L115.32 82.2021H163.021L206.611 87.3957L251.023 67.7753L380.146 87.9728L466.503 79.3167L511.737 56.2338L580 37.1904" stroke="#E16741"/>
<defs>
<linearGradient id="paint0_linear_586_6361" x1="290.5" y1="125.184" x2="290.5" y2="285" gradientUnits="userSpaceOnUse">
<stop stop-color="#68BBFA" stop-opacity="0.5"/>
<stop offset="1" stop-color="#68BBFA" stop-opacity="0"/>
</linearGradient>
<linearGradient id="paint1_linear_586_6361" x1="290.5" y1="190.979" x2="290.5" y2="386" gradientUnits="userSpaceOnUse">
<stop stop-color="#FFBF49" stop-opacity="0.5"/>
<stop offset="1" stop-color="#FFBF49" stop-opacity="0"/>
</linearGradient>
<linearGradient id="paint2_linear_586_6361" x1="290.5" y1="193" x2="290.5" y2="37.1904" gradientUnits="userSpaceOnUse">
<stop stop-color="#E16741" stop-opacity="0"/>
<stop offset="1" stop-color="#E16741" stop-opacity="0.5"/>
</linearGradient>
</defs>
</svg>
