<svg width="501" height="369" viewBox="0 0 501 369" fill="none" xmlns="http://www.w3.org/2000/svg">
<rect y="4" width="16" height="16" rx="2" fill="#E16741"/>
<path d="M24.54 18L29.184 5.4H30.786L35.412 18H33.81L29.976 7.29L26.124 18H24.54ZM26.664 14.76L27.096 13.536H32.802L33.234 14.76H26.664ZM40.7349 18.216C39.8589 18.216 39.0849 18.012 38.4129 17.604C37.7529 17.184 37.2369 16.62 36.8649 15.912C36.5049 15.192 36.3249 14.382 36.3249 13.482C36.3249 12.57 36.5049 11.76 36.8649 11.052C37.2369 10.344 37.7589 9.786 38.4309 9.378C39.1029 8.97 39.8769 8.766 40.7529 8.766C41.4849 8.766 42.1329 8.916 42.6969 9.216C43.2609 9.516 43.6929 9.936 43.9929 10.476V5.04H45.5049V18H44.1369L44.0109 16.524C43.8189 16.812 43.5729 17.088 43.2729 17.352C42.9729 17.604 42.6129 17.814 42.1929 17.982C41.7729 18.138 41.2869 18.216 40.7349 18.216ZM40.8969 16.902C41.4969 16.902 42.0249 16.764 42.4809 16.488C42.9489 16.2 43.3089 15.804 43.5609 15.3C43.8129 14.784 43.9389 14.184 43.9389 13.5C43.9389 12.816 43.8129 12.222 43.5609 11.718C43.3089 11.202 42.9489 10.8 42.4809 10.512C42.0249 10.224 41.4969 10.08 40.8969 10.08C40.3209 10.08 39.7989 10.224 39.3309 10.512C38.8749 10.8 38.5149 11.202 38.2509 11.718C37.9989 12.222 37.8729 12.816 37.8729 13.5C37.8729 14.184 37.9989 14.784 38.2509 15.3C38.5149 15.804 38.8749 16.2 39.3309 16.488C39.7989 16.764 40.3209 16.902 40.8969 16.902ZM48.1677 18V8.982H49.6797V18H48.1677ZM48.9237 7.038C48.6237 7.038 48.3717 6.942 48.1677 6.75C47.9757 6.546 47.8797 6.294 47.8797 5.994C47.8797 5.694 47.9757 5.454 48.1677 5.274C48.3717 5.082 48.6237 4.986 48.9237 4.986C49.2117 4.986 49.4577 5.082 49.6617 5.274C49.8657 5.454 49.9677 5.694 49.9677 5.994C49.9677 6.294 49.8657 6.546 49.6617 6.75C49.4577 6.942 49.2117 7.038 48.9237 7.038ZM56.3443 18.216C55.4683 18.216 54.6943 18.012 54.0223 17.604C53.3623 17.184 52.8463 16.62 52.4743 15.912C52.1143 15.192 51.9343 14.382 51.9343 13.482C51.9343 12.57 52.1143 11.76 52.4743 11.052C52.8463 10.344 53.3683 9.786 54.0403 9.378C54.7123 8.97 55.4863 8.766 56.3623 8.766C57.0943 8.766 57.7423 8.916 58.3063 9.216C58.8703 9.516 59.3023 9.936 59.6023 10.476V5.04H61.1143V18H59.7463L59.6203 16.524C59.4283 16.812 59.1823 17.088 58.8823 17.352C58.5823 17.604 58.2223 17.814 57.8023 17.982C57.3823 18.138 56.8963 18.216 56.3443 18.216ZM56.5063 16.902C57.1063 16.902 57.6343 16.764 58.0903 16.488C58.5583 16.2 58.9183 15.804 59.1703 15.3C59.4223 14.784 59.5483 14.184 59.5483 13.5C59.5483 12.816 59.4223 12.222 59.1703 11.718C58.9183 11.202 58.5583 10.8 58.0903 10.512C57.6343 10.224 57.1063 10.08 56.5063 10.08C55.9303 10.08 55.4083 10.224 54.9403 10.512C54.4843 10.8 54.1243 11.202 53.8603 11.718C53.6083 12.222 53.4823 12.816 53.4823 13.5C53.4823 14.184 53.6083 14.784 53.8603 15.3C54.1243 15.804 54.4843 16.2 54.9403 16.488C55.4083 16.764 55.9303 16.902 56.5063 16.902ZM66.585 18.216C65.841 18.216 65.223 18.09 64.731 17.838C64.251 17.586 63.891 17.25 63.651 16.83C63.411 16.398 63.291 15.93 63.291 15.426C63.291 14.814 63.447 14.298 63.759 13.878C64.083 13.458 64.533 13.14 65.109 12.924C65.697 12.696 66.381 12.582 67.161 12.582H69.573C69.573 12.018 69.483 11.55 69.303 11.178C69.135 10.806 68.883 10.524 68.547 10.332C68.211 10.14 67.803 10.044 67.323 10.044C66.747 10.044 66.243 10.194 65.811 10.494C65.391 10.782 65.133 11.202 65.037 11.754H63.489C63.561 11.118 63.777 10.578 64.137 10.134C64.509 9.69 64.977 9.354 65.541 9.126C66.105 8.886 66.699 8.766 67.323 8.766C68.151 8.766 68.841 8.922 69.393 9.234C69.957 9.534 70.377 9.96 70.653 10.512C70.941 11.052 71.085 11.694 71.085 12.438V18H69.735L69.645 16.398C69.525 16.65 69.369 16.89 69.177 17.118C68.997 17.334 68.781 17.526 68.529 17.694C68.289 17.85 68.007 17.976 67.683 18.072C67.359 18.168 66.993 18.216 66.585 18.216ZM66.819 16.938C67.251 16.938 67.635 16.854 67.971 16.686C68.307 16.506 68.595 16.266 68.835 15.966C69.087 15.666 69.273 15.33 69.393 14.958C69.513 14.574 69.573 14.184 69.573 13.788V13.752H67.287C66.711 13.752 66.243 13.824 65.883 13.968C65.523 14.1 65.265 14.286 65.109 14.526C64.953 14.766 64.875 15.042 64.875 15.354C64.875 15.678 64.947 15.96 65.091 16.2C65.247 16.44 65.469 16.626 65.757 16.758C66.045 16.878 66.399 16.938 66.819 16.938ZM76.8085 18.216C76.0765 18.216 75.4285 18.096 74.8645 17.856C74.3125 17.604 73.8685 17.25 73.5325 16.794C73.1965 16.338 72.9865 15.804 72.9025 15.192H74.4505C74.5225 15.516 74.6545 15.81 74.8465 16.074C75.0385 16.338 75.3025 16.548 75.6385 16.704C75.9745 16.86 76.3705 16.938 76.8265 16.938C77.2585 16.938 77.6065 16.878 77.8705 16.758C78.1465 16.626 78.3505 16.458 78.4825 16.254C78.6265 16.038 78.6985 15.804 78.6985 15.552C78.6985 15.18 78.6085 14.898 78.4285 14.706C78.2605 14.514 78.0085 14.364 77.6725 14.256C77.3365 14.148 76.9345 14.052 76.4665 13.968C76.0825 13.896 75.6985 13.8 75.3145 13.68C74.9425 13.548 74.6005 13.392 74.2885 13.212C73.9885 13.02 73.7485 12.78 73.5685 12.492C73.3885 12.204 73.2985 11.85 73.2985 11.43C73.2985 10.914 73.4305 10.458 73.6945 10.062C73.9705 9.654 74.3485 9.336 74.8285 9.108C75.3205 8.88 75.9025 8.766 76.5745 8.766C77.5345 8.766 78.3145 9 78.9145 9.468C79.5145 9.936 79.8685 10.614 79.9765 11.502H78.4825C78.4225 11.046 78.2245 10.692 77.8885 10.44C77.5645 10.176 77.1205 10.044 76.5565 10.044C75.9925 10.044 75.5605 10.158 75.2605 10.386C74.9725 10.614 74.8285 10.914 74.8285 11.286C74.8285 11.526 74.9125 11.736 75.0805 11.916C75.2485 12.096 75.4885 12.252 75.8005 12.384C76.1245 12.504 76.5145 12.612 76.9705 12.708C77.5585 12.816 78.0985 12.96 78.5905 13.14C79.0825 13.32 79.4785 13.584 79.7785 13.932C80.0905 14.28 80.2465 14.778 80.2465 15.426C80.2585 15.978 80.1205 16.464 79.8325 16.884C79.5445 17.304 79.1425 17.634 78.6265 17.874C78.1225 18.102 77.5165 18.216 76.8085 18.216Z" fill="black"/>
<rect x="106" y="4" width="16" height="16" rx="2" fill="#68BBFA"/>
<path d="M130.54 18L135.184 5.4H136.786L141.412 18H139.81L135.976 7.29L132.124 18H130.54ZM132.664 14.76L133.096 13.536H138.802L139.234 14.76H132.664ZM146.615 18.216C145.883 18.216 145.235 18.096 144.671 17.856C144.119 17.604 143.675 17.25 143.339 16.794C143.003 16.338 142.793 15.804 142.709 15.192H144.257C144.329 15.516 144.461 15.81 144.653 16.074C144.845 16.338 145.109 16.548 145.445 16.704C145.781 16.86 146.177 16.938 146.633 16.938C147.065 16.938 147.413 16.878 147.677 16.758C147.953 16.626 148.157 16.458 148.289 16.254C148.433 16.038 148.505 15.804 148.505 15.552C148.505 15.18 148.415 14.898 148.235 14.706C148.067 14.514 147.815 14.364 147.479 14.256C147.143 14.148 146.741 14.052 146.273 13.968C145.889 13.896 145.505 13.8 145.121 13.68C144.749 13.548 144.407 13.392 144.095 13.212C143.795 13.02 143.555 12.78 143.375 12.492C143.195 12.204 143.105 11.85 143.105 11.43C143.105 10.914 143.237 10.458 143.501 10.062C143.777 9.654 144.155 9.336 144.635 9.108C145.127 8.88 145.709 8.766 146.381 8.766C147.341 8.766 148.121 9 148.721 9.468C149.321 9.936 149.675 10.614 149.783 11.502H148.289C148.229 11.046 148.031 10.692 147.695 10.44C147.371 10.176 146.927 10.044 146.363 10.044C145.799 10.044 145.367 10.158 145.067 10.386C144.779 10.614 144.635 10.914 144.635 11.286C144.635 11.526 144.719 11.736 144.887 11.916C145.055 12.096 145.295 12.252 145.607 12.384C145.931 12.504 146.321 12.612 146.777 12.708C147.365 12.816 147.905 12.96 148.397 13.14C148.889 13.32 149.285 13.584 149.585 13.932C149.897 14.28 150.053 14.778 150.053 15.426C150.065 15.978 149.927 16.464 149.639 16.884C149.351 17.304 148.949 17.634 148.433 17.874C147.929 18.102 147.323 18.216 146.615 18.216ZM152.375 18V8.982H153.887V18H152.375ZM153.131 7.038C152.831 7.038 152.579 6.942 152.375 6.75C152.183 6.546 152.087 6.294 152.087 5.994C152.087 5.694 152.183 5.454 152.375 5.274C152.579 5.082 152.831 4.986 153.131 4.986C153.419 4.986 153.665 5.082 153.869 5.274C154.073 5.454 154.175 5.694 154.175 5.994C154.175 6.294 154.073 6.546 153.869 6.75C153.665 6.942 153.419 7.038 153.131 7.038ZM160.623 18.216C159.771 18.216 159.003 18.018 158.319 17.622C157.647 17.226 157.113 16.674 156.717 15.966C156.333 15.258 156.141 14.436 156.141 13.5C156.141 12.552 156.333 11.724 156.717 11.016C157.113 10.308 157.647 9.756 158.319 9.36C159.003 8.964 159.771 8.766 160.623 8.766C161.703 8.766 162.597 9.048 163.305 9.612C164.025 10.164 164.487 10.908 164.691 11.844H163.143C163.011 11.28 162.711 10.842 162.243 10.53C161.775 10.218 161.229 10.062 160.605 10.062C160.101 10.062 159.627 10.194 159.183 10.458C158.739 10.71 158.379 11.094 158.103 11.61C157.827 12.114 157.689 12.744 157.689 13.5C157.689 14.052 157.767 14.544 157.923 14.976C158.091 15.408 158.307 15.774 158.571 16.074C158.847 16.362 159.159 16.578 159.507 16.722C159.867 16.866 160.233 16.938 160.605 16.938C161.025 16.938 161.409 16.872 161.757 16.74C162.105 16.596 162.399 16.392 162.639 16.128C162.891 15.852 163.059 15.528 163.143 15.156H164.691C164.499 16.068 164.037 16.806 163.305 17.37C162.585 17.934 161.691 18.216 160.623 18.216ZM170.223 18.216C169.491 18.216 168.843 18.096 168.279 17.856C167.727 17.604 167.283 17.25 166.947 16.794C166.611 16.338 166.401 15.804 166.317 15.192H167.865C167.937 15.516 168.069 15.81 168.261 16.074C168.453 16.338 168.717 16.548 169.053 16.704C169.389 16.86 169.785 16.938 170.241 16.938C170.673 16.938 171.021 16.878 171.285 16.758C171.561 16.626 171.765 16.458 171.897 16.254C172.041 16.038 172.113 15.804 172.113 15.552C172.113 15.18 172.023 14.898 171.843 14.706C171.675 14.514 171.423 14.364 171.087 14.256C170.751 14.148 170.349 14.052 169.881 13.968C169.497 13.896 169.113 13.8 168.729 13.68C168.357 13.548 168.015 13.392 167.703 13.212C167.403 13.02 167.163 12.78 166.983 12.492C166.803 12.204 166.713 11.85 166.713 11.43C166.713 10.914 166.845 10.458 167.109 10.062C167.385 9.654 167.763 9.336 168.243 9.108C168.735 8.88 169.317 8.766 169.989 8.766C170.949 8.766 171.729 9 172.329 9.468C172.929 9.936 173.283 10.614 173.391 11.502H171.897C171.837 11.046 171.639 10.692 171.303 10.44C170.979 10.176 170.535 10.044 169.971 10.044C169.407 10.044 168.975 10.158 168.675 10.386C168.387 10.614 168.243 10.914 168.243 11.286C168.243 11.526 168.327 11.736 168.495 11.916C168.663 12.096 168.903 12.252 169.215 12.384C169.539 12.504 169.929 12.612 170.385 12.708C170.973 12.816 171.513 12.96 172.005 13.14C172.497 13.32 172.893 13.584 173.193 13.932C173.505 14.28 173.661 14.778 173.661 15.426C173.673 15.978 173.535 16.464 173.247 16.884C172.959 17.304 172.557 17.634 172.041 17.874C171.537 18.102 170.931 18.216 170.223 18.216Z" fill="black"/>
<rect x="199" y="4" width="16" height="16" rx="2" fill="#FFBF49"/>
<path d="M224.332 18V5.4H225.844L232.558 15.498V5.4H234.07V18H232.558L225.844 7.902V18H224.332ZM240.684 18.216C239.832 18.216 239.076 18.024 238.416 17.64C237.756 17.244 237.234 16.692 236.85 15.984C236.478 15.264 236.292 14.436 236.292 13.5C236.292 12.54 236.478 11.712 236.85 11.016C237.222 10.308 237.738 9.756 238.398 9.36C239.07 8.964 239.844 8.766 240.72 8.766C241.596 8.766 242.346 8.964 242.97 9.36C243.594 9.756 244.068 10.272 244.392 10.908C244.728 11.544 244.896 12.24 244.896 12.996C244.896 13.116 244.896 13.248 244.896 13.392C244.896 13.524 244.89 13.674 244.878 13.842H237.426V12.672H243.402C243.366 11.844 243.09 11.202 242.574 10.746C242.07 10.278 241.44 10.044 240.684 10.044C240.168 10.044 239.688 10.164 239.244 10.404C238.8 10.632 238.44 10.968 238.164 11.412C237.9 11.856 237.768 12.414 237.768 13.086V13.59C237.768 14.322 237.906 14.94 238.182 15.444C238.458 15.948 238.818 16.326 239.262 16.578C239.706 16.818 240.18 16.938 240.684 16.938C241.308 16.938 241.824 16.8 242.232 16.524C242.652 16.236 242.958 15.846 243.15 15.354H244.644C244.488 15.906 244.23 16.398 243.87 16.83C243.51 17.25 243.06 17.586 242.52 17.838C241.992 18.09 241.38 18.216 240.684 18.216ZM248.402 18L245.756 8.982H247.268L249.338 16.65L249.014 16.632L251.3 8.982H253.01L255.296 16.632L254.954 16.65L257.024 8.982H258.554L255.908 18H254.36L251.984 9.99H252.326L249.95 18H248.402ZM265.096 18V5.4H269.524C270.412 5.4 271.144 5.544 271.72 5.832C272.308 6.108 272.746 6.492 273.034 6.984C273.322 7.464 273.466 8.004 273.466 8.604C273.466 9.252 273.322 9.792 273.034 10.224C272.758 10.656 272.392 10.986 271.936 11.214C271.492 11.442 271.018 11.58 270.514 11.628L270.766 11.448C271.306 11.46 271.804 11.604 272.26 11.88C272.716 12.156 273.076 12.528 273.34 12.996C273.616 13.464 273.754 13.986 273.754 14.562C273.754 15.198 273.598 15.78 273.286 16.308C272.974 16.824 272.512 17.238 271.9 17.55C271.3 17.85 270.556 18 269.668 18H265.096ZM266.608 16.74H269.506C270.358 16.74 271.018 16.542 271.486 16.146C271.966 15.738 272.206 15.174 272.206 14.454C272.206 13.746 271.96 13.182 271.468 12.762C270.988 12.33 270.322 12.114 269.47 12.114H266.608V16.74ZM266.608 10.908H269.416C270.232 10.908 270.85 10.716 271.27 10.332C271.702 9.948 271.918 9.426 271.918 8.766C271.918 8.13 271.702 7.62 271.27 7.236C270.85 6.852 270.214 6.66 269.362 6.66H266.608V10.908ZM278.821 18.216C278.077 18.216 277.459 18.09 276.967 17.838C276.487 17.586 276.127 17.25 275.887 16.83C275.647 16.398 275.527 15.93 275.527 15.426C275.527 14.814 275.683 14.298 275.995 13.878C276.319 13.458 276.769 13.14 277.345 12.924C277.933 12.696 278.617 12.582 279.397 12.582H281.809C281.809 12.018 281.719 11.55 281.539 11.178C281.371 10.806 281.119 10.524 280.783 10.332C280.447 10.14 280.039 10.044 279.559 10.044C278.983 10.044 278.479 10.194 278.047 10.494C277.627 10.782 277.369 11.202 277.273 11.754H275.725C275.797 11.118 276.013 10.578 276.373 10.134C276.745 9.69 277.213 9.354 277.777 9.126C278.341 8.886 278.935 8.766 279.559 8.766C280.387 8.766 281.077 8.922 281.629 9.234C282.193 9.534 282.613 9.96 282.889 10.512C283.177 11.052 283.321 11.694 283.321 12.438V18H281.971L281.881 16.398C281.761 16.65 281.605 16.89 281.413 17.118C281.233 17.334 281.017 17.526 280.765 17.694C280.525 17.85 280.243 17.976 279.919 18.072C279.595 18.168 279.229 18.216 278.821 18.216ZM279.055 16.938C279.487 16.938 279.871 16.854 280.207 16.686C280.543 16.506 280.831 16.266 281.071 15.966C281.323 15.666 281.509 15.33 281.629 14.958C281.749 14.574 281.809 14.184 281.809 13.788V13.752H279.523C278.947 13.752 278.479 13.824 278.119 13.968C277.759 14.1 277.501 14.286 277.345 14.526C277.189 14.766 277.111 15.042 277.111 15.354C277.111 15.678 277.183 15.96 277.327 16.2C277.483 16.44 277.705 16.626 277.993 16.758C278.281 16.878 278.635 16.938 279.055 16.938ZM285.625 18V5.04H287.137V18H285.625ZM292.603 18.216C291.859 18.216 291.241 18.09 290.749 17.838C290.269 17.586 289.909 17.25 289.669 16.83C289.429 16.398 289.309 15.93 289.309 15.426C289.309 14.814 289.465 14.298 289.777 13.878C290.101 13.458 290.551 13.14 291.127 12.924C291.715 12.696 292.399 12.582 293.179 12.582H295.591C295.591 12.018 295.501 11.55 295.321 11.178C295.153 10.806 294.901 10.524 294.565 10.332C294.229 10.14 293.821 10.044 293.341 10.044C292.765 10.044 292.261 10.194 291.829 10.494C291.409 10.782 291.151 11.202 291.055 11.754H289.507C289.579 11.118 289.795 10.578 290.155 10.134C290.527 9.69 290.995 9.354 291.559 9.126C292.123 8.886 292.717 8.766 293.341 8.766C294.169 8.766 294.859 8.922 295.411 9.234C295.975 9.534 296.395 9.96 296.671 10.512C296.959 11.052 297.103 11.694 297.103 12.438V18H295.753L295.663 16.398C295.543 16.65 295.387 16.89 295.195 17.118C295.015 17.334 294.799 17.526 294.547 17.694C294.307 17.85 294.025 17.976 293.701 18.072C293.377 18.168 293.011 18.216 292.603 18.216ZM292.837 16.938C293.269 16.938 293.653 16.854 293.989 16.686C294.325 16.506 294.613 16.266 294.853 15.966C295.105 15.666 295.291 15.33 295.411 14.958C295.531 14.574 295.591 14.184 295.591 13.788V13.752H293.305C292.729 13.752 292.261 13.824 291.901 13.968C291.541 14.1 291.283 14.286 291.127 14.526C290.971 14.766 290.893 15.042 290.893 15.354C290.893 15.678 290.965 15.96 291.109 16.2C291.265 16.44 291.487 16.626 291.775 16.758C292.063 16.878 292.417 16.938 292.837 16.938ZM299.406 18V8.982H300.774L300.864 10.584C301.152 10.02 301.566 9.576 302.106 9.252C302.646 8.928 303.258 8.766 303.942 8.766C304.638 8.766 305.244 8.91 305.76 9.198C306.276 9.474 306.678 9.9 306.966 10.476C307.254 11.052 307.398 11.778 307.398 12.654V18H305.886V12.816C305.886 11.904 305.688 11.22 305.292 10.764C304.896 10.296 304.332 10.062 303.6 10.062C303.084 10.062 302.622 10.188 302.214 10.44C301.818 10.692 301.5 11.052 301.26 11.52C301.032 11.988 300.918 12.564 300.918 13.248V18H299.406ZM313.828 18.216C312.976 18.216 312.208 18.018 311.524 17.622C310.852 17.226 310.318 16.674 309.922 15.966C309.538 15.258 309.346 14.436 309.346 13.5C309.346 12.552 309.538 11.724 309.922 11.016C310.318 10.308 310.852 9.756 311.524 9.36C312.208 8.964 312.976 8.766 313.828 8.766C314.908 8.766 315.802 9.048 316.51 9.612C317.23 10.164 317.692 10.908 317.896 11.844H316.348C316.216 11.28 315.916 10.842 315.448 10.53C314.98 10.218 314.434 10.062 313.81 10.062C313.306 10.062 312.832 10.194 312.388 10.458C311.944 10.71 311.584 11.094 311.308 11.61C311.032 12.114 310.894 12.744 310.894 13.5C310.894 14.052 310.972 14.544 311.128 14.976C311.296 15.408 311.512 15.774 311.776 16.074C312.052 16.362 312.364 16.578 312.712 16.722C313.072 16.866 313.438 16.938 313.81 16.938C314.23 16.938 314.614 16.872 314.962 16.74C315.31 16.596 315.604 16.392 315.844 16.128C316.096 15.852 316.264 15.528 316.348 15.156H317.896C317.704 16.068 317.242 16.806 316.51 17.37C315.79 17.934 314.896 18.216 313.828 18.216ZM324.022 18.216C323.17 18.216 322.414 18.024 321.754 17.64C321.094 17.244 320.572 16.692 320.188 15.984C319.816 15.264 319.63 14.436 319.63 13.5C319.63 12.54 319.816 11.712 320.188 11.016C320.56 10.308 321.076 9.756 321.736 9.36C322.408 8.964 323.182 8.766 324.058 8.766C324.934 8.766 325.684 8.964 326.308 9.36C326.932 9.756 327.406 10.272 327.73 10.908C328.066 11.544 328.234 12.24 328.234 12.996C328.234 13.116 328.234 13.248 328.234 13.392C328.234 13.524 328.228 13.674 328.216 13.842H320.764V12.672H326.74C326.704 11.844 326.428 11.202 325.912 10.746C325.408 10.278 324.778 10.044 324.022 10.044C323.506 10.044 323.026 10.164 322.582 10.404C322.138 10.632 321.778 10.968 321.502 11.412C321.238 11.856 321.106 12.414 321.106 13.086V13.59C321.106 14.322 321.244 14.94 321.52 15.444C321.796 15.948 322.156 16.326 322.6 16.578C323.044 16.818 323.518 16.938 324.022 16.938C324.646 16.938 325.162 16.8 325.57 16.524C325.99 16.236 326.296 15.846 326.488 15.354H327.982C327.826 15.906 327.568 16.398 327.208 16.83C326.848 17.25 326.398 17.586 325.858 17.838C325.33 18.09 324.718 18.216 324.022 18.216Z" fill="black"/>
<rect x="354" y="4" width="16" height="16" rx="2" fill="#7171FC"/>
<path d="M379.332 18V5.4H380.844L387.558 15.498V5.4H389.07V18H387.558L380.844 7.902V18H379.332ZM391.832 18V8.982H393.344V18H391.832ZM392.588 7.038C392.288 7.038 392.036 6.942 391.832 6.75C391.64 6.546 391.544 6.294 391.544 5.994C391.544 5.694 391.64 5.454 391.832 5.274C392.036 5.082 392.288 4.986 392.588 4.986C392.876 4.986 393.122 5.082 393.326 5.274C393.53 5.454 393.632 5.694 393.632 5.994C393.632 6.294 393.53 6.546 393.326 6.75C393.122 6.942 392.876 7.038 392.588 7.038ZM401.574 18L397.236 13.05L401.178 8.982H403.032L398.514 13.59L398.532 12.51L403.5 18H401.574ZM395.976 18V5.04H397.488V18H395.976ZM408.41 18.216C407.558 18.216 406.802 18.024 406.142 17.64C405.482 17.244 404.96 16.692 404.576 15.984C404.204 15.264 404.018 14.436 404.018 13.5C404.018 12.54 404.204 11.712 404.576 11.016C404.948 10.308 405.464 9.756 406.124 9.36C406.796 8.964 407.57 8.766 408.446 8.766C409.322 8.766 410.072 8.964 410.696 9.36C411.32 9.756 411.794 10.272 412.118 10.908C412.454 11.544 412.622 12.24 412.622 12.996C412.622 13.116 412.622 13.248 412.622 13.392C412.622 13.524 412.616 13.674 412.604 13.842H405.152V12.672H411.128C411.092 11.844 410.816 11.202 410.3 10.746C409.796 10.278 409.166 10.044 408.41 10.044C407.894 10.044 407.414 10.164 406.97 10.404C406.526 10.632 406.166 10.968 405.89 11.412C405.626 11.856 405.494 12.414 405.494 13.086V13.59C405.494 14.322 405.632 14.94 405.908 15.444C406.184 15.948 406.544 16.326 406.988 16.578C407.432 16.818 407.906 16.938 408.41 16.938C409.034 16.938 409.55 16.8 409.958 16.524C410.378 16.236 410.684 15.846 410.876 15.354H412.37C412.214 15.906 411.956 16.398 411.596 16.83C411.236 17.25 410.786 17.586 410.246 17.838C409.718 18.09 409.106 18.216 408.41 18.216Z" fill="black"/>
<ellipse cx="31.2947" cy="229.73" rx="7.824" ry="7.84789" fill="#7171FC"/>
<ellipse cx="107.97" cy="214.034" rx="7.824" ry="7.84789" fill="#7171FC"/>
<ellipse cx="158.047" cy="214.034" rx="7.824" ry="7.84789" fill="#7171FC"/>
<ellipse cx="201.858" cy="253.274" rx="7.824" ry="7.84789" fill="#7171FC"/>
<ellipse cx="204.991" cy="170.086" rx="7.824" ry="7.84789" fill="#7171FC"/>
<ellipse cx="217.511" cy="214.034" rx="7.824" ry="7.84789" fill="#7171FC"/>
<ellipse cx="266.02" cy="104.164" rx="7.824" ry="7.84789" fill="#7171FC"/>
<ellipse cx="266.02" cy="214.034" rx="7.824" ry="7.84789" fill="#7171FC"/>
<ellipse cx="258.192" cy="273.678" rx="7.824" ry="7.84789" fill="#7171FC"/>
<ellipse cx="139.267" cy="273.678" rx="7.824" ry="7.84789" fill="#7171FC"/>
<ellipse cx="154.914" cy="323.905" rx="7.824" ry="7.84789" fill="#7171FC"/>
<ellipse cx="89.1931" cy="308.209" rx="7.824" ry="7.84789" fill="#7171FC"/>
<ellipse cx="31.2947" cy="336.461" rx="7.824" ry="7.84789" fill="#7171FC"/>
<ellipse cx="7.824" cy="303.5" rx="7.824" ry="7.84789" fill="#7171FC"/>
<ellipse cx="302.007" cy="261.122" rx="7.824" ry="7.84789" fill="#7171FC"/>
<ellipse cx="312.958" cy="237.578" rx="7.824" ry="7.84789" fill="#7171FC"/>
<ellipse cx="302.007" cy="177.934" rx="7.824" ry="7.84789" fill="#7171FC"/>
<ellipse cx="337.993" cy="221.883" rx="7.824" ry="7.84789" fill="#7171FC"/>
<ellipse cx="345.821" cy="174.795" rx="7.824" ry="7.84789" fill="#7171FC"/>
<ellipse cx="305.137" cy="137.125" rx="7.824" ry="7.84789" fill="#7171FC"/>
<ellipse cx="364.597" cy="115.151" rx="7.824" ry="7.84789" fill="#7171FC"/>
<ellipse cx="391.201" cy="162.238" rx="7.824" ry="7.84789" fill="#7171FC"/>
<ellipse cx="422.493" cy="190.491" rx="7.824" ry="7.84789" fill="#7171FC"/>
<ellipse cx="422.493" cy="240.717" rx="7.824" ry="7.84789" fill="#7171FC"/>
<ellipse cx="455.356" cy="193.63" rx="7.824" ry="7.84789" fill="#7171FC"/>
<ellipse cx="467.879" cy="126.138" rx="7.824" ry="7.84789" fill="#7171FC"/>
<ellipse cx="447.531" cy="91.6077" rx="7.824" ry="7.84789" fill="#7171FC"/>
<ellipse cx="324.824" cy="158.45" rx="7.1757" ry="7.19761" fill="#68BBFA"/>
<ellipse cx="363.94" cy="144.323" rx="7.1757" ry="7.19761" fill="#68BBFA"/>
<ellipse cx="393.678" cy="90.9574" rx="7.1757" ry="7.19761" fill="#68BBFA"/>
<ellipse cx="317" cy="83.1092" rx="7.1757" ry="7.19761" fill="#68BBFA"/>
<ellipse cx="470.352" cy="98.805" rx="7.1757" ry="7.19761" fill="#68BBFA"/>
<ellipse cx="493.823" cy="192.98" rx="7.1757" ry="7.19761" fill="#68BBFA"/>
<ellipse cx="429.668" cy="166.297" rx="7.1757" ry="7.19761" fill="#68BBFA"/>
<ellipse cx="478.174" cy="265.18" rx="7.1757" ry="7.19761" fill="#68BBFA"/>
<ellipse cx="363.94" cy="260.472" rx="7.1757" ry="7.19761" fill="#68BBFA"/>
<ellipse cx="379.59" cy="224.371" rx="7.1757" ry="7.19761" fill="#68BBFA"/>
<ellipse cx="395.243" cy="291.864" rx="7.1757" ry="7.19761" fill="#68BBFA"/>
<ellipse cx="80.7157" cy="345.229" rx="7.1757" ry="7.19761" fill="#68BBFA"/>
<ellipse cx="257.539" cy="185.132" rx="7.1757" ry="7.19761" fill="#68BBFA"/>
<ellipse cx="237.18" cy="318.529" rx="7.15883" ry="7.18069" fill="#FFBF49"/>
<ellipse cx="241.879" cy="360.908" rx="7.15883" ry="7.18069" fill="#FFBF49"/>
<ellipse cx="257.528" cy="240.05" rx="7.15883" ry="7.18069" fill="#FFBF49"/>
<ellipse cx="262.218" cy="153.723" rx="7.15883" ry="7.18069" fill="#FFBF49"/>
<ellipse cx="69.7496" cy="236.911" rx="7.15883" ry="7.18069" fill="#FFBF49"/>
<ellipse cx="374.883" cy="343.642" rx="7.15883" ry="7.18069" fill="#FFBF49"/>
<ellipse cx="371.757" cy="280.859" rx="7.15883" ry="7.18069" fill="#FFBF49"/>
<ellipse cx="439.043" cy="318.529" rx="7.15883" ry="7.18069" fill="#FFBF49"/>
<ellipse cx="475.036" cy="249.467" rx="7.15883" ry="7.18069" fill="#FFBF49"/>
<ellipse cx="445.301" cy="213.367" rx="7.15883" ry="7.18069" fill="#FFBF49"/>
<ellipse cx="459.386" cy="158.432" rx="7.15883" ry="7.18069" fill="#FFBF49"/>
<ellipse cx="395.227" cy="122.332" rx="7.15883" ry="7.18069" fill="#FFBF49"/>
<ellipse cx="360.802" cy="197.671" rx="7.15883" ry="7.18069" fill="#FFBF49"/>
<ellipse cx="46.2741" cy="280.859" rx="7.15883" ry="7.18069" fill="#E16741"/>
<ellipse cx="155.809" cy="356.199" rx="7.15883" ry="7.18069" fill="#E16741"/>
<ellipse cx="301.337" cy="326.377" rx="7.15883" ry="7.18069" fill="#E16741"/>
<ellipse cx="337.327" cy="280.859" rx="7.15883" ry="7.18069" fill="#E16741"/>
<ellipse cx="293.508" cy="205.52" rx="7.15883" ry="7.18069" fill="#E16741"/>
<ellipse cx="332.632" cy="120.762" rx="7.15883" ry="7.18069" fill="#E16741"/>
<ellipse cx="429.647" cy="128.61" rx="7.15883" ry="7.18069" fill="#E16741"/>
<ellipse cx="390.531" cy="197.672" rx="7.15883" ry="7.18069" fill="#E16741"/>
<ellipse cx="398.352" cy="257.315" rx="7.15883" ry="7.18069" fill="#E16741"/>
<ellipse cx="443.732" cy="283.999" rx="7.15883" ry="7.18069" fill="#E16741"/>
<ellipse cx="443.732" cy="244.759" rx="7.15883" ry="7.18069" fill="#E16741"/>
<ellipse cx="403.048" cy="310.681" rx="7.15883" ry="7.18069" fill="#E16741"/>
</svg>
