<svg width="501" height="360" viewBox="0 0 501 360" fill="none" xmlns="http://www.w3.org/2000/svg">
<path d="M6.7 53V41.8H8.044L14.012 50.776V41.8H15.356V53H14.012L8.044 44.024V53H6.7ZM21.2029 53.192C20.4562 53.192 19.7895 53.016 19.2029 52.664C18.6162 52.312 18.1522 51.8213 17.8109 51.192C17.4802 50.5627 17.3149 49.8267 17.3149 48.984C17.3149 48.1307 17.4802 47.3947 17.8109 46.776C18.1415 46.1467 18.6002 45.656 19.1869 45.304C19.7842 44.952 20.4669 44.776 21.2349 44.776C22.0242 44.776 22.6962 44.952 23.2509 45.304C23.8055 45.656 24.2269 46.1147 24.5149 46.68C24.8135 47.2453 24.9629 47.8693 24.9629 48.552C24.9629 48.6587 24.9629 48.7707 24.9629 48.888C24.9629 49.0053 24.9575 49.1387 24.9469 49.288H18.3229V48.248H23.6349C23.6029 47.512 23.3575 46.9413 22.8989 46.536C22.4509 46.12 21.8855 45.912 21.2029 45.912C20.7549 45.912 20.3335 46.0187 19.9389 46.232C19.5442 46.4347 19.2242 46.7333 18.9789 47.128C18.7442 47.5227 18.6269 48.0187 18.6269 48.616V49.064C18.6269 49.7253 18.7495 50.28 18.9949 50.728C19.2402 51.1653 19.5549 51.496 19.9389 51.72C20.3335 51.944 20.7549 52.056 21.2029 52.056C21.7682 52.056 22.2322 51.9333 22.5949 51.688C22.9682 51.432 23.2402 51.0853 23.4109 50.648H24.7389C24.6002 51.1387 24.3709 51.576 24.0509 51.96C23.7309 52.3333 23.3309 52.632 22.8509 52.856C22.3815 53.08 21.8322 53.192 21.2029 53.192ZM28.0641 53L25.7121 44.968H27.0561L28.8961 51.768H28.6241L30.6401 44.968H32.1601L34.1921 51.752L33.9201 51.768L35.7601 44.968H37.1201L34.7681 53H33.3921L31.2801 45.896H31.5521L29.4401 53H28.0641ZM45.782 53.192C45.1633 53.192 44.6193 53.0693 44.15 52.824C43.6913 52.5787 43.334 52.2 43.078 51.688C42.8327 51.176 42.71 50.5307 42.71 49.752V44.968H44.054V49.608C44.054 50.4187 44.23 51.0267 44.582 51.432C44.934 51.8373 45.4353 52.04 46.086 52.04C46.534 52.04 46.9393 51.9333 47.302 51.72C47.6647 51.496 47.9473 51.176 48.15 50.76C48.3633 50.344 48.47 49.8373 48.47 49.24V44.968H49.814V53H48.598L48.518 51.592C48.262 52.0933 47.894 52.488 47.414 52.776C46.934 53.0533 46.39 53.192 45.782 53.192ZM55.0659 53.192C54.4152 53.192 53.8392 53.0853 53.3379 52.872C52.8365 52.648 52.4365 52.3333 52.1379 51.928C51.8499 51.5227 51.6685 51.048 51.5939 50.504H52.9699C53.0339 50.7813 53.1512 51.0427 53.3219 51.288C53.4925 51.5227 53.7219 51.7093 54.0099 51.848C54.3085 51.9867 54.6659 52.056 55.0819 52.056C55.4659 52.056 55.7805 52.0027 56.0259 51.896C56.2712 51.7787 56.4525 51.624 56.5699 51.432C56.6872 51.24 56.7459 51.032 56.7459 50.808C56.7459 50.488 56.6659 50.2427 56.5059 50.072C56.3565 49.9013 56.1325 49.768 55.8339 49.672C55.5352 49.5653 55.1779 49.4747 54.7619 49.4C54.4099 49.336 54.0632 49.2507 53.7219 49.144C53.3912 49.0373 53.0925 48.8987 52.8259 48.728C52.5592 48.5573 52.3459 48.344 52.1859 48.088C52.0259 47.8213 51.9459 47.5067 51.9459 47.144C51.9459 46.6853 52.0632 46.28 52.2979 45.928C52.5432 45.5653 52.8792 45.2827 53.3059 45.08C53.7432 44.8773 54.2605 44.776 54.8579 44.776C55.7112 44.776 56.4045 44.984 56.9379 45.4C57.4819 45.816 57.7965 46.4187 57.8819 47.208H56.5539C56.5112 46.8027 56.3405 46.488 56.0419 46.264C55.7432 46.0293 55.3432 45.912 54.8419 45.912C54.3405 45.912 53.9565 46.0133 53.6899 46.216C53.4339 46.4187 53.3059 46.6853 53.3059 47.016C53.3059 47.2293 53.3752 47.416 53.5139 47.576C53.6632 47.736 53.8819 47.8747 54.1699 47.992C54.4579 48.0987 54.8045 48.1947 55.2099 48.28C55.7325 48.376 56.2125 48.504 56.6499 48.664C57.0872 48.824 57.4392 49.0587 57.7059 49.368C57.9832 49.6773 58.1219 50.12 58.1219 50.696C58.1325 51.1973 58.0099 51.6347 57.7539 52.008C57.5085 52.3813 57.1565 52.6747 56.6979 52.888C56.2392 53.0907 55.6952 53.192 55.0659 53.192ZM63.6091 53.192C62.8625 53.192 62.1958 53.016 61.6091 52.664C61.0225 52.312 60.5585 51.8213 60.2171 51.192C59.8865 50.5627 59.7211 49.8267 59.7211 48.984C59.7211 48.1307 59.8865 47.3947 60.2171 46.776C60.5478 46.1467 61.0065 45.656 61.5931 45.304C62.1905 44.952 62.8731 44.776 63.6411 44.776C64.4305 44.776 65.1025 44.952 65.6571 45.304C66.2118 45.656 66.6331 46.1147 66.9211 46.68C67.2198 47.2453 67.3691 47.8693 67.3691 48.552C67.3691 48.6587 67.3691 48.7707 67.3691 48.888C67.3691 49.0053 67.3638 49.1387 67.3531 49.288H60.7291V48.248H66.0411C66.0091 47.512 65.7638 46.9413 65.3051 46.536C64.8571 46.12 64.2918 45.912 63.6091 45.912C63.1611 45.912 62.7398 46.0187 62.3451 46.232C61.9505 46.4347 61.6305 46.7333 61.3851 47.128C61.1505 47.5227 61.0331 48.0187 61.0331 48.616V49.064C61.0331 49.7253 61.1558 50.28 61.4011 50.728C61.6465 51.1653 61.9611 51.496 62.3451 51.72C62.7398 51.944 63.1611 52.056 63.6091 52.056C64.1745 52.056 64.6385 51.9333 65.0011 51.688C65.3745 51.432 65.6465 51.0853 65.8171 50.648H67.1451C67.0065 51.1387 66.7771 51.576 66.4571 51.96C66.1371 52.3333 65.7371 52.632 65.2571 52.856C64.7878 53.08 64.2385 53.192 63.6091 53.192ZM69.1509 53V44.968H70.3669L70.4789 46.504C70.6602 46.1413 70.8895 45.832 71.1669 45.576C71.4549 45.32 71.7962 45.1227 72.1909 44.984C72.5855 44.8453 73.0335 44.776 73.5349 44.776V46.184H73.0709C72.7295 46.184 72.4042 46.232 72.0949 46.328C71.7855 46.4133 71.5082 46.5573 71.2629 46.76C71.0282 46.952 70.8415 47.224 70.7029 47.576C70.5642 47.928 70.4949 48.36 70.4949 48.872V53H69.1509ZM78.0815 53.192C77.4308 53.192 76.8548 53.0853 76.3535 52.872C75.8522 52.648 75.4522 52.3333 75.1535 51.928C74.8655 51.5227 74.6842 51.048 74.6095 50.504H75.9855C76.0495 50.7813 76.1668 51.0427 76.3375 51.288C76.5082 51.5227 76.7375 51.7093 77.0255 51.848C77.3242 51.9867 77.6815 52.056 78.0975 52.056C78.4815 52.056 78.7962 52.0027 79.0415 51.896C79.2868 51.7787 79.4682 51.624 79.5855 51.432C79.7028 51.24 79.7615 51.032 79.7615 50.808C79.7615 50.488 79.6815 50.2427 79.5215 50.072C79.3722 49.9013 79.1482 49.768 78.8495 49.672C78.5508 49.5653 78.1935 49.4747 77.7775 49.4C77.4255 49.336 77.0788 49.2507 76.7375 49.144C76.4068 49.0373 76.1082 48.8987 75.8415 48.728C75.5748 48.5573 75.3615 48.344 75.2015 48.088C75.0415 47.8213 74.9615 47.5067 74.9615 47.144C74.9615 46.6853 75.0788 46.28 75.3135 45.928C75.5588 45.5653 75.8948 45.2827 76.3215 45.08C76.7588 44.8773 77.2762 44.776 77.8735 44.776C78.7268 44.776 79.4202 44.984 79.9535 45.4C80.4975 45.816 80.8122 46.4187 80.8975 47.208H79.5695C79.5268 46.8027 79.3562 46.488 79.0575 46.264C78.7588 46.0293 78.3588 45.912 77.8575 45.912C77.3562 45.912 76.9722 46.0133 76.7055 46.216C76.4495 46.4187 76.3215 46.6853 76.3215 47.016C76.3215 47.2293 76.3908 47.416 76.5295 47.576C76.6788 47.736 76.8975 47.8747 77.1855 47.992C77.4735 48.0987 77.8202 48.1947 78.2255 48.28C78.7482 48.376 79.2282 48.504 79.6655 48.664C80.1028 48.824 80.4548 49.0587 80.7215 49.368C80.9988 49.6773 81.1375 50.12 81.1375 50.696C81.1482 51.1973 81.0255 51.6347 80.7695 52.008C80.5242 52.3813 80.1722 52.6747 79.7135 52.888C79.2548 53.0907 78.7108 53.192 78.0815 53.192Z" fill="#0D0D0D"/>
<path d="M434.14 47.56L439.996 41.8H440.716L446.572 47.56L445.708 48.424L441.02 43.768V53H439.708V43.736L435.004 48.408L434.14 47.56Z" fill="#00F327"/>
<path d="M452.477 53V52.056C453.245 51.4587 453.97 50.856 454.653 50.248C455.335 49.64 455.943 49.0373 456.477 48.44C457.01 47.832 457.426 47.24 457.725 46.664C458.034 46.088 458.189 45.5333 458.189 45C458.189 44.6053 458.119 44.2427 457.981 43.912C457.842 43.5707 457.623 43.2933 457.325 43.08C457.026 42.8667 456.615 42.76 456.093 42.76C455.602 42.76 455.186 42.872 454.845 43.096C454.514 43.3093 454.263 43.5973 454.093 43.96C453.933 44.312 453.853 44.7013 453.853 45.128H452.557C452.567 44.392 452.727 43.7627 453.037 43.24C453.346 42.7067 453.767 42.3013 454.301 42.024C454.834 41.7467 455.437 41.608 456.109 41.608C456.781 41.608 457.373 41.736 457.885 41.992C458.397 42.2373 458.797 42.6053 459.085 43.096C459.383 43.5867 459.533 44.2053 459.533 44.952C459.533 45.4747 459.426 45.9973 459.213 46.52C458.999 47.0427 458.711 47.5547 458.349 48.056C457.986 48.5467 457.581 49.0213 457.133 49.48C456.695 49.9387 456.242 50.3707 455.773 50.776C455.314 51.1813 454.877 51.5493 454.461 51.88H459.917V53H452.477ZM466.678 53V50.6H460.998V49.56L466.438 41.8H468.006V49.416H469.67V50.6H468.006V53H466.678ZM462.486 49.416H466.742V43.288L462.486 49.416ZM470.189 54.968L471.117 51.432H472.509L471.117 54.968H470.189ZM477.704 53.192C476.989 53.192 476.338 53.064 475.752 52.808C475.176 52.5413 474.717 52.1467 474.376 51.624C474.034 51.1013 473.853 50.4507 473.832 49.672H475.192C475.202 50.0987 475.304 50.4933 475.496 50.856C475.698 51.208 475.986 51.4907 476.36 51.704C476.733 51.9173 477.181 52.024 477.704 52.024C478.226 52.024 478.664 51.9227 479.016 51.72C479.368 51.5173 479.634 51.2507 479.816 50.92C479.997 50.5787 480.088 50.2 480.088 49.784C480.088 49.2613 479.96 48.84 479.704 48.52C479.458 48.1893 479.122 47.944 478.696 47.784C478.28 47.624 477.821 47.544 477.32 47.544H476.488V46.408H477.32C478.056 46.408 478.626 46.2427 479.032 45.912C479.448 45.5707 479.656 45.1013 479.656 44.504C479.656 44.0133 479.49 43.6027 479.16 43.272C478.84 42.9413 478.354 42.776 477.704 42.776C477.074 42.776 476.573 42.9573 476.2 43.32C475.826 43.6827 475.613 44.1467 475.56 44.712H474.2C474.232 44.104 474.397 43.5653 474.696 43.096C474.994 42.6267 475.4 42.264 475.912 42.008C476.424 41.7413 477.021 41.608 477.704 41.608C478.429 41.608 479.037 41.736 479.528 41.992C480.018 42.248 480.386 42.5893 480.632 43.016C480.888 43.4427 481.016 43.912 481.016 44.424C481.016 44.7973 480.946 45.1547 480.808 45.496C480.669 45.8373 480.461 46.136 480.184 46.392C479.917 46.6373 479.57 46.8133 479.144 46.92C479.581 47.0053 479.97 47.176 480.312 47.432C480.664 47.6773 480.941 47.9973 481.144 48.392C481.346 48.7867 481.448 49.2507 481.448 49.784C481.448 50.392 481.304 50.9573 481.016 51.48C480.738 51.992 480.322 52.408 479.768 52.728C479.213 53.0373 478.525 53.192 477.704 53.192ZM484.476 53L490.988 41.8H492.332L485.82 53H484.476ZM491.516 53.192C491.036 53.192 490.604 53.0853 490.22 52.872C489.836 52.648 489.526 52.3333 489.292 51.928C489.068 51.5227 488.956 51.048 488.956 50.504C488.956 49.9493 489.068 49.4747 489.292 49.08C489.526 48.6747 489.836 48.3653 490.22 48.152C490.604 47.928 491.036 47.816 491.516 47.816C492.006 47.816 492.438 47.928 492.812 48.152C493.196 48.3653 493.5 48.6747 493.724 49.08C493.948 49.4747 494.06 49.9493 494.06 50.504C494.06 51.048 493.948 51.5227 493.724 51.928C493.5 52.3333 493.196 52.648 492.812 52.872C492.428 53.0853 491.996 53.192 491.516 53.192ZM491.5 52.152C491.756 52.152 491.99 52.0933 492.204 51.976C492.417 51.848 492.588 51.6613 492.716 51.416C492.854 51.1707 492.924 50.8667 492.924 50.504C492.924 50.1307 492.86 49.8213 492.732 49.576C492.604 49.3307 492.433 49.1493 492.22 49.032C492.006 48.904 491.772 48.84 491.516 48.84C491.27 48.84 491.036 48.904 490.812 49.032C490.598 49.1493 490.422 49.3307 490.284 49.576C490.156 49.8213 490.092 50.1307 490.092 50.504C490.092 50.8667 490.156 51.1707 490.284 51.416C490.422 51.6613 490.598 51.848 490.812 51.976C491.025 52.0933 491.254 52.152 491.5 52.152ZM485.404 47C484.924 47 484.492 46.8933 484.108 46.68C483.724 46.456 483.414 46.1413 483.18 45.736C482.956 45.3307 482.844 44.856 482.844 44.312C482.844 43.7573 482.956 43.2827 483.18 42.888C483.414 42.4827 483.724 42.1733 484.108 41.96C484.502 41.736 484.94 41.624 485.42 41.624C485.9 41.624 486.332 41.736 486.716 41.96C487.1 42.1733 487.404 42.4827 487.628 42.888C487.852 43.2827 487.964 43.7573 487.964 44.312C487.964 44.856 487.852 45.3307 487.628 45.736C487.404 46.1413 487.094 46.456 486.7 46.68C486.316 46.8933 485.884 47 485.404 47ZM485.404 45.96C485.66 45.96 485.894 45.9013 486.108 45.784C486.321 45.656 486.492 45.4693 486.62 45.224C486.748 44.9787 486.812 44.6747 486.812 44.312C486.812 43.9387 486.748 43.6293 486.62 43.384C486.492 43.128 486.321 42.9413 486.108 42.824C485.894 42.696 485.665 42.632 485.42 42.632C485.174 42.632 484.94 42.696 484.716 42.824C484.492 42.9413 484.31 43.128 484.172 43.384C484.044 43.6293 483.98 43.9387 483.98 44.312C483.98 44.6747 484.044 44.9787 484.172 45.224C484.31 45.4693 484.486 45.656 484.7 45.784C484.924 45.9013 485.158 45.96 485.404 45.96Z" fill="black"/>
<rect x="5.5" y="66" width="14" height="30" rx="2" fill="#7171FC"/>
<rect x="22.5" y="66" width="14" height="30" rx="2" fill="#7171FC"/>
<rect x="39.5" y="66" width="14" height="30" rx="2" fill="#7171FC"/>
<rect x="56.5" y="66" width="14" height="30" rx="2" fill="#7171FC"/>
<rect x="73.5" y="66" width="14" height="30" rx="2" fill="#7171FC"/>
<rect x="90.5" y="66" width="14" height="30" rx="2" fill="#7171FC"/>
<rect x="107.5" y="66" width="14" height="30" rx="2" fill="#7171FC"/>
<rect x="124.5" y="66" width="14" height="30" rx="2" fill="#7171FC"/>
<rect x="141.5" y="66" width="14" height="30" rx="2" fill="#7171FC"/>
<rect x="158.5" y="66" width="14" height="30" rx="2" fill="#7171FC"/>
<rect x="175.5" y="66" width="14" height="30" rx="2" fill="#7171FC"/>
<rect x="192.5" y="66" width="14" height="30" rx="2" fill="#7171FC"/>
<rect x="209.5" y="66" width="14" height="30" rx="2" fill="#7171FC"/>
<rect x="226.5" y="66" width="14" height="30" rx="2" fill="#7171FC"/>
<rect x="243.5" y="66" width="14" height="30" rx="2" fill="#7171FC"/>
<rect x="260.5" y="66" width="14" height="30" rx="2" fill="#7171FC"/>
<rect x="277.5" y="66" width="14" height="30" rx="2" fill="#7171FC"/>
<rect x="294.5" y="66" width="14" height="30" rx="2" fill="#7171FC"/>
<rect x="311.5" y="66" width="14" height="30" rx="2" fill="#7171FC"/>
<rect x="328.5" y="66" width="14" height="30" rx="2" fill="#7171FC"/>
<rect x="345.5" y="66" width="14" height="30" rx="2" fill="#7171FC"/>
<rect x="362.5" y="66" width="14" height="30" rx="2" fill="#7171FC"/>
<rect x="379.5" y="66" width="14" height="30" rx="2" fill="#7171FC"/>
<rect x="396.5" y="66" width="14" height="30" rx="2" fill="#7171FC"/>
<rect x="413.5" y="66" width="14" height="30" rx="2" fill="#7171FC"/>
<rect x="430.5" y="66" width="14" height="30" rx="2" fill="#7171FC"/>
<rect x="447.5" y="66" width="14" height="30" rx="2" fill="#7171FC"/>
<rect x="464.5" y="66" width="14" height="30" rx="2" fill="#7171FC"/>
<rect x="481.5" y="66" width="14" height="30" rx="2" fill="#7171FC"/>
<rect x="481.5" y="66" width="14" height="30" rx="2" fill="#7171FC"/>
<path d="M6.7 128V116.8H10.364C11.2387 116.8 11.9587 116.949 12.524 117.248C13.0893 117.536 13.5107 117.925 13.788 118.416C14.0653 118.907 14.204 119.461 14.204 120.08C14.204 120.699 14.0653 121.259 13.788 121.76C13.5213 122.251 13.1053 122.645 12.54 122.944C11.9747 123.232 11.2493 123.376 10.364 123.376H8.044V128H6.7ZM8.044 122.24H10.332C11.228 122.24 11.868 122.048 12.252 121.664C12.636 121.269 12.828 120.741 12.828 120.08C12.828 119.397 12.636 118.869 12.252 118.496C11.868 118.112 11.228 117.92 10.332 117.92H8.044V122.24ZM18.1503 128.192C17.4996 128.192 16.9556 128.08 16.5182 127.856C16.0809 127.621 15.7556 127.317 15.5423 126.944C15.3289 126.56 15.2223 126.149 15.2223 125.712C15.2223 125.168 15.3609 124.709 15.6383 124.336C15.9263 123.952 16.3263 123.664 16.8383 123.472C17.3609 123.269 17.9689 123.168 18.6623 123.168H20.8063C20.8063 122.667 20.7263 122.251 20.5663 121.92C20.4169 121.589 20.1929 121.339 19.8943 121.168C19.5956 120.997 19.2329 120.912 18.8063 120.912C18.2943 120.912 17.8516 121.04 17.4783 121.296C17.1049 121.552 16.8756 121.931 16.7903 122.432H15.4143C15.4783 121.856 15.6703 121.376 15.9903 120.992C16.3209 120.597 16.7369 120.299 17.2383 120.096C17.7396 119.883 18.2623 119.776 18.8063 119.776C19.5529 119.776 20.1716 119.915 20.6623 120.192C21.1529 120.459 21.5209 120.837 21.7663 121.328C22.0223 121.808 22.1503 122.373 22.1503 123.024V128H20.9503L20.8703 126.576C20.7636 126.8 20.6249 127.013 20.4543 127.216C20.2943 127.408 20.1023 127.579 19.8783 127.728C19.6649 127.867 19.4143 127.979 19.1263 128.064C18.8383 128.149 18.5129 128.192 18.1503 128.192ZM18.3583 127.056C18.7316 127.056 19.0676 126.981 19.3663 126.832C19.6756 126.672 19.9369 126.459 20.1503 126.192C20.3636 125.925 20.5236 125.627 20.6303 125.296C20.7476 124.955 20.8063 124.608 20.8063 124.256V124.208H18.7743C18.2623 124.208 17.8463 124.272 17.5263 124.4C17.2063 124.517 16.9769 124.688 16.8383 124.912C16.6996 125.125 16.6303 125.371 16.6303 125.648C16.6303 125.936 16.6943 126.187 16.8223 126.4C16.9609 126.603 17.1583 126.763 17.4143 126.88C17.6703 126.997 17.9849 127.056 18.3583 127.056ZM24.3574 128V119.968H25.7014V128H24.3574ZM25.0294 118.24C24.7627 118.24 24.5387 118.155 24.3574 117.984C24.1867 117.803 24.1014 117.579 24.1014 117.312C24.1014 117.045 24.1867 116.832 24.3574 116.672C24.5387 116.501 24.7627 116.416 25.0294 116.416C25.2854 116.416 25.504 116.501 25.6854 116.672C25.8667 116.832 25.9574 117.045 25.9574 117.312C25.9574 117.579 25.8667 117.803 25.6854 117.984C25.504 118.155 25.2854 118.24 25.0294 118.24ZM31.6255 128.192C30.8468 128.192 30.1588 128.011 29.5615 127.648C28.9748 127.275 28.5162 126.773 28.1855 126.144C27.8655 125.504 27.7055 124.779 27.7055 123.968C27.7055 123.157 27.8655 122.437 28.1855 121.808C28.5162 121.179 28.9748 120.683 29.5615 120.32C30.1588 119.957 30.8522 119.776 31.6415 119.776C32.2922 119.776 32.8682 119.909 33.3695 120.176C33.8708 120.443 34.2548 120.816 34.5215 121.296V116.48H35.8655V128H34.6495L34.5215 126.688C34.3508 126.944 34.1322 127.189 33.8655 127.424C33.6095 127.648 33.2948 127.835 32.9215 127.984C32.5482 128.123 32.1162 128.192 31.6255 128.192ZM31.7695 127.024C32.3028 127.024 32.7722 126.901 33.1775 126.656C33.5935 126.4 33.9135 126.043 34.1375 125.584C34.3615 125.125 34.4735 124.592 34.4735 123.984C34.4735 123.376 34.3615 122.843 34.1375 122.384C33.9135 121.925 33.5935 121.573 33.1775 121.328C32.7722 121.072 32.3028 120.944 31.7695 120.944C31.2575 120.944 30.7935 121.072 30.3775 121.328C29.9722 121.573 29.6522 121.925 29.4175 122.384C29.1935 122.843 29.0815 123.376 29.0815 123.984C29.0815 124.592 29.1935 125.125 29.4175 125.584C29.6522 126.043 29.9722 126.4 30.3775 126.656C30.7935 126.901 31.2575 127.024 31.7695 127.024ZM45.9868 128.192C45.1654 128.192 44.4508 128.043 43.8428 127.744C43.2348 127.445 42.7654 127.029 42.4348 126.496C42.1041 125.963 41.9388 125.344 41.9388 124.64H43.3468C43.3468 125.077 43.4481 125.483 43.6508 125.856C43.8534 126.219 44.1468 126.512 44.5308 126.736C44.9254 126.949 45.4108 127.056 45.9868 127.056C46.4881 127.056 46.9148 126.976 47.2668 126.816C47.6294 126.645 47.9014 126.416 48.0828 126.128C48.2748 125.84 48.3708 125.515 48.3708 125.152C48.3708 124.715 48.2748 124.363 48.0828 124.096C47.8908 123.819 47.6348 123.595 47.3148 123.424C46.9948 123.253 46.6268 123.104 46.2108 122.976C45.7948 122.837 45.3521 122.688 44.8828 122.528C44.0081 122.229 43.3628 121.861 42.9468 121.424C42.5308 120.976 42.3228 120.395 42.3228 119.68C42.3228 119.072 42.4614 118.539 42.7388 118.08C43.0268 117.621 43.4321 117.264 43.9548 117.008C44.4881 116.741 45.1174 116.608 45.8428 116.608C46.5574 116.608 47.1761 116.741 47.6988 117.008C48.2321 117.275 48.6481 117.643 48.9468 118.112C49.2454 118.571 49.3948 119.104 49.3948 119.712H47.9868C47.9868 119.403 47.9068 119.099 47.7468 118.8C47.5868 118.501 47.3414 118.256 47.0108 118.064C46.6908 117.861 46.2854 117.76 45.7948 117.76C45.3894 117.749 45.0268 117.819 44.7068 117.968C44.3974 118.107 44.1521 118.309 43.9708 118.576C43.8001 118.843 43.7148 119.168 43.7148 119.552C43.7148 119.915 43.7894 120.208 43.9388 120.432C44.0988 120.656 44.3228 120.848 44.6108 121.008C44.9094 121.157 45.2561 121.296 45.6508 121.424C46.0454 121.552 46.4828 121.696 46.9628 121.856C47.5068 122.037 47.9868 122.261 48.4028 122.528C48.8294 122.784 49.1601 123.115 49.3948 123.52C49.6401 123.925 49.7628 124.443 49.7628 125.072C49.7628 125.605 49.6188 126.112 49.3308 126.592C49.0534 127.061 48.6374 127.445 48.0828 127.744C47.5281 128.043 46.8294 128.192 45.9868 128.192ZM55.156 128.192C54.4093 128.192 53.7427 128.016 53.156 127.664C52.5693 127.312 52.1053 126.821 51.764 126.192C51.4333 125.563 51.268 124.827 51.268 123.984C51.268 123.131 51.4333 122.395 51.764 121.776C52.0947 121.147 52.5533 120.656 53.14 120.304C53.7373 119.952 54.42 119.776 55.188 119.776C55.9773 119.776 56.6493 119.952 57.204 120.304C57.7587 120.656 58.18 121.115 58.468 121.68C58.7667 122.245 58.916 122.869 58.916 123.552C58.916 123.659 58.916 123.771 58.916 123.888C58.916 124.005 58.9107 124.139 58.9 124.288H52.276V123.248H57.588C57.556 122.512 57.3107 121.941 56.852 121.536C56.404 121.12 55.8387 120.912 55.156 120.912C54.708 120.912 54.2867 121.019 53.892 121.232C53.4973 121.435 53.1773 121.733 52.932 122.128C52.6973 122.523 52.58 123.019 52.58 123.616V124.064C52.58 124.725 52.7027 125.28 52.948 125.728C53.1933 126.165 53.508 126.496 53.892 126.72C54.2867 126.944 54.708 127.056 55.156 127.056C55.7213 127.056 56.1853 126.933 56.548 126.688C56.9213 126.432 57.1933 126.085 57.364 125.648H58.692C58.5533 126.139 58.324 126.576 58.004 126.96C57.684 127.333 57.284 127.632 56.804 127.856C56.3347 128.08 55.7853 128.192 55.156 128.192ZM63.3378 128.192C62.6871 128.192 62.1431 128.08 61.7057 127.856C61.2684 127.621 60.9431 127.317 60.7298 126.944C60.5164 126.56 60.4098 126.149 60.4098 125.712C60.4098 125.168 60.5484 124.709 60.8258 124.336C61.1138 123.952 61.5138 123.664 62.0258 123.472C62.5484 123.269 63.1564 123.168 63.8498 123.168H65.9938C65.9938 122.667 65.9138 122.251 65.7538 121.92C65.6044 121.589 65.3804 121.339 65.0818 121.168C64.7831 120.997 64.4204 120.912 63.9938 120.912C63.4818 120.912 63.0391 121.04 62.6658 121.296C62.2924 121.552 62.0631 121.931 61.9778 122.432H60.6018C60.6658 121.856 60.8578 121.376 61.1778 120.992C61.5084 120.597 61.9244 120.299 62.4258 120.096C62.9271 119.883 63.4498 119.776 63.9938 119.776C64.7404 119.776 65.3591 119.915 65.8498 120.192C66.3404 120.459 66.7084 120.837 66.9538 121.328C67.2098 121.808 67.3378 122.373 67.3378 123.024V128H66.1378L66.0578 126.576C65.9511 126.8 65.8124 127.013 65.6418 127.216C65.4818 127.408 65.2898 127.579 65.0658 127.728C64.8524 127.867 64.6018 127.979 64.3138 128.064C64.0258 128.149 63.7004 128.192 63.3378 128.192ZM63.5458 127.056C63.9191 127.056 64.2551 126.981 64.5538 126.832C64.8631 126.672 65.1244 126.459 65.3378 126.192C65.5511 125.925 65.7111 125.627 65.8178 125.296C65.9351 124.955 65.9938 124.608 65.9938 124.256V124.208H63.9618C63.4498 124.208 63.0338 124.272 62.7138 124.4C62.3938 124.517 62.1644 124.688 62.0258 124.912C61.8871 125.125 61.8178 125.371 61.8178 125.648C61.8178 125.936 61.8818 126.187 62.0098 126.4C62.1484 126.603 62.3458 126.763 62.6018 126.88C62.8578 126.997 63.1724 127.056 63.5458 127.056ZM69.4009 128V119.968H70.6169L70.7289 121.504C70.9102 121.141 71.1395 120.832 71.4169 120.576C71.7049 120.32 72.0462 120.123 72.4409 119.984C72.8355 119.845 73.2835 119.776 73.7849 119.776V121.184H73.3209C72.9795 121.184 72.6542 121.232 72.3449 121.328C72.0355 121.413 71.7582 121.557 71.5129 121.76C71.2782 121.952 71.0915 122.224 70.9529 122.576C70.8142 122.928 70.7449 123.36 70.7449 123.872V128H69.4009ZM78.6426 128.192C77.8853 128.192 77.2026 128.016 76.5946 127.664C75.9973 127.312 75.5226 126.821 75.1706 126.192C74.8293 125.563 74.6586 124.827 74.6586 123.984C74.6586 123.141 74.8293 122.405 75.1706 121.776C75.5226 121.147 75.9973 120.656 76.5946 120.304C77.2026 119.952 77.8853 119.776 78.6426 119.776C79.6026 119.776 80.4026 120.027 81.0426 120.528C81.6826 121.019 82.088 121.68 82.2586 122.512H80.8826C80.776 122.011 80.5146 121.621 80.0986 121.344C79.6826 121.067 79.192 120.928 78.6266 120.928C78.168 120.928 77.7413 121.045 77.3466 121.28C76.9626 121.504 76.648 121.845 76.4026 122.304C76.1573 122.752 76.0346 123.312 76.0346 123.984C76.0346 124.485 76.104 124.928 76.2426 125.312C76.392 125.696 76.584 126.021 76.8186 126.288C77.0533 126.544 77.3253 126.736 77.6346 126.864C77.9546 126.992 78.2853 127.056 78.6266 127.056C79.0106 127.056 79.3573 126.997 79.6666 126.88C79.976 126.752 80.2373 126.571 80.4506 126.336C80.664 126.091 80.808 125.797 80.8826 125.456H82.2586C82.088 126.277 81.6773 126.939 81.0266 127.44C80.3866 127.941 79.592 128.192 78.6426 128.192ZM84.1353 128V116.48H85.4793V121.328C85.7566 120.837 86.1353 120.459 86.6153 120.192C87.0953 119.915 87.6286 119.776 88.2153 119.776C88.8339 119.776 89.3673 119.904 89.8153 120.16C90.2739 120.405 90.6259 120.784 90.8713 121.296C91.1273 121.808 91.2552 122.453 91.2552 123.232V128H89.9273V123.376C89.9273 122.565 89.7566 121.957 89.4153 121.552C89.0739 121.136 88.5779 120.928 87.9273 120.928C87.4686 120.928 87.0526 121.04 86.6793 121.264C86.3166 121.477 86.0233 121.797 85.7993 122.224C85.5859 122.64 85.4793 123.152 85.4793 123.76V128H84.1353Z" fill="#0D0D0D"/>
<path d="M434.14 122.24L435.004 121.392L439.708 126.064V116.8H441.02V126.032L445.708 121.376L446.572 122.24L440.716 128H439.996L434.14 122.24Z" fill="#EE2626"/>
<path d="M452.477 128V127.056C453.245 126.459 453.97 125.856 454.653 125.248C455.335 124.64 455.943 124.037 456.477 123.44C457.01 122.832 457.426 122.24 457.725 121.664C458.034 121.088 458.189 120.533 458.189 120C458.189 119.605 458.119 119.243 457.981 118.912C457.842 118.571 457.623 118.293 457.325 118.08C457.026 117.867 456.615 117.76 456.093 117.76C455.602 117.76 455.186 117.872 454.845 118.096C454.514 118.309 454.263 118.597 454.093 118.96C453.933 119.312 453.853 119.701 453.853 120.128H452.557C452.567 119.392 452.727 118.763 453.037 118.24C453.346 117.707 453.767 117.301 454.301 117.024C454.834 116.747 455.437 116.608 456.109 116.608C456.781 116.608 457.373 116.736 457.885 116.992C458.397 117.237 458.797 117.605 459.085 118.096C459.383 118.587 459.533 119.205 459.533 119.952C459.533 120.475 459.426 120.997 459.213 121.52C458.999 122.043 458.711 122.555 458.349 123.056C457.986 123.547 457.581 124.021 457.133 124.48C456.695 124.939 456.242 125.371 455.773 125.776C455.314 126.181 454.877 126.549 454.461 126.88H459.917V128H452.477ZM466.678 128V125.6H460.998V124.56L466.438 116.8H468.006V124.416H469.67V125.6H468.006V128H466.678ZM462.486 124.416H466.742V118.288L462.486 124.416ZM470.189 129.968L471.117 126.432H472.509L471.117 129.968H470.189ZM477.704 128.192C476.989 128.192 476.338 128.064 475.752 127.808C475.176 127.541 474.717 127.147 474.376 126.624C474.034 126.101 473.853 125.451 473.832 124.672H475.192C475.202 125.099 475.304 125.493 475.496 125.856C475.698 126.208 475.986 126.491 476.36 126.704C476.733 126.917 477.181 127.024 477.704 127.024C478.226 127.024 478.664 126.923 479.016 126.72C479.368 126.517 479.634 126.251 479.816 125.92C479.997 125.579 480.088 125.2 480.088 124.784C480.088 124.261 479.96 123.84 479.704 123.52C479.458 123.189 479.122 122.944 478.696 122.784C478.28 122.624 477.821 122.544 477.32 122.544H476.488V121.408H477.32C478.056 121.408 478.626 121.243 479.032 120.912C479.448 120.571 479.656 120.101 479.656 119.504C479.656 119.013 479.49 118.603 479.16 118.272C478.84 117.941 478.354 117.776 477.704 117.776C477.074 117.776 476.573 117.957 476.2 118.32C475.826 118.683 475.613 119.147 475.56 119.712H474.2C474.232 119.104 474.397 118.565 474.696 118.096C474.994 117.627 475.4 117.264 475.912 117.008C476.424 116.741 477.021 116.608 477.704 116.608C478.429 116.608 479.037 116.736 479.528 116.992C480.018 117.248 480.386 117.589 480.632 118.016C480.888 118.443 481.016 118.912 481.016 119.424C481.016 119.797 480.946 120.155 480.808 120.496C480.669 120.837 480.461 121.136 480.184 121.392C479.917 121.637 479.57 121.813 479.144 121.92C479.581 122.005 479.97 122.176 480.312 122.432C480.664 122.677 480.941 122.997 481.144 123.392C481.346 123.787 481.448 124.251 481.448 124.784C481.448 125.392 481.304 125.957 481.016 126.48C480.738 126.992 480.322 127.408 479.768 127.728C479.213 128.037 478.525 128.192 477.704 128.192ZM484.476 128L490.988 116.8H492.332L485.82 128H484.476ZM491.516 128.192C491.036 128.192 490.604 128.085 490.22 127.872C489.836 127.648 489.526 127.333 489.292 126.928C489.068 126.523 488.956 126.048 488.956 125.504C488.956 124.949 489.068 124.475 489.292 124.08C489.526 123.675 489.836 123.365 490.22 123.152C490.604 122.928 491.036 122.816 491.516 122.816C492.006 122.816 492.438 122.928 492.812 123.152C493.196 123.365 493.5 123.675 493.724 124.08C493.948 124.475 494.06 124.949 494.06 125.504C494.06 126.048 493.948 126.523 493.724 126.928C493.5 127.333 493.196 127.648 492.812 127.872C492.428 128.085 491.996 128.192 491.516 128.192ZM491.5 127.152C491.756 127.152 491.99 127.093 492.204 126.976C492.417 126.848 492.588 126.661 492.716 126.416C492.854 126.171 492.924 125.867 492.924 125.504C492.924 125.131 492.86 124.821 492.732 124.576C492.604 124.331 492.433 124.149 492.22 124.032C492.006 123.904 491.772 123.84 491.516 123.84C491.27 123.84 491.036 123.904 490.812 124.032C490.598 124.149 490.422 124.331 490.284 124.576C490.156 124.821 490.092 125.131 490.092 125.504C490.092 125.867 490.156 126.171 490.284 126.416C490.422 126.661 490.598 126.848 490.812 126.976C491.025 127.093 491.254 127.152 491.5 127.152ZM485.404 122C484.924 122 484.492 121.893 484.108 121.68C483.724 121.456 483.414 121.141 483.18 120.736C482.956 120.331 482.844 119.856 482.844 119.312C482.844 118.757 482.956 118.283 483.18 117.888C483.414 117.483 483.724 117.173 484.108 116.96C484.502 116.736 484.94 116.624 485.42 116.624C485.9 116.624 486.332 116.736 486.716 116.96C487.1 117.173 487.404 117.483 487.628 117.888C487.852 118.283 487.964 118.757 487.964 119.312C487.964 119.856 487.852 120.331 487.628 120.736C487.404 121.141 487.094 121.456 486.7 121.68C486.316 121.893 485.884 122 485.404 122ZM485.404 120.96C485.66 120.96 485.894 120.901 486.108 120.784C486.321 120.656 486.492 120.469 486.62 120.224C486.748 119.979 486.812 119.675 486.812 119.312C486.812 118.939 486.748 118.629 486.62 118.384C486.492 118.128 486.321 117.941 486.108 117.824C485.894 117.696 485.665 117.632 485.42 117.632C485.174 117.632 484.94 117.696 484.716 117.824C484.492 117.941 484.31 118.128 484.172 118.384C484.044 118.629 483.98 118.939 483.98 119.312C483.98 119.675 484.044 119.979 484.172 120.224C484.31 120.469 484.486 120.656 484.7 120.784C484.924 120.901 485.158 120.96 485.404 120.96Z" fill="black"/>
<rect x="5.5" y="141" width="14" height="30" rx="2" fill="#E16741"/>
<rect x="22.5" y="141" width="14" height="30" rx="2" fill="#E16741"/>
<rect x="39.5" y="141" width="14" height="30" rx="2" fill="#E16741"/>
<rect x="56.5" y="141" width="14" height="30" rx="2" fill="#E16741"/>
<rect x="73.5" y="141" width="14" height="30" rx="2" fill="#E16741"/>
<rect x="90.5" y="141" width="14" height="30" rx="2" fill="#E16741"/>
<rect x="107.5" y="141" width="14" height="30" rx="2" fill="#E16741"/>
<rect x="124.5" y="141" width="14" height="30" rx="2" fill="#E16741"/>
<rect x="141.5" y="141" width="14" height="30" rx="2" fill="#E16741"/>
<rect x="158.5" y="141" width="14" height="30" rx="2" fill="#E16741"/>
<rect x="175.5" y="141" width="14" height="30" rx="2" fill="#E16741"/>
<rect x="192.5" y="141" width="14" height="30" rx="2" fill="#E16741"/>
<rect x="209.5" y="141" width="14" height="30" rx="2" fill="#E16741"/>
<rect x="226.5" y="141" width="14" height="30" rx="2" fill="#E16741"/>
<rect x="243.5" y="141" width="14" height="30" rx="2" fill="#E16741"/>
<rect x="260.5" y="141" width="14" height="30" rx="2" fill="#F5F5F5"/>
<rect x="277.5" y="141" width="14" height="30" rx="2" fill="#F5F5F5"/>
<rect x="294.5" y="141" width="14" height="30" rx="2" fill="#F5F5F5"/>
<rect x="311.5" y="141" width="14" height="30" rx="2" fill="#F5F5F5"/>
<rect x="328.5" y="141" width="14" height="30" rx="2" fill="#F5F5F5"/>
<rect x="345.5" y="141" width="14" height="30" rx="2" fill="#F5F5F5"/>
<rect x="362.5" y="141" width="14" height="30" rx="2" fill="#F5F5F5"/>
<rect x="379.5" y="141" width="14" height="30" rx="2" fill="#F5F5F5"/>
<rect x="396.5" y="141" width="14" height="30" rx="2" fill="#F5F5F5"/>
<rect x="413.5" y="141" width="14" height="30" rx="2" fill="#F5F5F5"/>
<rect x="430.5" y="141" width="14" height="30" rx="2" fill="#F5F5F5"/>
<rect x="447.5" y="141" width="14" height="30" rx="2" fill="#F5F5F5"/>
<rect x="464.5" y="141" width="14" height="30" rx="2" fill="#F5F5F5"/>
<rect x="481.5" y="141" width="14" height="30" rx="2" fill="#F5F5F5"/>
<path d="M11.708 203.192C10.6307 203.192 9.68133 202.952 8.86 202.472C8.04933 201.982 7.40933 201.304 6.94 200.44C6.48133 199.566 6.252 198.552 6.252 197.4C6.252 196.259 6.48133 195.256 6.94 194.392C7.40933 193.518 8.04933 192.835 8.86 192.344C9.68133 191.854 10.6307 191.608 11.708 191.608C12.8067 191.608 13.7613 191.854 14.572 192.344C15.3933 192.835 16.028 193.518 16.476 194.392C16.9347 195.256 17.164 196.259 17.164 197.4C17.164 198.552 16.9347 199.566 16.476 200.44C16.028 201.304 15.3933 201.982 14.572 202.472C13.7613 202.952 12.8067 203.192 11.708 203.192ZM11.708 202.008C12.5187 202.008 13.228 201.827 13.836 201.464C14.4547 201.091 14.9347 200.563 15.276 199.88C15.6173 199.187 15.788 198.36 15.788 197.4C15.788 196.44 15.6173 195.619 15.276 194.936C14.9347 194.243 14.4547 193.715 13.836 193.352C13.228 192.99 12.5187 192.808 11.708 192.808C10.8973 192.808 10.188 192.99 9.58 193.352C8.972 193.715 8.492 194.243 8.14 194.936C7.79867 195.619 7.628 196.44 7.628 197.4C7.628 198.36 7.79867 199.187 8.14 199.88C8.492 200.563 8.972 201.091 9.58 201.464C10.188 201.827 10.8973 202.008 11.708 202.008ZM19.0259 203V194.968H20.2419L20.3539 196.504C20.5352 196.142 20.7645 195.832 21.0419 195.576C21.3299 195.32 21.6712 195.123 22.0659 194.984C22.4605 194.846 22.9085 194.776 23.4099 194.776V196.184H22.9459C22.6045 196.184 22.2792 196.232 21.9699 196.328C21.6605 196.414 21.3832 196.558 21.1379 196.76C20.9032 196.952 20.7165 197.224 20.5779 197.576C20.4392 197.928 20.3699 198.36 20.3699 198.872V203H19.0259ZM27.913 206.712C27.1877 206.712 26.5477 206.616 25.993 206.424C25.4383 206.243 25.0063 205.96 24.697 205.576C24.3877 205.192 24.233 204.718 24.233 204.152C24.233 203.907 24.281 203.646 24.377 203.368C24.4837 203.102 24.6597 202.835 24.905 202.568C25.161 202.302 25.5183 202.062 25.977 201.848L26.889 202.392C26.3343 202.627 25.9717 202.894 25.801 203.192C25.6303 203.491 25.545 203.768 25.545 204.024C25.545 204.376 25.6463 204.67 25.849 204.904C26.0517 205.139 26.329 205.315 26.681 205.432C27.0437 205.55 27.4543 205.608 27.913 205.608C28.3717 205.608 28.7663 205.539 29.097 205.4C29.4277 205.272 29.6837 205.091 29.865 204.856C30.0463 204.632 30.137 204.36 30.137 204.04C30.137 203.678 29.9983 203.368 29.721 203.112C29.4437 202.867 28.921 202.723 28.153 202.68C27.513 202.638 26.9797 202.579 26.553 202.504C26.137 202.43 25.7903 202.344 25.513 202.248C25.2357 202.142 25.001 202.024 24.809 201.896C24.6277 201.768 24.4623 201.635 24.313 201.496V201.128L25.865 199.576L27.033 199.992L25.433 201.448L25.641 200.888C25.7583 200.974 25.8703 201.054 25.977 201.128C26.0837 201.192 26.2277 201.251 26.409 201.304C26.5903 201.358 26.841 201.411 27.161 201.464C27.481 201.507 27.913 201.55 28.457 201.592C29.1823 201.646 29.7637 201.774 30.201 201.976C30.649 202.179 30.969 202.451 31.161 202.792C31.3637 203.134 31.465 203.534 31.465 203.992C31.465 204.451 31.337 204.883 31.081 205.288C30.8357 205.704 30.4517 206.046 29.929 206.312C29.4063 206.579 28.7343 206.712 27.913 206.712ZM27.897 200.472C27.225 200.472 26.6543 200.35 26.185 200.104C25.7157 199.848 25.3583 199.507 25.113 199.08C24.8677 198.643 24.745 198.158 24.745 197.624C24.745 197.091 24.8677 196.611 25.113 196.184C25.3583 195.758 25.7157 195.416 26.185 195.16C26.6543 194.904 27.225 194.776 27.897 194.776C28.5797 194.776 29.1557 194.904 29.625 195.16C30.0943 195.416 30.4517 195.758 30.697 196.184C30.9423 196.611 31.065 197.091 31.065 197.624C31.065 198.158 30.9423 198.643 30.697 199.08C30.4517 199.507 30.0943 199.848 29.625 200.104C29.1557 200.35 28.5797 200.472 27.897 200.472ZM27.897 199.368C28.473 199.368 28.9263 199.224 29.257 198.936C29.5983 198.638 29.769 198.2 29.769 197.624C29.769 197.07 29.5983 196.643 29.257 196.344C28.9263 196.046 28.473 195.896 27.897 195.896C27.3317 195.896 26.8783 196.046 26.537 196.344C26.1957 196.643 26.025 197.07 26.025 197.624C26.025 198.2 26.1957 198.638 26.537 198.936C26.8783 199.224 27.3317 199.368 27.897 199.368ZM29.209 196.104L28.809 194.968H32.105V195.976L29.209 196.104ZM36.2753 203.192C35.6246 203.192 35.0806 203.08 34.6432 202.856C34.2059 202.622 33.8806 202.318 33.6673 201.944C33.4539 201.56 33.3473 201.15 33.3473 200.712C33.3473 200.168 33.4859 199.71 33.7633 199.336C34.0513 198.952 34.4513 198.664 34.9633 198.472C35.4859 198.27 36.0939 198.168 36.7873 198.168H38.9313C38.9313 197.667 38.8513 197.251 38.6913 196.92C38.5419 196.59 38.3179 196.339 38.0193 196.168C37.7206 195.998 37.3579 195.912 36.9313 195.912C36.4193 195.912 35.9766 196.04 35.6033 196.296C35.2299 196.552 35.0006 196.931 34.9153 197.432H33.5393C33.6033 196.856 33.7953 196.376 34.1153 195.992C34.4459 195.598 34.8619 195.299 35.3633 195.096C35.8646 194.883 36.3873 194.776 36.9313 194.776C37.6779 194.776 38.2966 194.915 38.7873 195.192C39.2779 195.459 39.6459 195.838 39.8913 196.328C40.1473 196.808 40.2753 197.374 40.2753 198.024V203H39.0753L38.9953 201.576C38.8886 201.8 38.7499 202.014 38.5793 202.216C38.4193 202.408 38.2273 202.579 38.0033 202.728C37.7899 202.867 37.5393 202.979 37.2513 203.064C36.9633 203.15 36.6379 203.192 36.2753 203.192ZM36.4833 202.056C36.8566 202.056 37.1926 201.982 37.4913 201.832C37.8006 201.672 38.0619 201.459 38.2753 201.192C38.4886 200.926 38.6486 200.627 38.7553 200.296C38.8726 199.955 38.9313 199.608 38.9313 199.256V199.208H36.8993C36.3873 199.208 35.9713 199.272 35.6513 199.4C35.3313 199.518 35.1019 199.688 34.9633 199.912C34.8246 200.126 34.7553 200.371 34.7553 200.648C34.7553 200.936 34.8193 201.187 34.9473 201.4C35.0859 201.603 35.2833 201.763 35.5393 201.88C35.7953 201.998 36.1099 202.056 36.4833 202.056ZM42.3384 203V194.968H43.5544L43.6344 196.376C43.8904 195.875 44.253 195.486 44.7224 195.208C45.2024 194.92 45.7464 194.776 46.3544 194.776C46.9837 194.776 47.5277 194.899 47.9864 195.144C48.445 195.39 48.8024 195.768 49.0584 196.28C49.3144 196.792 49.4424 197.438 49.4424 198.216V203H48.0984V198.36C48.0984 197.55 47.9224 196.942 47.5704 196.536C47.2184 196.131 46.7117 195.928 46.0504 195.928C45.6024 195.928 45.197 196.04 44.8344 196.264C44.4824 196.478 44.1997 196.792 43.9864 197.208C43.7837 197.624 43.6824 198.131 43.6824 198.728V203H42.3384ZM51.6543 203V194.968H52.9983V203H51.6543ZM52.3263 193.24C52.0596 193.24 51.8356 193.155 51.6543 192.984C51.4836 192.803 51.3983 192.579 51.3983 192.312C51.3983 192.046 51.4836 191.832 51.6543 191.672C51.8356 191.502 52.0596 191.416 52.3263 191.416C52.5823 191.416 52.8009 191.502 52.9823 191.672C53.1636 191.832 53.2543 192.046 53.2543 192.312C53.2543 192.579 53.1636 192.803 52.9823 192.984C52.8009 193.155 52.5823 193.24 52.3263 193.24ZM58.9864 203.192C58.229 203.192 57.5464 203.016 56.9384 202.664C56.341 202.312 55.8664 201.822 55.5144 201.192C55.173 200.563 55.0024 199.827 55.0024 198.984C55.0024 198.142 55.173 197.406 55.5144 196.776C55.8664 196.147 56.341 195.656 56.9384 195.304C57.5464 194.952 58.229 194.776 58.9864 194.776C59.9464 194.776 60.7464 195.027 61.3864 195.528C62.0264 196.019 62.4317 196.68 62.6024 197.512H61.2264C61.1197 197.011 60.8584 196.622 60.4424 196.344C60.0264 196.067 59.5357 195.928 58.9704 195.928C58.5117 195.928 58.085 196.046 57.6904 196.28C57.3064 196.504 56.9917 196.846 56.7464 197.304C56.501 197.752 56.3784 198.312 56.3784 198.984C56.3784 199.486 56.4477 199.928 56.5864 200.312C56.7357 200.696 56.9277 201.022 57.1624 201.288C57.397 201.544 57.669 201.736 57.9784 201.864C58.2984 201.992 58.629 202.056 58.9704 202.056C59.3544 202.056 59.701 201.998 60.0104 201.88C60.3197 201.752 60.581 201.571 60.7944 201.336C61.0077 201.091 61.1517 200.798 61.2264 200.456H62.6024C62.4317 201.278 62.021 201.939 61.3704 202.44C60.7304 202.942 59.9357 203.192 58.9864 203.192ZM72.393 203.192C71.5717 203.192 70.857 203.043 70.249 202.744C69.641 202.446 69.1717 202.03 68.841 201.496C68.5103 200.963 68.345 200.344 68.345 199.64H69.753C69.753 200.078 69.8543 200.483 70.057 200.856C70.2597 201.219 70.553 201.512 70.937 201.736C71.3317 201.95 71.817 202.056 72.393 202.056C72.8943 202.056 73.321 201.976 73.673 201.816C74.0357 201.646 74.3077 201.416 74.489 201.128C74.681 200.84 74.777 200.515 74.777 200.152C74.777 199.715 74.681 199.363 74.489 199.096C74.297 198.819 74.041 198.595 73.721 198.424C73.401 198.254 73.033 198.104 72.617 197.976C72.201 197.838 71.7583 197.688 71.289 197.528C70.4143 197.23 69.769 196.862 69.353 196.424C68.937 195.976 68.729 195.395 68.729 194.68C68.729 194.072 68.8677 193.539 69.145 193.08C69.433 192.622 69.8383 192.264 70.361 192.008C70.8943 191.742 71.5237 191.608 72.249 191.608C72.9637 191.608 73.5823 191.742 74.105 192.008C74.6383 192.275 75.0543 192.643 75.353 193.112C75.6517 193.571 75.801 194.104 75.801 194.712H74.393C74.393 194.403 74.313 194.099 74.153 193.8C73.993 193.502 73.7477 193.256 73.417 193.064C73.097 192.862 72.6917 192.76 72.201 192.76C71.7957 192.75 71.433 192.819 71.113 192.968C70.8037 193.107 70.5583 193.31 70.377 193.576C70.2063 193.843 70.121 194.168 70.121 194.552C70.121 194.915 70.1957 195.208 70.345 195.432C70.505 195.656 70.729 195.848 71.017 196.008C71.3157 196.158 71.6623 196.296 72.057 196.424C72.4517 196.552 72.889 196.696 73.369 196.856C73.913 197.038 74.393 197.262 74.809 197.528C75.2357 197.784 75.5663 198.115 75.801 198.52C76.0463 198.926 76.169 199.443 76.169 200.072C76.169 200.606 76.025 201.112 75.737 201.592C75.4597 202.062 75.0437 202.446 74.489 202.744C73.9343 203.043 73.2357 203.192 72.393 203.192ZM81.5623 203.192C80.8156 203.192 80.1489 203.016 79.5623 202.664C78.9756 202.312 78.5116 201.822 78.1703 201.192C77.8396 200.563 77.6743 199.827 77.6743 198.984C77.6743 198.131 77.8396 197.395 78.1703 196.776C78.5009 196.147 78.9596 195.656 79.5463 195.304C80.1436 194.952 80.8263 194.776 81.5943 194.776C82.3836 194.776 83.0556 194.952 83.6103 195.304C84.1649 195.656 84.5863 196.115 84.8743 196.68C85.1729 197.246 85.3223 197.87 85.3223 198.552C85.3223 198.659 85.3223 198.771 85.3223 198.888C85.3223 199.006 85.3169 199.139 85.3063 199.288H78.6823V198.248H83.9943C83.9623 197.512 83.7169 196.942 83.2583 196.536C82.8103 196.12 82.2449 195.912 81.5623 195.912C81.1143 195.912 80.6929 196.019 80.2983 196.232C79.9036 196.435 79.5836 196.734 79.3383 197.128C79.1036 197.523 78.9863 198.019 78.9863 198.616V199.064C78.9863 199.726 79.1089 200.28 79.3543 200.728C79.5996 201.166 79.9143 201.496 80.2983 201.72C80.6929 201.944 81.1143 202.056 81.5623 202.056C82.1276 202.056 82.5916 201.934 82.9543 201.688C83.3276 201.432 83.5996 201.086 83.7703 200.648H85.0983C84.9596 201.139 84.7303 201.576 84.4103 201.96C84.0903 202.334 83.6903 202.632 83.2103 202.856C82.7409 203.08 82.1916 203.192 81.5623 203.192ZM89.744 203.192C89.0933 203.192 88.5493 203.08 88.112 202.856C87.6747 202.622 87.3493 202.318 87.136 201.944C86.9227 201.56 86.816 201.15 86.816 200.712C86.816 200.168 86.9547 199.71 87.232 199.336C87.52 198.952 87.92 198.664 88.432 198.472C88.9547 198.27 89.5627 198.168 90.256 198.168H92.4C92.4 197.667 92.32 197.251 92.16 196.92C92.0107 196.59 91.7867 196.339 91.488 196.168C91.1893 195.998 90.8267 195.912 90.4 195.912C89.888 195.912 89.4453 196.04 89.072 196.296C88.6987 196.552 88.4693 196.931 88.384 197.432H87.008C87.072 196.856 87.264 196.376 87.584 195.992C87.9147 195.598 88.3307 195.299 88.832 195.096C89.3333 194.883 89.856 194.776 90.4 194.776C91.1467 194.776 91.7653 194.915 92.256 195.192C92.7467 195.459 93.1147 195.838 93.36 196.328C93.616 196.808 93.744 197.374 93.744 198.024V203H92.544L92.464 201.576C92.3573 201.8 92.2187 202.014 92.048 202.216C91.888 202.408 91.696 202.579 91.472 202.728C91.2587 202.867 91.008 202.979 90.72 203.064C90.432 203.15 90.1067 203.192 89.744 203.192ZM89.952 202.056C90.3253 202.056 90.6613 201.982 90.96 201.832C91.2693 201.672 91.5307 201.459 91.744 201.192C91.9573 200.926 92.1173 200.627 92.224 200.296C92.3413 199.955 92.4 199.608 92.4 199.256V199.208H90.368C89.856 199.208 89.44 199.272 89.12 199.4C88.8 199.518 88.5707 199.688 88.432 199.912C88.2933 200.126 88.224 200.371 88.224 200.648C88.224 200.936 88.288 201.187 88.416 201.4C88.5547 201.603 88.752 201.763 89.008 201.88C89.264 201.998 89.5787 202.056 89.952 202.056ZM95.8071 203V194.968H97.0231L97.1351 196.504C97.3165 196.142 97.5458 195.832 97.8231 195.576C98.1111 195.32 98.4525 195.123 98.8471 194.984C99.2418 194.846 99.6898 194.776 100.191 194.776V196.184H99.7271C99.3858 196.184 99.0605 196.232 98.7511 196.328C98.4418 196.414 98.1645 196.558 97.9191 196.76C97.6845 196.952 97.4978 197.224 97.3591 197.576C97.2205 197.928 97.1511 198.36 97.1511 198.872V203H95.8071ZM105.049 203.192C104.292 203.192 103.609 203.016 103.001 202.664C102.404 202.312 101.929 201.822 101.577 201.192C101.236 200.563 101.065 199.827 101.065 198.984C101.065 198.142 101.236 197.406 101.577 196.776C101.929 196.147 102.404 195.656 103.001 195.304C103.609 194.952 104.292 194.776 105.049 194.776C106.009 194.776 106.809 195.027 107.449 195.528C108.089 196.019 108.494 196.68 108.665 197.512H107.289C107.182 197.011 106.921 196.622 106.505 196.344C106.089 196.067 105.598 195.928 105.033 195.928C104.574 195.928 104.148 196.046 103.753 196.28C103.369 196.504 103.054 196.846 102.809 197.304C102.564 197.752 102.441 198.312 102.441 198.984C102.441 199.486 102.51 199.928 102.649 200.312C102.798 200.696 102.99 201.022 103.225 201.288C103.46 201.544 103.732 201.736 104.041 201.864C104.361 201.992 104.692 202.056 105.033 202.056C105.417 202.056 105.764 201.998 106.073 201.88C106.382 201.752 106.644 201.571 106.857 201.336C107.07 201.091 107.214 200.798 107.289 200.456H108.665C108.494 201.278 108.084 201.939 107.433 202.44C106.793 202.942 105.998 203.192 105.049 203.192ZM110.542 203V191.48H111.886V196.328C112.163 195.838 112.542 195.459 113.022 195.192C113.502 194.915 114.035 194.776 114.622 194.776C115.24 194.776 115.774 194.904 116.222 195.16C116.68 195.406 117.032 195.784 117.278 196.296C117.534 196.808 117.661 197.454 117.661 198.232V203H116.334V198.376C116.334 197.566 116.163 196.958 115.822 196.552C115.48 196.136 114.984 195.928 114.334 195.928C113.875 195.928 113.459 196.04 113.086 196.264C112.723 196.478 112.43 196.798 112.206 197.224C111.992 197.64 111.886 198.152 111.886 198.76V203H110.542Z" fill="#0D0D0D"/>
<path d="M438.14 197.56L443.996 191.8H444.716L450.572 197.56L449.708 198.424L445.02 193.768V203H443.708V193.736L439.004 198.408L438.14 197.56Z" fill="#00F327"/>
<path d="M457.869 203V193.304L455.965 193.768V192.824L458.317 191.8H459.229V203H457.869ZM465.398 203.192C464.641 203.192 463.979 203.054 463.414 202.776C462.849 202.499 462.401 202.12 462.07 201.64C461.75 201.16 461.547 200.616 461.462 200.008H462.774C462.902 200.616 463.195 201.107 463.654 201.48C464.113 201.854 464.699 202.04 465.414 202.04C465.947 202.04 466.401 201.918 466.774 201.672C467.158 201.416 467.451 201.08 467.654 200.664C467.867 200.238 467.974 199.763 467.974 199.24C467.974 198.686 467.867 198.206 467.654 197.8C467.451 197.384 467.158 197.059 466.774 196.824C466.401 196.59 465.969 196.472 465.478 196.472C464.859 196.472 464.331 196.606 463.894 196.872C463.467 197.139 463.153 197.486 462.95 197.912H461.654L462.598 191.8H468.502V192.968H463.638L462.998 196.392C463.265 196.083 463.622 195.832 464.07 195.64C464.518 195.438 465.035 195.336 465.622 195.336C466.166 195.336 466.662 195.438 467.11 195.64C467.558 195.832 467.942 196.104 468.262 196.456C468.593 196.808 468.843 197.219 469.014 197.688C469.185 198.158 469.27 198.67 469.27 199.224C469.27 199.758 469.185 200.264 469.014 200.744C468.843 201.224 468.587 201.651 468.246 202.024C467.915 202.387 467.51 202.675 467.03 202.888C466.561 203.091 466.017 203.192 465.398 203.192ZM470.267 204.968L471.195 201.432H472.587L471.195 204.968H470.267ZM477.782 203.192C477.067 203.192 476.416 203.064 475.83 202.808C475.254 202.542 474.795 202.147 474.454 201.624C474.112 201.102 473.931 200.451 473.91 199.672H475.27C475.28 200.099 475.382 200.494 475.574 200.856C475.776 201.208 476.064 201.491 476.438 201.704C476.811 201.918 477.259 202.024 477.782 202.024C478.304 202.024 478.742 201.923 479.094 201.72C479.446 201.518 479.712 201.251 479.894 200.92C480.075 200.579 480.166 200.2 480.166 199.784C480.166 199.262 480.038 198.84 479.782 198.52C479.536 198.19 479.2 197.944 478.774 197.784C478.358 197.624 477.899 197.544 477.398 197.544H476.566V196.408H477.398C478.134 196.408 478.704 196.243 479.11 195.912C479.526 195.571 479.734 195.102 479.734 194.504C479.734 194.014 479.568 193.603 479.238 193.272C478.918 192.942 478.432 192.776 477.782 192.776C477.152 192.776 476.651 192.958 476.278 193.32C475.904 193.683 475.691 194.147 475.638 194.712H474.278C474.31 194.104 474.475 193.566 474.774 193.096C475.072 192.627 475.478 192.264 475.99 192.008C476.502 191.742 477.099 191.608 477.782 191.608C478.507 191.608 479.115 191.736 479.606 191.992C480.096 192.248 480.464 192.59 480.71 193.016C480.966 193.443 481.094 193.912 481.094 194.424C481.094 194.798 481.024 195.155 480.886 195.496C480.747 195.838 480.539 196.136 480.262 196.392C479.995 196.638 479.648 196.814 479.222 196.92C479.659 197.006 480.048 197.176 480.39 197.432C480.742 197.678 481.019 197.998 481.222 198.392C481.424 198.787 481.526 199.251 481.526 199.784C481.526 200.392 481.382 200.958 481.094 201.48C480.816 201.992 480.4 202.408 479.846 202.728C479.291 203.038 478.603 203.192 477.782 203.192ZM484.554 203L491.066 191.8H492.41L485.898 203H484.554ZM491.594 203.192C491.114 203.192 490.682 203.086 490.298 202.872C489.914 202.648 489.604 202.334 489.37 201.928C489.146 201.523 489.034 201.048 489.034 200.504C489.034 199.95 489.146 199.475 489.37 199.08C489.604 198.675 489.914 198.366 490.298 198.152C490.682 197.928 491.114 197.816 491.594 197.816C492.084 197.816 492.516 197.928 492.89 198.152C493.274 198.366 493.578 198.675 493.802 199.08C494.026 199.475 494.138 199.95 494.138 200.504C494.138 201.048 494.026 201.523 493.802 201.928C493.578 202.334 493.274 202.648 492.89 202.872C492.506 203.086 492.074 203.192 491.594 203.192ZM491.578 202.152C491.834 202.152 492.068 202.094 492.282 201.976C492.495 201.848 492.666 201.662 492.794 201.416C492.932 201.171 493.002 200.867 493.002 200.504C493.002 200.131 492.938 199.822 492.81 199.576C492.682 199.331 492.511 199.15 492.298 199.032C492.084 198.904 491.85 198.84 491.594 198.84C491.348 198.84 491.114 198.904 490.89 199.032C490.676 199.15 490.5 199.331 490.362 199.576C490.234 199.822 490.17 200.131 490.17 200.504C490.17 200.867 490.234 201.171 490.362 201.416C490.5 201.662 490.676 201.848 490.89 201.976C491.103 202.094 491.332 202.152 491.578 202.152ZM485.482 197C485.002 197 484.57 196.894 484.186 196.68C483.802 196.456 483.492 196.142 483.258 195.736C483.034 195.331 482.922 194.856 482.922 194.312C482.922 193.758 483.034 193.283 483.258 192.888C483.492 192.483 483.802 192.174 484.186 191.96C484.58 191.736 485.018 191.624 485.498 191.624C485.978 191.624 486.41 191.736 486.794 191.96C487.178 192.174 487.482 192.483 487.706 192.888C487.93 193.283 488.042 193.758 488.042 194.312C488.042 194.856 487.93 195.331 487.706 195.736C487.482 196.142 487.172 196.456 486.778 196.68C486.394 196.894 485.962 197 485.482 197ZM485.482 195.96C485.738 195.96 485.972 195.902 486.186 195.784C486.399 195.656 486.57 195.47 486.698 195.224C486.826 194.979 486.89 194.675 486.89 194.312C486.89 193.939 486.826 193.63 486.698 193.384C486.57 193.128 486.399 192.942 486.186 192.824C485.972 192.696 485.743 192.632 485.498 192.632C485.252 192.632 485.018 192.696 484.794 192.824C484.57 192.942 484.388 193.128 484.25 193.384C484.122 193.63 484.058 193.939 484.058 194.312C484.058 194.675 484.122 194.979 484.25 195.224C484.388 195.47 484.564 195.656 484.778 195.784C485.002 195.902 485.236 195.96 485.482 195.96Z" fill="black"/>
<rect x="5.5" y="216" width="14" height="30" rx="2" fill="#FFBF49"/>
<rect x="22.5" y="216" width="14" height="30" rx="2" fill="#FFBF49"/>
<rect x="39.5" y="216" width="14" height="30" rx="2" fill="#FFBF49"/>
<rect x="56.5" y="216" width="14" height="30" rx="2" fill="#FFBF49"/>
<rect x="73.5" y="216" width="14" height="30" rx="2" fill="#FFBF49"/>
<rect x="90.5" y="216" width="14" height="30" rx="2" fill="#FFBF49"/>
<rect x="107.5" y="216" width="14" height="30" rx="2" fill="#FFBF49"/>
<rect x="124.5" y="216" width="14" height="30" rx="2" fill="#FFBF49"/>
<rect x="141.5" y="216" width="14" height="30" rx="2" fill="#FFBF49"/>
<rect x="158.5" y="216" width="14" height="30" rx="2" fill="#FFBF49"/>
<rect x="175.5" y="216" width="14" height="30" rx="2" fill="#FFBF49"/>
<rect x="192.5" y="216" width="14" height="30" rx="2" fill="#FFBF49"/>
<rect x="209.5" y="216" width="14" height="30" rx="2" fill="#FFBF49"/>
<rect x="226.5" y="216" width="14" height="30" rx="2" fill="#FFBF49"/>
<rect x="243.5" y="216" width="14" height="30" rx="2" fill="#FFBF49"/>
<rect x="260.5" y="216" width="14" height="30" rx="2" fill="#FFBF49"/>
<rect x="277.5" y="216" width="14" height="30" rx="2" fill="#FFBF49"/>
<rect x="294.5" y="216" width="14" height="30" rx="2" fill="#FFBF49"/>
<rect x="311.5" y="216" width="14" height="30" rx="2" fill="#F5F5F5"/>
<rect x="362.5" y="216" width="14" height="30" rx="2" fill="#F5F5F5"/>
<rect x="345.5" y="216.058" width="14" height="30" rx="2" fill="#F5F5F5"/>
<rect x="328.5" y="216.032" width="14" height="30" rx="2" fill="#F5F5F5"/>
<rect x="379.5" y="216" width="14" height="30" rx="2" fill="#F5F5F5"/>
<rect x="430.5" y="216" width="14" height="30" rx="2" fill="#F5F5F5"/>
<rect x="413.5" y="216.058" width="14" height="30" rx="2" fill="#F5F5F5"/>
<rect x="396.5" y="216.032" width="14" height="30" rx="2" fill="#F5F5F5"/>
<rect x="447.5" y="216" width="14" height="30" rx="2" fill="#F5F5F5"/>
<rect x="481.5" y="216.058" width="14" height="30" rx="2" fill="#F5F5F5"/>
<rect x="464.5" y="216.032" width="14" height="30" rx="2" fill="#F5F5F5"/>
<path d="M6.7 278.058V266.858H10.316C11.1907 266.858 11.9053 267.007 12.46 267.306C13.0147 267.594 13.4253 267.983 13.692 268.474C13.9587 268.964 14.092 269.519 14.092 270.138C14.092 270.735 13.9533 271.284 13.676 271.786C13.4093 272.287 12.9933 272.687 12.428 272.986C11.8627 273.284 11.1373 273.434 10.252 273.434H8.044V278.058H6.7ZM12.62 278.058L10.156 273.05H11.66L14.204 278.058H12.62ZM8.044 272.378H10.22C11.0733 272.378 11.6973 272.17 12.092 271.754C12.4973 271.338 12.7 270.804 12.7 270.154C12.7 269.492 12.5027 268.97 12.108 268.586C11.724 268.191 11.0893 267.994 10.204 267.994H8.044V272.378ZM19.1716 278.25C18.425 278.25 17.7583 278.074 17.1716 277.722C16.585 277.37 16.121 276.879 15.7796 276.25C15.449 275.62 15.2836 274.884 15.2836 274.042C15.2836 273.188 15.449 272.452 15.7796 271.834C16.1103 271.204 16.569 270.714 17.1556 270.362C17.753 270.01 18.4356 269.834 19.2036 269.834C19.993 269.834 20.665 270.01 21.2196 270.362C21.7743 270.714 22.1956 271.172 22.4836 271.738C22.7823 272.303 22.9316 272.927 22.9316 273.61C22.9316 273.716 22.9316 273.828 22.9316 273.946C22.9316 274.063 22.9263 274.196 22.9156 274.346H16.2916V273.306H21.6036C21.5716 272.57 21.3263 271.999 20.8676 271.594C20.4196 271.178 19.8543 270.97 19.1716 270.97C18.7236 270.97 18.3023 271.076 17.9076 271.29C17.513 271.492 17.193 271.791 16.9476 272.186C16.713 272.58 16.5956 273.076 16.5956 273.674V274.122C16.5956 274.783 16.7183 275.338 16.9636 275.786C17.209 276.223 17.5236 276.554 17.9076 276.778C18.3023 277.002 18.7236 277.114 19.1716 277.114C19.737 277.114 20.201 276.991 20.5636 276.746C20.937 276.49 21.209 276.143 21.3796 275.706H22.7076C22.569 276.196 22.3396 276.634 22.0196 277.018C21.6996 277.391 21.2996 277.69 20.8196 277.914C20.3503 278.138 19.801 278.25 19.1716 278.25ZM25.1774 278.058V268.746C25.1774 268.234 25.2627 267.818 25.4334 267.498C25.604 267.167 25.8547 266.927 26.1854 266.778C26.5267 266.618 26.9427 266.538 27.4334 266.538H28.3134V267.69H27.6414C27.236 267.69 26.948 267.77 26.7774 267.93C26.6067 268.09 26.5214 268.372 26.5214 268.778V278.058H25.1774ZM23.9454 271.162V270.026H28.5214V271.162H23.9454ZM33.3748 278.25C32.6281 278.25 31.9614 278.074 31.3748 277.722C30.7881 277.37 30.3241 276.879 29.9828 276.25C29.6521 275.62 29.4868 274.884 29.4868 274.042C29.4868 273.188 29.6521 272.452 29.9828 271.834C30.3134 271.204 30.7721 270.714 31.3588 270.362C31.9561 270.01 32.6388 269.834 33.4068 269.834C34.1961 269.834 34.8681 270.01 35.4228 270.362C35.9774 270.714 36.3988 271.172 36.6868 271.738C36.9854 272.303 37.1348 272.927 37.1348 273.61C37.1348 273.716 37.1348 273.828 37.1348 273.946C37.1348 274.063 37.1294 274.196 37.1188 274.346H30.4948V273.306H35.8068C35.7748 272.57 35.5294 271.999 35.0708 271.594C34.6228 271.178 34.0574 270.97 33.3748 270.97C32.9268 270.97 32.5054 271.076 32.1108 271.29C31.7161 271.492 31.3961 271.791 31.1508 272.186C30.9161 272.58 30.7988 273.076 30.7988 273.674V274.122C30.7988 274.783 30.9214 275.338 31.1668 275.786C31.4121 276.223 31.7268 276.554 32.1108 276.778C32.5054 277.002 32.9268 277.114 33.3748 277.114C33.9401 277.114 34.4041 276.991 34.7668 276.746C35.1401 276.49 35.4121 276.143 35.5828 275.706H36.9108C36.7721 276.196 36.5428 276.634 36.2228 277.018C35.9028 277.391 35.5028 277.69 35.0228 277.914C34.5534 278.138 34.0041 278.25 33.3748 278.25ZM38.9165 278.058V270.026H40.1325L40.2445 271.562C40.4258 271.199 40.6552 270.89 40.9325 270.634C41.2205 270.378 41.5618 270.18 41.9565 270.042C42.3512 269.903 42.7992 269.834 43.3005 269.834V271.242H42.8365C42.4952 271.242 42.1698 271.29 41.8605 271.386C41.5512 271.471 41.2738 271.615 41.0285 271.818C40.7938 272.01 40.6072 272.282 40.4685 272.634C40.3298 272.986 40.2605 273.418 40.2605 273.93V278.058H38.9165ZM44.8071 278.058V270.026H46.0231L46.1351 271.562C46.3165 271.199 46.5458 270.89 46.8231 270.634C47.1111 270.378 47.4525 270.18 47.8471 270.042C48.2418 269.903 48.6898 269.834 49.1911 269.834V271.242H48.7271C48.3858 271.242 48.0605 271.29 47.7511 271.386C47.4418 271.471 47.1645 271.615 46.9191 271.818C46.6845 272.01 46.4978 272.282 46.3591 272.634C46.2205 272.986 46.1511 273.418 46.1511 273.93V278.058H44.8071ZM53.3378 278.25C52.6871 278.25 52.1431 278.138 51.7057 277.914C51.2684 277.679 50.9431 277.375 50.7298 277.002C50.5164 276.618 50.4098 276.207 50.4098 275.77C50.4098 275.226 50.5484 274.767 50.8258 274.394C51.1138 274.01 51.5138 273.722 52.0258 273.53C52.5484 273.327 53.1564 273.226 53.8498 273.226H55.9938C55.9938 272.724 55.9138 272.308 55.7538 271.978C55.6044 271.647 55.3804 271.396 55.0818 271.226C54.7831 271.055 54.4204 270.97 53.9938 270.97C53.4818 270.97 53.0391 271.098 52.6658 271.354C52.2924 271.61 52.0631 271.988 51.9778 272.49H50.6018C50.6658 271.914 50.8578 271.434 51.1778 271.05C51.5084 270.655 51.9244 270.356 52.4258 270.154C52.9271 269.94 53.4498 269.834 53.9938 269.834C54.7404 269.834 55.3591 269.972 55.8498 270.25C56.3404 270.516 56.7084 270.895 56.9538 271.386C57.2098 271.866 57.3378 272.431 57.3378 273.082V278.058H56.1378L56.0578 276.634C55.9511 276.858 55.8124 277.071 55.6418 277.274C55.4818 277.466 55.2898 277.636 55.0658 277.786C54.8524 277.924 54.6018 278.036 54.3138 278.122C54.0258 278.207 53.7004 278.25 53.3378 278.25ZM53.5458 277.114C53.9191 277.114 54.2551 277.039 54.5538 276.89C54.8631 276.73 55.1244 276.516 55.3378 276.25C55.5511 275.983 55.7111 275.684 55.8178 275.354C55.9351 275.012 55.9938 274.666 55.9938 274.314V274.266H53.9618C53.4498 274.266 53.0338 274.33 52.7138 274.458C52.3938 274.575 52.1644 274.746 52.0258 274.97C51.8871 275.183 51.8178 275.428 51.8178 275.706C51.8178 275.994 51.8818 276.244 52.0098 276.458C52.1484 276.66 52.3458 276.82 52.6018 276.938C52.8578 277.055 53.1724 277.114 53.5458 277.114ZM59.4009 278.058V266.538H60.7449V278.058H59.4009Z" fill="#0D0D0D"/>
<path d="M433.14 272.298L434.004 271.45L438.708 276.122V266.858H440.02V276.09L444.708 271.434L445.572 272.298L439.716 278.058H438.996L433.14 272.298Z" fill="#EE2626"/>
<path d="M455.157 278.25C454.442 278.25 453.791 278.122 453.205 277.866C452.629 277.599 452.17 277.204 451.829 276.682C451.487 276.159 451.306 275.508 451.285 274.73H452.645C452.655 275.156 452.757 275.551 452.949 275.914C453.151 276.266 453.439 276.548 453.813 276.762C454.186 276.975 454.634 277.082 455.157 277.082C455.679 277.082 456.117 276.98 456.469 276.778C456.821 276.575 457.087 276.308 457.269 275.978C457.45 275.636 457.541 275.258 457.541 274.842C457.541 274.319 457.413 273.898 457.157 273.578C456.911 273.247 456.575 273.002 456.149 272.842C455.733 272.682 455.274 272.602 454.773 272.602H453.941V271.466H454.773C455.509 271.466 456.079 271.3 456.485 270.97C456.901 270.628 457.109 270.159 457.109 269.562C457.109 269.071 456.943 268.66 456.613 268.33C456.293 267.999 455.807 267.834 455.157 267.834C454.527 267.834 454.026 268.015 453.653 268.378C453.279 268.74 453.066 269.204 453.013 269.77H451.653C451.685 269.162 451.85 268.623 452.149 268.154C452.447 267.684 452.853 267.322 453.365 267.066C453.877 266.799 454.474 266.666 455.157 266.666C455.882 266.666 456.49 266.794 456.981 267.05C457.471 267.306 457.839 267.647 458.085 268.074C458.341 268.5 458.469 268.97 458.469 269.482C458.469 269.855 458.399 270.212 458.261 270.554C458.122 270.895 457.914 271.194 457.637 271.45C457.37 271.695 457.023 271.871 456.597 271.978C457.034 272.063 457.423 272.234 457.765 272.49C458.117 272.735 458.394 273.055 458.597 273.45C458.799 273.844 458.901 274.308 458.901 274.842C458.901 275.45 458.757 276.015 458.469 276.538C458.191 277.05 457.775 277.466 457.221 277.786C456.666 278.095 455.978 278.25 455.157 278.25ZM465.122 278.25C464.312 278.25 463.629 278.1 463.074 277.802C462.52 277.492 462.077 277.082 461.746 276.57C461.416 276.058 461.17 275.487 461.01 274.858C460.861 274.218 460.786 273.567 460.786 272.906C460.786 271.668 460.957 270.586 461.298 269.658C461.64 268.719 462.13 267.988 462.77 267.466C463.421 266.932 464.2 266.666 465.106 266.666C465.81 266.666 466.413 266.804 466.914 267.082C467.426 267.359 467.826 267.727 468.114 268.186C468.413 268.644 468.594 269.151 468.658 269.706H467.41C467.304 269.108 467.048 268.65 466.642 268.33C466.237 267.999 465.72 267.834 465.09 267.834C464.536 267.834 464.034 268.01 463.586 268.362C463.138 268.703 462.781 269.226 462.514 269.93C462.258 270.634 462.109 271.535 462.066 272.634C462.066 272.655 462.066 272.676 462.066 272.698C462.066 272.719 462.066 272.74 462.066 272.762C462.226 272.42 462.461 272.111 462.77 271.834C463.08 271.546 463.448 271.316 463.874 271.146C464.301 270.975 464.776 270.89 465.298 270.89C465.938 270.89 466.536 271.039 467.09 271.338C467.645 271.636 468.093 272.058 468.434 272.602C468.786 273.135 468.962 273.764 468.962 274.49C468.962 275.119 468.808 275.722 468.498 276.298C468.189 276.874 467.746 277.343 467.17 277.706C466.594 278.068 465.912 278.25 465.122 278.25ZM465.026 277.066C465.517 277.066 465.954 276.959 466.338 276.746C466.733 276.522 467.042 276.223 467.266 275.85C467.49 275.466 467.602 275.034 467.602 274.554C467.602 274.052 467.49 273.615 467.266 273.242C467.042 272.868 466.733 272.58 466.338 272.378C465.954 272.164 465.517 272.058 465.026 272.058C464.536 272.058 464.093 272.175 463.698 272.41C463.304 272.634 462.989 272.938 462.754 273.322C462.53 273.695 462.418 274.111 462.418 274.57C462.418 275.05 462.53 275.476 462.754 275.85C462.989 276.223 463.304 276.522 463.698 276.746C464.093 276.959 464.536 277.066 465.026 277.066ZM470.033 280.026L470.961 276.49H472.353L470.961 280.026H470.033ZM477.547 278.25C476.833 278.25 476.182 278.122 475.595 277.866C475.019 277.599 474.561 277.204 474.219 276.682C473.878 276.159 473.697 275.508 473.675 274.73H475.035C475.046 275.156 475.147 275.551 475.339 275.914C475.542 276.266 475.83 276.548 476.203 276.762C476.577 276.975 477.025 277.082 477.547 277.082C478.07 277.082 478.507 276.98 478.859 276.778C479.211 276.575 479.478 276.308 479.659 275.978C479.841 275.636 479.931 275.258 479.931 274.842C479.931 274.319 479.803 273.898 479.547 273.578C479.302 273.247 478.966 273.002 478.539 272.842C478.123 272.682 477.665 272.602 477.163 272.602H476.331V271.466H477.163C477.899 271.466 478.47 271.3 478.875 270.97C479.291 270.628 479.499 270.159 479.499 269.562C479.499 269.071 479.334 268.66 479.003 268.33C478.683 267.999 478.198 267.834 477.547 267.834C476.918 267.834 476.417 268.015 476.043 268.378C475.67 268.74 475.457 269.204 475.403 269.77H474.043C474.075 269.162 474.241 268.623 474.539 268.154C474.838 267.684 475.243 267.322 475.755 267.066C476.267 266.799 476.865 266.666 477.547 266.666C478.273 266.666 478.881 266.794 479.371 267.05C479.862 267.306 480.23 267.647 480.475 268.074C480.731 268.5 480.859 268.97 480.859 269.482C480.859 269.855 480.79 270.212 480.651 270.554C480.513 270.895 480.305 271.194 480.027 271.45C479.761 271.695 479.414 271.871 478.987 271.978C479.425 272.063 479.814 272.234 480.155 272.49C480.507 272.735 480.785 273.055 480.987 273.45C481.19 273.844 481.291 274.308 481.291 274.842C481.291 275.45 481.147 276.015 480.859 276.538C480.582 277.05 480.166 277.466 479.611 277.786C479.057 278.095 478.369 278.25 477.547 278.25ZM484.319 278.058L490.831 266.858H492.175L485.663 278.058H484.319ZM491.359 278.25C490.879 278.25 490.447 278.143 490.063 277.93C489.679 277.706 489.37 277.391 489.135 276.986C488.911 276.58 488.799 276.106 488.799 275.562C488.799 275.007 488.911 274.532 489.135 274.138C489.37 273.732 489.679 273.423 490.063 273.21C490.447 272.986 490.879 272.874 491.359 272.874C491.85 272.874 492.282 272.986 492.655 273.21C493.039 273.423 493.343 273.732 493.567 274.138C493.791 274.532 493.903 275.007 493.903 275.562C493.903 276.106 493.791 276.58 493.567 276.986C493.343 277.391 493.039 277.706 492.655 277.93C492.271 278.143 491.839 278.25 491.359 278.25ZM491.343 277.21C491.599 277.21 491.834 277.151 492.047 277.034C492.261 276.906 492.431 276.719 492.559 276.474C492.698 276.228 492.767 275.924 492.767 275.562C492.767 275.188 492.703 274.879 492.575 274.634C492.447 274.388 492.277 274.207 492.063 274.09C491.85 273.962 491.615 273.898 491.359 273.898C491.114 273.898 490.879 273.962 490.655 274.09C490.442 274.207 490.266 274.388 490.127 274.634C489.999 274.879 489.935 275.188 489.935 275.562C489.935 275.924 489.999 276.228 490.127 276.474C490.266 276.719 490.442 276.906 490.655 277.034C490.869 277.151 491.098 277.21 491.343 277.21ZM485.247 272.058C484.767 272.058 484.335 271.951 483.951 271.738C483.567 271.514 483.258 271.199 483.023 270.794C482.799 270.388 482.687 269.914 482.687 269.37C482.687 268.815 482.799 268.34 483.023 267.946C483.258 267.54 483.567 267.231 483.951 267.018C484.346 266.794 484.783 266.682 485.263 266.682C485.743 266.682 486.175 266.794 486.559 267.018C486.943 267.231 487.247 267.54 487.471 267.946C487.695 268.34 487.807 268.815 487.807 269.37C487.807 269.914 487.695 270.388 487.471 270.794C487.247 271.199 486.938 271.514 486.543 271.738C486.159 271.951 485.727 272.058 485.247 272.058ZM485.247 271.018C485.503 271.018 485.738 270.959 485.951 270.842C486.165 270.714 486.335 270.527 486.463 270.282C486.591 270.036 486.655 269.732 486.655 269.37C486.655 268.996 486.591 268.687 486.463 268.442C486.335 268.186 486.165 267.999 485.951 267.882C485.738 267.754 485.509 267.69 485.263 267.69C485.018 267.69 484.783 267.754 484.559 267.882C484.335 267.999 484.154 268.186 484.015 268.442C483.887 268.687 483.823 268.996 483.823 269.37C483.823 269.732 483.887 270.036 484.015 270.282C484.154 270.527 484.33 270.714 484.543 270.842C484.767 270.959 485.002 271.018 485.247 271.018Z" fill="black"/>
<rect x="5.5" y="291.058" width="14" height="30" rx="2" fill="#68BBFA"/>
<rect x="22.5" y="291.058" width="14" height="30" rx="2" fill="#68BBFA"/>
<rect x="39.5" y="291.058" width="14" height="30" rx="2" fill="#68BBFA"/>
<rect x="56.5" y="291.058" width="14" height="30" rx="2" fill="#68BBFA"/>
<rect x="73.5" y="291.058" width="14" height="30" rx="2" fill="#68BBFA"/>
<rect x="90.5" y="291.058" width="14" height="30" rx="2" fill="#68BBFA"/>
<rect x="107.5" y="291.058" width="14" height="30" rx="2" fill="#68BBFA"/>
<rect x="124.5" y="291.058" width="14" height="30" rx="2" fill="#68BBFA"/>
<rect x="141.5" y="291.058" width="14" height="30" rx="2" fill="#68BBFA"/>
<rect x="158.5" y="291.058" width="14" height="30" rx="2" fill="#F5F5F5"/>
<rect x="175.5" y="291.058" width="14" height="30" rx="2" fill="#F5F5F5"/>
<rect x="192.5" y="291.058" width="14" height="30" rx="2" fill="#F5F5F5"/>
<rect x="209.5" y="291.058" width="14" height="30" rx="2" fill="#F5F5F5"/>
<rect x="226.5" y="291.058" width="14" height="30" rx="2" fill="#F5F5F5"/>
<rect x="243.5" y="291.058" width="14" height="30" rx="2" fill="#F5F5F5"/>
<rect x="260.5" y="291.058" width="14" height="30" rx="2" fill="#F5F5F5"/>
<rect x="277.5" y="291.058" width="14" height="30" rx="2" fill="#F5F5F5"/>
<rect x="294.5" y="291.058" width="14" height="30" rx="2" fill="#F5F5F5"/>
<rect x="311.5" y="291.058" width="14" height="30" rx="2" fill="#F5F5F5"/>
<rect x="328.5" y="291.058" width="14" height="30" rx="2" fill="#F5F5F5"/>
<rect x="345.5" y="291.058" width="14" height="30" rx="2" fill="#F5F5F5"/>
<rect x="362.5" y="291.058" width="14" height="30" rx="2" fill="#F5F5F5"/>
<rect x="379.5" y="291.058" width="14" height="30" rx="2" fill="#F5F5F5"/>
<rect x="396.5" y="291.058" width="14" height="30" rx="2" fill="#F5F5F5"/>
<rect x="413.5" y="291.058" width="14" height="30" rx="2" fill="#F5F5F5"/>
<rect x="430.5" y="291.058" width="14" height="30" rx="2" fill="#F5F5F5"/>
<rect x="447.5" y="291.058" width="14" height="30" rx="2" fill="#F5F5F5"/>
<rect x="464.5" y="291.058" width="14" height="30" rx="2" fill="#F5F5F5"/>
<rect x="481.5" y="292" width="14" height="30" rx="2" fill="#F5F5F5"/>
</svg>
