<svg width="1367" height="264" viewBox="0 0 1367 264" fill="none" xmlns="http://www.w3.org/2000/svg">
<path d="M1366.31 131.659C1366.31 159.86 1360.88 183.764 1350.04 203.371C1339.19 222.978 1324.51 237.871 1305.98 248.05C1287.55 258.229 1266.85 263.318 1243.91 263.318C1220.88 263.318 1200.15 258.187 1181.71 247.925C1163.27 237.662 1148.63 222.769 1137.78 203.246C1127.02 183.639 1121.64 159.777 1121.64 131.659C1121.64 103.458 1127.02 79.5545 1137.78 59.9475C1148.63 40.3404 1163.27 25.4474 1181.71 15.2685C1200.15 5.08948 1220.88 0 1243.91 0C1266.85 0 1287.55 5.08948 1305.98 15.2685C1324.51 25.4474 1339.19 40.3404 1350.04 59.9475C1360.88 79.5545 1366.31 103.458 1366.31 131.659ZM1302.98 131.659C1302.98 114.972 1300.6 100.872 1295.85 89.358C1291.18 77.8441 1284.42 69.1252 1275.57 63.2014C1266.81 57.2776 1256.26 54.3157 1243.91 54.3157C1231.64 54.3157 1221.09 57.2776 1212.25 63.2014C1203.4 69.1252 1196.6 77.8441 1191.85 89.358C1187.17 100.872 1184.84 114.972 1184.84 131.659C1184.84 148.346 1187.17 162.446 1191.85 173.96C1196.6 185.474 1203.4 194.193 1212.25 200.117C1221.09 206.041 1231.64 209.003 1243.91 209.003C1256.26 209.003 1266.81 206.041 1275.57 200.117C1284.42 194.193 1291.18 185.474 1295.85 173.96C1300.6 162.446 1302.98 148.346 1302.98 131.659Z" fill="#0D0D0D"/>
<path d="M1022.42 87.2305C1021.01 81.9741 1018.92 77.3435 1016.17 73.3387C1013.41 69.2504 1010.03 65.7879 1006.03 62.9511C1002.02 60.1143 997.435 57.9868 992.262 56.5684C987.089 55.0666 981.416 54.3157 975.241 54.3157C962.81 54.3157 952.047 57.3193 942.952 63.3266C933.942 69.3338 926.975 78.0944 922.052 89.6083C917.13 101.039 914.668 114.931 914.668 131.284C914.668 147.72 917.046 161.737 921.802 173.335C926.558 184.932 933.441 193.776 942.452 199.867C951.463 205.957 962.393 209.003 975.241 209.003C986.589 209.003 996.183 207.167 1004.03 203.496C1011.95 199.741 1017.96 194.443 1022.05 187.602C1026.14 180.76 1028.18 172.709 1028.18 163.448L1039.69 164.824H977.369V119.645H1087.88V153.561C1087.88 176.505 1083 196.154 1073.23 212.507C1063.56 228.86 1050.21 241.417 1033.19 250.177C1016.25 258.938 996.767 263.318 974.741 263.318C950.295 263.318 928.81 258.02 910.288 247.424C891.765 236.828 877.331 221.726 866.986 202.119C856.64 182.429 851.467 159.067 851.467 132.035C851.467 111.009 854.596 92.3617 860.853 76.092C867.111 59.7389 875.83 45.8888 887.01 34.5418C898.273 23.1947 911.289 14.601 926.057 8.76058C940.908 2.92019 956.886 0 973.99 0C988.841 0 1002.65 2.12757 1015.42 6.38272C1028.26 10.6379 1039.61 16.6451 1049.46 24.4045C1059.38 32.1639 1067.44 41.3834 1073.61 52.0629C1079.78 62.7425 1083.62 74.465 1085.12 87.2305H1022.42Z" fill="#0D0D0D"/>
<path d="M815.268 3.50293V259.813H762.704L660.706 111.884H659.079V259.813H597.129V3.50293H650.443L751.315 151.181H753.443V3.50293H815.268Z" fill="#0D0D0D"/>
<path d="M380.682 259.813H314.102L400.581 3.50293H483.056L569.535 259.813H502.955L442.757 68.081H440.755L380.682 259.813ZM371.796 158.941H510.965V205.998H371.796V158.941Z" fill="#0D0D0D"/>
<path d="M0 3.50293H76.7178L141.796 162.195H144.8L209.879 3.50293H286.596V259.813H226.274V102.372H224.146L162.572 258.186H124.025L62.4505 101.496H60.3229V259.813H0V3.50293Z" fill="#0D0D0D"/>
</svg>
