<svg width="356" height="58" viewBox="0 0 356 58" fill="none" xmlns="http://www.w3.org/2000/svg">
<path d="M10.6269 17.2687C10.6269 15.8014 11.8163 14.6119 13.2836 14.6119C14.7508 14.6119 15.9403 15.8014 15.9403 17.2687V43.8358C15.9403 45.3031 14.7508 46.4925 13.2836 46.4925C11.8163 46.4925 10.6269 45.3031 10.6269 43.8358V17.2687Z" fill="url(#paint0_linear_388_2464)"/>
<path d="M345.373 18.597C345.373 17.1297 344.184 15.9403 342.716 15.9403C341.249 15.9403 340.06 17.1298 340.06 18.597V45.1642C340.06 46.6314 341.249 47.8209 342.716 47.8209C344.184 47.8209 345.373 46.6314 345.373 45.1642V18.597Z" fill="url(#paint1_linear_388_2464)"/>
<path d="M21.2537 13.2836C21.2537 11.8163 22.4432 10.6269 23.9104 10.6269C25.3777 10.6269 26.5672 11.8163 26.5672 13.2836V39.8507C26.5672 41.318 25.3777 42.5075 23.9104 42.5075C22.4432 42.5075 21.2537 41.318 21.2537 39.8507V13.2836Z" fill="url(#paint2_linear_388_2464)"/>
<path d="M334.746 14.6119C334.746 13.1447 333.557 11.9552 332.09 11.9552C330.622 11.9552 329.433 13.1447 329.433 14.6119V41.1791C329.433 42.6464 330.622 43.8358 332.09 43.8358C333.557 43.8358 334.746 42.6464 334.746 41.1791V14.6119Z" fill="url(#paint3_linear_388_2464)"/>
<path d="M31.8806 9.2985C31.8806 7.83124 33.07 6.64179 34.5373 6.64179C36.0046 6.64179 37.194 7.83124 37.194 9.29851V53.1343C37.194 54.6016 36.0046 55.791 34.5373 55.791C33.07 55.791 31.8806 54.6016 31.8806 53.1343V9.2985Z" fill="url(#paint4_linear_388_2464)"/>
<path d="M324.119 10.6269C324.119 9.1596 322.93 7.97015 321.463 7.97015C319.995 7.97015 318.806 9.1596 318.806 10.6269V54.4627C318.806 55.93 319.995 57.1194 321.463 57.1194C322.93 57.1194 324.119 55.93 324.119 54.4627V10.6269Z" fill="url(#paint5_linear_388_2464)"/>
<path d="M42.5075 18.597C42.5075 17.1297 43.6969 15.9403 45.1642 15.9403C46.6314 15.9403 47.8209 17.1298 47.8209 18.597V43.8358C47.8209 45.3031 46.6314 46.4925 45.1642 46.4925C43.6969 46.4925 42.5075 45.3031 42.5075 43.8358V18.597Z" fill="url(#paint6_linear_388_2464)"/>
<path d="M313.493 19.9254C313.493 18.4581 312.303 17.2687 310.836 17.2687C309.369 17.2687 308.179 18.4581 308.179 19.9254V45.1642C308.179 46.6314 309.369 47.8209 310.836 47.8209C312.303 47.8209 313.493 46.6314 313.493 45.1642V19.9254Z" fill="url(#paint7_linear_388_2464)"/>
<path d="M53.1343 9.2985C53.1343 7.83124 54.3238 6.64179 55.791 6.64179C57.2583 6.64179 58.4478 7.83124 58.4478 9.29851V53.1343C58.4478 54.6016 57.2583 55.791 55.791 55.791C54.3238 55.791 53.1343 54.6016 53.1343 53.1343V9.2985Z" fill="url(#paint8_linear_388_2464)"/>
<path d="M302.866 10.6269C302.866 9.1596 301.676 7.97015 300.209 7.97015C298.742 7.97015 297.552 9.1596 297.552 10.6269V54.4627C297.552 55.93 298.742 57.1194 300.209 57.1194C301.676 57.1194 302.866 55.93 302.866 54.4627V10.6269Z" fill="url(#paint9_linear_388_2464)"/>
<path d="M63.7612 18.597C63.7612 17.1297 64.9506 15.9403 66.4179 15.9403C67.8852 15.9403 69.0746 17.1298 69.0746 18.597V38.5224C69.0746 39.9897 67.8852 41.1791 66.4179 41.1791C64.9506 41.1791 63.7612 39.9897 63.7612 38.5224V18.597Z" fill="url(#paint10_linear_388_2464)"/>
<path d="M292.239 19.9254C292.239 18.4581 291.049 17.2687 289.582 17.2687C288.115 17.2687 286.925 18.4581 286.925 19.9254V39.8507C286.925 41.318 288.115 42.5075 289.582 42.5075C291.049 42.5075 292.239 41.318 292.239 39.8507V19.9254Z" fill="url(#paint11_linear_388_2464)"/>
<path d="M74.3881 2.65671C74.3881 1.18945 75.5775 0 77.0448 0C78.512 0 79.7015 1.18945 79.7015 2.65672V43.8358C79.7015 45.3031 78.512 46.4925 77.0448 46.4925C75.5775 46.4925 74.3881 45.3031 74.3881 43.8358V2.65671Z" fill="url(#paint12_linear_388_2464)"/>
<path d="M281.612 3.98507C281.612 2.51781 280.422 1.32836 278.955 1.32836C277.488 1.32836 276.298 2.51781 276.298 3.98507V45.1642C276.298 46.6314 277.488 47.8209 278.955 47.8209C280.422 47.8209 281.612 46.6314 281.612 45.1642V3.98507Z" fill="url(#paint13_linear_388_2464)"/>
<path d="M85.0149 19.9254C85.0149 18.4581 86.2044 17.2687 87.6716 17.2687C89.1389 17.2687 90.3284 18.4581 90.3284 19.9254V46.4925C90.3284 47.9598 89.1389 49.1493 87.6716 49.1493C86.2044 49.1493 85.0149 47.9598 85.0149 46.4925V19.9254Z" fill="url(#paint14_linear_388_2464)"/>
<path d="M270.985 21.2537C270.985 19.7865 269.796 18.597 268.328 18.597C266.861 18.597 265.672 19.7865 265.672 21.2537V47.8209C265.672 49.2882 266.861 50.4776 268.328 50.4776C269.796 50.4776 270.985 49.2882 270.985 47.8209V21.2537Z" fill="url(#paint15_linear_388_2464)"/>
<path d="M95.6418 13.2836C95.6418 11.8163 96.8312 10.6269 98.2985 10.6269C99.7658 10.6269 100.955 11.8163 100.955 13.2836V34.5373C100.955 36.0046 99.7658 37.194 98.2985 37.194C96.8312 37.194 95.6418 36.0046 95.6418 34.5373V13.2836Z" fill="url(#paint16_linear_388_2464)"/>
<path d="M260.358 14.6119C260.358 13.1447 259.169 11.9552 257.702 11.9552C256.234 11.9552 255.045 13.1447 255.045 14.6119V35.8657C255.045 37.3329 256.234 38.5224 257.702 38.5224C259.169 38.5224 260.358 37.3329 260.358 35.8657V14.6119Z" fill="url(#paint17_linear_388_2464)"/>
<path d="M106.269 9.29851C106.269 7.83124 107.458 6.64179 108.925 6.64179C110.393 6.64179 111.582 7.83124 111.582 9.29851V46.4925C111.582 47.9598 110.393 49.1493 108.925 49.1493C107.458 49.1493 106.269 47.9598 106.269 46.4925V9.29851Z" fill="url(#paint18_linear_388_2464)"/>
<path d="M249.731 10.6269C249.731 9.1596 248.542 7.97015 247.075 7.97015C245.607 7.97015 244.418 9.1596 244.418 10.6269V47.8209C244.418 49.2882 245.607 50.4776 247.075 50.4776C248.542 50.4776 249.731 49.2882 249.731 47.8209V10.6269Z" fill="url(#paint19_linear_388_2464)"/>
<path d="M116.896 19.9254C116.896 18.4581 118.085 17.2687 119.552 17.2687C121.02 17.2687 122.209 18.4581 122.209 19.9254V42.5075C122.209 43.9747 121.02 45.1642 119.552 45.1642C118.085 45.1642 116.896 43.9747 116.896 42.5075V19.9254Z" fill="url(#paint20_linear_388_2464)"/>
<path d="M239.104 21.2537C239.104 19.7865 237.915 18.597 236.448 18.597C234.98 18.597 233.791 19.7865 233.791 21.2537V43.8358C233.791 45.3031 234.98 46.4925 236.448 46.4925C237.915 46.4925 239.104 45.3031 239.104 43.8358V21.2537Z" fill="url(#paint21_linear_388_2464)"/>
<path d="M127.522 13.2836C127.522 11.8163 128.712 10.6269 130.179 10.6269C131.646 10.6269 132.836 11.8163 132.836 13.2836V35.8657C132.836 37.3329 131.646 38.5224 130.179 38.5224C128.712 38.5224 127.522 37.3329 127.522 35.8657V13.2836Z" fill="url(#paint22_linear_388_2464)"/>
<path d="M228.478 14.6119C228.478 13.1447 227.288 11.9552 225.821 11.9552C224.354 11.9552 223.164 13.1447 223.164 14.6119V37.194C223.164 38.6613 224.354 39.8507 225.821 39.8507C227.288 39.8507 228.478 38.6613 228.478 37.194V14.6119Z" fill="url(#paint23_linear_388_2464)"/>
<path d="M138.149 19.9254C138.149 18.4581 139.339 17.2687 140.806 17.2687C142.273 17.2687 143.463 18.4581 143.463 19.9254V31.8806C143.463 33.3479 142.273 34.5373 140.806 34.5373C139.339 34.5373 138.149 33.3479 138.149 31.8806V19.9254Z" fill="url(#paint24_linear_388_2464)"/>
<path d="M217.851 21.2537C217.851 19.7865 216.661 18.597 215.194 18.597C213.727 18.597 212.537 19.7865 212.537 21.2537V33.209C212.537 34.6762 213.727 35.8657 215.194 35.8657C216.661 35.8657 217.851 34.6762 217.851 33.209V21.2537Z" fill="url(#paint25_linear_388_2464)"/>
<path d="M0 24.8806C0 23.4133 1.18945 22.2239 2.65672 22.2239C4.12398 22.2239 5.31343 23.4133 5.31343 24.8806V36.8358C5.31343 38.3031 4.12398 39.4925 2.65672 39.4925C1.18945 39.4925 0 38.3031 0 36.8358V24.8806Z" fill="url(#paint26_linear_388_2464)"/>
<path d="M356 26.209C356 24.7417 354.811 23.5522 353.343 23.5522C351.876 23.5522 350.687 24.7417 350.687 26.209V38.1642C350.687 39.6314 351.876 40.8209 353.343 40.8209C354.811 40.8209 356 39.6314 356 38.1642V26.209Z" fill="url(#paint27_linear_388_2464)"/>
<path d="M148.776 13.2836C148.776 11.8163 149.966 10.6269 151.433 10.6269C152.9 10.6269 154.09 11.8163 154.09 13.2836V39.8507C154.09 41.318 152.9 42.5075 151.433 42.5075C149.966 42.5075 148.776 41.318 148.776 39.8507V13.2836Z" fill="url(#paint28_linear_388_2464)"/>
<path d="M207.224 14.6119C207.224 13.1447 206.034 11.9552 204.567 11.9552C203.1 11.9552 201.91 13.1447 201.91 14.6119V41.1791C201.91 42.6464 203.1 43.8358 204.567 43.8358C206.034 43.8358 207.224 42.6464 207.224 41.1791V14.6119Z" fill="url(#paint29_linear_388_2464)"/>
<path d="M159.403 21.2537C159.403 19.7865 160.592 18.597 162.06 18.597C163.527 18.597 164.716 19.7865 164.716 21.2537V49.1493C164.716 50.6165 163.527 51.806 162.06 51.806C160.592 51.806 159.403 50.6165 159.403 49.1493V21.2537Z" fill="url(#paint30_linear_388_2464)"/>
<path d="M196.597 7.97015C196.597 6.50288 195.408 5.31343 193.94 5.31343C192.473 5.31343 191.284 6.50288 191.284 7.97015V35.8657C191.284 37.3329 192.473 38.5224 193.94 38.5224C195.408 38.5224 196.597 37.3329 196.597 35.8657V7.97015Z" fill="url(#paint31_linear_388_2464)"/>
<path d="M170.03 5.31343C170.03 3.84616 171.219 2.65672 172.687 2.65672C174.154 2.65672 175.343 3.84617 175.343 5.31343V49.1493C175.343 50.6165 174.154 51.806 172.687 51.806C171.219 51.806 170.03 50.6165 170.03 49.1493V5.31343Z" fill="url(#paint32_linear_388_2464)"/>
<path d="M185.97 21.2537C185.97 19.7865 184.781 18.597 183.313 18.597C181.846 18.597 180.657 19.7865 180.657 21.2537V43.8358C180.657 45.3031 181.846 46.4925 183.313 46.4925C184.781 46.4925 185.97 45.3031 185.97 43.8358V21.2537Z" fill="url(#paint33_linear_388_2464)"/>
<defs>
<linearGradient id="paint0_linear_388_2464" x1="21.2326" y1="37.7447" x2="48.3474" y2="-74.6095" gradientUnits="userSpaceOnUse">
<stop stop-color="#FDB602"/>
<stop offset="0.765747" stop-color="#FFE647"/>
</linearGradient>
<linearGradient id="paint1_linear_388_2464" x1="21.2326" y1="37.7447" x2="48.3474" y2="-74.6095" gradientUnits="userSpaceOnUse">
<stop stop-color="#FDB602"/>
<stop offset="0.765747" stop-color="#FFE647"/>
</linearGradient>
<linearGradient id="paint2_linear_388_2464" x1="21.2326" y1="37.7447" x2="48.3474" y2="-74.6095" gradientUnits="userSpaceOnUse">
<stop stop-color="#FDB602"/>
<stop offset="0.765747" stop-color="#FFE647"/>
</linearGradient>
<linearGradient id="paint3_linear_388_2464" x1="21.2326" y1="37.7447" x2="48.3474" y2="-74.6095" gradientUnits="userSpaceOnUse">
<stop stop-color="#FDB602"/>
<stop offset="0.765747" stop-color="#FFE647"/>
</linearGradient>
<linearGradient id="paint4_linear_388_2464" x1="21.2326" y1="37.7447" x2="48.3474" y2="-74.6095" gradientUnits="userSpaceOnUse">
<stop stop-color="#FDB602"/>
<stop offset="0.765747" stop-color="#FFE647"/>
</linearGradient>
<linearGradient id="paint5_linear_388_2464" x1="21.2326" y1="37.7447" x2="48.3474" y2="-74.6095" gradientUnits="userSpaceOnUse">
<stop stop-color="#FDB602"/>
<stop offset="0.765747" stop-color="#FFE647"/>
</linearGradient>
<linearGradient id="paint6_linear_388_2464" x1="21.2326" y1="37.7447" x2="48.3474" y2="-74.6095" gradientUnits="userSpaceOnUse">
<stop stop-color="#FDB602"/>
<stop offset="0.765747" stop-color="#FFE647"/>
</linearGradient>
<linearGradient id="paint7_linear_388_2464" x1="21.2326" y1="37.7447" x2="48.3474" y2="-74.6095" gradientUnits="userSpaceOnUse">
<stop stop-color="#FDB602"/>
<stop offset="0.765747" stop-color="#FFE647"/>
</linearGradient>
<linearGradient id="paint8_linear_388_2464" x1="21.2326" y1="37.7447" x2="48.3474" y2="-74.6095" gradientUnits="userSpaceOnUse">
<stop stop-color="#FDB602"/>
<stop offset="0.765747" stop-color="#FFE647"/>
</linearGradient>
<linearGradient id="paint9_linear_388_2464" x1="21.2326" y1="37.7447" x2="48.3474" y2="-74.6095" gradientUnits="userSpaceOnUse">
<stop stop-color="#FDB602"/>
<stop offset="0.765747" stop-color="#FFE647"/>
</linearGradient>
<linearGradient id="paint10_linear_388_2464" x1="21.2326" y1="37.7447" x2="48.3474" y2="-74.6095" gradientUnits="userSpaceOnUse">
<stop stop-color="#FDB602"/>
<stop offset="0.765747" stop-color="#FFE647"/>
</linearGradient>
<linearGradient id="paint11_linear_388_2464" x1="21.2326" y1="37.7447" x2="48.3474" y2="-74.6095" gradientUnits="userSpaceOnUse">
<stop stop-color="#FDB602"/>
<stop offset="0.765747" stop-color="#FFE647"/>
</linearGradient>
<linearGradient id="paint12_linear_388_2464" x1="21.2326" y1="37.7447" x2="48.3474" y2="-74.6095" gradientUnits="userSpaceOnUse">
<stop stop-color="#FDB602"/>
<stop offset="0.765747" stop-color="#FFE647"/>
</linearGradient>
<linearGradient id="paint13_linear_388_2464" x1="21.2326" y1="37.7447" x2="48.3474" y2="-74.6095" gradientUnits="userSpaceOnUse">
<stop stop-color="#FDB602"/>
<stop offset="0.765747" stop-color="#FFE647"/>
</linearGradient>
<linearGradient id="paint14_linear_388_2464" x1="21.2326" y1="37.7447" x2="48.3474" y2="-74.6095" gradientUnits="userSpaceOnUse">
<stop stop-color="#FDB602"/>
<stop offset="0.765747" stop-color="#FFE647"/>
</linearGradient>
<linearGradient id="paint15_linear_388_2464" x1="21.2326" y1="37.7447" x2="48.3474" y2="-74.6095" gradientUnits="userSpaceOnUse">
<stop stop-color="#FDB602"/>
<stop offset="0.765747" stop-color="#FFE647"/>
</linearGradient>
<linearGradient id="paint16_linear_388_2464" x1="21.2326" y1="37.7447" x2="48.3474" y2="-74.6095" gradientUnits="userSpaceOnUse">
<stop stop-color="#FDB602"/>
<stop offset="0.765747" stop-color="#FFE647"/>
</linearGradient>
<linearGradient id="paint17_linear_388_2464" x1="21.2326" y1="37.7447" x2="48.3474" y2="-74.6095" gradientUnits="userSpaceOnUse">
<stop stop-color="#FDB602"/>
<stop offset="0.765747" stop-color="#FFE647"/>
</linearGradient>
<linearGradient id="paint18_linear_388_2464" x1="21.2326" y1="37.7447" x2="48.3474" y2="-74.6095" gradientUnits="userSpaceOnUse">
<stop stop-color="#FDB602"/>
<stop offset="0.765747" stop-color="#FFE647"/>
</linearGradient>
<linearGradient id="paint19_linear_388_2464" x1="21.2326" y1="37.7447" x2="48.3474" y2="-74.6095" gradientUnits="userSpaceOnUse">
<stop stop-color="#FDB602"/>
<stop offset="0.765747" stop-color="#FFE647"/>
</linearGradient>
<linearGradient id="paint20_linear_388_2464" x1="21.2326" y1="37.7447" x2="48.3474" y2="-74.6095" gradientUnits="userSpaceOnUse">
<stop stop-color="#FDB602"/>
<stop offset="0.765747" stop-color="#FFE647"/>
</linearGradient>
<linearGradient id="paint21_linear_388_2464" x1="21.2326" y1="37.7447" x2="48.3474" y2="-74.6095" gradientUnits="userSpaceOnUse">
<stop stop-color="#FDB602"/>
<stop offset="0.765747" stop-color="#FFE647"/>
</linearGradient>
<linearGradient id="paint22_linear_388_2464" x1="21.2326" y1="37.7447" x2="48.3474" y2="-74.6095" gradientUnits="userSpaceOnUse">
<stop stop-color="#FDB602"/>
<stop offset="0.765747" stop-color="#FFE647"/>
</linearGradient>
<linearGradient id="paint23_linear_388_2464" x1="21.2326" y1="37.7447" x2="48.3474" y2="-74.6095" gradientUnits="userSpaceOnUse">
<stop stop-color="#FDB602"/>
<stop offset="0.765747" stop-color="#FFE647"/>
</linearGradient>
<linearGradient id="paint24_linear_388_2464" x1="21.2326" y1="37.7447" x2="48.3474" y2="-74.6095" gradientUnits="userSpaceOnUse">
<stop stop-color="#FDB602"/>
<stop offset="0.765747" stop-color="#FFE647"/>
</linearGradient>
<linearGradient id="paint25_linear_388_2464" x1="21.2326" y1="37.7447" x2="48.3474" y2="-74.6095" gradientUnits="userSpaceOnUse">
<stop stop-color="#FDB602"/>
<stop offset="0.765747" stop-color="#FFE647"/>
</linearGradient>
<linearGradient id="paint26_linear_388_2464" x1="21.2326" y1="37.7447" x2="48.3474" y2="-74.6095" gradientUnits="userSpaceOnUse">
<stop stop-color="#FDB602"/>
<stop offset="0.765747" stop-color="#FFE647"/>
</linearGradient>
<linearGradient id="paint27_linear_388_2464" x1="21.2326" y1="37.7447" x2="48.3474" y2="-74.6095" gradientUnits="userSpaceOnUse">
<stop stop-color="#FDB602"/>
<stop offset="0.765747" stop-color="#FFE647"/>
</linearGradient>
<linearGradient id="paint28_linear_388_2464" x1="21.2326" y1="37.7447" x2="48.3474" y2="-74.6095" gradientUnits="userSpaceOnUse">
<stop stop-color="#FDB602"/>
<stop offset="0.765747" stop-color="#FFE647"/>
</linearGradient>
<linearGradient id="paint29_linear_388_2464" x1="21.2326" y1="37.7447" x2="48.3474" y2="-74.6095" gradientUnits="userSpaceOnUse">
<stop stop-color="#FDB602"/>
<stop offset="0.765747" stop-color="#FFE647"/>
</linearGradient>
<linearGradient id="paint30_linear_388_2464" x1="21.2326" y1="37.7447" x2="48.3474" y2="-74.6095" gradientUnits="userSpaceOnUse">
<stop stop-color="#FDB602"/>
<stop offset="0.765747" stop-color="#FFE647"/>
</linearGradient>
<linearGradient id="paint31_linear_388_2464" x1="21.2326" y1="37.7447" x2="48.3474" y2="-74.6095" gradientUnits="userSpaceOnUse">
<stop stop-color="#FDB602"/>
<stop offset="0.765747" stop-color="#FFE647"/>
</linearGradient>
<linearGradient id="paint32_linear_388_2464" x1="21.2326" y1="37.7447" x2="48.3474" y2="-74.6095" gradientUnits="userSpaceOnUse">
<stop stop-color="#FDB602"/>
<stop offset="0.765747" stop-color="#FFE647"/>
</linearGradient>
<linearGradient id="paint33_linear_388_2464" x1="21.2326" y1="37.7447" x2="48.3474" y2="-74.6095" gradientUnits="userSpaceOnUse">
<stop stop-color="#FDB602"/>
<stop offset="0.765747" stop-color="#FFE647"/>
</linearGradient>
</defs>
</svg>
