<svg width="40" height="40" viewBox="0 0 40 40" fill="none" xmlns="http://www.w3.org/2000/svg">
<path d="M7.41866 29.1616C4.23829 28.4825 1.81992 26.5513 0.697501 23.7944C-0.197996 21.5702 -0.238036 18.6804 0.616835 16.5365C1.65916 13.8728 4.19824 11.6621 7.05767 10.9033C8.39425 10.5436 11.3071 10.5834 12.8038 10.983C14.087 11.3293 15.7033 12.115 16.4386 12.7678C16.9865 13.26 23.3072 20.4382 24.0686 21.4507C24.75 22.356 26.3802 23.9942 27.0354 24.4472C28.7725 25.6454 30.2826 25.9255 32.0062 25.3929C36.7234 23.9275 37.1105 17.0427 32.5941 14.8185C31.9377 14.5021 31.7172 14.3404 30.9627 14.2877C30.7654 14.2736 30.5309 14.2672 30.2425 14.2672C29.8763 14.2672 29.5977 14.2777 29.3696 14.3012C28.7388 14.3656 28.495 14.525 27.877 14.8185C26.2334 15.5908 25.151 17.0691 24.8306 19.0132C24.7366 19.533 24.7099 20.1857 24.75 20.4652C24.79 20.7581 24.8034 20.9843 24.7767 20.9843C24.6966 20.9843 21.2092 17.109 21.1424 16.9361C20.9416 16.4299 22.2782 14.3393 23.5208 13.1938C25.552 11.3158 28.0638 10.4633 30.9772 10.6502C33.6365 10.8102 35.9347 11.8619 37.5516 13.6596C41.7342 18.2679 40.3843 25.5259 34.8256 28.3225C33.3956 29.0415 32.1664 29.3081 30.2425 29.3081C28.278 29.3081 27.3424 29.1083 25.8323 28.3893C24.1087 27.5632 23.6809 27.1507 18.9377 21.5837C14.1404 15.964 13.4985 15.3248 11.9751 14.7254C11.2537 14.4453 10.92 14.3926 9.6635 14.3926C8.27411 14.3926 8.14005 14.4189 7.31187 14.8185C6.21615 15.3646 5.30731 16.2968 4.7461 17.4951C4.34507 18.3341 4.31837 18.4677 4.31837 19.9191C4.31837 21.7167 4.46579 22.2628 5.20052 23.3685C5.84182 24.3405 6.93754 25.1661 7.99322 25.4726C9.54336 25.9518 12.2693 25.619 13.2583 24.8333C13.6059 24.5667 13.6192 24.5134 13.5786 23.3286L13.5386 22.1163L11.5079 22.0765L9.46327 22.0366V18.5873H12.3761L15.2762 18.6007L16.3852 19.9056L17.481 21.224V26.5114L16.7056 27.0704C14.1271 28.9753 10.4255 29.8008 7.41866 29.1616Z" fill="#36364F"/>
</svg>
