<svg width="350" height="48" viewBox="0 0 350 48" fill="none" xmlns="http://www.w3.org/2000/svg">
<g clip-path="url(#clip0_679_7896)">
<mask id="mask0_679_7896" style="mask-type:luminance" maskUnits="userSpaceOnUse" x="0" y="0" width="48" height="48">
<path d="M0 0H48V48H0V0Z" fill="white"/>
</mask>
<g mask="url(#mask0_679_7896)">
<path d="M24 48C37.255 48 48 37.255 48 24C48 10.747 37.255 0.00195312 24 0.00195312C10.745 0.00195312 0 10.747 0 24.002C0 37.256 10.745 48.002 24 48.002" fill="#CB2027"/>
<path d="M25.9369 32.1378C24.1229 31.9978 23.3599 31.0978 21.9369 30.2348C21.1549 34.3378 20.1999 38.2708 17.3689 40.3258C16.4939 34.1238 18.6509 29.4658 19.6529 24.5218C17.9459 21.6468 19.8589 15.8608 23.4609 17.2858C27.8939 19.0398 19.6229 27.9758 25.1759 29.0918C30.9729 30.2578 33.3399 19.0328 29.7439 15.3818C24.5499 10.1118 14.6239 15.2618 15.8439 22.8078C16.1419 24.6528 18.0479 25.2128 16.6059 27.7578C13.2809 27.0218 12.2899 24.3998 12.4169 20.9038C12.6229 15.1818 17.5589 11.1758 22.5099 10.6218C28.7699 9.92077 34.6469 12.9208 35.4579 18.8098C36.3709 25.4568 32.6309 32.6548 25.9369 32.1378Z" fill="#F1F2F2"/>
</g>
</g>
<path d="M61.088 26.624V23.672H64.496C65.184 23.672 65.76 23.536 66.224 23.264C66.704 22.992 67.064 22.616 67.304 22.136C67.56 21.656 67.688 21.104 67.688 20.48C67.688 19.856 67.56 19.304 67.304 18.824C67.064 18.344 66.704 17.976 66.224 17.72C65.76 17.448 65.184 17.312 64.496 17.312H61.088V14.36H64.208C65.68 14.36 66.928 14.6 67.952 15.08C68.992 15.56 69.784 16.248 70.328 17.144C70.872 18.024 71.144 19.072 71.144 20.288V20.672C71.144 21.888 70.872 22.944 70.328 23.84C69.784 24.72 68.992 25.408 67.952 25.904C66.928 26.384 65.68 26.624 64.208 26.624H61.088ZM58.16 32V14.36H61.568V32H58.16ZM74.4106 32V18.968H77.7466V32H74.4106ZM72.5866 21.464V18.968H77.7466V21.464H72.5866ZM75.6346 17.408C74.9786 17.408 74.4906 17.24 74.1706 16.904C73.8666 16.552 73.7146 16.112 73.7146 15.584C73.7146 15.056 73.8666 14.624 74.1706 14.288C74.4906 13.952 74.9786 13.784 75.6346 13.784C76.2906 13.784 76.7706 13.952 77.0746 14.288C77.3786 14.624 77.5306 15.056 77.5306 15.584C77.5306 16.112 77.3786 16.552 77.0746 16.904C76.7706 17.24 76.2906 17.408 75.6346 17.408ZM81.5913 32V18.968H84.2313V24.56H83.9913C83.9913 23.232 84.1673 22.128 84.5193 21.248C84.8713 20.352 85.3913 19.68 86.0793 19.232C86.7833 18.784 87.6553 18.56 88.6953 18.56H88.8393C90.3913 18.56 91.5673 19.064 92.3673 20.072C93.1673 21.064 93.5673 22.552 93.5673 24.536V32H90.2313V24.248C90.2313 23.448 89.9993 22.8 89.5353 22.304C89.0873 21.808 88.4633 21.56 87.6633 21.56C86.8473 21.56 86.1833 21.816 85.6713 22.328C85.1753 22.824 84.9273 23.496 84.9273 24.344V32H81.5913ZM102.818 32.168C101.618 32.168 100.626 32.016 99.8418 31.712C99.0738 31.392 98.4978 30.864 98.1138 30.128C97.7298 29.376 97.5378 28.368 97.5378 27.104L97.5618 15.296H100.682L100.658 27.32C100.658 27.96 100.826 28.456 101.162 28.808C101.514 29.144 102.01 29.312 102.65 29.312H104.69V32.168H102.818ZM95.4738 21.416V18.968H104.69V21.416H95.4738ZM113.251 32.456C112.131 32.456 111.147 32.264 110.299 31.88C109.467 31.496 108.771 30.984 108.211 30.344C107.667 29.688 107.251 28.96 106.963 28.16C106.691 27.36 106.555 26.544 106.555 25.712V25.256C106.555 24.392 106.691 23.56 106.963 22.76C107.251 21.944 107.667 21.224 108.211 20.6C108.771 19.96 109.459 19.456 110.275 19.088C111.091 18.704 112.035 18.512 113.107 18.512C114.515 18.512 115.691 18.824 116.635 19.448C117.595 20.056 118.315 20.864 118.795 21.872C119.275 22.864 119.515 23.936 119.515 25.088V26.288H107.971V24.248H117.427L116.395 25.256C116.395 24.424 116.275 23.712 116.035 23.12C115.795 22.528 115.427 22.072 114.931 21.752C114.451 21.432 113.843 21.272 113.107 21.272C112.371 21.272 111.747 21.44 111.235 21.776C110.723 22.112 110.331 22.6 110.059 23.24C109.803 23.864 109.675 24.616 109.675 25.496C109.675 26.312 109.803 27.04 110.059 27.68C110.315 28.304 110.707 28.8 111.235 29.168C111.763 29.52 112.435 29.696 113.251 29.696C114.067 29.696 114.731 29.536 115.243 29.216C115.755 28.88 116.083 28.472 116.227 27.992H119.299C119.107 28.888 118.739 29.672 118.195 30.344C117.651 31.016 116.955 31.536 116.107 31.904C115.275 32.272 114.323 32.456 113.251 32.456ZM122.302 32V18.968H124.942V24.488H124.87C124.87 22.616 125.27 21.2 126.07 20.24C126.87 19.28 128.046 18.8 129.598 18.8H130.078V21.704H129.166C128.046 21.704 127.174 22.008 126.55 22.616C125.942 23.208 125.638 24.072 125.638 25.208V32H122.302ZM138.048 32.456C136.928 32.456 135.944 32.264 135.096 31.88C134.264 31.496 133.568 30.984 133.008 30.344C132.464 29.688 132.048 28.96 131.76 28.16C131.488 27.36 131.352 26.544 131.352 25.712V25.256C131.352 24.392 131.488 23.56 131.76 22.76C132.048 21.944 132.464 21.224 133.008 20.6C133.568 19.96 134.256 19.456 135.072 19.088C135.888 18.704 136.832 18.512 137.904 18.512C139.312 18.512 140.488 18.824 141.432 19.448C142.392 20.056 143.112 20.864 143.592 21.872C144.072 22.864 144.312 23.936 144.312 25.088V26.288H132.768V24.248H142.224L141.192 25.256C141.192 24.424 141.072 23.712 140.832 23.12C140.592 22.528 140.224 22.072 139.728 21.752C139.248 21.432 138.64 21.272 137.904 21.272C137.168 21.272 136.544 21.44 136.032 21.776C135.52 22.112 135.128 22.6 134.856 23.24C134.6 23.864 134.472 24.616 134.472 25.496C134.472 26.312 134.6 27.04 134.856 27.68C135.112 28.304 135.504 28.8 136.032 29.168C136.56 29.52 137.232 29.696 138.048 29.696C138.864 29.696 139.528 29.536 140.04 29.216C140.552 28.88 140.88 28.472 141.024 27.992H144.096C143.904 28.888 143.536 29.672 142.992 30.344C142.448 31.016 141.752 31.536 140.904 31.904C140.072 32.272 139.12 32.456 138.048 32.456ZM151.827 32.408C150.035 32.408 148.627 32.032 147.603 31.28C146.595 30.512 146.067 29.456 146.019 28.112H149.019C149.067 28.56 149.315 28.968 149.763 29.336C150.211 29.704 150.915 29.888 151.875 29.888C152.675 29.888 153.307 29.744 153.771 29.456C154.251 29.168 154.491 28.776 154.491 28.28C154.491 27.848 154.307 27.504 153.939 27.248C153.587 26.992 152.979 26.824 152.115 26.744L150.963 26.624C149.507 26.464 148.387 26.048 147.603 25.376C146.819 24.704 146.427 23.808 146.427 22.688C146.427 21.792 146.651 21.04 147.099 20.432C147.547 19.824 148.163 19.368 148.947 19.064C149.747 18.744 150.659 18.584 151.683 18.584C153.283 18.584 154.579 18.936 155.571 19.64C156.563 20.344 157.083 21.376 157.131 22.736H154.131C154.099 22.288 153.875 21.904 153.459 21.584C153.043 21.264 152.443 21.104 151.659 21.104C150.955 21.104 150.411 21.24 150.027 21.512C149.643 21.784 149.451 22.136 149.451 22.568C149.451 22.984 149.603 23.304 149.907 23.528C150.227 23.752 150.739 23.904 151.443 23.984L152.595 24.104C154.131 24.264 155.331 24.688 156.195 25.376C157.075 26.064 157.515 26.992 157.515 28.16C157.515 29.024 157.275 29.776 156.795 30.416C156.331 31.04 155.675 31.528 154.827 31.88C153.979 32.232 152.979 32.408 151.827 32.408ZM165.935 32.168C164.735 32.168 163.743 32.016 162.959 31.712C162.191 31.392 161.615 30.864 161.231 30.128C160.847 29.376 160.655 28.368 160.655 27.104L160.679 15.296H163.799L163.775 27.32C163.775 27.96 163.943 28.456 164.279 28.808C164.631 29.144 165.127 29.312 165.767 29.312H167.807V32.168H165.935ZM158.591 21.416V18.968H167.807V21.416H158.591ZM182.027 32.456C180.475 32.456 179.163 32.208 178.091 31.712C177.035 31.216 176.227 30.536 175.667 29.672C175.107 28.792 174.827 27.8 174.827 26.696H178.163C178.163 27.16 178.291 27.616 178.547 28.064C178.803 28.496 179.211 28.848 179.771 29.12C180.347 29.392 181.099 29.528 182.027 29.528C182.859 29.528 183.555 29.408 184.115 29.168C184.675 28.928 185.091 28.616 185.363 28.232C185.635 27.832 185.771 27.384 185.771 26.888C185.771 26.264 185.507 25.768 184.979 25.4C184.451 25.016 183.635 24.776 182.531 24.68L180.995 24.56C179.315 24.416 177.971 23.896 176.963 23C175.971 22.088 175.475 20.888 175.475 19.4C175.475 18.28 175.739 17.32 176.267 16.52C176.795 15.704 177.531 15.08 178.475 14.648C179.435 14.2 180.555 13.976 181.835 13.976C183.163 13.976 184.307 14.208 185.267 14.672C186.227 15.136 186.971 15.792 187.499 16.64C188.027 17.472 188.291 18.456 188.291 19.592H184.955C184.955 19.112 184.835 18.672 184.595 18.272C184.371 17.856 184.027 17.528 183.563 17.288C183.115 17.032 182.539 16.904 181.835 16.904C181.163 16.904 180.603 17.016 180.155 17.24C179.707 17.464 179.371 17.768 179.147 18.152C178.923 18.536 178.811 18.952 178.811 19.4C178.811 19.944 179.011 20.424 179.411 20.84C179.811 21.24 180.443 21.472 181.307 21.536L182.843 21.68C184.091 21.776 185.187 22.04 186.131 22.472C187.075 22.904 187.803 23.488 188.315 24.224C188.843 24.96 189.107 25.848 189.107 26.888C189.107 27.992 188.819 28.968 188.243 29.816C187.667 30.648 186.843 31.296 185.771 31.76C184.715 32.224 183.467 32.456 182.027 32.456ZM192.223 32V14.48H195.559V32H192.223ZM195.079 32V29.12H203.023V32H195.079ZM195.079 24.536V21.656H202.398V24.536H195.079ZM195.079 17.36V14.48H202.831V17.36H195.079ZM206.519 32V14.36H209.927V32H206.519ZM217.223 32L211.847 24.368H215.663L221.207 32H217.223ZM208.919 26.144V23.384H213.383C214.007 23.384 214.543 23.256 214.991 23C215.455 22.744 215.815 22.384 216.071 21.92C216.327 21.456 216.455 20.928 216.455 20.336C216.455 19.728 216.327 19.192 216.071 18.728C215.815 18.264 215.455 17.904 214.991 17.648C214.543 17.392 214.007 17.264 213.383 17.264H208.919V14.36H213.023C214.431 14.36 215.647 14.568 216.671 14.984C217.711 15.4 218.511 16.032 219.071 16.88C219.631 17.728 219.911 18.792 219.911 20.072V20.456C219.911 21.752 219.623 22.816 219.047 23.648C218.487 24.48 217.695 25.104 216.671 25.52C215.647 25.936 214.431 26.144 213.023 26.144H208.919ZM226.721 26.624V23.672H230.129C230.817 23.672 231.393 23.536 231.857 23.264C232.337 22.992 232.697 22.616 232.937 22.136C233.193 21.656 233.321 21.104 233.321 20.48C233.321 19.856 233.193 19.304 232.937 18.824C232.697 18.344 232.337 17.976 231.857 17.72C231.393 17.448 230.817 17.312 230.129 17.312H226.721V14.36H229.841C231.313 14.36 232.561 14.6 233.585 15.08C234.625 15.56 235.417 16.248 235.961 17.144C236.505 18.024 236.777 19.072 236.777 20.288V20.672C236.777 21.888 236.505 22.944 235.961 23.84C235.417 24.72 234.625 25.408 233.585 25.904C232.561 26.384 231.313 26.624 229.841 26.624H226.721ZM223.793 32V14.36H227.201V32H223.793Z" fill="black"/>
<defs>
<clipPath id="clip0_679_7896">
<rect width="48" height="48" fill="white"/>
</clipPath>
</defs>
</svg>
