<svg width="32" height="32" viewBox="0 0 32 32" fill="none" xmlns="http://www.w3.org/2000/svg">
<g clip-path="url(#clip0_755_10590)">
<mask id="mask0_755_10590" style="mask-type:luminance" maskUnits="userSpaceOnUse" x="0" y="0" width="32" height="32">
<path d="M0 0H32V32H0V0Z" fill="white"/>
</mask>
<g mask="url(#mask0_755_10590)">
<path d="M8.00781 15.84C8.00781 11.2526 11.7398 7.52002 16.3278 7.52002C20.9158 7.52002 24.6478 11.2526 24.6478 15.84C24.6478 20.4274 20.9152 24.16 16.3278 24.16C11.7404 24.16 8.00781 20.428 8.00781 15.84Z" fill="#21BBD1"/>
<path d="M32 2.56C32 1.152 30.7651 0 29.3571 0H16.3257C7.48915 0 0 7.00343 0 15.84V32H3.88572V15.84C3.88572 9.13486 9.48114 3.68 16.1857 3.68C22.8909 3.68 28.4154 9.13486 28.4154 15.84C28.4154 22.5451 22.8783 28 16.1737 28C12.9566 28 9.6 26.7423 7.77143 24.696V32H16.3257C25.1623 32 32 24.6766 32 15.84V2.56Z" fill="white"/>
</g>
</g>
<defs>
<clipPath id="clip0_755_10590">
<rect width="32" height="32" fill="white"/>
</clipPath>
</defs>
</svg>
