<svg width="130" height="28" viewBox="0 0 130 28" fill="none" xmlns="http://www.w3.org/2000/svg">
<g clip-path="url(#clip0_860_14575)">
<path d="M38.5985 21.3945C41.2569 21.3945 42.9274 19.6422 43.3835 18.0491L41.2191 17.1333C40.8963 18.3279 39.9469 19.1446 38.6558 19.1446C37.0419 19.1446 35.7891 17.87 35.7891 15.9188C35.7891 13.9675 37.0419 12.6929 38.6369 12.6929C39.928 12.6929 40.8391 13.5096 41.1619 14.7241L43.3263 13.8281C42.8708 12.1953 41.1997 10.443 38.5985 10.443C35.5802 10.443 33.3774 12.8323 33.3774 15.9386C33.3774 19.0448 35.618 21.3945 38.5985 21.3945ZM47.0891 11.8372V10.6623H44.8113V21.1553H47.2224V15.182C47.2224 13.7686 48.3235 12.7927 50.0702 12.7927V10.4232C48.8169 10.4232 47.7724 11.0007 47.0891 11.8372ZM58.3597 10.6623L55.5302 19.1248L52.9485 10.6623H50.4608L53.9924 21.1553H54.7519L53.3852 24.7195H55.7585L57.0491 21.1553L60.8658 10.6623H58.3597ZM67.6552 10.4232C66.2313 10.4232 65.0735 11.0205 64.2947 12.0361V10.6623H62.0547V24.7195H64.4658V20.0406C65.2252 20.8963 66.2885 21.3939 67.5985 21.3939C70.4652 21.3939 72.5541 19.0448 72.5541 15.9188C72.5541 12.7728 70.5224 10.4232 67.6552 10.4232ZM67.2758 19.1644C65.548 19.1644 64.3708 17.8303 64.3708 15.9188C64.3708 14.0072 65.548 12.6731 67.2758 12.6731C68.9274 12.6731 70.1424 14.0468 70.1424 15.9188C70.1424 17.7703 68.9274 19.1644 67.2758 19.1644ZM78.5124 21.1553H80.0885V18.9451H78.9874C77.9052 18.9451 77.3163 18.2883 77.3163 17.0738V12.8329H80.0124V10.6623H77.3924V7.93467H75.038V9.58725C75.038 10.3036 74.7152 10.6623 74.0508 10.6623H73.1397V12.8323H74.8863V17.3526C74.8863 19.6626 76.1202 21.1553 78.5124 21.1553ZM86.0858 21.3945C89.1997 21.3945 91.4213 19.0448 91.4213 15.9188C91.4213 12.7728 89.1997 10.4238 86.0858 10.4238C82.953 10.4238 80.7508 12.7728 80.7508 15.9188C80.7508 19.0448 82.953 21.3945 86.0858 21.3945ZM86.1047 19.1446C84.358 19.1446 83.1619 17.7907 83.1619 15.9188C83.1619 14.027 84.358 12.6929 86.1047 12.6929C87.8324 12.6929 88.9908 14.027 88.9908 15.8989C88.9908 17.7907 87.8135 19.1446 86.1047 19.1446ZM104.996 10.4232C103.306 10.4232 102.167 11.1599 101.616 12.1358C101.047 11.0403 100.04 10.4232 98.4458 10.4232C97.0974 10.4232 96.0536 11.0205 95.4269 11.8173V10.6623H93.1486V21.1355H95.5597V14.7836C95.5785 13.7884 96.338 12.6929 97.7052 12.6731C99.053 12.6731 99.7935 13.7289 99.7935 15.1027V21.1355H102.205V14.7836C102.224 13.8083 102.964 12.6929 104.35 12.6731C105.699 12.6731 106.42 13.7482 106.42 15.1027V21.1355H108.831V14.6448C108.831 12.2753 107.483 10.4232 104.996 10.4232ZM117.688 10.6623V17.0137C117.688 18.1687 116.815 19.1248 115.466 19.1446C114.119 19.1446 113.264 18.2083 113.264 16.8544V10.6623H110.853V17.1729C110.853 19.6025 112.22 21.3945 114.764 21.3945C116.055 21.3945 117.137 20.817 117.84 20.0003V21.1553H120.099V10.6623H117.688ZM125.864 21.3945C128.37 21.3945 130.003 20.1596 130.003 18.0695C130.003 14.2265 124.516 15.3214 124.516 13.4098C124.516 12.7728 124.991 12.3744 125.883 12.3744C126.719 12.3744 127.307 12.753 127.573 13.5493L129.68 12.6929C129.262 11.2597 127.857 10.4238 125.921 10.4238C123.567 10.4238 122.047 11.6178 122.047 13.5294C122.047 17.1333 127.535 16.1778 127.535 18.2486C127.535 18.9853 126.927 19.4036 125.959 19.4036C124.744 19.4036 123.965 18.8261 123.681 17.8502L121.573 18.7065C122.124 20.4787 123.7 21.3945 125.864 21.3945ZM24.1891 6.61809L14.0458 0.476755C13.8196 0.340651 13.5634 0.269043 13.3027 0.269043C13.042 0.269043 12.7858 0.340651 12.5597 0.476755L2.41632 6.61809C2.1903 6.7551 2.00255 6.95209 1.8719 7.18931C1.74124 7.42653 1.67226 7.69564 1.67188 7.96967V20.2518C1.67188 20.8065 1.95687 21.3233 2.41632 21.6033L12.5597 27.7447C12.7861 27.8815 13.0429 27.9532 13.3041 27.9523C13.5658 27.9523 13.8224 27.8794 14.0485 27.7447L24.1919 21.6033C24.4178 21.4664 24.6055 21.2695 24.7362 21.0324C24.8668 20.7953 24.9358 20.5263 24.9363 20.2523V7.96967C24.9363 7.4155 24.6513 6.89809 24.1919 6.61809H24.1891ZM13.5324 13.3492C13.4625 13.3913 13.3833 13.4135 13.3027 13.4135C13.2221 13.4135 13.1429 13.3913 13.073 13.3492L3.21188 7.37934L13.073 1.41184C13.1432 1.37077 13.2223 1.34921 13.3027 1.34921C13.3831 1.34921 13.4622 1.37077 13.5324 1.41184L23.3935 7.38051L13.5324 13.3492ZM12.5597 14.2802C12.6315 14.3237 12.7085 14.3607 12.7908 14.391V26.6352L2.92965 20.6694C2.85976 20.6272 2.80164 20.5664 2.76109 20.4933C2.72053 20.4201 2.69897 20.337 2.69854 20.2523V8.3115L12.5597 14.2802Z" fill="black"/>
</g>
<defs>
<clipPath id="clip0_860_14575">
<rect width="130" height="28" fill="white"/>
</clipPath>
</defs>
</svg>
