<svg width="71" height="29" viewBox="0 0 71 29" fill="none" xmlns="http://www.w3.org/2000/svg">
<g clip-path="url(#clip0_860_14581)">
<path fill-rule="evenodd" clip-rule="evenodd" d="M70.4933 14.9798C70.4933 10.0252 68.0823 6.11572 63.4742 6.11572C58.8467 6.11572 56.0469 10.0252 56.0469 14.9411C56.0469 20.7667 59.3522 23.7085 64.0964 23.7085C66.4102 23.7085 68.1601 23.1859 69.4822 22.4505V18.5797C68.1601 19.2377 66.6435 19.6442 64.7186 19.6442C62.8326 19.6442 61.1605 18.9861 60.9466 16.7023H70.4544C70.4544 16.4507 70.4933 15.4443 70.4933 14.9798ZM60.8883 13.1412C60.8883 10.9542 62.2299 10.0446 63.4548 10.0446C64.6408 10.0446 65.9047 10.9542 65.9047 13.1412H60.8883Z" fill="#635BFF"/>
<path fill-rule="evenodd" clip-rule="evenodd" d="M48.5443 6.11572C46.6389 6.11572 45.4139 7.00601 44.7334 7.62533L44.4807 6.42539H40.2031V28.9921L45.064 27.9664L45.0834 22.4892C45.7834 22.9924 46.8139 23.7085 48.5249 23.7085C52.0052 23.7085 55.1745 20.9215 55.1745 14.7863C55.1551 9.17365 51.9469 6.11572 48.5443 6.11572ZM47.3777 19.4506C46.2306 19.4506 45.55 19.0442 45.0834 18.541L45.064 11.3607C45.5695 10.7994 46.2695 10.4123 47.3777 10.4123C49.1471 10.4123 50.372 12.3864 50.372 14.9218C50.372 17.5152 49.1665 19.4506 47.3777 19.4506Z" fill="#635BFF"/>
<path fill-rule="evenodd" clip-rule="evenodd" d="M33.5156 4.97397L38.3959 3.92886V0L33.5156 1.02576V4.97397Z" fill="#635BFF"/>
<path d="M38.3959 6.44482H33.5156V23.3796H38.3959V6.44482Z" fill="#635BFF"/>
<path fill-rule="evenodd" clip-rule="evenodd" d="M28.2843 7.87688L27.9732 6.44468H23.7734V23.3794H28.6343V11.9025C29.7814 10.4122 31.7258 10.6832 32.3285 10.8961V6.44468C31.7063 6.21244 29.4315 5.78665 28.2843 7.87688Z" fill="#635BFF"/>
<path fill-rule="evenodd" clip-rule="evenodd" d="M18.5605 2.24512L13.8163 3.25152L13.7969 18.7541C13.7969 21.6184 15.9551 23.728 18.8327 23.728C20.4271 23.728 21.5937 23.4377 22.2353 23.0894V19.1605C21.6131 19.4121 18.5411 20.3024 18.5411 17.438V10.5673H22.2353V6.44493H18.5411L18.5605 2.24512Z" fill="#635BFF"/>
<path fill-rule="evenodd" clip-rule="evenodd" d="M5.41917 11.3607C5.41917 10.6058 6.04136 10.3155 7.07186 10.3155C8.54955 10.3155 10.4161 10.7607 11.8938 11.5542V7.00601C10.28 6.36732 8.68566 6.11572 7.07186 6.11572C3.12486 6.11572 0.5 8.16724 0.5 11.5929C0.5 16.9346 7.88848 16.083 7.88848 18.3861C7.88848 19.2764 7.11074 19.5667 6.02192 19.5667C4.40812 19.5667 2.34712 18.9087 0.713877 18.0184V22.6247C2.52211 23.3988 4.34979 23.7278 6.02192 23.7278C10.0661 23.7278 12.8465 21.7344 12.8465 18.27C12.8271 12.5025 5.41917 13.5283 5.41917 11.3607Z" fill="#635BFF"/>
</g>
<defs>
<clipPath id="clip0_860_14581">
<rect width="70" height="29" fill="white" transform="translate(0.5)"/>
</clipPath>
</defs>
</svg>
