<svg width="350" height="48" viewBox="0 0 350 48" fill="none" xmlns="http://www.w3.org/2000/svg">
<g clip-path="url(#clip0_679_7831)">
<path d="M24 48C37.255 48 48 37.255 48 24C48 10.745 37.255 0 24 0C10.745 0 0 10.745 0 24C0 37.255 10.745 48 24 48Z" fill="white"/>
<path d="M37.1727 24.313C37.1727 23.338 37.0847 22.4 36.9227 21.5H23.9727V26.825H31.3727C31.0477 28.537 30.0727 29.987 28.6097 30.963V34.425H33.0727C35.6727 32.025 37.1727 28.5 37.1727 24.313Z" fill="#4285F4"/>
<path d="M23.9703 37.75C27.6833 37.75 30.7953 36.525 33.0703 34.425L28.6083 30.963C27.3833 31.788 25.8203 32.288 23.9703 32.288C20.3953 32.288 17.3583 29.875 16.2703 26.625H11.6953V30.175C13.9583 34.662 18.5953 37.75 23.9703 37.75Z" fill="#34A853"/>
<path d="M16.2727 26.6129C15.986 25.7714 15.838 24.8889 15.8347 23.9999C15.8347 23.0879 15.9977 22.2129 16.2727 21.3879V17.8379H11.6977C10.7277 19.7471 10.2223 21.8584 10.2227 23.9999C10.2227 26.2249 10.7597 28.3129 11.6977 30.1619L15.2597 27.3869L16.2727 26.6129Z" fill="#FBBC05"/>
<path d="M23.9703 15.725C25.9953 15.725 27.7953 16.425 29.2333 17.775L33.1703 13.838C30.7833 11.613 27.6833 10.25 23.9703 10.25C18.5953 10.25 13.9583 13.338 11.6953 17.838L16.2703 21.388C17.3583 18.138 20.3953 15.725 23.9703 15.725Z" fill="#EA4335"/>
</g>
<path d="M66.32 32.456C64.816 32.456 63.488 32.208 62.336 31.712C61.2 31.2 60.24 30.52 59.456 29.672C58.688 28.808 58.104 27.84 57.704 26.768C57.32 25.68 57.128 24.552 57.128 23.384V22.856C57.128 21.752 57.32 20.672 57.704 19.616C58.088 18.56 58.648 17.608 59.384 16.76C60.136 15.912 61.056 15.24 62.144 14.744C63.248 14.232 64.512 13.976 65.936 13.976C67.472 13.976 68.832 14.264 70.016 14.84C71.2 15.4 72.152 16.192 72.872 17.216C73.592 18.224 74.016 19.4 74.144 20.744H70.712C70.6 19.992 70.32 19.352 69.872 18.824C69.424 18.28 68.856 17.864 68.168 17.576C67.496 17.288 66.752 17.144 65.936 17.144C65.12 17.144 64.376 17.288 63.704 17.576C63.048 17.864 62.488 18.272 62.024 18.8C61.56 19.328 61.2 19.96 60.944 20.696C60.704 21.432 60.584 22.248 60.584 23.144C60.584 24.12 60.72 24.992 60.992 25.76C61.264 26.528 61.648 27.184 62.144 27.728C62.64 28.256 63.24 28.664 63.944 28.952C64.648 29.224 65.44 29.36 66.32 29.36C67.488 29.36 68.512 29.12 69.392 28.64C70.272 28.144 70.912 27.504 71.312 26.72L70.712 29.48V24.968H73.856V28.856C73.104 29.992 72.08 30.88 70.784 31.52C69.488 32.144 68 32.456 66.32 32.456ZM65.768 25.64V23.096H75.32V25.64H65.768ZM84.1288 32.456C82.9768 32.456 81.9608 32.272 81.0808 31.904C80.2008 31.536 79.4568 31.04 78.8488 30.416C78.2408 29.776 77.7768 29.056 77.4568 28.256C77.1528 27.456 77.0008 26.624 77.0008 25.76V25.256C77.0008 24.36 77.1608 23.512 77.4808 22.712C77.8168 21.896 78.2888 21.176 78.8968 20.552C79.5208 19.912 80.2728 19.416 81.1528 19.064C82.0328 18.696 83.0248 18.512 84.1288 18.512C85.2328 18.512 86.2248 18.696 87.1048 19.064C87.9848 19.416 88.7288 19.912 89.3368 20.552C89.9608 21.176 90.4328 21.896 90.7528 22.712C91.0728 23.512 91.2328 24.36 91.2328 25.256V25.76C91.2328 26.624 91.0728 27.456 90.7528 28.256C90.4488 29.056 89.9928 29.776 89.3848 30.416C88.7768 31.04 88.0328 31.536 87.1528 31.904C86.2728 32.272 85.2648 32.456 84.1288 32.456ZM84.1288 29.6C84.9448 29.6 85.6328 29.424 86.1928 29.072C86.7528 28.704 87.1768 28.216 87.4648 27.608C87.7528 26.984 87.8968 26.28 87.8968 25.496C87.8968 24.696 87.7448 23.992 87.4408 23.384C87.1528 22.76 86.7208 22.272 86.1448 21.92C85.5848 21.552 84.9128 21.368 84.1288 21.368C83.3448 21.368 82.6648 21.552 82.0888 21.92C81.5288 22.272 81.0968 22.76 80.7928 23.384C80.4888 23.992 80.3368 24.696 80.3368 25.496C80.3368 26.28 80.4808 26.984 80.7688 27.608C81.0728 28.216 81.5048 28.704 82.0648 29.072C82.6248 29.424 83.3128 29.6 84.1288 29.6ZM100.418 32.456C99.2658 32.456 98.2498 32.272 97.3698 31.904C96.4898 31.536 95.7458 31.04 95.1378 30.416C94.5298 29.776 94.0658 29.056 93.7458 28.256C93.4418 27.456 93.2898 26.624 93.2898 25.76V25.256C93.2898 24.36 93.4498 23.512 93.7698 22.712C94.1058 21.896 94.5778 21.176 95.1858 20.552C95.8098 19.912 96.5618 19.416 97.4418 19.064C98.3218 18.696 99.3138 18.512 100.418 18.512C101.522 18.512 102.514 18.696 103.394 19.064C104.274 19.416 105.018 19.912 105.626 20.552C106.25 21.176 106.722 21.896 107.042 22.712C107.362 23.512 107.522 24.36 107.522 25.256V25.76C107.522 26.624 107.362 27.456 107.042 28.256C106.738 29.056 106.282 29.776 105.674 30.416C105.066 31.04 104.322 31.536 103.442 31.904C102.562 32.272 101.554 32.456 100.418 32.456ZM100.418 29.6C101.234 29.6 101.922 29.424 102.482 29.072C103.042 28.704 103.466 28.216 103.754 27.608C104.042 26.984 104.186 26.28 104.186 25.496C104.186 24.696 104.034 23.992 103.73 23.384C103.442 22.76 103.01 22.272 102.434 21.92C101.874 21.552 101.202 21.368 100.418 21.368C99.6338 21.368 98.9538 21.552 98.3778 21.92C97.8178 22.272 97.3858 22.76 97.0818 23.384C96.7778 23.992 96.6258 24.696 96.6258 25.496C96.6258 26.28 96.7698 26.984 97.0578 27.608C97.3618 28.216 97.7938 28.704 98.3538 29.072C98.9138 29.424 99.6018 29.6 100.418 29.6ZM115.531 37.136C114.907 37.136 114.267 37.112 113.611 37.064C112.971 37.016 112.371 36.952 111.811 36.872V34.088C112.387 34.152 113.003 34.208 113.659 34.256C114.315 34.32 114.931 34.352 115.507 34.352C116.579 34.352 117.443 34.224 118.099 33.968C118.771 33.712 119.259 33.304 119.563 32.744C119.883 32.2 120.043 31.504 120.043 30.656V28.088L120.763 26.456C120.715 27.656 120.467 28.68 120.019 29.528C119.571 30.36 118.963 31 118.195 31.448C117.427 31.88 116.539 32.096 115.531 32.096C114.635 32.096 113.819 31.928 113.083 31.592C112.363 31.256 111.739 30.792 111.211 30.2C110.699 29.608 110.299 28.912 110.011 28.112C109.723 27.312 109.579 26.456 109.579 25.544V25.04C109.579 24.128 109.723 23.28 110.011 22.496C110.315 21.696 110.739 21 111.283 20.408C111.827 19.816 112.475 19.36 113.227 19.04C113.979 18.72 114.811 18.56 115.723 18.56C116.795 18.56 117.723 18.792 118.507 19.256C119.307 19.72 119.931 20.392 120.379 21.272C120.827 22.152 121.075 23.232 121.123 24.512L120.547 24.608V18.968H123.187V30.464C123.187 32.048 122.915 33.328 122.371 34.304C121.827 35.28 120.987 35.992 119.851 36.44C118.731 36.904 117.291 37.136 115.531 37.136ZM116.491 29.24C117.131 29.24 117.715 29.096 118.243 28.808C118.771 28.52 119.195 28.104 119.515 27.56C119.835 27.016 119.995 26.36 119.995 25.592V24.752C119.995 24.016 119.827 23.392 119.491 22.88C119.171 22.368 118.747 21.984 118.219 21.728C117.691 21.456 117.115 21.32 116.491 21.32C115.787 21.32 115.163 21.488 114.619 21.824C114.091 22.144 113.675 22.6 113.371 23.192C113.067 23.784 112.915 24.488 112.915 25.304C112.915 26.104 113.067 26.8 113.371 27.392C113.675 27.984 114.091 28.44 114.619 28.76C115.163 29.08 115.787 29.24 116.491 29.24ZM126.994 32V14.48H130.33V32H126.994ZM125.362 16.976V14.48H130.33V16.976H125.362ZM139.97 32.456C138.85 32.456 137.866 32.264 137.018 31.88C136.186 31.496 135.49 30.984 134.93 30.344C134.386 29.688 133.97 28.96 133.682 28.16C133.41 27.36 133.274 26.544 133.274 25.712V25.256C133.274 24.392 133.41 23.56 133.682 22.76C133.97 21.944 134.386 21.224 134.93 20.6C135.49 19.96 136.178 19.456 136.994 19.088C137.81 18.704 138.754 18.512 139.826 18.512C141.234 18.512 142.41 18.824 143.354 19.448C144.314 20.056 145.034 20.864 145.514 21.872C145.994 22.864 146.234 23.936 146.234 25.088V26.288H134.69V24.248H144.146L143.114 25.256C143.114 24.424 142.994 23.712 142.754 23.12C142.514 22.528 142.146 22.072 141.65 21.752C141.17 21.432 140.562 21.272 139.826 21.272C139.09 21.272 138.466 21.44 137.954 21.776C137.442 22.112 137.05 22.6 136.778 23.24C136.522 23.864 136.394 24.616 136.394 25.496C136.394 26.312 136.522 27.04 136.778 27.68C137.034 28.304 137.426 28.8 137.954 29.168C138.482 29.52 139.154 29.696 139.97 29.696C140.786 29.696 141.45 29.536 141.962 29.216C142.474 28.88 142.802 28.472 142.946 27.992H146.018C145.826 28.888 145.458 29.672 144.914 30.344C144.37 31.016 143.674 31.536 142.826 31.904C141.994 32.272 141.042 32.456 139.97 32.456ZM160.441 32.456C158.889 32.456 157.577 32.208 156.505 31.712C155.449 31.216 154.641 30.536 154.081 29.672C153.521 28.792 153.241 27.8 153.241 26.696H156.577C156.577 27.16 156.705 27.616 156.961 28.064C157.217 28.496 157.625 28.848 158.185 29.12C158.761 29.392 159.513 29.528 160.441 29.528C161.273 29.528 161.969 29.408 162.529 29.168C163.089 28.928 163.505 28.616 163.777 28.232C164.049 27.832 164.185 27.384 164.185 26.888C164.185 26.264 163.921 25.768 163.393 25.4C162.865 25.016 162.049 24.776 160.945 24.68L159.409 24.56C157.729 24.416 156.385 23.896 155.377 23C154.385 22.088 153.889 20.888 153.889 19.4C153.889 18.28 154.153 17.32 154.681 16.52C155.209 15.704 155.945 15.08 156.889 14.648C157.849 14.2 158.969 13.976 160.249 13.976C161.577 13.976 162.721 14.208 163.681 14.672C164.641 15.136 165.385 15.792 165.913 16.64C166.441 17.472 166.705 18.456 166.705 19.592H163.369C163.369 19.112 163.249 18.672 163.009 18.272C162.785 17.856 162.441 17.528 161.977 17.288C161.529 17.032 160.953 16.904 160.249 16.904C159.577 16.904 159.017 17.016 158.569 17.24C158.121 17.464 157.785 17.768 157.561 18.152C157.337 18.536 157.225 18.952 157.225 19.4C157.225 19.944 157.425 20.424 157.825 20.84C158.225 21.24 158.857 21.472 159.721 21.536L161.257 21.68C162.505 21.776 163.601 22.04 164.545 22.472C165.489 22.904 166.217 23.488 166.729 24.224C167.257 24.96 167.521 25.848 167.521 26.888C167.521 27.992 167.233 28.968 166.657 29.816C166.081 30.648 165.257 31.296 164.185 31.76C163.129 32.224 161.881 32.456 160.441 32.456ZM170.637 32V14.48H173.973V32H170.637ZM173.493 32V29.12H181.437V32H173.493ZM173.493 24.536V21.656H180.813V24.536H173.493ZM173.493 17.36V14.48H181.245V17.36H173.493ZM184.933 32V14.36H188.341V32H184.933ZM195.637 32L190.261 24.368H194.077L199.621 32H195.637ZM187.333 26.144V23.384H191.797C192.421 23.384 192.957 23.256 193.405 23C193.869 22.744 194.229 22.384 194.485 21.92C194.741 21.456 194.869 20.928 194.869 20.336C194.869 19.728 194.741 19.192 194.485 18.728C194.229 18.264 193.869 17.904 193.405 17.648C192.957 17.392 192.421 17.264 191.797 17.264H187.333V14.36H191.437C192.845 14.36 194.061 14.568 195.085 14.984C196.125 15.4 196.925 16.032 197.485 16.88C198.045 17.728 198.325 18.792 198.325 20.072V20.456C198.325 21.752 198.037 22.816 197.461 23.648C196.901 24.48 196.109 25.104 195.085 25.52C194.061 25.936 192.845 26.144 191.437 26.144H187.333ZM205.135 26.624V23.672H208.543C209.231 23.672 209.807 23.536 210.271 23.264C210.751 22.992 211.111 22.616 211.351 22.136C211.607 21.656 211.735 21.104 211.735 20.48C211.735 19.856 211.607 19.304 211.351 18.824C211.111 18.344 210.751 17.976 210.271 17.72C209.807 17.448 209.231 17.312 208.543 17.312H205.135V14.36H208.255C209.727 14.36 210.975 14.6 211.999 15.08C213.039 15.56 213.831 16.248 214.375 17.144C214.919 18.024 215.191 19.072 215.191 20.288V20.672C215.191 21.888 214.919 22.944 214.375 23.84C213.831 24.72 213.039 25.408 211.999 25.904C210.975 26.384 209.727 26.624 208.255 26.624H205.135ZM202.207 32V14.36H205.615V32H202.207Z" fill="black"/>
<defs>
<clipPath id="clip0_679_7831">
<rect width="48" height="48" fill="white"/>
</clipPath>
</defs>
</svg>
