<svg width="65" height="64" viewBox="0 0 65 64" fill="none" xmlns="http://www.w3.org/2000/svg">
<g clip-path="url(#clip0_755_10101)">
<path d="M12.3699 46.6585C7.28126 45.572 3.41187 42.482 1.616 38.0711C0.183207 34.5124 0.119142 29.8887 1.48694 26.4584C3.15466 22.1966 7.21718 18.6594 11.7923 17.4453C13.9308 16.8697 18.5913 16.9335 20.9861 17.5728C23.0392 18.1269 25.6253 19.3841 26.8018 20.4284C27.6784 21.2159 37.7915 32.7012 39.0098 34.3211C40.1 35.7696 42.7083 38.3908 43.7567 39.1155C46.5359 41.0326 48.9521 41.4808 51.71 40.6286C59.2574 38.2839 59.8768 27.2684 52.6506 23.7097C51.6004 23.2034 51.2475 22.9447 50.0404 22.8603C49.7247 22.8378 49.3495 22.8275 48.888 22.8275C48.3021 22.8275 47.8564 22.8444 47.4914 22.8819C46.4821 22.985 46.0921 23.24 45.1031 23.7097C42.4734 24.9453 40.7416 27.3106 40.229 30.4212C40.0786 31.2527 40.0359 32.2971 40.1 32.7443C40.164 33.213 40.1854 33.5749 40.1427 33.5749C40.0145 33.5749 34.4347 27.3743 34.3279 27.0978C34.0066 26.2878 36.1451 22.9428 38.1332 21.11C41.3833 18.1053 45.4021 16.7413 50.0636 17.0403C54.3183 17.2963 57.9955 18.9791 60.5825 21.8553C67.2748 29.2287 65.1149 40.8414 56.221 45.316C53.933 46.4663 51.9662 46.8929 48.888 46.8929C45.7448 46.8929 44.2479 46.5732 41.8318 45.4229C39.0739 44.1011 38.3895 43.4411 30.8003 34.534C23.1246 25.5425 22.0976 24.5197 19.6601 23.5606C18.5059 23.1125 17.972 23.0281 15.9616 23.0281C13.7386 23.0281 13.5241 23.0703 12.199 23.7097C10.4458 24.5834 8.99169 26.075 8.09375 27.9921C7.45211 29.3346 7.40939 29.5484 7.40939 31.8705C7.40939 34.7468 7.64526 35.6205 8.82084 37.3896C9.84691 38.9448 11.6001 40.2658 13.2891 40.7561C15.7694 41.5229 20.1309 40.9905 21.7132 39.7333C22.2694 39.3067 22.2908 39.2214 22.2258 37.3258L22.1617 35.3861L18.9126 35.3224L15.6412 35.2586V29.7396H20.3018L24.9419 29.7612L26.7164 31.849L28.4695 33.9583V42.4183L27.229 43.3126C23.1033 46.3604 17.1808 47.6813 12.3699 46.6585Z" fill="white"/>
</g>
<defs>
<clipPath id="clip0_755_10101">
<rect width="64" height="64" fill="white" transform="translate(0.5)"/>
</clipPath>
</defs>
</svg>
