<svg width="65" height="64" viewBox="0 0 65 64" fill="none" xmlns="http://www.w3.org/2000/svg">
<g clip-path="url(#clip0_755_10092)">
<path fill-rule="evenodd" clip-rule="evenodd" d="M29.3776 8.34546C31.7421 4.66111 35.9972 -0.305536 43.0896 0.0147393C48.1325 0.335015 51.915 2.8984 53.1766 7.86385C54.1219 11.3881 53.3342 16.3547 52.3877 19.8777C49.3941 31.2511 41.6716 34.7753 48.4476 49.0323C50.6545 53.8376 56.9591 56.8814 53.4917 59.2846C50.1819 61.6867 41.3553 59.1245 36.1548 54.1579C18.5039 37.9792 22.6015 18.9169 29.3776 8.34546Z" fill="#AE04BC"/>
<path fill-rule="evenodd" clip-rule="evenodd" d="M49.6999 22.2811C51.7493 21.3203 57.4224 20.1993 61.3625 23.4021C64.1996 25.8053 65.3026 29.0093 63.8846 32.5335C62.9392 34.9356 60.2596 37.499 58.2102 39.2605C51.4342 44.7075 45.6023 43.2651 43.239 54.7986C42.45 58.6431 44.8145 63.1293 41.8198 63.1293C38.8251 63.1293 34.7275 57.6822 33.7821 52.3965C30.4723 34.9356 41.5047 26.2858 49.6999 22.2811Z" fill="#1900CE"/>
<path fill-rule="evenodd" clip-rule="evenodd" d="M40.5621 63.93C24.8008 62.4876 9.19813 51.2756 2.7372 36.5382C-2.93713 23.5623 1.94941 2.41821 20.0729 12.8307C32.9972 20.1994 28.5833 36.2179 38.5128 47.7514C45.7626 56.0809 56.0073 53.5175 54.1154 59.1247C52.5399 63.6098 44.5022 64.2503 40.5621 63.93Z" fill="white"/>
</g>
<defs>
<clipPath id="clip0_755_10092">
<rect width="64" height="64" fill="white" transform="translate(0.5)"/>
</clipPath>
</defs>
</svg>
