<svg width="350" height="48" viewBox="0 0 350 48" fill="none" xmlns="http://www.w3.org/2000/svg">
<path d="M3.36676 14.9117C3.55956 11.9435 5.94592 9.61735 8.9167 9.47017C13.2186 9.25704 19.3672 9 24 9C28.6328 9 34.7814 9.25704 39.0833 9.47017C42.0541 9.61735 44.4404 11.9435 44.6332 14.9117C44.818 17.7554 45 21.2545 45 24C45 26.7455 44.818 30.2446 44.6332 33.0883C44.4404 36.0565 42.0541 38.3827 39.0833 38.5298C34.7814 38.743 28.6328 39 24 39C19.3672 39 13.2186 38.743 8.9167 38.5298C5.94592 38.3827 3.55956 36.0565 3.36676 33.0883C3.18205 30.2446 3 26.7455 3 24C3 21.2545 3.18205 17.7554 3.36676 14.9117Z" fill="#FC0D1B"/>
<path d="M19.5 18V30L31.5 24L19.5 18Z" fill="white"/>
<path d="M61.52 25.304L56.24 14.48H59.744L63.776 22.952L63.008 22.712H65.288L64.472 22.952L68.144 14.48H71.456L66.584 25.304H61.52ZM62.384 32V24.776H65.72V32H62.384ZM78.5506 32.456C77.3986 32.456 76.3826 32.272 75.5026 31.904C74.6226 31.536 73.8786 31.04 73.2706 30.416C72.6626 29.776 72.1986 29.056 71.8786 28.256C71.5746 27.456 71.4226 26.624 71.4226 25.76V25.256C71.4226 24.36 71.5826 23.512 71.9026 22.712C72.2386 21.896 72.7106 21.176 73.3186 20.552C73.9426 19.912 74.6946 19.416 75.5746 19.064C76.4546 18.696 77.4466 18.512 78.5506 18.512C79.6546 18.512 80.6466 18.696 81.5266 19.064C82.4066 19.416 83.1506 19.912 83.7586 20.552C84.3826 21.176 84.8546 21.896 85.1746 22.712C85.4946 23.512 85.6546 24.36 85.6546 25.256V25.76C85.6546 26.624 85.4946 27.456 85.1746 28.256C84.8706 29.056 84.4146 29.776 83.8066 30.416C83.1986 31.04 82.4546 31.536 81.5746 31.904C80.6946 32.272 79.6866 32.456 78.5506 32.456ZM78.5506 29.6C79.3666 29.6 80.0546 29.424 80.6146 29.072C81.1746 28.704 81.5986 28.216 81.8866 27.608C82.1746 26.984 82.3186 26.28 82.3186 25.496C82.3186 24.696 82.1666 23.992 81.8626 23.384C81.5746 22.76 81.1426 22.272 80.5666 21.92C80.0066 21.552 79.3346 21.368 78.5506 21.368C77.7666 21.368 77.0866 21.552 76.5106 21.92C75.9506 22.272 75.5186 22.76 75.2146 23.384C74.9106 23.992 74.7586 24.696 74.7586 25.496C74.7586 26.28 74.9026 26.984 75.1906 27.608C75.4946 28.216 75.9266 28.704 76.4866 29.072C77.0466 29.424 77.7346 29.6 78.5506 29.6ZM93.0157 32.408C91.5117 32.408 90.3437 31.912 89.5117 30.92C88.6957 29.928 88.2877 28.456 88.2877 26.504V18.944H91.6237V26.792C91.6237 27.592 91.8477 28.232 92.2957 28.712C92.7437 29.176 93.3517 29.408 94.1197 29.408C94.8877 29.408 95.5117 29.16 95.9917 28.664C96.4877 28.168 96.7357 27.496 96.7357 26.648V18.944H100.072V32H97.4317V26.456H97.6957C97.6957 27.768 97.5277 28.864 97.1917 29.744C96.8557 30.624 96.3517 31.288 95.6797 31.736C95.0077 32.184 94.1677 32.408 93.1597 32.408H93.0157ZM107.624 32V17H111.032V32H107.624ZM102.56 17.48V14.48H116.096V17.48H102.56ZM121.938 32.408C120.434 32.408 119.266 31.912 118.434 30.92C117.618 29.928 117.21 28.456 117.21 26.504V18.944H120.546V26.792C120.546 27.592 120.77 28.232 121.218 28.712C121.666 29.176 122.274 29.408 123.042 29.408C123.81 29.408 124.434 29.16 124.914 28.664C125.41 28.168 125.658 27.496 125.658 26.648V18.944H128.994V32H126.354V26.456H126.618C126.618 27.768 126.45 28.864 126.114 29.744C125.778 30.624 125.274 31.288 124.602 31.736C123.93 32.184 123.09 32.408 122.082 32.408H121.938ZM140.482 32.432C139.41 32.432 138.466 32.208 137.65 31.76C136.834 31.296 136.194 30.624 135.73 29.744C135.266 28.864 135.01 27.8 134.962 26.552H135.466V32H132.826V14.48H136.162V23.24L135.274 24.608C135.338 23.264 135.602 22.144 136.066 21.248C136.546 20.352 137.186 19.68 137.986 19.232C138.786 18.784 139.69 18.56 140.698 18.56C141.594 18.56 142.41 18.728 143.146 19.064C143.882 19.4 144.514 19.872 145.042 20.48C145.57 21.072 145.97 21.768 146.242 22.568C146.53 23.368 146.674 24.24 146.674 25.184V25.688C146.674 26.632 146.53 27.512 146.242 28.328C145.954 29.144 145.538 29.864 144.994 30.488C144.45 31.096 143.794 31.576 143.026 31.928C142.274 32.264 141.426 32.432 140.482 32.432ZM139.738 29.624C140.458 29.624 141.082 29.448 141.61 29.096C142.154 28.728 142.578 28.232 142.882 27.608C143.186 26.984 143.338 26.264 143.338 25.448C143.338 24.616 143.186 23.896 142.882 23.288C142.578 22.68 142.154 22.208 141.61 21.872C141.082 21.536 140.458 21.368 139.738 21.368C139.082 21.368 138.474 21.512 137.914 21.8C137.37 22.088 136.922 22.512 136.57 23.072C136.234 23.632 136.066 24.304 136.066 25.088V26.048C136.066 26.8 136.242 27.44 136.594 27.968C136.946 28.496 137.402 28.904 137.962 29.192C138.522 29.48 139.114 29.624 139.738 29.624ZM155.439 32.456C154.319 32.456 153.335 32.264 152.487 31.88C151.655 31.496 150.959 30.984 150.399 30.344C149.855 29.688 149.439 28.96 149.151 28.16C148.879 27.36 148.743 26.544 148.743 25.712V25.256C148.743 24.392 148.879 23.56 149.151 22.76C149.439 21.944 149.855 21.224 150.399 20.6C150.959 19.96 151.647 19.456 152.463 19.088C153.279 18.704 154.223 18.512 155.295 18.512C156.703 18.512 157.879 18.824 158.823 19.448C159.783 20.056 160.503 20.864 160.983 21.872C161.463 22.864 161.703 23.936 161.703 25.088V26.288H150.159V24.248H159.615L158.583 25.256C158.583 24.424 158.463 23.712 158.223 23.12C157.983 22.528 157.615 22.072 157.119 21.752C156.639 21.432 156.031 21.272 155.295 21.272C154.559 21.272 153.935 21.44 153.423 21.776C152.911 22.112 152.519 22.6 152.247 23.24C151.991 23.864 151.863 24.616 151.863 25.496C151.863 26.312 151.991 27.04 152.247 27.68C152.503 28.304 152.895 28.8 153.423 29.168C153.951 29.52 154.623 29.696 155.439 29.696C156.255 29.696 156.919 29.536 157.431 29.216C157.943 28.88 158.271 28.472 158.415 27.992H161.487C161.295 28.888 160.927 29.672 160.383 30.344C159.839 31.016 159.143 31.536 158.295 31.904C157.463 32.272 156.511 32.456 155.439 32.456ZM175.909 32.456C174.357 32.456 173.045 32.208 171.973 31.712C170.917 31.216 170.109 30.536 169.549 29.672C168.989 28.792 168.709 27.8 168.709 26.696H172.045C172.045 27.16 172.173 27.616 172.429 28.064C172.685 28.496 173.093 28.848 173.653 29.12C174.229 29.392 174.981 29.528 175.909 29.528C176.741 29.528 177.437 29.408 177.997 29.168C178.557 28.928 178.973 28.616 179.245 28.232C179.517 27.832 179.653 27.384 179.653 26.888C179.653 26.264 179.389 25.768 178.861 25.4C178.333 25.016 177.517 24.776 176.413 24.68L174.877 24.56C173.197 24.416 171.853 23.896 170.845 23C169.853 22.088 169.357 20.888 169.357 19.4C169.357 18.28 169.621 17.32 170.149 16.52C170.677 15.704 171.413 15.08 172.357 14.648C173.317 14.2 174.437 13.976 175.717 13.976C177.045 13.976 178.189 14.208 179.149 14.672C180.109 15.136 180.853 15.792 181.381 16.64C181.909 17.472 182.173 18.456 182.173 19.592H178.837C178.837 19.112 178.717 18.672 178.477 18.272C178.253 17.856 177.909 17.528 177.445 17.288C176.997 17.032 176.421 16.904 175.717 16.904C175.045 16.904 174.485 17.016 174.037 17.24C173.589 17.464 173.253 17.768 173.029 18.152C172.805 18.536 172.693 18.952 172.693 19.4C172.693 19.944 172.893 20.424 173.293 20.84C173.693 21.24 174.325 21.472 175.189 21.536L176.725 21.68C177.973 21.776 179.069 22.04 180.013 22.472C180.957 22.904 181.685 23.488 182.197 24.224C182.725 24.96 182.989 25.848 182.989 26.888C182.989 27.992 182.701 28.968 182.125 29.816C181.549 30.648 180.725 31.296 179.653 31.76C178.597 32.224 177.349 32.456 175.909 32.456ZM186.105 32V14.48H189.441V32H186.105ZM188.961 32V29.12H196.905V32H188.961ZM188.961 24.536V21.656H196.281V24.536H188.961ZM188.961 17.36V14.48H196.713V17.36H188.961ZM200.402 32V14.36H203.81V32H200.402ZM211.106 32L205.73 24.368H209.546L215.09 32H211.106ZM202.802 26.144V23.384H207.266C207.89 23.384 208.426 23.256 208.874 23C209.338 22.744 209.698 22.384 209.954 21.92C210.21 21.456 210.338 20.928 210.338 20.336C210.338 19.728 210.21 19.192 209.954 18.728C209.698 18.264 209.338 17.904 208.874 17.648C208.426 17.392 207.89 17.264 207.266 17.264H202.802V14.36H206.906C208.314 14.36 209.53 14.568 210.554 14.984C211.594 15.4 212.394 16.032 212.954 16.88C213.514 17.728 213.794 18.792 213.794 20.072V20.456C213.794 21.752 213.506 22.816 212.93 23.648C212.37 24.48 211.578 25.104 210.554 25.52C209.53 25.936 208.314 26.144 206.906 26.144H202.802ZM220.604 26.624V23.672H224.012C224.7 23.672 225.276 23.536 225.74 23.264C226.22 22.992 226.58 22.616 226.82 22.136C227.076 21.656 227.204 21.104 227.204 20.48C227.204 19.856 227.076 19.304 226.82 18.824C226.58 18.344 226.22 17.976 225.74 17.72C225.276 17.448 224.7 17.312 224.012 17.312H220.604V14.36H223.724C225.196 14.36 226.444 14.6 227.468 15.08C228.508 15.56 229.3 16.248 229.844 17.144C230.388 18.024 230.66 19.072 230.66 20.288V20.672C230.66 21.888 230.388 22.944 229.844 23.84C229.3 24.72 228.508 25.408 227.468 25.904C226.444 26.384 225.196 26.624 223.724 26.624H220.604ZM217.676 32V14.36H221.084V32H217.676Z" fill="black"/>
</svg>
