<svg width="41" height="42" viewBox="0 0 41 42" fill="none" xmlns="http://www.w3.org/2000/svg">
<path d="M19.6566 3.42008C20.7799 3.42008 21.864 3.55347 22.8715 3.78214C24.9245 4.27759 28.6233 5.74488 30.2501 9.86142L30.2887 9.97576C30.6372 10.8714 31.1216 12.0719 31.0439 14.9493C30.9858 17.1598 30.0174 19.0277 29.8239 19.3898C29.4367 20.0949 29.2431 20.7618 29.185 21.0095V21.0476C28.7006 22.6864 29.0491 24.5158 30.231 26.6315C30.56 27.2222 31.5865 28.7848 34.298 31.243C34.1816 31.1858 34.0653 31.1096 33.9299 31.0333C33.5814 30.7856 31.9932 29.6804 31.2184 29.1849C31.1798 29.1468 31.1217 29.1278 31.083 29.0897C30.669 28.8562 30.2024 28.7316 29.7271 28.7276C28.9914 28.7276 28.333 29.0325 27.8681 29.5851C27.3646 30.214 27.2097 30.9952 27.4033 31.948C27.4228 32.0243 27.4419 32.0814 27.4614 32.1576L28.4879 35.2828L28.9523 36.6357C28.8555 36.5405 28.7397 36.4261 28.6619 36.3118C27.8486 35.3018 26.5317 33.4915 25.8537 32.5006C25.0985 31.2811 23.6462 29.2421 22.0385 28.7657C21.7115 28.6689 21.3727 28.6176 21.0316 28.6133C20.3732 28.6133 18.1461 28.8419 17.255 31.9099C17.0419 32.6531 16.8679 33.32 16.6934 33.9679C16.5035 34.7138 16.3034 35.4571 16.0931 36.1975C16.0736 36.2356 16.0736 36.2927 16.054 36.3313C16.054 36.3313 15.9186 36.9411 15.6283 37.6843C15.5701 37.8367 15.4347 38.2179 15.2797 38.4846C15.2515 38.3591 15.2321 38.2318 15.2216 38.1035V38.0464C15.1052 36.3499 15.1052 35.6639 15.1052 34.9588V34.1013C15.1052 32.5006 14.8149 29.7566 12.82 28.9563C12.4584 28.8037 12.0697 28.7259 11.6772 28.7276C11.1737 28.7276 10.3995 28.861 9.64374 29.5089L9.60513 29.547C9.58608 29.5661 7.82341 31.1286 6.9328 31.8718C7.14542 31.243 7.10681 30.5951 6.81646 30.0425C6.62289 29.6804 6.33204 29.3755 5.98352 29.1849C7.41671 27.9273 7.93975 27.4318 8.19149 27.1264C9.31478 25.8502 10.7089 23.1247 9.56651 20.0758C9.56651 20.0567 9.56651 20.0567 9.54695 20.0377C9.54695 20.0186 8.77218 18.0554 8.36549 15.7115C8.21054 14.854 8.17193 11.5574 9.43112 9.09919C10.9415 6.16411 13.3431 4.35381 16.577 3.72497C17.5909 3.52117 18.6225 3.41904 19.6566 3.42008ZM19.6566 1C18.4365 1 17.236 1.13339 16.1513 1.34301C11.2128 2.31485 8.69496 5.36377 7.3781 7.93679C5.88674 10.8523 5.84812 14.6444 6.0803 15.9974C6.54516 18.6466 7.39716 20.7999 7.39716 20.7999C8.48183 23.6964 6.27387 25.9645 6.27387 25.9645C6.17709 26.1932 2.96217 28.9182 2.59459 29.2612C2.22651 29.6042 1.21957 30.4426 0.59975 31.3573C0.309399 31.8909 0.696529 32.2529 1.2 32.2529C1.27773 32.2529 1.35497 32.2529 1.41314 32.2339C1.85844 32.1386 4.12457 31.2048 4.12457 31.2048C4.2492 31.1607 4.37963 31.135 4.51171 31.1286C4.9184 31.1286 4.55032 31.6241 4.55032 31.6241L2.43964 34.4253C1.0255 36.3885 1.31634 36.9787 1.72304 37.3032C1.83938 37.3985 1.99383 37.4361 2.20695 37.4361C2.65276 37.4361 3.25302 37.227 3.83373 36.9411C4.66667 36.5214 7.14542 34.5777 7.86202 33.9679C8.57862 33.3772 10.922 31.3001 10.922 31.3001C11.1933 31.0715 11.4255 31.0143 11.6 31.0143C11.7745 31.0143 11.8903 31.0715 11.8903 31.0715C12.9168 31.4335 12.9168 34.3681 12.9168 34.3681C12.9364 35.5496 12.8782 36.0455 13.0522 38.4846C13.13 40.5236 14.5436 40.9619 15.202 41H15.3765C16.1122 41 16.4998 40.7332 16.8097 40.3521C17.1001 40.0091 17.3323 39.5518 17.6427 38.7133C17.9907 37.7796 18.1461 37.0555 18.1461 37.0555C18.6301 35.3781 18.8818 34.1966 19.3271 32.6912C19.6952 31.4335 20.3732 30.8809 21.0702 30.8809C21.2059 30.8809 21.3415 30.9 21.4769 30.9381C22.5811 31.262 24.1688 33.8345 24.1688 33.8345C24.8663 34.8636 26.28 36.8072 27.1515 37.8749C27.3065 38.0654 28.1971 39.1516 29.3013 39.5327C29.594 39.6343 29.9017 39.6858 30.2115 39.6852C30.7922 39.6852 31.1603 39.4946 31.1603 39.4946C32.1868 38.9801 31.4702 37.0555 31.4897 37.0359L30.7536 34.8254L29.708 31.6431C29.5917 31.0715 29.7662 30.9571 29.9402 30.9571C30.0951 30.9571 30.2501 31.0333 30.2501 31.0333C31.1021 31.586 33.0197 32.9389 33.0197 32.9389C35.4207 34.3681 37.377 34.5015 37.377 34.5015C37.7837 34.5587 38.1131 34.5968 38.423 34.5968C39.3718 34.5968 39.7785 34.33 40.0303 34.1775C40.3402 33.9679 40.5337 33.5868 40.4951 33.3391C40.4565 33.1104 40.0303 32.8436 40.0303 32.8436C39.8753 32.7293 38.1713 31.605 37.203 30.8047C33.8522 27.9649 32.6712 26.2308 32.3417 25.6591C31.238 23.6964 31.1994 22.4578 31.4506 21.6003C31.4897 21.4478 31.6447 20.8761 31.935 20.3426C32.1482 19.9424 33.3682 17.6552 33.4264 14.8731C33.5232 11.4049 32.8648 9.89953 32.4581 8.88958C30.56 4.12514 26.4349 2.14335 23.4527 1.41923C22.2067 1.13982 20.9335 0.999221 19.6566 1Z" fill="#0D0D0D" stroke="#0D0D0D" stroke-width="0.541"/>
</svg>
