<svg width="40" height="40" viewBox="0 0 40 40" fill="none" xmlns="http://www.w3.org/2000/svg">
<path fill-rule="evenodd" clip-rule="evenodd" d="M23.2261 33.1499C26.019 35.2295 27.7188 37.6762 27.84 39.8779V40H34.7612V39.8779C34.7612 37.6762 36.0966 35.5966 39.1318 33.517L39.253 33.3949H39.375V24.8323C39.1318 24.9544 39.0106 25.0765 38.8895 25.1986L38.6463 25.3215C37.432 26.0557 36.339 26.6669 35.3679 27.4011L35.2467 27.5232C33.7893 28.6245 32.3326 29.847 31.2396 31.1932C30.1473 29.847 28.6899 28.6245 27.2333 27.5232C26.2614 26.789 25.1691 26.1778 23.8337 25.3215L23.5905 25.1986C23.4693 25.0765 23.3481 25.0765 23.105 24.9544L20.9196 23.7311C20.5553 23.4861 20.3121 23.364 20.0697 23.2419L19.8266 23.1198C18.4911 22.2636 17.2769 21.6515 16.1846 20.7952C14.1205 19.3277 12.7842 17.8594 12.0563 16.2689C11.5708 15.1685 11.4488 14.1901 11.4488 13.211C11.4488 9.66385 14.2416 6.8509 17.7624 6.8509C21.2832 6.8509 24.3192 9.78593 24.3192 13.211C24.3192 14.1893 24.198 15.1685 23.7117 16.2689C23.105 17.6152 22.0119 18.9606 20.3121 20.184C20.5553 20.306 20.9196 20.551 21.284 20.6731L21.5264 20.7952L21.6483 20.9173L23.2261 21.8965C24.076 22.3856 24.5616 22.6298 24.9259 22.8748L25.2903 23.1198C25.7758 23.364 26.1402 23.609 26.5045 23.8532L26.6257 23.9761C28.0832 22.5077 29.176 20.9173 29.9041 19.2048C30.8752 17.1252 31.1184 15.1685 31.1184 13.3331C31.1184 5.99381 25.2903 0.122087 18.1268 0H17.6412C10.5989 0 4.77077 5.99381 4.77077 13.211C4.77077 15.1685 5.13513 17.1252 5.98503 19.0827C7.19928 21.7736 9.38461 24.3423 12.5418 26.4219C13.8773 27.2782 15.2127 28.1345 16.6701 28.9907C16.7913 29.1136 16.9125 29.1136 17.1557 29.2357L19.4622 30.5811C19.7054 30.7032 19.9477 30.8261 20.0697 30.9482L20.3121 31.0703C21.6483 31.9266 22.4982 32.5387 23.2261 33.1499ZM11.2064 28.7465C10.4777 28.2574 9.74897 27.7682 9.14226 27.1561C9.02026 27.2782 8.89907 27.2782 8.77789 27.4011C6.83492 28.8686 5.13512 30.4591 3.79969 32.2937C2.22108 34.6183 1.25 37.187 1.25 39.8779H8.17035C8.17035 37.5541 9.87097 35.1074 12.7842 33.0278C13.5129 32.5387 14.2416 32.0495 15.2127 31.4374L15.4559 31.3153L15.3347 31.1932C13.7561 30.337 12.4207 29.6028 11.2064 28.7465Z" fill="#0540F7"/>
</svg>
