<svg width="65" height="64" viewBox="0 0 65 64" fill="none" xmlns="http://www.w3.org/2000/svg">
<g opacity="0.7">
<path d="M31.3994 0.155818C30.9873 -0.0329269 30.5176 -0.050914 30.0923 0.105756C29.6671 0.262425 29.3207 0.581086 29.1284 0.992472C23.6944 12.5742 21.4883 24.6985 24.0045 38.0849C24.2907 38.7431 24.9868 39.159 25.6588 39.0855C25.8716 39.071 26.0567 39.0228 26.2743 38.9481C27.1195 38.5527 27.5271 37.5195 27.1339 36.6732C25.1118 24.989 27.3972 12.7731 32.2626 2.46566C32.6293 1.58078 32.2482 0.551239 31.3994 0.155818ZM32.9587 11.6254C30.8164 19.0438 29.964 26.7767 30.4389 34.4851C30.4489 34.7115 30.5048 34.9335 30.6031 35.1376C30.7014 35.3416 30.84 35.5235 31.0106 35.6721C31.1812 35.8207 31.3802 35.933 31.5955 36.0021C31.8107 36.0712 32.0377 36.0957 32.2626 36.074C32.4883 36.0643 32.7096 36.0085 32.9131 35.9102C33.1166 35.8119 33.298 35.6731 33.4462 35.5022C33.5945 35.3313 33.7065 35.132 33.7754 34.9163C33.8444 34.7006 33.8688 34.4731 33.8472 34.2476C33.4072 26.8684 34.2054 19.5483 36.2516 12.5634C36.5293 11.6423 35.9919 10.6923 35.0734 10.4127C34.1838 10.1667 33.2364 10.7032 32.9587 11.6254Z" fill="white"/>
<path d="M45.9375 3.13722C45.7198 3.01201 45.4789 2.93285 45.2296 2.90464C44.9803 2.87642 44.7279 2.89974 44.4879 2.97318C44.248 3.04661 44.0255 3.16859 43.8344 3.33158C43.6433 3.49457 43.4875 3.69512 43.3767 3.92084C40.8412 9.14932 36.8101 18.8299 37.7371 34.044L37.7647 34.0753C37.8148 34.9301 37.6607 35.7846 37.315 36.5675C36.9693 37.3505 36.4422 38.0394 35.7774 38.5768C34.4213 39.7523 32.6637 40.2007 30.9661 39.8053C30.7467 39.7514 30.5186 39.7429 30.2957 39.7802C30.0729 39.8175 29.8599 39.8999 29.6699 40.0224C29.4798 40.1449 29.3165 40.3049 29.1901 40.4926C29.0637 40.6804 28.9766 40.892 28.9343 41.1145C28.8808 41.3347 28.8724 41.5634 28.9098 41.7869C28.9472 42.0104 29.0295 42.2239 29.1517 42.4145C29.274 42.605 29.4336 42.7687 29.6209 42.8955C29.8082 43.0222 30.0192 43.1095 30.2412 43.1519C31.0617 43.3277 31.9011 43.399 32.7394 43.3641C34.6557 43.2303 36.4951 42.4853 38.0412 41.1989C40.2317 39.3556 41.3954 36.648 41.2055 33.8101C41.2055 33.8101 41.1778 33.7763 41.2091 33.7498C40.3555 19.4809 44.0836 10.4947 46.654 5.70265C47.1433 4.79004 46.8367 3.64476 45.9375 3.13722ZM22.9725 1.56398C22.5362 1.39247 22.0497 1.4018 21.6202 1.5899C21.1907 1.778 20.8533 2.12946 20.6823 2.567C19.2805 5.57847 18.4509 8.63334 18.0049 12.0909C17.9741 12.3154 17.9891 12.5439 18.0491 12.7625C18.1092 12.981 18.2129 13.185 18.3541 13.3621C18.4952 13.5391 18.6708 13.6855 18.8702 13.7924C19.0695 13.8992 19.2885 13.9643 19.5137 13.9836C19.7375 14.0147 19.9653 13.9997 20.1831 13.9397C20.401 13.8796 20.6044 13.7757 20.7809 13.6342C20.9574 13.4928 21.1033 13.3168 21.2097 13.1169C21.3162 12.9171 21.3809 12.6976 21.4 12.4718C21.9518 9.35426 22.69 7.48083 23.9932 3.76653C24.1409 3.33833 24.117 2.86936 23.9266 2.45848C23.7362 2.04759 23.3941 1.72689 22.9725 1.56398ZM8.42315 49.7005C7.67536 50.2767 7.51186 51.3605 8.08652 52.1128C9.37986 53.843 10.8573 55.4268 12.4927 56.8361C12.8425 57.152 13.321 57.293 13.8055 57.2509C14.2463 57.2053 14.6539 56.9953 14.9476 56.6625C15.5788 55.9597 15.5019 54.8651 14.8022 54.2322C13.3604 52.971 12.049 51.5675 10.8877 50.0429C10.2529 49.2894 9.17093 49.1242 8.42315 49.7005ZM55.7801 50.0875C55.0287 49.5088 53.9407 49.6221 53.3624 50.3756C45.7824 59.9826 31.5985 63.3654 20.3685 58.1707C20.1632 58.0758 19.9412 58.0229 19.7153 58.015C19.4895 58.0071 19.2643 58.0445 19.053 58.1248C18.8417 58.2052 18.6485 58.327 18.4846 58.483C18.3207 58.6391 18.1896 58.8264 18.0987 59.0339C18.004 59.2397 17.9513 59.4623 17.9434 59.6888C17.9356 59.9153 17.9728 60.1411 18.0529 60.353C18.1331 60.5649 18.2545 60.7586 18.4102 60.9229C18.5658 61.0872 18.7526 61.2188 18.9595 61.3099C31.5011 67.052 47.5039 63.369 56.0963 52.4829C56.6445 51.7596 56.5303 50.6697 55.7801 50.0875ZM5.0461 17.1807C4.67174 17.1383 4.29427 17.2269 3.97751 17.4314C3.66075 17.6359 3.42414 17.9438 3.30768 18.3031C0.888801 25.9909 0.761366 36.3008 3.75611 44.7975C4.02541 45.5076 4.6686 45.9319 5.3695 45.9355C5.58189 45.9347 5.76944 45.8994 5.93214 45.8294C6.8266 45.5232 7.29907 44.5202 6.9937 43.6221C4.15885 35.7185 4.8357 27.1241 6.55008 19.282C6.6033 19.0436 6.60565 18.7967 6.55699 18.5574C6.50833 18.3181 6.40976 18.0918 6.26774 17.8933C6.12571 17.6949 5.94346 17.5288 5.73292 17.406C5.52238 17.2832 5.28832 17.2064 5.0461 17.1807ZM59.953 17.1807C60.3274 17.1383 60.7048 17.2269 61.0216 17.4314C61.3383 17.6359 61.575 17.9438 61.6914 18.3031C64.1115 25.9909 64.2389 36.3008 61.243 44.7975C61.1216 45.1293 60.9021 45.4161 60.6138 45.6195C60.3254 45.8228 59.9821 45.9331 59.6296 45.9355C59.4164 45.9347 59.2289 45.8994 59.067 45.8294C58.1725 45.5232 57.7012 44.5202 58.0054 43.6221C60.8414 35.7185 60.1634 27.1241 58.449 19.282C58.3958 19.0436 58.3934 18.7967 58.4421 18.5574C58.4908 18.3181 58.5893 18.0918 58.7314 17.8933C58.8734 17.6949 59.0556 17.5288 59.2662 17.406C59.4767 17.2832 59.7108 17.2064 59.953 17.1807ZM52.4788 6.77076C51.6396 6.33676 50.5925 6.65262 50.1621 7.4941C49.6018 8.27771 48.8108 10.1656 48.6244 11.2819C48.4886 11.7352 48.5667 12.2283 48.8108 12.6514C49.032 13.0167 49.3794 13.2964 49.8315 13.4314C50.7343 13.7063 51.6877 13.1662 51.9594 12.262C52.2107 11.4254 52.6447 10.0221 53.2253 9.14931C53.8048 8.27649 53.3179 7.20235 52.4788 6.77076ZM13.5591 6.00283C12.6658 5.70144 11.6764 6.16919 11.3758 7.06612C10.9394 7.92448 10.4381 10.4911 10.4201 11.6219C10.3906 11.8577 10.4098 12.0971 10.4764 12.3252C10.543 12.5534 10.6555 12.7653 10.8072 12.948C11.0801 13.2759 11.466 13.5014 11.9325 13.5677C12.8666 13.7027 13.7286 13.0276 13.8632 12.0921C13.9871 11.2289 14.3513 9.2771 14.6507 8.24394C14.9512 7.21079 14.4535 6.303 13.5591 6.00162M39.1208 1.06489C38.2817 0.6333 37.2345 0.947945 36.8029 1.79183C36.2439 2.57424 35.4528 4.46333 35.2665 5.57727C35.2025 5.80599 35.1861 6.04544 35.2181 6.2808C35.2502 6.51616 35.3301 6.74241 35.4528 6.94557C35.674 7.31326 36.0215 7.59175 36.4735 7.72918C37.3764 8.00164 38.3285 7.46396 38.6015 6.55618C38.8527 5.72314 39.2867 4.31626 39.8662 3.44585C40.4469 2.57424 39.96 1.49648 39.1208 1.06489ZM59.1668 12.4923C59.1668 12.9546 58.9836 13.398 58.6576 13.725C58.3316 14.0519 57.8894 14.2355 57.4283 14.2355C56.9673 14.2355 56.5251 14.0519 56.1991 13.725C55.8731 13.398 55.6899 12.9546 55.6899 12.4923C55.6899 12.03 55.8731 11.5866 56.1991 11.2597C56.5251 10.9327 56.9673 10.7491 57.4283 10.7491C57.8894 10.7491 58.3316 10.9327 58.6576 11.2597C58.9836 11.5866 59.1668 12.03 59.1668 12.4923Z" fill="white"/>
</g>
<path d="M8.39844 34.0083C8.39844 39.1211 10.3773 42.8149 13.259 45.2658C18.2735 49.5274 25.9738 50.1628 31.8539 47.4093C31.6038 47.4237 31.3518 47.431 31.0977 47.431C23.7629 47.431 17.8167 41.4213 17.8167 34.0083V17.7177C17.8167 16.6749 16.9739 15.8286 15.9328 15.8286C14.9433 15.8286 13.9634 16.0241 13.0493 16.4038C12.1351 16.7836 11.3044 17.3402 10.6048 18.0419C9.90514 18.7436 9.35018 19.5766 8.97161 20.4934C8.59305 21.4102 8.39828 22.3928 8.39844 23.385V34.0083Z" fill="white"/>
<path d="M12.8984 47.7179C17.0377 53.3201 23.6488 56.9488 31.1002 56.9488C43.637 56.9488 53.7994 46.6775 53.7994 34.0083V17.7177C53.7994 16.6749 52.9554 15.8286 51.9155 15.8286C49.9171 15.8293 48.0008 16.6256 46.5878 18.0425C45.1747 19.4595 44.3806 21.3811 44.38 23.385V34.0083C44.38 49.4828 24.3605 55.9844 12.8984 47.7179Z" fill="white"/>
</svg>
