<svg width="40" height="40" viewBox="0 0 40 40" fill="none" xmlns="http://www.w3.org/2000/svg">
<g clip-path="url(#clip0_689_11096)">
<path fill-rule="evenodd" clip-rule="evenodd" d="M18.0485 5.21591C19.5263 2.91319 22.1858 -0.19096 26.6185 0.00921208C29.7703 0.209384 32.1344 1.8115 32.9229 4.91491C33.5137 7.11754 33.0214 10.2217 32.4298 12.4236C30.5588 19.5319 25.7322 21.7345 29.9673 30.6452C31.3466 33.6485 35.2869 35.5509 33.1198 37.0529C31.0512 38.5542 25.5346 36.9528 22.2842 33.8487C11.2525 23.737 13.8135 11.8231 18.0485 5.21591Z" fill="#AE04BC"/>
<path fill-rule="evenodd" clip-rule="evenodd" d="M30.7509 13.9253C32.0318 13.3248 35.5775 12.6242 38.04 14.6259C39.8133 16.128 40.5026 18.1304 39.6163 20.3331C39.0255 21.8344 37.3507 23.4365 36.0699 24.5374C31.8348 27.9418 28.1899 27.0403 26.7128 34.2487C26.2197 36.6515 27.6975 39.4554 25.8258 39.4554C23.9541 39.4554 21.3931 36.051 20.8023 32.7474C18.7337 21.8344 25.6289 16.4282 30.7509 13.9253Z" fill="#1900CE"/>
<path fill-rule="evenodd" clip-rule="evenodd" d="M25.0388 39.9566C15.188 39.0551 5.43633 32.0476 1.39825 22.8367C-2.14821 14.7268 0.905879 1.51175 12.2331 8.01956C20.3107 12.625 17.552 22.6366 23.758 29.845C28.2892 35.0509 34.692 33.4488 33.5096 36.9533C32.5249 39.7565 27.5014 40.1568 25.0388 39.9566Z" fill="#0D0D0D"/>
</g>
<defs>
<clipPath id="clip0_689_11096">
<rect width="40" height="40" fill="white"/>
</clipPath>
</defs>
</svg>
