<svg width="40" height="40" viewBox="0 0 40 40" fill="none" xmlns="http://www.w3.org/2000/svg">
<g clip-path="url(#clip0_689_11082)">
<path d="M0 20.0003C0 -2.52985e-06 -3.79245e-06 0 20 0C40 0 40 -2.52985e-06 40 20.0003C40 40 40 40 20 40C-3.79245e-06 40 0 40 0 20.0003Z" fill="url(#paint0_linear_689_11082)"/>
<path d="M28.2195 19.1544V20.8575C28.2195 23.9356 27.3493 26.3321 25.6088 28.0471C23.8809 29.7501 21.3703 30.5964 18.0783 30.5964H12.5156C13.9782 29.965 14.7096 28.6026 14.7101 26.5092V23.3299C14.7101 22.4598 14.899 21.8417 15.2781 21.4511C15.656 21.0793 16.1414 20.8364 16.6653 20.7567V19.244C16.1414 19.1643 15.656 18.9213 15.2781 18.5496C14.899 18.1583 14.7101 17.5409 14.7101 16.6702V13.4908C14.7101 11.3969 13.9786 10.0348 12.5156 9.4043H18.0777C21.4083 9.4043 23.9313 10.2494 25.6466 11.9397C27.3625 13.6162 28.2195 16.0262 28.2195 19.1544Z" fill="white"/>
</g>
<defs>
<linearGradient id="paint0_linear_689_11082" x1="20" y1="0" x2="20" y2="40" gradientUnits="userSpaceOnUse">
<stop offset="0.006" stop-color="#B645EE"/>
<stop offset="1" stop-color="#9B26B6"/>
</linearGradient>
<clipPath id="clip0_689_11082">
<rect width="40" height="40" fill="white"/>
</clipPath>
</defs>
</svg>
