<svg width="41" height="40" viewBox="0 0 41 40" fill="none" xmlns="http://www.w3.org/2000/svg">
<g opacity="0.7">
<path d="M19.8121 0.0973864C19.5546 -0.0205793 19.261 -0.0318212 18.9952 0.0660972C18.7294 0.164016 18.5129 0.363179 18.3928 0.620295C14.9965 7.85888 13.6177 15.4365 15.1903 23.8031C15.3692 24.2145 15.8042 24.4744 16.2242 24.4284C16.3572 24.4194 16.473 24.3893 16.609 24.3425C17.1372 24.0954 17.3919 23.4497 17.1462 22.9207C15.8824 15.6181 17.3108 7.9832 20.3517 1.54104C20.5808 0.987988 20.3426 0.344525 19.8121 0.0973864ZM20.7867 7.2659C19.4477 11.9024 18.915 16.7354 19.2118 21.5532C19.2181 21.6947 19.253 21.8334 19.3144 21.961C19.3759 22.0885 19.4625 22.2022 19.5692 22.2951C19.6758 22.388 19.8001 22.4581 19.9347 22.5013C20.0692 22.5445 20.2111 22.5598 20.3517 22.5463C20.4927 22.5402 20.631 22.5053 20.7582 22.4439C20.8854 22.3825 20.9987 22.2957 21.0914 22.1889C21.1841 22.0821 21.2541 21.9575 21.2971 21.8227C21.3402 21.6879 21.3555 21.5457 21.342 21.4048C21.067 16.7928 21.5659 12.2177 22.8448 7.8521C23.0183 7.27645 22.6825 6.68272 22.1084 6.50791C21.5524 6.3542 20.9603 6.6895 20.7867 7.2659Z" fill="#0D0D0D"/>
<path d="M28.8984 1.96064C28.7624 1.88238 28.6118 1.83291 28.456 1.81527C28.3002 1.79764 28.1424 1.81222 27.9924 1.85811C27.8425 1.90401 27.7035 1.98025 27.584 2.08212C27.4646 2.18399 27.3672 2.30933 27.2979 2.4504C25.7133 5.7182 23.1938 11.7686 23.7732 21.2774L23.7904 21.2969C23.8218 21.8312 23.7254 22.3652 23.5094 22.8546C23.2933 23.344 22.9639 23.7745 22.5484 24.1104C21.7008 24.845 20.6023 25.1253 19.5413 24.8782C19.4042 24.8445 19.2616 24.8392 19.1223 24.8625C18.983 24.8858 18.85 24.9373 18.7312 25.0139C18.6124 25.0904 18.5103 25.1904 18.4313 25.3078C18.3523 25.4251 18.2979 25.5574 18.2715 25.6965C18.238 25.834 18.2328 25.977 18.2561 26.1167C18.2795 26.2564 18.3309 26.3898 18.4073 26.5089C18.4837 26.628 18.5835 26.7303 18.7005 26.8095C18.8176 26.8888 18.9495 26.9433 19.0882 26.9698C19.6011 27.0797 20.1257 27.1242 20.6496 27.1024C21.8473 27.0188 22.997 26.5532 23.9633 25.7492C25.3323 24.5972 26.0596 22.9049 25.9409 21.1312C25.9409 21.1312 25.9236 21.1101 25.9432 21.0935C25.4097 12.1754 27.7398 6.55908 29.3462 3.56403C29.652 2.99366 29.4604 2.27785 28.8984 1.96064ZM14.5453 0.977365C14.2726 0.870174 13.9686 0.876002 13.7001 0.993564C13.4317 1.11113 13.2208 1.33079 13.1139 1.60425C12.2378 3.48642 11.7193 5.39571 11.4406 7.55667C11.4213 7.69701 11.4307 7.83983 11.4682 7.97641C11.5057 8.113 11.5706 8.2405 11.6588 8.35116C11.747 8.46182 11.8567 8.55333 11.9813 8.62011C12.1059 8.68689 12.2428 8.72755 12.3836 8.73961C12.5234 8.75905 12.6658 8.74971 12.802 8.71218C12.9381 8.67464 13.0652 8.60968 13.1755 8.52127C13.2858 8.43287 13.377 8.32286 13.4436 8.19795C13.5101 8.07305 13.5506 7.93586 13.5625 7.79476C13.9074 5.84629 14.3687 4.6754 15.1832 2.35396C15.2756 2.08634 15.2606 1.79323 15.1416 1.53643C15.0226 1.27962 14.8088 1.07918 14.5453 0.977365ZM5.45197 31.0627C4.9846 31.4228 4.88241 32.1002 5.24158 32.5704C6.04991 33.6517 6.97332 34.6416 7.99543 35.5225C8.21409 35.7199 8.51314 35.808 8.81595 35.7817C9.09145 35.7532 9.34622 35.6219 9.52977 35.414C9.92425 34.9747 9.87616 34.2905 9.43885 33.895C8.53774 33.1068 7.7181 32.2296 6.99232 31.2767C6.59559 30.8057 5.91933 30.7025 5.45197 31.0627ZM35.05 31.3045C34.5804 30.9429 33.9004 31.0137 33.539 31.4846C28.8015 37.489 19.9365 39.6033 12.9178 36.3566C12.7895 36.2973 12.6508 36.2642 12.5096 36.2593C12.3684 36.2543 12.2277 36.2777 12.0956 36.3279C11.9636 36.3781 11.8428 36.4542 11.7404 36.5518C11.638 36.6493 11.556 36.7663 11.4992 36.896C11.44 37.0247 11.407 37.1638 11.4021 37.3054C11.3972 37.4469 11.4205 37.5881 11.4706 37.7205C11.5207 37.8529 11.5966 37.974 11.6939 38.0767C11.7911 38.1794 11.9078 38.2616 12.0372 38.3186C19.8757 41.9074 29.8775 39.6055 35.2477 32.8017C35.5903 32.3496 35.5189 31.6685 35.05 31.3045ZM3.34131 10.7378C3.10734 10.7113 2.87142 10.7667 2.67345 10.8945C2.47547 11.0223 2.32759 11.2148 2.2548 11.4393C0.743001 16.2442 0.663354 22.6879 2.53507 27.9983C2.70338 28.4421 3.10537 28.7073 3.54344 28.7096C3.67618 28.7091 3.7934 28.687 3.89509 28.6433C4.45412 28.4519 4.74942 27.825 4.55856 27.2637C2.78678 22.3239 3.20981 16.9524 4.2813 12.0511C4.31456 11.9022 4.31603 11.7478 4.28562 11.5982C4.25521 11.4487 4.1936 11.3072 4.10484 11.1832C4.01607 11.0592 3.90216 10.9554 3.77057 10.8786C3.63899 10.8019 3.4927 10.7539 3.34131 10.7378ZM37.6581 10.7378C37.8921 10.7113 38.128 10.7667 38.326 10.8945C38.524 11.0223 38.6718 11.2148 38.7446 11.4393C40.2572 16.2442 40.3368 22.6879 38.4644 27.9983C38.3885 28.2057 38.2513 28.3849 38.0711 28.512C37.8909 28.6392 37.6763 28.7081 37.456 28.7096C37.3228 28.7091 37.2055 28.687 37.1043 28.6433C36.5453 28.4519 36.2508 27.825 36.4409 27.2637C38.2134 22.3239 37.7896 16.9524 36.7181 12.0511C36.6849 11.9022 36.6834 11.7478 36.7138 11.5982C36.7442 11.4487 36.8058 11.3072 36.8946 11.1832C36.9834 11.0592 37.0973 10.9554 37.2289 10.8786C37.3604 10.8019 37.5067 10.7539 37.6581 10.7378ZM32.9867 4.2316C32.4623 3.96035 31.8078 4.15777 31.5388 4.68369C31.1886 5.17344 30.6942 6.35338 30.5778 7.05109C30.4929 7.33439 30.5417 7.64257 30.6942 7.90703C30.8325 8.13533 31.0496 8.31014 31.3322 8.39453C31.8965 8.56632 32.4923 8.22876 32.6621 7.66366C32.8192 7.14075 33.0904 6.26371 33.4533 5.7182C33.8155 5.17269 33.5112 4.50134 32.9867 4.2316ZM8.66191 3.75165C8.10363 3.56328 7.48524 3.85562 7.29739 4.4162C7.02463 4.95267 6.71131 6.55681 6.70004 7.26357C6.68163 7.41097 6.69362 7.56059 6.73523 7.70316C6.77685 7.84572 6.84721 7.9782 6.94198 8.09238C7.11254 8.29733 7.35374 8.43823 7.64528 8.47967C8.22911 8.56406 8.76786 8.14211 8.85202 7.55742C8.92941 7.01794 9.15708 5.79807 9.34418 5.15234C9.53203 4.50662 9.22095 3.93926 8.66191 3.75089M24.638 0.665433C24.1135 0.39569 23.4591 0.592344 23.1893 1.11977C22.8399 1.60877 22.3455 2.78946 22.229 3.48567C22.1891 3.62862 22.1788 3.77828 22.1988 3.92538C22.2189 4.07248 22.2688 4.21389 22.3455 4.34086C22.4838 4.57067 22.7009 4.74472 22.9834 4.83062C23.5477 5.0009 24.1428 4.66485 24.3134 4.09749C24.4704 3.57684 24.7417 2.69754 25.1039 2.15354C25.4668 1.60878 25.1625 0.935175 24.638 0.665433ZM37.1667 7.80757C37.1667 8.09653 37.0522 8.37365 36.8485 8.57798C36.6447 8.7823 36.3684 8.89709 36.0802 8.89709C35.792 8.89709 35.5157 8.7823 35.3119 8.57798C35.1082 8.37365 34.9937 8.09653 34.9937 7.80757C34.9937 7.51861 35.1082 7.24149 35.3119 7.03717C35.5157 6.83284 35.792 6.71806 36.0802 6.71806C36.3684 6.71806 36.6447 6.83284 36.8485 7.03717C37.0522 7.24149 37.1667 7.51861 37.1667 7.80757Z" fill="#0D0D0D"/>
</g>
<path d="M5.4375 21.2549C5.4375 24.4504 6.67429 26.759 8.47538 28.2908C11.6094 30.9543 16.4221 31.3514 20.0972 29.6305C19.9409 29.6395 19.7833 29.644 19.6245 29.644C15.0403 29.644 11.3239 25.888 11.3239 21.2549V11.0733C11.3239 10.4215 10.7972 9.89258 10.1465 9.89258C9.52803 9.89258 8.91563 10.0147 8.34426 10.2521C7.77289 10.4894 7.25375 10.8373 6.81647 11.2759C6.37919 11.7144 6.03234 12.2351 5.79573 12.8081C5.55913 13.3811 5.4374 13.9952 5.4375 14.6153V21.2549Z" fill="#0D0D0D"/>
<path d="M8.25 29.8234C10.837 33.3247 14.9689 35.5927 19.6261 35.5927C27.4616 35.5927 33.8131 29.1731 33.8131 21.2549V11.0733C33.8131 10.4215 33.2856 9.89258 32.6357 9.89258C31.3867 9.89298 30.189 10.3907 29.3058 11.2763C28.4227 12.1619 27.9263 13.3629 27.926 14.6153V21.2549C27.926 30.9265 15.4138 34.9899 8.25 29.8234Z" fill="#0D0D0D"/>
</svg>
