<svg width="40" height="40" viewBox="0 0 40 40" fill="none" xmlns="http://www.w3.org/2000/svg">
<g clip-path="url(#clip0_943_16894)">
<mask id="mask0_943_16894" style="mask-type:luminance" maskUnits="userSpaceOnUse" x="0" y="0" width="40" height="40">
<path d="M0 0H40V40H0V0Z" fill="white"/>
</mask>
<g mask="url(#mask0_943_16894)">
<path d="M10.0049 19.8004C10.0049 14.0661 14.6699 9.40039 20.4049 9.40039C26.1399 9.40039 30.8049 14.0661 30.8049 19.8004C30.8049 25.5347 26.1392 30.2004 20.4049 30.2004C14.6706 30.2004 10.0049 25.5354 10.0049 19.8004Z" fill="#21BBD1"/>
<path d="M40 3.2C40 1.44 38.4564 0 36.6964 0H20.4071C9.36143 0 0 8.75429 0 19.8V40H4.85715V19.8C4.85715 11.4186 11.8514 4.6 20.2321 4.6C28.6136 4.6 35.5193 11.4186 35.5193 19.8C35.5193 28.1814 28.5979 35 20.2171 35C16.1957 35 12 33.4279 9.71429 30.87V40H20.4071C31.4529 40 40 30.8457 40 19.8V3.2Z" fill="#0D0D0D"/>
</g>
</g>
<defs>
<clipPath id="clip0_943_16894">
<rect width="40" height="40" fill="white"/>
</clipPath>
</defs>
</svg>
