<svg width="34" height="34" viewBox="0 0 34 34" fill="none" xmlns="http://www.w3.org/2000/svg">
<path d="M16.3253 2.93607C17.2239 2.93607 18.0912 3.04278 18.8972 3.22571C20.5396 3.62207 23.4987 4.79591 24.8001 8.08914L24.831 8.18061C25.1098 8.8971 25.4973 9.85751 25.4351 12.1594C25.3886 13.9278 24.6139 15.4222 24.4591 15.7118C24.1494 16.2759 23.9945 16.8094 23.948 17.0076V17.0381C23.5604 18.3491 23.8393 19.8126 24.7848 21.5052C25.048 21.9778 25.8692 23.2278 28.0384 25.1944C27.9453 25.1486 27.8522 25.0877 27.7439 25.0267C27.4651 24.8285 26.1946 23.9443 25.5747 23.548C25.5439 23.5175 25.4973 23.5022 25.4664 23.4717C25.1352 23.2849 24.7619 23.1853 24.3816 23.1821C23.7931 23.1821 23.2664 23.426 22.8945 23.8681C22.4917 24.3712 22.3678 24.9962 22.5226 25.7584C22.5382 25.8194 22.5535 25.8651 22.5692 25.9261L23.3904 28.4262L23.7618 29.5086C23.6844 29.4324 23.5917 29.3409 23.5296 29.2494C22.8789 28.4415 21.8254 26.9932 21.283 26.2005C20.6788 25.2249 19.517 23.5937 18.2308 23.2126C17.9692 23.1351 17.6981 23.0941 17.4253 23.0906C16.8985 23.0906 15.1169 23.2736 14.404 25.7279C14.2335 26.3225 14.0943 26.856 13.9547 27.3743C13.8028 27.9711 13.6427 28.5656 13.4745 29.158C13.4589 29.1885 13.4589 29.2342 13.4432 29.2651C13.4432 29.2651 13.3349 29.7529 13.1026 30.3474C13.0561 30.4694 12.9478 30.7743 12.8238 30.9877C12.8012 30.8873 12.7856 30.7854 12.7773 30.6828V30.6371C12.6842 29.2799 12.6842 28.7311 12.6842 28.1671V27.4811C12.6842 26.2005 12.4519 24.0053 10.856 23.365C10.5667 23.243 10.2557 23.1808 9.94176 23.1821C9.53898 23.1821 8.91957 23.2888 8.315 23.8071L8.28411 23.8376C8.26886 23.8528 6.85873 25.1029 6.14624 25.6974C6.31634 25.1944 6.28545 24.6761 6.05317 24.234C5.89832 23.9443 5.66563 23.7004 5.38681 23.548C6.53337 22.5418 6.9518 22.1455 7.15319 21.9011C8.05183 20.8802 9.16708 18.6998 8.25321 16.2606C8.25321 16.2454 8.2532 16.2454 8.23756 16.2301C8.23756 16.2149 7.61775 14.6443 7.2924 12.7692C7.16843 12.0832 7.13754 9.44591 8.14489 7.47935C9.35323 5.13129 11.2745 3.68305 13.8616 3.17998C14.6727 3.01694 15.498 2.93523 16.3253 2.93607ZM16.3253 1C15.3492 1 14.3888 1.10671 13.521 1.2744C9.57027 2.05188 7.55597 4.49101 6.50248 6.54943C5.30939 8.88186 5.27849 11.9155 5.46424 12.9979C5.83613 15.1173 6.51773 16.8399 6.51773 16.8399C7.38547 19.1571 5.6191 20.9716 5.6191 20.9716C5.54167 21.1546 2.96973 23.3345 2.67567 23.6089C2.38121 23.8833 1.57565 24.5541 1.0798 25.2858C0.847519 25.7127 1.15722 26.0023 1.56 26.0023C1.62218 26.0023 1.68397 26.0023 1.73051 25.9871C2.08675 25.9109 3.89966 25.1639 3.89966 25.1639C3.99936 25.1285 4.10371 25.108 4.20936 25.1029C4.53472 25.1029 4.24025 25.4993 4.24025 25.4993L2.55171 27.7402C1.4204 29.3108 1.65308 29.783 1.97843 30.0426C2.0715 30.1188 2.19506 30.1489 2.36556 30.1489C2.72221 30.1489 3.20242 29.9816 3.66698 29.7529C4.33333 29.4171 6.31634 27.8622 6.88962 27.3743C7.4629 26.9018 9.33758 25.2401 9.33758 25.2401C9.55462 25.0572 9.74037 25.0114 9.87998 25.0114C10.0196 25.0114 10.1123 25.0572 10.1123 25.0572C10.9335 25.3468 10.9335 27.6945 10.9335 27.6945C10.9491 28.6397 10.9026 29.0364 11.0418 30.9877C11.104 32.6189 12.2349 32.9695 12.7616 33H12.9012C13.4897 33 13.7999 32.7866 14.0478 32.4817C14.2801 32.2073 14.4658 31.8414 14.7141 31.1707C14.9925 30.4237 15.1169 29.8444 15.1169 29.8444C15.504 28.5024 15.7054 27.5573 16.0617 26.353C16.3561 25.3468 16.8985 24.9047 17.4562 24.9047C17.5647 24.9047 17.6732 24.92 17.7815 24.9505C18.6649 25.2096 19.935 27.2676 19.935 27.2676C20.4931 28.0908 21.624 29.6458 22.3212 30.4999C22.4452 30.6523 23.1577 31.5213 24.0411 31.8262C24.2752 31.9074 24.5213 31.9487 24.7692 31.9481C25.2337 31.9481 25.5282 31.7957 25.5282 31.7957C26.3494 31.3841 25.7761 29.8444 25.7918 29.8287L25.2029 28.0604L24.3664 25.5145C24.2733 25.0572 24.4129 24.9657 24.5522 24.9657C24.6761 24.9657 24.8001 25.0267 24.8001 25.0267C25.4817 25.4688 27.0158 26.5511 27.0158 26.5511C28.9366 27.6945 30.5016 27.8012 30.5016 27.8012C30.8269 27.8469 31.0905 27.8774 31.3384 27.8774C32.0975 27.8774 32.4228 27.664 32.6242 27.542C32.8721 27.3743 33.027 27.0695 32.9961 26.8713C32.9652 26.6883 32.6242 26.4749 32.6242 26.4749C32.5002 26.3834 31.137 25.484 30.3624 24.8437C27.6817 22.5719 26.737 21.1846 26.4734 20.7273C25.5904 19.1571 25.5595 18.1662 25.7605 17.4802C25.7918 17.3582 25.9158 16.9009 26.148 16.4741C26.3185 16.1539 27.2946 14.3242 27.3411 12.0985C27.4186 9.32395 26.8918 8.11963 26.5665 7.31166C25.048 3.50012 21.7479 1.91468 19.3621 1.33538C18.3653 1.11186 17.3468 0.999377 16.3253 1Z" fill="white" stroke="#0D0D0D" stroke-width="0.541"/>
</svg>
