<svg width="40" height="40" viewBox="0 0 40 40" fill="none" xmlns="http://www.w3.org/2000/svg">
<g clip-path="url(#clip0_943_16904)">
<path fill-rule="evenodd" clip-rule="evenodd" d="M19.9778 40C18.5837 40 17.6385 39.4393 16.9481 39.0296C16.4904 38.7585 16.2192 38.6044 15.9674 38.6044C15.6192 38.6044 15.3622 38.6822 15.0059 38.7889C12.717 39.5985 11.1251 38.5489 9.7955 37.1C9.42586 36.7222 9.0066 36.2933 8.7466 36.2074C6.64511 35.5822 4.44139 34.1718 4.50213 31.6281V26.937L1.57026 24.9948C0.89544 24.5489 0.410999 23.9215 0.169516 23.18C-0.288264 21.8348 0.207289 20.2111 1.34063 19.3437C2.31175 18.5681 3.30879 18.5815 4.50213 18.6044C4.46213 15.4941 4.38509 12.2548 5.71917 9.37407C8.03844 3.78667 13.874 0 19.9778 0C26.0578 0 31.9171 3.78667 34.2364 9.37407C35.5697 12.2541 35.4942 15.4993 35.4527 18.6044C36.6601 18.5837 37.6764 18.557 38.6594 19.3437C39.7927 20.2111 40.2883 21.8348 39.8305 23.18C39.589 23.9215 39.1046 24.5489 38.429 24.9956L35.4527 26.9704V31.6281C35.4386 34.1741 33.5956 35.6444 31.1045 36.237C30.9089 36.2911 30.4289 36.7867 30.1423 37.0822C28.7934 38.5637 27.2363 39.5933 24.9282 38.7889C24.5771 38.6859 24.3 38.6044 23.9667 38.6044C23.7171 38.6044 23.4496 38.757 22.9993 39.0267C22.3133 39.4378 21.3741 40 19.9778 40Z" fill="#3A3837"/>
<path fill-rule="evenodd" clip-rule="evenodd" d="M36.4807 20H34.0496V15.3488C34.0496 7.64217 27.751 1.39551 19.9806 1.39551C12.2102 1.39551 5.91237 7.64217 5.91237 15.3488V20H3.52494C1.43752 20 0.617515 22.6859 2.35456 23.834L5.91237 26.1911V31.6281C5.91237 33.4881 7.41534 34.2955 9.19461 34.8837C10.602 35.3488 11.5398 37.674 13.4154 37.674C14.3532 37.674 14.8939 37.2096 15.9709 37.2096C17.3776 37.2096 18.105 38.6044 19.9806 38.6044C21.8562 38.6044 22.5613 37.2096 23.9702 37.2096C25.0162 37.2096 25.608 37.674 26.5458 37.674C28.4221 37.674 29.4021 35.2222 30.7666 34.8837C32.6422 34.4185 34.0496 33.4881 34.0496 31.6281V26.2244L37.6518 23.834C39.3889 22.6859 38.5689 20 36.4807 20Z" fill="white"/>
<path fill-rule="evenodd" clip-rule="evenodd" d="M18.8254 14.1847C18.8254 16.1121 17.775 17.6736 16.4802 17.6736C15.1854 17.6736 14.1357 16.1121 14.1357 14.1847C14.1357 12.2587 15.1854 10.6973 16.4802 10.6973C17.775 10.6973 18.8254 12.258 18.8254 14.1847ZM25.8595 14.1847C25.8595 16.1121 24.8099 17.6736 23.5151 17.6736C22.2195 17.6736 21.1699 16.1121 21.1699 14.1847C21.1699 12.2587 22.2195 10.6973 23.5151 10.6973C24.8106 10.6973 25.8595 12.258 25.8595 14.1847Z" fill="#3A3837"/>
</g>
<defs>
<clipPath id="clip0_943_16904">
<rect width="40" height="40" fill="white"/>
</clipPath>
</defs>
</svg>
