<svg width="40" height="40" viewBox="0 0 40 40" fill="none" xmlns="http://www.w3.org/2000/svg">
<path d="M33.092 22.4593C34.8697 21.8491 34.4489 19.3525 33.9655 16.4982C33.3687 12.9712 32.6792 8.89509 35.9332 7.15039C35.9332 7.15039 33.8288 10.0786 36.9934 14.3722C40.2028 18.7256 40.7482 27.8263 34.2355 29.7395C31.1622 30.6424 28.329 28.409 26.1932 25.799C20.2666 23.0722 23.924 21.7041 14.7941 25.799C13.998 28.4641 9.94448 30.8633 7.38795 30.9076C0.625879 31.0244 -0.447013 22.1425 1.43804 17.0091C3.29576 11.9475 0.478516 9.77113 0.478516 9.77113C4.07259 10.4679 4.52802 14.5803 4.92077 18.1388C5.23951 21.0187 5.51756 23.5374 7.38795 23.5891C13.0038 23.5891 11.1127 14.342 11.1127 14.342L19.3604 11.7306L27.4815 14.252C27.4815 14.252 29.1158 23.8261 33.0906 22.4607L33.092 22.4593Z" fill="url(#paint0_linear_689_11149)"/>
<path d="M34.2402 27.3657C33.7422 27.2945 31.0622 27.465 28.525 26.6172C28.0276 27.5657 31.5036 30.1616 32.5496 30.1126C33.5935 30.0623 36.3788 29.0647 36.3302 28.8143C36.2795 28.5653 36.3302 27.6651 34.2402 27.3657Z" fill="url(#paint1_linear_689_11149)"/>
<path d="M12.2541 23.4704C11.5948 22.599 10.7622 22.9219 10.2148 22.3218C11.1095 21.1725 11.2588 19.5762 11.2588 19.5762L13.0988 19.6265L15.1881 21.674L13.0988 28.3641C13.1488 26.218 13.1975 24.719 12.2522 23.4704H12.2541Z" fill="url(#paint2_linear_689_11149)"/>
<path d="M8.53125 30.4105C8.92858 30.5098 10.5706 30.3111 11.6145 29.3626C9.47657 26.4666 10.9679 24.4198 9.47657 23.0215C9.23591 23.2437 8.87991 23.2705 8.87991 23.2705L8.53125 30.4105Z" fill="url(#paint3_linear_689_11149)"/>
<path d="M26.7329 21.6221C26.8822 20.3735 28.2749 20.1734 29.0208 19.425C28.4729 18.2267 28.2749 17.3271 28.2749 17.3271L26.3342 17.8266L25.2402 19.8237C25.2402 19.8237 24.1956 25.517 28.6215 26.7649C26.5822 24.5174 26.5822 22.87 26.7315 21.6221H26.7329Z" fill="url(#paint4_linear_689_11149)"/>
<path d="M2.48578 20.5402C2.49644 19.9441 2.23445 19.4561 1.89979 19.4494C1.56513 19.4433 1.28512 19.922 1.27379 20.5181C1.26246 21.1142 1.52513 21.6022 1.85979 21.6089C2.19445 21.615 2.47444 21.1364 2.48578 20.5402ZM2.56311 18.2625C2.61777 17.796 2.44578 17.3919 2.17845 17.3603C1.91112 17.3288 1.65112 17.6819 1.59646 18.1491C1.54179 18.6156 1.71379 19.0198 1.98112 19.0513C2.24845 19.0829 2.50844 18.7298 2.56311 18.2625ZM2.79044 16.2567C2.81711 15.8009 2.64111 15.4189 2.39712 15.4048C2.15245 15.3901 1.93312 15.7485 1.90645 16.205C1.87978 16.6615 2.05578 17.0421 2.29978 17.0569C2.54377 17.0716 2.76377 16.7132 2.79044 16.2567ZM2.48644 15.1021C2.72644 15.0698 2.87177 14.6738 2.8111 14.2173C2.75043 13.7608 2.50645 13.4164 2.26645 13.4487C2.02645 13.4809 1.88179 13.8769 1.94245 14.3334C2.00312 14.7899 2.24711 15.1336 2.48644 15.1021ZM2.14978 13.0909C2.32578 13.0526 2.40378 12.7216 2.32444 12.3524C2.24445 11.9832 2.03712 11.7154 1.86045 11.7536C1.68445 11.7926 1.60646 12.1229 1.68579 12.4921C1.76579 12.8613 1.97312 13.1298 2.14978 13.0909ZM2.67777 24.041C3.0591 23.9477 3.24776 23.3745 3.09843 22.7616C2.9491 22.1487 2.51911 21.7271 2.13778 21.8211C1.75645 21.9151 1.56779 22.487 1.71712 23.1006C1.86645 23.7141 2.29644 24.1344 2.67777 24.041Z" fill="#1890FF"/>
<path d="M4.2562 26.878C4.71019 26.6772 4.82553 25.9388 4.51353 25.2293C4.20153 24.5197 3.58155 24.1068 3.12823 24.3076C2.67423 24.5083 2.5589 25.2467 2.87022 25.9563C3.18155 26.6658 3.80221 27.0787 4.2562 26.878Z" fill="url(#paint5_linear_689_11149)"/>
<path d="M10.1883 29.7088C10.965 29.5376 11.5117 29.0187 11.409 28.5494C11.3063 28.0802 10.5937 27.8379 9.81703 28.009C9.04037 28.1802 8.49371 28.6998 8.59637 29.169C8.69904 29.6383 9.4117 29.8799 10.1883 29.7088Z" fill="url(#paint6_linear_689_11149)"/>
<path d="M13.2278 28.0325C13.7825 27.5908 14.0458 26.996 13.8151 26.7047C13.5851 26.414 12.9485 26.5362 12.3938 26.9786C11.8392 27.4209 11.5758 28.015 11.8058 28.3064C12.0358 28.5977 12.6732 28.4749 13.2278 28.0325Z" fill="url(#paint7_linear_689_11149)"/>
<path d="M1.19976 21.8827C1.21243 21.2343 0.955098 20.7033 0.62377 20.6966C0.292442 20.6898 0.0131147 21.2101 0.000448236 21.8586C-0.0122182 22.507 0.24511 23.038 0.576438 23.0448C0.9071 23.0515 1.18643 22.5312 1.19976 21.8827ZM1.23309 19.3224C1.30509 18.8169 1.19376 18.3826 0.98376 18.3524C0.77443 18.3222 0.546439 18.7082 0.47444 19.2137C0.402441 19.7198 0.513773 20.1542 0.723103 20.1844C0.9331 20.2146 1.1611 19.8286 1.23309 19.3224ZM1.48975 17.4005C1.57909 17.0273 1.53508 16.697 1.39175 16.6621C1.24842 16.6278 1.05976 16.9024 0.970424 17.2756C0.881759 17.6489 0.925765 17.9798 1.0691 18.0141C1.21243 18.0483 1.40042 17.7737 1.48975 17.4005ZM1.73242 15.6524C1.82508 15.2799 1.82708 14.9597 1.73641 14.9368C1.64575 14.914 1.49642 15.1973 1.40309 15.5699C1.31042 15.9418 1.30842 16.2626 1.39909 16.2855C1.49042 16.3083 1.63908 16.025 1.73242 15.6524ZM1.61042 25.9488C2.00108 25.8374 2.15707 25.1808 1.95908 24.4827C1.76108 23.7845 1.28509 23.3086 0.894426 23.42C0.504432 23.5314 0.347772 24.1873 0.545768 24.8861C0.743765 25.5843 1.22042 26.0602 1.61042 25.9488Z" fill="#1890FF"/>
<path d="M3.21607 29.0677C3.65073 28.8475 3.69739 28.0634 3.32073 27.3156C2.94407 26.5678 2.28675 26.1415 1.85276 26.3617C1.41877 26.5819 1.3721 27.3666 1.74876 28.1138C2.12542 28.8616 2.78208 29.2885 3.21607 29.0677Z" fill="url(#paint8_linear_689_11149)"/>
<path d="M9.82139 30.4888C9.91941 29.9263 9.33797 29.3544 8.52315 29.2114C7.70833 29.0684 6.96818 29.4081 6.87016 29.9706C6.77215 30.5331 7.35293 31.1051 8.16842 31.2481C8.98324 31.3911 9.72337 31.0514 9.82139 30.4888ZM37.8361 18.9063C38.1581 18.811 38.2835 18.2719 38.1161 17.7027C37.9488 17.1334 37.552 16.7487 37.23 16.8441C36.9079 16.9394 36.7826 17.4784 36.9499 18.0477C37.1173 18.617 37.514 19.0016 37.8361 18.9063ZM37.0259 16.4903C37.276 16.3883 37.336 15.9546 37.1606 15.5216C36.9853 15.0886 36.6405 14.8201 36.3905 14.9221C36.1404 15.0242 36.0804 15.4578 36.2558 15.8908C36.4312 16.3238 36.7766 16.5923 37.0259 16.4903ZM36.4085 14.4314C36.6405 14.3522 36.7105 13.9387 36.5638 13.5091C36.4178 13.0794 36.1104 12.7948 35.8784 12.8747C35.6463 12.9539 35.5763 13.3674 35.723 13.7971C35.869 14.2267 36.1758 14.5113 36.4085 14.4314ZM35.743 12.382C35.9777 12.3236 36.0778 11.9141 35.9671 11.4683C35.8557 11.0226 35.5757 10.7084 35.3409 10.7675C35.1062 10.8266 35.0055 11.2354 35.1169 11.6818C35.2283 12.1275 35.5083 12.441 35.743 12.382ZM35.3109 10.4446C35.491 10.4345 35.619 10.119 35.597 9.74108C35.575 9.36314 35.411 9.06508 35.2309 9.07649C35.0509 9.08656 34.9229 9.4014 34.9449 9.77934C34.9669 10.1573 35.1302 10.4553 35.3109 10.4446ZM37.7134 21.4767C38.1048 21.4666 38.4089 20.9464 38.3935 20.3133C38.3782 19.681 38.0481 19.1762 37.6574 19.1856C37.2666 19.1949 36.9619 19.7159 36.9773 20.3482C36.9933 20.9813 37.3227 21.4861 37.7134 21.4767ZM38.0668 23.3966C38.1821 22.6246 37.8794 21.9385 37.3913 21.8654C36.9032 21.7922 36.4145 22.3588 36.2991 23.1308C36.1844 23.9034 36.4865 24.5888 36.9746 24.662C37.4627 24.7352 37.9514 24.1686 38.0668 23.3966ZM36.2958 26.745C36.7892 26.0623 36.8306 25.248 36.3898 24.9278C35.9484 24.6069 35.1909 24.901 34.6982 25.5844C34.2054 26.2677 34.164 27.0813 34.6048 27.4022C35.0462 27.7224 35.803 27.4284 36.2958 26.745Z" fill="#1890FF"/>
<path d="M33.5039 29.2798C34.1693 28.9925 34.5519 28.393 34.3579 27.9405C34.1646 27.4881 33.4679 27.3532 32.8026 27.6398C32.1373 27.9271 31.7553 28.5266 31.9486 28.979C32.142 29.4315 32.8386 29.5664 33.5039 29.2798Z" fill="url(#paint9_linear_689_11149)"/>
<path d="M39.4571 19.8971C39.7751 19.8018 39.8831 19.2218 39.6978 18.6022C39.5131 17.9826 39.1051 17.5583 38.7872 17.6536C38.4685 17.7496 38.3612 18.329 38.5458 18.9486C38.7312 19.5682 39.1391 19.9931 39.4571 19.8971ZM38.5418 17.1931C38.7358 17.1065 38.7271 16.6608 38.5218 16.1969C38.3165 15.7331 37.9925 15.4269 37.7985 15.5135C37.6045 15.6001 37.6132 16.0466 37.8185 16.5104C38.0238 16.9743 38.3478 17.2797 38.5418 17.1931ZM37.6552 15.1598C37.7852 15.0859 37.7392 14.7577 37.5532 14.4267C37.3665 14.0951 37.1105 13.8863 36.9805 13.9602C36.8505 14.034 36.8965 14.3616 37.0825 14.6932C37.2692 15.0242 37.5252 15.2329 37.6552 15.1598ZM39.9965 21.7016C40.0051 20.941 39.7005 20.32 39.3158 20.3153C38.9305 20.3106 38.6112 20.9242 38.6025 21.6848C38.5938 22.4454 38.8978 23.0656 39.2825 23.0703C39.6678 23.075 39.9871 22.4621 39.9965 21.7016ZM39.4265 25.1393C39.6171 24.3371 39.4618 23.6127 39.0785 23.5208C38.6958 23.4288 38.2312 24.0048 38.0398 24.8063C37.8492 25.6085 38.0052 26.3328 38.3878 26.4248C38.7712 26.5161 39.2358 25.9408 39.4265 25.1393ZM37.2478 28.6582C37.8992 28.0064 38.1938 27.2418 37.9045 26.9511C37.6158 26.6598 36.8532 26.9524 36.2019 27.6043C35.5499 28.2561 35.2559 29.02 35.5445 29.3114C35.8332 29.6027 36.5958 29.31 37.2478 28.6582Z" fill="#1890FF"/>
<path d="M8.71666 15.407C8.24857 8.69401 18.5459 1.25 18.5459 1.25V1.25335C18.6632 1.29699 30.1394 5.6235 30.6028 12.3022C30.6028 22.6214 9.41879 25.4583 8.71799 15.407H8.71666Z" fill="url(#paint10_linear_689_11149)"/>
<path d="M24.4419 4.29462L18.871 7.54034C18.1743 7.54034 15.3402 6.59112 13.0508 6.24138C13.3488 5.94198 13.7481 5.44254 14.3448 4.89342C17.031 6.44143 19.7664 7.01807 22.1545 2.94531C23.0492 3.39508 23.9946 3.99388 24.4419 4.29327V4.29462Z" fill="url(#paint11_linear_689_11149)"/>
<path d="M26.3833 17.927C26.1793 18.3701 26.0346 18.7265 26.6313 19.0259C26.6313 19.0259 25.4866 19.7744 24.6426 20.1745C23.796 20.5739 25.3879 17.4779 25.3879 17.4779C26.7806 16.2803 28.5219 13.0339 29.9645 11.9854C28.3726 16.8288 26.6819 17.2779 26.3833 17.927Z" fill="url(#paint12_linear_689_11149)"/>
<path d="M12.4093 18.6268C12.552 18.8268 12.758 20.1741 12.26 20.5245C12.26 20.5245 12.6086 20.7736 14.3499 21.3234C15.1959 21.7221 13.1566 18.0273 13.1566 18.0273C11.764 16.8297 10.72 15.9798 9.27734 14.9326C10.5207 17.2285 11.8426 17.8272 12.4106 18.6268H12.4093Z" fill="url(#paint13_linear_689_11149)"/>
<path d="M18.9681 7.37293C18.9681 7.37293 9.72967 3.79223 8.00735 8.21004C7.27387 10.0917 8.12337 16.4247 13.0716 18.1197C13.343 19.2401 13.5524 20.7928 13.6338 22.4147C19.2242 31.0093 25.9421 23.045 25.9421 23.045C25.9421 23.045 24.9466 19.5234 25.6 17.5679C30.759 15.0902 31.3305 6.71103 29.7848 4.87973C27.3084 1.94818 20.8431 5.38388 18.9668 7.37159L18.9681 7.37293Z" fill="url(#paint14_linear_689_11149)"/>
<path d="M19.2481 16.8285C21.5365 16.7198 27.9311 16.9782 29.5467 13.0961C25.4672 14.144 22.3813 11.4662 19.2481 11.5891C12.2334 13.6446 10.6411 12.7591 8.03125 11.8052C8.67804 17.7757 16.9603 16.9373 19.2481 16.8272V16.8285Z" fill="url(#paint15_linear_689_11149)"/>
<path d="M10.0607 36.7029C3.7475 35.751 3.79351 28.9038 5.62719 25.2821C5.71521 25.1067 5.80789 24.9396 5.90524 24.7807C6.83341 23.2501 7.10347 21.7941 7.09747 20.6086V20.5522C7.09747 20.5159 7.0968 20.4797 7.09547 20.4434C7.09547 20.4188 7.09502 20.3946 7.09413 20.3709C7.09413 20.353 7.09369 20.3351 7.0928 20.3172C7.02679 18.7773 6.51602 17.7656 6.51602 17.7656C8.55641 18.8605 9.12453 20.5233 9.19854 22.2888C9.19854 22.3031 9.19898 22.3168 9.19987 22.3298C9.20032 22.358 9.20142 22.3864 9.2032 22.415C9.2032 22.4526 9.20431 22.4904 9.20654 22.5285V22.7869C9.19854 24.3443 8.88314 25.9474 8.91114 27.2839C8.91114 27.3274 8.9127 27.371 8.91581 27.4148L8.92515 27.5941C9.00383 28.7729 9.41191 29.7107 10.6415 30.1759C13.5187 31.262 13.7934 25.6178 13.3947 19.8252C17.7728 20.1756 18.9177 21.8223 20.21 25.7675C20.6214 31.062 15.6811 37.5508 10.0607 36.7029Z" fill="url(#paint16_linear_689_11149)"/>
<path d="M29.8879 27.3668C34.9842 29.1874 34.9508 27.1587 36.3878 32.8802C37.8247 38.6017 22.7872 38.75 22.7872 38.75L26.3359 34.4564C26.3359 34.4564 25.0876 33.2581 22.7872 32.8815C20.5868 32.5224 20.29 25.9987 20.166 25.8329C20.8648 21.5789 21.6623 19.6261 25.367 19.2764C25.309 22.0629 26.4539 26.1404 29.8865 27.3682L29.8879 27.3668Z" fill="url(#paint17_linear_689_11149)"/>
<path d="M36.2909 34.5558C34.7994 38.6507 22.793 38.7501 22.793 38.7501C22.9577 38.55 23.8545 37.4021 24.3019 36.9517C24.1292 37.196 23.9251 37.5538 23.7824 37.8149C23.7164 37.9351 23.8338 38.0687 23.9631 38.0231C31.0668 35.5017 35.4968 32.4674 35.5942 30.1602C35.8422 30.8596 36.8877 33.3059 36.2909 34.5545V34.5558Z" fill="url(#paint18_linear_689_11149)"/>
<path d="M19.1579 10.3473C22.4538 6.97271 31.3042 2.53342 30.3907 10.3876C29.4799 18.2203 21.8024 13.1218 19.2772 11.8752C16.9154 12.8962 9.93344 17.882 8.07242 12.1001C6.2114 6.32021 15.4765 8.45493 19.1559 10.348L19.1579 10.3473Z" fill="url(#paint19_linear_689_11149)"/>
<path d="M29.1722 9.18946C27.2315 7.4414 25.3429 7.8905 20.915 10.7368C20.369 11.1463 20.0456 10.5871 20.4176 10.2373C24.8449 6.08538 29.6702 5.34359 29.1722 9.18878" fill="url(#paint20_linear_689_11149)"/>
<path d="M9.96858 13.4843C9.37192 9.23968 13.0519 9.23968 17.3305 10.787C17.5785 10.877 17.7338 10.5507 17.3305 10.3379C12.2072 7.64133 7.19595 8.99063 8.4266 11.7362C8.97326 12.956 9.96258 13.438 9.96858 13.4843Z" fill="url(#paint21_linear_689_11149)"/>
<path d="M12.1101 14.4811C10.2194 14.4811 9.57279 11.7355 11.7128 10.3379C11.2654 12.6847 12.7567 14.0327 17.7807 11.4368C18.1313 11.2556 18.428 11.6583 18.2287 11.8356C15.792 13.4822 13.2687 14.4811 12.1101 14.4811Z" fill="url(#paint22_linear_689_11149)"/>
<path d="M27.1842 14.2329C29.3222 14.0402 30.9142 10.338 27.1842 8.79004C28.5262 12.8346 25.2436 14.9324 20.767 11.3376C20.4597 11.0899 20.4184 11.388 20.8177 11.7364C21.215 12.0854 23.8523 14.5323 27.1842 14.2329Z" fill="url(#paint23_linear_689_11149)"/>
<path d="M17.6131 11.1973C17.6131 11.1973 11.9425 8.87997 12.6092 11.3597C13.2752 13.8368 17.6131 11.1973 17.6131 11.1973Z" fill="white"/>
<path d="M10.1157 36.7525C14.9413 37.3674 18.1966 35.2548 19.6682 32.3582C20.8618 34.5553 23.6663 35.2206 26.1355 34.705L28.8927 31.5781C24.5932 32.5582 21.0112 30.3611 20.215 25.6674C19.6682 30.0113 16.683 33.7558 11.1599 33.1067C8.95085 32.8469 7.52125 31.6097 6.73177 29.9106C5.82559 27.9625 5.24014 26.6146 5.43751 25.666C4.89141 26.8146 4.43599 28.7721 4.59135 30.7585C4.90075 34.7037 7.51658 36.4195 10.1144 36.7511L10.1157 36.7525Z" fill="url(#paint24_linear_689_11149)"/>
<path d="M19.6733 32.3588C19.1876 33.3166 18.5148 34.1657 17.6953 34.8553C18.2806 33.1073 18.378 32.1587 18.378 30.3617C19.3873 29.0567 19.9999 27.4113 20.2199 25.668C20.4726 27.1589 21.0066 28.3981 21.7553 29.3628C21.1159 31.809 21.0159 32.3588 22.3092 34.5056C21.0659 34.1558 20.1066 33.1549 19.6733 32.3588Z" fill="url(#paint25_linear_689_11149)"/>
<path d="M26.1388 31.7596C26.3382 31.9597 25.8235 33.9232 25.4922 34.855L25.6915 35.2047C25.6915 35.2047 27.0295 33.7111 28.0295 32.5585C28.3621 32.1758 28.7388 31.8086 28.9241 31.5596C28.1782 31.7093 27.2822 31.859 26.1388 31.7596Z" fill="url(#paint26_linear_689_11149)"/>
<path d="M20.9277 11.0526C20.9277 11.0526 27.305 6.63142 26.6663 10.8317C26.0257 15.034 20.9277 11.0526 20.9277 11.0526Z" fill="white"/>
<path d="M6.39463 27.0067C6.52796 26.4778 6.35863 25.979 6.01728 25.8924C5.67593 25.8058 5.29124 26.1649 5.15857 26.6946C5.0259 27.2236 5.19458 27.723 5.53592 27.8089C5.87794 27.8955 6.26195 27.5364 6.39463 27.0067ZM6.86665 24.9955C7.02666 24.5928 6.94532 24.1819 6.68531 24.0779C6.42463 23.9738 6.08461 24.2162 5.9246 24.6183C5.7646 25.0204 5.84594 25.4319 6.10595 25.5359C6.36596 25.64 6.70664 25.3983 6.86665 24.9955ZM7.30067 23.0743C7.40868 22.7051 7.31334 22.3513 7.08666 22.2848C6.86065 22.2177 6.5893 22.4627 6.4813 22.8319C6.37329 23.2012 6.4693 23.5543 6.69531 23.6214C6.92132 23.6885 7.19267 23.4428 7.30067 23.0743ZM7.64134 21.2638C7.65334 20.8785 7.47267 20.5596 7.238 20.5522C7.00265 20.5448 6.80265 20.8516 6.79065 21.2369C6.77931 21.6223 6.95998 21.9411 7.19466 21.9485C7.42934 21.9559 7.62934 21.6491 7.64134 21.2638ZM7.20733 20.1421C7.38067 20.1293 7.50334 19.8628 7.48001 19.5473C7.45734 19.2311 7.298 18.9854 7.124 18.9975C6.94999 19.0096 6.82798 19.2768 6.85065 19.5929C6.87332 19.9091 7.03333 20.1548 7.20733 20.1421ZM6.00328 30.2612C6.3933 30.2142 6.65064 29.6852 6.57797 29.079C6.5053 28.4728 6.13061 28.0204 5.74059 28.0674C5.35058 28.1144 5.09323 28.644 5.1659 29.2495C5.23857 29.8557 5.61326 30.3082 6.00328 30.2612ZM6.99999 32.8363C7.39801 32.692 7.53601 32.0603 7.308 31.4259C7.07932 30.7915 6.57197 30.3941 6.17395 30.5384C5.77594 30.6828 5.63793 31.3138 5.86661 31.9482C6.09462 32.5832 6.60197 32.9806 6.99999 32.8363ZM9.84611 34.5501C10.0941 34.1742 9.78744 33.5317 9.16075 33.1155C8.53472 32.7 7.82603 32.6671 7.57802 33.043C7.33001 33.419 7.63669 34.0614 8.26338 34.4776C8.88941 34.8938 9.5981 34.926 9.84611 34.5501ZM13.0456 35.2039C13.1209 34.7696 12.5476 34.3064 11.7649 34.1695C10.9822 34.0325 10.2868 34.2749 10.2115 34.7099C10.1361 35.1442 10.7095 35.6074 11.4922 35.7443C12.2749 35.8813 12.9702 35.6389 13.0456 35.2039ZM15.1143 35.4094C15.8204 35.161 16.2817 34.6401 16.1437 34.2467C16.0057 33.8533 15.3224 33.7358 14.6163 33.9849C13.9103 34.2339 13.4489 34.7542 13.5869 35.1476C13.725 35.5409 14.4083 35.6584 15.1143 35.4094Z" fill="#69C0FF"/>
<path d="M17.8411 33.5986C18.3597 33.1508 18.6104 32.5896 18.4011 32.3453C18.1917 32.1009 17.6018 32.2667 17.0831 32.7145C16.5644 33.1629 16.3138 33.7234 16.5231 33.9678C16.7324 34.2121 17.3224 34.0463 17.8411 33.5986Z" fill="url(#paint27_linear_689_11149)"/>
<path d="M5.1058 28.2819C5.23848 27.7234 5.06047 27.2018 4.70779 27.1172C4.3551 27.0326 3.96175 27.4173 3.82907 27.9765C3.6964 28.535 3.87441 29.0566 4.22709 29.1412C4.57977 29.2258 4.97313 28.8411 5.1058 28.2819ZM5.12181 25.9082C5.27915 25.4893 5.31114 25.1141 5.1938 25.0691C5.07579 25.0248 4.85312 25.3275 4.69578 25.7464C4.53844 26.1653 4.50577 26.5406 4.62378 26.5849C4.74112 26.6299 4.96447 26.3264 5.12181 25.9082ZM5.8945 24.1494C6.06518 23.797 6.10718 23.4647 5.98784 23.4063C5.86917 23.3479 5.63382 23.5855 5.46248 23.938C5.29114 24.2897 5.24914 24.6227 5.36848 24.6811C5.48782 24.7395 5.72316 24.5012 5.8945 24.1494ZM4.69645 31.7183C5.0978 31.6726 5.36514 31.1181 5.29314 30.4797C5.22114 29.8413 4.83712 29.3607 4.43577 29.4063C4.03442 29.452 3.76707 30.0065 3.83907 30.6449C3.91108 31.2833 4.29444 31.7639 4.69645 31.7183ZM5.76583 34.4162C6.18784 34.2585 6.33053 33.5925 6.08451 32.9286C5.83917 32.264 5.29781 31.8532 4.87579 32.0103C4.45377 32.1681 4.3111 32.834 4.55711 33.4979C4.80246 34.1625 5.34381 34.5733 5.76583 34.4162ZM8.37861 36.512C8.73863 36.1415 8.57662 35.3963 8.0166 34.8479C7.45657 34.3001 6.71053 34.1564 6.35052 34.527C5.9905 34.8982 6.15251 35.6434 6.71253 36.1911C7.27256 36.7389 8.0186 36.8832 8.37861 36.512ZM11.8748 37.1591C11.9941 36.6651 11.4447 36.1072 10.6487 35.9139C9.85201 35.7199 9.10998 35.9636 8.99064 36.4576C8.8713 36.9517 9.41999 37.5089 10.2167 37.7029C11.0134 37.8969 11.7554 37.6532 11.8748 37.1591ZM14.0855 37.4545C14.8396 37.3062 15.3856 36.853 15.3056 36.4422C15.2256 36.0314 14.5489 35.8179 13.7948 35.9663C13.0408 36.1146 12.4948 36.5677 12.5748 36.9786C12.6555 37.3894 13.3315 37.6029 14.0855 37.4545Z" fill="#69C0FF"/>
<path d="M17.4187 35.8217C18.054 35.3712 18.4187 34.7913 18.2327 34.5268C18.0467 34.2623 17.3807 34.4133 16.7454 34.8638C16.11 35.3142 15.7454 35.8935 15.9314 36.158C16.118 36.4225 16.7834 36.2721 17.4187 35.8217Z" fill="url(#paint28_linear_689_11149)"/>
<path d="M24.0867 32.152C23.3767 31.9902 22.7474 32.1714 22.6781 32.5574C22.6087 32.9434 23.1287 33.3865 23.8381 33.5489C24.5474 33.7114 25.1774 33.5301 25.2467 33.1435C25.316 32.7575 24.796 32.3144 24.0867 32.152Z" fill="url(#paint29_linear_689_11149)"/>
<path d="M21.5487 30.9794C21.026 30.5196 20.412 30.3699 20.1747 30.6438C19.9374 30.9177 20.1721 31.5158 20.6934 31.9743C21.216 32.4348 21.83 32.5845 22.0654 32.3099C22.3007 32.036 22.0687 31.4386 21.5474 30.9794H21.5487Z" fill="url(#paint30_linear_689_11149)"/>
<path d="M22.0652 33.3361C21.4359 32.9957 20.7932 32.983 20.6286 33.3079C20.4639 33.6321 20.8392 34.1698 21.4686 34.5102C22.0966 34.8505 22.7405 34.8633 22.9052 34.5384C23.0699 34.2141 22.6946 33.6764 22.0652 33.3361Z" fill="url(#paint31_linear_689_11149)"/>
<path d="M28.0226 32.5589L26.7287 34.0559C26.374 34.0123 26.074 33.8263 25.98 33.5612C25.8273 33.1356 26.2233 32.6314 26.8607 32.4327C27.3067 32.2937 27.7413 32.3696 28.0226 32.5576V32.5589Z" fill="url(#paint32_linear_689_11149)"/>
<path d="M25.1986 35.8229C25.0933 35.8229 24.9855 35.8155 24.8753 35.8008C24.1326 35.6954 23.5693 35.2476 23.616 34.7999C23.6626 34.3521 24.304 34.0762 25.0466 34.1816C25.5173 34.2481 25.9146 34.4528 26.1333 34.7066L25.2006 35.8229H25.1986Z" fill="url(#paint33_linear_689_11149)"/>
<defs>
<linearGradient id="paint0_linear_689_11149" x1="0.478516" y1="19.0283" x2="39.3079" y2="19.0283" gradientUnits="userSpaceOnUse">
<stop stop-color="#0050B3"/>
<stop offset="0.28" stop-color="#003A8C"/>
<stop offset="0.77" stop-color="#003A8C"/>
<stop offset="1" stop-color="#0050B3"/>
</linearGradient>
<linearGradient id="paint1_linear_689_11149" x1="31.6996" y1="29.7441" x2="32.9454" y2="26.3018" gradientUnits="userSpaceOnUse">
<stop offset="0.13" stop-color="#002766"/>
<stop offset="1" stop-color="#0147A3"/>
</linearGradient>
<linearGradient id="paint2_linear_689_11149" x1="13.9155" y1="23.2119" x2="11.6245" y2="24.2032" gradientUnits="userSpaceOnUse">
<stop stop-color="#002766"/>
<stop offset="1" stop-color="#003A8C"/>
</linearGradient>
<linearGradient id="paint3_linear_689_11149" x1="7.23127" y1="26.9117" x2="10.4136" y2="26.6144" gradientUnits="userSpaceOnUse">
<stop stop-color="#002766"/>
<stop offset="1" stop-color="#013C90"/>
</linearGradient>
<linearGradient id="paint4_linear_689_11149" x1="25.7016" y1="21.6866" x2="27.9894" y2="21.9852" gradientUnits="userSpaceOnUse">
<stop stop-color="#002766"/>
<stop offset="1" stop-color="#003A8C"/>
</linearGradient>
<linearGradient id="paint5_linear_689_11149" x1="-5.83895" y1="32.6249" x2="-4.20899" y2="34.5787" gradientUnits="userSpaceOnUse">
<stop stop-color="#1890FF"/>
<stop offset="1" stop-color="#0050B3"/>
</linearGradient>
<linearGradient id="paint6_linear_689_11149" x1="14.423" y1="40.0823" x2="16.9709" y2="39.2729" gradientUnits="userSpaceOnUse">
<stop stop-color="#0050B3"/>
<stop offset="1" stop-color="#188FFF"/>
</linearGradient>
<linearGradient id="paint7_linear_689_11149" x1="6.48325" y1="19.2063" x2="8.01017" y2="18.3661" gradientUnits="userSpaceOnUse">
<stop stop-color="#1890FF"/>
<stop offset="1" stop-color="#0050B3"/>
</linearGradient>
<linearGradient id="paint8_linear_689_11149" x1="-7.31577" y1="35.0241" x2="-5.46658" y2="37.3874" gradientUnits="userSpaceOnUse">
<stop stop-color="#1890FF"/>
<stop offset="1" stop-color="#096DD9"/>
</linearGradient>
<linearGradient id="paint9_linear_689_11149" x1="33.5853" y1="28.2245" x2="32.3843" y2="29.3326" gradientUnits="userSpaceOnUse">
<stop stop-color="#1890FF"/>
<stop offset="1" stop-color="#0050B3"/>
</linearGradient>
<linearGradient id="paint10_linear_689_11149" x1="19.6507" y1="1.299" x2="19.6507" y2="21.6722" gradientUnits="userSpaceOnUse">
<stop stop-color="#003A8C"/>
<stop offset="1" stop-color="#1890FF"/>
</linearGradient>
<linearGradient id="paint11_linear_689_11149" x1="19.4237" y1="7.02613" x2="16.7701" y2="0.192495" gradientUnits="userSpaceOnUse">
<stop stop-color="#003A8C"/>
<stop offset="1" stop-color="#0050B3"/>
</linearGradient>
<linearGradient id="paint12_linear_689_11149" x1="28.9539" y1="17.9082" x2="27.6546" y2="16.5659" gradientUnits="userSpaceOnUse">
<stop stop-color="#1890FF"/>
<stop offset="1" stop-color="#096DD9"/>
</linearGradient>
<linearGradient id="paint13_linear_689_11149" x1="9.74467" y1="19.2457" x2="12.9326" y2="17.609" gradientUnits="userSpaceOnUse">
<stop stop-color="#1890FF"/>
<stop offset="1" stop-color="#096DD9"/>
</linearGradient>
<linearGradient id="paint14_linear_689_11149" x1="19.1581" y1="3.69624" x2="19.1581" y2="16.3287" gradientUnits="userSpaceOnUse">
<stop stop-color="#1890FF"/>
<stop offset="1" stop-color="#003A8C"/>
</linearGradient>
<linearGradient id="paint15_linear_689_11149" x1="18.79" y1="9.18852" x2="18.79" y2="16.8285" gradientUnits="userSpaceOnUse">
<stop offset="0.16" stop-color="#002966"/>
<stop offset="1" stop-color="#013B8D"/>
</linearGradient>
<linearGradient id="paint16_linear_689_11149" x1="14.8943" y1="21.9297" x2="9.24663" y2="29.0494" gradientUnits="userSpaceOnUse">
<stop stop-color="#003A8C"/>
<stop offset="1" stop-color="#1890FF"/>
</linearGradient>
<linearGradient id="paint17_linear_689_11149" x1="20.4047" y1="24.8528" x2="27.8329" y2="32.7128" gradientUnits="userSpaceOnUse">
<stop stop-color="#003A8C"/>
<stop offset="1" stop-color="#1890FF"/>
</linearGradient>
<linearGradient id="paint18_linear_689_11149" x1="29.2546" y1="34.5954" x2="31.7032" y2="41.7816" gradientUnits="userSpaceOnUse">
<stop stop-color="#1890FF"/>
<stop offset="1" stop-color="#0050B3"/>
</linearGradient>
<linearGradient id="paint19_linear_689_11149" x1="19.1432" y1="8.09042" x2="19.1432" y2="14.8819" gradientUnits="userSpaceOnUse">
<stop stop-color="#003A8C"/>
<stop offset="1" stop-color="#0050B3"/>
</linearGradient>
<linearGradient id="paint20_linear_689_11149" x1="22.7929" y1="11.4323" x2="32.8245" y2="2.83332" gradientUnits="userSpaceOnUse">
<stop stop-color="#01439B"/>
<stop offset="1" stop-color="#0050B3"/>
</linearGradient>
<linearGradient id="paint21_linear_689_11149" x1="17.5378" y1="10.9179" x2="1.84971" y2="11.5204" gradientUnits="userSpaceOnUse">
<stop stop-color="#014199"/>
<stop offset="0.73" stop-color="#0050B3"/>
</linearGradient>
<linearGradient id="paint22_linear_689_11149" x1="10.3908" y1="12.6438" x2="17.9535" y2="11.5538" gradientUnits="userSpaceOnUse">
<stop stop-color="#096DD9"/>
<stop offset="1" stop-color="#0147A4"/>
</linearGradient>
<linearGradient id="paint23_linear_689_11149" x1="29.7495" y1="11.739" x2="20.795" y2="11.0948" gradientUnits="userSpaceOnUse">
<stop stop-color="#096DD9"/>
<stop offset="1" stop-color="#01459F"/>
</linearGradient>
<linearGradient id="paint24_linear_689_11149" x1="30.8824" y1="32.9274" x2="6.20511" y2="30.2512" gradientUnits="userSpaceOnUse">
<stop stop-color="#1890FF"/>
<stop offset="0.46" stop-color="#003A8C"/>
<stop offset="1" stop-color="#1890FF"/>
</linearGradient>
<linearGradient id="paint25_linear_689_11149" x1="18.2993" y1="30.2227" x2="21.7314" y2="30.42" gradientUnits="userSpaceOnUse">
<stop offset="0.09" stop-color="#034399"/>
<stop offset="0.47" stop-color="#002766"/>
<stop offset="1" stop-color="#054BA2"/>
</linearGradient>
<linearGradient id="paint26_linear_689_11149" x1="27.5755" y1="33.5325" x2="25.7306" y2="32.4909" gradientUnits="userSpaceOnUse">
<stop stop-color="#0050B3"/>
<stop offset="1" stop-color="#0E6ACC"/>
</linearGradient>
<linearGradient id="paint27_linear_689_11149" x1="14.9465" y1="30.9677" x2="18.3526" y2="27.757" gradientUnits="userSpaceOnUse">
<stop stop-color="#69C0FF"/>
<stop offset="1" stop-color="#096DD9"/>
</linearGradient>
<linearGradient id="paint28_linear_689_11149" x1="14.3481" y1="29.4014" x2="17.0699" y2="27.4799" gradientUnits="userSpaceOnUse">
<stop stop-color="#69C0FF"/>
<stop offset="1" stop-color="#096DD9"/>
</linearGradient>
<linearGradient id="paint29_linear_689_11149" x1="20.3368" y1="30.0622" x2="26.5237" y2="34.7816" gradientUnits="userSpaceOnUse">
<stop stop-color="#096DD9"/>
<stop offset="0.41" stop-color="#69C0FF"/>
<stop offset="0.72" stop-color="#69C0FF"/>
<stop offset="1" stop-color="#096DD9"/>
</linearGradient>
<linearGradient id="paint30_linear_689_11149" x1="19.9474" y1="30.5733" x2="26.1323" y2="35.294" gradientUnits="userSpaceOnUse">
<stop stop-color="#096DD9"/>
<stop offset="0.41" stop-color="#69C0FF"/>
<stop offset="0.72" stop-color="#69C0FF"/>
<stop offset="1" stop-color="#096DD9"/>
</linearGradient>
<linearGradient id="paint31_linear_689_11149" x1="19.0113" y1="31.8022" x2="25.1962" y2="36.5235" gradientUnits="userSpaceOnUse">
<stop stop-color="#096DD9"/>
<stop offset="0.41" stop-color="#69C0FF"/>
<stop offset="0.72" stop-color="#69C0FF"/>
<stop offset="1" stop-color="#096DD9"/>
</linearGradient>
<linearGradient id="paint32_linear_689_11149" x1="21.3294" y1="28.7573" x2="27.5156" y2="33.478" gradientUnits="userSpaceOnUse">
<stop stop-color="#096DD9"/>
<stop offset="0.41" stop-color="#69C0FF"/>
<stop offset="0.72" stop-color="#69C0FF"/>
<stop offset="1" stop-color="#096DD9"/>
</linearGradient>
<linearGradient id="paint33_linear_689_11149" x1="19.6754" y1="30.9258" x2="25.8602" y2="35.6466" gradientUnits="userSpaceOnUse">
<stop stop-color="#096DD9"/>
<stop offset="0.41" stop-color="#69C0FF"/>
<stop offset="0.72" stop-color="#69C0FF"/>
<stop offset="1" stop-color="#096DD9"/>
</linearGradient>
</defs>
</svg>
