<svg width="350" height="48" viewBox="0 0 350 48" fill="none" xmlns="http://www.w3.org/2000/svg">
<path d="M2 13.9L11.54 36.446L8.107 44.571H16.487L29.193 13.901H20.858L15.686 27.023L10.559 13.896L2 13.9ZM25.423 31.542C25.4096 32.5607 25.7028 33.5598 26.2646 34.4098C26.8263 35.2597 27.6306 35.921 28.573 36.308C29.1992 36.5632 29.8698 36.6914 30.546 36.685C31.2445 36.6905 31.9371 36.5567 32.5833 36.2916C33.2296 36.0265 33.8166 35.6354 34.31 35.141C34.8041 34.6463 35.1948 34.0581 35.4594 33.4109C35.724 32.7636 35.8571 32.0702 35.851 31.371C35.8623 30.6939 35.7376 30.0214 35.4842 29.3934C35.2308 28.7654 34.854 28.1947 34.376 27.715C33.8976 27.2362 33.3277 26.8587 32.7003 26.6049C32.0728 26.3512 31.4007 26.2264 30.724 26.238C30.0264 26.2354 29.3352 26.371 28.6904 26.637C28.0455 26.9031 27.4598 27.2943 26.967 27.788C26.4738 28.2823 26.0832 28.8692 25.8175 29.515C25.5518 30.1608 25.4164 30.8527 25.419 31.551L25.423 31.542ZM36.658 4.014L28.255 24.27H37.62L46 4L36.658 4.014Z" fill="#5F00D3"/>
<path d="M61.52 25.304L56.24 14.48H59.744L63.776 22.952L63.008 22.712H65.288L64.472 22.952L68.144 14.48H71.456L66.584 25.304H61.52ZM62.384 32V24.776H65.72V32H62.384ZM80.6279 32V28.136H80.0759V23.84C80.0759 23.088 79.8919 22.528 79.5239 22.16C79.1559 21.792 78.5879 21.608 77.8199 21.608C77.4199 21.608 76.9399 21.616 76.3799 21.632C75.8199 21.648 75.2519 21.672 74.6759 21.704C74.1159 21.72 73.6119 21.744 73.1639 21.776V18.944C73.5319 18.912 73.9479 18.88 74.4119 18.848C74.8759 18.816 75.3479 18.8 75.8279 18.8C76.3239 18.784 76.7879 18.776 77.2199 18.776C78.5639 18.776 79.6759 18.952 80.5559 19.304C81.4519 19.656 82.1239 20.208 82.5719 20.96C83.0359 21.712 83.2679 22.696 83.2679 23.912V32H80.6279ZM76.4279 32.336C75.4839 32.336 74.6519 32.168 73.9319 31.832C73.2279 31.496 72.6759 31.016 72.2759 30.392C71.8919 29.768 71.6999 29.016 71.6999 28.136C71.6999 27.176 71.9319 26.392 72.3959 25.784C72.8759 25.176 73.5399 24.72 74.3879 24.416C75.2519 24.112 76.2599 23.96 77.4119 23.96H80.4359V25.952H77.3639C76.5959 25.952 76.0039 26.144 75.5879 26.528C75.1879 26.896 74.9879 27.376 74.9879 27.968C74.9879 28.56 75.1879 29.04 75.5879 29.408C76.0039 29.776 76.5959 29.96 77.3639 29.96C77.8279 29.96 78.2519 29.88 78.6359 29.72C79.0359 29.544 79.3639 29.256 79.6199 28.856C79.8919 28.44 80.0439 27.88 80.0759 27.176L80.8919 28.112C80.8119 29.024 80.5879 29.792 80.2199 30.416C79.8679 31.04 79.3719 31.52 78.7319 31.856C78.1079 32.176 77.3399 32.336 76.4279 32.336ZM86.8413 32V14.48H90.1773V24.704H89.6013C89.6013 23.392 89.7693 22.28 90.1053 21.368C90.4413 20.456 90.9373 19.76 91.5933 19.28C92.2653 18.8 93.1133 18.56 94.1373 18.56H94.2813C95.7693 18.56 96.8973 19.072 97.6653 20.096C98.4333 21.12 98.8173 22.608 98.8173 24.56V32H95.4813V24.248C95.4813 23.416 95.2413 22.76 94.7613 22.28C94.2973 21.8 93.6813 21.56 92.9133 21.56C92.0973 21.56 91.4333 21.832 90.9213 22.376C90.4253 22.904 90.1773 23.6 90.1773 24.464V32H86.8413ZM108.668 32.456C107.516 32.456 106.5 32.272 105.62 31.904C104.74 31.536 103.996 31.04 103.388 30.416C102.78 29.776 102.316 29.056 101.996 28.256C101.692 27.456 101.54 26.624 101.54 25.76V25.256C101.54 24.36 101.7 23.512 102.02 22.712C102.356 21.896 102.828 21.176 103.436 20.552C104.06 19.912 104.812 19.416 105.692 19.064C106.572 18.696 107.564 18.512 108.668 18.512C109.772 18.512 110.764 18.696 111.644 19.064C112.524 19.416 113.268 19.912 113.876 20.552C114.5 21.176 114.972 21.896 115.292 22.712C115.612 23.512 115.772 24.36 115.772 25.256V25.76C115.772 26.624 115.612 27.456 115.292 28.256C114.988 29.056 114.532 29.776 113.924 30.416C113.316 31.04 112.572 31.536 111.692 31.904C110.812 32.272 109.804 32.456 108.668 32.456ZM108.668 29.6C109.484 29.6 110.172 29.424 110.732 29.072C111.292 28.704 111.716 28.216 112.004 27.608C112.292 26.984 112.436 26.28 112.436 25.496C112.436 24.696 112.284 23.992 111.98 23.384C111.692 22.76 111.26 22.272 110.684 21.92C110.124 21.552 109.452 21.368 108.668 21.368C107.884 21.368 107.204 21.552 106.628 21.92C106.068 22.272 105.636 22.76 105.332 23.384C105.028 23.992 104.876 24.696 104.876 25.496C104.876 26.28 105.02 26.984 105.308 27.608C105.612 28.216 106.044 28.704 106.604 29.072C107.164 29.424 107.852 29.6 108.668 29.6ZM124.957 32.456C123.805 32.456 122.789 32.272 121.909 31.904C121.029 31.536 120.285 31.04 119.677 30.416C119.069 29.776 118.605 29.056 118.285 28.256C117.981 27.456 117.829 26.624 117.829 25.76V25.256C117.829 24.36 117.989 23.512 118.309 22.712C118.645 21.896 119.117 21.176 119.725 20.552C120.349 19.912 121.101 19.416 121.981 19.064C122.861 18.696 123.853 18.512 124.957 18.512C126.061 18.512 127.053 18.696 127.933 19.064C128.813 19.416 129.557 19.912 130.165 20.552C130.789 21.176 131.261 21.896 131.581 22.712C131.901 23.512 132.061 24.36 132.061 25.256V25.76C132.061 26.624 131.901 27.456 131.581 28.256C131.277 29.056 130.821 29.776 130.213 30.416C129.605 31.04 128.861 31.536 127.981 31.904C127.101 32.272 126.093 32.456 124.957 32.456ZM124.957 29.6C125.773 29.6 126.461 29.424 127.021 29.072C127.581 28.704 128.005 28.216 128.293 27.608C128.581 26.984 128.725 26.28 128.725 25.496C128.725 24.696 128.573 23.992 128.269 23.384C127.981 22.76 127.549 22.272 126.973 21.92C126.413 21.552 125.741 21.368 124.957 21.368C124.173 21.368 123.493 21.552 122.917 21.92C122.357 22.272 121.925 22.76 121.621 23.384C121.317 23.992 121.165 24.696 121.165 25.496C121.165 26.28 121.309 26.984 121.597 27.608C121.901 28.216 122.333 28.704 122.893 29.072C123.453 29.424 124.141 29.6 124.957 29.6ZM146.402 32.456C144.85 32.456 143.538 32.208 142.466 31.712C141.41 31.216 140.602 30.536 140.042 29.672C139.482 28.792 139.202 27.8 139.202 26.696H142.538C142.538 27.16 142.666 27.616 142.922 28.064C143.178 28.496 143.586 28.848 144.146 29.12C144.722 29.392 145.474 29.528 146.402 29.528C147.234 29.528 147.93 29.408 148.49 29.168C149.05 28.928 149.466 28.616 149.738 28.232C150.01 27.832 150.146 27.384 150.146 26.888C150.146 26.264 149.882 25.768 149.354 25.4C148.826 25.016 148.01 24.776 146.906 24.68L145.37 24.56C143.69 24.416 142.346 23.896 141.338 23C140.346 22.088 139.85 20.888 139.85 19.4C139.85 18.28 140.114 17.32 140.642 16.52C141.17 15.704 141.906 15.08 142.85 14.648C143.81 14.2 144.93 13.976 146.21 13.976C147.538 13.976 148.682 14.208 149.642 14.672C150.602 15.136 151.346 15.792 151.874 16.64C152.402 17.472 152.666 18.456 152.666 19.592H149.33C149.33 19.112 149.21 18.672 148.97 18.272C148.746 17.856 148.402 17.528 147.938 17.288C147.49 17.032 146.914 16.904 146.21 16.904C145.538 16.904 144.978 17.016 144.53 17.24C144.082 17.464 143.746 17.768 143.522 18.152C143.298 18.536 143.186 18.952 143.186 19.4C143.186 19.944 143.386 20.424 143.786 20.84C144.186 21.24 144.818 21.472 145.682 21.536L147.218 21.68C148.466 21.776 149.562 22.04 150.506 22.472C151.45 22.904 152.178 23.488 152.69 24.224C153.218 24.96 153.482 25.848 153.482 26.888C153.482 27.992 153.194 28.968 152.618 29.816C152.042 30.648 151.218 31.296 150.146 31.76C149.09 32.224 147.842 32.456 146.402 32.456ZM156.598 32V14.48H159.934V32H156.598ZM159.454 32V29.12H167.398V32H159.454ZM159.454 24.536V21.656H166.773V24.536H159.454ZM159.454 17.36V14.48H167.206V17.36H159.454ZM170.894 32V14.36H174.302V32H170.894ZM181.598 32L176.222 24.368H180.038L185.582 32H181.598ZM173.294 26.144V23.384H177.758C178.382 23.384 178.918 23.256 179.366 23C179.83 22.744 180.19 22.384 180.446 21.92C180.702 21.456 180.83 20.928 180.83 20.336C180.83 19.728 180.702 19.192 180.446 18.728C180.19 18.264 179.83 17.904 179.366 17.648C178.918 17.392 178.382 17.264 177.758 17.264H173.294V14.36H177.398C178.806 14.36 180.022 14.568 181.046 14.984C182.086 15.4 182.886 16.032 183.446 16.88C184.006 17.728 184.286 18.792 184.286 20.072V20.456C184.286 21.752 183.998 22.816 183.422 23.648C182.862 24.48 182.07 25.104 181.046 25.52C180.022 25.936 178.806 26.144 177.398 26.144H173.294ZM191.096 26.624V23.672H194.504C195.192 23.672 195.768 23.536 196.232 23.264C196.712 22.992 197.072 22.616 197.312 22.136C197.568 21.656 197.696 21.104 197.696 20.48C197.696 19.856 197.568 19.304 197.312 18.824C197.072 18.344 196.712 17.976 196.232 17.72C195.768 17.448 195.192 17.312 194.504 17.312H191.096V14.36H194.216C195.688 14.36 196.936 14.6 197.96 15.08C199 15.56 199.792 16.248 200.336 17.144C200.88 18.024 201.152 19.072 201.152 20.288V20.672C201.152 21.888 200.88 22.944 200.336 23.84C199.792 24.72 199 25.408 197.96 25.904C196.936 26.384 195.688 26.624 194.216 26.624H191.096ZM188.168 32V14.36H191.576V32H188.168Z" fill="black"/>
</svg>
